<svg xmlns="http://www.w3.org/2000/svg" viewBox="0 0 1220 630">
<rect width="1220" height="630" fill="#ffffff"/>
<defs>
<pattern id="hatch-T" width="4" height="4" patternUnits="userSpaceOnUse"><path d="M0,0 L0,4" stroke="#000" stroke-width="0.5"/></pattern>
<pattern id="hatch-F" width="4" height="4" patternUnits="userSpaceOnUse"><path d="M0,0 L4,0" stroke="#000" stroke-width="0.5"/></pattern>
<pattern id="hatch-B" width="4" height="4" patternUnits="userSpaceOnUse"><path d="M0,0 L0,4 M0,0 L4,0" stroke="#000" stroke-width="0.5"/></pattern>
</defs>
<line x1="0.0" y1="0.0" x2="0.0" y2="630.0" stroke="#e8e8e8" stroke-width="0.4" opacity="0.3"></line>
<line x1="40.0" y1="0.0" x2="40.0" y2="630.0" stroke="#e8e8e8" stroke-width="0.4" opacity="0.3"></line>
<line x1="80.0" y1="0.0" x2="80.0" y2="630.0" stroke="#e8e8e8" stroke-width="0.4" opacity="0.3"></line>
<line x1="120.0" y1="0.0" x2="120.0" y2="630.0" stroke="#e8e8e8" stroke-width="0.4" opacity="0.3"></line>
<line x1="160.0" y1="0.0" x2="160.0" y2="630.0" stroke="#e8e8e8" stroke-width="0.4" opacity="0.3"></line>
<line x1="200.0" y1="0.0" x2="200.0" y2="630.0" stroke="#e8e8e8" stroke-width="0.4" opacity="0.3"></line>
<line x1="240.0" y1="0.0" x2="240.0" y2="630.0" stroke="#e8e8e8" stroke-width="0.4" opacity="0.3"></line>
<line x1="280.0" y1="0.0" x2="280.0" y2="630.0" stroke="#e8e8e8" stroke-width="0.4" opacity="0.3"></line>
<line x1="320.0" y1="0.0" x2="320.0" y2="630.0" stroke="#e8e8e8" stroke-width="0.4" opacity="0.3"></line>
<line x1="360.0" y1="0.0" x2="360.0" y2="630.0" stroke="#e8e8e8" stroke-width="0.4" opacity="0.3"></line>
<line x1="400.0" y1="0.0" x2="400.0" y2="630.0" stroke="#e8e8e8" stroke-width="0.4" opacity="0.3"></line>
<line x1="440.0" y1="0.0" x2="440.0" y2="630.0" stroke="#e8e8e8" stroke-width="0.4" opacity="0.3"></line>
<line x1="480.0" y1="0.0" x2="480.0" y2="630.0" stroke="#e8e8e8" stroke-width="0.4" opacity="0.3"></line>
<line x1="520.0" y1="0.0" x2="520.0" y2="630.0" stroke="#e8e8e8" stroke-width="0.4" opacity="0.3"></line>
<line x1="560.0" y1="0.0" x2="560.0" y2="630.0" stroke="#e8e8e8" stroke-width="0.4" opacity="0.3"></line>
<line x1="600.0" y1="0.0" x2="600.0" y2="630.0" stroke="#e8e8e8" stroke-width="0.4" opacity="0.3"></line>
<line x1="640.0" y1="0.0" x2="640.0" y2="630.0" stroke="#e8e8e8" stroke-width="0.4" opacity="0.3"></line>
<line x1="680.0" y1="0.0" x2="680.0" y2="630.0" stroke="#e8e8e8" stroke-width="0.4" opacity="0.3"></line>
<line x1="720.0" y1="0.0" x2="720.0" y2="630.0" stroke="#e8e8e8" stroke-width="0.4" opacity="0.3"></line>
<line x1="760.0" y1="0.0" x2="760.0" y2="630.0" stroke="#e8e8e8" stroke-width="0.4" opacity="0.3"></line>
<line x1="800.0" y1="0.0" x2="800.0" y2="630.0" stroke="#e8e8e8" stroke-width="0.4" opacity="0.3"></line>
<line x1="840.0" y1="0.0" x2="840.0" y2="630.0" stroke="#e8e8e8" stroke-width="0.4" opacity="0.3"></line>
<line x1="880.0" y1="0.0" x2="880.0" y2="630.0" stroke="#e8e8e8" stroke-width="0.4" opacity="0.3"></line>
<line x1="920.0" y1="0.0" x2="920.0" y2="630.0" stroke="#e8e8e8" stroke-width="0.4" opacity="0.3"></line>
<line x1="960.0" y1="0.0" x2="960.0" y2="630.0" stroke="#e8e8e8" stroke-width="0.4" opacity="0.3"></line>
<line x1="1000.0" y1="0.0" x2="1000.0" y2="630.0" stroke="#e8e8e8" stroke-width="0.4" opacity="0.3"></line>
<line x1="1040.0" y1="0.0" x2="1040.0" y2="630.0" stroke="#e8e8e8" stroke-width="0.4" opacity="0.3"></line>
<line x1="1080.0" y1="0.0" x2="1080.0" y2="630.0" stroke="#e8e8e8" stroke-width="0.4" opacity="0.3"></line>
<line x1="1120.0" y1="0.0" x2="1120.0" y2="630.0" stroke="#e8e8e8" stroke-width="0.4" opacity="0.3"></line>
<line x1="1160.0" y1="0.0" x2="1160.0" y2="630.0" stroke="#e8e8e8" stroke-width="0.4" opacity="0.3"></line>
<line x1="1200.0" y1="0.0" x2="1200.0" y2="630.0" stroke="#e8e8e8" stroke-width="0.4" opacity="0.3"></line>
<line x1="0.0" y1="0.0" x2="1220.0" y2="0.0" stroke="#e8e8e8" stroke-width="0.4" opacity="0.3"></line>
<line x1="0.0" y1="40.0" x2="1220.0" y2="40.0" stroke="#e8e8e8" stroke-width="0.4" opacity="0.3"></line>
<line x1="0.0" y1="80.0" x2="1220.0" y2="80.0" stroke="#e8e8e8" stroke-width="0.4" opacity="0.3"></line>
<line x1="0.0" y1="120.0" x2="1220.0" y2="120.0" stroke="#e8e8e8" stroke-width="0.4" opacity="0.3"></line>
<line x1="0.0" y1="160.0" x2="1220.0" y2="160.0" stroke="#e8e8e8" stroke-width="0.4" opacity="0.3"></line>
<line x1="0.0" y1="200.0" x2="1220.0" y2="200.0" stroke="#e8e8e8" stroke-width="0.4" opacity="0.3"></line>
<line x1="0.0" y1="240.0" x2="1220.0" y2="240.0" stroke="#e8e8e8" stroke-width="0.4" opacity="0.3"></line>
<line x1="0.0" y1="280.0" x2="1220.0" y2="280.0" stroke="#e8e8e8" stroke-width="0.4" opacity="0.3"></line>
<line x1="0.0" y1="320.0" x2="1220.0" y2="320.0" stroke="#e8e8e8" stroke-width="0.4" opacity="0.3"></line>
<line x1="0.0" y1="360.0" x2="1220.0" y2="360.0" stroke="#e8e8e8" stroke-width="0.4" opacity="0.3"></line>
<line x1="0.0" y1="400.0" x2="1220.0" y2="400.0" stroke="#e8e8e8" stroke-width="0.4" opacity="0.3"></line>
<line x1="0.0" y1="440.0" x2="1220.0" y2="440.0" stroke="#e8e8e8" stroke-width="0.4" opacity="0.3"></line>
<line x1="0.0" y1="480.0" x2="1220.0" y2="480.0" stroke="#e8e8e8" stroke-width="0.4" opacity="0.3"></line>
<line x1="0.0" y1="520.0" x2="1220.0" y2="520.0" stroke="#e8e8e8" stroke-width="0.4" opacity="0.3"></line>
<line x1="0.0" y1="560.0" x2="1220.0" y2="560.0" stroke="#e8e8e8" stroke-width="0.4" opacity="0.3"></line>
<line x1="0.0" y1="600.0" x2="1220.0" y2="600.0" stroke="#e8e8e8" stroke-width="0.4" opacity="0.3"></line>
<text x="610.0" y="26.0" fill="#000000" font-size="13" text-anchor="middle" font-family="monospace" font-weight="bold">mitosis</text>
<text x="22.0" y="190.0" fill="#000000" font-size="7" text-anchor="middle" font-family="monospace">T-lane</text>
<text x="22.0" y="470.0" fill="#000000" font-size="7" text-anchor="middle" font-family="monospace">F-lane</text>
<text x="22.0" y="330.0" fill="#000000" font-size="7" text-anchor="middle" font-family="monospace">main</text>
<line x1="1038.0" y1="145.0" x2="1038.0" y2="515.0" stroke="#000000" stroke-width="1.2" opacity="1.0"></line>
<line x1="1046.0" y1="145.0" x2="1046.0" y2="515.0" stroke="#000000" stroke-width="1.2" opacity="1.0"></line>
<line x1="1035.0" y1="142.0" x2="1041.0" y2="148.0" stroke="#000000" stroke-width="0.8"></line>
<line x1="1041.0" y1="142.0" x2="1035.0" y2="148.0" stroke="#000000" stroke-width="0.8"></line>
<line x1="1043.0" y1="142.0" x2="1049.0" y2="148.0" stroke="#000000" stroke-width="0.8"></line>
<line x1="1049.0" y1="142.0" x2="1043.0" y2="148.0" stroke="#000000" stroke-width="0.8"></line>
<line x1="1035.0" y1="512.0" x2="1041.0" y2="518.0" stroke="#000000" stroke-width="0.8"></line>
<line x1="1041.0" y1="512.0" x2="1035.0" y2="518.0" stroke="#000000" stroke-width="0.8"></line>
<line x1="1043.0" y1="512.0" x2="1049.0" y2="518.0" stroke="#000000" stroke-width="0.8"></line>
<line x1="1049.0" y1="512.0" x2="1043.0" y2="518.0" stroke="#000000" stroke-width="0.8"></line>
<text x="1042.0" y="135.0" fill="#000000" font-size="7" text-anchor="middle" font-family="monospace" font-weight="bold">IFIX</text>
<line x1="562.0" y1="330.0" x2="638.0" y2="196.9" stroke="#000000" stroke-width="1.5" opacity="1.0"></line>
<polygon points="642.0,190.0 640.8,198.5 635.3,195.4" fill="#000000" opacity="1.0"></polygon>
<circle cx="602.0" cy="260.0" r="5" fill="#ffffff" stroke="none"></circle>
<text x="602.0" y="262.0" fill="#000000" font-size="8" text-anchor="middle" font-family="monospace" font-weight="bold">◇</text>
<text x="602.0" y="256.0" fill="#000000" font-size="6" text-anchor="middle" font-family="monospace">→↑</text>
<line x1="642.0" y1="190.0" x2="730.0" y2="190.0" stroke="#000000" stroke-width="2.5" opacity="1.0"></line>
<polygon points="738.0,190.0 730.0,193.2 730.0,186.8" fill="#000000" opacity="1.0"></polygon>
<line x1="738.0" y1="190.0" x2="842.0" y2="190.0" stroke="#000000" stroke-width="1.5" opacity="1.0"></line>
<polygon points="850.0,190.0 842.0,193.2 842.0,186.8" fill="#000000" opacity="1.0"></polygon>
<circle cx="794.0" cy="190.0" r="5" fill="#ffffff" stroke="none"></circle>
<text x="794.0" y="192.0" fill="#000000" font-size="8" text-anchor="middle" font-family="monospace" font-weight="bold">+</text>
<polyline points="847.5,191.7 864.5,205.8 871.5,226.7 888.5,240.8 895.5,261.7 912.5,275.8 919.5,296.7 936.5,310.8 943.5,331.7" fill="none" stroke="#000000" stroke-width="1.5"></polyline>
<polygon points="946.0,330.0 939.7,325.8 944.4,322.6" fill="#000000"></polygon>
<line x1="562.0" y1="330.0" x2="669.0" y2="463.8" stroke="#000000" stroke-width="1.5" opacity="1.0"></line>
<polygon points="674.0,470.0 666.5,465.8 671.5,461.8" fill="#000000" opacity="1.0"></polygon>
<circle cx="618.0" cy="400.0" r="5" fill="#ffffff" stroke="none"></circle>
<text x="618.0" y="402.0" fill="#000000" font-size="8" text-anchor="middle" font-family="monospace" font-weight="bold">◇</text>
<text x="618.0" y="396.0" fill="#000000" font-size="6" text-anchor="middle" font-family="monospace">◆↑↓</text>
<line x1="674.0" y1="470.0" x2="762.0" y2="470.0" stroke="#000000" stroke-width="1.5" opacity="1.0"></line>
<polygon points="770.0,470.0 762.0,473.2 762.0,466.8" fill="#000000" opacity="1.0"></polygon>
<circle cx="722.0" cy="470.0" r="5" fill="#ffffff" stroke="none"></circle>
<text x="722.0" y="472.0" fill="#000000" font-size="8" text-anchor="middle" font-family="monospace" font-weight="bold">×</text>
<text x="722.0" y="466.0" fill="#000000" font-size="6" text-anchor="middle" font-family="monospace">=↑↓→↑↓</text>
<line x1="770.0" y1="470.0" x2="939.7" y2="335.0" stroke="#000000" stroke-width="1.5" opacity="1.0" stroke-dasharray="6,4"></line>
<polygon points="946.0,330.0 941.7,337.5 937.7,332.5" fill="#000000" opacity="1.0"></polygon>
<text x="858.0" y="396.0" fill="#000000" font-size="6" text-anchor="middle" font-family="monospace">◆↑↓→↑</text>
<line x1="178.0" y1="330.0" x2="266.0" y2="330.0" stroke="#000000" stroke-width="1.5" opacity="1.0"></line>
<polyline points="266.0,333.2 274.0,330.0 266.0,326.8" fill="none" stroke="#000000" stroke-width="1.5"></polyline>
<text x="226.0" y="326.0" fill="#000000" font-size="6" text-anchor="middle" font-family="monospace">→↑</text>
<line x1="274.0" y1="330.0" x2="370.0" y2="330.0" stroke="#000000" stroke-width="1.5" opacity="1.0"></line>
<polygon points="284.0,330.0 291.0,327.2 291.0,332.8" fill="#000000" stroke="#000000" stroke-width="0.5"></polygon>
<circle cx="322.0" cy="330.0" r="5" fill="#ffffff" stroke="none"></circle>
<text x="322.0" y="332.0" fill="#000000" font-size="8" text-anchor="middle" font-family="monospace" font-weight="bold">←</text>
<text x="322.0" y="326.0" fill="#000000" font-size="6" text-anchor="middle" font-family="monospace">→↑→</text>
<line x1="370.0" y1="326.5" x2="457.0" y2="326.5" stroke="#000000" stroke-width="1.0" opacity="1.0"></line>
<line x1="370.0" y1="333.5" x2="457.0" y2="333.5" stroke="#000000" stroke-width="1.0" opacity="1.0"></line>
<polygon points="466.0,330.0 456.0,334.0 456.0,326.0" fill="#000000" opacity="1.0"></polygon>
<line x1="466.0" y1="330.0" x2="554.0" y2="330.0" stroke="#000000" stroke-width="1.5" opacity="1.0" stroke-dasharray="8,3,2,3,2,3"></line>
<polyline points="554.0,333.2 562.0,330.0 554.0,326.8" fill="none" stroke="#000000" stroke-width="1.5"></polyline>
<line x1="946.0" y1="330.0" x2="1034.0" y2="330.0" stroke="#000000" stroke-width="1.5" opacity="1.0"></line>
<polygon points="1042.0,330.0 1034.0,333.2 1034.0,326.8" fill="#000000" opacity="1.0"></polygon>
<circle cx="994.0" cy="330.0" r="5" fill="#ffffff" stroke="none"></circle>
<text x="994.0" y="332.0" fill="#000000" font-size="8" text-anchor="middle" font-family="monospace" font-weight="bold">●</text>
<circle cx="178.0" cy="330.0" r="22.0" fill="none" stroke="#000000" stroke-width="1.8"></circle>
<text x="178.0" y="300.0" fill="#000000" font-size="8" text-anchor="middle" font-family="monospace" font-weight="bold">VI</text>
<text x="178.0" y="364.0" fill="#444" font-size="5.5" text-anchor="middle" font-family="monospace">VINIT</text>
<circle cx="201.0" cy="330.0" r="2.5" fill="#000000" stroke-width="0"></circle>
<circle cx="274.0" cy="330.0" r="22.0" fill="none" stroke="#000000" stroke-width="1.8"></circle>
<circle cx="274.0" cy="330.0" r="11.0" fill="url(#hatch-T)" stroke="#000000" stroke-width="0.6"></circle>
<text x="274.0" y="300.0" fill="#000000" font-size="8" text-anchor="middle" font-family="monospace" font-weight="bold">IM</text>
<text x="274.0" y="364.0" fill="#444" font-size="5.5" text-anchor="middle" font-family="monospace">IMSCRIB</text>
<circle cx="251.0" cy="330.0" r="2.5" fill="none" stroke="#000000" stroke-width="0.6"></circle>
<circle cx="297.0" cy="330.0" r="2.5" fill="#000000" stroke-width="0"></circle>
<circle cx="370.0" cy="330.0" r="22.0" fill="none" stroke="#000000" stroke-width="1.8"></circle>
<text x="370.0" y="300.0" fill="#000000" font-size="8" text-anchor="middle" font-family="monospace" font-weight="bold">CL</text>
<text x="370.0" y="364.0" fill="#444" font-size="5.5" text-anchor="middle" font-family="monospace">CLINK</text>
<circle cx="347.0" cy="330.0" r="2.5" fill="none" stroke="#000000" stroke-width="0.6"></circle>
<circle cx="393.0" cy="330.0" r="2.5" fill="#000000" stroke-width="0"></circle>
<circle cx="466.0" cy="330.0" r="22.0" fill="none" stroke="#000000" stroke-width="1.8"></circle>
<text x="466.0" y="300.0" fill="#000000" font-size="8" text-anchor="middle" font-family="monospace" font-weight="bold">TA</text>
<text x="466.0" y="364.0" fill="#444" font-size="5.5" text-anchor="middle" font-family="monospace">TANCH</text>
<circle cx="443.0" cy="330.0" r="2.5" fill="none" stroke="#000000" stroke-width="0.6"></circle>
<circle cx="489.0" cy="330.0" r="2.5" fill="#000000" stroke-width="0"></circle>
<polygon points="562.0,308.0 584.0,330 562.0,352.0 540.0,330" fill="none" stroke="#000000" stroke-width="1.8"></polygon>
<text x="562.0" y="300.0" fill="#000000" font-size="8" text-anchor="middle" font-family="monospace" font-weight="bold">FS</text>
<text x="562.0" y="364.0" fill="#444" font-size="5.5" text-anchor="middle" font-family="monospace">FSPLIT</text>
<circle cx="539.0" cy="330.0" r="2.5" fill="none" stroke="#000000" stroke-width="0.6"></circle>
<circle cx="585.0" cy="323.0" r="2.5" fill="#000000" stroke-width="0"></circle>
<circle cx="585.0" cy="337.0" r="2.5" fill="#000000" stroke-width="0"></circle>
<circle cx="642.0" cy="190.0" r="22.0" fill="none" stroke="#000000" stroke-width="1.8"></circle>
<circle cx="642.0" cy="190.0" r="11.0" fill="url(#hatch-T)" stroke="#000000" stroke-width="0.6"></circle>
<text x="642.0" y="160.0" fill="#000000" font-size="8" text-anchor="middle" font-family="monospace" font-weight="bold">AF</text>
<text x="642.0" y="224.0" fill="#444" font-size="5.5" text-anchor="middle" font-family="monospace">AFWD</text>
<circle cx="619.0" cy="190.0" r="2.5" fill="none" stroke="#000000" stroke-width="0.6"></circle>
<circle cx="665.0" cy="190.0" r="2.5" fill="#000000" stroke-width="0"></circle>
<polygon points="757.1,201.0 738.0,212.0 718.9,201.0 718.9,179.0 738.0,168.0 757.1,179.0" fill="none" stroke="#000000" stroke-width="1.8"></polygon>
<circle cx="738.0" cy="190.0" r="11.0" fill="url(#hatch-T)" stroke="#000000" stroke-width="0.6"></circle>
<text x="738.0" y="160.0" fill="#000000" font-size="8" text-anchor="middle" font-family="monospace" font-weight="bold">ET</text>
<text x="738.0" y="224.0" fill="#444" font-size="5.5" text-anchor="middle" font-family="monospace">EVALT</text>
<circle cx="715.0" cy="190.0" r="3.5" fill="none" stroke="#000000" stroke-width="1.0"></circle>
<circle cx="761.0" cy="190.0" r="3.5" fill="#000000" stroke-width="0"></circle>
<polygon points="869.1,201.0 850.0,212.0 830.9,201.0 830.9,179.0 850.0,168.0 869.1,179.0" fill="none" stroke="#000000" stroke-width="1.8"></polygon>
<circle cx="850.0" cy="190.0" r="11.0" fill="url(#hatch-T)" stroke="#000000" stroke-width="0.6"></circle>
<text x="850.0" y="160.0" fill="#000000" font-size="8" text-anchor="middle" font-family="monospace" font-weight="bold">EG</text>
<text x="850.0" y="224.0" fill="#444" font-size="5.5" text-anchor="middle" font-family="monospace">ENGAGR</text>
<circle cx="827.0" cy="190.0" r="2.5" fill="none" stroke="#000000" stroke-width="0.6"></circle>
<circle cx="873.0" cy="190.0" r="2.5" fill="#000000" stroke-width="0"></circle>
<polygon points="693.1,481.0 674.0,492.0 654.9,481.0 654.9,459.0 674.0,448.0 693.1,459.0" fill="none" stroke="#000000" stroke-width="1.8"></polygon>
<circle cx="674.0" cy="470.0" r="11.0" fill="url(#hatch-B)" stroke="#000000" stroke-width="0.6"></circle>
<text x="674.0" y="440.0" fill="#000000" font-size="8" text-anchor="middle" font-family="monospace" font-weight="bold">EF</text>
<text x="674.0" y="504.0" fill="#444" font-size="5.5" text-anchor="middle" font-family="monospace">EVALF</text>
<circle cx="651.0" cy="470.0" r="3.5" fill="none" stroke="#000000" stroke-width="1.0"></circle>
<circle cx="697.0" cy="470.0" r="3.5" fill="#000000" stroke-width="0"></circle>
<circle cx="770.0" cy="470.0" r="22.0" fill="none" stroke="#000000" stroke-width="1.8"></circle>
<circle cx="770.0" cy="470.0" r="11.0" fill="url(#hatch-B)" stroke="#000000" stroke-width="0.6"></circle>
<text x="770.0" y="440.0" fill="#000000" font-size="8" text-anchor="middle" font-family="monospace" font-weight="bold">AR</text>
<text x="770.0" y="504.0" fill="#444" font-size="5.5" text-anchor="middle" font-family="monospace">AREV</text>
<circle cx="747.0" cy="470.0" r="2.5" fill="none" stroke="#000000" stroke-width="0.6"></circle>
<circle cx="793.0" cy="470.0" r="2.5" fill="#000000" stroke-width="0"></circle>
<polygon points="946.0,308.0 968.0,330 946.0,352.0 924.0,330" fill="none" stroke="#000000" stroke-width="1.8"></polygon>
<circle cx="946.0" cy="330.0" r="11.0" fill="url(#hatch-T)" stroke="#000000" stroke-width="0.6"></circle>
<text x="946.0" y="300.0" fill="#000000" font-size="8" text-anchor="middle" font-family="monospace" font-weight="bold">FF</text>
<text x="946.0" y="364.0" fill="#444" font-size="5.5" text-anchor="middle" font-family="monospace">FFUSE</text>
<circle cx="923.0" cy="323.0" r="2.5" fill="none" stroke="#000000" stroke-width="0.6"></circle>
<circle cx="923.0" cy="337.0" r="2.5" fill="none" stroke="#000000" stroke-width="0.6"></circle>
<circle cx="969.0" cy="330.0" r="2.5" fill="#000000" stroke-width="0"></circle>
<rect x="1020.0" y="308.0" width="44.0" height="44.0" fill="none" stroke="#000000" stroke-width="1.8"></rect>
<circle cx="1042.0" cy="330.0" r="11.0" fill="url(#hatch-T)" stroke="#000000" stroke-width="0.6"></circle>
<text x="1042.0" y="300.0" fill="#000000" font-size="8" text-anchor="middle" font-family="monospace" font-weight="bold">IX</text>
<text x="1042.0" y="364.0" fill="#444" font-size="5.5" text-anchor="middle" font-family="monospace">IFIX</text>
<circle cx="1019.0" cy="330.0" r="2.5" fill="none" stroke="#000000" stroke-width="0.6"></circle>
<circle cx="1065.0" cy="330.0" r="2.5" fill="#000000" stroke-width="0"></circle>
<line x1="584.0" y1="330.0" x2="592.0" y2="330.0" stroke="#000000" stroke-width="0.8" opacity="1.0"></line>
<line x1="916.0" y1="330.0" x2="924.0" y2="330.0" stroke="#000000" stroke-width="0.8" opacity="1.0"></line>
<line x1="592.0" y1="330.0" x2="916.0" y2="330.0" stroke="#000000" stroke-width="0.6" opacity="0.7" stroke-dasharray="2,2"></line>
<circle cx="754.0" cy="312.0" r="7" fill="#ffffff" stroke="#000000" stroke-width="0.5"></circle>
<text x="754.0" y="314.0" fill="#000000" font-size="7" text-anchor="middle" font-family="monospace" font-weight="bold">①</text>
<path d="M1042.0,330.0 Q610.0,275.0 178.0,330.0" fill="none" stroke="#000000" stroke-width="1.5" opacity="0.7"></path>
<polygon points="178.0,330.0 169.6,327.0 170.6,335.0" fill="#000000" opacity="0.7"></polygon>
<text x="610.0" y="260.0" fill="#000000" font-size="8" text-anchor="middle" font-family="serif">O₂</text>
<text x="610.0" y="621.0" fill="#555" font-size="7" text-anchor="middle" font-family="serif">Ouroboricity: O₂</text>
<text x="14.0" y="72.0" fill="#000000" font-size="6" text-anchor="start" font-family="monospace" font-weight="bold">EDGES</text>
<line x1="14.0" y1="88.0" x2="30.0" y2="88.0" stroke="#000000" stroke-width="1.0" opacity="0.8"></line>
<text x="34.0" y="91.0" fill="#000000" font-size="5" text-anchor="start" font-family="monospace">VI</text>
<line x1="14.0" y1="97.0" x2="30.0" y2="97.0" stroke="#000000" stroke-width="1.0" opacity="0.8" stroke-dasharray="4,3"></line>
<text x="34.0" y="100.0" fill="#000000" font-size="5" text-anchor="start" font-family="monospace">TA</text>
<line x1="14.0" y1="106.0" x2="30.0" y2="106.0" stroke="#000000" stroke-width="1.0" opacity="0.8"></line>
<text x="34.0" y="109.0" fill="#000000" font-size="5" text-anchor="start" font-family="monospace">AF</text>
<line x1="14.0" y1="115.0" x2="30.0" y2="115.0" stroke="#000000" stroke-width="1.0" opacity="0.8" stroke-dasharray="6,4"></line>
<text x="34.0" y="118.0" fill="#000000" font-size="5" text-anchor="start" font-family="monospace">AR</text>
<line x1="14.0" y1="124.0" x2="30.0" y2="124.0" stroke="#000000" stroke-width="1.0" opacity="0.8"></line>
<text x="34.0" y="127.0" fill="#000000" font-size="5" text-anchor="start" font-family="monospace">CL</text>
<line x1="14.0" y1="133.0" x2="30.0" y2="133.0" stroke="#000000" stroke-width="1.0" opacity="0.8"></line>
<text x="34.0" y="136.0" fill="#000000" font-size="5" text-anchor="start" font-family="monospace">IM</text>
<line x1="14.0" y1="142.0" x2="30.0" y2="142.0" stroke="#000000" stroke-width="1.0" opacity="0.8"></line>
<text x="34.0" y="145.0" fill="#000000" font-size="5" text-anchor="start" font-family="monospace">FS</text>
<line x1="14.0" y1="151.0" x2="30.0" y2="151.0" stroke="#000000" stroke-width="1.0" opacity="0.8"></line>
<text x="34.0" y="154.0" fill="#000000" font-size="5" text-anchor="start" font-family="monospace">FF</text>
<line x1="14.0" y1="160.0" x2="30.0" y2="160.0" stroke="#000000" stroke-width="1.0" opacity="0.8"></line>
<text x="34.0" y="163.0" fill="#000000" font-size="5" text-anchor="start" font-family="monospace">ET</text>
<line x1="14.0" y1="169.0" x2="30.0" y2="169.0" stroke="#000000" stroke-width="1.0" opacity="0.8"></line>
<text x="34.0" y="172.0" fill="#000000" font-size="5" text-anchor="start" font-family="monospace">EF</text>
<line x1="14.0" y1="178.0" x2="30.0" y2="178.0" stroke="#000000" stroke-width="1.0" opacity="0.8"></line>
<text x="34.0" y="181.0" fill="#000000" font-size="5" text-anchor="start" font-family="monospace">EG</text>
<line x1="14.0" y1="187.0" x2="30.0" y2="187.0" stroke="#000000" stroke-width="1.0" opacity="0.8" stroke-dasharray="2,4"></line>
<text x="34.0" y="190.0" fill="#000000" font-size="5" text-anchor="start" font-family="monospace">IX</text>
<text x="14.0" y="195.0" fill="#000000" font-size="6" text-anchor="start" font-family="monospace" font-weight="bold">GUARD</text>
<circle cx="19.0" cy="211.0" r="3.0" fill="none" stroke="#000000" stroke-width="1.0"></circle>
<text x="28.0" y="214.0" fill="#000000" font-size="5" text-anchor="start" font-family="monospace">○ in</text>
<circle cx="19.0" cy="222.0" r="3.0" fill="#000000" stroke-width="0"></circle>
<text x="28.0" y="225.0" fill="#000000" font-size="5" text-anchor="start" font-family="monospace">● out</text>
<text x="14.0" y="231.0" fill="#000000" font-size="6" text-anchor="start" font-family="monospace" font-weight="bold">NODES</text>
<circle cx="20.0" cy="247.0" r="4.0" fill="none" stroke="#000000" stroke-width="1.0"></circle>
<text x="28.0" y="250.0" fill="#000000" font-size="5" text-anchor="start" font-family="monospace">LOGI</text>
<polygon points="20,255.0 24.0,259 20,263.0 16.0,259" fill="none" stroke="#000000" stroke-width="1.0"></polygon>
<text x="28.0" y="262.0" fill="#000000" font-size="5" text-anchor="start" font-family="monospace">FROB</text>
<polygon points="23.5,273.0 20.0,275.0 16.5,273.0 16.5,269.0 20.0,267.0 23.5,269.0" fill="none" stroke="#000000" stroke-width="1.0"></polygon>
<text x="28.0" y="274.0" fill="#000000" font-size="5" text-anchor="start" font-family="monospace">DIAL</text>
<rect x="16.0" y="279.0" width="8.0" height="8.0" fill="none" stroke="#000000" stroke-width="1.0"></rect>
<text x="28.0" y="286.0" fill="#000000" font-size="5" text-anchor="start" font-family="monospace">LINE</text>
<text x="14.0" y="294.0" fill="#000000" font-size="6" text-anchor="start" font-family="monospace" font-weight="bold">PAIRS</text>
<text x="19.0" y="313.0" fill="#000000" font-size="5" text-anchor="start" font-family="monospace">① ② ③...</text>
<line x1="14.0" y1="321.0" x2="30.0" y2="321.0" stroke="#000000" stroke-width="1.0" opacity="0.6" stroke-dasharray="5,3"></line>
<text x="34.0" y="324.0" fill="#000000" font-size="5" text-anchor="start" font-family="monospace">←× cross</text>
<line x1="14.0" y1="332.0" x2="30.0" y2="332.0" stroke="#000000" stroke-width="1.0" opacity="0.5"></line>
<text x="34.0" y="335.0" fill="#000000" font-size="5" text-anchor="start" font-family="monospace">← loop</text>
<text x="14.0" y="341.0" fill="#000000" font-size="6" text-anchor="start" font-family="monospace" font-weight="bold">REG Δ</text>
<text x="19.0" y="360.0" fill="#000000" font-size="5" text-anchor="start" font-family="monospace">→∅↑</text>
<text x="19.0" y="370.0" fill="#000000" font-size="5" text-anchor="start" font-family="monospace">◆→B</text>
<text x="19.0" y="380.0" fill="#000000" font-size="5" text-anchor="start" font-family="monospace">×T→F</text>
</svg>