<svg xmlns="http://www.w3.org/2000/svg" viewBox="0 0 1220 630">
<rect width="1220" height="630" fill="#ffffff"/>
<defs>
<pattern id="hatch-T" width="4" height="4" patternUnits="userSpaceOnUse"><path d="M2,0 L2,4" stroke="#000000" stroke-width="0.8"/></pattern>
<pattern id="hatch-F" width="4" height="4" patternUnits="userSpaceOnUse"><path d="M0,2 L4,2" stroke="#000000" stroke-width="0.8"/></pattern>
<pattern id="hatch-B" width="4" height="4" patternUnits="userSpaceOnUse"><path d="M2,0 L2,4 M0,2 L4,2" stroke="#000000" stroke-width="0.8"/></pattern>
</defs>
<line x1="0.0" y1="0.0" x2="0.0" y2="630.0" stroke="#e8e8e8" stroke-width="0.4" opacity="0.3"></line>
<line x1="40.0" y1="0.0" x2="40.0" y2="630.0" stroke="#e8e8e8" stroke-width="0.4" opacity="0.3"></line>
<line x1="80.0" y1="0.0" x2="80.0" y2="630.0" stroke="#e8e8e8" stroke-width="0.4" opacity="0.3"></line>
<line x1="120.0" y1="0.0" x2="120.0" y2="630.0" stroke="#e8e8e8" stroke-width="0.4" opacity="0.3"></line>
<line x1="160.0" y1="0.0" x2="160.0" y2="630.0" stroke="#e8e8e8" stroke-width="0.4" opacity="0.3"></line>
<line x1="200.0" y1="0.0" x2="200.0" y2="630.0" stroke="#e8e8e8" stroke-width="0.4" opacity="0.3"></line>
<line x1="240.0" y1="0.0" x2="240.0" y2="630.0" stroke="#e8e8e8" stroke-width="0.4" opacity="0.3"></line>
<line x1="280.0" y1="0.0" x2="280.0" y2="630.0" stroke="#e8e8e8" stroke-width="0.4" opacity="0.3"></line>
<line x1="320.0" y1="0.0" x2="320.0" y2="630.0" stroke="#e8e8e8" stroke-width="0.4" opacity="0.3"></line>
<line x1="360.0" y1="0.0" x2="360.0" y2="630.0" stroke="#e8e8e8" stroke-width="0.4" opacity="0.3"></line>
<line x1="400.0" y1="0.0" x2="400.0" y2="630.0" stroke="#e8e8e8" stroke-width="0.4" opacity="0.3"></line>
<line x1="440.0" y1="0.0" x2="440.0" y2="630.0" stroke="#e8e8e8" stroke-width="0.4" opacity="0.3"></line>
<line x1="480.0" y1="0.0" x2="480.0" y2="630.0" stroke="#e8e8e8" stroke-width="0.4" opacity="0.3"></line>
<line x1="520.0" y1="0.0" x2="520.0" y2="630.0" stroke="#e8e8e8" stroke-width="0.4" opacity="0.3"></line>
<line x1="560.0" y1="0.0" x2="560.0" y2="630.0" stroke="#e8e8e8" stroke-width="0.4" opacity="0.3"></line>
<line x1="600.0" y1="0.0" x2="600.0" y2="630.0" stroke="#e8e8e8" stroke-width="0.4" opacity="0.3"></line>
<line x1="640.0" y1="0.0" x2="640.0" y2="630.0" stroke="#e8e8e8" stroke-width="0.4" opacity="0.3"></line>
<line x1="680.0" y1="0.0" x2="680.0" y2="630.0" stroke="#e8e8e8" stroke-width="0.4" opacity="0.3"></line>
<line x1="720.0" y1="0.0" x2="720.0" y2="630.0" stroke="#e8e8e8" stroke-width="0.4" opacity="0.3"></line>
<line x1="760.0" y1="0.0" x2="760.0" y2="630.0" stroke="#e8e8e8" stroke-width="0.4" opacity="0.3"></line>
<line x1="800.0" y1="0.0" x2="800.0" y2="630.0" stroke="#e8e8e8" stroke-width="0.4" opacity="0.3"></line>
<line x1="840.0" y1="0.0" x2="840.0" y2="630.0" stroke="#e8e8e8" stroke-width="0.4" opacity="0.3"></line>
<line x1="880.0" y1="0.0" x2="880.0" y2="630.0" stroke="#e8e8e8" stroke-width="0.4" opacity="0.3"></line>
<line x1="920.0" y1="0.0" x2="920.0" y2="630.0" stroke="#e8e8e8" stroke-width="0.4" opacity="0.3"></line>
<line x1="960.0" y1="0.0" x2="960.0" y2="630.0" stroke="#e8e8e8" stroke-width="0.4" opacity="0.3"></line>
<line x1="1000.0" y1="0.0" x2="1000.0" y2="630.0" stroke="#e8e8e8" stroke-width="0.4" opacity="0.3"></line>
<line x1="1040.0" y1="0.0" x2="1040.0" y2="630.0" stroke="#e8e8e8" stroke-width="0.4" opacity="0.3"></line>
<line x1="1080.0" y1="0.0" x2="1080.0" y2="630.0" stroke="#e8e8e8" stroke-width="0.4" opacity="0.3"></line>
<line x1="1120.0" y1="0.0" x2="1120.0" y2="630.0" stroke="#e8e8e8" stroke-width="0.4" opacity="0.3"></line>
<line x1="1160.0" y1="0.0" x2="1160.0" y2="630.0" stroke="#e8e8e8" stroke-width="0.4" opacity="0.3"></line>
<line x1="1200.0" y1="0.0" x2="1200.0" y2="630.0" stroke="#e8e8e8" stroke-width="0.4" opacity="0.3"></line>
<line x1="0.0" y1="0.0" x2="1220.0" y2="0.0" stroke="#e8e8e8" stroke-width="0.4" opacity="0.3"></line>
<line x1="0.0" y1="40.0" x2="1220.0" y2="40.0" stroke="#e8e8e8" stroke-width="0.4" opacity="0.3"></line>
<line x1="0.0" y1="80.0" x2="1220.0" y2="80.0" stroke="#e8e8e8" stroke-width="0.4" opacity="0.3"></line>
<line x1="0.0" y1="120.0" x2="1220.0" y2="120.0" stroke="#e8e8e8" stroke-width="0.4" opacity="0.3"></line>
<line x1="0.0" y1="160.0" x2="1220.0" y2="160.0" stroke="#e8e8e8" stroke-width="0.4" opacity="0.3"></line>
<line x1="0.0" y1="200.0" x2="1220.0" y2="200.0" stroke="#e8e8e8" stroke-width="0.4" opacity="0.3"></line>
<line x1="0.0" y1="240.0" x2="1220.0" y2="240.0" stroke="#e8e8e8" stroke-width="0.4" opacity="0.3"></line>
<line x1="0.0" y1="280.0" x2="1220.0" y2="280.0" stroke="#e8e8e8" stroke-width="0.4" opacity="0.3"></line>
<line x1="0.0" y1="320.0" x2="1220.0" y2="320.0" stroke="#e8e8e8" stroke-width="0.4" opacity="0.3"></line>
<line x1="0.0" y1="360.0" x2="1220.0" y2="360.0" stroke="#e8e8e8" stroke-width="0.4" opacity="0.3"></line>
<line x1="0.0" y1="400.0" x2="1220.0" y2="400.0" stroke="#e8e8e8" stroke-width="0.4" opacity="0.3"></line>
<line x1="0.0" y1="440.0" x2="1220.0" y2="440.0" stroke="#e8e8e8" stroke-width="0.4" opacity="0.3"></line>
<line x1="0.0" y1="480.0" x2="1220.0" y2="480.0" stroke="#e8e8e8" stroke-width="0.4" opacity="0.3"></line>
<line x1="0.0" y1="520.0" x2="1220.0" y2="520.0" stroke="#e8e8e8" stroke-width="0.4" opacity="0.3"></line>
<line x1="0.0" y1="560.0" x2="1220.0" y2="560.0" stroke="#e8e8e8" stroke-width="0.4" opacity="0.3"></line>
<line x1="0.0" y1="600.0" x2="1220.0" y2="600.0" stroke="#e8e8e8" stroke-width="0.4" opacity="0.3"></line>
<text x="610.0" y="26.0" fill="#000000" font-size="13" text-anchor="middle" font-family="monospace" font-weight="bold">Passing the Archons</text>
<text x="610.0" y="41.0" fill="#000000" font-size="7" text-anchor="middle" font-family="monospace">twelve fatherhoods around Setheus</text>
<text x="66.0" y="190.0" fill="#000000" font-size="7" text-anchor="start" font-family="monospace">T-lane</text>
<text x="66.0" y="470.0" fill="#000000" font-size="7" text-anchor="start" font-family="monospace">F-lane</text>
<text x="66.0" y="330.0" fill="#000000" font-size="7" text-anchor="start" font-family="monospace">main</text>
<line x1="574.2" y1="145.0" x2="574.2" y2="515.0" stroke="#000000" stroke-width="1.0" opacity="1.0" stroke-dasharray="4,3"></line>
<line x1="579.2" y1="145.0" x2="579.2" y2="515.0" stroke="#000000" stroke-width="1.0" opacity="1.0" stroke-dasharray="4,3"></line>
<text x="576.7" y="145.0" fill="#000000" font-size="8" text-anchor="middle" font-family="monospace">×</text>
<text x="576.7" y="515.0" fill="#000000" font-size="8" text-anchor="middle" font-family="monospace">×</text>
<text x="576.7" y="138.0" fill="#000000" font-size="6" text-anchor="middle" font-family="monospace">IFIX</text>
<line x1="203.3" y1="310.0" x2="203.3" y2="292.0" stroke="#000000" stroke-width="0.6" opacity="0.8" stroke-dasharray="3,3"></line>
<line x1="203.3" y1="292.0" x2="470.0" y2="292.0" stroke="#000000" stroke-width="0.6" opacity="0.8" stroke-dasharray="3,3"></line>
<line x1="470.0" y1="292.0" x2="470.0" y2="310.0" stroke="#000000" stroke-width="0.6" opacity="0.8" stroke-dasharray="3,3"></line>
<circle cx="336.7" cy="292.0" r="6" fill="#ffffff" stroke="#000000" stroke-width="0.8"></circle>
<text x="336.7" y="295.0" fill="#000000" font-size="7" text-anchor="middle" font-family="monospace">1</text>
<line x1="209.4" y1="310.9" x2="241.7" y2="209.1" stroke="#000000" stroke-width="1.5" opacity="1.0"></line>
<polygon points="241.7,209.1 242.4,217.7 236.3,215.7" fill="#000000"></polygon>
<circle cx="225.6" cy="260.0" r="5" fill="#ffffff" stroke="#000000" stroke-width="0.6"></circle>
<text x="225.6" y="263.0" fill="#000000" font-size="7" text-anchor="middle" font-family="monospace">◇</text>
<line x1="267.8" y1="188.4" x2="281.1" y2="188.4" stroke="#000000" stroke-width="1.5" opacity="1.0"></line>
<line x1="267.8" y1="191.6" x2="281.1" y2="191.6" stroke="#000000" stroke-width="1.5" opacity="1.0"></line>
<polygon points="281.1,190.0 273.1,193.2 273.1,186.8" fill="#000000"></polygon>
<text x="274.4" y="182.0" fill="#000000" font-size="6" text-anchor="middle" font-family="monospace">↑</text>
<line x1="321.1" y1="190.0" x2="343.3" y2="190.0" stroke="#000000" stroke-width="2.5" opacity="1.0"></line>
<polygon points="343.3,190.0 335.3,193.2 335.3,186.8" fill="#000000"></polygon>
<text x="332.2" y="182.0" fill="#000000" font-size="6" text-anchor="middle" font-family="monospace">↑→↑↓</text>
<line x1="383.3" y1="190.0" x2="396.7" y2="190.0" stroke="#000000" stroke-width="1.5" opacity="1.0" stroke-dasharray="6,4"></line>
<polygon points="396.7,190.0 388.7,193.2 388.7,186.8" fill="#000000"></polygon>
<text x="390.0" y="182.0" fill="#000000" font-size="6" text-anchor="middle" font-family="monospace">↑↓→↑↓</text>
<line x1="423.8" y1="208.7" x2="462.9" y2="311.3" stroke="#000000" stroke-width="1.5" opacity="1.0"></line>
<polygon points="462.9,311.3 457.0,305.0 463.0,302.7" fill="#000000"></polygon>
<circle cx="443.3" cy="260.0" r="5" fill="#ffffff" stroke="#000000" stroke-width="0.6"></circle>
<text x="443.3" y="263.0" fill="#000000" font-size="7" text-anchor="middle" font-family="monospace">+</text>
<text x="443.3" y="252.0" fill="#000000" font-size="6" text-anchor="middle" font-family="monospace">↑↓→↑</text>
<line x1="211.5" y1="348.3" x2="257.4" y2="451.7" stroke="#000000" stroke-width="1.5" opacity="1.0"></line>
<polygon points="257.4,451.7 251.3,445.7 257.1,443.1" fill="#000000"></polygon>
<circle cx="234.4" cy="400.0" r="5" fill="#ffffff" stroke="#000000" stroke-width="0.6"></circle>
<text x="234.4" y="403.0" fill="#000000" font-size="7" text-anchor="middle" font-family="monospace">◇</text>
<text x="234.4" y="392.0" fill="#000000" font-size="6" text-anchor="middle" font-family="monospace">↑↓</text>
<line x1="285.6" y1="470.0" x2="298.9" y2="470.0" stroke="#000000" stroke-width="1.5" opacity="1.0"></line>
<polygon points="298.9,470.0 290.9,473.2 290.9,466.8" fill="#000000"></polygon>
<circle cx="292.2" cy="470.0" r="5" fill="#ffffff" stroke="#000000" stroke-width="0.6"></circle>
<text x="292.2" y="473.0" fill="#000000" font-size="7" text-anchor="middle" font-family="monospace">×</text>
<text x="292.2" y="462.0" fill="#000000" font-size="6" text-anchor="middle" font-family="monospace">↑↓→↑↓</text>
<polyline points="336.3,459.3 336.7,448.0 348.0,448.5 348.4,437.2 359.8,437.6 360.2,426.3 371.5,426.7 371.9,415.4 383.2,415.8 383.7,404.5 395.0,405.0 395.4,393.7 406.7,394.1 407.1,382.8 418.4,383.2 418.9,371.9 430.2,372.4 430.6,361.0 441.9,361.5 442.3,350.2 453.6,350.6 455.3,343.6" fill="none" stroke="#000000" stroke-width="1.5"></polyline>
<polygon points="455.3,343.6 451.6,351.4 447.3,346.7" fill="#000000"></polygon>
<text x="394.4" y="392.0" fill="#000000" font-size="6" text-anchor="middle" font-family="monospace">↑↓→↑</text>
<line x1="116.7" y1="330.0" x2="130.0" y2="330.0" stroke="#000000" stroke-width="2.0" opacity="1.0"></line>
<polyline points="130.0,330.0 122.0,333.2 122.0,326.8" fill="none" stroke="#000000" stroke-width="1.0"></polyline>
<line x1="170.0" y1="330.0" x2="183.3" y2="330.0" stroke="#000000" stroke-width="2.0" opacity="1.0" stroke-dasharray="5,2,1,2,1,2"></line>
<polyline points="183.3,330.0 175.3,333.2 175.3,326.8" fill="none" stroke="#000000" stroke-width="1.0"></polyline>
<line x1="543.3" y1="330.0" x2="556.7" y2="330.0" stroke="#000000" stroke-width="2.0" opacity="1.0"></line>
<polygon points="543.3,330.0 551.3,326.8 551.3,333.2" fill="#000000"></polygon>
<circle cx="550.0" cy="330.0" r="5" fill="#ffffff" stroke="#000000" stroke-width="0.6"></circle>
<text x="550.0" y="333.0" fill="#000000" font-size="7" text-anchor="middle" font-family="monospace">←</text>
<text x="550.0" y="322.0" fill="#000000" font-size="6" text-anchor="middle" font-family="monospace">↑→↑</text>
<line x1="596.7" y1="330.0" x2="610.0" y2="330.0" stroke="#000000" stroke-width="2.0" opacity="1.0" stroke-dasharray="2,2"></line>
<polygon points="610.0,330.0 602.0,333.2 602.0,326.8" fill="#000000"></polygon>
<text x="603.3" y="322.0" fill="#000000" font-size="6" text-anchor="middle" font-family="monospace">↑→↑</text>
<line x1="650.0" y1="328.4" x2="663.3" y2="328.4" stroke="#000000" stroke-width="2.0" opacity="1.0"></line>
<line x1="650.0" y1="331.6" x2="663.3" y2="331.6" stroke="#000000" stroke-width="2.0" opacity="1.0"></line>
<polygon points="663.3,330.0 655.3,333.2 655.3,326.8" fill="#000000"></polygon>
<text x="656.7" y="322.0" fill="#000000" font-size="6" text-anchor="middle" font-family="monospace">↑→↑</text>
<line x1="703.3" y1="330.0" x2="716.7" y2="330.0" stroke="#000000" stroke-width="2.5" opacity="1.0"></line>
<polygon points="716.7,330.0 708.7,333.2 708.7,326.8" fill="#000000"></polygon>
<text x="710.0" y="322.0" fill="#000000" font-size="6" text-anchor="middle" font-family="monospace">↑→↑</text>
<line x1="756.7" y1="330.0" x2="770.0" y2="330.0" stroke="#000000" stroke-width="2.0" opacity="1.0" stroke-dasharray="6,4"></line>
<polygon points="770.0,330.0 762.0,333.2 762.0,326.8" fill="#000000"></polygon>
<text x="763.3" y="322.0" fill="#000000" font-size="6" text-anchor="middle" font-family="monospace">↑→↑</text>
<line x1="810.0" y1="330.0" x2="823.3" y2="330.0" stroke="#000000" stroke-width="2.0" opacity="1.0"></line>
<polygon points="823.3,330.0 815.3,333.2 815.3,326.8" fill="#000000"></polygon>
<circle cx="816.7" cy="330.0" r="5" fill="#ffffff" stroke="#000000" stroke-width="0.6"></circle>
<text x="816.7" y="333.0" fill="#000000" font-size="7" text-anchor="middle" font-family="monospace">+</text>
<text x="816.7" y="322.0" fill="#000000" font-size="6" text-anchor="middle" font-family="monospace">↑→↑</text>
<line x1="863.3" y1="330.0" x2="876.7" y2="330.0" stroke="#000000" stroke-width="2.0" opacity="1.0"></line>
<polygon points="876.7,330.0 868.7,333.2 868.7,326.8" fill="#000000"></polygon>
<circle cx="870.0" cy="330.0" r="5" fill="#ffffff" stroke="#000000" stroke-width="0.6"></circle>
<text x="870.0" y="333.0" fill="#000000" font-size="7" text-anchor="middle" font-family="monospace">×</text>
<text x="870.0" y="322.0" fill="#000000" font-size="6" text-anchor="middle" font-family="monospace">↑→↑</text>
<polyline points="916.7,334.0 924.7,326.0 930.0,330.0" fill="none" stroke="#000000" stroke-width="2.0"></polyline>
<polygon points="930.0,330.0 922.0,333.2 922.0,326.8" fill="#000000"></polygon>
<text x="923.3" y="322.0" fill="#000000" font-size="6" text-anchor="middle" font-family="monospace">↑→↑</text>
<line x1="970.0" y1="330.0" x2="983.3" y2="330.0" stroke="#000000" stroke-width="2.0" opacity="1.0"></line>
<polygon points="983.3,330.0 975.3,333.2 975.3,326.8" fill="#000000"></polygon>
<circle cx="976.7" cy="330.0" r="5" fill="#ffffff" stroke="#000000" stroke-width="0.6"></circle>
<text x="976.7" y="333.0" fill="#000000" font-size="7" text-anchor="middle" font-family="monospace">●</text>
<text x="976.7" y="322.0" fill="#000000" font-size="6" text-anchor="middle" font-family="monospace">↑→↑</text>
<line x1="490.0" y1="330.0" x2="503.3" y2="330.0" stroke="#000000" stroke-width="1.5" opacity="1.0"></line>
<polygon points="503.3,330.0 495.3,333.2 495.3,326.8" fill="#000000"></polygon>
<circle cx="496.7" cy="330.0" r="5" fill="#ffffff" stroke="#000000" stroke-width="0.6"></circle>
<text x="496.7" y="333.0" fill="#000000" font-size="7" text-anchor="middle" font-family="monospace">●</text>
<text x="496.7" y="322.0" fill="#000000" font-size="6" text-anchor="middle" font-family="monospace">↑→↑</text>
<circle fill="none" stroke="#000000" stroke-width="1.3" cx="96.7" cy="330.0" r="20.0"></circle>
<circle cx="72.7" cy="330.0" r="2.5" fill="#ffffff" stroke="#000000" stroke-width="0.8"></circle>
<circle cx="120.7" cy="330.0" r="2.5" fill="#000000"></circle>
<text x="96.7" y="304.0" fill="#000000" font-size="9" text-anchor="middle" font-family="monospace" font-weight="bold">VI</text>
<text x="96.7" y="362.0" fill="#000000" font-size="5" text-anchor="middle" font-family="monospace">VINIT</text>
<circle fill="none" stroke="#000000" stroke-width="1.3" cx="150.0" cy="330.0" r="20.0"></circle>
<circle cx="126.0" cy="330.0" r="2.5" fill="#ffffff" stroke="#000000" stroke-width="0.8"></circle>
<circle cx="174.0" cy="330.0" r="2.5" fill="#000000"></circle>
<text x="150.0" y="304.0" fill="#000000" font-size="9" text-anchor="middle" font-family="monospace" font-weight="bold">TA</text>
<text x="150.0" y="362.0" fill="#000000" font-size="5" text-anchor="middle" font-family="monospace">TANCH</text>
<polygon fill="none" stroke="#000000" stroke-width="1.3" points="203.33333333333334,310.0 223.3,330 203.33333333333334,350.0 183.3,330"></polygon>
<circle cx="179.3" cy="330.0" r="2.5" fill="#ffffff" stroke="#000000" stroke-width="0.8"></circle>
<circle cx="227.3" cy="330.0" r="2.5" fill="#000000"></circle>
<text x="203.3" y="304.0" fill="#000000" font-size="9" text-anchor="middle" font-family="monospace" font-weight="bold">FS</text>
<text x="203.3" y="362.0" fill="#000000" font-size="5" text-anchor="middle" font-family="monospace">FSPLIT</text>
<circle fill="none" stroke="#000000" stroke-width="1.3" cx="247.8" cy="190.0" r="20.0"></circle>
<circle cx="223.8" cy="190.0" r="2.5" fill="#ffffff" stroke="#000000" stroke-width="0.8"></circle>
<circle cx="271.8" cy="190.0" r="2.5" fill="#000000"></circle>
<text x="247.8" y="164.0" fill="#000000" font-size="9" text-anchor="middle" font-family="monospace" font-weight="bold">CL</text>
<text x="247.8" y="222.0" fill="#000000" font-size="5" text-anchor="middle" font-family="monospace">CLINK</text>
<circle fill="none" stroke="#000000" stroke-width="1.3" cx="301.1" cy="190.0" r="20.0"></circle>
<circle cx="301.1" cy="190.0" r="8" fill="url(#hatch-T)" stroke="#000000" stroke-width="0.6"></circle>
<circle cx="277.1" cy="190.0" r="2.5" fill="#ffffff" stroke="#000000" stroke-width="0.8"></circle>
<circle cx="325.1" cy="190.0" r="2.5" fill="#000000"></circle>
<text x="301.1" y="164.0" fill="#000000" font-size="9" text-anchor="middle" font-family="monospace" font-weight="bold">AF</text>
<text x="301.1" y="222.0" fill="#000000" font-size="5" text-anchor="middle" font-family="monospace">AFWD</text>
<circle fill="none" stroke="#000000" stroke-width="1.3" cx="363.3" cy="190.0" r="20.0"></circle>
<circle cx="363.3" cy="190.0" r="8" fill="url(#hatch-B)" stroke="#000000" stroke-width="0.6"></circle>
<circle cx="339.3" cy="190.0" r="2.5" fill="#ffffff" stroke="#000000" stroke-width="0.8"></circle>
<circle cx="387.3" cy="190.0" r="2.5" fill="#000000"></circle>
<text x="363.3" y="164.0" fill="#000000" font-size="9" text-anchor="middle" font-family="monospace" font-weight="bold">AR</text>
<text x="363.3" y="222.0" fill="#000000" font-size="5" text-anchor="middle" font-family="monospace">AREV</text>
<polygon fill="none" stroke="#000000" stroke-width="1.3" points="434.0,200.0 416.7,210.0 399.3,200.0 399.3,180.0 416.7,170.0 434.0,180.0"></polygon>
<circle cx="416.7" cy="190.0" r="8" fill="url(#hatch-B)" stroke="#000000" stroke-width="0.6"></circle>
<circle cx="392.7" cy="190.0" r="2.5" fill="#ffffff" stroke="#000000" stroke-width="0.8"></circle>
<circle cx="440.7" cy="190.0" r="2.5" fill="#000000"></circle>
<text x="416.7" y="164.0" fill="#000000" font-size="9" text-anchor="middle" font-family="monospace" font-weight="bold">ET</text>
<text x="416.7" y="222.0" fill="#000000" font-size="5" text-anchor="middle" font-family="monospace">EVALT</text>
<polygon fill="none" stroke="#000000" stroke-width="1.3" points="282.9,480.0 265.6,490.0 248.2,480.0 248.2,460.0 265.6,450.0 282.9,460.0"></polygon>
<circle cx="265.6" cy="470.0" r="8" fill="url(#hatch-B)" stroke="#000000" stroke-width="0.6"></circle>
<circle cx="241.6" cy="470.0" r="2.5" fill="#ffffff" stroke="#000000" stroke-width="0.8"></circle>
<circle cx="289.6" cy="470.0" r="2.5" fill="#000000"></circle>
<text x="265.6" y="444.0" fill="#000000" font-size="9" text-anchor="middle" font-family="monospace" font-weight="bold">EF</text>
<text x="265.6" y="502.0" fill="#000000" font-size="5" text-anchor="middle" font-family="monospace">EVALF</text>
<polygon fill="none" stroke="#000000" stroke-width="1.3" points="336.2,480.0 318.9,490.0 301.6,480.0 301.6,460.0 318.9,450.0 336.2,460.0"></polygon>
<circle cx="318.9" cy="470.0" r="8" fill="url(#hatch-B)" stroke="#000000" stroke-width="0.6"></circle>
<circle cx="294.9" cy="470.0" r="2.5" fill="#ffffff" stroke="#000000" stroke-width="0.8"></circle>
<circle cx="342.9" cy="470.0" r="2.5" fill="#000000"></circle>
<text x="318.9" y="444.0" fill="#000000" font-size="9" text-anchor="middle" font-family="monospace" font-weight="bold">EG</text>
<text x="318.9" y="502.0" fill="#000000" font-size="5" text-anchor="middle" font-family="monospace">ENGAGR</text>
<polygon fill="none" stroke="#000000" stroke-width="1.3" points="470.00000000000006,310.0 490.0,330 470.00000000000006,350.0 450.0,330"></polygon>
<circle cx="470.0" cy="330.0" r="8" fill="url(#hatch-T)" stroke="#000000" stroke-width="0.6"></circle>
<circle cx="446.0" cy="330.0" r="2.5" fill="#ffffff" stroke="#000000" stroke-width="0.8"></circle>
<circle cx="494.0" cy="330.0" r="2.5" fill="#000000"></circle>
<text x="470.0" y="304.0" fill="#000000" font-size="9" text-anchor="middle" font-family="monospace" font-weight="bold">FF</text>
<text x="470.0" y="362.0" fill="#000000" font-size="5" text-anchor="middle" font-family="monospace">FFUSE</text>
<circle fill="none" stroke="#000000" stroke-width="1.3" cx="523.3" cy="330.0" r="20.0"></circle>
<circle cx="523.3" cy="330.0" r="8" fill="url(#hatch-T)" stroke="#000000" stroke-width="0.6"></circle>
<circle cx="499.3" cy="330.0" r="2.5" fill="#ffffff" stroke="#000000" stroke-width="0.8"></circle>
<circle cx="547.3" cy="330.0" r="2.5" fill="#000000"></circle>
<text x="523.3" y="304.0" fill="#000000" font-size="9" text-anchor="middle" font-family="monospace" font-weight="bold">IM</text>
<text x="523.3" y="362.0" fill="#000000" font-size="5" text-anchor="middle" font-family="monospace">IMSCRIB</text>
<rect fill="none" stroke="#000000" stroke-width="1.3" x="556.7" y="310.0" width="40.0" height="40.0"></rect>
<circle cx="576.7" cy="330.0" r="8" fill="url(#hatch-T)" stroke="#000000" stroke-width="0.6"></circle>
<circle cx="552.7" cy="330.0" r="2.5" fill="#ffffff" stroke="#000000" stroke-width="0.8"></circle>
<circle cx="600.7" cy="330.0" r="2.5" fill="#000000"></circle>
<text x="576.7" y="304.0" fill="#000000" font-size="9" text-anchor="middle" font-family="monospace" font-weight="bold">IX</text>
<text x="576.7" y="362.0" fill="#000000" font-size="5" text-anchor="middle" font-family="monospace">IFIX</text>
<circle fill="none" stroke="#000000" stroke-width="1.3" cx="630.0" cy="330.0" r="20.0"></circle>
<circle cx="630.0" cy="330.0" r="8" fill="url(#hatch-T)" stroke="#000000" stroke-width="0.6"></circle>
<circle cx="606.0" cy="330.0" r="2.5" fill="#ffffff" stroke="#000000" stroke-width="0.8"></circle>
<circle cx="654.0" cy="330.0" r="2.5" fill="#000000"></circle>
<text x="630.0" y="304.0" fill="#000000" font-size="9" text-anchor="middle" font-family="monospace" font-weight="bold">CL</text>
<text x="630.0" y="362.0" fill="#000000" font-size="5" text-anchor="middle" font-family="monospace">CLINK</text>
<circle fill="none" stroke="#000000" stroke-width="1.3" cx="683.3" cy="330.0" r="20.0"></circle>
<circle cx="683.3" cy="330.0" r="8" fill="url(#hatch-T)" stroke="#000000" stroke-width="0.6"></circle>
<circle cx="659.3" cy="330.0" r="2.5" fill="#ffffff" stroke="#000000" stroke-width="0.8"></circle>
<circle cx="707.3" cy="330.0" r="2.5" fill="#000000"></circle>
<text x="683.3" y="304.0" fill="#000000" font-size="9" text-anchor="middle" font-family="monospace" font-weight="bold">AF</text>
<text x="683.3" y="362.0" fill="#000000" font-size="5" text-anchor="middle" font-family="monospace">AFWD</text>
<circle fill="none" stroke="#000000" stroke-width="1.3" cx="736.7" cy="330.0" r="20.0"></circle>
<circle cx="736.7" cy="330.0" r="8" fill="url(#hatch-T)" stroke="#000000" stroke-width="0.6"></circle>
<circle cx="712.7" cy="330.0" r="2.5" fill="#ffffff" stroke="#000000" stroke-width="0.8"></circle>
<circle cx="760.7" cy="330.0" r="2.5" fill="#000000"></circle>
<text x="736.7" y="304.0" fill="#000000" font-size="9" text-anchor="middle" font-family="monospace" font-weight="bold">AR</text>
<text x="736.7" y="362.0" fill="#000000" font-size="5" text-anchor="middle" font-family="monospace">AREV</text>
<polygon fill="none" stroke="#000000" stroke-width="1.3" points="807.3,340.0 790.0,350.0 772.7,340.0 772.7,320.0 790.0,310.0 807.3,320.0"></polygon>
<circle cx="790.0" cy="330.0" r="8" fill="url(#hatch-T)" stroke="#000000" stroke-width="0.6"></circle>
<circle cx="766.0" cy="330.0" r="2.5" fill="#ffffff" stroke="#000000" stroke-width="0.8"></circle>
<circle cx="814.0" cy="330.0" r="2.5" fill="#000000"></circle>
<text x="790.0" y="304.0" fill="#000000" font-size="9" text-anchor="middle" font-family="monospace" font-weight="bold">ET</text>
<text x="790.0" y="362.0" fill="#000000" font-size="5" text-anchor="middle" font-family="monospace">EVALT</text>
<polygon fill="none" stroke="#000000" stroke-width="1.3" points="860.7,340.0 843.3,350.0 826.0,340.0 826.0,320.0 843.3,310.0 860.7,320.0"></polygon>
<circle cx="843.3" cy="330.0" r="8" fill="url(#hatch-T)" stroke="#000000" stroke-width="0.6"></circle>
<circle cx="819.3" cy="330.0" r="2.5" fill="#ffffff" stroke="#000000" stroke-width="0.8"></circle>
<circle cx="867.3" cy="330.0" r="2.5" fill="#000000"></circle>
<text x="843.3" y="304.0" fill="#000000" font-size="9" text-anchor="middle" font-family="monospace" font-weight="bold">EF</text>
<text x="843.3" y="362.0" fill="#000000" font-size="5" text-anchor="middle" font-family="monospace">EVALF</text>
<polygon fill="none" stroke="#000000" stroke-width="1.3" points="914.0,340.0 896.7,350.0 879.3,340.0 879.3,320.0 896.7,310.0 914.0,320.0"></polygon>
<circle cx="896.7" cy="330.0" r="8" fill="url(#hatch-T)" stroke="#000000" stroke-width="0.6"></circle>
<circle cx="872.7" cy="330.0" r="2.5" fill="#ffffff" stroke="#000000" stroke-width="0.8"></circle>
<circle cx="920.7" cy="330.0" r="2.5" fill="#000000"></circle>
<text x="896.7" y="304.0" fill="#000000" font-size="9" text-anchor="middle" font-family="monospace" font-weight="bold">EG</text>
<text x="896.7" y="362.0" fill="#000000" font-size="5" text-anchor="middle" font-family="monospace">ENGAGR</text>
<polygon fill="none" stroke="#000000" stroke-width="1.3" points="950.0,310.0 970.0,330 950.0,350.0 930.0,330"></polygon>
<circle cx="950.0" cy="330.0" r="8" fill="url(#hatch-T)" stroke="#000000" stroke-width="0.6"></circle>
<circle cx="926.0" cy="330.0" r="2.5" fill="#ffffff" stroke="#000000" stroke-width="0.8"></circle>
<circle cx="974.0" cy="330.0" r="2.5" fill="#000000"></circle>
<text x="950.0" y="304.0" fill="#000000" font-size="9" text-anchor="middle" font-family="monospace" font-weight="bold">FF</text>
<text x="950.0" y="362.0" fill="#000000" font-size="5" text-anchor="middle" font-family="monospace">FFUSE</text>
<rect fill="none" stroke="#000000" stroke-width="1.3" x="983.3" y="310.0" width="40.0" height="40.0"></rect>
<circle cx="1003.3" cy="330.0" r="8" fill="url(#hatch-T)" stroke="#000000" stroke-width="0.6"></circle>
<circle cx="979.3" cy="330.0" r="2.5" fill="#ffffff" stroke="#000000" stroke-width="0.8"></circle>
<circle cx="1027.3" cy="330.0" r="2.5" fill="#000000"></circle>
<text x="1003.3" y="304.0" fill="#000000" font-size="9" text-anchor="middle" font-family="monospace" font-weight="bold">IX</text>
<text x="1003.3" y="362.0" fill="#000000" font-size="5" text-anchor="middle" font-family="monospace">IFIX</text>
<path d="M 1003.3,310.0 C 1003.3,252.0 523.3,252.0 523.3,310.0" fill="none" stroke="#000000" stroke-width="1.0"></path>
<polygon points="523.3,310.0 520.1,302.0 526.5,302.0" fill="#000000"></polygon>
<text x="763.3" y="248.0" fill="#000000" font-size="7" text-anchor="middle" font-family="monospace">O₁</text>
<text x="14.0" y="72.0" fill="#000000" font-size="6" text-anchor="start" font-family="monospace" font-weight="bold">EDGES</text>
<line x1="14.0" y1="82.0" x2="36.0" y2="82.0" stroke="#000000" stroke-width="1.5" opacity="0.7"></line>
<text x="42.0" y="84.0" fill="#000000" font-size="5" text-anchor="start" font-family="monospace">VI</text>
<line x1="14.0" y1="91.5" x2="36.0" y2="91.5" stroke="#000000" stroke-width="1.5" opacity="0.7" stroke-dasharray="5,2,1,2,1,2"></line>
<text x="42.0" y="93.5" fill="#000000" font-size="5" text-anchor="start" font-family="monospace">TA</text>
<line x1="14.0" y1="101.0" x2="36.0" y2="101.0" stroke="#000000" stroke-width="2.0" opacity="0.7"></line>
<text x="42.0" y="103.0" fill="#000000" font-size="5" text-anchor="start" font-family="monospace">AF</text>
<line x1="14.0" y1="110.5" x2="36.0" y2="110.5" stroke="#000000" stroke-width="1.5" opacity="0.7" stroke-dasharray="6,4"></line>
<text x="42.0" y="112.5" fill="#000000" font-size="5" text-anchor="start" font-family="monospace">AR</text>
<line x1="14.0" y1="119.0" x2="36.0" y2="119.0" stroke="#000000" stroke-width="1.0" opacity="0.7"></line>
<line x1="14.0" y1="121.0" x2="36.0" y2="121.0" stroke="#000000" stroke-width="1.0" opacity="0.7"></line>
<text x="42.0" y="122.0" fill="#000000" font-size="5" text-anchor="start" font-family="monospace">CL</text>
<line x1="14.0" y1="129.5" x2="36.0" y2="129.5" stroke="#000000" stroke-width="1.5" opacity="0.7"></line>
<text x="42.0" y="131.5" fill="#000000" font-size="5" text-anchor="start" font-family="monospace">IM</text>
<line x1="14.0" y1="139.0" x2="36.0" y2="139.0" stroke="#000000" stroke-width="1.5" opacity="0.7"></line>
<text x="42.0" y="141.0" fill="#000000" font-size="5" text-anchor="start" font-family="monospace">FS</text>
<line x1="14.0" y1="148.5" x2="36.0" y2="148.5" stroke="#000000" stroke-width="1.5" opacity="0.7"></line>
<text x="42.0" y="150.5" fill="#000000" font-size="5" text-anchor="start" font-family="monospace">FF</text>
<line x1="14.0" y1="158.0" x2="36.0" y2="158.0" stroke="#000000" stroke-width="1.5" opacity="0.7"></line>
<text x="42.0" y="160.0" fill="#000000" font-size="5" text-anchor="start" font-family="monospace">ET</text>
<line x1="14.0" y1="167.5" x2="36.0" y2="167.5" stroke="#000000" stroke-width="1.5" opacity="0.7"></line>
<text x="42.0" y="169.5" fill="#000000" font-size="5" text-anchor="start" font-family="monospace">EF</text>
<polyline points="14.0,179.0 18.0,175.0 22.0,179.0 26.0,175.0 30.0,179.0 34.0,175.0 36.0,177.0" fill="none" stroke="#000000" stroke-width="1.0"></polyline>
<text x="42.0" y="179.0" fill="#000000" font-size="5" text-anchor="start" font-family="monospace">EG</text>
<line x1="14.0" y1="186.5" x2="36.0" y2="186.5" stroke="#000000" stroke-width="1.5" opacity="0.7" stroke-dasharray="2,2"></line>
<text x="42.0" y="188.5" fill="#000000" font-size="5" text-anchor="start" font-family="monospace">IX</text>
<text x="14.0" y="195.0" fill="#000000" font-size="6" text-anchor="start" font-family="monospace" font-weight="bold">GUARD</text>
<circle cx="17" cy="206" r="2.5" fill="#ffffff" stroke="#000000" stroke-width="0.8"></circle>
<text x="24.0" y="208.0" fill="#000000" font-size="5" text-anchor="start" font-family="monospace">in</text>
<circle cx="17" cy="216" r="2.5" fill="#000000"></circle>
<text x="24.0" y="218.0" fill="#000000" font-size="5" text-anchor="start" font-family="monospace">out</text>
<text x="14.0" y="231.0" fill="#000000" font-size="6" text-anchor="start" font-family="monospace" font-weight="bold">NODES</text>
<circle fill="none" stroke="#000000" stroke-width="1.0" cx="18.0" cy="246.0" r="4.0"></circle>
<text x="28.0" y="248.0" fill="#000000" font-size="5" text-anchor="start" font-family="monospace">LOGI</text>
<polygon fill="none" stroke="#000000" stroke-width="1.0" points="18,254.0 22.0,258 18,262.0 14.0,258"></polygon>
<text x="28.0" y="260.0" fill="#000000" font-size="5" text-anchor="start" font-family="monospace">FROB</text>
<polygon fill="none" stroke="#000000" stroke-width="1.0" points="21.5,272.0 18.0,274.0 14.5,272.0 14.5,268.0 18.0,266.0 21.5,268.0"></polygon>
<text x="28.0" y="272.0" fill="#000000" font-size="5" text-anchor="start" font-family="monospace">DIAL</text>
<rect fill="none" stroke="#000000" stroke-width="1.0" x="14.0" y="278.0" width="8.0" height="8.0"></rect>
<text x="28.0" y="284.0" fill="#000000" font-size="5" text-anchor="start" font-family="monospace">LINE</text>
<text x="14.0" y="294.0" fill="#000000" font-size="6" text-anchor="start" font-family="monospace" font-weight="bold">PAIRS</text>
<circle cx="18" cy="306" r="5" fill="#ffffff" stroke="#000000" stroke-width="0.8"></circle>
<text x="18.0" y="309.0" fill="#000000" font-size="6" text-anchor="middle" font-family="monospace">1</text>
<text x="28.0" y="308.0" fill="#000000" font-size="5" text-anchor="start" font-family="monospace">pair</text>
<text x="14.0" y="324.0" fill="#000000" font-size="6" text-anchor="start" font-family="monospace" font-weight="bold">REG Δ</text>
<text x="14.0" y="336.0" fill="#000000" font-size="5" text-anchor="start" font-family="monospace">↑ T</text>
<text x="14.0" y="345.0" fill="#000000" font-size="5" text-anchor="start" font-family="monospace">↓ F</text>
<text x="14.0" y="354.0" fill="#000000" font-size="5" text-anchor="start" font-family="monospace">↑↓ B</text>
<text x="610.0" y="618.0" fill="#000000" font-size="7" text-anchor="middle" font-family="monospace">Ouroboricity: O₁</text>
</svg>