<svg xmlns="http://www.w3.org/2000/svg" viewBox="0 0 1100 630">
<rect width="1100" height="630" fill="#0a0a15"/>
<line x1="0.0" y1="0.0" x2="0.0" y2="630.0" stroke="#151525" stroke-width="0.4" opacity="0.25"></line>
<line x1="40.0" y1="0.0" x2="40.0" y2="630.0" stroke="#151525" stroke-width="0.4" opacity="0.25"></line>
<line x1="80.0" y1="0.0" x2="80.0" y2="630.0" stroke="#151525" stroke-width="0.4" opacity="0.25"></line>
<line x1="120.0" y1="0.0" x2="120.0" y2="630.0" stroke="#151525" stroke-width="0.4" opacity="0.25"></line>
<line x1="160.0" y1="0.0" x2="160.0" y2="630.0" stroke="#151525" stroke-width="0.4" opacity="0.25"></line>
<line x1="200.0" y1="0.0" x2="200.0" y2="630.0" stroke="#151525" stroke-width="0.4" opacity="0.25"></line>
<line x1="240.0" y1="0.0" x2="240.0" y2="630.0" stroke="#151525" stroke-width="0.4" opacity="0.25"></line>
<line x1="280.0" y1="0.0" x2="280.0" y2="630.0" stroke="#151525" stroke-width="0.4" opacity="0.25"></line>
<line x1="320.0" y1="0.0" x2="320.0" y2="630.0" stroke="#151525" stroke-width="0.4" opacity="0.25"></line>
<line x1="360.0" y1="0.0" x2="360.0" y2="630.0" stroke="#151525" stroke-width="0.4" opacity="0.25"></line>
<line x1="400.0" y1="0.0" x2="400.0" y2="630.0" stroke="#151525" stroke-width="0.4" opacity="0.25"></line>
<line x1="440.0" y1="0.0" x2="440.0" y2="630.0" stroke="#151525" stroke-width="0.4" opacity="0.25"></line>
<line x1="480.0" y1="0.0" x2="480.0" y2="630.0" stroke="#151525" stroke-width="0.4" opacity="0.25"></line>
<line x1="520.0" y1="0.0" x2="520.0" y2="630.0" stroke="#151525" stroke-width="0.4" opacity="0.25"></line>
<line x1="560.0" y1="0.0" x2="560.0" y2="630.0" stroke="#151525" stroke-width="0.4" opacity="0.25"></line>
<line x1="600.0" y1="0.0" x2="600.0" y2="630.0" stroke="#151525" stroke-width="0.4" opacity="0.25"></line>
<line x1="640.0" y1="0.0" x2="640.0" y2="630.0" stroke="#151525" stroke-width="0.4" opacity="0.25"></line>
<line x1="680.0" y1="0.0" x2="680.0" y2="630.0" stroke="#151525" stroke-width="0.4" opacity="0.25"></line>
<line x1="720.0" y1="0.0" x2="720.0" y2="630.0" stroke="#151525" stroke-width="0.4" opacity="0.25"></line>
<line x1="760.0" y1="0.0" x2="760.0" y2="630.0" stroke="#151525" stroke-width="0.4" opacity="0.25"></line>
<line x1="800.0" y1="0.0" x2="800.0" y2="630.0" stroke="#151525" stroke-width="0.4" opacity="0.25"></line>
<line x1="840.0" y1="0.0" x2="840.0" y2="630.0" stroke="#151525" stroke-width="0.4" opacity="0.25"></line>
<line x1="880.0" y1="0.0" x2="880.0" y2="630.0" stroke="#151525" stroke-width="0.4" opacity="0.25"></line>
<line x1="920.0" y1="0.0" x2="920.0" y2="630.0" stroke="#151525" stroke-width="0.4" opacity="0.25"></line>
<line x1="960.0" y1="0.0" x2="960.0" y2="630.0" stroke="#151525" stroke-width="0.4" opacity="0.25"></line>
<line x1="1000.0" y1="0.0" x2="1000.0" y2="630.0" stroke="#151525" stroke-width="0.4" opacity="0.25"></line>
<line x1="1040.0" y1="0.0" x2="1040.0" y2="630.0" stroke="#151525" stroke-width="0.4" opacity="0.25"></line>
<line x1="1080.0" y1="0.0" x2="1080.0" y2="630.0" stroke="#151525" stroke-width="0.4" opacity="0.25"></line>
<line x1="0.0" y1="0.0" x2="1100.0" y2="0.0" stroke="#151525" stroke-width="0.4" opacity="0.25"></line>
<line x1="0.0" y1="40.0" x2="1100.0" y2="40.0" stroke="#151525" stroke-width="0.4" opacity="0.25"></line>
<line x1="0.0" y1="80.0" x2="1100.0" y2="80.0" stroke="#151525" stroke-width="0.4" opacity="0.25"></line>
<line x1="0.0" y1="120.0" x2="1100.0" y2="120.0" stroke="#151525" stroke-width="0.4" opacity="0.25"></line>
<line x1="0.0" y1="160.0" x2="1100.0" y2="160.0" stroke="#151525" stroke-width="0.4" opacity="0.25"></line>
<line x1="0.0" y1="200.0" x2="1100.0" y2="200.0" stroke="#151525" stroke-width="0.4" opacity="0.25"></line>
<line x1="0.0" y1="240.0" x2="1100.0" y2="240.0" stroke="#151525" stroke-width="0.4" opacity="0.25"></line>
<line x1="0.0" y1="280.0" x2="1100.0" y2="280.0" stroke="#151525" stroke-width="0.4" opacity="0.25"></line>
<line x1="0.0" y1="320.0" x2="1100.0" y2="320.0" stroke="#151525" stroke-width="0.4" opacity="0.25"></line>
<line x1="0.0" y1="360.0" x2="1100.0" y2="360.0" stroke="#151525" stroke-width="0.4" opacity="0.25"></line>
<line x1="0.0" y1="400.0" x2="1100.0" y2="400.0" stroke="#151525" stroke-width="0.4" opacity="0.25"></line>
<line x1="0.0" y1="440.0" x2="1100.0" y2="440.0" stroke="#151525" stroke-width="0.4" opacity="0.25"></line>
<line x1="0.0" y1="480.0" x2="1100.0" y2="480.0" stroke="#151525" stroke-width="0.4" opacity="0.25"></line>
<line x1="0.0" y1="520.0" x2="1100.0" y2="520.0" stroke="#151525" stroke-width="0.4" opacity="0.25"></line>
<line x1="0.0" y1="560.0" x2="1100.0" y2="560.0" stroke="#151525" stroke-width="0.4" opacity="0.25"></line>
<line x1="0.0" y1="600.0" x2="1100.0" y2="600.0" stroke="#151525" stroke-width="0.4" opacity="0.25"></line>
<text x="550.0" y="26.0" fill="#cccccc" font-size="13" text-anchor="middle" font-family="monospace" font-weight="bold">apply criticality absorbing element entering b</text>
<text x="22.0" y="190.0" fill="#20c0b0" font-size="7" text-anchor="middle" font-family="monospace">T-lane</text>
<text x="22.0" y="470.0" fill="#e04060" font-size="7" text-anchor="middle" font-family="monospace">F-lane</text>
<text x="22.0" y="330.0" fill="#555" font-size="7" text-anchor="middle" font-family="monospace">main</text>
<line x1="687.1" y1="145.0" x2="687.1" y2="515.0" stroke="#cc3344" stroke-width="1.8" opacity="0.4" stroke-dasharray="6,4"></line>
<text x="687.1" y="135.0" fill="#cc3344" font-size="7" text-anchor="middle" font-family="monospace" font-weight="bold">IFIX</text>
<polygon points="687.1428571428572,141.0 691.1,145 687.1428571428572,149.0 683.1,145" fill="#cc3344" opacity="0.6"></polygon>
<polygon points="687.1428571428572,511.0 691.1,515 687.1428571428572,519.0 683.1,515" fill="#cc3344" opacity="0.6"></polygon>
<line x1="230.0" y1="330.0" x2="248.0" y2="330.0" stroke="#5b9bd5" stroke-width="1.4" opacity="0.55"></line>
<line x1="248.0" y1="330.0" x2="248.0" y2="190.0" stroke="#5b9bd5" stroke-width="1.4" opacity="0.55"></line>
<line x1="248.0" y1="190.0" x2="260.1" y2="190.0" stroke="#5b9bd5" stroke-width="1.4" opacity="0.55"></line>
<polygon points="268.1,190.0 260.1,193.2 260.1,186.8" fill="#5b9bd5" opacity="0.55"></polygon>
<line x1="268.1" y1="190.0" x2="302.8" y2="190.0" stroke="#20d0b8" stroke-width="1.3" opacity="0.55"></line>
<line x1="302.8" y1="190.0" x2="302.8" y2="330.0" stroke="#20d0b8" stroke-width="1.3" opacity="0.55"></line>
<line x1="302.8" y1="330.0" x2="359.1" y2="330.0" stroke="#20d0b8" stroke-width="1.3" opacity="0.55"></line>
<polygon points="367.1,330.0 359.1,333.2 359.1,326.8" fill="#20d0b8" opacity="0.55"></polygon>
<line x1="230.0" y1="330.0" x2="256.7" y2="330.0" stroke="#2b6b9f" stroke-width="1.4" opacity="0.55"></line>
<line x1="256.7" y1="330.0" x2="256.7" y2="470.0" stroke="#2b6b9f" stroke-width="1.4" opacity="0.55"></line>
<line x1="256.7" y1="470.0" x2="275.3" y2="470.0" stroke="#2b6b9f" stroke-width="1.4" opacity="0.55"></line>
<polygon points="283.3,470.0 275.3,473.2 275.3,466.8" fill="#2b6b9f" opacity="0.55"></polygon>
<rect x="248.7" y="388.0" width="16.0" height="10" fill="#0a0a15" opacity="0.7" rx="3"></rect>
<text x="256.7" y="396.0" fill="#ffd700" font-size="6" text-anchor="middle" font-family="monospace">↑→↑↓</text>
<line x1="283.3" y1="470.0" x2="313.4" y2="470.0" stroke="#ff6688" stroke-width="1.3" opacity="0.55"></line>
<polygon points="321.4,470.0 313.4,473.2 313.4,466.8" fill="#ff6688" opacity="0.55"></polygon>
<rect x="292.4" y="458.0" width="20.0" height="10" fill="#0a0a15" opacity="0.7" rx="3"></rect>
<text x="302.4" y="466.0" fill="#666688" font-size="6" text-anchor="middle" font-family="monospace">↑↓→↑↓</text>
<line x1="321.4" y1="470.0" x2="339.4" y2="470.0" stroke="#e15759" stroke-width="1.3" opacity="0.55"></line>
<line x1="339.4" y1="470.0" x2="339.4" y2="330.0" stroke="#e15759" stroke-width="1.3" opacity="0.55"></line>
<line x1="339.4" y1="330.0" x2="359.1" y2="330.0" stroke="#e15759" stroke-width="1.3" opacity="0.55"></line>
<polygon points="367.1,330.0 359.1,333.2 359.1,326.8" fill="#e15759" opacity="0.55"></polygon>
<rect x="336.3" y="388.0" width="16.0" height="10" fill="#0a0a15" opacity="0.7" rx="3"></rect>
<text x="344.3" y="396.0" fill="#ffd700" font-size="6" text-anchor="middle" font-family="monospace">↑↓→↑</text>
<line x1="504.3" y1="330.0" x2="522.3" y2="330.0" stroke="#ed7d31" stroke-width="1.4" opacity="0.55"></line>
<line x1="522.3" y1="330.0" x2="522.3" y2="190.0" stroke="#ed7d31" stroke-width="1.4" opacity="0.55"></line>
<line x1="522.3" y1="190.0" x2="534.4" y2="190.0" stroke="#ed7d31" stroke-width="1.4" opacity="0.55"></line>
<polygon points="542.4,190.0 534.4,193.2 534.4,186.8" fill="#ed7d31" opacity="0.55"></polygon>
<rect x="515.3" y="248.0" width="16.0" height="10" fill="#0a0a15" opacity="0.7" rx="3"></rect>
<text x="523.3" y="256.0" fill="#ffd700" font-size="6" text-anchor="middle" font-family="monospace">↓→↑↓</text>
<line x1="542.4" y1="190.0" x2="561.0" y2="190.0" stroke="#20d0b8" stroke-width="1.3" opacity="0.55"></line>
<line x1="561.0" y1="190.0" x2="561.0" y2="330.0" stroke="#20d0b8" stroke-width="1.3" opacity="0.55"></line>
<line x1="561.0" y1="330.0" x2="587.7" y2="330.0" stroke="#20d0b8" stroke-width="1.3" opacity="0.55"></line>
<polygon points="595.7,330.0 587.7,333.2 587.7,326.8" fill="#20d0b8" opacity="0.55"></polygon>
<rect x="561.0" y="248.0" width="16.0" height="10" fill="#0a0a15" opacity="0.7" rx="3"></rect>
<text x="569.0" y="256.0" fill="#ffd700" font-size="6" text-anchor="middle" font-family="monospace">↑↓→↑</text>
<line x1="504.3" y1="330.0" x2="531.0" y2="330.0" stroke="#b85a1c" stroke-width="1.4" opacity="0.55"></line>
<line x1="531.0" y1="330.0" x2="531.0" y2="470.0" stroke="#b85a1c" stroke-width="1.4" opacity="0.55"></line>
<line x1="531.0" y1="470.0" x2="549.6" y2="470.0" stroke="#b85a1c" stroke-width="1.4" opacity="0.55"></line>
<polygon points="557.6,470.0 549.6,473.2 549.6,466.8" fill="#b85a1c" opacity="0.55"></polygon>
<rect x="523.0" y="388.0" width="16.0" height="10" fill="#0a0a15" opacity="0.7" rx="3"></rect>
<text x="531.0" y="396.0" fill="#ffd700" font-size="6" text-anchor="middle" font-family="monospace">↓→↑↓</text>
<line x1="557.6" y1="470.0" x2="575.6" y2="470.0" stroke="#ff6688" stroke-width="1.3" opacity="0.55"></line>
<line x1="575.6" y1="470.0" x2="575.6" y2="330.0" stroke="#ff6688" stroke-width="1.3" opacity="0.55"></line>
<line x1="575.6" y1="330.0" x2="587.7" y2="330.0" stroke="#ff6688" stroke-width="1.3" opacity="0.55"></line>
<polygon points="595.7,330.0 587.7,333.2 587.7,326.8" fill="#ff6688" opacity="0.55"></polygon>
<rect x="568.7" y="388.0" width="16.0" height="10" fill="#0a0a15" opacity="0.7" rx="3"></rect>
<text x="576.7" y="396.0" fill="#ffd700" font-size="6" text-anchor="middle" font-family="monospace">↑↓→↑</text>
<line x1="732.9" y1="330.0" x2="750.9" y2="330.0" stroke="#70ad47" stroke-width="1.4" opacity="0.55"></line>
<line x1="750.9" y1="330.0" x2="750.9" y2="190.0" stroke="#70ad47" stroke-width="1.4" opacity="0.55"></line>
<line x1="750.9" y1="190.0" x2="763.0" y2="190.0" stroke="#70ad47" stroke-width="1.4" opacity="0.55"></line>
<polygon points="771.0,190.0 763.0,193.2 763.0,186.8" fill="#70ad47" opacity="0.55"></polygon>
<line x1="771.0" y1="190.0" x2="789.6" y2="190.0" stroke="#20d0b8" stroke-width="1.3" opacity="0.55"></line>
<line x1="789.6" y1="190.0" x2="789.6" y2="330.0" stroke="#20d0b8" stroke-width="1.3" opacity="0.55"></line>
<line x1="789.6" y1="330.0" x2="816.3" y2="330.0" stroke="#20d0b8" stroke-width="1.3" opacity="0.55"></line>
<polygon points="824.3,330.0 816.3,333.2 816.3,326.8" fill="#20d0b8" opacity="0.55"></polygon>
<line x1="732.9" y1="330.0" x2="759.5" y2="330.0" stroke="#4a7a2e" stroke-width="1.4" opacity="0.55"></line>
<line x1="759.5" y1="330.0" x2="759.5" y2="470.0" stroke="#4a7a2e" stroke-width="1.4" opacity="0.55"></line>
<line x1="759.5" y1="470.0" x2="778.2" y2="470.0" stroke="#4a7a2e" stroke-width="1.4" opacity="0.55"></line>
<polygon points="786.2,470.0 778.2,473.2 778.2,466.8" fill="#4a7a2e" opacity="0.55"></polygon>
<line x1="786.2" y1="470.0" x2="804.2" y2="470.0" stroke="#ff6688" stroke-width="1.3" opacity="0.55"></line>
<line x1="804.2" y1="470.0" x2="804.2" y2="330.0" stroke="#ff6688" stroke-width="1.3" opacity="0.55"></line>
<line x1="804.2" y1="330.0" x2="816.3" y2="330.0" stroke="#ff6688" stroke-width="1.3" opacity="0.55"></line>
<polygon points="824.3,330.0 816.3,333.2 816.3,326.8" fill="#ff6688" opacity="0.55"></polygon>
<line x1="92.9" y1="330.0" x2="130.6" y2="330.0" stroke="#6baed6" stroke-width="1.3" opacity="0.75"></line>
<polygon points="138.6,330.0 130.6,333.2 130.6,326.8" fill="#6baed6" opacity="0.75"></polygon>
<rect x="113.7" y="318.0" width="4.0" height="10" fill="#0a0a15" opacity="0.7" rx="3"></rect>
<text x="115.7" y="326.0" fill="#20b888" font-size="6" text-anchor="middle" font-family="monospace">↑</text>
<line x1="138.6" y1="330.0" x2="176.3" y2="330.0" stroke="#59a14f" stroke-width="1.3" opacity="0.75"></line>
<polygon points="184.3,330.0 176.3,333.2 176.3,326.8" fill="#59a14f" opacity="0.75"></polygon>
<line x1="184.3" y1="330.0" x2="222.0" y2="330.0" stroke="#ffd700" stroke-width="1.3" opacity="0.75"></line>
<polygon points="230.0,330.0 222.0,333.2 222.0,326.8" fill="#ffd700" opacity="0.75"></polygon>
<line x1="412.9" y1="326.5" x2="449.6" y2="326.5" stroke="#f28e2b" stroke-width="1.0" opacity="0.75"></line>
<line x1="412.9" y1="333.5" x2="449.6" y2="333.5" stroke="#f28e2b" stroke-width="1.0" opacity="0.75"></line>
<polygon points="458.6,330.0 448.6,334.0 448.6,326.0" fill="#f28e2b" opacity="0.75"></polygon>
<rect x="433.7" y="318.0" width="4.0" height="10" fill="#0a0a15" opacity="0.7" rx="3"></rect>
<text x="435.7" y="326.0" fill="#20b888" font-size="6" text-anchor="middle" font-family="monospace">↓</text>
<line x1="458.6" y1="330.0" x2="496.3" y2="330.0" stroke="#e15759" stroke-width="1.3" opacity="0.75"></line>
<polygon points="504.3,330.0 496.3,333.2 496.3,326.8" fill="#e15759" opacity="0.75"></polygon>
<line x1="641.4" y1="330.0" x2="679.1" y2="330.0" stroke="#b07aa1" stroke-width="1.3" opacity="0.75" stroke-dasharray="4,3"></line>
<polygon points="687.1,330.0 679.1,333.2 679.1,326.8" fill="#b07aa1" opacity="0.75"></polygon>
<line x1="687.1" y1="330.0" x2="724.9" y2="330.0" stroke="#cc3344" stroke-width="1.3" opacity="0.75"></line>
<polygon points="732.9,330.0 724.9,333.2 724.9,326.8" fill="#cc3344" opacity="0.75"></polygon>
<line x1="870.0" y1="330.0" x2="907.7" y2="330.0" stroke="#ffd700" stroke-width="1.3" opacity="0.75"></line>
<polygon points="915.7,330.0 907.7,333.2 907.7,326.8" fill="#ffd700" opacity="0.75"></polygon>
<line x1="915.7" y1="326.5" x2="952.4" y2="326.5" stroke="#f28e2b" stroke-width="1.0" opacity="0.75"></line>
<line x1="915.7" y1="333.5" x2="952.4" y2="333.5" stroke="#f28e2b" stroke-width="1.0" opacity="0.75"></line>
<polygon points="961.4,330.0 951.4,334.0 951.4,326.0" fill="#f28e2b" opacity="0.75"></polygon>
<line x1="961.4" y1="330.0" x2="999.1" y2="330.0" stroke="#b07aa1" stroke-width="1.3" opacity="0.75" stroke-dasharray="4,3"></line>
<polygon points="1007.1,330.0 999.1,333.2 999.1,326.8" fill="#b07aa1" opacity="0.75"></polygon>
<line x1="367.1" y1="330.0" x2="404.9" y2="330.0" stroke="#ffd700" stroke-width="1.3" opacity="0.55"></line>
<polygon points="412.9,330.0 404.9,333.2 404.9,326.8" fill="#ffd700" opacity="0.55"></polygon>
<rect x="386.0" y="318.0" width="8.0" height="10" fill="#0a0a15" opacity="0.7" rx="3"></rect>
<text x="390.0" y="326.0" fill="#20b888" font-size="6" text-anchor="middle" font-family="monospace">↑→</text>
<line x1="595.7" y1="330.0" x2="633.4" y2="330.0" stroke="#ffd700" stroke-width="1.3" opacity="0.55"></line>
<polygon points="641.4,330.0 633.4,333.2 633.4,326.8" fill="#ffd700" opacity="0.55"></polygon>
<line x1="824.3" y1="330.0" x2="862.0" y2="330.0" stroke="#ffd700" stroke-width="1.3" opacity="0.55"></line>
<polygon points="870.0,330.0 862.0,333.2 862.0,326.8" fill="#ffd700" opacity="0.55"></polygon>
<circle cx="92.9" cy="330.0" r="22.0" fill="#4e79a7" stroke="#ffffff20" stroke-width="1.0"></circle>
<text x="92.9" y="300.0" fill="#cccccc" font-size="8" text-anchor="middle" font-family="monospace" font-weight="bold">VI</text>
<text x="92.9" y="364.0" fill="#888" font-size="5.5" text-anchor="middle" font-family="monospace">VINIT</text>
<circle cx="115.9" cy="330.0" r="2.5" fill="#ffffff90" stroke-width="0"></circle>
<circle cx="138.6" cy="330.0" r="22.0" fill="#4e79a7" stroke="#ffffff20" stroke-width="1.0"></circle>
<circle cx="138.6" cy="330.0" r="12.1" fill="#153530" stroke-width="0"></circle>
<text x="138.6" y="332.0" fill="#20b2aa" font-size="7" text-anchor="middle" font-family="monospace" font-weight="bold">↑</text>
<text x="138.6" y="300.0" fill="#cccccc" font-size="8" text-anchor="middle" font-family="monospace" font-weight="bold">AF</text>
<text x="138.6" y="364.0" fill="#888" font-size="5.5" text-anchor="middle" font-family="monospace">AFWD</text>
<circle cx="115.6" cy="330.0" r="2.5" fill="#ffffff60" stroke-width="0"></circle>
<circle cx="161.6" cy="330.0" r="2.5" fill="#ffffff90" stroke-width="0"></circle>
<circle cx="184.3" cy="330.0" r="22.0" fill="#4e79a7" stroke="#ffffff20" stroke-width="1.0"></circle>
<circle cx="184.3" cy="330.0" r="12.1" fill="#153530" stroke-width="0"></circle>
<text x="184.3" y="332.0" fill="#20b2aa" font-size="7" text-anchor="middle" font-family="monospace" font-weight="bold">↑</text>
<text x="184.3" y="300.0" fill="#cccccc" font-size="8" text-anchor="middle" font-family="monospace" font-weight="bold">IM</text>
<text x="184.3" y="364.0" fill="#888" font-size="5.5" text-anchor="middle" font-family="monospace">IMSCRIB</text>
<circle cx="161.3" cy="330.0" r="2.5" fill="#ffffff60" stroke-width="0"></circle>
<circle cx="207.3" cy="330.0" r="2.5" fill="#ffffff90" stroke-width="0"></circle>
<polygon points="230.0,308.0 252.0,330 230.0,352.0 208.0,330" fill="#ffd700" stroke="#ffffff20" stroke-width="1.0"></polygon>
<circle cx="230.0" cy="330.0" r="12.1" fill="#153530" stroke-width="0"></circle>
<text x="230.0" y="332.0" fill="#20b2aa" font-size="7" text-anchor="middle" font-family="monospace" font-weight="bold">↑</text>
<text x="230.0" y="300.0" fill="#cccccc" font-size="8" text-anchor="middle" font-family="monospace" font-weight="bold">FS</text>
<text x="230.0" y="364.0" fill="#888" font-size="5.5" text-anchor="middle" font-family="monospace">FSPLIT</text>
<circle cx="207.0" cy="330.0" r="2.5" fill="#ffffff60" stroke-width="0"></circle>
<circle cx="253.0" cy="323.0" r="2.5" fill="#ffffff90" stroke-width="0"></circle>
<circle cx="253.0" cy="337.0" r="2.5" fill="#ffffff90" stroke-width="0"></circle>
<polygon points="287.1,201.0 268.1,212.0 249.0,201.0 249.0,179.0 268.1,168.0 287.1,179.0" fill="#e15759" stroke="#ffffff20" stroke-width="1.0"></polygon>
<circle cx="268.1" cy="190.0" r="12.1" fill="#153530" stroke-width="0"></circle>
<text x="268.1" y="192.0" fill="#20b2aa" font-size="7" text-anchor="middle" font-family="monospace" font-weight="bold">↑</text>
<text x="268.1" y="160.0" fill="#cccccc" font-size="8" text-anchor="middle" font-family="monospace" font-weight="bold">ET</text>
<text x="268.1" y="224.0" fill="#888" font-size="5.5" text-anchor="middle" font-family="monospace">EVALT</text>
<circle cx="245.1" cy="190.0" r="3.5" fill="#f28e2b" stroke-width="0.8"></circle>
<circle cx="291.1" cy="190.0" r="3.5" fill="#59a14f" stroke-width="0.9"></circle>
<polygon points="302.4,481.0 283.3,492.0 264.3,481.0 264.3,459.0 283.3,448.0 302.4,459.0" fill="#e15759" stroke="#ffffff20" stroke-width="1.0"></polygon>
<circle cx="283.3" cy="470.0" r="12.1" fill="#332200" stroke-width="0"></circle>
<text x="283.3" y="472.0" fill="#ffd700" font-size="7" text-anchor="middle" font-family="monospace" font-weight="bold">↑↓</text>
<text x="283.3" y="440.0" fill="#cccccc" font-size="8" text-anchor="middle" font-family="monospace" font-weight="bold">EF</text>
<text x="283.3" y="504.0" fill="#888" font-size="5.5" text-anchor="middle" font-family="monospace">EVALF</text>
<circle cx="260.3" cy="470.0" r="3.5" fill="#f28e2b" stroke-width="0.8"></circle>
<circle cx="306.3" cy="470.0" r="3.5" fill="#59a14f" stroke-width="0.9"></circle>
<polygon points="340.5,481.0 321.4,492.0 302.4,481.0 302.4,459.0 321.4,448.0 340.5,459.0" fill="#e15759" stroke="#ffffff20" stroke-width="1.0"></polygon>
<circle cx="321.4" cy="470.0" r="12.1" fill="#332200" stroke-width="0"></circle>
<text x="321.4" y="472.0" fill="#ffd700" font-size="7" text-anchor="middle" font-family="monospace" font-weight="bold">↑↓</text>
<text x="321.4" y="440.0" fill="#cccccc" font-size="8" text-anchor="middle" font-family="monospace" font-weight="bold">EG</text>
<text x="321.4" y="504.0" fill="#888" font-size="5.5" text-anchor="middle" font-family="monospace">ENGAGR</text>
<circle cx="298.4" cy="470.0" r="2.5" fill="#ffffff60" stroke-width="0"></circle>
<circle cx="344.4" cy="470.0" r="2.5" fill="#ffffff90" stroke-width="0"></circle>
<polygon points="367.1428571428571,308.0 389.1,330 367.1428571428571,352.0 345.1,330" fill="#ffd700" stroke="#ffffff20" stroke-width="1.0"></polygon>
<circle cx="367.1" cy="330.0" r="12.1" fill="#153530" stroke-width="0"></circle>
<text x="367.1" y="332.0" fill="#20b2aa" font-size="7" text-anchor="middle" font-family="monospace" font-weight="bold">↑</text>
<text x="367.1" y="300.0" fill="#cccccc" font-size="8" text-anchor="middle" font-family="monospace" font-weight="bold">FF</text>
<text x="367.1" y="364.0" fill="#888" font-size="5.5" text-anchor="middle" font-family="monospace">FFUSE</text>
<circle cx="344.1" cy="323.0" r="2.5" fill="#ffffff60" stroke-width="0"></circle>
<circle cx="344.1" cy="337.0" r="2.5" fill="#ffffff60" stroke-width="0"></circle>
<circle cx="390.1" cy="330.0" r="2.5" fill="#ffffff90" stroke-width="0"></circle>
<circle cx="412.9" cy="330.0" r="22.0" fill="#4e79a7" stroke="#ffffff20" stroke-width="1.0"></circle>
<text x="412.9" y="300.0" fill="#cccccc" font-size="8" text-anchor="middle" font-family="monospace" font-weight="bold">CL</text>
<text x="412.9" y="364.0" fill="#888" font-size="5.5" text-anchor="middle" font-family="monospace">CLINK</text>
<circle cx="389.9" cy="330.0" r="2.5" fill="#ffffff60" stroke-width="0"></circle>
<circle cx="435.9" cy="330.0" r="2.5" fill="#ffffff90" stroke-width="0"></circle>
<circle cx="458.6" cy="330.0" r="22.0" fill="#4e79a7" stroke="#ffffff20" stroke-width="1.0"></circle>
<circle cx="458.6" cy="330.0" r="12.1" fill="#301518" stroke-width="0"></circle>
<text x="458.6" y="332.0" fill="#cc4455" font-size="7" text-anchor="middle" font-family="monospace" font-weight="bold">↓</text>
<text x="458.6" y="300.0" fill="#cccccc" font-size="8" text-anchor="middle" font-family="monospace" font-weight="bold">AR</text>
<text x="458.6" y="364.0" fill="#888" font-size="5.5" text-anchor="middle" font-family="monospace">AREV</text>
<circle cx="435.6" cy="330.0" r="2.5" fill="#ffffff60" stroke-width="0"></circle>
<circle cx="481.6" cy="330.0" r="2.5" fill="#ffffff90" stroke-width="0"></circle>
<polygon points="504.2857142857143,308.0 526.3,330 504.2857142857143,352.0 482.3,330" fill="#ffd700" stroke="#ffffff20" stroke-width="1.0"></polygon>
<circle cx="504.3" cy="330.0" r="12.1" fill="#301518" stroke-width="0"></circle>
<text x="504.3" y="332.0" fill="#cc4455" font-size="7" text-anchor="middle" font-family="monospace" font-weight="bold">↓</text>
<text x="504.3" y="300.0" fill="#cccccc" font-size="8" text-anchor="middle" font-family="monospace" font-weight="bold">FS</text>
<text x="504.3" y="364.0" fill="#888" font-size="5.5" text-anchor="middle" font-family="monospace">FSPLIT</text>
<circle cx="481.3" cy="330.0" r="2.5" fill="#ffffff60" stroke-width="0"></circle>
<circle cx="527.3" cy="323.0" r="2.5" fill="#ffffff90" stroke-width="0"></circle>
<circle cx="527.3" cy="337.0" r="2.5" fill="#ffffff90" stroke-width="0"></circle>
<polygon points="561.4,201.0 542.4,212.0 523.3,201.0 523.3,179.0 542.4,168.0 561.4,179.0" fill="#e15759" stroke="#ffffff20" stroke-width="1.0"></polygon>
<circle cx="542.4" cy="190.0" r="12.1" fill="#332200" stroke-width="0"></circle>
<text x="542.4" y="192.0" fill="#ffd700" font-size="7" text-anchor="middle" font-family="monospace" font-weight="bold">↑↓</text>
<text x="542.4" y="160.0" fill="#cccccc" font-size="8" text-anchor="middle" font-family="monospace" font-weight="bold">ET</text>
<text x="542.4" y="224.0" fill="#888" font-size="5.5" text-anchor="middle" font-family="monospace">EVALT</text>
<circle cx="519.4" cy="190.0" r="3.5" fill="#f28e2b" stroke-width="0.8"></circle>
<circle cx="565.4" cy="190.0" r="3.5" fill="#59a14f" stroke-width="0.9"></circle>
<polygon points="576.7,481.0 557.6,492.0 538.6,481.0 538.6,459.0 557.6,448.0 576.7,459.0" fill="#e15759" stroke="#ffffff20" stroke-width="1.0"></polygon>
<circle cx="557.6" cy="470.0" r="12.1" fill="#332200" stroke-width="0"></circle>
<text x="557.6" y="472.0" fill="#ffd700" font-size="7" text-anchor="middle" font-family="monospace" font-weight="bold">↑↓</text>
<text x="557.6" y="440.0" fill="#cccccc" font-size="8" text-anchor="middle" font-family="monospace" font-weight="bold">EF</text>
<text x="557.6" y="504.0" fill="#888" font-size="5.5" text-anchor="middle" font-family="monospace">EVALF</text>
<circle cx="534.6" cy="470.0" r="3.5" fill="#f28e2b" stroke-width="0.8"></circle>
<circle cx="580.6" cy="470.0" r="3.5" fill="#59a14f" stroke-width="0.9"></circle>
<polygon points="595.7142857142858,308.0 617.7,330 595.7142857142858,352.0 573.7,330" fill="#ffd700" stroke="#ffffff20" stroke-width="1.0"></polygon>
<circle cx="595.7" cy="330.0" r="12.1" fill="#153530" stroke-width="0"></circle>
<text x="595.7" y="332.0" fill="#20b2aa" font-size="7" text-anchor="middle" font-family="monospace" font-weight="bold">↑</text>
<text x="595.7" y="300.0" fill="#cccccc" font-size="8" text-anchor="middle" font-family="monospace" font-weight="bold">FF</text>
<text x="595.7" y="364.0" fill="#888" font-size="5.5" text-anchor="middle" font-family="monospace">FFUSE</text>
<circle cx="572.7" cy="323.0" r="2.5" fill="#ffffff60" stroke-width="0"></circle>
<circle cx="572.7" cy="337.0" r="2.5" fill="#ffffff60" stroke-width="0"></circle>
<circle cx="618.7" cy="330.0" r="2.5" fill="#ffffff90" stroke-width="0"></circle>
<circle cx="641.4" cy="330.0" r="22.0" fill="#4e79a7" stroke="#ffffff20" stroke-width="1.0"></circle>
<circle cx="641.4" cy="330.0" r="12.1" fill="#153530" stroke-width="0"></circle>
<text x="641.4" y="332.0" fill="#20b2aa" font-size="7" text-anchor="middle" font-family="monospace" font-weight="bold">↑</text>
<text x="641.4" y="300.0" fill="#cccccc" font-size="8" text-anchor="middle" font-family="monospace" font-weight="bold">TA</text>
<text x="641.4" y="364.0" fill="#888" font-size="5.5" text-anchor="middle" font-family="monospace">TANCH</text>
<circle cx="618.4" cy="330.0" r="2.5" fill="#ffffff60" stroke-width="0"></circle>
<circle cx="664.4" cy="330.0" r="2.5" fill="#ffffff90" stroke-width="0"></circle>
<rect x="665.1" y="308.0" width="44.0" height="44.0" fill="#59a14f" stroke="#ffffff20" stroke-width="1.0"></rect>
<circle cx="687.1" cy="330.0" r="12.1" fill="#153530" stroke-width="0"></circle>
<text x="687.1" y="332.0" fill="#20b2aa" font-size="7" text-anchor="middle" font-family="monospace" font-weight="bold">↑</text>
<text x="687.1" y="300.0" fill="#cccccc" font-size="8" text-anchor="middle" font-family="monospace" font-weight="bold">IX</text>
<text x="687.1" y="364.0" fill="#888" font-size="5.5" text-anchor="middle" font-family="monospace">IFIX</text>
<circle cx="664.1" cy="330.0" r="2.5" fill="#ffffff60" stroke-width="0"></circle>
<circle cx="710.1" cy="330.0" r="2.5" fill="#ffffff90" stroke-width="0"></circle>
<polygon points="732.8571428571429,308.0 754.9,330 732.8571428571429,352.0 710.9,330" fill="#ffd700" stroke="#ffffff20" stroke-width="1.0"></polygon>
<circle cx="732.9" cy="330.0" r="12.1" fill="#153530" stroke-width="0"></circle>
<text x="732.9" y="332.0" fill="#20b2aa" font-size="7" text-anchor="middle" font-family="monospace" font-weight="bold">↑</text>
<text x="732.9" y="300.0" fill="#cccccc" font-size="8" text-anchor="middle" font-family="monospace" font-weight="bold">FS</text>
<text x="732.9" y="364.0" fill="#888" font-size="5.5" text-anchor="middle" font-family="monospace">FSPLIT</text>
<circle cx="709.9" cy="330.0" r="2.5" fill="#ffffff60" stroke-width="0"></circle>
<circle cx="755.9" cy="323.0" r="2.5" fill="#ffffff90" stroke-width="0"></circle>
<circle cx="755.9" cy="337.0" r="2.5" fill="#ffffff90" stroke-width="0"></circle>
<polygon points="790.0,201.0 771.0,212.0 751.9,201.0 751.9,179.0 771.0,168.0 790.0,179.0" fill="#e15759" stroke="#ffffff20" stroke-width="1.0"></polygon>
<circle cx="771.0" cy="190.0" r="12.1" fill="#153530" stroke-width="0"></circle>
<text x="771.0" y="192.0" fill="#20b2aa" font-size="7" text-anchor="middle" font-family="monospace" font-weight="bold">↑</text>
<text x="771.0" y="160.0" fill="#cccccc" font-size="8" text-anchor="middle" font-family="monospace" font-weight="bold">ET</text>
<text x="771.0" y="224.0" fill="#888" font-size="5.5" text-anchor="middle" font-family="monospace">EVALT</text>
<circle cx="748.0" cy="190.0" r="3.5" fill="#f28e2b" stroke-width="0.8"></circle>
<circle cx="794.0" cy="190.0" r="3.5" fill="#59a14f" stroke-width="0.9"></circle>
<polygon points="805.2,481.0 786.2,492.0 767.1,481.0 767.1,459.0 786.2,448.0 805.2,459.0" fill="#e15759" stroke="#ffffff20" stroke-width="1.0"></polygon>
<circle cx="786.2" cy="470.0" r="12.1" fill="#153530" stroke-width="0"></circle>
<text x="786.2" y="472.0" fill="#20b2aa" font-size="7" text-anchor="middle" font-family="monospace" font-weight="bold">↑</text>
<text x="786.2" y="440.0" fill="#cccccc" font-size="8" text-anchor="middle" font-family="monospace" font-weight="bold">EF</text>
<text x="786.2" y="504.0" fill="#888" font-size="5.5" text-anchor="middle" font-family="monospace">EVALF</text>
<circle cx="763.2" cy="470.0" r="3.5" fill="#f28e2b" stroke-width="0.8"></circle>
<circle cx="809.2" cy="470.0" r="3.5" fill="#59a14f" stroke-width="0.9"></circle>
<polygon points="824.2857142857143,308.0 846.3,330 824.2857142857143,352.0 802.3,330" fill="#ffd700" stroke="#ffffff20" stroke-width="1.0"></polygon>
<circle cx="824.3" cy="330.0" r="12.1" fill="#153530" stroke-width="0"></circle>
<text x="824.3" y="332.0" fill="#20b2aa" font-size="7" text-anchor="middle" font-family="monospace" font-weight="bold">↑</text>
<text x="824.3" y="300.0" fill="#cccccc" font-size="8" text-anchor="middle" font-family="monospace" font-weight="bold">FF</text>
<text x="824.3" y="364.0" fill="#888" font-size="5.5" text-anchor="middle" font-family="monospace">FFUSE</text>
<circle cx="801.3" cy="323.0" r="2.5" fill="#ffffff60" stroke-width="0"></circle>
<circle cx="801.3" cy="337.0" r="2.5" fill="#ffffff60" stroke-width="0"></circle>
<circle cx="847.3" cy="330.0" r="2.5" fill="#ffffff90" stroke-width="0"></circle>
<circle cx="870.0" cy="330.0" r="22.0" fill="#4e79a7" stroke="#ffffff20" stroke-width="1.0"></circle>
<circle cx="870.0" cy="330.0" r="12.1" fill="#153530" stroke-width="0"></circle>
<text x="870.0" y="332.0" fill="#20b2aa" font-size="7" text-anchor="middle" font-family="monospace" font-weight="bold">↑</text>
<text x="870.0" y="300.0" fill="#cccccc" font-size="8" text-anchor="middle" font-family="monospace" font-weight="bold">IM</text>
<text x="870.0" y="364.0" fill="#888" font-size="5.5" text-anchor="middle" font-family="monospace">IMSCRIB</text>
<circle cx="847.0" cy="330.0" r="2.5" fill="#ffffff60" stroke-width="0"></circle>
<circle cx="893.0" cy="330.0" r="2.5" fill="#ffffff90" stroke-width="0"></circle>
<circle cx="915.7" cy="330.0" r="22.0" fill="#4e79a7" stroke="#ffffff20" stroke-width="1.0"></circle>
<circle cx="915.7" cy="330.0" r="12.1" fill="#153530" stroke-width="0"></circle>
<text x="915.7" y="332.0" fill="#20b2aa" font-size="7" text-anchor="middle" font-family="monospace" font-weight="bold">↑</text>
<text x="915.7" y="300.0" fill="#cccccc" font-size="8" text-anchor="middle" font-family="monospace" font-weight="bold">CL</text>
<text x="915.7" y="364.0" fill="#888" font-size="5.5" text-anchor="middle" font-family="monospace">CLINK</text>
<circle cx="892.7" cy="330.0" r="2.5" fill="#ffffff60" stroke-width="0"></circle>
<circle cx="938.7" cy="330.0" r="2.5" fill="#ffffff90" stroke-width="0"></circle>
<circle cx="961.4" cy="330.0" r="22.0" fill="#4e79a7" stroke="#ffffff20" stroke-width="1.0"></circle>
<circle cx="961.4" cy="330.0" r="12.1" fill="#153530" stroke-width="0"></circle>
<text x="961.4" y="332.0" fill="#20b2aa" font-size="7" text-anchor="middle" font-family="monospace" font-weight="bold">↑</text>
<text x="961.4" y="300.0" fill="#cccccc" font-size="8" text-anchor="middle" font-family="monospace" font-weight="bold">TA</text>
<text x="961.4" y="364.0" fill="#888" font-size="5.5" text-anchor="middle" font-family="monospace">TANCH</text>
<circle cx="938.4" cy="330.0" r="2.5" fill="#ffffff60" stroke-width="0"></circle>
<circle cx="984.4" cy="330.0" r="2.5" fill="#ffffff90" stroke-width="0"></circle>
<rect x="985.1" y="308.0" width="44.0" height="44.0" fill="#59a14f" stroke="#ffffff20" stroke-width="1.0"></rect>
<circle cx="1007.1" cy="330.0" r="12.1" fill="#153530" stroke-width="0"></circle>
<text x="1007.1" y="332.0" fill="#20b2aa" font-size="7" text-anchor="middle" font-family="monospace" font-weight="bold">↑</text>
<text x="1007.1" y="300.0" fill="#cccccc" font-size="8" text-anchor="middle" font-family="monospace" font-weight="bold">IX</text>
<text x="1007.1" y="364.0" fill="#888" font-size="5.5" text-anchor="middle" font-family="monospace">IFIX</text>
<circle cx="984.1" cy="330.0" r="2.5" fill="#ffffff60" stroke-width="0"></circle>
<circle cx="1030.1" cy="330.0" r="2.5" fill="#ffffff90" stroke-width="0"></circle>
<path d="M1007.1,330.0 Q550.0,275.0 92.9,330.0" fill="none" stroke="#9988cc" stroke-width="1.5" opacity="0.5"></path>
<polygon points="92.9,330.0 84.4,327.0 85.4,334.9" fill="#9988cc" opacity="0.5"></polygon>
<text x="550.0" y="260.0" fill="#9988cc" font-size="8" text-anchor="middle" font-family="serif">O₂</text>
<text x="550.0" y="621.0" fill="#9988aa" font-size="7" text-anchor="middle" font-family="serif">Ouroboricity: O₂</text>
<text x="70.0" y="52.0" fill="#666" font-size="6" text-anchor="start" font-family="monospace" font-weight="bold">NODES</text>
<circle cx="110.0" cy="59.0" r="4.5" fill="#4e79a7" stroke-width="0"></circle>
<text x="120.0" y="62.0" fill="#4e79a7" font-size="5" text-anchor="start" font-family="monospace">LOGI</text>
<polygon points="158,54.5 162.5,59 158,63.5 153.5,59" fill="#ffd700" stroke="#ffffff20" stroke-width="1.0"></polygon>
<text x="168.0" y="62.0" fill="#ffd700" font-size="5" text-anchor="start" font-family="monospace">FROB</text>
<polygon points="209.9,61.2 206.0,63.5 202.1,61.2 202.1,56.8 206.0,54.5 209.9,56.8" fill="#e15759" stroke="#ffffff20" stroke-width="1.0"></polygon>
<text x="216.0" y="62.0" fill="#e15759" font-size="5" text-anchor="start" font-family="monospace">DIAL</text>
<rect x="249.5" y="54.5" width="9.0" height="9.0" fill="#59a14f" stroke="#ffffff20" stroke-width="1.0"></rect>
<text x="264.0" y="62.0" fill="#59a14f" font-size="5" text-anchor="start" font-family="monospace">LINE</text>
<text x="312.0" y="52.0" fill="#666" font-size="6" text-anchor="start" font-family="monospace" font-weight="bold">EDGES</text>
<line x1="350.0" y1="59.0" x2="364.0" y2="59.0" stroke="#59a14f" stroke-width="1.5" opacity="0.7"></line>
<text x="368.0" y="62.0" fill="#59a14f" font-size="5" text-anchor="start" font-family="monospace">AFWD</text>
<line x1="402.0" y1="59.0" x2="416.0" y2="59.0" stroke="#e15759" stroke-width="1.5" opacity="0.7"></line>
<text x="420.0" y="62.0" fill="#e15759" font-size="5" text-anchor="start" font-family="monospace">AREV</text>
<line x1="454.0" y1="59.0" x2="468.0" y2="59.0" stroke="#f28e2b" stroke-width="1.5" opacity="0.7"></line>
<text x="472.0" y="62.0" fill="#f28e2b" font-size="5" text-anchor="start" font-family="monospace">CLINK</text>
<line x1="506.0" y1="59.0" x2="520.0" y2="59.0" stroke="#b07aa1" stroke-width="1.5" opacity="0.7" stroke-dasharray="4,3"></line>
<text x="524.0" y="62.0" fill="#b07aa1" font-size="5" text-anchor="start" font-family="monospace">TANCH</text>
<line x1="558.0" y1="59.0" x2="572.0" y2="59.0" stroke="#ffd700" stroke-width="1.5" opacity="0.7"></line>
<text x="576.0" y="62.0" fill="#ffd700" font-size="5" text-anchor="start" font-family="monospace">IMSC</text>
<line x1="610.0" y1="59.0" x2="624.0" y2="59.0" stroke="#cc3344" stroke-width="1.5" opacity="0.7"></line>
<text x="628.0" y="62.0" fill="#cc3344" font-size="5" text-anchor="start" font-family="monospace">IFIX</text>
<text x="70.0" y="72.0" fill="#666" font-size="6" text-anchor="start" font-family="monospace" font-weight="bold">GUARD</text>
<circle cx="110.0" cy="79.0" r="3.0" fill="#f28e2b" stroke-width="0.8"></circle>
<text x="117.0" y="82.0" fill="#f28e2b" font-size="5" text-anchor="start" font-family="monospace">approach</text>
<circle cx="162.0" cy="79.0" r="3.0" fill="#59a14f" stroke-width="0.9"></circle>
<text x="169.0" y="82.0" fill="#59a14f" font-size="5" text-anchor="start" font-family="monospace">passed</text>
<text x="214.0" y="72.0" fill="#666" font-size="6" text-anchor="start" font-family="monospace" font-weight="bold">REG Δ</text>
<text x="252.0" y="82.0" fill="#20b888" font-size="5.5" text-anchor="start" font-family="monospace">→↑</text>
<text x="280.0" y="82.0" fill="#ffd700" font-size="5.5" text-anchor="start" font-family="monospace">↓→↑↓</text>
<text x="308.0" y="82.0" fill="#e15759" font-size="5.5" text-anchor="start" font-family="monospace">↑↔↓</text>
<line x1="344.0" y1="79.0" x2="358.0" y2="79.0" stroke="#ffd700" stroke-width="1.5" opacity="0.6" stroke-dasharray="5,3"></line>
<text x="362.0" y="82.0" fill="#ffd700" font-size="5.5" text-anchor="start" font-family="monospace">cross-br.</text>
<line x1="404.0" y1="79.0" x2="418.0" y2="79.0" stroke="#9988cc" stroke-width="1.5" opacity="0.5"></line>
<text x="422.0" y="82.0" fill="#9988cc" font-size="5.5" text-anchor="start" font-family="monospace">loop</text>
</svg>