<svg xmlns="http://www.w3.org/2000/svg" viewBox="0 0 1100 630">
<rect width="1100" height="630" fill="#0a0a15"/>
<line x1="0.0" y1="0.0" x2="0.0" y2="630.0" stroke="#151525" stroke-width="0.4" opacity="0.25"></line>
<line x1="40.0" y1="0.0" x2="40.0" y2="630.0" stroke="#151525" stroke-width="0.4" opacity="0.25"></line>
<line x1="80.0" y1="0.0" x2="80.0" y2="630.0" stroke="#151525" stroke-width="0.4" opacity="0.25"></line>
<line x1="120.0" y1="0.0" x2="120.0" y2="630.0" stroke="#151525" stroke-width="0.4" opacity="0.25"></line>
<line x1="160.0" y1="0.0" x2="160.0" y2="630.0" stroke="#151525" stroke-width="0.4" opacity="0.25"></line>
<line x1="200.0" y1="0.0" x2="200.0" y2="630.0" stroke="#151525" stroke-width="0.4" opacity="0.25"></line>
<line x1="240.0" y1="0.0" x2="240.0" y2="630.0" stroke="#151525" stroke-width="0.4" opacity="0.25"></line>
<line x1="280.0" y1="0.0" x2="280.0" y2="630.0" stroke="#151525" stroke-width="0.4" opacity="0.25"></line>
<line x1="320.0" y1="0.0" x2="320.0" y2="630.0" stroke="#151525" stroke-width="0.4" opacity="0.25"></line>
<line x1="360.0" y1="0.0" x2="360.0" y2="630.0" stroke="#151525" stroke-width="0.4" opacity="0.25"></line>
<line x1="400.0" y1="0.0" x2="400.0" y2="630.0" stroke="#151525" stroke-width="0.4" opacity="0.25"></line>
<line x1="440.0" y1="0.0" x2="440.0" y2="630.0" stroke="#151525" stroke-width="0.4" opacity="0.25"></line>
<line x1="480.0" y1="0.0" x2="480.0" y2="630.0" stroke="#151525" stroke-width="0.4" opacity="0.25"></line>
<line x1="520.0" y1="0.0" x2="520.0" y2="630.0" stroke="#151525" stroke-width="0.4" opacity="0.25"></line>
<line x1="560.0" y1="0.0" x2="560.0" y2="630.0" stroke="#151525" stroke-width="0.4" opacity="0.25"></line>
<line x1="600.0" y1="0.0" x2="600.0" y2="630.0" stroke="#151525" stroke-width="0.4" opacity="0.25"></line>
<line x1="640.0" y1="0.0" x2="640.0" y2="630.0" stroke="#151525" stroke-width="0.4" opacity="0.25"></line>
<line x1="680.0" y1="0.0" x2="680.0" y2="630.0" stroke="#151525" stroke-width="0.4" opacity="0.25"></line>
<line x1="720.0" y1="0.0" x2="720.0" y2="630.0" stroke="#151525" stroke-width="0.4" opacity="0.25"></line>
<line x1="760.0" y1="0.0" x2="760.0" y2="630.0" stroke="#151525" stroke-width="0.4" opacity="0.25"></line>
<line x1="800.0" y1="0.0" x2="800.0" y2="630.0" stroke="#151525" stroke-width="0.4" opacity="0.25"></line>
<line x1="840.0" y1="0.0" x2="840.0" y2="630.0" stroke="#151525" stroke-width="0.4" opacity="0.25"></line>
<line x1="880.0" y1="0.0" x2="880.0" y2="630.0" stroke="#151525" stroke-width="0.4" opacity="0.25"></line>
<line x1="920.0" y1="0.0" x2="920.0" y2="630.0" stroke="#151525" stroke-width="0.4" opacity="0.25"></line>
<line x1="960.0" y1="0.0" x2="960.0" y2="630.0" stroke="#151525" stroke-width="0.4" opacity="0.25"></line>
<line x1="1000.0" y1="0.0" x2="1000.0" y2="630.0" stroke="#151525" stroke-width="0.4" opacity="0.25"></line>
<line x1="1040.0" y1="0.0" x2="1040.0" y2="630.0" stroke="#151525" stroke-width="0.4" opacity="0.25"></line>
<line x1="1080.0" y1="0.0" x2="1080.0" y2="630.0" stroke="#151525" stroke-width="0.4" opacity="0.25"></line>
<line x1="0.0" y1="0.0" x2="1100.0" y2="0.0" stroke="#151525" stroke-width="0.4" opacity="0.25"></line>
<line x1="0.0" y1="40.0" x2="1100.0" y2="40.0" stroke="#151525" stroke-width="0.4" opacity="0.25"></line>
<line x1="0.0" y1="80.0" x2="1100.0" y2="80.0" stroke="#151525" stroke-width="0.4" opacity="0.25"></line>
<line x1="0.0" y1="120.0" x2="1100.0" y2="120.0" stroke="#151525" stroke-width="0.4" opacity="0.25"></line>
<line x1="0.0" y1="160.0" x2="1100.0" y2="160.0" stroke="#151525" stroke-width="0.4" opacity="0.25"></line>
<line x1="0.0" y1="200.0" x2="1100.0" y2="200.0" stroke="#151525" stroke-width="0.4" opacity="0.25"></line>
<line x1="0.0" y1="240.0" x2="1100.0" y2="240.0" stroke="#151525" stroke-width="0.4" opacity="0.25"></line>
<line x1="0.0" y1="280.0" x2="1100.0" y2="280.0" stroke="#151525" stroke-width="0.4" opacity="0.25"></line>
<line x1="0.0" y1="320.0" x2="1100.0" y2="320.0" stroke="#151525" stroke-width="0.4" opacity="0.25"></line>
<line x1="0.0" y1="360.0" x2="1100.0" y2="360.0" stroke="#151525" stroke-width="0.4" opacity="0.25"></line>
<line x1="0.0" y1="400.0" x2="1100.0" y2="400.0" stroke="#151525" stroke-width="0.4" opacity="0.25"></line>
<line x1="0.0" y1="440.0" x2="1100.0" y2="440.0" stroke="#151525" stroke-width="0.4" opacity="0.25"></line>
<line x1="0.0" y1="480.0" x2="1100.0" y2="480.0" stroke="#151525" stroke-width="0.4" opacity="0.25"></line>
<line x1="0.0" y1="520.0" x2="1100.0" y2="520.0" stroke="#151525" stroke-width="0.4" opacity="0.25"></line>
<line x1="0.0" y1="560.0" x2="1100.0" y2="560.0" stroke="#151525" stroke-width="0.4" opacity="0.25"></line>
<line x1="0.0" y1="600.0" x2="1100.0" y2="600.0" stroke="#151525" stroke-width="0.4" opacity="0.25"></line>
<text x="550.0" y="26.0" fill="#cccccc" font-size="13" text-anchor="middle" font-family="monospace" font-weight="bold">the eleven a-zero Weyl-Heisenberg overla</text>
<text x="550.0" y="41.0" fill="#777" font-size="7" text-anchor="middle" font-family="monospace">Strata decomposition</text>
<text x="22.0" y="190.0" fill="#20c0b0" font-size="7" text-anchor="middle" font-family="monospace">T-lane</text>
<text x="22.0" y="470.0" fill="#e04060" font-size="7" text-anchor="middle" font-family="monospace">F-lane</text>
<text x="22.0" y="330.0" fill="#555" font-size="7" text-anchor="middle" font-family="monospace">main</text>
<line x1="147.4" y1="145.0" x2="147.4" y2="515.0" stroke="#cc3344" stroke-width="1.8" opacity="0.4" stroke-dasharray="6,4"></line>
<text x="147.4" y="135.0" fill="#cc3344" font-size="7" text-anchor="middle" font-family="monospace" font-weight="bold">IFIX</text>
<polygon points="147.4193548387097,141.0 151.4,145 147.4193548387097,149.0 143.4,145" fill="#cc3344" opacity="0.6"></polygon>
<polygon points="147.4193548387097,511.0 151.4,515 147.4193548387097,519.0 143.4,515" fill="#cc3344" opacity="0.6"></polygon>
<line x1="209.4" y1="330.0" x2="227.4" y2="330.0" stroke="#5b9bd5" stroke-width="1.4" opacity="0.55"></line>
<line x1="227.4" y1="330.0" x2="227.4" y2="190.0" stroke="#5b9bd5" stroke-width="1.4" opacity="0.55"></line>
<line x1="227.4" y1="190.0" x2="227.2" y2="190.0" stroke="#5b9bd5" stroke-width="1.4" opacity="0.55"></line>
<polygon points="235.2,190.0 227.2,193.2 227.2,186.8" fill="#5b9bd5" opacity="0.55"></polygon>
<line x1="235.2" y1="190.0" x2="258.1" y2="190.0" stroke="#cc3344" stroke-width="1.3" opacity="0.55"></line>
<polygon points="266.1,190.0 258.1,193.2 258.1,186.8" fill="#cc3344" opacity="0.55"></polygon>
<line x1="266.1" y1="186.5" x2="288.1" y2="186.5" stroke="#f28e2b" stroke-width="1.0" opacity="0.55"></line>
<line x1="266.1" y1="193.5" x2="288.1" y2="193.5" stroke="#f28e2b" stroke-width="1.0" opacity="0.55"></line>
<polygon points="297.1,190.0 287.1,194.0 287.1,186.0" fill="#f28e2b" opacity="0.55"></polygon>
<line x1="297.1" y1="190.0" x2="325.2" y2="190.0" stroke="#20d0b8" stroke-width="1.3" opacity="0.55"></line>
<polygon points="333.2,190.0 325.2,193.2 325.2,186.8" fill="#20d0b8" opacity="0.55"></polygon>
<line x1="333.2" y1="186.5" x2="355.2" y2="186.5" stroke="#f28e2b" stroke-width="1.0" opacity="0.55"></line>
<line x1="333.2" y1="193.5" x2="355.2" y2="193.5" stroke="#f28e2b" stroke-width="1.0" opacity="0.55"></line>
<polygon points="364.2,190.0 354.2,194.0 354.2,186.0" fill="#f28e2b" opacity="0.55"></polygon>
<line x1="364.2" y1="190.0" x2="387.2" y2="190.0" stroke="#20d0b8" stroke-width="1.3" opacity="0.55"></line>
<polygon points="395.2,190.0 387.2,193.2 387.2,186.8" fill="#20d0b8" opacity="0.55"></polygon>
<line x1="395.2" y1="186.5" x2="417.1" y2="186.5" stroke="#f28e2b" stroke-width="1.0" opacity="0.55"></line>
<line x1="395.2" y1="193.5" x2="417.1" y2="193.5" stroke="#f28e2b" stroke-width="1.0" opacity="0.55"></line>
<polygon points="426.1,190.0 416.1,194.0 416.1,186.0" fill="#f28e2b" opacity="0.55"></polygon>
<line x1="426.1" y1="190.0" x2="449.1" y2="190.0" stroke="#20d0b8" stroke-width="1.3" opacity="0.55"></line>
<polygon points="457.1,190.0 449.1,193.2 449.1,186.8" fill="#20d0b8" opacity="0.55"></polygon>
<line x1="457.1" y1="186.5" x2="479.1" y2="186.5" stroke="#f28e2b" stroke-width="1.0" opacity="0.55"></line>
<line x1="457.1" y1="193.5" x2="479.1" y2="193.5" stroke="#f28e2b" stroke-width="1.0" opacity="0.55"></line>
<polygon points="488.1,190.0 478.1,194.0 478.1,186.0" fill="#f28e2b" opacity="0.55"></polygon>
<line x1="488.1" y1="190.0" x2="511.0" y2="190.0" stroke="#20d0b8" stroke-width="1.3" opacity="0.55"></line>
<polygon points="519.0,190.0 511.0,193.2 511.0,186.8" fill="#20d0b8" opacity="0.55"></polygon>
<line x1="519.0" y1="186.5" x2="541.0" y2="186.5" stroke="#f28e2b" stroke-width="1.0" opacity="0.55"></line>
<line x1="519.0" y1="193.5" x2="541.0" y2="193.5" stroke="#f28e2b" stroke-width="1.0" opacity="0.55"></line>
<polygon points="550.0,190.0 540.0,194.0 540.0,186.0" fill="#f28e2b" opacity="0.55"></polygon>
<line x1="550.0" y1="190.0" x2="573.0" y2="190.0" stroke="#20d0b8" stroke-width="1.3" opacity="0.55"></line>
<polygon points="581.0,190.0 573.0,193.2 573.0,186.8" fill="#20d0b8" opacity="0.55"></polygon>
<line x1="581.0" y1="186.5" x2="602.9" y2="186.5" stroke="#f28e2b" stroke-width="1.0" opacity="0.55"></line>
<line x1="581.0" y1="193.5" x2="602.9" y2="193.5" stroke="#f28e2b" stroke-width="1.0" opacity="0.55"></line>
<polygon points="611.9,190.0 601.9,194.0 601.9,186.0" fill="#f28e2b" opacity="0.55"></polygon>
<line x1="611.9" y1="190.0" x2="634.9" y2="190.0" stroke="#20d0b8" stroke-width="1.3" opacity="0.55"></line>
<polygon points="642.9,190.0 634.9,193.2 634.9,186.8" fill="#20d0b8" opacity="0.55"></polygon>
<line x1="642.9" y1="186.5" x2="664.9" y2="186.5" stroke="#f28e2b" stroke-width="1.0" opacity="0.55"></line>
<line x1="642.9" y1="193.5" x2="664.9" y2="193.5" stroke="#f28e2b" stroke-width="1.0" opacity="0.55"></line>
<polygon points="673.9,190.0 663.9,194.0 663.9,186.0" fill="#f28e2b" opacity="0.55"></polygon>
<line x1="673.9" y1="190.0" x2="696.8" y2="190.0" stroke="#20d0b8" stroke-width="1.3" opacity="0.55"></line>
<polygon points="704.8,190.0 696.8,193.2 696.8,186.8" fill="#20d0b8" opacity="0.55"></polygon>
<line x1="704.8" y1="186.5" x2="726.8" y2="186.5" stroke="#f28e2b" stroke-width="1.0" opacity="0.55"></line>
<line x1="704.8" y1="193.5" x2="726.8" y2="193.5" stroke="#f28e2b" stroke-width="1.0" opacity="0.55"></line>
<polygon points="735.8,190.0 725.8,194.0 725.8,186.0" fill="#f28e2b" opacity="0.55"></polygon>
<line x1="735.8" y1="190.0" x2="758.8" y2="190.0" stroke="#20d0b8" stroke-width="1.3" opacity="0.55"></line>
<polygon points="766.8,190.0 758.8,193.2 758.8,186.8" fill="#20d0b8" opacity="0.55"></polygon>
<line x1="766.8" y1="186.5" x2="788.7" y2="186.5" stroke="#f28e2b" stroke-width="1.0" opacity="0.55"></line>
<line x1="766.8" y1="193.5" x2="788.7" y2="193.5" stroke="#f28e2b" stroke-width="1.0" opacity="0.55"></line>
<polygon points="797.7,190.0 787.7,194.0 787.7,186.0" fill="#f28e2b" opacity="0.55"></polygon>
<line x1="797.7" y1="190.0" x2="820.7" y2="190.0" stroke="#20d0b8" stroke-width="1.3" opacity="0.55"></line>
<polygon points="828.7,190.0 820.7,193.2 820.7,186.8" fill="#20d0b8" opacity="0.55"></polygon>
<line x1="828.7" y1="186.5" x2="850.7" y2="186.5" stroke="#f28e2b" stroke-width="1.0" opacity="0.55"></line>
<line x1="828.7" y1="193.5" x2="850.7" y2="193.5" stroke="#f28e2b" stroke-width="1.0" opacity="0.55"></line>
<polygon points="859.7,190.0 849.7,194.0 849.7,186.0" fill="#f28e2b" opacity="0.55"></polygon>
<line x1="859.7" y1="190.0" x2="882.6" y2="190.0" stroke="#20d0b8" stroke-width="1.3" opacity="0.55"></line>
<polygon points="890.6,190.0 882.6,193.2 882.6,186.8" fill="#20d0b8" opacity="0.55"></polygon>
<line x1="890.6" y1="186.5" x2="912.6" y2="186.5" stroke="#f28e2b" stroke-width="1.0" opacity="0.55"></line>
<line x1="890.6" y1="193.5" x2="912.6" y2="193.5" stroke="#f28e2b" stroke-width="1.0" opacity="0.55"></line>
<polygon points="921.6,190.0 911.6,194.0 911.6,186.0" fill="#f28e2b" opacity="0.55"></polygon>
<line x1="921.6" y1="190.0" x2="944.6" y2="190.0" stroke="#20d0b8" stroke-width="1.3" opacity="0.55"></line>
<polygon points="952.6,190.0 944.6,193.2 944.6,186.8" fill="#20d0b8" opacity="0.55"></polygon>
<line x1="952.6" y1="190.0" x2="986.6" y2="190.0" stroke="#59a14f" stroke-width="1.3" opacity="0.55"></line>
<line x1="986.6" y1="190.0" x2="986.6" y2="330.0" stroke="#59a14f" stroke-width="1.3" opacity="0.55"></line>
<line x1="986.6" y1="330.0" x2="991.5" y2="330.0" stroke="#59a14f" stroke-width="1.3" opacity="0.55"></line>
<polygon points="983.5,330.0 991.5,326.8 991.5,333.2" fill="#59a14f" opacity="0.55"></polygon>
<line x1="209.4" y1="330.0" x2="235.4" y2="330.0" stroke="#2b6b9f" stroke-width="1.4" opacity="0.55"></line>
<line x1="235.4" y1="330.0" x2="235.4" y2="470.0" stroke="#2b6b9f" stroke-width="1.4" opacity="0.55"></line>
<line x1="235.4" y1="470.0" x2="237.5" y2="470.0" stroke="#2b6b9f" stroke-width="1.4" opacity="0.55"></line>
<polygon points="245.5,470.0 237.5,473.2 237.5,466.8" fill="#2b6b9f" opacity="0.55"></polygon>
<line x1="245.5" y1="470.0" x2="268.5" y2="470.0" stroke="#ff6688" stroke-width="1.3" opacity="0.55"></line>
<polygon points="276.5,470.0 268.5,473.2 268.5,466.8" fill="#ff6688" opacity="0.55"></polygon>
<line x1="276.5" y1="470.0" x2="299.4" y2="470.0" stroke="#e15759" stroke-width="1.3" opacity="0.55"></line>
<polygon points="307.4,470.0 299.4,473.2 299.4,466.8" fill="#e15759" opacity="0.55"></polygon>
<line x1="307.4" y1="470.0" x2="358.4" y2="470.0" stroke="#e15759" stroke-width="1.3" opacity="0.55"></line>
<line x1="358.4" y1="470.0" x2="358.4" y2="330.0" stroke="#e15759" stroke-width="1.3" opacity="0.55"></line>
<line x1="358.4" y1="330.0" x2="975.5" y2="330.0" stroke="#e15759" stroke-width="1.3" opacity="0.55"></line>
<polygon points="983.5,330.0 975.5,333.2 975.5,326.8" fill="#e15759" opacity="0.55"></polygon>
<line x1="85.5" y1="330.0" x2="108.5" y2="330.0" stroke="#6baed6" stroke-width="1.3" opacity="0.75"></line>
<polygon points="116.5,330.0 108.5,333.2 108.5,326.8" fill="#6baed6" opacity="0.75"></polygon>
<rect x="99.0" y="318.0" width="4.0" height="10" fill="#0a0a15" opacity="0.7" rx="3"></rect>
<text x="101.0" y="326.0" fill="#20b888" font-size="6" text-anchor="middle" font-family="monospace">↑</text>
<line x1="116.5" y1="330.0" x2="139.4" y2="330.0" stroke="#ffd700" stroke-width="1.3" opacity="0.75"></line>
<polygon points="147.4,330.0 139.4,333.2 139.4,326.8" fill="#ffd700" opacity="0.75"></polygon>
<line x1="147.4" y1="330.0" x2="170.4" y2="330.0" stroke="#cc3344" stroke-width="1.3" opacity="0.75"></line>
<polygon points="178.4,330.0 170.4,333.2 170.4,326.8" fill="#cc3344" opacity="0.75"></polygon>
<line x1="178.4" y1="330.0" x2="201.4" y2="330.0" stroke="#cc3344" stroke-width="1.3" opacity="0.75"></line>
<polygon points="209.4,330.0 201.4,333.2 201.4,326.8" fill="#cc3344" opacity="0.75"></polygon>
<line x1="983.5" y1="330.0" x2="1006.5" y2="330.0" stroke="#ffd700" stroke-width="1.3" opacity="0.55"></line>
<polygon points="1014.5,330.0 1006.5,333.2 1006.5,326.8" fill="#ffd700" opacity="0.55"></polygon>
<circle cx="85.5" cy="330.0" r="22.0" fill="#4e79a7" stroke="#ffffff20" stroke-width="1.0"></circle>
<text x="85.5" y="300.0" fill="#cccccc" font-size="8" text-anchor="middle" font-family="monospace" font-weight="bold">VI</text>
<text x="85.5" y="364.0" fill="#888" font-size="5.5" text-anchor="middle" font-family="monospace">VINIT</text>
<circle cx="108.5" cy="330.0" r="2.5" fill="#ffffff90" stroke-width="0"></circle>
<circle cx="116.5" cy="330.0" r="22.0" fill="#4e79a7" stroke="#ffffff20" stroke-width="1.0"></circle>
<circle cx="116.5" cy="330.0" r="12.1" fill="#153530" stroke-width="0"></circle>
<text x="116.5" y="332.0" fill="#20b2aa" font-size="7" text-anchor="middle" font-family="monospace" font-weight="bold">↑</text>
<text x="116.5" y="300.0" fill="#cccccc" font-size="8" text-anchor="middle" font-family="monospace" font-weight="bold">IM</text>
<text x="116.5" y="364.0" fill="#888" font-size="5.5" text-anchor="middle" font-family="monospace">IMSCRIB</text>
<circle cx="93.5" cy="330.0" r="2.5" fill="#ffffff60" stroke-width="0"></circle>
<circle cx="139.5" cy="330.0" r="2.5" fill="#ffffff90" stroke-width="0"></circle>
<rect x="125.4" y="308.0" width="44.0" height="44.0" fill="#59a14f" stroke="#ffffff20" stroke-width="1.0"></rect>
<circle cx="147.4" cy="330.0" r="12.1" fill="#153530" stroke-width="0"></circle>
<text x="147.4" y="332.0" fill="#20b2aa" font-size="7" text-anchor="middle" font-family="monospace" font-weight="bold">↑</text>
<text x="147.4" y="300.0" fill="#cccccc" font-size="8" text-anchor="middle" font-family="monospace" font-weight="bold">IX</text>
<text x="147.4" y="364.0" fill="#888" font-size="5.5" text-anchor="middle" font-family="monospace">IFIX</text>
<circle cx="124.4" cy="330.0" r="2.5" fill="#ffffff60" stroke-width="0"></circle>
<circle cx="170.4" cy="330.0" r="2.5" fill="#ffffff90" stroke-width="0"></circle>
<rect x="156.4" y="308.0" width="44.0" height="44.0" fill="#59a14f" stroke="#ffffff20" stroke-width="1.0"></rect>
<circle cx="178.4" cy="330.0" r="12.1" fill="#153530" stroke-width="0"></circle>
<text x="178.4" y="332.0" fill="#20b2aa" font-size="7" text-anchor="middle" font-family="monospace" font-weight="bold">↑</text>
<text x="178.4" y="300.0" fill="#cccccc" font-size="8" text-anchor="middle" font-family="monospace" font-weight="bold">IX</text>
<text x="178.4" y="364.0" fill="#888" font-size="5.5" text-anchor="middle" font-family="monospace">IFIX</text>
<circle cx="155.4" cy="330.0" r="2.5" fill="#ffffff60" stroke-width="0"></circle>
<circle cx="201.4" cy="330.0" r="2.5" fill="#ffffff90" stroke-width="0"></circle>
<polygon points="209.35483870967744,308.0 231.4,330 209.35483870967744,352.0 187.4,330" fill="#ffd700" stroke="#ffffff20" stroke-width="1.0"></polygon>
<circle cx="209.4" cy="330.0" r="12.1" fill="#153530" stroke-width="0"></circle>
<text x="209.4" y="332.0" fill="#20b2aa" font-size="7" text-anchor="middle" font-family="monospace" font-weight="bold">↑</text>
<text x="209.4" y="300.0" fill="#cccccc" font-size="8" text-anchor="middle" font-family="monospace" font-weight="bold">FS</text>
<text x="209.4" y="364.0" fill="#888" font-size="5.5" text-anchor="middle" font-family="monospace">FSPLIT</text>
<circle cx="186.4" cy="330.0" r="2.5" fill="#ffffff60" stroke-width="0"></circle>
<circle cx="232.4" cy="323.0" r="2.5" fill="#ffffff90" stroke-width="0"></circle>
<circle cx="232.4" cy="337.0" r="2.5" fill="#ffffff90" stroke-width="0"></circle>
<rect x="213.2" y="168.0" width="44.0" height="44.0" fill="#59a14f" stroke="#ffffff20" stroke-width="1.0"></rect>
<circle cx="235.2" cy="190.0" r="12.1" fill="#153530" stroke-width="0"></circle>
<text x="235.2" y="192.0" fill="#20b2aa" font-size="7" text-anchor="middle" font-family="monospace" font-weight="bold">↑</text>
<text x="235.2" y="160.0" fill="#cccccc" font-size="8" text-anchor="middle" font-family="monospace" font-weight="bold">IX</text>
<text x="235.2" y="224.0" fill="#888" font-size="5.5" text-anchor="middle" font-family="monospace">IFIX</text>
<circle cx="212.2" cy="190.0" r="2.5" fill="#ffffff60" stroke-width="0"></circle>
<circle cx="258.2" cy="190.0" r="2.5" fill="#ffffff90" stroke-width="0"></circle>
<circle cx="266.1" cy="190.0" r="22.0" fill="#4e79a7" stroke="#ffffff20" stroke-width="1.0"></circle>
<circle cx="266.1" cy="190.0" r="12.1" fill="#153530" stroke-width="0"></circle>
<text x="266.1" y="192.0" fill="#20b2aa" font-size="7" text-anchor="middle" font-family="monospace" font-weight="bold">↑</text>
<text x="266.1" y="160.0" fill="#cccccc" font-size="8" text-anchor="middle" font-family="monospace" font-weight="bold">CL</text>
<text x="266.1" y="224.0" fill="#888" font-size="5.5" text-anchor="middle" font-family="monospace">CLINK</text>
<circle cx="243.1" cy="190.0" r="2.5" fill="#ffffff60" stroke-width="0"></circle>
<circle cx="289.1" cy="190.0" r="2.5" fill="#ffffff90" stroke-width="0"></circle>
<polygon points="316.1,201.0 297.1,212.0 278.0,201.0 278.0,179.0 297.1,168.0 316.1,179.0" fill="#e15759" stroke="#ffffff20" stroke-width="1.0"></polygon>
<circle cx="297.1" cy="190.0" r="12.1" fill="#153530" stroke-width="0"></circle>
<text x="297.1" y="192.0" fill="#20b2aa" font-size="7" text-anchor="middle" font-family="monospace" font-weight="bold">↑</text>
<text x="297.1" y="160.0" fill="#cccccc" font-size="8" text-anchor="middle" font-family="monospace" font-weight="bold">ET</text>
<text x="297.1" y="224.0" fill="#888" font-size="5.5" text-anchor="middle" font-family="monospace">EVALT</text>
<circle cx="274.1" cy="190.0" r="3.5" fill="#f28e2b" stroke-width="0.8"></circle>
<circle cx="320.1" cy="190.0" r="3.5" fill="#59a14f" stroke-width="0.9"></circle>
<circle cx="333.2" cy="190.0" r="22.0" fill="#4e79a7" stroke="#ffffff20" stroke-width="1.0"></circle>
<circle cx="333.2" cy="190.0" r="12.1" fill="#153530" stroke-width="0"></circle>
<text x="333.2" y="192.0" fill="#20b2aa" font-size="7" text-anchor="middle" font-family="monospace" font-weight="bold">↑</text>
<text x="333.2" y="160.0" fill="#cccccc" font-size="8" text-anchor="middle" font-family="monospace" font-weight="bold">CL</text>
<text x="333.2" y="224.0" fill="#888" font-size="5.5" text-anchor="middle" font-family="monospace">CLINK</text>
<circle cx="310.2" cy="190.0" r="2.5" fill="#ffffff60" stroke-width="0"></circle>
<circle cx="356.2" cy="190.0" r="2.5" fill="#ffffff90" stroke-width="0"></circle>
<polygon points="383.2,201.0 364.2,212.0 345.1,201.0 345.1,179.0 364.2,168.0 383.2,179.0" fill="#e15759" stroke="#ffffff20" stroke-width="1.0"></polygon>
<circle cx="364.2" cy="190.0" r="12.1" fill="#153530" stroke-width="0"></circle>
<text x="364.2" y="192.0" fill="#20b2aa" font-size="7" text-anchor="middle" font-family="monospace" font-weight="bold">↑</text>
<text x="364.2" y="160.0" fill="#cccccc" font-size="8" text-anchor="middle" font-family="monospace" font-weight="bold">ET</text>
<text x="364.2" y="224.0" fill="#888" font-size="5.5" text-anchor="middle" font-family="monospace">EVALT</text>
<circle cx="341.2" cy="190.0" r="3.5" fill="#f28e2b" stroke-width="0.8"></circle>
<circle cx="387.2" cy="190.0" r="3.5" fill="#59a14f" stroke-width="0.9"></circle>
<circle cx="395.2" cy="190.0" r="22.0" fill="#4e79a7" stroke="#ffffff20" stroke-width="1.0"></circle>
<circle cx="395.2" cy="190.0" r="12.1" fill="#153530" stroke-width="0"></circle>
<text x="395.2" y="192.0" fill="#20b2aa" font-size="7" text-anchor="middle" font-family="monospace" font-weight="bold">↑</text>
<text x="395.2" y="160.0" fill="#cccccc" font-size="8" text-anchor="middle" font-family="monospace" font-weight="bold">CL</text>
<text x="395.2" y="224.0" fill="#888" font-size="5.5" text-anchor="middle" font-family="monospace">CLINK</text>
<circle cx="372.2" cy="190.0" r="2.5" fill="#ffffff60" stroke-width="0"></circle>
<circle cx="418.2" cy="190.0" r="2.5" fill="#ffffff90" stroke-width="0"></circle>
<polygon points="445.2,201.0 426.1,212.0 407.1,201.0 407.1,179.0 426.1,168.0 445.2,179.0" fill="#e15759" stroke="#ffffff20" stroke-width="1.0"></polygon>
<circle cx="426.1" cy="190.0" r="12.1" fill="#153530" stroke-width="0"></circle>
<text x="426.1" y="192.0" fill="#20b2aa" font-size="7" text-anchor="middle" font-family="monospace" font-weight="bold">↑</text>
<text x="426.1" y="160.0" fill="#cccccc" font-size="8" text-anchor="middle" font-family="monospace" font-weight="bold">ET</text>
<text x="426.1" y="224.0" fill="#888" font-size="5.5" text-anchor="middle" font-family="monospace">EVALT</text>
<circle cx="403.1" cy="190.0" r="3.5" fill="#f28e2b" stroke-width="0.8"></circle>
<circle cx="449.1" cy="190.0" r="3.5" fill="#59a14f" stroke-width="0.9"></circle>
<circle cx="457.1" cy="190.0" r="22.0" fill="#4e79a7" stroke="#ffffff20" stroke-width="1.0"></circle>
<circle cx="457.1" cy="190.0" r="12.1" fill="#153530" stroke-width="0"></circle>
<text x="457.1" y="192.0" fill="#20b2aa" font-size="7" text-anchor="middle" font-family="monospace" font-weight="bold">↑</text>
<text x="457.1" y="160.0" fill="#cccccc" font-size="8" text-anchor="middle" font-family="monospace" font-weight="bold">CL</text>
<text x="457.1" y="224.0" fill="#888" font-size="5.5" text-anchor="middle" font-family="monospace">CLINK</text>
<circle cx="434.1" cy="190.0" r="2.5" fill="#ffffff60" stroke-width="0"></circle>
<circle cx="480.1" cy="190.0" r="2.5" fill="#ffffff90" stroke-width="0"></circle>
<polygon points="507.1,201.0 488.1,212.0 469.0,201.0 469.0,179.0 488.1,168.0 507.1,179.0" fill="#e15759" stroke="#ffffff20" stroke-width="1.0"></polygon>
<circle cx="488.1" cy="190.0" r="12.1" fill="#153530" stroke-width="0"></circle>
<text x="488.1" y="192.0" fill="#20b2aa" font-size="7" text-anchor="middle" font-family="monospace" font-weight="bold">↑</text>
<text x="488.1" y="160.0" fill="#cccccc" font-size="8" text-anchor="middle" font-family="monospace" font-weight="bold">ET</text>
<text x="488.1" y="224.0" fill="#888" font-size="5.5" text-anchor="middle" font-family="monospace">EVALT</text>
<circle cx="465.1" cy="190.0" r="3.5" fill="#f28e2b" stroke-width="0.8"></circle>
<circle cx="511.1" cy="190.0" r="3.5" fill="#59a14f" stroke-width="0.9"></circle>
<circle cx="519.0" cy="190.0" r="22.0" fill="#4e79a7" stroke="#ffffff20" stroke-width="1.0"></circle>
<circle cx="519.0" cy="190.0" r="12.1" fill="#153530" stroke-width="0"></circle>
<text x="519.0" y="192.0" fill="#20b2aa" font-size="7" text-anchor="middle" font-family="monospace" font-weight="bold">↑</text>
<text x="519.0" y="160.0" fill="#cccccc" font-size="8" text-anchor="middle" font-family="monospace" font-weight="bold">CL</text>
<text x="519.0" y="224.0" fill="#888" font-size="5.5" text-anchor="middle" font-family="monospace">CLINK</text>
<circle cx="496.0" cy="190.0" r="2.5" fill="#ffffff60" stroke-width="0"></circle>
<circle cx="542.0" cy="190.0" r="2.5" fill="#ffffff90" stroke-width="0"></circle>
<polygon points="569.1,201.0 550.0,212.0 530.9,201.0 530.9,179.0 550.0,168.0 569.1,179.0" fill="#e15759" stroke="#ffffff20" stroke-width="1.0"></polygon>
<circle cx="550.0" cy="190.0" r="12.1" fill="#153530" stroke-width="0"></circle>
<text x="550.0" y="192.0" fill="#20b2aa" font-size="7" text-anchor="middle" font-family="monospace" font-weight="bold">↑</text>
<text x="550.0" y="160.0" fill="#cccccc" font-size="8" text-anchor="middle" font-family="monospace" font-weight="bold">ET</text>
<text x="550.0" y="224.0" fill="#888" font-size="5.5" text-anchor="middle" font-family="monospace">EVALT</text>
<circle cx="527.0" cy="190.0" r="3.5" fill="#f28e2b" stroke-width="0.8"></circle>
<circle cx="573.0" cy="190.0" r="3.5" fill="#59a14f" stroke-width="0.9"></circle>
<circle cx="581.0" cy="190.0" r="22.0" fill="#4e79a7" stroke="#ffffff20" stroke-width="1.0"></circle>
<circle cx="581.0" cy="190.0" r="12.1" fill="#153530" stroke-width="0"></circle>
<text x="581.0" y="192.0" fill="#20b2aa" font-size="7" text-anchor="middle" font-family="monospace" font-weight="bold">↑</text>
<text x="581.0" y="160.0" fill="#cccccc" font-size="8" text-anchor="middle" font-family="monospace" font-weight="bold">CL</text>
<text x="581.0" y="224.0" fill="#888" font-size="5.5" text-anchor="middle" font-family="monospace">CLINK</text>
<circle cx="558.0" cy="190.0" r="2.5" fill="#ffffff60" stroke-width="0"></circle>
<circle cx="604.0" cy="190.0" r="2.5" fill="#ffffff90" stroke-width="0"></circle>
<polygon points="631.0,201.0 611.9,212.0 592.9,201.0 592.9,179.0 611.9,168.0 631.0,179.0" fill="#e15759" stroke="#ffffff20" stroke-width="1.0"></polygon>
<circle cx="611.9" cy="190.0" r="12.1" fill="#153530" stroke-width="0"></circle>
<text x="611.9" y="192.0" fill="#20b2aa" font-size="7" text-anchor="middle" font-family="monospace" font-weight="bold">↑</text>
<text x="611.9" y="160.0" fill="#cccccc" font-size="8" text-anchor="middle" font-family="monospace" font-weight="bold">ET</text>
<text x="611.9" y="224.0" fill="#888" font-size="5.5" text-anchor="middle" font-family="monospace">EVALT</text>
<circle cx="588.9" cy="190.0" r="3.5" fill="#f28e2b" stroke-width="0.8"></circle>
<circle cx="634.9" cy="190.0" r="3.5" fill="#59a14f" stroke-width="0.9"></circle>
<circle cx="642.9" cy="190.0" r="22.0" fill="#4e79a7" stroke="#ffffff20" stroke-width="1.0"></circle>
<circle cx="642.9" cy="190.0" r="12.1" fill="#153530" stroke-width="0"></circle>
<text x="642.9" y="192.0" fill="#20b2aa" font-size="7" text-anchor="middle" font-family="monospace" font-weight="bold">↑</text>
<text x="642.9" y="160.0" fill="#cccccc" font-size="8" text-anchor="middle" font-family="monospace" font-weight="bold">CL</text>
<text x="642.9" y="224.0" fill="#888" font-size="5.5" text-anchor="middle" font-family="monospace">CLINK</text>
<circle cx="619.9" cy="190.0" r="2.5" fill="#ffffff60" stroke-width="0"></circle>
<circle cx="665.9" cy="190.0" r="2.5" fill="#ffffff90" stroke-width="0"></circle>
<polygon points="692.9,201.0 673.9,212.0 654.8,201.0 654.8,179.0 673.9,168.0 692.9,179.0" fill="#e15759" stroke="#ffffff20" stroke-width="1.0"></polygon>
<circle cx="673.9" cy="190.0" r="12.1" fill="#153530" stroke-width="0"></circle>
<text x="673.9" y="192.0" fill="#20b2aa" font-size="7" text-anchor="middle" font-family="monospace" font-weight="bold">↑</text>
<text x="673.9" y="160.0" fill="#cccccc" font-size="8" text-anchor="middle" font-family="monospace" font-weight="bold">ET</text>
<text x="673.9" y="224.0" fill="#888" font-size="5.5" text-anchor="middle" font-family="monospace">EVALT</text>
<circle cx="650.9" cy="190.0" r="3.5" fill="#f28e2b" stroke-width="0.8"></circle>
<circle cx="696.9" cy="190.0" r="3.5" fill="#59a14f" stroke-width="0.9"></circle>
<circle cx="704.8" cy="190.0" r="22.0" fill="#4e79a7" stroke="#ffffff20" stroke-width="1.0"></circle>
<circle cx="704.8" cy="190.0" r="12.1" fill="#153530" stroke-width="0"></circle>
<text x="704.8" y="192.0" fill="#20b2aa" font-size="7" text-anchor="middle" font-family="monospace" font-weight="bold">↑</text>
<text x="704.8" y="160.0" fill="#cccccc" font-size="8" text-anchor="middle" font-family="monospace" font-weight="bold">CL</text>
<text x="704.8" y="224.0" fill="#888" font-size="5.5" text-anchor="middle" font-family="monospace">CLINK</text>
<circle cx="681.8" cy="190.0" r="2.5" fill="#ffffff60" stroke-width="0"></circle>
<circle cx="727.8" cy="190.0" r="2.5" fill="#ffffff90" stroke-width="0"></circle>
<polygon points="754.9,201.0 735.8,212.0 716.8,201.0 716.8,179.0 735.8,168.0 754.9,179.0" fill="#e15759" stroke="#ffffff20" stroke-width="1.0"></polygon>
<circle cx="735.8" cy="190.0" r="12.1" fill="#153530" stroke-width="0"></circle>
<text x="735.8" y="192.0" fill="#20b2aa" font-size="7" text-anchor="middle" font-family="monospace" font-weight="bold">↑</text>
<text x="735.8" y="160.0" fill="#cccccc" font-size="8" text-anchor="middle" font-family="monospace" font-weight="bold">ET</text>
<text x="735.8" y="224.0" fill="#888" font-size="5.5" text-anchor="middle" font-family="monospace">EVALT</text>
<circle cx="712.8" cy="190.0" r="3.5" fill="#f28e2b" stroke-width="0.8"></circle>
<circle cx="758.8" cy="190.0" r="3.5" fill="#59a14f" stroke-width="0.9"></circle>
<circle cx="766.8" cy="190.0" r="22.0" fill="#4e79a7" stroke="#ffffff20" stroke-width="1.0"></circle>
<circle cx="766.8" cy="190.0" r="12.1" fill="#153530" stroke-width="0"></circle>
<text x="766.8" y="192.0" fill="#20b2aa" font-size="7" text-anchor="middle" font-family="monospace" font-weight="bold">↑</text>
<text x="766.8" y="160.0" fill="#cccccc" font-size="8" text-anchor="middle" font-family="monospace" font-weight="bold">CL</text>
<text x="766.8" y="224.0" fill="#888" font-size="5.5" text-anchor="middle" font-family="monospace">CLINK</text>
<circle cx="743.8" cy="190.0" r="2.5" fill="#ffffff60" stroke-width="0"></circle>
<circle cx="789.8" cy="190.0" r="2.5" fill="#ffffff90" stroke-width="0"></circle>
<polygon points="816.8,201.0 797.7,212.0 778.7,201.0 778.7,179.0 797.7,168.0 816.8,179.0" fill="#e15759" stroke="#ffffff20" stroke-width="1.0"></polygon>
<circle cx="797.7" cy="190.0" r="12.1" fill="#153530" stroke-width="0"></circle>
<text x="797.7" y="192.0" fill="#20b2aa" font-size="7" text-anchor="middle" font-family="monospace" font-weight="bold">↑</text>
<text x="797.7" y="160.0" fill="#cccccc" font-size="8" text-anchor="middle" font-family="monospace" font-weight="bold">ET</text>
<text x="797.7" y="224.0" fill="#888" font-size="5.5" text-anchor="middle" font-family="monospace">EVALT</text>
<circle cx="774.7" cy="190.0" r="3.5" fill="#f28e2b" stroke-width="0.8"></circle>
<circle cx="820.7" cy="190.0" r="3.5" fill="#59a14f" stroke-width="0.9"></circle>
<circle cx="828.7" cy="190.0" r="22.0" fill="#4e79a7" stroke="#ffffff20" stroke-width="1.0"></circle>
<circle cx="828.7" cy="190.0" r="12.1" fill="#153530" stroke-width="0"></circle>
<text x="828.7" y="192.0" fill="#20b2aa" font-size="7" text-anchor="middle" font-family="monospace" font-weight="bold">↑</text>
<text x="828.7" y="160.0" fill="#cccccc" font-size="8" text-anchor="middle" font-family="monospace" font-weight="bold">CL</text>
<text x="828.7" y="224.0" fill="#888" font-size="5.5" text-anchor="middle" font-family="monospace">CLINK</text>
<circle cx="805.7" cy="190.0" r="2.5" fill="#ffffff60" stroke-width="0"></circle>
<circle cx="851.7" cy="190.0" r="2.5" fill="#ffffff90" stroke-width="0"></circle>
<polygon points="878.7,201.0 859.7,212.0 840.6,201.0 840.6,179.0 859.7,168.0 878.7,179.0" fill="#e15759" stroke="#ffffff20" stroke-width="1.0"></polygon>
<circle cx="859.7" cy="190.0" r="12.1" fill="#153530" stroke-width="0"></circle>
<text x="859.7" y="192.0" fill="#20b2aa" font-size="7" text-anchor="middle" font-family="monospace" font-weight="bold">↑</text>
<text x="859.7" y="160.0" fill="#cccccc" font-size="8" text-anchor="middle" font-family="monospace" font-weight="bold">ET</text>
<text x="859.7" y="224.0" fill="#888" font-size="5.5" text-anchor="middle" font-family="monospace">EVALT</text>
<circle cx="836.7" cy="190.0" r="3.5" fill="#f28e2b" stroke-width="0.8"></circle>
<circle cx="882.7" cy="190.0" r="3.5" fill="#59a14f" stroke-width="0.9"></circle>
<circle cx="890.6" cy="190.0" r="22.0" fill="#4e79a7" stroke="#ffffff20" stroke-width="1.0"></circle>
<circle cx="890.6" cy="190.0" r="12.1" fill="#153530" stroke-width="0"></circle>
<text x="890.6" y="192.0" fill="#20b2aa" font-size="7" text-anchor="middle" font-family="monospace" font-weight="bold">↑</text>
<text x="890.6" y="160.0" fill="#cccccc" font-size="8" text-anchor="middle" font-family="monospace" font-weight="bold">CL</text>
<text x="890.6" y="224.0" fill="#888" font-size="5.5" text-anchor="middle" font-family="monospace">CLINK</text>
<circle cx="867.6" cy="190.0" r="2.5" fill="#ffffff60" stroke-width="0"></circle>
<circle cx="913.6" cy="190.0" r="2.5" fill="#ffffff90" stroke-width="0"></circle>
<polygon points="940.7,201.0 921.6,212.0 902.6,201.0 902.6,179.0 921.6,168.0 940.7,179.0" fill="#e15759" stroke="#ffffff20" stroke-width="1.0"></polygon>
<circle cx="921.6" cy="190.0" r="12.1" fill="#153530" stroke-width="0"></circle>
<text x="921.6" y="192.0" fill="#20b2aa" font-size="7" text-anchor="middle" font-family="monospace" font-weight="bold">↑</text>
<text x="921.6" y="160.0" fill="#cccccc" font-size="8" text-anchor="middle" font-family="monospace" font-weight="bold">ET</text>
<text x="921.6" y="224.0" fill="#888" font-size="5.5" text-anchor="middle" font-family="monospace">EVALT</text>
<circle cx="898.6" cy="190.0" r="3.5" fill="#f28e2b" stroke-width="0.8"></circle>
<circle cx="944.6" cy="190.0" r="3.5" fill="#59a14f" stroke-width="0.9"></circle>
<circle cx="952.6" cy="190.0" r="22.0" fill="#4e79a7" stroke="#ffffff20" stroke-width="1.0"></circle>
<circle cx="952.6" cy="190.0" r="12.1" fill="#153530" stroke-width="0"></circle>
<text x="952.6" y="192.0" fill="#20b2aa" font-size="7" text-anchor="middle" font-family="monospace" font-weight="bold">↑</text>
<text x="952.6" y="160.0" fill="#cccccc" font-size="8" text-anchor="middle" font-family="monospace" font-weight="bold">AF</text>
<text x="952.6" y="224.0" fill="#888" font-size="5.5" text-anchor="middle" font-family="monospace">AFWD</text>
<circle cx="929.6" cy="190.0" r="2.5" fill="#ffffff60" stroke-width="0"></circle>
<circle cx="975.6" cy="190.0" r="2.5" fill="#ffffff90" stroke-width="0"></circle>
<polygon points="264.5,481.0 245.5,492.0 226.4,481.0 226.4,459.0 245.5,448.0 264.5,459.0" fill="#e15759" stroke="#ffffff20" stroke-width="1.0"></polygon>
<circle cx="245.5" cy="470.0" r="12.1" fill="#153530" stroke-width="0"></circle>
<text x="245.5" y="472.0" fill="#20b2aa" font-size="7" text-anchor="middle" font-family="monospace" font-weight="bold">↑</text>
<text x="245.5" y="440.0" fill="#cccccc" font-size="8" text-anchor="middle" font-family="monospace" font-weight="bold">EF</text>
<text x="245.5" y="504.0" fill="#888" font-size="5.5" text-anchor="middle" font-family="monospace">EVALF</text>
<circle cx="222.5" cy="470.0" r="3.5" fill="#f28e2b" stroke-width="0.8"></circle>
<circle cx="268.5" cy="470.0" r="3.5" fill="#59a14f" stroke-width="0.9"></circle>
<polygon points="295.5,481.0 276.5,492.0 257.4,481.0 257.4,459.0 276.5,448.0 295.5,459.0" fill="#e15759" stroke="#ffffff20" stroke-width="1.0"></polygon>
<circle cx="276.5" cy="470.0" r="12.1" fill="#153530" stroke-width="0"></circle>
<text x="276.5" y="472.0" fill="#20b2aa" font-size="7" text-anchor="middle" font-family="monospace" font-weight="bold">↑</text>
<text x="276.5" y="440.0" fill="#cccccc" font-size="8" text-anchor="middle" font-family="monospace" font-weight="bold">EG</text>
<text x="276.5" y="504.0" fill="#888" font-size="5.5" text-anchor="middle" font-family="monospace">ENGAGR</text>
<circle cx="253.5" cy="470.0" r="2.5" fill="#ffffff60" stroke-width="0"></circle>
<circle cx="299.5" cy="470.0" r="2.5" fill="#ffffff90" stroke-width="0"></circle>
<circle cx="307.4" cy="470.0" r="22.0" fill="#4e79a7" stroke="#ffffff20" stroke-width="1.0"></circle>
<circle cx="307.4" cy="470.0" r="12.1" fill="#153530" stroke-width="0"></circle>
<text x="307.4" y="472.0" fill="#20b2aa" font-size="7" text-anchor="middle" font-family="monospace" font-weight="bold">↑</text>
<text x="307.4" y="440.0" fill="#cccccc" font-size="8" text-anchor="middle" font-family="monospace" font-weight="bold">AR</text>
<text x="307.4" y="504.0" fill="#888" font-size="5.5" text-anchor="middle" font-family="monospace">AREV</text>
<circle cx="284.4" cy="470.0" r="2.5" fill="#ffffff60" stroke-width="0"></circle>
<circle cx="330.4" cy="470.0" r="2.5" fill="#ffffff90" stroke-width="0"></circle>
<polygon points="983.5483870967743,308.0 1005.5,330 983.5483870967743,352.0 961.5,330" fill="#ffd700" stroke="#ffffff20" stroke-width="1.0"></polygon>
<circle cx="983.5" cy="330.0" r="12.1" fill="#153530" stroke-width="0"></circle>
<text x="983.5" y="332.0" fill="#20b2aa" font-size="7" text-anchor="middle" font-family="monospace" font-weight="bold">↑</text>
<text x="983.5" y="300.0" fill="#cccccc" font-size="8" text-anchor="middle" font-family="monospace" font-weight="bold">FF</text>
<text x="983.5" y="364.0" fill="#888" font-size="5.5" text-anchor="middle" font-family="monospace">FFUSE</text>
<circle cx="960.5" cy="323.0" r="2.5" fill="#ffffff60" stroke-width="0"></circle>
<circle cx="960.5" cy="337.0" r="2.5" fill="#ffffff60" stroke-width="0"></circle>
<circle cx="1006.5" cy="330.0" r="2.5" fill="#ffffff90" stroke-width="0"></circle>
<circle cx="1014.5" cy="330.0" r="22.0" fill="#4e79a7" stroke="#ffffff20" stroke-width="1.0"></circle>
<circle cx="1014.5" cy="330.0" r="12.1" fill="#153530" stroke-width="0"></circle>
<text x="1014.5" y="332.0" fill="#20b2aa" font-size="7" text-anchor="middle" font-family="monospace" font-weight="bold">↑</text>
<text x="1014.5" y="300.0" fill="#cccccc" font-size="8" text-anchor="middle" font-family="monospace" font-weight="bold">TA</text>
<text x="1014.5" y="364.0" fill="#888" font-size="5.5" text-anchor="middle" font-family="monospace">TANCH</text>
<circle cx="991.5" cy="330.0" r="2.5" fill="#ffffff60" stroke-width="0"></circle>
<circle cx="1037.5" cy="330.0" r="2.5" fill="#ffffff90" stroke-width="0"></circle>
<path d="M1014.5,330.0 Q550.0,275.0 85.5,330.0" fill="none" stroke="#9988cc" stroke-width="1.5" opacity="0.5"></path>
<polygon points="85.5,330.0 77.1,327.0 78.0,334.9" fill="#9988cc" opacity="0.5"></polygon>
<text x="550.0" y="260.0" fill="#9988cc" font-size="8" text-anchor="middle" font-family="serif">O₁</text>
<text x="550.0" y="621.0" fill="#9988aa" font-size="7" text-anchor="middle" font-family="serif">Ouroboricity: O₁</text>
<text x="70.0" y="52.0" fill="#666" font-size="6" text-anchor="start" font-family="monospace" font-weight="bold">NODES</text>
<circle cx="110.0" cy="59.0" r="4.5" fill="#4e79a7" stroke-width="0"></circle>
<text x="120.0" y="62.0" fill="#4e79a7" font-size="5" text-anchor="start" font-family="monospace">LOGI</text>
<polygon points="158,54.5 162.5,59 158,63.5 153.5,59" fill="#ffd700" stroke="#ffffff20" stroke-width="1.0"></polygon>
<text x="168.0" y="62.0" fill="#ffd700" font-size="5" text-anchor="start" font-family="monospace">FROB</text>
<polygon points="209.9,61.2 206.0,63.5 202.1,61.2 202.1,56.8 206.0,54.5 209.9,56.8" fill="#e15759" stroke="#ffffff20" stroke-width="1.0"></polygon>
<text x="216.0" y="62.0" fill="#e15759" font-size="5" text-anchor="start" font-family="monospace">DIAL</text>
<rect x="249.5" y="54.5" width="9.0" height="9.0" fill="#59a14f" stroke="#ffffff20" stroke-width="1.0"></rect>
<text x="264.0" y="62.0" fill="#59a14f" font-size="5" text-anchor="start" font-family="monospace">LINE</text>
<text x="312.0" y="52.0" fill="#666" font-size="6" text-anchor="start" font-family="monospace" font-weight="bold">EDGES</text>
<line x1="350.0" y1="59.0" x2="364.0" y2="59.0" stroke="#59a14f" stroke-width="1.5" opacity="0.7"></line>
<text x="368.0" y="62.0" fill="#59a14f" font-size="5" text-anchor="start" font-family="monospace">AFWD</text>
<line x1="402.0" y1="59.0" x2="416.0" y2="59.0" stroke="#e15759" stroke-width="1.5" opacity="0.7"></line>
<text x="420.0" y="62.0" fill="#e15759" font-size="5" text-anchor="start" font-family="monospace">AREV</text>
<line x1="454.0" y1="59.0" x2="468.0" y2="59.0" stroke="#f28e2b" stroke-width="1.5" opacity="0.7"></line>
<text x="472.0" y="62.0" fill="#f28e2b" font-size="5" text-anchor="start" font-family="monospace">CLINK</text>
<line x1="506.0" y1="59.0" x2="520.0" y2="59.0" stroke="#b07aa1" stroke-width="1.5" opacity="0.7" stroke-dasharray="4,3"></line>
<text x="524.0" y="62.0" fill="#b07aa1" font-size="5" text-anchor="start" font-family="monospace">TANCH</text>
<line x1="558.0" y1="59.0" x2="572.0" y2="59.0" stroke="#ffd700" stroke-width="1.5" opacity="0.7"></line>
<text x="576.0" y="62.0" fill="#ffd700" font-size="5" text-anchor="start" font-family="monospace">IMSC</text>
<line x1="610.0" y1="59.0" x2="624.0" y2="59.0" stroke="#cc3344" stroke-width="1.5" opacity="0.7"></line>
<text x="628.0" y="62.0" fill="#cc3344" font-size="5" text-anchor="start" font-family="monospace">IFIX</text>
<text x="70.0" y="72.0" fill="#666" font-size="6" text-anchor="start" font-family="monospace" font-weight="bold">GUARD</text>
<circle cx="110.0" cy="79.0" r="3.0" fill="#f28e2b" stroke-width="0.8"></circle>
<text x="117.0" y="82.0" fill="#f28e2b" font-size="5" text-anchor="start" font-family="monospace">approach</text>
<circle cx="162.0" cy="79.0" r="3.0" fill="#59a14f" stroke-width="0.9"></circle>
<text x="169.0" y="82.0" fill="#59a14f" font-size="5" text-anchor="start" font-family="monospace">passed</text>
<text x="214.0" y="72.0" fill="#666" font-size="6" text-anchor="start" font-family="monospace" font-weight="bold">REG Δ</text>
<text x="252.0" y="82.0" fill="#20b888" font-size="5.5" text-anchor="start" font-family="monospace">→↑</text>
<text x="280.0" y="82.0" fill="#ffd700" font-size="5.5" text-anchor="start" font-family="monospace">↓→↑↓</text>
<text x="308.0" y="82.0" fill="#e15759" font-size="5.5" text-anchor="start" font-family="monospace">↑↔↓</text>
<line x1="344.0" y1="79.0" x2="358.0" y2="79.0" stroke="#ffd700" stroke-width="1.5" opacity="0.6" stroke-dasharray="5,3"></line>
<text x="362.0" y="82.0" fill="#ffd700" font-size="5.5" text-anchor="start" font-family="monospace">cross-br.</text>
<line x1="404.0" y1="79.0" x2="418.0" y2="79.0" stroke="#9988cc" stroke-width="1.5" opacity="0.5"></line>
<text x="422.0" y="82.0" fill="#9988cc" font-size="5.5" text-anchor="start" font-family="monospace">loop</text>
</svg>