<svg xmlns="http://www.w3.org/2000/svg" viewBox="0 0 1220 720">
<rect width="1220" height="720" fill="#000000"/>
<defs>
<pattern id="hatch-T" width="4" height="4" patternUnits="userSpaceOnUse"><path d="M2,0 L2,4" stroke="#ffffff" stroke-width="0.8"/></pattern>
<pattern id="hatch-F" width="4" height="4" patternUnits="userSpaceOnUse"><path d="M0,2 L4,2" stroke="#ffffff" stroke-width="0.8"/></pattern>
<pattern id="hatch-B" width="4" height="4" patternUnits="userSpaceOnUse"><path d="M2,0 L2,4 M0,2 L4,2" stroke="#ffffff" stroke-width="0.8"/></pattern>
</defs>
<line x1="0.0" y1="0.0" x2="0.0" y2="720.0" stroke="#333333" stroke-width="0.4" opacity="0.3"></line>
<line x1="40.0" y1="0.0" x2="40.0" y2="720.0" stroke="#333333" stroke-width="0.4" opacity="0.3"></line>
<line x1="80.0" y1="0.0" x2="80.0" y2="720.0" stroke="#333333" stroke-width="0.4" opacity="0.3"></line>
<line x1="120.0" y1="0.0" x2="120.0" y2="720.0" stroke="#333333" stroke-width="0.4" opacity="0.3"></line>
<line x1="160.0" y1="0.0" x2="160.0" y2="720.0" stroke="#333333" stroke-width="0.4" opacity="0.3"></line>
<line x1="200.0" y1="0.0" x2="200.0" y2="720.0" stroke="#333333" stroke-width="0.4" opacity="0.3"></line>
<line x1="240.0" y1="0.0" x2="240.0" y2="720.0" stroke="#333333" stroke-width="0.4" opacity="0.3"></line>
<line x1="280.0" y1="0.0" x2="280.0" y2="720.0" stroke="#333333" stroke-width="0.4" opacity="0.3"></line>
<line x1="320.0" y1="0.0" x2="320.0" y2="720.0" stroke="#333333" stroke-width="0.4" opacity="0.3"></line>
<line x1="360.0" y1="0.0" x2="360.0" y2="720.0" stroke="#333333" stroke-width="0.4" opacity="0.3"></line>
<line x1="400.0" y1="0.0" x2="400.0" y2="720.0" stroke="#333333" stroke-width="0.4" opacity="0.3"></line>
<line x1="440.0" y1="0.0" x2="440.0" y2="720.0" stroke="#333333" stroke-width="0.4" opacity="0.3"></line>
<line x1="480.0" y1="0.0" x2="480.0" y2="720.0" stroke="#333333" stroke-width="0.4" opacity="0.3"></line>
<line x1="520.0" y1="0.0" x2="520.0" y2="720.0" stroke="#333333" stroke-width="0.4" opacity="0.3"></line>
<line x1="560.0" y1="0.0" x2="560.0" y2="720.0" stroke="#333333" stroke-width="0.4" opacity="0.3"></line>
<line x1="600.0" y1="0.0" x2="600.0" y2="720.0" stroke="#333333" stroke-width="0.4" opacity="0.3"></line>
<line x1="640.0" y1="0.0" x2="640.0" y2="720.0" stroke="#333333" stroke-width="0.4" opacity="0.3"></line>
<line x1="680.0" y1="0.0" x2="680.0" y2="720.0" stroke="#333333" stroke-width="0.4" opacity="0.3"></line>
<line x1="720.0" y1="0.0" x2="720.0" y2="720.0" stroke="#333333" stroke-width="0.4" opacity="0.3"></line>
<line x1="760.0" y1="0.0" x2="760.0" y2="720.0" stroke="#333333" stroke-width="0.4" opacity="0.3"></line>
<line x1="800.0" y1="0.0" x2="800.0" y2="720.0" stroke="#333333" stroke-width="0.4" opacity="0.3"></line>
<line x1="840.0" y1="0.0" x2="840.0" y2="720.0" stroke="#333333" stroke-width="0.4" opacity="0.3"></line>
<line x1="880.0" y1="0.0" x2="880.0" y2="720.0" stroke="#333333" stroke-width="0.4" opacity="0.3"></line>
<line x1="920.0" y1="0.0" x2="920.0" y2="720.0" stroke="#333333" stroke-width="0.4" opacity="0.3"></line>
<line x1="960.0" y1="0.0" x2="960.0" y2="720.0" stroke="#333333" stroke-width="0.4" opacity="0.3"></line>
<line x1="1000.0" y1="0.0" x2="1000.0" y2="720.0" stroke="#333333" stroke-width="0.4" opacity="0.3"></line>
<line x1="1040.0" y1="0.0" x2="1040.0" y2="720.0" stroke="#333333" stroke-width="0.4" opacity="0.3"></line>
<line x1="1080.0" y1="0.0" x2="1080.0" y2="720.0" stroke="#333333" stroke-width="0.4" opacity="0.3"></line>
<line x1="1120.0" y1="0.0" x2="1120.0" y2="720.0" stroke="#333333" stroke-width="0.4" opacity="0.3"></line>
<line x1="1160.0" y1="0.0" x2="1160.0" y2="720.0" stroke="#333333" stroke-width="0.4" opacity="0.3"></line>
<line x1="1200.0" y1="0.0" x2="1200.0" y2="720.0" stroke="#333333" stroke-width="0.4" opacity="0.3"></line>
<line x1="0.0" y1="0.0" x2="1220.0" y2="0.0" stroke="#333333" stroke-width="0.4" opacity="0.3"></line>
<line x1="0.0" y1="40.0" x2="1220.0" y2="40.0" stroke="#333333" stroke-width="0.4" opacity="0.3"></line>
<line x1="0.0" y1="80.0" x2="1220.0" y2="80.0" stroke="#333333" stroke-width="0.4" opacity="0.3"></line>
<line x1="0.0" y1="120.0" x2="1220.0" y2="120.0" stroke="#333333" stroke-width="0.4" opacity="0.3"></line>
<line x1="0.0" y1="160.0" x2="1220.0" y2="160.0" stroke="#333333" stroke-width="0.4" opacity="0.3"></line>
<line x1="0.0" y1="200.0" x2="1220.0" y2="200.0" stroke="#333333" stroke-width="0.4" opacity="0.3"></line>
<line x1="0.0" y1="240.0" x2="1220.0" y2="240.0" stroke="#333333" stroke-width="0.4" opacity="0.3"></line>
<line x1="0.0" y1="280.0" x2="1220.0" y2="280.0" stroke="#333333" stroke-width="0.4" opacity="0.3"></line>
<line x1="0.0" y1="320.0" x2="1220.0" y2="320.0" stroke="#333333" stroke-width="0.4" opacity="0.3"></line>
<line x1="0.0" y1="360.0" x2="1220.0" y2="360.0" stroke="#333333" stroke-width="0.4" opacity="0.3"></line>
<line x1="0.0" y1="400.0" x2="1220.0" y2="400.0" stroke="#333333" stroke-width="0.4" opacity="0.3"></line>
<line x1="0.0" y1="440.0" x2="1220.0" y2="440.0" stroke="#333333" stroke-width="0.4" opacity="0.3"></line>
<line x1="0.0" y1="480.0" x2="1220.0" y2="480.0" stroke="#333333" stroke-width="0.4" opacity="0.3"></line>
<line x1="0.0" y1="520.0" x2="1220.0" y2="520.0" stroke="#333333" stroke-width="0.4" opacity="0.3"></line>
<line x1="0.0" y1="560.0" x2="1220.0" y2="560.0" stroke="#333333" stroke-width="0.4" opacity="0.3"></line>
<line x1="0.0" y1="600.0" x2="1220.0" y2="600.0" stroke="#333333" stroke-width="0.4" opacity="0.3"></line>
<line x1="0.0" y1="640.0" x2="1220.0" y2="640.0" stroke="#333333" stroke-width="0.4" opacity="0.3"></line>
<line x1="0.0" y1="680.0" x2="1220.0" y2="680.0" stroke="#333333" stroke-width="0.4" opacity="0.3"></line>
<text x="610.0" y="26.0" fill="#ffffff" font-size="13" text-anchor="middle" font-family="monospace" font-weight="bold">Inverse Galois Theorem</text>
<text x="610.0" y="41.0" fill="#ffffff" font-size="7" text-anchor="middle" font-family="monospace">Auto-designed from: Inverse Galois Theorem</text>
<text x="66.0" y="190.0" fill="#ffffff" font-size="7" text-anchor="start" font-family="monospace">T-lane</text>
<text x="66.0" y="135.0" fill="#ffffff" font-size="7" text-anchor="start" font-family="monospace">T[d1]</text>
<text x="66.0" y="470.0" fill="#ffffff" font-size="7" text-anchor="start" font-family="monospace">F-lane</text>
<text x="66.0" y="525.0" fill="#ffffff" font-size="7" text-anchor="start" font-family="monospace">F[d1]</text>
<text x="66.0" y="330.0" fill="#ffffff" font-size="7" text-anchor="start" font-family="monospace">main</text>
<line x1="527.5" y1="105.0" x2="527.5" y2="555.0" stroke="#ffffff" stroke-width="1.0" opacity="1.0" stroke-dasharray="4,3"></line>
<line x1="532.5" y1="105.0" x2="532.5" y2="555.0" stroke="#ffffff" stroke-width="1.0" opacity="1.0" stroke-dasharray="4,3"></line>
<text x="530.0" y="105.0" fill="#ffffff" font-size="8" text-anchor="middle" font-family="monospace">×</text>
<text x="530.0" y="555.0" fill="#ffffff" font-size="8" text-anchor="middle" font-family="monospace">×</text>
<text x="530.0" y="98.0" fill="#ffffff" font-size="6" text-anchor="middle" font-family="monospace">IFIX</text>
<line x1="290.0" y1="310.0" x2="290.0" y2="292.0" stroke="#ffffff" stroke-width="0.6" opacity="0.8" stroke-dasharray="3,3"></line>
<line x1="290.0" y1="292.0" x2="450.0" y2="292.0" stroke="#ffffff" stroke-width="0.6" opacity="0.8" stroke-dasharray="3,3"></line>
<line x1="450.0" y1="292.0" x2="450.0" y2="310.0" stroke="#ffffff" stroke-width="0.6" opacity="0.8" stroke-dasharray="3,3"></line>
<circle cx="370.0" cy="292.0" r="6" fill="#000000" stroke="#ffffff" stroke-width="0.8"></circle>
<text x="370.0" y="295.0" fill="#ffffff" font-size="7" text-anchor="middle" font-family="monospace">1</text>
<line x1="650.0" y1="310.0" x2="650.0" y2="292.0" stroke="#ffffff" stroke-width="0.6" opacity="0.8" stroke-dasharray="3,3"></line>
<line x1="650.0" y1="292.0" x2="730.0" y2="292.0" stroke="#ffffff" stroke-width="0.6" opacity="0.8" stroke-dasharray="3,3"></line>
<line x1="730.0" y1="292.0" x2="730.0" y2="310.0" stroke="#ffffff" stroke-width="0.6" opacity="0.8" stroke-dasharray="3,3"></line>
<circle cx="690.0" cy="292.0" r="6" fill="#000000" stroke="#ffffff" stroke-width="0.8"></circle>
<text x="690.0" y="295.0" fill="#ffffff" font-size="7" text-anchor="middle" font-family="monospace">2</text>
<line x1="295.4" y1="303.6" x2="324.6" y2="161.4" stroke="#ffffff" stroke-width="1.5" opacity="1.0"></line>
<polygon points="324.6,161.4 326.1,169.9 319.8,168.6" fill="#ffffff"></polygon>
<circle cx="310.0" cy="232.5" r="5" fill="#000000" stroke="#ffffff" stroke-width="0.6"></circle>
<text x="310.0" y="235.5" fill="#ffffff" font-size="7" text-anchor="middle" font-family="monospace">◇</text>
<text x="310.0" y="224.5" fill="#ffffff" font-size="6" text-anchor="middle" font-family="monospace">↑→↑</text>
<line x1="357.0" y1="135.0" x2="343.0" y2="135.0" stroke="#ffffff" stroke-width="1.5" opacity="1.0"></line>
<polygon points="343.0,135.0 351.0,131.8 351.0,138.2" fill="#ffffff"></polygon>
<circle cx="350.0" cy="135.0" r="5" fill="#000000" stroke="#ffffff" stroke-width="0.6"></circle>
<text x="350.0" y="138.0" fill="#ffffff" font-size="7" text-anchor="middle" font-family="monospace">+</text>
<text x="350.0" y="127.0" fill="#ffffff" font-size="6" text-anchor="middle" font-family="monospace">↑→↑↓</text>
<line x1="380.2" y1="160.0" x2="439.8" y2="305.0" stroke="#ffffff" stroke-width="1.5" opacity="1.0" stroke-dasharray="6,4"></line>
<polygon points="439.8,305.0 433.8,298.8 439.7,296.4" fill="#ffffff"></polygon>
<text x="410.0" y="224.5" fill="#ffffff" font-size="6" text-anchor="middle" font-family="monospace">↑↓→↑</text>
<line x1="304.2" y1="353.0" x2="395.8" y2="502.0" stroke="#ffffff" stroke-width="1.5" opacity="1.0"></line>
<polygon points="395.8,502.0 388.9,496.9 394.4,493.5" fill="#ffffff"></polygon>
<circle cx="350.0" cy="427.5" r="5" fill="#000000" stroke="#ffffff" stroke-width="0.6"></circle>
<text x="350.0" y="430.5" fill="#ffffff" font-size="7" text-anchor="middle" font-family="monospace">◇</text>
<text x="350.0" y="419.5" fill="#ffffff" font-size="6" text-anchor="middle" font-family="monospace">↑→↑↓</text>
<line x1="415.4" y1="498.6" x2="444.6" y2="356.4" stroke="#ffffff" stroke-width="1.5" opacity="1.0"></line>
<polygon points="444.6,356.4 446.1,364.9 439.8,363.6" fill="#ffffff"></polygon>
<circle cx="430.0" cy="427.5" r="5" fill="#000000" stroke="#ffffff" stroke-width="0.6"></circle>
<text x="430.0" y="430.5" fill="#ffffff" font-size="7" text-anchor="middle" font-family="monospace">×</text>
<text x="430.0" y="419.5" fill="#ffffff" font-size="6" text-anchor="middle" font-family="monospace">↑↓→↑</text>
<line x1="655.4" y1="303.6" x2="684.6" y2="161.4" stroke="#ffffff" stroke-width="1.5" opacity="1.0"></line>
<polygon points="684.6,161.4 686.1,169.9 679.8,168.6" fill="#ffffff"></polygon>
<circle cx="670.0" cy="232.5" r="5" fill="#000000" stroke="#ffffff" stroke-width="0.6"></circle>
<text x="670.0" y="235.5" fill="#ffffff" font-size="7" text-anchor="middle" font-family="monospace">◇</text>
<text x="670.0" y="224.5" fill="#ffffff" font-size="6" text-anchor="middle" font-family="monospace">↑→↑</text>
<line x1="695.4" y1="161.4" x2="724.6" y2="303.6" stroke="#ffffff" stroke-width="1.5" opacity="1.0"></line>
<polygon points="724.6,303.6 719.8,296.4 726.1,295.1" fill="#ffffff"></polygon>
<circle cx="710.0" cy="232.5" r="5" fill="#000000" stroke="#ffffff" stroke-width="0.6"></circle>
<text x="710.0" y="235.5" fill="#ffffff" font-size="7" text-anchor="middle" font-family="monospace">+</text>
<text x="710.0" y="224.5" fill="#ffffff" font-size="6" text-anchor="middle" font-family="monospace">↑→↑</text>
<line x1="677.0" y1="330.0" x2="703.0" y2="330.0" stroke="#ffffff" stroke-width="1.5" opacity="1.0"></line>
<polygon points="703.0,330.0 695.0,333.2 695.0,326.8" fill="#ffffff"></polygon>
<circle cx="690.0" cy="330.0" r="5" fill="#000000" stroke="#ffffff" stroke-width="0.6"></circle>
<text x="690.0" y="333.0" fill="#ffffff" font-size="7" text-anchor="middle" font-family="monospace">◇</text>
<text x="690.0" y="322.0" fill="#ffffff" font-size="6" text-anchor="middle" font-family="monospace">↑→↑</text>
<line x1="117.0" y1="330.0" x2="103.0" y2="330.0" stroke="#ffffff" stroke-width="2.0" opacity="1.0"></line>
<polyline points="103.0,330.0 111.0,326.8 111.0,333.2" fill="none" stroke="#ffffff" stroke-width="1.0"></polyline>
<line x1="157.0" y1="330.0" x2="143.0" y2="330.0" stroke="#ffffff" stroke-width="2.0" opacity="1.0" stroke-dasharray="5,2,1,2,1,2"></line>
<polyline points="143.0,330.0 151.0,326.8 151.0,333.2" fill="none" stroke="#ffffff" stroke-width="1.0"></polyline>
<text x="150.0" y="322.0" fill="#ffffff" font-size="6" text-anchor="middle" font-family="monospace">↑</text>
<line x1="197.0" y1="330.0" x2="183.0" y2="330.0" stroke="#ffffff" stroke-width="2.5" opacity="1.0"></line>
<polygon points="183.0,330.0 191.0,326.8 191.0,333.2" fill="#ffffff"></polygon>
<text x="190.0" y="322.0" fill="#ffffff" font-size="6" text-anchor="middle" font-family="monospace">↑→</text>
<line x1="237.0" y1="328.4" x2="223.0" y2="328.4" stroke="#ffffff" stroke-width="2.0" opacity="1.0"></line>
<line x1="237.0" y1="331.6" x2="223.0" y2="331.6" stroke="#ffffff" stroke-width="2.0" opacity="1.0"></line>
<polygon points="223.0,330.0 231.0,326.8 231.0,333.2" fill="#ffffff"></polygon>
<text x="230.0" y="322.0" fill="#ffffff" font-size="6" text-anchor="middle" font-family="monospace">↑</text>
<line x1="277.0" y1="330.0" x2="263.0" y2="330.0" stroke="#ffffff" stroke-width="2.0" opacity="1.0"></line>
<polygon points="277.0,330.0 269.0,333.2 269.0,326.8" fill="#ffffff"></polygon>
<circle cx="270.0" cy="330.0" r="5" fill="#000000" stroke="#ffffff" stroke-width="0.6"></circle>
<text x="270.0" y="333.0" fill="#ffffff" font-size="7" text-anchor="middle" font-family="monospace">←</text>
<text x="270.0" y="322.0" fill="#ffffff" font-size="6" text-anchor="middle" font-family="monospace">↑→↑</text>
<polyline points="517.0,326.0 509.0,334.0 503.0,330.0" fill="none" stroke="#ffffff" stroke-width="2.0"></polyline>
<polygon points="503.0,330.0 511.0,326.8 511.0,333.2" fill="#ffffff"></polygon>
<text x="510.0" y="322.0" fill="#ffffff" font-size="6" text-anchor="middle" font-family="monospace">↑→↑</text>
<line x1="557.0" y1="330.0" x2="543.0" y2="330.0" stroke="#ffffff" stroke-width="2.0" opacity="1.0" stroke-dasharray="2,2"></line>
<polygon points="543.0,330.0 551.0,326.8 551.0,333.2" fill="#ffffff"></polygon>
<text x="550.0" y="322.0" fill="#ffffff" font-size="6" text-anchor="middle" font-family="monospace">↑→↑</text>
<line x1="597.0" y1="328.4" x2="583.0" y2="328.4" stroke="#ffffff" stroke-width="2.0" opacity="1.0"></line>
<line x1="597.0" y1="331.6" x2="583.0" y2="331.6" stroke="#ffffff" stroke-width="2.0" opacity="1.0"></line>
<polygon points="583.0,330.0 591.0,326.8 591.0,333.2" fill="#ffffff"></polygon>
<text x="590.0" y="322.0" fill="#ffffff" font-size="6" text-anchor="middle" font-family="monospace">↑→↑</text>
<line x1="637.0" y1="330.0" x2="623.0" y2="330.0" stroke="#ffffff" stroke-width="2.0" opacity="1.0" stroke-dasharray="6,4"></line>
<polygon points="623.0,330.0 631.0,326.8 631.0,333.2" fill="#ffffff"></polygon>
<text x="630.0" y="322.0" fill="#ffffff" font-size="6" text-anchor="middle" font-family="monospace">↑→↑</text>
<line x1="797.0" y1="330.0" x2="783.0" y2="330.0" stroke="#ffffff" stroke-width="2.0" opacity="1.0" stroke-dasharray="2,2"></line>
<polygon points="783.0,330.0 791.0,326.8 791.0,333.2" fill="#ffffff"></polygon>
<text x="790.0" y="322.0" fill="#ffffff" font-size="6" text-anchor="middle" font-family="monospace">↑→↑</text>
<polyline points="837.0,326.0 829.0,334.0 823.0,330.0" fill="none" stroke="#ffffff" stroke-width="2.0"></polyline>
<polygon points="823.0,330.0 831.0,326.8 831.0,333.2" fill="#ffffff"></polygon>
<text x="830.0" y="322.0" fill="#ffffff" font-size="6" text-anchor="middle" font-family="monospace">↑→↑</text>
<line x1="877.0" y1="330.0" x2="863.0" y2="330.0" stroke="#ffffff" stroke-width="2.0" opacity="1.0"></line>
<polygon points="877.0,330.0 869.0,333.2 869.0,326.8" fill="#ffffff"></polygon>
<circle cx="870.0" cy="330.0" r="5" fill="#000000" stroke="#ffffff" stroke-width="0.6"></circle>
<text x="870.0" y="333.0" fill="#ffffff" font-size="7" text-anchor="middle" font-family="monospace">←</text>
<text x="870.0" y="322.0" fill="#ffffff" font-size="6" text-anchor="middle" font-family="monospace">↑→↑</text>
<line x1="917.0" y1="330.0" x2="903.0" y2="330.0" stroke="#ffffff" stroke-width="2.0" opacity="1.0" stroke-dasharray="5,2,1,2,1,2"></line>
<polyline points="903.0,330.0 911.0,326.8 911.0,333.2" fill="none" stroke="#ffffff" stroke-width="1.0"></polyline>
<text x="910.0" y="322.0" fill="#ffffff" font-size="6" text-anchor="middle" font-family="monospace">↑→↑</text>
<line x1="957.0" y1="330.0" x2="943.0" y2="330.0" stroke="#ffffff" stroke-width="2.0" opacity="1.0" stroke-dasharray="6,4"></line>
<polygon points="943.0,330.0 951.0,326.8 951.0,333.2" fill="#ffffff"></polygon>
<text x="950.0" y="322.0" fill="#ffffff" font-size="6" text-anchor="middle" font-family="monospace">↑→↑</text>
<line x1="997.0" y1="328.4" x2="983.0" y2="328.4" stroke="#ffffff" stroke-width="2.0" opacity="1.0"></line>
<line x1="997.0" y1="331.6" x2="983.0" y2="331.6" stroke="#ffffff" stroke-width="2.0" opacity="1.0"></line>
<polygon points="983.0,330.0 991.0,326.8 991.0,333.2" fill="#ffffff"></polygon>
<text x="990.0" y="322.0" fill="#ffffff" font-size="6" text-anchor="middle" font-family="monospace">↑→↑</text>
<line x1="477.0" y1="330.0" x2="463.0" y2="330.0" stroke="#ffffff" stroke-width="1.5" opacity="1.0"></line>
<polygon points="463.0,330.0 471.0,326.8 471.0,333.2" fill="#ffffff"></polygon>
<circle cx="470.0" cy="330.0" r="5" fill="#000000" stroke="#ffffff" stroke-width="0.6"></circle>
<text x="470.0" y="333.0" fill="#ffffff" font-size="7" text-anchor="middle" font-family="monospace">●</text>
<text x="470.0" y="322.0" fill="#ffffff" font-size="6" text-anchor="middle" font-family="monospace">↑→↑</text>
<line x1="757.0" y1="330.0" x2="743.0" y2="330.0" stroke="#ffffff" stroke-width="1.5" opacity="1.0"></line>
<polygon points="743.0,330.0 751.0,326.8 751.0,333.2" fill="#ffffff"></polygon>
<circle cx="750.0" cy="330.0" r="5" fill="#000000" stroke="#ffffff" stroke-width="0.6"></circle>
<text x="750.0" y="333.0" fill="#ffffff" font-size="7" text-anchor="middle" font-family="monospace">●</text>
<text x="750.0" y="322.0" fill="#ffffff" font-size="6" text-anchor="middle" font-family="monospace">↑→↑</text>
<circle fill="none" stroke="#ffffff" stroke-width="1.3" cx="90.0" cy="330.0" r="20.0"></circle>
<circle cx="66.0" cy="330.0" r="2.5" fill="#000000" stroke="#ffffff" stroke-width="0.8"></circle>
<circle cx="114.0" cy="330.0" r="2.5" fill="#ffffff"></circle>
<text x="90.0" y="304.0" fill="#ffffff" font-size="9" text-anchor="middle" font-family="monospace" font-weight="bold">VI</text>
<text x="90.0" y="362.0" fill="#ffffff" font-size="5" text-anchor="middle" font-family="monospace">VINIT</text>
<circle fill="none" stroke="#ffffff" stroke-width="1.3" cx="130.0" cy="330.0" r="20.0"></circle>
<circle cx="106.0" cy="330.0" r="2.5" fill="#000000" stroke="#ffffff" stroke-width="0.8"></circle>
<circle cx="154.0" cy="330.0" r="2.5" fill="#ffffff"></circle>
<text x="130.0" y="304.0" fill="#ffffff" font-size="9" text-anchor="middle" font-family="monospace" font-weight="bold">TA</text>
<text x="130.0" y="362.0" fill="#ffffff" font-size="5" text-anchor="middle" font-family="monospace">TANCH</text>
<circle fill="none" stroke="#ffffff" stroke-width="1.3" cx="170.0" cy="330.0" r="20.0"></circle>
<circle cx="170.0" cy="330.0" r="8" fill="url(#hatch-T)" stroke="#ffffff" stroke-width="0.6"></circle>
<circle cx="146.0" cy="330.0" r="2.5" fill="#000000" stroke="#ffffff" stroke-width="0.8"></circle>
<circle cx="194.0" cy="330.0" r="2.5" fill="#ffffff"></circle>
<text x="170.0" y="304.0" fill="#ffffff" font-size="9" text-anchor="middle" font-family="monospace" font-weight="bold">AF</text>
<text x="170.0" y="362.0" fill="#ffffff" font-size="5" text-anchor="middle" font-family="monospace">AFWD</text>
<circle fill="none" stroke="#ffffff" stroke-width="1.3" cx="210.0" cy="330.0" r="20.0"></circle>
<circle cx="186.0" cy="330.0" r="2.5" fill="#000000" stroke="#ffffff" stroke-width="0.8"></circle>
<circle cx="234.0" cy="330.0" r="2.5" fill="#ffffff"></circle>
<text x="210.0" y="304.0" fill="#ffffff" font-size="9" text-anchor="middle" font-family="monospace" font-weight="bold">CL</text>
<text x="210.0" y="362.0" fill="#ffffff" font-size="5" text-anchor="middle" font-family="monospace">CLINK</text>
<circle fill="none" stroke="#ffffff" stroke-width="1.3" cx="250.0" cy="330.0" r="20.0"></circle>
<circle cx="250.0" cy="330.0" r="8" fill="url(#hatch-T)" stroke="#ffffff" stroke-width="0.6"></circle>
<circle cx="226.0" cy="330.0" r="2.5" fill="#000000" stroke="#ffffff" stroke-width="0.8"></circle>
<circle cx="274.0" cy="330.0" r="2.5" fill="#ffffff"></circle>
<text x="250.0" y="304.0" fill="#ffffff" font-size="9" text-anchor="middle" font-family="monospace" font-weight="bold">IM</text>
<text x="250.0" y="362.0" fill="#ffffff" font-size="5" text-anchor="middle" font-family="monospace">IMSCRIB</text>
<polygon fill="none" stroke="#ffffff" stroke-width="1.3" points="290.0,310.0 310.0,330 290.0,350.0 270.0,330"></polygon>
<circle cx="290.0" cy="330.0" r="8" fill="url(#hatch-T)" stroke="#ffffff" stroke-width="0.6"></circle>
<circle cx="266.0" cy="330.0" r="2.5" fill="#000000" stroke="#ffffff" stroke-width="0.8"></circle>
<circle cx="314.0" cy="330.0" r="2.5" fill="#ffffff"></circle>
<text x="290.0" y="304.0" fill="#ffffff" font-size="9" text-anchor="middle" font-family="monospace" font-weight="bold">FS</text>
<text x="290.0" y="362.0" fill="#ffffff" font-size="5" text-anchor="middle" font-family="monospace">FSPLIT</text>
<polygon fill="none" stroke="#ffffff" stroke-width="1.3" points="347.3,145.0 330.0,155.0 312.7,145.0 312.7,125.0 330.0,115.0 347.3,125.0"></polygon>
<circle cx="330.0" cy="135.0" r="8" fill="url(#hatch-T)" stroke="#ffffff" stroke-width="0.6"></circle>
<circle cx="306.0" cy="135.0" r="2.5" fill="#000000" stroke="#ffffff" stroke-width="0.8"></circle>
<circle cx="354.0" cy="135.0" r="2.5" fill="#ffffff"></circle>
<text x="330.0" y="109.0" fill="#ffffff" font-size="9" text-anchor="middle" font-family="monospace" font-weight="bold">ET</text>
<text x="330.0" y="167.0" fill="#ffffff" font-size="5" text-anchor="middle" font-family="monospace">EVALT</text>
<circle fill="none" stroke="#ffffff" stroke-width="1.3" cx="370.0" cy="135.0" r="20.0"></circle>
<circle cx="370.0" cy="135.0" r="8" fill="url(#hatch-B)" stroke="#ffffff" stroke-width="0.6"></circle>
<circle cx="346.0" cy="135.0" r="2.5" fill="#000000" stroke="#ffffff" stroke-width="0.8"></circle>
<circle cx="394.0" cy="135.0" r="2.5" fill="#ffffff"></circle>
<text x="370.0" y="109.0" fill="#ffffff" font-size="9" text-anchor="middle" font-family="monospace" font-weight="bold">AR</text>
<text x="370.0" y="167.0" fill="#ffffff" font-size="5" text-anchor="middle" font-family="monospace">AREV</text>
<polygon fill="none" stroke="#ffffff" stroke-width="1.3" points="427.3,535.0 410.0,545.0 392.7,535.0 392.7,515.0 410.0,505.0 427.3,515.0"></polygon>
<circle cx="410.0" cy="525.0" r="8" fill="url(#hatch-B)" stroke="#ffffff" stroke-width="0.6"></circle>
<circle cx="386.0" cy="525.0" r="2.5" fill="#000000" stroke="#ffffff" stroke-width="0.8"></circle>
<circle cx="434.0" cy="525.0" r="2.5" fill="#ffffff"></circle>
<text x="410.0" y="499.0" fill="#ffffff" font-size="9" text-anchor="middle" font-family="monospace" font-weight="bold">EF</text>
<text x="410.0" y="557.0" fill="#ffffff" font-size="5" text-anchor="middle" font-family="monospace">EVALF</text>
<polygon fill="none" stroke="#ffffff" stroke-width="1.3" points="450.0,310.0 470.0,330 450.0,350.0 430.0,330"></polygon>
<circle cx="450.0" cy="330.0" r="8" fill="url(#hatch-T)" stroke="#ffffff" stroke-width="0.6"></circle>
<circle cx="426.0" cy="330.0" r="2.5" fill="#000000" stroke="#ffffff" stroke-width="0.8"></circle>
<circle cx="474.0" cy="330.0" r="2.5" fill="#ffffff"></circle>
<text x="450.0" y="304.0" fill="#ffffff" font-size="9" text-anchor="middle" font-family="monospace" font-weight="bold">FF</text>
<text x="450.0" y="362.0" fill="#ffffff" font-size="5" text-anchor="middle" font-family="monospace">FFUSE</text>
<polygon fill="none" stroke="#ffffff" stroke-width="1.3" points="507.3,340.0 490.0,350.0 472.7,340.0 472.7,320.0 490.0,310.0 507.3,320.0"></polygon>
<circle cx="490.0" cy="330.0" r="8" fill="url(#hatch-T)" stroke="#ffffff" stroke-width="0.6"></circle>
<circle cx="466.0" cy="330.0" r="2.5" fill="#000000" stroke="#ffffff" stroke-width="0.8"></circle>
<circle cx="514.0" cy="330.0" r="2.5" fill="#ffffff"></circle>
<text x="490.0" y="304.0" fill="#ffffff" font-size="9" text-anchor="middle" font-family="monospace" font-weight="bold">EG</text>
<text x="490.0" y="362.0" fill="#ffffff" font-size="5" text-anchor="middle" font-family="monospace">ENGAGR</text>
<rect fill="none" stroke="#ffffff" stroke-width="1.3" x="510.0" y="310.0" width="40.0" height="40.0"></rect>
<circle cx="530.0" cy="330.0" r="8" fill="url(#hatch-T)" stroke="#ffffff" stroke-width="0.6"></circle>
<circle cx="506.0" cy="330.0" r="2.5" fill="#000000" stroke="#ffffff" stroke-width="0.8"></circle>
<circle cx="554.0" cy="330.0" r="2.5" fill="#ffffff"></circle>
<text x="530.0" y="304.0" fill="#ffffff" font-size="9" text-anchor="middle" font-family="monospace" font-weight="bold">IX</text>
<text x="530.0" y="362.0" fill="#ffffff" font-size="5" text-anchor="middle" font-family="monospace">IFIX</text>
<circle fill="none" stroke="#ffffff" stroke-width="1.3" cx="570.0" cy="330.0" r="20.0"></circle>
<circle cx="570.0" cy="330.0" r="8" fill="url(#hatch-T)" stroke="#ffffff" stroke-width="0.6"></circle>
<circle cx="546.0" cy="330.0" r="2.5" fill="#000000" stroke="#ffffff" stroke-width="0.8"></circle>
<circle cx="594.0" cy="330.0" r="2.5" fill="#ffffff"></circle>
<text x="570.0" y="304.0" fill="#ffffff" font-size="9" text-anchor="middle" font-family="monospace" font-weight="bold">CL</text>
<text x="570.0" y="362.0" fill="#ffffff" font-size="5" text-anchor="middle" font-family="monospace">CLINK</text>
<circle fill="none" stroke="#ffffff" stroke-width="1.3" cx="610.0" cy="330.0" r="20.0"></circle>
<circle cx="610.0" cy="330.0" r="8" fill="url(#hatch-T)" stroke="#ffffff" stroke-width="0.6"></circle>
<circle cx="586.0" cy="330.0" r="2.5" fill="#000000" stroke="#ffffff" stroke-width="0.8"></circle>
<circle cx="634.0" cy="330.0" r="2.5" fill="#ffffff"></circle>
<text x="610.0" y="304.0" fill="#ffffff" font-size="9" text-anchor="middle" font-family="monospace" font-weight="bold">AR</text>
<text x="610.0" y="362.0" fill="#ffffff" font-size="5" text-anchor="middle" font-family="monospace">AREV</text>
<polygon fill="none" stroke="#ffffff" stroke-width="1.3" points="650.0,310.0 670.0,330 650.0,350.0 630.0,330"></polygon>
<circle cx="650.0" cy="330.0" r="8" fill="url(#hatch-T)" stroke="#ffffff" stroke-width="0.6"></circle>
<circle cx="626.0" cy="330.0" r="2.5" fill="#000000" stroke="#ffffff" stroke-width="0.8"></circle>
<circle cx="674.0" cy="330.0" r="2.5" fill="#ffffff"></circle>
<text x="650.0" y="304.0" fill="#ffffff" font-size="9" text-anchor="middle" font-family="monospace" font-weight="bold">FS</text>
<text x="650.0" y="362.0" fill="#ffffff" font-size="5" text-anchor="middle" font-family="monospace">FSPLIT</text>
<polygon fill="none" stroke="#ffffff" stroke-width="1.3" points="707.3,145.0 690.0,155.0 672.7,145.0 672.7,125.0 690.0,115.0 707.3,125.0"></polygon>
<circle cx="690.0" cy="135.0" r="8" fill="url(#hatch-T)" stroke="#ffffff" stroke-width="0.6"></circle>
<circle cx="666.0" cy="135.0" r="2.5" fill="#000000" stroke="#ffffff" stroke-width="0.8"></circle>
<circle cx="714.0" cy="135.0" r="2.5" fill="#ffffff"></circle>
<text x="690.0" y="109.0" fill="#ffffff" font-size="9" text-anchor="middle" font-family="monospace" font-weight="bold">ET</text>
<text x="690.0" y="167.0" fill="#ffffff" font-size="5" text-anchor="middle" font-family="monospace">EVALT</text>
<polygon fill="none" stroke="#ffffff" stroke-width="1.3" points="730.0,310.0 750.0,330 730.0,350.0 710.0,330"></polygon>
<circle cx="730.0" cy="330.0" r="8" fill="url(#hatch-T)" stroke="#ffffff" stroke-width="0.6"></circle>
<circle cx="706.0" cy="330.0" r="2.5" fill="#000000" stroke="#ffffff" stroke-width="0.8"></circle>
<circle cx="754.0" cy="330.0" r="2.5" fill="#ffffff"></circle>
<text x="730.0" y="304.0" fill="#ffffff" font-size="9" text-anchor="middle" font-family="monospace" font-weight="bold">FF</text>
<text x="730.0" y="362.0" fill="#ffffff" font-size="5" text-anchor="middle" font-family="monospace">FFUSE</text>
<rect fill="none" stroke="#ffffff" stroke-width="1.3" x="750.0" y="310.0" width="40.0" height="40.0"></rect>
<circle cx="770.0" cy="330.0" r="8" fill="url(#hatch-T)" stroke="#ffffff" stroke-width="0.6"></circle>
<circle cx="746.0" cy="330.0" r="2.5" fill="#000000" stroke="#ffffff" stroke-width="0.8"></circle>
<circle cx="794.0" cy="330.0" r="2.5" fill="#ffffff"></circle>
<text x="770.0" y="304.0" fill="#ffffff" font-size="9" text-anchor="middle" font-family="monospace" font-weight="bold">IX</text>
<text x="770.0" y="362.0" fill="#ffffff" font-size="5" text-anchor="middle" font-family="monospace">IFIX</text>
<polygon fill="none" stroke="#ffffff" stroke-width="1.3" points="827.3,340.0 810.0,350.0 792.7,340.0 792.7,320.0 810.0,310.0 827.3,320.0"></polygon>
<circle cx="810.0" cy="330.0" r="8" fill="url(#hatch-T)" stroke="#ffffff" stroke-width="0.6"></circle>
<circle cx="786.0" cy="330.0" r="2.5" fill="#000000" stroke="#ffffff" stroke-width="0.8"></circle>
<circle cx="834.0" cy="330.0" r="2.5" fill="#ffffff"></circle>
<text x="810.0" y="304.0" fill="#ffffff" font-size="9" text-anchor="middle" font-family="monospace" font-weight="bold">EG</text>
<text x="810.0" y="362.0" fill="#ffffff" font-size="5" text-anchor="middle" font-family="monospace">ENGAGR</text>
<circle fill="none" stroke="#ffffff" stroke-width="1.3" cx="850.0" cy="330.0" r="20.0"></circle>
<circle cx="850.0" cy="330.0" r="8" fill="url(#hatch-T)" stroke="#ffffff" stroke-width="0.6"></circle>
<circle cx="826.0" cy="330.0" r="2.5" fill="#000000" stroke="#ffffff" stroke-width="0.8"></circle>
<circle cx="874.0" cy="330.0" r="2.5" fill="#ffffff"></circle>
<text x="850.0" y="304.0" fill="#ffffff" font-size="9" text-anchor="middle" font-family="monospace" font-weight="bold">IM</text>
<text x="850.0" y="362.0" fill="#ffffff" font-size="5" text-anchor="middle" font-family="monospace">IMSCRIB</text>
<circle fill="none" stroke="#ffffff" stroke-width="1.3" cx="890.0" cy="330.0" r="20.0"></circle>
<circle cx="890.0" cy="330.0" r="8" fill="url(#hatch-T)" stroke="#ffffff" stroke-width="0.6"></circle>
<circle cx="866.0" cy="330.0" r="2.5" fill="#000000" stroke="#ffffff" stroke-width="0.8"></circle>
<circle cx="914.0" cy="330.0" r="2.5" fill="#ffffff"></circle>
<text x="890.0" y="304.0" fill="#ffffff" font-size="9" text-anchor="middle" font-family="monospace" font-weight="bold">TA</text>
<text x="890.0" y="362.0" fill="#ffffff" font-size="5" text-anchor="middle" font-family="monospace">TANCH</text>
<circle fill="none" stroke="#ffffff" stroke-width="1.3" cx="930.0" cy="330.0" r="20.0"></circle>
<circle cx="930.0" cy="330.0" r="8" fill="url(#hatch-T)" stroke="#ffffff" stroke-width="0.6"></circle>
<circle cx="906.0" cy="330.0" r="2.5" fill="#000000" stroke="#ffffff" stroke-width="0.8"></circle>
<circle cx="954.0" cy="330.0" r="2.5" fill="#ffffff"></circle>
<text x="930.0" y="304.0" fill="#ffffff" font-size="9" text-anchor="middle" font-family="monospace" font-weight="bold">AR</text>
<text x="930.0" y="362.0" fill="#ffffff" font-size="5" text-anchor="middle" font-family="monospace">AREV</text>
<circle fill="none" stroke="#ffffff" stroke-width="1.3" cx="970.0" cy="330.0" r="20.0"></circle>
<circle cx="970.0" cy="330.0" r="8" fill="url(#hatch-T)" stroke="#ffffff" stroke-width="0.6"></circle>
<circle cx="946.0" cy="330.0" r="2.5" fill="#000000" stroke="#ffffff" stroke-width="0.8"></circle>
<circle cx="994.0" cy="330.0" r="2.5" fill="#ffffff"></circle>
<text x="970.0" y="304.0" fill="#ffffff" font-size="9" text-anchor="middle" font-family="monospace" font-weight="bold">CL</text>
<text x="970.0" y="362.0" fill="#ffffff" font-size="5" text-anchor="middle" font-family="monospace">CLINK</text>
<rect fill="none" stroke="#ffffff" stroke-width="1.3" x="990.0" y="310.0" width="40.0" height="40.0"></rect>
<circle cx="1010.0" cy="330.0" r="8" fill="url(#hatch-T)" stroke="#ffffff" stroke-width="0.6"></circle>
<circle cx="986.0" cy="330.0" r="2.5" fill="#000000" stroke="#ffffff" stroke-width="0.8"></circle>
<circle cx="1034.0" cy="330.0" r="2.5" fill="#ffffff"></circle>
<text x="1010.0" y="304.0" fill="#ffffff" font-size="9" text-anchor="middle" font-family="monospace" font-weight="bold">IX</text>
<text x="1010.0" y="362.0" fill="#ffffff" font-size="5" text-anchor="middle" font-family="monospace">IFIX</text>
<path d="M 983.0,310.0 C 983.0,252.0 277.0,252.0 277.0,310.0" fill="none" stroke="#ffffff" stroke-width="1.0"></path>
<polygon points="277.0,310.0 273.8,302.0 280.2,302.0" fill="#ffffff"></polygon>
<text x="14.0" y="72.0" fill="#ffffff" font-size="6" text-anchor="start" font-family="monospace" font-weight="bold">EDGES</text>
<line x1="14.0" y1="82.0" x2="36.0" y2="82.0" stroke="#ffffff" stroke-width="1.5" opacity="0.7"></line>
<text x="42.0" y="84.0" fill="#ffffff" font-size="5" text-anchor="start" font-family="monospace">VI</text>
<line x1="14.0" y1="91.5" x2="36.0" y2="91.5" stroke="#ffffff" stroke-width="1.5" opacity="0.7" stroke-dasharray="5,2,1,2,1,2"></line>
<text x="42.0" y="93.5" fill="#ffffff" font-size="5" text-anchor="start" font-family="monospace">TA</text>
<line x1="14.0" y1="101.0" x2="36.0" y2="101.0" stroke="#ffffff" stroke-width="2.0" opacity="0.7"></line>
<text x="42.0" y="103.0" fill="#ffffff" font-size="5" text-anchor="start" font-family="monospace">AF</text>
<line x1="14.0" y1="110.5" x2="36.0" y2="110.5" stroke="#ffffff" stroke-width="1.5" opacity="0.7" stroke-dasharray="6,4"></line>
<text x="42.0" y="112.5" fill="#ffffff" font-size="5" text-anchor="start" font-family="monospace">AR</text>
<line x1="14.0" y1="119.0" x2="36.0" y2="119.0" stroke="#ffffff" stroke-width="1.0" opacity="0.7"></line>
<line x1="14.0" y1="121.0" x2="36.0" y2="121.0" stroke="#ffffff" stroke-width="1.0" opacity="0.7"></line>
<text x="42.0" y="122.0" fill="#ffffff" font-size="5" text-anchor="start" font-family="monospace">CL</text>
<line x1="14.0" y1="129.5" x2="36.0" y2="129.5" stroke="#ffffff" stroke-width="1.5" opacity="0.7"></line>
<text x="42.0" y="131.5" fill="#ffffff" font-size="5" text-anchor="start" font-family="monospace">IM</text>
<line x1="14.0" y1="139.0" x2="36.0" y2="139.0" stroke="#ffffff" stroke-width="1.5" opacity="0.7"></line>
<text x="42.0" y="141.0" fill="#ffffff" font-size="5" text-anchor="start" font-family="monospace">FS</text>
<line x1="14.0" y1="148.5" x2="36.0" y2="148.5" stroke="#ffffff" stroke-width="1.5" opacity="0.7"></line>
<text x="42.0" y="150.5" fill="#ffffff" font-size="5" text-anchor="start" font-family="monospace">FF</text>
<line x1="14.0" y1="158.0" x2="36.0" y2="158.0" stroke="#ffffff" stroke-width="1.5" opacity="0.7"></line>
<text x="42.0" y="160.0" fill="#ffffff" font-size="5" text-anchor="start" font-family="monospace">ET</text>
<line x1="14.0" y1="167.5" x2="36.0" y2="167.5" stroke="#ffffff" stroke-width="1.5" opacity="0.7"></line>
<text x="42.0" y="169.5" fill="#ffffff" font-size="5" text-anchor="start" font-family="monospace">EF</text>
<polyline points="14.0,179.0 18.0,175.0 22.0,179.0 26.0,175.0 30.0,179.0 34.0,175.0 36.0,177.0" fill="none" stroke="#ffffff" stroke-width="1.0"></polyline>
<text x="42.0" y="179.0" fill="#ffffff" font-size="5" text-anchor="start" font-family="monospace">EG</text>
<line x1="14.0" y1="186.5" x2="36.0" y2="186.5" stroke="#ffffff" stroke-width="1.5" opacity="0.7" stroke-dasharray="2,2"></line>
<text x="42.0" y="188.5" fill="#ffffff" font-size="5" text-anchor="start" font-family="monospace">IX</text>
<text x="14.0" y="195.0" fill="#ffffff" font-size="6" text-anchor="start" font-family="monospace" font-weight="bold">GUARD</text>
<circle cx="17" cy="206" r="2.5" fill="#000000" stroke="#ffffff" stroke-width="0.8"></circle>
<text x="24.0" y="208.0" fill="#ffffff" font-size="5" text-anchor="start" font-family="monospace">in</text>
<circle cx="17" cy="216" r="2.5" fill="#ffffff"></circle>
<text x="24.0" y="218.0" fill="#ffffff" font-size="5" text-anchor="start" font-family="monospace">out</text>
<text x="14.0" y="231.0" fill="#ffffff" font-size="6" text-anchor="start" font-family="monospace" font-weight="bold">NODES</text>
<circle fill="none" stroke="#ffffff" stroke-width="1.0" cx="18.0" cy="246.0" r="4.0"></circle>
<text x="28.0" y="248.0" fill="#ffffff" font-size="5" text-anchor="start" font-family="monospace">LOGI</text>
<polygon fill="none" stroke="#ffffff" stroke-width="1.0" points="18,254.0 22.0,258 18,262.0 14.0,258"></polygon>
<text x="28.0" y="260.0" fill="#ffffff" font-size="5" text-anchor="start" font-family="monospace">FROB</text>
<polygon fill="none" stroke="#ffffff" stroke-width="1.0" points="21.5,272.0 18.0,274.0 14.5,272.0 14.5,268.0 18.0,266.0 21.5,268.0"></polygon>
<text x="28.0" y="272.0" fill="#ffffff" font-size="5" text-anchor="start" font-family="monospace">DIAL</text>
<rect fill="none" stroke="#ffffff" stroke-width="1.0" x="14.0" y="278.0" width="8.0" height="8.0"></rect>
<text x="28.0" y="284.0" fill="#ffffff" font-size="5" text-anchor="start" font-family="monospace">LINE</text>
<text x="14.0" y="294.0" fill="#ffffff" font-size="6" text-anchor="start" font-family="monospace" font-weight="bold">PAIRS</text>
<circle cx="18" cy="306" r="5" fill="#000000" stroke="#ffffff" stroke-width="0.8"></circle>
<text x="18.0" y="309.0" fill="#ffffff" font-size="6" text-anchor="middle" font-family="monospace">1</text>
<text x="28.0" y="308.0" fill="#ffffff" font-size="5" text-anchor="start" font-family="monospace">pair</text>
<text x="14.0" y="324.0" fill="#ffffff" font-size="6" text-anchor="start" font-family="monospace" font-weight="bold">REG Δ</text>
<text x="14.0" y="336.0" fill="#ffffff" font-size="5" text-anchor="start" font-family="monospace">↑ T</text>
<text x="14.0" y="345.0" fill="#ffffff" font-size="5" text-anchor="start" font-family="monospace">↓ F</text>
<text x="14.0" y="354.0" fill="#ffffff" font-size="5" text-anchor="start" font-family="monospace">↑↓ B</text>
</svg>