<svg xmlns="http://www.w3.org/2000/svg" viewBox="0 0 1220 720">
<rect width="1220" height="720" fill="#000000"/>
<defs>
<pattern id="hatch-T" width="4" height="4" patternUnits="userSpaceOnUse"><path d="M2,0 L2,4" stroke="#ffffff" stroke-width="0.8"/></pattern>
<pattern id="hatch-F" width="4" height="4" patternUnits="userSpaceOnUse"><path d="M0,2 L4,2" stroke="#ffffff" stroke-width="0.8"/></pattern>
<pattern id="hatch-B" width="4" height="4" patternUnits="userSpaceOnUse"><path d="M2,0 L2,4 M0,2 L4,2" stroke="#ffffff" stroke-width="0.8"/></pattern>
</defs>
<line x1="0.0" y1="0.0" x2="0.0" y2="720.0" stroke="#333333" stroke-width="0.4" opacity="0.3"></line>
<line x1="40.0" y1="0.0" x2="40.0" y2="720.0" stroke="#333333" stroke-width="0.4" opacity="0.3"></line>
<line x1="80.0" y1="0.0" x2="80.0" y2="720.0" stroke="#333333" stroke-width="0.4" opacity="0.3"></line>
<line x1="120.0" y1="0.0" x2="120.0" y2="720.0" stroke="#333333" stroke-width="0.4" opacity="0.3"></line>
<line x1="160.0" y1="0.0" x2="160.0" y2="720.0" stroke="#333333" stroke-width="0.4" opacity="0.3"></line>
<line x1="200.0" y1="0.0" x2="200.0" y2="720.0" stroke="#333333" stroke-width="0.4" opacity="0.3"></line>
<line x1="240.0" y1="0.0" x2="240.0" y2="720.0" stroke="#333333" stroke-width="0.4" opacity="0.3"></line>
<line x1="280.0" y1="0.0" x2="280.0" y2="720.0" stroke="#333333" stroke-width="0.4" opacity="0.3"></line>
<line x1="320.0" y1="0.0" x2="320.0" y2="720.0" stroke="#333333" stroke-width="0.4" opacity="0.3"></line>
<line x1="360.0" y1="0.0" x2="360.0" y2="720.0" stroke="#333333" stroke-width="0.4" opacity="0.3"></line>
<line x1="400.0" y1="0.0" x2="400.0" y2="720.0" stroke="#333333" stroke-width="0.4" opacity="0.3"></line>
<line x1="440.0" y1="0.0" x2="440.0" y2="720.0" stroke="#333333" stroke-width="0.4" opacity="0.3"></line>
<line x1="480.0" y1="0.0" x2="480.0" y2="720.0" stroke="#333333" stroke-width="0.4" opacity="0.3"></line>
<line x1="520.0" y1="0.0" x2="520.0" y2="720.0" stroke="#333333" stroke-width="0.4" opacity="0.3"></line>
<line x1="560.0" y1="0.0" x2="560.0" y2="720.0" stroke="#333333" stroke-width="0.4" opacity="0.3"></line>
<line x1="600.0" y1="0.0" x2="600.0" y2="720.0" stroke="#333333" stroke-width="0.4" opacity="0.3"></line>
<line x1="640.0" y1="0.0" x2="640.0" y2="720.0" stroke="#333333" stroke-width="0.4" opacity="0.3"></line>
<line x1="680.0" y1="0.0" x2="680.0" y2="720.0" stroke="#333333" stroke-width="0.4" opacity="0.3"></line>
<line x1="720.0" y1="0.0" x2="720.0" y2="720.0" stroke="#333333" stroke-width="0.4" opacity="0.3"></line>
<line x1="760.0" y1="0.0" x2="760.0" y2="720.0" stroke="#333333" stroke-width="0.4" opacity="0.3"></line>
<line x1="800.0" y1="0.0" x2="800.0" y2="720.0" stroke="#333333" stroke-width="0.4" opacity="0.3"></line>
<line x1="840.0" y1="0.0" x2="840.0" y2="720.0" stroke="#333333" stroke-width="0.4" opacity="0.3"></line>
<line x1="880.0" y1="0.0" x2="880.0" y2="720.0" stroke="#333333" stroke-width="0.4" opacity="0.3"></line>
<line x1="920.0" y1="0.0" x2="920.0" y2="720.0" stroke="#333333" stroke-width="0.4" opacity="0.3"></line>
<line x1="960.0" y1="0.0" x2="960.0" y2="720.0" stroke="#333333" stroke-width="0.4" opacity="0.3"></line>
<line x1="1000.0" y1="0.0" x2="1000.0" y2="720.0" stroke="#333333" stroke-width="0.4" opacity="0.3"></line>
<line x1="1040.0" y1="0.0" x2="1040.0" y2="720.0" stroke="#333333" stroke-width="0.4" opacity="0.3"></line>
<line x1="1080.0" y1="0.0" x2="1080.0" y2="720.0" stroke="#333333" stroke-width="0.4" opacity="0.3"></line>
<line x1="1120.0" y1="0.0" x2="1120.0" y2="720.0" stroke="#333333" stroke-width="0.4" opacity="0.3"></line>
<line x1="1160.0" y1="0.0" x2="1160.0" y2="720.0" stroke="#333333" stroke-width="0.4" opacity="0.3"></line>
<line x1="1200.0" y1="0.0" x2="1200.0" y2="720.0" stroke="#333333" stroke-width="0.4" opacity="0.3"></line>
<line x1="0.0" y1="0.0" x2="1220.0" y2="0.0" stroke="#333333" stroke-width="0.4" opacity="0.3"></line>
<line x1="0.0" y1="40.0" x2="1220.0" y2="40.0" stroke="#333333" stroke-width="0.4" opacity="0.3"></line>
<line x1="0.0" y1="80.0" x2="1220.0" y2="80.0" stroke="#333333" stroke-width="0.4" opacity="0.3"></line>
<line x1="0.0" y1="120.0" x2="1220.0" y2="120.0" stroke="#333333" stroke-width="0.4" opacity="0.3"></line>
<line x1="0.0" y1="160.0" x2="1220.0" y2="160.0" stroke="#333333" stroke-width="0.4" opacity="0.3"></line>
<line x1="0.0" y1="200.0" x2="1220.0" y2="200.0" stroke="#333333" stroke-width="0.4" opacity="0.3"></line>
<line x1="0.0" y1="240.0" x2="1220.0" y2="240.0" stroke="#333333" stroke-width="0.4" opacity="0.3"></line>
<line x1="0.0" y1="280.0" x2="1220.0" y2="280.0" stroke="#333333" stroke-width="0.4" opacity="0.3"></line>
<line x1="0.0" y1="320.0" x2="1220.0" y2="320.0" stroke="#333333" stroke-width="0.4" opacity="0.3"></line>
<line x1="0.0" y1="360.0" x2="1220.0" y2="360.0" stroke="#333333" stroke-width="0.4" opacity="0.3"></line>
<line x1="0.0" y1="400.0" x2="1220.0" y2="400.0" stroke="#333333" stroke-width="0.4" opacity="0.3"></line>
<line x1="0.0" y1="440.0" x2="1220.0" y2="440.0" stroke="#333333" stroke-width="0.4" opacity="0.3"></line>
<line x1="0.0" y1="480.0" x2="1220.0" y2="480.0" stroke="#333333" stroke-width="0.4" opacity="0.3"></line>
<line x1="0.0" y1="520.0" x2="1220.0" y2="520.0" stroke="#333333" stroke-width="0.4" opacity="0.3"></line>
<line x1="0.0" y1="560.0" x2="1220.0" y2="560.0" stroke="#333333" stroke-width="0.4" opacity="0.3"></line>
<line x1="0.0" y1="600.0" x2="1220.0" y2="600.0" stroke="#333333" stroke-width="0.4" opacity="0.3"></line>
<line x1="0.0" y1="640.0" x2="1220.0" y2="640.0" stroke="#333333" stroke-width="0.4" opacity="0.3"></line>
<line x1="0.0" y1="680.0" x2="1220.0" y2="680.0" stroke="#333333" stroke-width="0.4" opacity="0.3"></line>
<text x="610.0" y="26.0" fill="#ffffff" font-size="13" text-anchor="middle" font-family="monospace" font-weight="bold">climate disaster prevention</text>
<text x="66.0" y="190.0" fill="#ffffff" font-size="7" text-anchor="start" font-family="monospace">T-lane</text>
<text x="66.0" y="135.0" fill="#ffffff" font-size="7" text-anchor="start" font-family="monospace">T[d1]</text>
<text x="66.0" y="470.0" fill="#ffffff" font-size="7" text-anchor="start" font-family="monospace">F-lane</text>
<text x="66.0" y="525.0" fill="#ffffff" font-size="7" text-anchor="start" font-family="monospace">F[d1]</text>
<text x="66.0" y="330.0" fill="#ffffff" font-size="7" text-anchor="start" font-family="monospace">main</text>
<line x1="602.9" y1="105.0" x2="602.9" y2="555.0" stroke="#ffffff" stroke-width="1.0" opacity="1.0" stroke-dasharray="4,3"></line>
<line x1="607.9" y1="105.0" x2="607.9" y2="555.0" stroke="#ffffff" stroke-width="1.0" opacity="1.0" stroke-dasharray="4,3"></line>
<text x="605.4" y="105.0" fill="#ffffff" font-size="8" text-anchor="middle" font-family="monospace">×</text>
<text x="605.4" y="555.0" fill="#ffffff" font-size="8" text-anchor="middle" font-family="monospace">×</text>
<text x="605.4" y="98.0" fill="#ffffff" font-size="6" text-anchor="middle" font-family="monospace">IFIX</text>
<line x1="310.0" y1="310.0" x2="310.0" y2="292.0" stroke="#ffffff" stroke-width="0.6" opacity="0.8" stroke-dasharray="3,3"></line>
<line x1="310.0" y1="292.0" x2="531.5" y2="292.0" stroke="#ffffff" stroke-width="0.6" opacity="0.8" stroke-dasharray="3,3"></line>
<line x1="531.5" y1="292.0" x2="531.5" y2="310.0" stroke="#ffffff" stroke-width="0.6" opacity="0.8" stroke-dasharray="3,3"></line>
<circle cx="420.8" cy="292.0" r="6" fill="#000000" stroke="#ffffff" stroke-width="0.8"></circle>
<text x="420.8" y="295.0" fill="#ffffff" font-size="7" text-anchor="middle" font-family="monospace">1</text>
<line x1="313.7" y1="310.3" x2="343.2" y2="154.7" stroke="#ffffff" stroke-width="1.5" opacity="1.0"></line>
<polygon points="343.2,154.7 344.9,163.1 338.6,161.9" fill="#ffffff"></polygon>
<circle cx="328.5" cy="232.5" r="5" fill="#000000" stroke="#ffffff" stroke-width="0.6"></circle>
<text x="328.5" y="235.5" fill="#ffffff" font-size="7" text-anchor="middle" font-family="monospace">◇</text>
<text x="328.5" y="224.5" fill="#ffffff" font-size="6" text-anchor="middle" font-family="monospace">↑↓→↑↓</text>
<line x1="366.9" y1="135.0" x2="363.8" y2="135.0" stroke="#ffffff" stroke-width="1.5" opacity="1.0"></line>
<polygon points="363.8,135.0 371.8,131.8 371.8,138.2" fill="#ffffff"></polygon>
<circle cx="365.4" cy="135.0" r="5" fill="#000000" stroke="#ffffff" stroke-width="0.6"></circle>
<text x="365.4" y="138.0" fill="#ffffff" font-size="7" text-anchor="middle" font-family="monospace">+</text>
<text x="365.4" y="127.0" fill="#ffffff" font-size="6" text-anchor="middle" font-family="monospace">↑↓→↑↓</text>
<line x1="395.9" y1="150.9" x2="519.5" y2="314.1" stroke="#ffffff" stroke-width="2.5" opacity="1.0"></line>
<polygon points="519.5,314.1 512.1,309.6 517.2,305.7" fill="#ffffff"></polygon>
<text x="457.7" y="224.5" fill="#ffffff" font-size="6" text-anchor="middle" font-family="monospace">↑↓→↑</text>
<line x1="319.9" y1="347.4" x2="410.9" y2="507.6" stroke="#ffffff" stroke-width="1.5" opacity="1.0"></line>
<polygon points="410.9,507.6 404.2,502.2 409.7,499.1" fill="#ffffff"></polygon>
<circle cx="365.4" cy="427.5" r="5" fill="#000000" stroke="#ffffff" stroke-width="0.6"></circle>
<text x="365.4" y="430.5" fill="#ffffff" font-size="7" text-anchor="middle" font-family="monospace">◇</text>
<text x="365.4" y="419.5" fill="#ffffff" font-size="6" text-anchor="middle" font-family="monospace">↑↓→↑↓</text>
<line x1="440.8" y1="525.0" x2="437.7" y2="525.0" stroke="#ffffff" stroke-width="1.5" opacity="1.0"></line>
<polygon points="437.7,525.0 445.7,521.8 445.7,528.2" fill="#ffffff"></polygon>
<circle cx="439.2" cy="525.0" r="5" fill="#000000" stroke="#ffffff" stroke-width="0.6"></circle>
<text x="439.2" y="528.0" fill="#ffffff" font-size="7" text-anchor="middle" font-family="monospace">×</text>
<text x="439.2" y="517.0" fill="#ffffff" font-size="6" text-anchor="middle" font-family="monospace">↑↓→↑↓</text>
<line x1="477.7" y1="525.0" x2="474.6" y2="525.0" stroke="#ffffff" stroke-width="1.5" opacity="1.0" stroke-dasharray="6,4"></line>
<polygon points="474.6,525.0 482.6,521.8 482.6,528.2" fill="#ffffff"></polygon>
<text x="476.2" y="517.0" fill="#ffffff" font-size="6" text-anchor="middle" font-family="monospace">↑↓→↑↓</text>
<polyline points="502.3,506.1 495.9,496.7 505.2,490.4 498.9,481.0 508.2,474.7 501.8,465.3 511.2,458.9 504.8,449.6 514.2,443.2 507.8,433.9 517.1,427.5 510.8,418.1 520.1,411.8 513.8,402.4 523.1,396.0 516.7,386.7 526.1,380.3 519.7,371.0 529.1,364.6 522.7,355.3 527.8,349.7" fill="none" stroke="#ffffff" stroke-width="1.5"></polyline>
<polygon points="527.8,349.7 529.5,358.1 523.2,356.9" fill="#ffffff"></polygon>
<text x="513.1" y="419.5" fill="#ffffff" font-size="6" text-anchor="middle" font-family="monospace">↑↓→↑</text>
<line x1="108.5" y1="330.0" x2="105.4" y2="330.0" stroke="#ffffff" stroke-width="2.0" opacity="1.0"></line>
<polyline points="105.4,330.0 113.4,326.8 113.4,333.2" fill="none" stroke="#ffffff" stroke-width="1.0"></polyline>
<line x1="145.4" y1="330.0" x2="142.3" y2="330.0" stroke="#ffffff" stroke-width="2.0" opacity="1.0" stroke-dasharray="5,2,1,2,1,2"></line>
<polyline points="142.3,330.0 150.3,326.8 150.3,333.2" fill="none" stroke="#ffffff" stroke-width="1.0"></polyline>
<text x="143.8" y="322.0" fill="#ffffff" font-size="6" text-anchor="middle" font-family="monospace">↑</text>
<line x1="182.3" y1="330.0" x2="179.2" y2="330.0" stroke="#ffffff" stroke-width="2.5" opacity="1.0"></line>
<polygon points="179.2,330.0 187.2,326.8 187.2,333.2" fill="#ffffff"></polygon>
<text x="180.8" y="322.0" fill="#ffffff" font-size="6" text-anchor="middle" font-family="monospace">↑→↑↓</text>
<line x1="219.2" y1="330.0" x2="216.2" y2="330.0" stroke="#ffffff" stroke-width="2.0" opacity="1.0" stroke-dasharray="6,4"></line>
<polygon points="216.2,330.0 224.2,326.8 224.2,333.2" fill="#ffffff"></polygon>
<text x="217.7" y="322.0" fill="#ffffff" font-size="6" text-anchor="middle" font-family="monospace">↑↓→↑↓</text>
<line x1="256.2" y1="328.4" x2="253.1" y2="328.4" stroke="#ffffff" stroke-width="2.0" opacity="1.0"></line>
<line x1="256.2" y1="331.6" x2="253.1" y2="331.6" stroke="#ffffff" stroke-width="2.0" opacity="1.0"></line>
<polygon points="253.1,330.0 261.1,326.8 261.1,333.2" fill="#ffffff"></polygon>
<text x="254.6" y="322.0" fill="#ffffff" font-size="6" text-anchor="middle" font-family="monospace">↑↓→↑↓</text>
<line x1="293.1" y1="330.0" x2="290.0" y2="330.0" stroke="#ffffff" stroke-width="2.0" opacity="1.0"></line>
<polygon points="293.1,330.0 285.1,333.2 285.1,326.8" fill="#ffffff"></polygon>
<circle cx="291.5" cy="330.0" r="5" fill="#000000" stroke="#ffffff" stroke-width="0.6"></circle>
<text x="291.5" y="333.0" fill="#ffffff" font-size="7" text-anchor="middle" font-family="monospace">←</text>
<text x="291.5" y="322.0" fill="#ffffff" font-size="6" text-anchor="middle" font-family="monospace">↑↓→↑↓</text>
<line x1="588.5" y1="328.4" x2="585.4" y2="328.4" stroke="#ffffff" stroke-width="2.0" opacity="1.0"></line>
<line x1="588.5" y1="331.6" x2="585.4" y2="331.6" stroke="#ffffff" stroke-width="2.0" opacity="1.0"></line>
<polygon points="585.4,330.0 593.4,326.8 593.4,333.2" fill="#ffffff"></polygon>
<line x1="625.4" y1="330.0" x2="622.3" y2="330.0" stroke="#ffffff" stroke-width="2.0" opacity="1.0" stroke-dasharray="2,2"></line>
<polygon points="622.3,330.0 630.3,326.8 630.3,333.2" fill="#ffffff"></polygon>
<text x="623.8" y="322.0" fill="#ffffff" font-size="6" text-anchor="middle" font-family="monospace">↑</text>
<line x1="662.3" y1="330.0" x2="659.2" y2="330.0" stroke="#ffffff" stroke-width="2.0" opacity="1.0"></line>
<polygon points="662.3,330.0 654.3,333.2 654.3,326.8" fill="#ffffff"></polygon>
<circle cx="660.8" cy="330.0" r="5" fill="#000000" stroke="#ffffff" stroke-width="0.6"></circle>
<text x="660.8" y="333.0" fill="#ffffff" font-size="7" text-anchor="middle" font-family="monospace">←</text>
<text x="660.8" y="322.0" fill="#ffffff" font-size="6" text-anchor="middle" font-family="monospace">↑→↑</text>
<line x1="699.2" y1="330.0" x2="696.2" y2="330.0" stroke="#ffffff" stroke-width="2.5" opacity="1.0"></line>
<polygon points="696.2,330.0 704.2,326.8 704.2,333.2" fill="#ffffff"></polygon>
<text x="697.7" y="322.0" fill="#ffffff" font-size="6" text-anchor="middle" font-family="monospace">↑→↑</text>
<line x1="736.2" y1="330.0" x2="733.1" y2="330.0" stroke="#ffffff" stroke-width="2.0" opacity="1.0" stroke-dasharray="6,4"></line>
<polygon points="733.1,330.0 741.1,326.8 741.1,333.2" fill="#ffffff"></polygon>
<text x="734.6" y="322.0" fill="#ffffff" font-size="6" text-anchor="middle" font-family="monospace">↑→↑</text>
<line x1="773.1" y1="328.4" x2="770.0" y2="328.4" stroke="#ffffff" stroke-width="2.0" opacity="1.0"></line>
<line x1="773.1" y1="331.6" x2="770.0" y2="331.6" stroke="#ffffff" stroke-width="2.0" opacity="1.0"></line>
<polygon points="770.0,330.0 778.0,326.8 778.0,333.2" fill="#ffffff"></polygon>
<text x="771.5" y="322.0" fill="#ffffff" font-size="6" text-anchor="middle" font-family="monospace">↑→↑</text>
<line x1="810.0" y1="330.0" x2="806.9" y2="330.0" stroke="#ffffff" stroke-width="2.0" opacity="1.0"></line>
<polygon points="806.9,330.0 814.9,326.8 814.9,333.2" fill="#ffffff"></polygon>
<circle cx="808.5" cy="330.0" r="5" fill="#000000" stroke="#ffffff" stroke-width="0.6"></circle>
<text x="808.5" y="333.0" fill="#ffffff" font-size="7" text-anchor="middle" font-family="monospace">+</text>
<text x="808.5" y="322.0" fill="#ffffff" font-size="6" text-anchor="middle" font-family="monospace">↑→↑</text>
<line x1="846.9" y1="330.0" x2="843.8" y2="330.0" stroke="#ffffff" stroke-width="2.0" opacity="1.0"></line>
<polygon points="843.8,330.0 851.8,326.8 851.8,333.2" fill="#ffffff"></polygon>
<circle cx="845.4" cy="330.0" r="5" fill="#000000" stroke="#ffffff" stroke-width="0.6"></circle>
<text x="845.4" y="333.0" fill="#ffffff" font-size="7" text-anchor="middle" font-family="monospace">×</text>
<text x="845.4" y="322.0" fill="#ffffff" font-size="6" text-anchor="middle" font-family="monospace">↑→↑</text>
<polyline points="883.8,326.0 880.8,330.0" fill="none" stroke="#ffffff" stroke-width="2.0"></polyline>
<polygon points="880.8,330.0 888.8,326.8 888.8,333.2" fill="#ffffff"></polygon>
<text x="882.3" y="322.0" fill="#ffffff" font-size="6" text-anchor="middle" font-family="monospace">↑→↑</text>
<line x1="920.8" y1="330.0" x2="917.7" y2="330.0" stroke="#ffffff" stroke-width="2.0" opacity="1.0"></line>
<polygon points="917.7,330.0 925.7,326.8 925.7,333.2" fill="#ffffff"></polygon>
<circle cx="919.2" cy="330.0" r="5" fill="#000000" stroke="#ffffff" stroke-width="0.6"></circle>
<text x="919.2" y="333.0" fill="#ffffff" font-size="7" text-anchor="middle" font-family="monospace">●</text>
<text x="919.2" y="322.0" fill="#ffffff" font-size="6" text-anchor="middle" font-family="monospace">↑→↑</text>
<line x1="957.7" y1="330.0" x2="954.6" y2="330.0" stroke="#ffffff" stroke-width="2.0" opacity="1.0" stroke-dasharray="2,2"></line>
<polygon points="954.6,330.0 962.6,326.8 962.6,333.2" fill="#ffffff"></polygon>
<text x="956.2" y="322.0" fill="#ffffff" font-size="6" text-anchor="middle" font-family="monospace">↑→↑</text>
<line x1="994.6" y1="330.0" x2="991.5" y2="330.0" stroke="#ffffff" stroke-width="2.0" opacity="1.0"></line>
<polygon points="994.6,330.0 986.6,333.2 986.6,326.8" fill="#ffffff"></polygon>
<circle cx="993.1" cy="330.0" r="5" fill="#000000" stroke="#ffffff" stroke-width="0.6"></circle>
<text x="993.1" y="333.0" fill="#ffffff" font-size="7" text-anchor="middle" font-family="monospace">←</text>
<text x="993.1" y="322.0" fill="#ffffff" font-size="6" text-anchor="middle" font-family="monospace">↑→↑</text>
<line x1="551.5" y1="330.0" x2="548.5" y2="330.0" stroke="#ffffff" stroke-width="1.5" opacity="1.0"></line>
<polygon points="548.5,330.0 556.5,326.8 556.5,333.2" fill="#ffffff"></polygon>
<circle cx="550.0" cy="330.0" r="5" fill="#000000" stroke="#ffffff" stroke-width="0.6"></circle>
<text x="550.0" y="333.0" fill="#ffffff" font-size="7" text-anchor="middle" font-family="monospace">●</text>
<text x="550.0" y="322.0" fill="#ffffff" font-size="6" text-anchor="middle" font-family="monospace">↑→</text>
<circle fill="none" stroke="#ffffff" stroke-width="1.3" cx="88.5" cy="330.0" r="20.0"></circle>
<circle cx="64.5" cy="330.0" r="2.5" fill="#000000" stroke="#ffffff" stroke-width="0.8"></circle>
<circle cx="112.5" cy="330.0" r="2.5" fill="#ffffff"></circle>
<text x="88.5" y="304.0" fill="#ffffff" font-size="9" text-anchor="middle" font-family="monospace" font-weight="bold">VI</text>
<text x="88.5" y="362.0" fill="#ffffff" font-size="5" text-anchor="middle" font-family="monospace">VINIT</text>
<circle fill="none" stroke="#ffffff" stroke-width="1.3" cx="125.4" cy="330.0" r="20.0"></circle>
<circle cx="101.4" cy="330.0" r="2.5" fill="#000000" stroke="#ffffff" stroke-width="0.8"></circle>
<circle cx="149.4" cy="330.0" r="2.5" fill="#ffffff"></circle>
<text x="125.4" y="304.0" fill="#ffffff" font-size="9" text-anchor="middle" font-family="monospace" font-weight="bold">TA</text>
<text x="125.4" y="362.0" fill="#ffffff" font-size="5" text-anchor="middle" font-family="monospace">TANCH</text>
<circle fill="none" stroke="#ffffff" stroke-width="1.3" cx="162.3" cy="330.0" r="20.0"></circle>
<circle cx="162.3" cy="330.0" r="8" fill="url(#hatch-T)" stroke="#ffffff" stroke-width="0.6"></circle>
<circle cx="138.3" cy="330.0" r="2.5" fill="#000000" stroke="#ffffff" stroke-width="0.8"></circle>
<circle cx="186.3" cy="330.0" r="2.5" fill="#ffffff"></circle>
<text x="162.3" y="304.0" fill="#ffffff" font-size="9" text-anchor="middle" font-family="monospace" font-weight="bold">AF</text>
<text x="162.3" y="362.0" fill="#ffffff" font-size="5" text-anchor="middle" font-family="monospace">AFWD</text>
<circle fill="none" stroke="#ffffff" stroke-width="1.3" cx="199.2" cy="330.0" r="20.0"></circle>
<circle cx="199.2" cy="330.0" r="8" fill="url(#hatch-B)" stroke="#ffffff" stroke-width="0.6"></circle>
<circle cx="175.2" cy="330.0" r="2.5" fill="#000000" stroke="#ffffff" stroke-width="0.8"></circle>
<circle cx="223.2" cy="330.0" r="2.5" fill="#ffffff"></circle>
<text x="199.2" y="304.0" fill="#ffffff" font-size="9" text-anchor="middle" font-family="monospace" font-weight="bold">AR</text>
<text x="199.2" y="362.0" fill="#ffffff" font-size="5" text-anchor="middle" font-family="monospace">AREV</text>
<circle fill="none" stroke="#ffffff" stroke-width="1.3" cx="236.2" cy="330.0" r="20.0"></circle>
<circle cx="236.2" cy="330.0" r="8" fill="url(#hatch-B)" stroke="#ffffff" stroke-width="0.6"></circle>
<circle cx="212.2" cy="330.0" r="2.5" fill="#000000" stroke="#ffffff" stroke-width="0.8"></circle>
<circle cx="260.2" cy="330.0" r="2.5" fill="#ffffff"></circle>
<text x="236.2" y="304.0" fill="#ffffff" font-size="9" text-anchor="middle" font-family="monospace" font-weight="bold">CL</text>
<text x="236.2" y="362.0" fill="#ffffff" font-size="5" text-anchor="middle" font-family="monospace">CLINK</text>
<circle fill="none" stroke="#ffffff" stroke-width="1.3" cx="273.1" cy="330.0" r="20.0"></circle>
<circle cx="273.1" cy="330.0" r="8" fill="url(#hatch-B)" stroke="#ffffff" stroke-width="0.6"></circle>
<circle cx="249.1" cy="330.0" r="2.5" fill="#000000" stroke="#ffffff" stroke-width="0.8"></circle>
<circle cx="297.1" cy="330.0" r="2.5" fill="#ffffff"></circle>
<text x="273.1" y="304.0" fill="#ffffff" font-size="9" text-anchor="middle" font-family="monospace" font-weight="bold">IM</text>
<text x="273.1" y="362.0" fill="#ffffff" font-size="5" text-anchor="middle" font-family="monospace">IMSCRIB</text>
<polygon fill="none" stroke="#ffffff" stroke-width="1.3" points="310.0,310.0 330.0,330 310.0,350.0 290.0,330"></polygon>
<circle cx="310.0" cy="330.0" r="8" fill="url(#hatch-B)" stroke="#ffffff" stroke-width="0.6"></circle>
<circle cx="286.0" cy="330.0" r="2.5" fill="#000000" stroke="#ffffff" stroke-width="0.8"></circle>
<circle cx="334.0" cy="330.0" r="2.5" fill="#ffffff"></circle>
<text x="310.0" y="304.0" fill="#ffffff" font-size="9" text-anchor="middle" font-family="monospace" font-weight="bold">FS</text>
<text x="310.0" y="362.0" fill="#ffffff" font-size="5" text-anchor="middle" font-family="monospace">FSPLIT</text>
<polygon fill="none" stroke="#ffffff" stroke-width="1.3" points="364.2,145.0 346.9,155.0 329.6,145.0 329.6,125.0 346.9,115.0 364.2,125.0"></polygon>
<circle cx="346.9" cy="135.0" r="8" fill="url(#hatch-B)" stroke="#ffffff" stroke-width="0.6"></circle>
<circle cx="322.9" cy="135.0" r="2.5" fill="#000000" stroke="#ffffff" stroke-width="0.8"></circle>
<circle cx="370.9" cy="135.0" r="2.5" fill="#ffffff"></circle>
<text x="346.9" y="109.0" fill="#ffffff" font-size="9" text-anchor="middle" font-family="monospace" font-weight="bold">ET</text>
<text x="346.9" y="167.0" fill="#ffffff" font-size="5" text-anchor="middle" font-family="monospace">EVALT</text>
<circle fill="none" stroke="#ffffff" stroke-width="1.3" cx="383.8" cy="135.0" r="20.0"></circle>
<circle cx="383.8" cy="135.0" r="8" fill="url(#hatch-B)" stroke="#ffffff" stroke-width="0.6"></circle>
<circle cx="359.8" cy="135.0" r="2.5" fill="#000000" stroke="#ffffff" stroke-width="0.8"></circle>
<circle cx="407.8" cy="135.0" r="2.5" fill="#ffffff"></circle>
<text x="383.8" y="109.0" fill="#ffffff" font-size="9" text-anchor="middle" font-family="monospace" font-weight="bold">AF</text>
<text x="383.8" y="167.0" fill="#ffffff" font-size="5" text-anchor="middle" font-family="monospace">AFWD</text>
<polygon fill="none" stroke="#ffffff" stroke-width="1.3" points="438.1,535.0 420.8,545.0 403.4,535.0 403.4,515.0 420.8,505.0 438.1,515.0"></polygon>
<circle cx="420.8" cy="525.0" r="8" fill="url(#hatch-B)" stroke="#ffffff" stroke-width="0.6"></circle>
<circle cx="396.8" cy="525.0" r="2.5" fill="#000000" stroke="#ffffff" stroke-width="0.8"></circle>
<circle cx="444.8" cy="525.0" r="2.5" fill="#ffffff"></circle>
<text x="420.8" y="499.0" fill="#ffffff" font-size="9" text-anchor="middle" font-family="monospace" font-weight="bold">EF</text>
<text x="420.8" y="557.0" fill="#ffffff" font-size="5" text-anchor="middle" font-family="monospace">EVALF</text>
<circle fill="none" stroke="#ffffff" stroke-width="1.3" cx="457.7" cy="525.0" r="20.0"></circle>
<circle cx="457.7" cy="525.0" r="8" fill="url(#hatch-B)" stroke="#ffffff" stroke-width="0.6"></circle>
<circle cx="433.7" cy="525.0" r="2.5" fill="#000000" stroke="#ffffff" stroke-width="0.8"></circle>
<circle cx="481.7" cy="525.0" r="2.5" fill="#ffffff"></circle>
<text x="457.7" y="499.0" fill="#ffffff" font-size="9" text-anchor="middle" font-family="monospace" font-weight="bold">AR</text>
<text x="457.7" y="557.0" fill="#ffffff" font-size="5" text-anchor="middle" font-family="monospace">AREV</text>
<polygon fill="none" stroke="#ffffff" stroke-width="1.3" points="511.9,535.0 494.6,545.0 477.3,535.0 477.3,515.0 494.6,505.0 511.9,515.0"></polygon>
<circle cx="494.6" cy="525.0" r="8" fill="url(#hatch-B)" stroke="#ffffff" stroke-width="0.6"></circle>
<circle cx="470.6" cy="525.0" r="2.5" fill="#000000" stroke="#ffffff" stroke-width="0.8"></circle>
<circle cx="518.6" cy="525.0" r="2.5" fill="#ffffff"></circle>
<text x="494.6" y="499.0" fill="#ffffff" font-size="9" text-anchor="middle" font-family="monospace" font-weight="bold">EG</text>
<text x="494.6" y="557.0" fill="#ffffff" font-size="5" text-anchor="middle" font-family="monospace">ENGAGR</text>
<polygon fill="none" stroke="#ffffff" stroke-width="1.3" points="531.5384615384615,310.0 551.5,330 531.5384615384615,350.0 511.5,330"></polygon>
<circle cx="531.5" cy="330.0" r="8" fill="url(#hatch-T)" stroke="#ffffff" stroke-width="0.6"></circle>
<circle cx="507.5" cy="330.0" r="2.5" fill="#000000" stroke="#ffffff" stroke-width="0.8"></circle>
<circle cx="555.5" cy="330.0" r="2.5" fill="#ffffff"></circle>
<text x="531.5" y="304.0" fill="#ffffff" font-size="9" text-anchor="middle" font-family="monospace" font-weight="bold">FF</text>
<text x="531.5" y="362.0" fill="#ffffff" font-size="5" text-anchor="middle" font-family="monospace">FFUSE</text>
<circle fill="none" stroke="#ffffff" stroke-width="1.3" cx="568.5" cy="330.0" r="20.0"></circle>
<circle cx="544.5" cy="330.0" r="2.5" fill="#000000" stroke="#ffffff" stroke-width="0.8"></circle>
<circle cx="592.5" cy="330.0" r="2.5" fill="#ffffff"></circle>
<text x="568.5" y="304.0" fill="#ffffff" font-size="9" text-anchor="middle" font-family="monospace" font-weight="bold">CL</text>
<text x="568.5" y="362.0" fill="#ffffff" font-size="5" text-anchor="middle" font-family="monospace">CLINK</text>
<rect fill="none" stroke="#ffffff" stroke-width="1.3" x="585.4" y="310.0" width="40.0" height="40.0"></rect>
<circle cx="581.4" cy="330.0" r="2.5" fill="#000000" stroke="#ffffff" stroke-width="0.8"></circle>
<circle cx="629.4" cy="330.0" r="2.5" fill="#ffffff"></circle>
<text x="605.4" y="304.0" fill="#ffffff" font-size="9" text-anchor="middle" font-family="monospace" font-weight="bold">IX</text>
<text x="605.4" y="362.0" fill="#ffffff" font-size="5" text-anchor="middle" font-family="monospace">IFIX</text>
<circle fill="none" stroke="#ffffff" stroke-width="1.3" cx="642.3" cy="330.0" r="20.0"></circle>
<circle cx="642.3" cy="330.0" r="8" fill="url(#hatch-T)" stroke="#ffffff" stroke-width="0.6"></circle>
<circle cx="618.3" cy="330.0" r="2.5" fill="#000000" stroke="#ffffff" stroke-width="0.8"></circle>
<circle cx="666.3" cy="330.0" r="2.5" fill="#ffffff"></circle>
<text x="642.3" y="304.0" fill="#ffffff" font-size="9" text-anchor="middle" font-family="monospace" font-weight="bold">IM</text>
<text x="642.3" y="362.0" fill="#ffffff" font-size="5" text-anchor="middle" font-family="monospace">IMSCRIB</text>
<circle fill="none" stroke="#ffffff" stroke-width="1.3" cx="679.2" cy="330.0" r="20.0"></circle>
<circle cx="679.2" cy="330.0" r="8" fill="url(#hatch-T)" stroke="#ffffff" stroke-width="0.6"></circle>
<circle cx="655.2" cy="330.0" r="2.5" fill="#000000" stroke="#ffffff" stroke-width="0.8"></circle>
<circle cx="703.2" cy="330.0" r="2.5" fill="#ffffff"></circle>
<text x="679.2" y="304.0" fill="#ffffff" font-size="9" text-anchor="middle" font-family="monospace" font-weight="bold">AF</text>
<text x="679.2" y="362.0" fill="#ffffff" font-size="5" text-anchor="middle" font-family="monospace">AFWD</text>
<circle fill="none" stroke="#ffffff" stroke-width="1.3" cx="716.2" cy="330.0" r="20.0"></circle>
<circle cx="716.2" cy="330.0" r="8" fill="url(#hatch-T)" stroke="#ffffff" stroke-width="0.6"></circle>
<circle cx="692.2" cy="330.0" r="2.5" fill="#000000" stroke="#ffffff" stroke-width="0.8"></circle>
<circle cx="740.2" cy="330.0" r="2.5" fill="#ffffff"></circle>
<text x="716.2" y="304.0" fill="#ffffff" font-size="9" text-anchor="middle" font-family="monospace" font-weight="bold">AR</text>
<text x="716.2" y="362.0" fill="#ffffff" font-size="5" text-anchor="middle" font-family="monospace">AREV</text>
<circle fill="none" stroke="#ffffff" stroke-width="1.3" cx="753.1" cy="330.0" r="20.0"></circle>
<circle cx="753.1" cy="330.0" r="8" fill="url(#hatch-T)" stroke="#ffffff" stroke-width="0.6"></circle>
<circle cx="729.1" cy="330.0" r="2.5" fill="#000000" stroke="#ffffff" stroke-width="0.8"></circle>
<circle cx="777.1" cy="330.0" r="2.5" fill="#ffffff"></circle>
<text x="753.1" y="304.0" fill="#ffffff" font-size="9" text-anchor="middle" font-family="monospace" font-weight="bold">CL</text>
<text x="753.1" y="362.0" fill="#ffffff" font-size="5" text-anchor="middle" font-family="monospace">CLINK</text>
<polygon fill="none" stroke="#ffffff" stroke-width="1.3" points="807.3,340.0 790.0,350.0 772.7,340.0 772.7,320.0 790.0,310.0 807.3,320.0"></polygon>
<circle cx="790.0" cy="330.0" r="8" fill="url(#hatch-T)" stroke="#ffffff" stroke-width="0.6"></circle>
<circle cx="766.0" cy="330.0" r="2.5" fill="#000000" stroke="#ffffff" stroke-width="0.8"></circle>
<circle cx="814.0" cy="330.0" r="2.5" fill="#ffffff"></circle>
<text x="790.0" y="304.0" fill="#ffffff" font-size="9" text-anchor="middle" font-family="monospace" font-weight="bold">ET</text>
<text x="790.0" y="362.0" fill="#ffffff" font-size="5" text-anchor="middle" font-family="monospace">EVALT</text>
<polygon fill="none" stroke="#ffffff" stroke-width="1.3" points="844.2,340.0 826.9,350.0 809.6,340.0 809.6,320.0 826.9,310.0 844.2,320.0"></polygon>
<circle cx="826.9" cy="330.0" r="8" fill="url(#hatch-T)" stroke="#ffffff" stroke-width="0.6"></circle>
<circle cx="802.9" cy="330.0" r="2.5" fill="#000000" stroke="#ffffff" stroke-width="0.8"></circle>
<circle cx="850.9" cy="330.0" r="2.5" fill="#ffffff"></circle>
<text x="826.9" y="304.0" fill="#ffffff" font-size="9" text-anchor="middle" font-family="monospace" font-weight="bold">EF</text>
<text x="826.9" y="362.0" fill="#ffffff" font-size="5" text-anchor="middle" font-family="monospace">EVALF</text>
<polygon fill="none" stroke="#ffffff" stroke-width="1.3" points="881.2,340.0 863.8,350.0 846.5,340.0 846.5,320.0 863.8,310.0 881.2,320.0"></polygon>
<circle cx="863.8" cy="330.0" r="8" fill="url(#hatch-T)" stroke="#ffffff" stroke-width="0.6"></circle>
<circle cx="839.8" cy="330.0" r="2.5" fill="#000000" stroke="#ffffff" stroke-width="0.8"></circle>
<circle cx="887.8" cy="330.0" r="2.5" fill="#ffffff"></circle>
<text x="863.8" y="304.0" fill="#ffffff" font-size="9" text-anchor="middle" font-family="monospace" font-weight="bold">EG</text>
<text x="863.8" y="362.0" fill="#ffffff" font-size="5" text-anchor="middle" font-family="monospace">ENGAGR</text>
<polygon fill="none" stroke="#ffffff" stroke-width="1.3" points="900.7692307692307,310.0 920.8,330 900.7692307692307,350.0 880.8,330"></polygon>
<circle cx="900.8" cy="330.0" r="8" fill="url(#hatch-T)" stroke="#ffffff" stroke-width="0.6"></circle>
<circle cx="876.8" cy="330.0" r="2.5" fill="#000000" stroke="#ffffff" stroke-width="0.8"></circle>
<circle cx="924.8" cy="330.0" r="2.5" fill="#ffffff"></circle>
<text x="900.8" y="304.0" fill="#ffffff" font-size="9" text-anchor="middle" font-family="monospace" font-weight="bold">FF</text>
<text x="900.8" y="362.0" fill="#ffffff" font-size="5" text-anchor="middle" font-family="monospace">FFUSE</text>
<rect fill="none" stroke="#ffffff" stroke-width="1.3" x="917.7" y="310.0" width="40.0" height="40.0"></rect>
<circle cx="937.7" cy="330.0" r="8" fill="url(#hatch-T)" stroke="#ffffff" stroke-width="0.6"></circle>
<circle cx="913.7" cy="330.0" r="2.5" fill="#000000" stroke="#ffffff" stroke-width="0.8"></circle>
<circle cx="961.7" cy="330.0" r="2.5" fill="#ffffff"></circle>
<text x="937.7" y="304.0" fill="#ffffff" font-size="9" text-anchor="middle" font-family="monospace" font-weight="bold">IX</text>
<text x="937.7" y="362.0" fill="#ffffff" font-size="5" text-anchor="middle" font-family="monospace">IFIX</text>
<circle fill="none" stroke="#ffffff" stroke-width="1.3" cx="974.6" cy="330.0" r="20.0"></circle>
<circle cx="974.6" cy="330.0" r="8" fill="url(#hatch-T)" stroke="#ffffff" stroke-width="0.6"></circle>
<circle cx="950.6" cy="330.0" r="2.5" fill="#000000" stroke="#ffffff" stroke-width="0.8"></circle>
<circle cx="998.6" cy="330.0" r="2.5" fill="#ffffff"></circle>
<text x="974.6" y="304.0" fill="#ffffff" font-size="9" text-anchor="middle" font-family="monospace" font-weight="bold">IM</text>
<text x="974.6" y="362.0" fill="#ffffff" font-size="5" text-anchor="middle" font-family="monospace">IMSCRIB</text>
<circle fill="none" stroke="#ffffff" stroke-width="1.3" cx="1011.5" cy="330.0" r="20.0"></circle>
<circle cx="1011.5" cy="330.0" r="8" fill="url(#hatch-T)" stroke="#ffffff" stroke-width="0.6"></circle>
<circle cx="987.5" cy="330.0" r="2.5" fill="#000000" stroke="#ffffff" stroke-width="0.8"></circle>
<circle cx="1035.5" cy="330.0" r="2.5" fill="#ffffff"></circle>
<text x="1011.5" y="304.0" fill="#ffffff" font-size="9" text-anchor="middle" font-family="monospace" font-weight="bold">TA</text>
<text x="1011.5" y="362.0" fill="#ffffff" font-size="5" text-anchor="middle" font-family="monospace">TANCH</text>
<path d="M 1011.5,310.0 C 1011.5,252.0 273.1,252.0 273.1,310.0" fill="none" stroke="#ffffff" stroke-width="1.0"></path>
<polygon points="273.1,310.0 269.9,302.0 276.3,302.0" fill="#ffffff"></polygon>
<text x="642.3" y="248.0" fill="#ffffff" font-size="7" text-anchor="middle" font-family="monospace">O₁</text>
<text x="14.0" y="72.0" fill="#ffffff" font-size="6" text-anchor="start" font-family="monospace" font-weight="bold">EDGES</text>
<line x1="14.0" y1="82.0" x2="36.0" y2="82.0" stroke="#ffffff" stroke-width="1.5" opacity="0.7"></line>
<text x="42.0" y="84.0" fill="#ffffff" font-size="5" text-anchor="start" font-family="monospace">VI</text>
<line x1="14.0" y1="91.5" x2="36.0" y2="91.5" stroke="#ffffff" stroke-width="1.5" opacity="0.7" stroke-dasharray="5,2,1,2,1,2"></line>
<text x="42.0" y="93.5" fill="#ffffff" font-size="5" text-anchor="start" font-family="monospace">TA</text>
<line x1="14.0" y1="101.0" x2="36.0" y2="101.0" stroke="#ffffff" stroke-width="2.0" opacity="0.7"></line>
<text x="42.0" y="103.0" fill="#ffffff" font-size="5" text-anchor="start" font-family="monospace">AF</text>
<line x1="14.0" y1="110.5" x2="36.0" y2="110.5" stroke="#ffffff" stroke-width="1.5" opacity="0.7" stroke-dasharray="6,4"></line>
<text x="42.0" y="112.5" fill="#ffffff" font-size="5" text-anchor="start" font-family="monospace">AR</text>
<line x1="14.0" y1="119.0" x2="36.0" y2="119.0" stroke="#ffffff" stroke-width="1.0" opacity="0.7"></line>
<line x1="14.0" y1="121.0" x2="36.0" y2="121.0" stroke="#ffffff" stroke-width="1.0" opacity="0.7"></line>
<text x="42.0" y="122.0" fill="#ffffff" font-size="5" text-anchor="start" font-family="monospace">CL</text>
<line x1="14.0" y1="129.5" x2="36.0" y2="129.5" stroke="#ffffff" stroke-width="1.5" opacity="0.7"></line>
<text x="42.0" y="131.5" fill="#ffffff" font-size="5" text-anchor="start" font-family="monospace">IM</text>
<line x1="14.0" y1="139.0" x2="36.0" y2="139.0" stroke="#ffffff" stroke-width="1.5" opacity="0.7"></line>
<text x="42.0" y="141.0" fill="#ffffff" font-size="5" text-anchor="start" font-family="monospace">FS</text>
<line x1="14.0" y1="148.5" x2="36.0" y2="148.5" stroke="#ffffff" stroke-width="1.5" opacity="0.7"></line>
<text x="42.0" y="150.5" fill="#ffffff" font-size="5" text-anchor="start" font-family="monospace">FF</text>
<line x1="14.0" y1="158.0" x2="36.0" y2="158.0" stroke="#ffffff" stroke-width="1.5" opacity="0.7"></line>
<text x="42.0" y="160.0" fill="#ffffff" font-size="5" text-anchor="start" font-family="monospace">ET</text>
<line x1="14.0" y1="167.5" x2="36.0" y2="167.5" stroke="#ffffff" stroke-width="1.5" opacity="0.7"></line>
<text x="42.0" y="169.5" fill="#ffffff" font-size="5" text-anchor="start" font-family="monospace">EF</text>
<polyline points="14.0,179.0 18.0,175.0 22.0,179.0 26.0,175.0 30.0,179.0 34.0,175.0 36.0,177.0" fill="none" stroke="#ffffff" stroke-width="1.0"></polyline>
<text x="42.0" y="179.0" fill="#ffffff" font-size="5" text-anchor="start" font-family="monospace">EG</text>
<line x1="14.0" y1="186.5" x2="36.0" y2="186.5" stroke="#ffffff" stroke-width="1.5" opacity="0.7" stroke-dasharray="2,2"></line>
<text x="42.0" y="188.5" fill="#ffffff" font-size="5" text-anchor="start" font-family="monospace">IX</text>
<text x="14.0" y="195.0" fill="#ffffff" font-size="6" text-anchor="start" font-family="monospace" font-weight="bold">GUARD</text>
<circle cx="17" cy="206" r="2.5" fill="#000000" stroke="#ffffff" stroke-width="0.8"></circle>
<text x="24.0" y="208.0" fill="#ffffff" font-size="5" text-anchor="start" font-family="monospace">in</text>
<circle cx="17" cy="216" r="2.5" fill="#ffffff"></circle>
<text x="24.0" y="218.0" fill="#ffffff" font-size="5" text-anchor="start" font-family="monospace">out</text>
<text x="14.0" y="231.0" fill="#ffffff" font-size="6" text-anchor="start" font-family="monospace" font-weight="bold">NODES</text>
<circle fill="none" stroke="#ffffff" stroke-width="1.0" cx="18.0" cy="246.0" r="4.0"></circle>
<text x="28.0" y="248.0" fill="#ffffff" font-size="5" text-anchor="start" font-family="monospace">LOGI</text>
<polygon fill="none" stroke="#ffffff" stroke-width="1.0" points="18,254.0 22.0,258 18,262.0 14.0,258"></polygon>
<text x="28.0" y="260.0" fill="#ffffff" font-size="5" text-anchor="start" font-family="monospace">FROB</text>
<polygon fill="none" stroke="#ffffff" stroke-width="1.0" points="21.5,272.0 18.0,274.0 14.5,272.0 14.5,268.0 18.0,266.0 21.5,268.0"></polygon>
<text x="28.0" y="272.0" fill="#ffffff" font-size="5" text-anchor="start" font-family="monospace">DIAL</text>
<rect fill="none" stroke="#ffffff" stroke-width="1.0" x="14.0" y="278.0" width="8.0" height="8.0"></rect>
<text x="28.0" y="284.0" fill="#ffffff" font-size="5" text-anchor="start" font-family="monospace">LINE</text>
<text x="14.0" y="294.0" fill="#ffffff" font-size="6" text-anchor="start" font-family="monospace" font-weight="bold">PAIRS</text>
<circle cx="18" cy="306" r="5" fill="#000000" stroke="#ffffff" stroke-width="0.8"></circle>
<text x="18.0" y="309.0" fill="#ffffff" font-size="6" text-anchor="middle" font-family="monospace">1</text>
<text x="28.0" y="308.0" fill="#ffffff" font-size="5" text-anchor="start" font-family="monospace">pair</text>
<text x="14.0" y="324.0" fill="#ffffff" font-size="6" text-anchor="start" font-family="monospace" font-weight="bold">REG Δ</text>
<text x="14.0" y="336.0" fill="#ffffff" font-size="5" text-anchor="start" font-family="monospace">↑ T</text>
<text x="14.0" y="345.0" fill="#ffffff" font-size="5" text-anchor="start" font-family="monospace">↓ F</text>
<text x="14.0" y="354.0" fill="#ffffff" font-size="5" text-anchor="start" font-family="monospace">↑↓ B</text>
<text x="610.0" y="708.0" fill="#ffffff" font-size="7" text-anchor="middle" font-family="monospace">Ouroboricity: O₁</text>
</svg>