<svg xmlns="http://www.w3.org/2000/svg" viewBox="0 0 1100 630">
<rect width="1100" height="630" fill="#0a0a15"/>
<line x1="0.0" y1="0.0" x2="0.0" y2="630.0" stroke="#151525" stroke-width="0.4" opacity="0.25"></line>
<line x1="40.0" y1="0.0" x2="40.0" y2="630.0" stroke="#151525" stroke-width="0.4" opacity="0.25"></line>
<line x1="80.0" y1="0.0" x2="80.0" y2="630.0" stroke="#151525" stroke-width="0.4" opacity="0.25"></line>
<line x1="120.0" y1="0.0" x2="120.0" y2="630.0" stroke="#151525" stroke-width="0.4" opacity="0.25"></line>
<line x1="160.0" y1="0.0" x2="160.0" y2="630.0" stroke="#151525" stroke-width="0.4" opacity="0.25"></line>
<line x1="200.0" y1="0.0" x2="200.0" y2="630.0" stroke="#151525" stroke-width="0.4" opacity="0.25"></line>
<line x1="240.0" y1="0.0" x2="240.0" y2="630.0" stroke="#151525" stroke-width="0.4" opacity="0.25"></line>
<line x1="280.0" y1="0.0" x2="280.0" y2="630.0" stroke="#151525" stroke-width="0.4" opacity="0.25"></line>
<line x1="320.0" y1="0.0" x2="320.0" y2="630.0" stroke="#151525" stroke-width="0.4" opacity="0.25"></line>
<line x1="360.0" y1="0.0" x2="360.0" y2="630.0" stroke="#151525" stroke-width="0.4" opacity="0.25"></line>
<line x1="400.0" y1="0.0" x2="400.0" y2="630.0" stroke="#151525" stroke-width="0.4" opacity="0.25"></line>
<line x1="440.0" y1="0.0" x2="440.0" y2="630.0" stroke="#151525" stroke-width="0.4" opacity="0.25"></line>
<line x1="480.0" y1="0.0" x2="480.0" y2="630.0" stroke="#151525" stroke-width="0.4" opacity="0.25"></line>
<line x1="520.0" y1="0.0" x2="520.0" y2="630.0" stroke="#151525" stroke-width="0.4" opacity="0.25"></line>
<line x1="560.0" y1="0.0" x2="560.0" y2="630.0" stroke="#151525" stroke-width="0.4" opacity="0.25"></line>
<line x1="600.0" y1="0.0" x2="600.0" y2="630.0" stroke="#151525" stroke-width="0.4" opacity="0.25"></line>
<line x1="640.0" y1="0.0" x2="640.0" y2="630.0" stroke="#151525" stroke-width="0.4" opacity="0.25"></line>
<line x1="680.0" y1="0.0" x2="680.0" y2="630.0" stroke="#151525" stroke-width="0.4" opacity="0.25"></line>
<line x1="720.0" y1="0.0" x2="720.0" y2="630.0" stroke="#151525" stroke-width="0.4" opacity="0.25"></line>
<line x1="760.0" y1="0.0" x2="760.0" y2="630.0" stroke="#151525" stroke-width="0.4" opacity="0.25"></line>
<line x1="800.0" y1="0.0" x2="800.0" y2="630.0" stroke="#151525" stroke-width="0.4" opacity="0.25"></line>
<line x1="840.0" y1="0.0" x2="840.0" y2="630.0" stroke="#151525" stroke-width="0.4" opacity="0.25"></line>
<line x1="880.0" y1="0.0" x2="880.0" y2="630.0" stroke="#151525" stroke-width="0.4" opacity="0.25"></line>
<line x1="920.0" y1="0.0" x2="920.0" y2="630.0" stroke="#151525" stroke-width="0.4" opacity="0.25"></line>
<line x1="960.0" y1="0.0" x2="960.0" y2="630.0" stroke="#151525" stroke-width="0.4" opacity="0.25"></line>
<line x1="1000.0" y1="0.0" x2="1000.0" y2="630.0" stroke="#151525" stroke-width="0.4" opacity="0.25"></line>
<line x1="1040.0" y1="0.0" x2="1040.0" y2="630.0" stroke="#151525" stroke-width="0.4" opacity="0.25"></line>
<line x1="1080.0" y1="0.0" x2="1080.0" y2="630.0" stroke="#151525" stroke-width="0.4" opacity="0.25"></line>
<line x1="0.0" y1="0.0" x2="1100.0" y2="0.0" stroke="#151525" stroke-width="0.4" opacity="0.25"></line>
<line x1="0.0" y1="40.0" x2="1100.0" y2="40.0" stroke="#151525" stroke-width="0.4" opacity="0.25"></line>
<line x1="0.0" y1="80.0" x2="1100.0" y2="80.0" stroke="#151525" stroke-width="0.4" opacity="0.25"></line>
<line x1="0.0" y1="120.0" x2="1100.0" y2="120.0" stroke="#151525" stroke-width="0.4" opacity="0.25"></line>
<line x1="0.0" y1="160.0" x2="1100.0" y2="160.0" stroke="#151525" stroke-width="0.4" opacity="0.25"></line>
<line x1="0.0" y1="200.0" x2="1100.0" y2="200.0" stroke="#151525" stroke-width="0.4" opacity="0.25"></line>
<line x1="0.0" y1="240.0" x2="1100.0" y2="240.0" stroke="#151525" stroke-width="0.4" opacity="0.25"></line>
<line x1="0.0" y1="280.0" x2="1100.0" y2="280.0" stroke="#151525" stroke-width="0.4" opacity="0.25"></line>
<line x1="0.0" y1="320.0" x2="1100.0" y2="320.0" stroke="#151525" stroke-width="0.4" opacity="0.25"></line>
<line x1="0.0" y1="360.0" x2="1100.0" y2="360.0" stroke="#151525" stroke-width="0.4" opacity="0.25"></line>
<line x1="0.0" y1="400.0" x2="1100.0" y2="400.0" stroke="#151525" stroke-width="0.4" opacity="0.25"></line>
<line x1="0.0" y1="440.0" x2="1100.0" y2="440.0" stroke="#151525" stroke-width="0.4" opacity="0.25"></line>
<line x1="0.0" y1="480.0" x2="1100.0" y2="480.0" stroke="#151525" stroke-width="0.4" opacity="0.25"></line>
<line x1="0.0" y1="520.0" x2="1100.0" y2="520.0" stroke="#151525" stroke-width="0.4" opacity="0.25"></line>
<line x1="0.0" y1="560.0" x2="1100.0" y2="560.0" stroke="#151525" stroke-width="0.4" opacity="0.25"></line>
<line x1="0.0" y1="600.0" x2="1100.0" y2="600.0" stroke="#151525" stroke-width="0.4" opacity="0.25"></line>
<text x="550.0" y="26.0" fill="#cccccc" font-size="13" text-anchor="middle" font-family="monospace" font-weight="bold">climate disaster prevention</text>
<text x="22.0" y="190.0" fill="#20c0b0" font-size="7" text-anchor="middle" font-family="monospace">T-lane</text>
<text x="22.0" y="470.0" fill="#e04060" font-size="7" text-anchor="middle" font-family="monospace">F-lane</text>
<text x="22.0" y="330.0" fill="#555" font-size="7" text-anchor="middle" font-family="monospace">main</text>
<line x1="570.0" y1="145.0" x2="570.0" y2="515.0" stroke="#cc3344" stroke-width="1.8" opacity="0.4" stroke-dasharray="6,4"></line>
<text x="570.0" y="135.0" fill="#cc3344" font-size="7" text-anchor="middle" font-family="monospace" font-weight="bold">IFIX</text>
<polygon points="570.0,141.0 574.0,145 570.0,149.0 566.0,145" fill="#cc3344" opacity="0.6"></polygon>
<polygon points="570.0,511.0 574.0,515 570.0,519.0 566.0,515" fill="#cc3344" opacity="0.6"></polygon>
<line x1="330.0" y1="330.0" x2="348.0" y2="330.0" stroke="#5b9bd5" stroke-width="1.4" opacity="0.55"></line>
<line x1="348.0" y1="330.0" x2="348.0" y2="190.0" stroke="#5b9bd5" stroke-width="1.4" opacity="0.55"></line>
<line x1="348.0" y1="190.0" x2="355.3" y2="190.0" stroke="#5b9bd5" stroke-width="1.4" opacity="0.55"></line>
<polygon points="363.3,190.0 355.3,193.2 355.3,186.8" fill="#5b9bd5" opacity="0.55"></polygon>
<rect x="336.7" y="248.0" width="20.0" height="10" fill="#0a0a15" opacity="0.7" rx="3"></rect>
<text x="346.7" y="256.0" fill="#666688" font-size="6" text-anchor="middle" font-family="monospace">↑↓→↑↓</text>
<line x1="363.3" y1="190.0" x2="395.3" y2="190.0" stroke="#20d0b8" stroke-width="1.3" opacity="0.55"></line>
<polygon points="403.3,190.0 395.3,193.2 395.3,186.8" fill="#20d0b8" opacity="0.55"></polygon>
<rect x="373.3" y="178.0" width="20.0" height="10" fill="#0a0a15" opacity="0.7" rx="3"></rect>
<text x="383.3" y="186.0" fill="#666688" font-size="6" text-anchor="middle" font-family="monospace">↑↓→↑↓</text>
<line x1="403.3" y1="190.0" x2="433.7" y2="190.0" stroke="#59a14f" stroke-width="1.3" opacity="0.55"></line>
<line x1="433.7" y1="190.0" x2="433.7" y2="330.0" stroke="#59a14f" stroke-width="1.3" opacity="0.55"></line>
<line x1="433.7" y1="330.0" x2="482.0" y2="330.0" stroke="#59a14f" stroke-width="1.3" opacity="0.55"></line>
<polygon points="490.0,330.0 482.0,333.2 482.0,326.8" fill="#59a14f" opacity="0.55"></polygon>
<rect x="438.7" y="248.0" width="16.0" height="10" fill="#0a0a15" opacity="0.7" rx="3"></rect>
<text x="446.7" y="256.0" fill="#ffd700" font-size="6" text-anchor="middle" font-family="monospace">↑↓→↑</text>
<line x1="330.0" y1="330.0" x2="356.0" y2="330.0" stroke="#2b6b9f" stroke-width="1.4" opacity="0.55"></line>
<line x1="356.0" y1="330.0" x2="356.0" y2="470.0" stroke="#2b6b9f" stroke-width="1.4" opacity="0.55"></line>
<line x1="356.0" y1="470.0" x2="368.7" y2="470.0" stroke="#2b6b9f" stroke-width="1.4" opacity="0.55"></line>
<polygon points="376.7,470.0 368.7,473.2 368.7,466.8" fill="#2b6b9f" opacity="0.55"></polygon>
<rect x="343.3" y="388.0" width="20.0" height="10" fill="#0a0a15" opacity="0.7" rx="3"></rect>
<text x="353.3" y="396.0" fill="#666688" font-size="6" text-anchor="middle" font-family="monospace">↑↓→↑↓</text>
<line x1="376.7" y1="470.0" x2="408.7" y2="470.0" stroke="#ff6688" stroke-width="1.3" opacity="0.55"></line>
<polygon points="416.7,470.0 408.7,473.2 408.7,466.8" fill="#ff6688" opacity="0.55"></polygon>
<rect x="386.7" y="458.0" width="20.0" height="10" fill="#0a0a15" opacity="0.7" rx="3"></rect>
<text x="396.7" y="466.0" fill="#666688" font-size="6" text-anchor="middle" font-family="monospace">↑↓→↑↓</text>
<line x1="416.7" y1="470.0" x2="442.0" y2="470.0" stroke="#e15759" stroke-width="1.3" opacity="0.55"></line>
<polygon points="450.0,470.0 442.0,473.2 442.0,466.8" fill="#e15759" opacity="0.55"></polygon>
<rect x="423.3" y="458.0" width="20.0" height="10" fill="#0a0a15" opacity="0.7" rx="3"></rect>
<text x="433.3" y="466.0" fill="#666688" font-size="6" text-anchor="middle" font-family="monospace">↑↓→↑↓</text>
<line x1="450.0" y1="470.0" x2="476.0" y2="470.0" stroke="#e15759" stroke-width="1.3" opacity="0.55"></line>
<line x1="476.0" y1="470.0" x2="476.0" y2="330.0" stroke="#e15759" stroke-width="1.3" opacity="0.55"></line>
<line x1="476.0" y1="330.0" x2="482.0" y2="330.0" stroke="#e15759" stroke-width="1.3" opacity="0.55"></line>
<polygon points="490.0,330.0 482.0,333.2 482.0,326.8" fill="#e15759" opacity="0.55"></polygon>
<rect x="462.0" y="388.0" width="16.0" height="10" fill="#0a0a15" opacity="0.7" rx="3"></rect>
<text x="470.0" y="396.0" fill="#ffd700" font-size="6" text-anchor="middle" font-family="monospace">↑↓→↑</text>
<line x1="90.0" y1="330.0" x2="122.0" y2="330.0" stroke="#6baed6" stroke-width="1.3" opacity="0.75"></line>
<polygon points="130.0,330.0 122.0,333.2 122.0,326.8" fill="#6baed6" opacity="0.75"></polygon>
<line x1="130.0" y1="330.0" x2="162.0" y2="330.0" stroke="#b07aa1" stroke-width="1.3" opacity="0.75" stroke-dasharray="4,3"></line>
<polygon points="170.0,330.0 162.0,333.2 162.0,326.8" fill="#b07aa1" opacity="0.75"></polygon>
<rect x="148.0" y="318.0" width="4.0" height="10" fill="#0a0a15" opacity="0.7" rx="3"></rect>
<text x="150.0" y="326.0" fill="#20b888" font-size="6" text-anchor="middle" font-family="monospace">↑</text>
<line x1="170.0" y1="330.0" x2="202.0" y2="330.0" stroke="#59a14f" stroke-width="1.3" opacity="0.75"></line>
<polygon points="210.0,330.0 202.0,333.2 202.0,326.8" fill="#59a14f" opacity="0.75"></polygon>
<rect x="182.0" y="318.0" width="16.0" height="10" fill="#0a0a15" opacity="0.7" rx="3"></rect>
<text x="190.0" y="326.0" fill="#ffd700" font-size="6" text-anchor="middle" font-family="monospace">↑→↑↓</text>
<line x1="210.0" y1="330.0" x2="242.0" y2="330.0" stroke="#e15759" stroke-width="1.3" opacity="0.75"></line>
<polygon points="250.0,330.0 242.0,333.2 242.0,326.8" fill="#e15759" opacity="0.75"></polygon>
<rect x="220.0" y="318.0" width="20.0" height="10" fill="#0a0a15" opacity="0.7" rx="3"></rect>
<text x="230.0" y="326.0" fill="#666688" font-size="6" text-anchor="middle" font-family="monospace">↑↓→↑↓</text>
<line x1="250.0" y1="326.5" x2="281.0" y2="326.5" stroke="#f28e2b" stroke-width="1.0" opacity="0.75"></line>
<line x1="250.0" y1="333.5" x2="281.0" y2="333.5" stroke="#f28e2b" stroke-width="1.0" opacity="0.75"></line>
<polygon points="290.0,330.0 280.0,334.0 280.0,326.0" fill="#f28e2b" opacity="0.75"></polygon>
<rect x="260.0" y="318.0" width="20.0" height="10" fill="#0a0a15" opacity="0.7" rx="3"></rect>
<text x="270.0" y="326.0" fill="#666688" font-size="6" text-anchor="middle" font-family="monospace">↑↓→↑↓</text>
<line x1="290.0" y1="330.0" x2="322.0" y2="330.0" stroke="#ffd700" stroke-width="1.3" opacity="0.75"></line>
<polygon points="330.0,330.0 322.0,333.2 322.0,326.8" fill="#ffd700" opacity="0.75"></polygon>
<rect x="300.0" y="318.0" width="20.0" height="10" fill="#0a0a15" opacity="0.7" rx="3"></rect>
<text x="310.0" y="326.0" fill="#666688" font-size="6" text-anchor="middle" font-family="monospace">↑↓→↑↓</text>
<line x1="530.0" y1="326.5" x2="561.0" y2="326.5" stroke="#f28e2b" stroke-width="1.0" opacity="0.75"></line>
<line x1="530.0" y1="333.5" x2="561.0" y2="333.5" stroke="#f28e2b" stroke-width="1.0" opacity="0.75"></line>
<polygon points="570.0,330.0 560.0,334.0 560.0,326.0" fill="#f28e2b" opacity="0.75"></polygon>
<line x1="570.0" y1="330.0" x2="602.0" y2="330.0" stroke="#cc3344" stroke-width="1.3" opacity="0.75"></line>
<polygon points="610.0,330.0 602.0,333.2 602.0,326.8" fill="#cc3344" opacity="0.75"></polygon>
<rect x="588.0" y="318.0" width="4.0" height="10" fill="#0a0a15" opacity="0.7" rx="3"></rect>
<text x="590.0" y="326.0" fill="#20b888" font-size="6" text-anchor="middle" font-family="monospace">↑</text>
<line x1="610.0" y1="330.0" x2="642.0" y2="330.0" stroke="#ffd700" stroke-width="1.3" opacity="0.75"></line>
<polygon points="650.0,330.0 642.0,333.2 642.0,326.8" fill="#ffd700" opacity="0.75"></polygon>
<line x1="650.0" y1="330.0" x2="682.0" y2="330.0" stroke="#59a14f" stroke-width="1.3" opacity="0.75"></line>
<polygon points="690.0,330.0 682.0,333.2 682.0,326.8" fill="#59a14f" opacity="0.75"></polygon>
<line x1="690.0" y1="330.0" x2="722.0" y2="330.0" stroke="#e15759" stroke-width="1.3" opacity="0.75"></line>
<polygon points="730.0,330.0 722.0,333.2 722.0,326.8" fill="#e15759" opacity="0.75"></polygon>
<line x1="730.0" y1="326.5" x2="761.0" y2="326.5" stroke="#f28e2b" stroke-width="1.0" opacity="0.75"></line>
<line x1="730.0" y1="333.5" x2="761.0" y2="333.5" stroke="#f28e2b" stroke-width="1.0" opacity="0.75"></line>
<polygon points="770.0,330.0 760.0,334.0 760.0,326.0" fill="#f28e2b" opacity="0.75"></polygon>
<line x1="770.0" y1="330.0" x2="802.0" y2="330.0" stroke="#20d0b8" stroke-width="1.3" opacity="0.75"></line>
<polygon points="810.0,330.0 802.0,333.2 802.0,326.8" fill="#20d0b8" opacity="0.75"></polygon>
<line x1="810.0" y1="330.0" x2="842.0" y2="330.0" stroke="#ff6688" stroke-width="1.3" opacity="0.75"></line>
<polygon points="850.0,330.0 842.0,333.2 842.0,326.8" fill="#ff6688" opacity="0.75"></polygon>
<line x1="850.0" y1="330.0" x2="882.0" y2="330.0" stroke="#e15759" stroke-width="1.3" opacity="0.75"></line>
<polygon points="890.0,330.0 882.0,333.2 882.0,326.8" fill="#e15759" opacity="0.75"></polygon>
<line x1="890.0" y1="330.0" x2="922.0" y2="330.0" stroke="#ffd700" stroke-width="1.3" opacity="0.75"></line>
<polygon points="930.0,330.0 922.0,333.2 922.0,326.8" fill="#ffd700" opacity="0.75"></polygon>
<line x1="930.0" y1="330.0" x2="962.0" y2="330.0" stroke="#cc3344" stroke-width="1.3" opacity="0.75"></line>
<polygon points="970.0,330.0 962.0,333.2 962.0,326.8" fill="#cc3344" opacity="0.75"></polygon>
<line x1="970.0" y1="330.0" x2="1002.0" y2="330.0" stroke="#ffd700" stroke-width="1.3" opacity="0.75"></line>
<polygon points="1010.0,330.0 1002.0,333.2 1002.0,326.8" fill="#ffd700" opacity="0.75"></polygon>
<line x1="490.0" y1="330.0" x2="522.0" y2="330.0" stroke="#ffd700" stroke-width="1.3" opacity="0.55"></line>
<polygon points="530.0,330.0 522.0,333.2 522.0,326.8" fill="#ffd700" opacity="0.55"></polygon>
<rect x="506.0" y="318.0" width="8.0" height="10" fill="#0a0a15" opacity="0.7" rx="3"></rect>
<text x="510.0" y="326.0" fill="#20b888" font-size="6" text-anchor="middle" font-family="monospace">↑→</text>
<circle cx="90.0" cy="330.0" r="22.0" fill="#4e79a7" stroke="#ffffff20" stroke-width="1.0"></circle>
<text x="90.0" y="300.0" fill="#cccccc" font-size="8" text-anchor="middle" font-family="monospace" font-weight="bold">VI</text>
<text x="90.0" y="364.0" fill="#888" font-size="5.5" text-anchor="middle" font-family="monospace">VINIT</text>
<circle cx="113.0" cy="330.0" r="2.5" fill="#ffffff90" stroke-width="0"></circle>
<circle cx="130.0" cy="330.0" r="22.0" fill="#4e79a7" stroke="#ffffff20" stroke-width="1.0"></circle>
<text x="130.0" y="300.0" fill="#cccccc" font-size="8" text-anchor="middle" font-family="monospace" font-weight="bold">TA</text>
<text x="130.0" y="364.0" fill="#888" font-size="5.5" text-anchor="middle" font-family="monospace">TANCH</text>
<circle cx="107.0" cy="330.0" r="2.5" fill="#ffffff60" stroke-width="0"></circle>
<circle cx="153.0" cy="330.0" r="2.5" fill="#ffffff90" stroke-width="0"></circle>
<circle cx="170.0" cy="330.0" r="22.0" fill="#4e79a7" stroke="#ffffff20" stroke-width="1.0"></circle>
<circle cx="170.0" cy="330.0" r="12.1" fill="#153530" stroke-width="0"></circle>
<text x="170.0" y="332.0" fill="#20b2aa" font-size="7" text-anchor="middle" font-family="monospace" font-weight="bold">↑</text>
<text x="170.0" y="300.0" fill="#cccccc" font-size="8" text-anchor="middle" font-family="monospace" font-weight="bold">AF</text>
<text x="170.0" y="364.0" fill="#888" font-size="5.5" text-anchor="middle" font-family="monospace">AFWD</text>
<circle cx="147.0" cy="330.0" r="2.5" fill="#ffffff60" stroke-width="0"></circle>
<circle cx="193.0" cy="330.0" r="2.5" fill="#ffffff90" stroke-width="0"></circle>
<circle cx="210.0" cy="330.0" r="22.0" fill="#4e79a7" stroke="#ffffff20" stroke-width="1.0"></circle>
<circle cx="210.0" cy="330.0" r="12.1" fill="#332200" stroke-width="0"></circle>
<text x="210.0" y="332.0" fill="#ffd700" font-size="7" text-anchor="middle" font-family="monospace" font-weight="bold">↑↓</text>
<text x="210.0" y="300.0" fill="#cccccc" font-size="8" text-anchor="middle" font-family="monospace" font-weight="bold">AR</text>
<text x="210.0" y="364.0" fill="#888" font-size="5.5" text-anchor="middle" font-family="monospace">AREV</text>
<circle cx="187.0" cy="330.0" r="2.5" fill="#ffffff60" stroke-width="0"></circle>
<circle cx="233.0" cy="330.0" r="2.5" fill="#ffffff90" stroke-width="0"></circle>
<circle cx="250.0" cy="330.0" r="22.0" fill="#4e79a7" stroke="#ffffff20" stroke-width="1.0"></circle>
<circle cx="250.0" cy="330.0" r="12.1" fill="#332200" stroke-width="0"></circle>
<text x="250.0" y="332.0" fill="#ffd700" font-size="7" text-anchor="middle" font-family="monospace" font-weight="bold">↑↓</text>
<text x="250.0" y="300.0" fill="#cccccc" font-size="8" text-anchor="middle" font-family="monospace" font-weight="bold">CL</text>
<text x="250.0" y="364.0" fill="#888" font-size="5.5" text-anchor="middle" font-family="monospace">CLINK</text>
<circle cx="227.0" cy="330.0" r="2.5" fill="#ffffff60" stroke-width="0"></circle>
<circle cx="273.0" cy="330.0" r="2.5" fill="#ffffff90" stroke-width="0"></circle>
<circle cx="290.0" cy="330.0" r="22.0" fill="#4e79a7" stroke="#ffffff20" stroke-width="1.0"></circle>
<circle cx="290.0" cy="330.0" r="12.1" fill="#332200" stroke-width="0"></circle>
<text x="290.0" y="332.0" fill="#ffd700" font-size="7" text-anchor="middle" font-family="monospace" font-weight="bold">↑↓</text>
<text x="290.0" y="300.0" fill="#cccccc" font-size="8" text-anchor="middle" font-family="monospace" font-weight="bold">IM</text>
<text x="290.0" y="364.0" fill="#888" font-size="5.5" text-anchor="middle" font-family="monospace">IMSCRIB</text>
<circle cx="267.0" cy="330.0" r="2.5" fill="#ffffff60" stroke-width="0"></circle>
<circle cx="313.0" cy="330.0" r="2.5" fill="#ffffff90" stroke-width="0"></circle>
<polygon points="330.0,308.0 352.0,330 330.0,352.0 308.0,330" fill="#ffd700" stroke="#ffffff20" stroke-width="1.0"></polygon>
<circle cx="330.0" cy="330.0" r="12.1" fill="#332200" stroke-width="0"></circle>
<text x="330.0" y="332.0" fill="#ffd700" font-size="7" text-anchor="middle" font-family="monospace" font-weight="bold">↑↓</text>
<text x="330.0" y="300.0" fill="#cccccc" font-size="8" text-anchor="middle" font-family="monospace" font-weight="bold">FS</text>
<text x="330.0" y="364.0" fill="#888" font-size="5.5" text-anchor="middle" font-family="monospace">FSPLIT</text>
<circle cx="307.0" cy="330.0" r="2.5" fill="#ffffff60" stroke-width="0"></circle>
<circle cx="353.0" cy="323.0" r="2.5" fill="#ffffff90" stroke-width="0"></circle>
<circle cx="353.0" cy="337.0" r="2.5" fill="#ffffff90" stroke-width="0"></circle>
<polygon points="382.4,201.0 363.3,212.0 344.3,201.0 344.3,179.0 363.3,168.0 382.4,179.0" fill="#e15759" stroke="#ffffff20" stroke-width="1.0"></polygon>
<circle cx="363.3" cy="190.0" r="12.1" fill="#332200" stroke-width="0"></circle>
<text x="363.3" y="192.0" fill="#ffd700" font-size="7" text-anchor="middle" font-family="monospace" font-weight="bold">↑↓</text>
<text x="363.3" y="160.0" fill="#cccccc" font-size="8" text-anchor="middle" font-family="monospace" font-weight="bold">ET</text>
<text x="363.3" y="224.0" fill="#888" font-size="5.5" text-anchor="middle" font-family="monospace">EVALT</text>
<circle cx="340.3" cy="190.0" r="3.5" fill="#f28e2b" stroke-width="0.8"></circle>
<circle cx="386.3" cy="190.0" r="3.5" fill="#59a14f" stroke-width="0.9"></circle>
<circle cx="403.3" cy="190.0" r="22.0" fill="#4e79a7" stroke="#ffffff20" stroke-width="1.0"></circle>
<circle cx="403.3" cy="190.0" r="12.1" fill="#332200" stroke-width="0"></circle>
<text x="403.3" y="192.0" fill="#ffd700" font-size="7" text-anchor="middle" font-family="monospace" font-weight="bold">↑↓</text>
<text x="403.3" y="160.0" fill="#cccccc" font-size="8" text-anchor="middle" font-family="monospace" font-weight="bold">AF</text>
<text x="403.3" y="224.0" fill="#888" font-size="5.5" text-anchor="middle" font-family="monospace">AFWD</text>
<circle cx="380.3" cy="190.0" r="2.5" fill="#ffffff60" stroke-width="0"></circle>
<circle cx="426.3" cy="190.0" r="2.5" fill="#ffffff90" stroke-width="0"></circle>
<polygon points="395.7,481.0 376.7,492.0 357.6,481.0 357.6,459.0 376.7,448.0 395.7,459.0" fill="#e15759" stroke="#ffffff20" stroke-width="1.0"></polygon>
<circle cx="376.7" cy="470.0" r="12.1" fill="#332200" stroke-width="0"></circle>
<text x="376.7" y="472.0" fill="#ffd700" font-size="7" text-anchor="middle" font-family="monospace" font-weight="bold">↑↓</text>
<text x="376.7" y="440.0" fill="#cccccc" font-size="8" text-anchor="middle" font-family="monospace" font-weight="bold">EF</text>
<text x="376.7" y="504.0" fill="#888" font-size="5.5" text-anchor="middle" font-family="monospace">EVALF</text>
<circle cx="353.7" cy="470.0" r="3.5" fill="#f28e2b" stroke-width="0.8"></circle>
<circle cx="399.7" cy="470.0" r="3.5" fill="#59a14f" stroke-width="0.9"></circle>
<circle cx="416.7" cy="470.0" r="22.0" fill="#4e79a7" stroke="#ffffff20" stroke-width="1.0"></circle>
<circle cx="416.7" cy="470.0" r="12.1" fill="#332200" stroke-width="0"></circle>
<text x="416.7" y="472.0" fill="#ffd700" font-size="7" text-anchor="middle" font-family="monospace" font-weight="bold">↑↓</text>
<text x="416.7" y="440.0" fill="#cccccc" font-size="8" text-anchor="middle" font-family="monospace" font-weight="bold">AR</text>
<text x="416.7" y="504.0" fill="#888" font-size="5.5" text-anchor="middle" font-family="monospace">AREV</text>
<circle cx="393.7" cy="470.0" r="2.5" fill="#ffffff60" stroke-width="0"></circle>
<circle cx="439.7" cy="470.0" r="2.5" fill="#ffffff90" stroke-width="0"></circle>
<polygon points="469.1,481.0 450.0,492.0 430.9,481.0 430.9,459.0 450.0,448.0 469.1,459.0" fill="#e15759" stroke="#ffffff20" stroke-width="1.0"></polygon>
<circle cx="450.0" cy="470.0" r="12.1" fill="#332200" stroke-width="0"></circle>
<text x="450.0" y="472.0" fill="#ffd700" font-size="7" text-anchor="middle" font-family="monospace" font-weight="bold">↑↓</text>
<text x="450.0" y="440.0" fill="#cccccc" font-size="8" text-anchor="middle" font-family="monospace" font-weight="bold">EG</text>
<text x="450.0" y="504.0" fill="#888" font-size="5.5" text-anchor="middle" font-family="monospace">ENGAGR</text>
<circle cx="427.0" cy="470.0" r="2.5" fill="#ffffff60" stroke-width="0"></circle>
<circle cx="473.0" cy="470.0" r="2.5" fill="#ffffff90" stroke-width="0"></circle>
<polygon points="490.0,308.0 512.0,330 490.0,352.0 468.0,330" fill="#ffd700" stroke="#ffffff20" stroke-width="1.0"></polygon>
<circle cx="490.0" cy="330.0" r="12.1" fill="#153530" stroke-width="0"></circle>
<text x="490.0" y="332.0" fill="#20b2aa" font-size="7" text-anchor="middle" font-family="monospace" font-weight="bold">↑</text>
<text x="490.0" y="300.0" fill="#cccccc" font-size="8" text-anchor="middle" font-family="monospace" font-weight="bold">FF</text>
<text x="490.0" y="364.0" fill="#888" font-size="5.5" text-anchor="middle" font-family="monospace">FFUSE</text>
<circle cx="467.0" cy="323.0" r="2.5" fill="#ffffff60" stroke-width="0"></circle>
<circle cx="467.0" cy="337.0" r="2.5" fill="#ffffff60" stroke-width="0"></circle>
<circle cx="513.0" cy="330.0" r="2.5" fill="#ffffff90" stroke-width="0"></circle>
<circle cx="530.0" cy="330.0" r="22.0" fill="#4e79a7" stroke="#ffffff20" stroke-width="1.0"></circle>
<text x="530.0" y="300.0" fill="#cccccc" font-size="8" text-anchor="middle" font-family="monospace" font-weight="bold">CL</text>
<text x="530.0" y="364.0" fill="#888" font-size="5.5" text-anchor="middle" font-family="monospace">CLINK</text>
<circle cx="507.0" cy="330.0" r="2.5" fill="#ffffff60" stroke-width="0"></circle>
<circle cx="553.0" cy="330.0" r="2.5" fill="#ffffff90" stroke-width="0"></circle>
<rect x="548.0" y="308.0" width="44.0" height="44.0" fill="#59a14f" stroke="#ffffff20" stroke-width="1.0"></rect>
<text x="570.0" y="300.0" fill="#cccccc" font-size="8" text-anchor="middle" font-family="monospace" font-weight="bold">IX</text>
<text x="570.0" y="364.0" fill="#888" font-size="5.5" text-anchor="middle" font-family="monospace">IFIX</text>
<circle cx="547.0" cy="330.0" r="2.5" fill="#ffffff60" stroke-width="0"></circle>
<circle cx="593.0" cy="330.0" r="2.5" fill="#ffffff90" stroke-width="0"></circle>
<circle cx="610.0" cy="330.0" r="22.0" fill="#4e79a7" stroke="#ffffff20" stroke-width="1.0"></circle>
<circle cx="610.0" cy="330.0" r="12.1" fill="#153530" stroke-width="0"></circle>
<text x="610.0" y="332.0" fill="#20b2aa" font-size="7" text-anchor="middle" font-family="monospace" font-weight="bold">↑</text>
<text x="610.0" y="300.0" fill="#cccccc" font-size="8" text-anchor="middle" font-family="monospace" font-weight="bold">IM</text>
<text x="610.0" y="364.0" fill="#888" font-size="5.5" text-anchor="middle" font-family="monospace">IMSCRIB</text>
<circle cx="587.0" cy="330.0" r="2.5" fill="#ffffff60" stroke-width="0"></circle>
<circle cx="633.0" cy="330.0" r="2.5" fill="#ffffff90" stroke-width="0"></circle>
<circle cx="650.0" cy="330.0" r="22.0" fill="#4e79a7" stroke="#ffffff20" stroke-width="1.0"></circle>
<circle cx="650.0" cy="330.0" r="12.1" fill="#153530" stroke-width="0"></circle>
<text x="650.0" y="332.0" fill="#20b2aa" font-size="7" text-anchor="middle" font-family="monospace" font-weight="bold">↑</text>
<text x="650.0" y="300.0" fill="#cccccc" font-size="8" text-anchor="middle" font-family="monospace" font-weight="bold">AF</text>
<text x="650.0" y="364.0" fill="#888" font-size="5.5" text-anchor="middle" font-family="monospace">AFWD</text>
<circle cx="627.0" cy="330.0" r="2.5" fill="#ffffff60" stroke-width="0"></circle>
<circle cx="673.0" cy="330.0" r="2.5" fill="#ffffff90" stroke-width="0"></circle>
<circle cx="690.0" cy="330.0" r="22.0" fill="#4e79a7" stroke="#ffffff20" stroke-width="1.0"></circle>
<circle cx="690.0" cy="330.0" r="12.1" fill="#153530" stroke-width="0"></circle>
<text x="690.0" y="332.0" fill="#20b2aa" font-size="7" text-anchor="middle" font-family="monospace" font-weight="bold">↑</text>
<text x="690.0" y="300.0" fill="#cccccc" font-size="8" text-anchor="middle" font-family="monospace" font-weight="bold">AR</text>
<text x="690.0" y="364.0" fill="#888" font-size="5.5" text-anchor="middle" font-family="monospace">AREV</text>
<circle cx="667.0" cy="330.0" r="2.5" fill="#ffffff60" stroke-width="0"></circle>
<circle cx="713.0" cy="330.0" r="2.5" fill="#ffffff90" stroke-width="0"></circle>
<circle cx="730.0" cy="330.0" r="22.0" fill="#4e79a7" stroke="#ffffff20" stroke-width="1.0"></circle>
<circle cx="730.0" cy="330.0" r="12.1" fill="#153530" stroke-width="0"></circle>
<text x="730.0" y="332.0" fill="#20b2aa" font-size="7" text-anchor="middle" font-family="monospace" font-weight="bold">↑</text>
<text x="730.0" y="300.0" fill="#cccccc" font-size="8" text-anchor="middle" font-family="monospace" font-weight="bold">CL</text>
<text x="730.0" y="364.0" fill="#888" font-size="5.5" text-anchor="middle" font-family="monospace">CLINK</text>
<circle cx="707.0" cy="330.0" r="2.5" fill="#ffffff60" stroke-width="0"></circle>
<circle cx="753.0" cy="330.0" r="2.5" fill="#ffffff90" stroke-width="0"></circle>
<polygon points="789.1,341.0 770.0,352.0 750.9,341.0 750.9,319.0 770.0,308.0 789.1,319.0" fill="#e15759" stroke="#ffffff20" stroke-width="1.0"></polygon>
<circle cx="770.0" cy="330.0" r="12.1" fill="#153530" stroke-width="0"></circle>
<text x="770.0" y="332.0" fill="#20b2aa" font-size="7" text-anchor="middle" font-family="monospace" font-weight="bold">↑</text>
<text x="770.0" y="300.0" fill="#cccccc" font-size="8" text-anchor="middle" font-family="monospace" font-weight="bold">ET</text>
<text x="770.0" y="364.0" fill="#888" font-size="5.5" text-anchor="middle" font-family="monospace">EVALT</text>
<circle cx="747.0" cy="330.0" r="3.5" fill="#f28e2b" stroke-width="0.8"></circle>
<circle cx="793.0" cy="330.0" r="3.5" fill="#59a14f" stroke-width="0.9"></circle>
<polygon points="829.1,341.0 810.0,352.0 790.9,341.0 790.9,319.0 810.0,308.0 829.1,319.0" fill="#e15759" stroke="#ffffff20" stroke-width="1.0"></polygon>
<circle cx="810.0" cy="330.0" r="12.1" fill="#153530" stroke-width="0"></circle>
<text x="810.0" y="332.0" fill="#20b2aa" font-size="7" text-anchor="middle" font-family="monospace" font-weight="bold">↑</text>
<text x="810.0" y="300.0" fill="#cccccc" font-size="8" text-anchor="middle" font-family="monospace" font-weight="bold">EF</text>
<text x="810.0" y="364.0" fill="#888" font-size="5.5" text-anchor="middle" font-family="monospace">EVALF</text>
<circle cx="787.0" cy="330.0" r="3.5" fill="#f28e2b" stroke-width="0.8"></circle>
<circle cx="833.0" cy="330.0" r="3.5" fill="#59a14f" stroke-width="0.9"></circle>
<polygon points="869.1,341.0 850.0,352.0 830.9,341.0 830.9,319.0 850.0,308.0 869.1,319.0" fill="#e15759" stroke="#ffffff20" stroke-width="1.0"></polygon>
<circle cx="850.0" cy="330.0" r="12.1" fill="#153530" stroke-width="0"></circle>
<text x="850.0" y="332.0" fill="#20b2aa" font-size="7" text-anchor="middle" font-family="monospace" font-weight="bold">↑</text>
<text x="850.0" y="300.0" fill="#cccccc" font-size="8" text-anchor="middle" font-family="monospace" font-weight="bold">EG</text>
<text x="850.0" y="364.0" fill="#888" font-size="5.5" text-anchor="middle" font-family="monospace">ENGAGR</text>
<circle cx="827.0" cy="330.0" r="2.5" fill="#ffffff60" stroke-width="0"></circle>
<circle cx="873.0" cy="330.0" r="2.5" fill="#ffffff90" stroke-width="0"></circle>
<polygon points="890.0,308.0 912.0,330 890.0,352.0 868.0,330" fill="#ffd700" stroke="#ffffff20" stroke-width="1.0"></polygon>
<circle cx="890.0" cy="330.0" r="12.1" fill="#153530" stroke-width="0"></circle>
<text x="890.0" y="332.0" fill="#20b2aa" font-size="7" text-anchor="middle" font-family="monospace" font-weight="bold">↑</text>
<text x="890.0" y="300.0" fill="#cccccc" font-size="8" text-anchor="middle" font-family="monospace" font-weight="bold">FF</text>
<text x="890.0" y="364.0" fill="#888" font-size="5.5" text-anchor="middle" font-family="monospace">FFUSE</text>
<circle cx="867.0" cy="323.0" r="2.5" fill="#ffffff60" stroke-width="0"></circle>
<circle cx="867.0" cy="337.0" r="2.5" fill="#ffffff60" stroke-width="0"></circle>
<circle cx="913.0" cy="330.0" r="2.5" fill="#ffffff90" stroke-width="0"></circle>
<rect x="908.0" y="308.0" width="44.0" height="44.0" fill="#59a14f" stroke="#ffffff20" stroke-width="1.0"></rect>
<circle cx="930.0" cy="330.0" r="12.1" fill="#153530" stroke-width="0"></circle>
<text x="930.0" y="332.0" fill="#20b2aa" font-size="7" text-anchor="middle" font-family="monospace" font-weight="bold">↑</text>
<text x="930.0" y="300.0" fill="#cccccc" font-size="8" text-anchor="middle" font-family="monospace" font-weight="bold">IX</text>
<text x="930.0" y="364.0" fill="#888" font-size="5.5" text-anchor="middle" font-family="monospace">IFIX</text>
<circle cx="907.0" cy="330.0" r="2.5" fill="#ffffff60" stroke-width="0"></circle>
<circle cx="953.0" cy="330.0" r="2.5" fill="#ffffff90" stroke-width="0"></circle>
<circle cx="970.0" cy="330.0" r="22.0" fill="#4e79a7" stroke="#ffffff20" stroke-width="1.0"></circle>
<circle cx="970.0" cy="330.0" r="12.1" fill="#153530" stroke-width="0"></circle>
<text x="970.0" y="332.0" fill="#20b2aa" font-size="7" text-anchor="middle" font-family="monospace" font-weight="bold">↑</text>
<text x="970.0" y="300.0" fill="#cccccc" font-size="8" text-anchor="middle" font-family="monospace" font-weight="bold">IM</text>
<text x="970.0" y="364.0" fill="#888" font-size="5.5" text-anchor="middle" font-family="monospace">IMSCRIB</text>
<circle cx="947.0" cy="330.0" r="2.5" fill="#ffffff60" stroke-width="0"></circle>
<circle cx="993.0" cy="330.0" r="2.5" fill="#ffffff90" stroke-width="0"></circle>
<circle cx="1010.0" cy="330.0" r="22.0" fill="#4e79a7" stroke="#ffffff20" stroke-width="1.0"></circle>
<circle cx="1010.0" cy="330.0" r="12.1" fill="#153530" stroke-width="0"></circle>
<text x="1010.0" y="332.0" fill="#20b2aa" font-size="7" text-anchor="middle" font-family="monospace" font-weight="bold">↑</text>
<text x="1010.0" y="300.0" fill="#cccccc" font-size="8" text-anchor="middle" font-family="monospace" font-weight="bold">TA</text>
<text x="1010.0" y="364.0" fill="#888" font-size="5.5" text-anchor="middle" font-family="monospace">TANCH</text>
<circle cx="987.0" cy="330.0" r="2.5" fill="#ffffff60" stroke-width="0"></circle>
<circle cx="1033.0" cy="330.0" r="2.5" fill="#ffffff90" stroke-width="0"></circle>
<path d="M1010.0,330.0 Q550.0,275.0 90.0,330.0" fill="none" stroke="#9988cc" stroke-width="1.5" opacity="0.5"></path>
<polygon points="90.0,330.0 81.6,327.0 82.5,334.9" fill="#9988cc" opacity="0.5"></polygon>
<text x="550.0" y="260.0" fill="#9988cc" font-size="8" text-anchor="middle" font-family="serif">O₂</text>
<text x="550.0" y="621.0" fill="#9988aa" font-size="7" text-anchor="middle" font-family="serif">Ouroboricity: O₂</text>
<text x="70.0" y="52.0" fill="#666" font-size="6" text-anchor="start" font-family="monospace" font-weight="bold">NODES</text>
<circle cx="110.0" cy="59.0" r="4.5" fill="#4e79a7" stroke-width="0"></circle>
<text x="120.0" y="62.0" fill="#4e79a7" font-size="5" text-anchor="start" font-family="monospace">LOGI</text>
<polygon points="158,54.5 162.5,59 158,63.5 153.5,59" fill="#ffd700" stroke="#ffffff20" stroke-width="1.0"></polygon>
<text x="168.0" y="62.0" fill="#ffd700" font-size="5" text-anchor="start" font-family="monospace">FROB</text>
<polygon points="209.9,61.2 206.0,63.5 202.1,61.2 202.1,56.8 206.0,54.5 209.9,56.8" fill="#e15759" stroke="#ffffff20" stroke-width="1.0"></polygon>
<text x="216.0" y="62.0" fill="#e15759" font-size="5" text-anchor="start" font-family="monospace">DIAL</text>
<rect x="249.5" y="54.5" width="9.0" height="9.0" fill="#59a14f" stroke="#ffffff20" stroke-width="1.0"></rect>
<text x="264.0" y="62.0" fill="#59a14f" font-size="5" text-anchor="start" font-family="monospace">LINE</text>
<text x="312.0" y="52.0" fill="#666" font-size="6" text-anchor="start" font-family="monospace" font-weight="bold">EDGES</text>
<line x1="350.0" y1="59.0" x2="364.0" y2="59.0" stroke="#59a14f" stroke-width="1.5" opacity="0.7"></line>
<text x="368.0" y="62.0" fill="#59a14f" font-size="5" text-anchor="start" font-family="monospace">AFWD</text>
<line x1="402.0" y1="59.0" x2="416.0" y2="59.0" stroke="#e15759" stroke-width="1.5" opacity="0.7"></line>
<text x="420.0" y="62.0" fill="#e15759" font-size="5" text-anchor="start" font-family="monospace">AREV</text>
<line x1="454.0" y1="59.0" x2="468.0" y2="59.0" stroke="#f28e2b" stroke-width="1.5" opacity="0.7"></line>
<text x="472.0" y="62.0" fill="#f28e2b" font-size="5" text-anchor="start" font-family="monospace">CLINK</text>
<line x1="506.0" y1="59.0" x2="520.0" y2="59.0" stroke="#b07aa1" stroke-width="1.5" opacity="0.7" stroke-dasharray="4,3"></line>
<text x="524.0" y="62.0" fill="#b07aa1" font-size="5" text-anchor="start" font-family="monospace">TANCH</text>
<line x1="558.0" y1="59.0" x2="572.0" y2="59.0" stroke="#ffd700" stroke-width="1.5" opacity="0.7"></line>
<text x="576.0" y="62.0" fill="#ffd700" font-size="5" text-anchor="start" font-family="monospace">IMSC</text>
<line x1="610.0" y1="59.0" x2="624.0" y2="59.0" stroke="#cc3344" stroke-width="1.5" opacity="0.7"></line>
<text x="628.0" y="62.0" fill="#cc3344" font-size="5" text-anchor="start" font-family="monospace">IFIX</text>
<text x="70.0" y="72.0" fill="#666" font-size="6" text-anchor="start" font-family="monospace" font-weight="bold">GUARD</text>
<circle cx="110.0" cy="79.0" r="3.0" fill="#f28e2b" stroke-width="0.8"></circle>
<text x="117.0" y="82.0" fill="#f28e2b" font-size="5" text-anchor="start" font-family="monospace">approach</text>
<circle cx="162.0" cy="79.0" r="3.0" fill="#59a14f" stroke-width="0.9"></circle>
<text x="169.0" y="82.0" fill="#59a14f" font-size="5" text-anchor="start" font-family="monospace">passed</text>
<text x="214.0" y="72.0" fill="#666" font-size="6" text-anchor="start" font-family="monospace" font-weight="bold">REG Δ</text>
<text x="252.0" y="82.0" fill="#20b888" font-size="5.5" text-anchor="start" font-family="monospace">→↑</text>
<text x="280.0" y="82.0" fill="#ffd700" font-size="5.5" text-anchor="start" font-family="monospace">↓→↑↓</text>
<text x="308.0" y="82.0" fill="#e15759" font-size="5.5" text-anchor="start" font-family="monospace">↑↔↓</text>
<line x1="344.0" y1="79.0" x2="358.0" y2="79.0" stroke="#ffd700" stroke-width="1.5" opacity="0.6" stroke-dasharray="5,3"></line>
<text x="362.0" y="82.0" fill="#ffd700" font-size="5.5" text-anchor="start" font-family="monospace">cross-br.</text>
<line x1="404.0" y1="79.0" x2="418.0" y2="79.0" stroke="#9988cc" stroke-width="1.5" opacity="0.5"></line>
<text x="422.0" y="82.0" fill="#9988cc" font-size="5.5" text-anchor="start" font-family="monospace">loop</text>
</svg>