<svg xmlns="http://www.w3.org/2000/svg" viewBox="0 0 1100 630">
<rect width="1100" height="630" fill="#0a0a15"/>
<line x1="0.0" y1="0.0" x2="0.0" y2="630.0" stroke="#151525" stroke-width="0.4" opacity="0.25"></line>
<line x1="40.0" y1="0.0" x2="40.0" y2="630.0" stroke="#151525" stroke-width="0.4" opacity="0.25"></line>
<line x1="80.0" y1="0.0" x2="80.0" y2="630.0" stroke="#151525" stroke-width="0.4" opacity="0.25"></line>
<line x1="120.0" y1="0.0" x2="120.0" y2="630.0" stroke="#151525" stroke-width="0.4" opacity="0.25"></line>
<line x1="160.0" y1="0.0" x2="160.0" y2="630.0" stroke="#151525" stroke-width="0.4" opacity="0.25"></line>
<line x1="200.0" y1="0.0" x2="200.0" y2="630.0" stroke="#151525" stroke-width="0.4" opacity="0.25"></line>
<line x1="240.0" y1="0.0" x2="240.0" y2="630.0" stroke="#151525" stroke-width="0.4" opacity="0.25"></line>
<line x1="280.0" y1="0.0" x2="280.0" y2="630.0" stroke="#151525" stroke-width="0.4" opacity="0.25"></line>
<line x1="320.0" y1="0.0" x2="320.0" y2="630.0" stroke="#151525" stroke-width="0.4" opacity="0.25"></line>
<line x1="360.0" y1="0.0" x2="360.0" y2="630.0" stroke="#151525" stroke-width="0.4" opacity="0.25"></line>
<line x1="400.0" y1="0.0" x2="400.0" y2="630.0" stroke="#151525" stroke-width="0.4" opacity="0.25"></line>
<line x1="440.0" y1="0.0" x2="440.0" y2="630.0" stroke="#151525" stroke-width="0.4" opacity="0.25"></line>
<line x1="480.0" y1="0.0" x2="480.0" y2="630.0" stroke="#151525" stroke-width="0.4" opacity="0.25"></line>
<line x1="520.0" y1="0.0" x2="520.0" y2="630.0" stroke="#151525" stroke-width="0.4" opacity="0.25"></line>
<line x1="560.0" y1="0.0" x2="560.0" y2="630.0" stroke="#151525" stroke-width="0.4" opacity="0.25"></line>
<line x1="600.0" y1="0.0" x2="600.0" y2="630.0" stroke="#151525" stroke-width="0.4" opacity="0.25"></line>
<line x1="640.0" y1="0.0" x2="640.0" y2="630.0" stroke="#151525" stroke-width="0.4" opacity="0.25"></line>
<line x1="680.0" y1="0.0" x2="680.0" y2="630.0" stroke="#151525" stroke-width="0.4" opacity="0.25"></line>
<line x1="720.0" y1="0.0" x2="720.0" y2="630.0" stroke="#151525" stroke-width="0.4" opacity="0.25"></line>
<line x1="760.0" y1="0.0" x2="760.0" y2="630.0" stroke="#151525" stroke-width="0.4" opacity="0.25"></line>
<line x1="800.0" y1="0.0" x2="800.0" y2="630.0" stroke="#151525" stroke-width="0.4" opacity="0.25"></line>
<line x1="840.0" y1="0.0" x2="840.0" y2="630.0" stroke="#151525" stroke-width="0.4" opacity="0.25"></line>
<line x1="880.0" y1="0.0" x2="880.0" y2="630.0" stroke="#151525" stroke-width="0.4" opacity="0.25"></line>
<line x1="920.0" y1="0.0" x2="920.0" y2="630.0" stroke="#151525" stroke-width="0.4" opacity="0.25"></line>
<line x1="960.0" y1="0.0" x2="960.0" y2="630.0" stroke="#151525" stroke-width="0.4" opacity="0.25"></line>
<line x1="1000.0" y1="0.0" x2="1000.0" y2="630.0" stroke="#151525" stroke-width="0.4" opacity="0.25"></line>
<line x1="1040.0" y1="0.0" x2="1040.0" y2="630.0" stroke="#151525" stroke-width="0.4" opacity="0.25"></line>
<line x1="1080.0" y1="0.0" x2="1080.0" y2="630.0" stroke="#151525" stroke-width="0.4" opacity="0.25"></line>
<line x1="0.0" y1="0.0" x2="1100.0" y2="0.0" stroke="#151525" stroke-width="0.4" opacity="0.25"></line>
<line x1="0.0" y1="40.0" x2="1100.0" y2="40.0" stroke="#151525" stroke-width="0.4" opacity="0.25"></line>
<line x1="0.0" y1="80.0" x2="1100.0" y2="80.0" stroke="#151525" stroke-width="0.4" opacity="0.25"></line>
<line x1="0.0" y1="120.0" x2="1100.0" y2="120.0" stroke="#151525" stroke-width="0.4" opacity="0.25"></line>
<line x1="0.0" y1="160.0" x2="1100.0" y2="160.0" stroke="#151525" stroke-width="0.4" opacity="0.25"></line>
<line x1="0.0" y1="200.0" x2="1100.0" y2="200.0" stroke="#151525" stroke-width="0.4" opacity="0.25"></line>
<line x1="0.0" y1="240.0" x2="1100.0" y2="240.0" stroke="#151525" stroke-width="0.4" opacity="0.25"></line>
<line x1="0.0" y1="280.0" x2="1100.0" y2="280.0" stroke="#151525" stroke-width="0.4" opacity="0.25"></line>
<line x1="0.0" y1="320.0" x2="1100.0" y2="320.0" stroke="#151525" stroke-width="0.4" opacity="0.25"></line>
<line x1="0.0" y1="360.0" x2="1100.0" y2="360.0" stroke="#151525" stroke-width="0.4" opacity="0.25"></line>
<line x1="0.0" y1="400.0" x2="1100.0" y2="400.0" stroke="#151525" stroke-width="0.4" opacity="0.25"></line>
<line x1="0.0" y1="440.0" x2="1100.0" y2="440.0" stroke="#151525" stroke-width="0.4" opacity="0.25"></line>
<line x1="0.0" y1="480.0" x2="1100.0" y2="480.0" stroke="#151525" stroke-width="0.4" opacity="0.25"></line>
<line x1="0.0" y1="520.0" x2="1100.0" y2="520.0" stroke="#151525" stroke-width="0.4" opacity="0.25"></line>
<line x1="0.0" y1="560.0" x2="1100.0" y2="560.0" stroke="#151525" stroke-width="0.4" opacity="0.25"></line>
<line x1="0.0" y1="600.0" x2="1100.0" y2="600.0" stroke="#151525" stroke-width="0.4" opacity="0.25"></line>
<text x="550.0" y="26.0" fill="#cccccc" font-size="13" text-anchor="middle" font-family="monospace" font-weight="bold">perfect tarot</text>
<text x="22.0" y="190.0" fill="#20c0b0" font-size="7" text-anchor="middle" font-family="monospace">T-lane</text>
<text x="22.0" y="470.0" fill="#e04060" font-size="7" text-anchor="middle" font-family="monospace">F-lane</text>
<text x="22.0" y="330.0" fill="#555" font-size="7" text-anchor="middle" font-family="monospace">main</text>
<line x1="976.7" y1="145.0" x2="976.7" y2="515.0" stroke="#cc3344" stroke-width="1.8" opacity="0.4" stroke-dasharray="6,4"></line>
<text x="976.7" y="135.0" fill="#cc3344" font-size="7" text-anchor="middle" font-family="monospace" font-weight="bold">IFIX</text>
<polygon points="976.6666666666667,141.0 980.7,145 976.6666666666667,149.0 972.7,145" fill="#cc3344" opacity="0.6"></polygon>
<polygon points="976.6666666666667,511.0 980.7,515 976.6666666666667,519.0 972.7,515" fill="#cc3344" opacity="0.6"></polygon>
<line x1="727.8" y1="330.0" x2="745.8" y2="330.0" stroke="#5b9bd5" stroke-width="1.4" opacity="0.55"></line>
<line x1="745.8" y1="330.0" x2="745.8" y2="190.0" stroke="#5b9bd5" stroke-width="1.4" opacity="0.55"></line>
<line x1="745.8" y1="190.0" x2="749.4" y2="190.0" stroke="#5b9bd5" stroke-width="1.4" opacity="0.55"></line>
<polygon points="757.4,190.0 749.4,193.2 749.4,186.8" fill="#5b9bd5" opacity="0.55"></polygon>
<rect x="732.6" y="248.0" width="20.0" height="10" fill="#0a0a15" opacity="0.7" rx="3"></rect>
<text x="742.6" y="256.0" fill="#666688" font-size="6" text-anchor="middle" font-family="monospace">↑↓→↑↓</text>
<line x1="757.4" y1="190.0" x2="775.4" y2="190.0" stroke="#20d0b8" stroke-width="1.3" opacity="0.55"></line>
<line x1="775.4" y1="190.0" x2="775.4" y2="330.0" stroke="#20d0b8" stroke-width="1.3" opacity="0.55"></line>
<line x1="775.4" y1="330.0" x2="790.9" y2="330.0" stroke="#20d0b8" stroke-width="1.3" opacity="0.55"></line>
<polygon points="798.9,330.0 790.9,333.2 790.9,326.8" fill="#20d0b8" opacity="0.55"></polygon>
<rect x="770.1" y="248.0" width="16.0" height="10" fill="#0a0a15" opacity="0.7" rx="3"></rect>
<text x="778.1" y="256.0" fill="#ffd700" font-size="6" text-anchor="middle" font-family="monospace">↑↓→↑</text>
<line x1="727.8" y1="330.0" x2="753.8" y2="330.0" stroke="#2b6b9f" stroke-width="1.4" opacity="0.55"></line>
<line x1="753.8" y1="330.0" x2="753.8" y2="470.0" stroke="#2b6b9f" stroke-width="1.4" opacity="0.55"></line>
<line x1="753.8" y1="470.0" x2="761.3" y2="470.0" stroke="#2b6b9f" stroke-width="1.4" opacity="0.55"></line>
<polygon points="769.3,470.0 761.3,473.2 761.3,466.8" fill="#2b6b9f" opacity="0.55"></polygon>
<rect x="738.5" y="388.0" width="20.0" height="10" fill="#0a0a15" opacity="0.7" rx="3"></rect>
<text x="748.5" y="396.0" fill="#666688" font-size="6" text-anchor="middle" font-family="monospace">↑↓→↑↓</text>
<line x1="769.3" y1="470.0" x2="787.3" y2="470.0" stroke="#ff6688" stroke-width="1.3" opacity="0.55"></line>
<line x1="787.3" y1="470.0" x2="787.3" y2="330.0" stroke="#ff6688" stroke-width="1.3" opacity="0.55"></line>
<line x1="787.3" y1="330.0" x2="790.9" y2="330.0" stroke="#ff6688" stroke-width="1.3" opacity="0.55"></line>
<polygon points="798.9,330.0 790.9,333.2 790.9,326.8" fill="#ff6688" opacity="0.55"></polygon>
<rect x="776.1" y="388.0" width="16.0" height="10" fill="#0a0a15" opacity="0.7" rx="3"></rect>
<text x="784.1" y="396.0" fill="#ffd700" font-size="6" text-anchor="middle" font-family="monospace">↑↓→↑</text>
<line x1="87.8" y1="330.0" x2="115.3" y2="330.0" stroke="#6baed6" stroke-width="1.3" opacity="0.75"></line>
<polygon points="123.3,330.0 115.3,333.2 115.3,326.8" fill="#6baed6" opacity="0.75"></polygon>
<rect x="103.6" y="318.0" width="4.0" height="10" fill="#0a0a15" opacity="0.7" rx="3"></rect>
<text x="105.6" y="326.0" fill="#20b888" font-size="6" text-anchor="middle" font-family="monospace">↑</text>
<line x1="123.3" y1="330.0" x2="150.9" y2="330.0" stroke="#ffd700" stroke-width="1.3" opacity="0.75"></line>
<polygon points="158.9,330.0 150.9,333.2 150.9,326.8" fill="#ffd700" opacity="0.75"></polygon>
<line x1="158.9" y1="330.0" x2="186.4" y2="330.0" stroke="#59a14f" stroke-width="1.3" opacity="0.75"></line>
<polygon points="194.4,330.0 186.4,333.2 186.4,326.8" fill="#59a14f" opacity="0.75"></polygon>
<line x1="194.4" y1="330.0" x2="222.0" y2="330.0" stroke="#59a14f" stroke-width="1.3" opacity="0.75"></line>
<polygon points="230.0,330.0 222.0,333.2 222.0,326.8" fill="#59a14f" opacity="0.75"></polygon>
<line x1="230.0" y1="330.0" x2="257.6" y2="330.0" stroke="#59a14f" stroke-width="1.3" opacity="0.75"></line>
<polygon points="265.6,330.0 257.6,333.2 257.6,326.8" fill="#59a14f" opacity="0.75"></polygon>
<rect x="243.8" y="318.0" width="8.0" height="10" fill="#0a0a15" opacity="0.7" rx="3"></rect>
<text x="247.8" y="326.0" fill="#20b888" font-size="6" text-anchor="middle" font-family="monospace">↑→</text>
<line x1="265.6" y1="326.5" x2="292.1" y2="326.5" stroke="#f28e2b" stroke-width="1.0" opacity="0.75"></line>
<line x1="265.6" y1="333.5" x2="292.1" y2="333.5" stroke="#f28e2b" stroke-width="1.0" opacity="0.75"></line>
<polygon points="301.1,330.0 291.1,334.0 291.1,326.0" fill="#f28e2b" opacity="0.75"></polygon>
<rect x="281.3" y="318.0" width="4.0" height="10" fill="#0a0a15" opacity="0.7" rx="3"></rect>
<text x="283.3" y="326.0" fill="#20b888" font-size="6" text-anchor="middle" font-family="monospace">↑</text>
<line x1="301.1" y1="330.0" x2="328.7" y2="330.0" stroke="#59a14f" stroke-width="1.3" opacity="0.75"></line>
<polygon points="336.7,330.0 328.7,333.2 328.7,326.8" fill="#59a14f" opacity="0.75"></polygon>
<rect x="314.9" y="318.0" width="8.0" height="10" fill="#0a0a15" opacity="0.7" rx="3"></rect>
<text x="318.9" y="326.0" fill="#20b888" font-size="6" text-anchor="middle" font-family="monospace">↑→</text>
<line x1="336.7" y1="326.5" x2="363.2" y2="326.5" stroke="#f28e2b" stroke-width="1.0" opacity="0.75"></line>
<line x1="336.7" y1="333.5" x2="363.2" y2="333.5" stroke="#f28e2b" stroke-width="1.0" opacity="0.75"></line>
<polygon points="372.2,330.0 362.2,334.0 362.2,326.0" fill="#f28e2b" opacity="0.75"></polygon>
<rect x="352.4" y="318.0" width="4.0" height="10" fill="#0a0a15" opacity="0.7" rx="3"></rect>
<text x="354.4" y="326.0" fill="#20b888" font-size="6" text-anchor="middle" font-family="monospace">↑</text>
<line x1="372.2" y1="330.0" x2="399.8" y2="330.0" stroke="#59a14f" stroke-width="1.3" opacity="0.75"></line>
<polygon points="407.8,330.0 399.8,333.2 399.8,326.8" fill="#59a14f" opacity="0.75"></polygon>
<rect x="382.0" y="318.0" width="16.0" height="10" fill="#0a0a15" opacity="0.7" rx="3"></rect>
<text x="390.0" y="326.0" fill="#ffd700" font-size="6" text-anchor="middle" font-family="monospace">↑→↑↓</text>
<line x1="407.8" y1="330.0" x2="435.3" y2="330.0" stroke="#e15759" stroke-width="1.3" opacity="0.75"></line>
<polygon points="443.3,330.0 435.3,333.2 435.3,326.8" fill="#e15759" opacity="0.75"></polygon>
<rect x="415.6" y="318.0" width="20.0" height="10" fill="#0a0a15" opacity="0.7" rx="3"></rect>
<text x="425.6" y="326.0" fill="#666688" font-size="6" text-anchor="middle" font-family="monospace">↑↓→↑↓</text>
<line x1="443.3" y1="330.0" x2="470.9" y2="330.0" stroke="#59a14f" stroke-width="1.3" opacity="0.75"></line>
<polygon points="478.9,330.0 470.9,333.2 470.9,326.8" fill="#59a14f" opacity="0.75"></polygon>
<rect x="451.1" y="318.0" width="20.0" height="10" fill="#0a0a15" opacity="0.7" rx="3"></rect>
<text x="461.1" y="326.0" fill="#666688" font-size="6" text-anchor="middle" font-family="monospace">↑↓→↑↓</text>
<line x1="478.9" y1="330.0" x2="506.4" y2="330.0" stroke="#59a14f" stroke-width="1.3" opacity="0.75"></line>
<polygon points="514.4,330.0 506.4,333.2 506.4,326.8" fill="#59a14f" opacity="0.75"></polygon>
<rect x="486.7" y="318.0" width="20.0" height="10" fill="#0a0a15" opacity="0.7" rx="3"></rect>
<text x="496.7" y="326.0" fill="#666688" font-size="6" text-anchor="middle" font-family="monospace">↑↓→↑↓</text>
<line x1="514.4" y1="326.5" x2="541.0" y2="326.5" stroke="#f28e2b" stroke-width="1.0" opacity="0.75"></line>
<line x1="514.4" y1="333.5" x2="541.0" y2="333.5" stroke="#f28e2b" stroke-width="1.0" opacity="0.75"></line>
<polygon points="550.0,330.0 540.0,334.0 540.0,326.0" fill="#f28e2b" opacity="0.75"></polygon>
<rect x="522.2" y="318.0" width="20.0" height="10" fill="#0a0a15" opacity="0.7" rx="3"></rect>
<text x="532.2" y="326.0" fill="#666688" font-size="6" text-anchor="middle" font-family="monospace">↑↓→↑↓</text>
<line x1="550.0" y1="330.0" x2="577.6" y2="330.0" stroke="#59a14f" stroke-width="1.3" opacity="0.75"></line>
<polygon points="585.6,330.0 577.6,333.2 577.6,326.8" fill="#59a14f" opacity="0.75"></polygon>
<rect x="557.8" y="318.0" width="20.0" height="10" fill="#0a0a15" opacity="0.7" rx="3"></rect>
<text x="567.8" y="326.0" fill="#666688" font-size="6" text-anchor="middle" font-family="monospace">↑↓→↑↓</text>
<line x1="585.6" y1="330.0" x2="613.1" y2="330.0" stroke="#59a14f" stroke-width="1.3" opacity="0.75"></line>
<polygon points="621.1,330.0 613.1,333.2 613.1,326.8" fill="#59a14f" opacity="0.75"></polygon>
<rect x="593.3" y="318.0" width="20.0" height="10" fill="#0a0a15" opacity="0.7" rx="3"></rect>
<text x="603.3" y="326.0" fill="#666688" font-size="6" text-anchor="middle" font-family="monospace">↑↓→↑↓</text>
<line x1="621.1" y1="330.0" x2="648.7" y2="330.0" stroke="#59a14f" stroke-width="1.3" opacity="0.75"></line>
<polygon points="656.7,330.0 648.7,333.2 648.7,326.8" fill="#59a14f" opacity="0.75"></polygon>
<rect x="628.9" y="318.0" width="20.0" height="10" fill="#0a0a15" opacity="0.7" rx="3"></rect>
<text x="638.9" y="326.0" fill="#666688" font-size="6" text-anchor="middle" font-family="monospace">↑↓→↑↓</text>
<line x1="656.7" y1="330.0" x2="684.2" y2="330.0" stroke="#59a14f" stroke-width="1.3" opacity="0.75"></line>
<polygon points="692.2,330.0 684.2,333.2 684.2,326.8" fill="#59a14f" opacity="0.75"></polygon>
<rect x="664.4" y="318.0" width="20.0" height="10" fill="#0a0a15" opacity="0.7" rx="3"></rect>
<text x="674.4" y="326.0" fill="#666688" font-size="6" text-anchor="middle" font-family="monospace">↑↓→↑↓</text>
<line x1="692.2" y1="326.5" x2="718.8" y2="326.5" stroke="#f28e2b" stroke-width="1.0" opacity="0.75"></line>
<line x1="692.2" y1="333.5" x2="718.8" y2="333.5" stroke="#f28e2b" stroke-width="1.0" opacity="0.75"></line>
<polygon points="727.8,330.0 717.8,334.0 717.8,326.0" fill="#f28e2b" opacity="0.75"></polygon>
<rect x="700.0" y="318.0" width="20.0" height="10" fill="#0a0a15" opacity="0.7" rx="3"></rect>
<text x="710.0" y="326.0" fill="#666688" font-size="6" text-anchor="middle" font-family="monospace">↑↓→↑↓</text>
<line x1="834.4" y1="330.0" x2="862.0" y2="330.0" stroke="#e15759" stroke-width="1.3" opacity="0.75"></line>
<polygon points="870.0,330.0 862.0,333.2 862.0,326.8" fill="#e15759" opacity="0.75"></polygon>
<rect x="844.2" y="318.0" width="16.0" height="10" fill="#0a0a15" opacity="0.7" rx="3"></rect>
<text x="852.2" y="326.0" fill="#ffd700" font-size="6" text-anchor="middle" font-family="monospace">↑→↑↓</text>
<line x1="870.0" y1="330.0" x2="897.6" y2="330.0" stroke="#e15759" stroke-width="1.3" opacity="0.75"></line>
<polygon points="905.6,330.0 897.6,333.2 897.6,326.8" fill="#e15759" opacity="0.75"></polygon>
<rect x="877.8" y="318.0" width="20.0" height="10" fill="#0a0a15" opacity="0.7" rx="3"></rect>
<text x="887.8" y="326.0" fill="#666688" font-size="6" text-anchor="middle" font-family="monospace">↑↓→↑↓</text>
<line x1="905.6" y1="326.5" x2="932.1" y2="326.5" stroke="#f28e2b" stroke-width="1.0" opacity="0.75"></line>
<line x1="905.6" y1="333.5" x2="932.1" y2="333.5" stroke="#f28e2b" stroke-width="1.0" opacity="0.75"></line>
<polygon points="941.1,330.0 931.1,334.0 931.1,326.0" fill="#f28e2b" opacity="0.75"></polygon>
<rect x="913.3" y="318.0" width="20.0" height="10" fill="#0a0a15" opacity="0.7" rx="3"></rect>
<text x="923.3" y="326.0" fill="#666688" font-size="6" text-anchor="middle" font-family="monospace">↑↓→↑↓</text>
<line x1="941.1" y1="330.0" x2="968.7" y2="330.0" stroke="#ffd700" stroke-width="1.3" opacity="0.75"></line>
<polygon points="976.7,330.0 968.7,333.2 968.7,326.8" fill="#ffd700" opacity="0.75"></polygon>
<rect x="948.9" y="318.0" width="20.0" height="10" fill="#0a0a15" opacity="0.7" rx="3"></rect>
<text x="958.9" y="326.0" fill="#666688" font-size="6" text-anchor="middle" font-family="monospace">↑↓→↑↓</text>
<line x1="976.7" y1="330.0" x2="1004.2" y2="330.0" stroke="#cc3344" stroke-width="1.3" opacity="0.75"></line>
<polygon points="1012.2,330.0 1004.2,333.2 1004.2,326.8" fill="#cc3344" opacity="0.75"></polygon>
<rect x="984.4" y="318.0" width="20.0" height="10" fill="#0a0a15" opacity="0.7" rx="3"></rect>
<text x="994.4" y="326.0" fill="#666688" font-size="6" text-anchor="middle" font-family="monospace">↑↓→↑↓</text>
<line x1="798.9" y1="330.0" x2="826.4" y2="330.0" stroke="#ffd700" stroke-width="1.3" opacity="0.55"></line>
<polygon points="834.4,330.0 826.4,333.2 826.4,326.8" fill="#ffd700" opacity="0.55"></polygon>
<circle cx="87.8" cy="330.0" r="22.0" fill="#4e79a7" stroke="#ffffff20" stroke-width="1.0"></circle>
<text x="87.8" y="300.0" fill="#cccccc" font-size="8" text-anchor="middle" font-family="monospace" font-weight="bold">VI</text>
<text x="87.8" y="364.0" fill="#888" font-size="5.5" text-anchor="middle" font-family="monospace">VINIT</text>
<circle cx="110.8" cy="330.0" r="2.5" fill="#ffffff90" stroke-width="0"></circle>
<circle cx="123.3" cy="330.0" r="22.0" fill="#4e79a7" stroke="#ffffff20" stroke-width="1.0"></circle>
<circle cx="123.3" cy="330.0" r="12.1" fill="#153530" stroke-width="0"></circle>
<text x="123.3" y="332.0" fill="#20b2aa" font-size="7" text-anchor="middle" font-family="monospace" font-weight="bold">↑</text>
<text x="123.3" y="300.0" fill="#cccccc" font-size="8" text-anchor="middle" font-family="monospace" font-weight="bold">IM</text>
<text x="123.3" y="364.0" fill="#888" font-size="5.5" text-anchor="middle" font-family="monospace">IMSCRIB</text>
<circle cx="100.3" cy="330.0" r="2.5" fill="#ffffff60" stroke-width="0"></circle>
<circle cx="146.3" cy="330.0" r="2.5" fill="#ffffff90" stroke-width="0"></circle>
<circle cx="158.9" cy="330.0" r="22.0" fill="#4e79a7" stroke="#ffffff20" stroke-width="1.0"></circle>
<circle cx="158.9" cy="330.0" r="12.1" fill="#153530" stroke-width="0"></circle>
<text x="158.9" y="332.0" fill="#20b2aa" font-size="7" text-anchor="middle" font-family="monospace" font-weight="bold">↑</text>
<text x="158.9" y="300.0" fill="#cccccc" font-size="8" text-anchor="middle" font-family="monospace" font-weight="bold">AF</text>
<text x="158.9" y="364.0" fill="#888" font-size="5.5" text-anchor="middle" font-family="monospace">AFWD</text>
<circle cx="135.9" cy="330.0" r="2.5" fill="#ffffff60" stroke-width="0"></circle>
<circle cx="181.9" cy="330.0" r="2.5" fill="#ffffff90" stroke-width="0"></circle>
<circle cx="194.4" cy="330.0" r="22.0" fill="#4e79a7" stroke="#ffffff20" stroke-width="1.0"></circle>
<circle cx="194.4" cy="330.0" r="12.1" fill="#153530" stroke-width="0"></circle>
<text x="194.4" y="332.0" fill="#20b2aa" font-size="7" text-anchor="middle" font-family="monospace" font-weight="bold">↑</text>
<text x="194.4" y="300.0" fill="#cccccc" font-size="8" text-anchor="middle" font-family="monospace" font-weight="bold">AF</text>
<text x="194.4" y="364.0" fill="#888" font-size="5.5" text-anchor="middle" font-family="monospace">AFWD</text>
<circle cx="171.4" cy="330.0" r="2.5" fill="#ffffff60" stroke-width="0"></circle>
<circle cx="217.4" cy="330.0" r="2.5" fill="#ffffff90" stroke-width="0"></circle>
<circle cx="230.0" cy="330.0" r="22.0" fill="#4e79a7" stroke="#ffffff20" stroke-width="1.0"></circle>
<circle cx="230.0" cy="330.0" r="12.1" fill="#153530" stroke-width="0"></circle>
<text x="230.0" y="332.0" fill="#20b2aa" font-size="7" text-anchor="middle" font-family="monospace" font-weight="bold">↑</text>
<text x="230.0" y="300.0" fill="#cccccc" font-size="8" text-anchor="middle" font-family="monospace" font-weight="bold">AF</text>
<text x="230.0" y="364.0" fill="#888" font-size="5.5" text-anchor="middle" font-family="monospace">AFWD</text>
<circle cx="207.0" cy="330.0" r="2.5" fill="#ffffff60" stroke-width="0"></circle>
<circle cx="253.0" cy="330.0" r="2.5" fill="#ffffff90" stroke-width="0"></circle>
<circle cx="265.6" cy="330.0" r="22.0" fill="#4e79a7" stroke="#ffffff20" stroke-width="1.0"></circle>
<text x="265.6" y="300.0" fill="#cccccc" font-size="8" text-anchor="middle" font-family="monospace" font-weight="bold">CL</text>
<text x="265.6" y="364.0" fill="#888" font-size="5.5" text-anchor="middle" font-family="monospace">CLINK</text>
<circle cx="242.6" cy="330.0" r="2.5" fill="#ffffff60" stroke-width="0"></circle>
<circle cx="288.6" cy="330.0" r="2.5" fill="#ffffff90" stroke-width="0"></circle>
<circle cx="301.1" cy="330.0" r="22.0" fill="#4e79a7" stroke="#ffffff20" stroke-width="1.0"></circle>
<circle cx="301.1" cy="330.0" r="12.1" fill="#153530" stroke-width="0"></circle>
<text x="301.1" y="332.0" fill="#20b2aa" font-size="7" text-anchor="middle" font-family="monospace" font-weight="bold">↑</text>
<text x="301.1" y="300.0" fill="#cccccc" font-size="8" text-anchor="middle" font-family="monospace" font-weight="bold">AF</text>
<text x="301.1" y="364.0" fill="#888" font-size="5.5" text-anchor="middle" font-family="monospace">AFWD</text>
<circle cx="278.1" cy="330.0" r="2.5" fill="#ffffff60" stroke-width="0"></circle>
<circle cx="324.1" cy="330.0" r="2.5" fill="#ffffff90" stroke-width="0"></circle>
<circle cx="336.7" cy="330.0" r="22.0" fill="#4e79a7" stroke="#ffffff20" stroke-width="1.0"></circle>
<text x="336.7" y="300.0" fill="#cccccc" font-size="8" text-anchor="middle" font-family="monospace" font-weight="bold">CL</text>
<text x="336.7" y="364.0" fill="#888" font-size="5.5" text-anchor="middle" font-family="monospace">CLINK</text>
<circle cx="313.7" cy="330.0" r="2.5" fill="#ffffff60" stroke-width="0"></circle>
<circle cx="359.7" cy="330.0" r="2.5" fill="#ffffff90" stroke-width="0"></circle>
<circle cx="372.2" cy="330.0" r="22.0" fill="#4e79a7" stroke="#ffffff20" stroke-width="1.0"></circle>
<circle cx="372.2" cy="330.0" r="12.1" fill="#153530" stroke-width="0"></circle>
<text x="372.2" y="332.0" fill="#20b2aa" font-size="7" text-anchor="middle" font-family="monospace" font-weight="bold">↑</text>
<text x="372.2" y="300.0" fill="#cccccc" font-size="8" text-anchor="middle" font-family="monospace" font-weight="bold">AF</text>
<text x="372.2" y="364.0" fill="#888" font-size="5.5" text-anchor="middle" font-family="monospace">AFWD</text>
<circle cx="349.2" cy="330.0" r="2.5" fill="#ffffff60" stroke-width="0"></circle>
<circle cx="395.2" cy="330.0" r="2.5" fill="#ffffff90" stroke-width="0"></circle>
<circle cx="407.8" cy="330.0" r="22.0" fill="#4e79a7" stroke="#ffffff20" stroke-width="1.0"></circle>
<circle cx="407.8" cy="330.0" r="12.1" fill="#332200" stroke-width="0"></circle>
<text x="407.8" y="332.0" fill="#ffd700" font-size="7" text-anchor="middle" font-family="monospace" font-weight="bold">↑↓</text>
<text x="407.8" y="300.0" fill="#cccccc" font-size="8" text-anchor="middle" font-family="monospace" font-weight="bold">AR</text>
<text x="407.8" y="364.0" fill="#888" font-size="5.5" text-anchor="middle" font-family="monospace">AREV</text>
<circle cx="384.8" cy="330.0" r="2.5" fill="#ffffff60" stroke-width="0"></circle>
<circle cx="430.8" cy="330.0" r="2.5" fill="#ffffff90" stroke-width="0"></circle>
<circle cx="443.3" cy="330.0" r="22.0" fill="#4e79a7" stroke="#ffffff20" stroke-width="1.0"></circle>
<circle cx="443.3" cy="330.0" r="12.1" fill="#332200" stroke-width="0"></circle>
<text x="443.3" y="332.0" fill="#ffd700" font-size="7" text-anchor="middle" font-family="monospace" font-weight="bold">↑↓</text>
<text x="443.3" y="300.0" fill="#cccccc" font-size="8" text-anchor="middle" font-family="monospace" font-weight="bold">AF</text>
<text x="443.3" y="364.0" fill="#888" font-size="5.5" text-anchor="middle" font-family="monospace">AFWD</text>
<circle cx="420.3" cy="330.0" r="2.5" fill="#ffffff60" stroke-width="0"></circle>
<circle cx="466.3" cy="330.0" r="2.5" fill="#ffffff90" stroke-width="0"></circle>
<circle cx="478.9" cy="330.0" r="22.0" fill="#4e79a7" stroke="#ffffff20" stroke-width="1.0"></circle>
<circle cx="478.9" cy="330.0" r="12.1" fill="#332200" stroke-width="0"></circle>
<text x="478.9" y="332.0" fill="#ffd700" font-size="7" text-anchor="middle" font-family="monospace" font-weight="bold">↑↓</text>
<text x="478.9" y="300.0" fill="#cccccc" font-size="8" text-anchor="middle" font-family="monospace" font-weight="bold">AF</text>
<text x="478.9" y="364.0" fill="#888" font-size="5.5" text-anchor="middle" font-family="monospace">AFWD</text>
<circle cx="455.9" cy="330.0" r="2.5" fill="#ffffff60" stroke-width="0"></circle>
<circle cx="501.9" cy="330.0" r="2.5" fill="#ffffff90" stroke-width="0"></circle>
<circle cx="514.4" cy="330.0" r="22.0" fill="#4e79a7" stroke="#ffffff20" stroke-width="1.0"></circle>
<circle cx="514.4" cy="330.0" r="12.1" fill="#332200" stroke-width="0"></circle>
<text x="514.4" y="332.0" fill="#ffd700" font-size="7" text-anchor="middle" font-family="monospace" font-weight="bold">↑↓</text>
<text x="514.4" y="300.0" fill="#cccccc" font-size="8" text-anchor="middle" font-family="monospace" font-weight="bold">CL</text>
<text x="514.4" y="364.0" fill="#888" font-size="5.5" text-anchor="middle" font-family="monospace">CLINK</text>
<circle cx="491.4" cy="330.0" r="2.5" fill="#ffffff60" stroke-width="0"></circle>
<circle cx="537.4" cy="330.0" r="2.5" fill="#ffffff90" stroke-width="0"></circle>
<circle cx="550.0" cy="330.0" r="22.0" fill="#4e79a7" stroke="#ffffff20" stroke-width="1.0"></circle>
<circle cx="550.0" cy="330.0" r="12.1" fill="#332200" stroke-width="0"></circle>
<text x="550.0" y="332.0" fill="#ffd700" font-size="7" text-anchor="middle" font-family="monospace" font-weight="bold">↑↓</text>
<text x="550.0" y="300.0" fill="#cccccc" font-size="8" text-anchor="middle" font-family="monospace" font-weight="bold">AF</text>
<text x="550.0" y="364.0" fill="#888" font-size="5.5" text-anchor="middle" font-family="monospace">AFWD</text>
<circle cx="527.0" cy="330.0" r="2.5" fill="#ffffff60" stroke-width="0"></circle>
<circle cx="573.0" cy="330.0" r="2.5" fill="#ffffff90" stroke-width="0"></circle>
<circle cx="585.6" cy="330.0" r="22.0" fill="#4e79a7" stroke="#ffffff20" stroke-width="1.0"></circle>
<circle cx="585.6" cy="330.0" r="12.1" fill="#332200" stroke-width="0"></circle>
<text x="585.6" y="332.0" fill="#ffd700" font-size="7" text-anchor="middle" font-family="monospace" font-weight="bold">↑↓</text>
<text x="585.6" y="300.0" fill="#cccccc" font-size="8" text-anchor="middle" font-family="monospace" font-weight="bold">AF</text>
<text x="585.6" y="364.0" fill="#888" font-size="5.5" text-anchor="middle" font-family="monospace">AFWD</text>
<circle cx="562.6" cy="330.0" r="2.5" fill="#ffffff60" stroke-width="0"></circle>
<circle cx="608.6" cy="330.0" r="2.5" fill="#ffffff90" stroke-width="0"></circle>
<circle cx="621.1" cy="330.0" r="22.0" fill="#4e79a7" stroke="#ffffff20" stroke-width="1.0"></circle>
<circle cx="621.1" cy="330.0" r="12.1" fill="#332200" stroke-width="0"></circle>
<text x="621.1" y="332.0" fill="#ffd700" font-size="7" text-anchor="middle" font-family="monospace" font-weight="bold">↑↓</text>
<text x="621.1" y="300.0" fill="#cccccc" font-size="8" text-anchor="middle" font-family="monospace" font-weight="bold">AF</text>
<text x="621.1" y="364.0" fill="#888" font-size="5.5" text-anchor="middle" font-family="monospace">AFWD</text>
<circle cx="598.1" cy="330.0" r="2.5" fill="#ffffff60" stroke-width="0"></circle>
<circle cx="644.1" cy="330.0" r="2.5" fill="#ffffff90" stroke-width="0"></circle>
<circle cx="656.7" cy="330.0" r="22.0" fill="#4e79a7" stroke="#ffffff20" stroke-width="1.0"></circle>
<circle cx="656.7" cy="330.0" r="12.1" fill="#332200" stroke-width="0"></circle>
<text x="656.7" y="332.0" fill="#ffd700" font-size="7" text-anchor="middle" font-family="monospace" font-weight="bold">↑↓</text>
<text x="656.7" y="300.0" fill="#cccccc" font-size="8" text-anchor="middle" font-family="monospace" font-weight="bold">AF</text>
<text x="656.7" y="364.0" fill="#888" font-size="5.5" text-anchor="middle" font-family="monospace">AFWD</text>
<circle cx="633.7" cy="330.0" r="2.5" fill="#ffffff60" stroke-width="0"></circle>
<circle cx="679.7" cy="330.0" r="2.5" fill="#ffffff90" stroke-width="0"></circle>
<circle cx="692.2" cy="330.0" r="22.0" fill="#4e79a7" stroke="#ffffff20" stroke-width="1.0"></circle>
<circle cx="692.2" cy="330.0" r="12.1" fill="#332200" stroke-width="0"></circle>
<text x="692.2" y="332.0" fill="#ffd700" font-size="7" text-anchor="middle" font-family="monospace" font-weight="bold">↑↓</text>
<text x="692.2" y="300.0" fill="#cccccc" font-size="8" text-anchor="middle" font-family="monospace" font-weight="bold">CL</text>
<text x="692.2" y="364.0" fill="#888" font-size="5.5" text-anchor="middle" font-family="monospace">CLINK</text>
<circle cx="669.2" cy="330.0" r="2.5" fill="#ffffff60" stroke-width="0"></circle>
<circle cx="715.2" cy="330.0" r="2.5" fill="#ffffff90" stroke-width="0"></circle>
<polygon points="727.7777777777778,308.0 749.8,330 727.7777777777778,352.0 705.8,330" fill="#ffd700" stroke="#ffffff20" stroke-width="1.0"></polygon>
<circle cx="727.8" cy="330.0" r="12.1" fill="#332200" stroke-width="0"></circle>
<text x="727.8" y="332.0" fill="#ffd700" font-size="7" text-anchor="middle" font-family="monospace" font-weight="bold">↑↓</text>
<text x="727.8" y="300.0" fill="#cccccc" font-size="8" text-anchor="middle" font-family="monospace" font-weight="bold">FS</text>
<text x="727.8" y="364.0" fill="#888" font-size="5.5" text-anchor="middle" font-family="monospace">FSPLIT</text>
<circle cx="704.8" cy="330.0" r="2.5" fill="#ffffff60" stroke-width="0"></circle>
<circle cx="750.8" cy="323.0" r="2.5" fill="#ffffff90" stroke-width="0"></circle>
<circle cx="750.8" cy="337.0" r="2.5" fill="#ffffff90" stroke-width="0"></circle>
<polygon points="776.5,201.0 757.4,212.0 738.4,201.0 738.4,179.0 757.4,168.0 776.5,179.0" fill="#e15759" stroke="#ffffff20" stroke-width="1.0"></polygon>
<circle cx="757.4" cy="190.0" r="12.1" fill="#332200" stroke-width="0"></circle>
<text x="757.4" y="192.0" fill="#ffd700" font-size="7" text-anchor="middle" font-family="monospace" font-weight="bold">↑↓</text>
<text x="757.4" y="160.0" fill="#cccccc" font-size="8" text-anchor="middle" font-family="monospace" font-weight="bold">ET</text>
<text x="757.4" y="224.0" fill="#888" font-size="5.5" text-anchor="middle" font-family="monospace">EVALT</text>
<circle cx="734.4" cy="190.0" r="3.5" fill="#f28e2b" stroke-width="0.8"></circle>
<circle cx="780.4" cy="190.0" r="3.5" fill="#59a14f" stroke-width="0.9"></circle>
<polygon points="788.3,481.0 769.3,492.0 750.2,481.0 750.2,459.0 769.3,448.0 788.3,459.0" fill="#e15759" stroke="#ffffff20" stroke-width="1.0"></polygon>
<circle cx="769.3" cy="470.0" r="12.1" fill="#332200" stroke-width="0"></circle>
<text x="769.3" y="472.0" fill="#ffd700" font-size="7" text-anchor="middle" font-family="monospace" font-weight="bold">↑↓</text>
<text x="769.3" y="440.0" fill="#cccccc" font-size="8" text-anchor="middle" font-family="monospace" font-weight="bold">EF</text>
<text x="769.3" y="504.0" fill="#888" font-size="5.5" text-anchor="middle" font-family="monospace">EVALF</text>
<circle cx="746.3" cy="470.0" r="3.5" fill="#f28e2b" stroke-width="0.8"></circle>
<circle cx="792.3" cy="470.0" r="3.5" fill="#59a14f" stroke-width="0.9"></circle>
<polygon points="798.8888888888889,308.0 820.9,330 798.8888888888889,352.0 776.9,330" fill="#ffd700" stroke="#ffffff20" stroke-width="1.0"></polygon>
<circle cx="798.9" cy="330.0" r="12.1" fill="#153530" stroke-width="0"></circle>
<text x="798.9" y="332.0" fill="#20b2aa" font-size="7" text-anchor="middle" font-family="monospace" font-weight="bold">↑</text>
<text x="798.9" y="300.0" fill="#cccccc" font-size="8" text-anchor="middle" font-family="monospace" font-weight="bold">FF</text>
<text x="798.9" y="364.0" fill="#888" font-size="5.5" text-anchor="middle" font-family="monospace">FFUSE</text>
<circle cx="775.9" cy="323.0" r="2.5" fill="#ffffff60" stroke-width="0"></circle>
<circle cx="775.9" cy="337.0" r="2.5" fill="#ffffff60" stroke-width="0"></circle>
<circle cx="821.9" cy="330.0" r="2.5" fill="#ffffff90" stroke-width="0"></circle>
<polygon points="853.5,341.0 834.4,352.0 815.4,341.0 815.4,319.0 834.4,308.0 853.5,319.0" fill="#e15759" stroke="#ffffff20" stroke-width="1.0"></polygon>
<circle cx="834.4" cy="330.0" r="12.1" fill="#153530" stroke-width="0"></circle>
<text x="834.4" y="332.0" fill="#20b2aa" font-size="7" text-anchor="middle" font-family="monospace" font-weight="bold">↑</text>
<text x="834.4" y="300.0" fill="#cccccc" font-size="8" text-anchor="middle" font-family="monospace" font-weight="bold">EG</text>
<text x="834.4" y="364.0" fill="#888" font-size="5.5" text-anchor="middle" font-family="monospace">ENGAGR</text>
<circle cx="811.4" cy="330.0" r="2.5" fill="#ffffff60" stroke-width="0"></circle>
<circle cx="857.4" cy="330.0" r="2.5" fill="#ffffff90" stroke-width="0"></circle>
<circle cx="870.0" cy="330.0" r="22.0" fill="#4e79a7" stroke="#ffffff20" stroke-width="1.0"></circle>
<circle cx="870.0" cy="330.0" r="12.1" fill="#332200" stroke-width="0"></circle>
<text x="870.0" y="332.0" fill="#ffd700" font-size="7" text-anchor="middle" font-family="monospace" font-weight="bold">↑↓</text>
<text x="870.0" y="300.0" fill="#cccccc" font-size="8" text-anchor="middle" font-family="monospace" font-weight="bold">AR</text>
<text x="870.0" y="364.0" fill="#888" font-size="5.5" text-anchor="middle" font-family="monospace">AREV</text>
<circle cx="847.0" cy="330.0" r="2.5" fill="#ffffff60" stroke-width="0"></circle>
<circle cx="893.0" cy="330.0" r="2.5" fill="#ffffff90" stroke-width="0"></circle>
<circle cx="905.6" cy="330.0" r="22.0" fill="#4e79a7" stroke="#ffffff20" stroke-width="1.0"></circle>
<circle cx="905.6" cy="330.0" r="12.1" fill="#332200" stroke-width="0"></circle>
<text x="905.6" y="332.0" fill="#ffd700" font-size="7" text-anchor="middle" font-family="monospace" font-weight="bold">↑↓</text>
<text x="905.6" y="300.0" fill="#cccccc" font-size="8" text-anchor="middle" font-family="monospace" font-weight="bold">CL</text>
<text x="905.6" y="364.0" fill="#888" font-size="5.5" text-anchor="middle" font-family="monospace">CLINK</text>
<circle cx="882.6" cy="330.0" r="2.5" fill="#ffffff60" stroke-width="0"></circle>
<circle cx="928.6" cy="330.0" r="2.5" fill="#ffffff90" stroke-width="0"></circle>
<circle cx="941.1" cy="330.0" r="22.0" fill="#4e79a7" stroke="#ffffff20" stroke-width="1.0"></circle>
<circle cx="941.1" cy="330.0" r="12.1" fill="#332200" stroke-width="0"></circle>
<text x="941.1" y="332.0" fill="#ffd700" font-size="7" text-anchor="middle" font-family="monospace" font-weight="bold">↑↓</text>
<text x="941.1" y="300.0" fill="#cccccc" font-size="8" text-anchor="middle" font-family="monospace" font-weight="bold">IM</text>
<text x="941.1" y="364.0" fill="#888" font-size="5.5" text-anchor="middle" font-family="monospace">IMSCRIB</text>
<circle cx="918.1" cy="330.0" r="2.5" fill="#ffffff60" stroke-width="0"></circle>
<circle cx="964.1" cy="330.0" r="2.5" fill="#ffffff90" stroke-width="0"></circle>
<rect x="954.7" y="308.0" width="44.0" height="44.0" fill="#59a14f" stroke="#ffffff20" stroke-width="1.0"></rect>
<circle cx="976.7" cy="330.0" r="12.1" fill="#332200" stroke-width="0"></circle>
<text x="976.7" y="332.0" fill="#ffd700" font-size="7" text-anchor="middle" font-family="monospace" font-weight="bold">↑↓</text>
<text x="976.7" y="300.0" fill="#cccccc" font-size="8" text-anchor="middle" font-family="monospace" font-weight="bold">IX</text>
<text x="976.7" y="364.0" fill="#888" font-size="5.5" text-anchor="middle" font-family="monospace">IFIX</text>
<circle cx="953.7" cy="330.0" r="2.5" fill="#ffffff60" stroke-width="0"></circle>
<circle cx="999.7" cy="330.0" r="2.5" fill="#ffffff90" stroke-width="0"></circle>
<circle cx="1012.2" cy="330.0" r="22.0" fill="#4e79a7" stroke="#ffffff20" stroke-width="1.0"></circle>
<circle cx="1012.2" cy="330.0" r="12.1" fill="#332200" stroke-width="0"></circle>
<text x="1012.2" y="332.0" fill="#ffd700" font-size="7" text-anchor="middle" font-family="monospace" font-weight="bold">↑↓</text>
<text x="1012.2" y="300.0" fill="#cccccc" font-size="8" text-anchor="middle" font-family="monospace" font-weight="bold">TA</text>
<text x="1012.2" y="364.0" fill="#888" font-size="5.5" text-anchor="middle" font-family="monospace">TANCH</text>
<circle cx="989.2" cy="330.0" r="2.5" fill="#ffffff60" stroke-width="0"></circle>
<circle cx="1035.2" cy="330.0" r="2.5" fill="#ffffff90" stroke-width="0"></circle>
<path d="M1012.2,330.0 Q550.0,275.0 87.8,330.0" fill="none" stroke="#9988cc" stroke-width="1.5" opacity="0.5"></path>
<polygon points="87.8,330.0 79.4,327.0 80.3,334.9" fill="#9988cc" opacity="0.5"></polygon>
<text x="550.0" y="260.0" fill="#9988cc" font-size="8" text-anchor="middle" font-family="serif">O₂</text>
<text x="550.0" y="621.0" fill="#9988aa" font-size="7" text-anchor="middle" font-family="serif">Ouroboricity: O₂</text>
<text x="70.0" y="52.0" fill="#666" font-size="6" text-anchor="start" font-family="monospace" font-weight="bold">NODES</text>
<circle cx="110.0" cy="59.0" r="4.5" fill="#4e79a7" stroke-width="0"></circle>
<text x="120.0" y="62.0" fill="#4e79a7" font-size="5" text-anchor="start" font-family="monospace">LOGI</text>
<polygon points="158,54.5 162.5,59 158,63.5 153.5,59" fill="#ffd700" stroke="#ffffff20" stroke-width="1.0"></polygon>
<text x="168.0" y="62.0" fill="#ffd700" font-size="5" text-anchor="start" font-family="monospace">FROB</text>
<polygon points="209.9,61.2 206.0,63.5 202.1,61.2 202.1,56.8 206.0,54.5 209.9,56.8" fill="#e15759" stroke="#ffffff20" stroke-width="1.0"></polygon>
<text x="216.0" y="62.0" fill="#e15759" font-size="5" text-anchor="start" font-family="monospace">DIAL</text>
<rect x="249.5" y="54.5" width="9.0" height="9.0" fill="#59a14f" stroke="#ffffff20" stroke-width="1.0"></rect>
<text x="264.0" y="62.0" fill="#59a14f" font-size="5" text-anchor="start" font-family="monospace">LINE</text>
<text x="312.0" y="52.0" fill="#666" font-size="6" text-anchor="start" font-family="monospace" font-weight="bold">EDGES</text>
<line x1="350.0" y1="59.0" x2="364.0" y2="59.0" stroke="#59a14f" stroke-width="1.5" opacity="0.7"></line>
<text x="368.0" y="62.0" fill="#59a14f" font-size="5" text-anchor="start" font-family="monospace">AFWD</text>
<line x1="402.0" y1="59.0" x2="416.0" y2="59.0" stroke="#e15759" stroke-width="1.5" opacity="0.7"></line>
<text x="420.0" y="62.0" fill="#e15759" font-size="5" text-anchor="start" font-family="monospace">AREV</text>
<line x1="454.0" y1="59.0" x2="468.0" y2="59.0" stroke="#f28e2b" stroke-width="1.5" opacity="0.7"></line>
<text x="472.0" y="62.0" fill="#f28e2b" font-size="5" text-anchor="start" font-family="monospace">CLINK</text>
<line x1="506.0" y1="59.0" x2="520.0" y2="59.0" stroke="#b07aa1" stroke-width="1.5" opacity="0.7" stroke-dasharray="4,3"></line>
<text x="524.0" y="62.0" fill="#b07aa1" font-size="5" text-anchor="start" font-family="monospace">TANCH</text>
<line x1="558.0" y1="59.0" x2="572.0" y2="59.0" stroke="#ffd700" stroke-width="1.5" opacity="0.7"></line>
<text x="576.0" y="62.0" fill="#ffd700" font-size="5" text-anchor="start" font-family="monospace">IMSC</text>
<line x1="610.0" y1="59.0" x2="624.0" y2="59.0" stroke="#cc3344" stroke-width="1.5" opacity="0.7"></line>
<text x="628.0" y="62.0" fill="#cc3344" font-size="5" text-anchor="start" font-family="monospace">IFIX</text>
<text x="70.0" y="72.0" fill="#666" font-size="6" text-anchor="start" font-family="monospace" font-weight="bold">GUARD</text>
<circle cx="110.0" cy="79.0" r="3.0" fill="#f28e2b" stroke-width="0.8"></circle>
<text x="117.0" y="82.0" fill="#f28e2b" font-size="5" text-anchor="start" font-family="monospace">approach</text>
<circle cx="162.0" cy="79.0" r="3.0" fill="#59a14f" stroke-width="0.9"></circle>
<text x="169.0" y="82.0" fill="#59a14f" font-size="5" text-anchor="start" font-family="monospace">passed</text>
<text x="214.0" y="72.0" fill="#666" font-size="6" text-anchor="start" font-family="monospace" font-weight="bold">REG Δ</text>
<text x="252.0" y="82.0" fill="#20b888" font-size="5.5" text-anchor="start" font-family="monospace">→↑</text>
<text x="280.0" y="82.0" fill="#ffd700" font-size="5.5" text-anchor="start" font-family="monospace">↓→↑↓</text>
<text x="308.0" y="82.0" fill="#e15759" font-size="5.5" text-anchor="start" font-family="monospace">↑↔↓</text>
<line x1="344.0" y1="79.0" x2="358.0" y2="79.0" stroke="#ffd700" stroke-width="1.5" opacity="0.6" stroke-dasharray="5,3"></line>
<text x="362.0" y="82.0" fill="#ffd700" font-size="5.5" text-anchor="start" font-family="monospace">cross-br.</text>
<line x1="404.0" y1="79.0" x2="418.0" y2="79.0" stroke="#9988cc" stroke-width="1.5" opacity="0.5"></line>
<text x="422.0" y="82.0" fill="#9988cc" font-size="5.5" text-anchor="start" font-family="monospace">loop</text>
</svg>