<svg xmlns="http://www.w3.org/2000/svg" viewBox="0 0 1100 720">
<rect width="1100" height="720" fill="#0a0a15"/>
<line x1="0.0" y1="0.0" x2="0.0" y2="720.0" stroke="#151525" stroke-width="0.4" opacity="0.25"></line>
<line x1="40.0" y1="0.0" x2="40.0" y2="720.0" stroke="#151525" stroke-width="0.4" opacity="0.25"></line>
<line x1="80.0" y1="0.0" x2="80.0" y2="720.0" stroke="#151525" stroke-width="0.4" opacity="0.25"></line>
<line x1="120.0" y1="0.0" x2="120.0" y2="720.0" stroke="#151525" stroke-width="0.4" opacity="0.25"></line>
<line x1="160.0" y1="0.0" x2="160.0" y2="720.0" stroke="#151525" stroke-width="0.4" opacity="0.25"></line>
<line x1="200.0" y1="0.0" x2="200.0" y2="720.0" stroke="#151525" stroke-width="0.4" opacity="0.25"></line>
<line x1="240.0" y1="0.0" x2="240.0" y2="720.0" stroke="#151525" stroke-width="0.4" opacity="0.25"></line>
<line x1="280.0" y1="0.0" x2="280.0" y2="720.0" stroke="#151525" stroke-width="0.4" opacity="0.25"></line>
<line x1="320.0" y1="0.0" x2="320.0" y2="720.0" stroke="#151525" stroke-width="0.4" opacity="0.25"></line>
<line x1="360.0" y1="0.0" x2="360.0" y2="720.0" stroke="#151525" stroke-width="0.4" opacity="0.25"></line>
<line x1="400.0" y1="0.0" x2="400.0" y2="720.0" stroke="#151525" stroke-width="0.4" opacity="0.25"></line>
<line x1="440.0" y1="0.0" x2="440.0" y2="720.0" stroke="#151525" stroke-width="0.4" opacity="0.25"></line>
<line x1="480.0" y1="0.0" x2="480.0" y2="720.0" stroke="#151525" stroke-width="0.4" opacity="0.25"></line>
<line x1="520.0" y1="0.0" x2="520.0" y2="720.0" stroke="#151525" stroke-width="0.4" opacity="0.25"></line>
<line x1="560.0" y1="0.0" x2="560.0" y2="720.0" stroke="#151525" stroke-width="0.4" opacity="0.25"></line>
<line x1="600.0" y1="0.0" x2="600.0" y2="720.0" stroke="#151525" stroke-width="0.4" opacity="0.25"></line>
<line x1="640.0" y1="0.0" x2="640.0" y2="720.0" stroke="#151525" stroke-width="0.4" opacity="0.25"></line>
<line x1="680.0" y1="0.0" x2="680.0" y2="720.0" stroke="#151525" stroke-width="0.4" opacity="0.25"></line>
<line x1="720.0" y1="0.0" x2="720.0" y2="720.0" stroke="#151525" stroke-width="0.4" opacity="0.25"></line>
<line x1="760.0" y1="0.0" x2="760.0" y2="720.0" stroke="#151525" stroke-width="0.4" opacity="0.25"></line>
<line x1="800.0" y1="0.0" x2="800.0" y2="720.0" stroke="#151525" stroke-width="0.4" opacity="0.25"></line>
<line x1="840.0" y1="0.0" x2="840.0" y2="720.0" stroke="#151525" stroke-width="0.4" opacity="0.25"></line>
<line x1="880.0" y1="0.0" x2="880.0" y2="720.0" stroke="#151525" stroke-width="0.4" opacity="0.25"></line>
<line x1="920.0" y1="0.0" x2="920.0" y2="720.0" stroke="#151525" stroke-width="0.4" opacity="0.25"></line>
<line x1="960.0" y1="0.0" x2="960.0" y2="720.0" stroke="#151525" stroke-width="0.4" opacity="0.25"></line>
<line x1="1000.0" y1="0.0" x2="1000.0" y2="720.0" stroke="#151525" stroke-width="0.4" opacity="0.25"></line>
<line x1="1040.0" y1="0.0" x2="1040.0" y2="720.0" stroke="#151525" stroke-width="0.4" opacity="0.25"></line>
<line x1="1080.0" y1="0.0" x2="1080.0" y2="720.0" stroke="#151525" stroke-width="0.4" opacity="0.25"></line>
<line x1="0.0" y1="0.0" x2="1100.0" y2="0.0" stroke="#151525" stroke-width="0.4" opacity="0.25"></line>
<line x1="0.0" y1="40.0" x2="1100.0" y2="40.0" stroke="#151525" stroke-width="0.4" opacity="0.25"></line>
<line x1="0.0" y1="80.0" x2="1100.0" y2="80.0" stroke="#151525" stroke-width="0.4" opacity="0.25"></line>
<line x1="0.0" y1="120.0" x2="1100.0" y2="120.0" stroke="#151525" stroke-width="0.4" opacity="0.25"></line>
<line x1="0.0" y1="160.0" x2="1100.0" y2="160.0" stroke="#151525" stroke-width="0.4" opacity="0.25"></line>
<line x1="0.0" y1="200.0" x2="1100.0" y2="200.0" stroke="#151525" stroke-width="0.4" opacity="0.25"></line>
<line x1="0.0" y1="240.0" x2="1100.0" y2="240.0" stroke="#151525" stroke-width="0.4" opacity="0.25"></line>
<line x1="0.0" y1="280.0" x2="1100.0" y2="280.0" stroke="#151525" stroke-width="0.4" opacity="0.25"></line>
<line x1="0.0" y1="320.0" x2="1100.0" y2="320.0" stroke="#151525" stroke-width="0.4" opacity="0.25"></line>
<line x1="0.0" y1="360.0" x2="1100.0" y2="360.0" stroke="#151525" stroke-width="0.4" opacity="0.25"></line>
<line x1="0.0" y1="400.0" x2="1100.0" y2="400.0" stroke="#151525" stroke-width="0.4" opacity="0.25"></line>
<line x1="0.0" y1="440.0" x2="1100.0" y2="440.0" stroke="#151525" stroke-width="0.4" opacity="0.25"></line>
<line x1="0.0" y1="480.0" x2="1100.0" y2="480.0" stroke="#151525" stroke-width="0.4" opacity="0.25"></line>
<line x1="0.0" y1="520.0" x2="1100.0" y2="520.0" stroke="#151525" stroke-width="0.4" opacity="0.25"></line>
<line x1="0.0" y1="560.0" x2="1100.0" y2="560.0" stroke="#151525" stroke-width="0.4" opacity="0.25"></line>
<line x1="0.0" y1="600.0" x2="1100.0" y2="600.0" stroke="#151525" stroke-width="0.4" opacity="0.25"></line>
<line x1="0.0" y1="640.0" x2="1100.0" y2="640.0" stroke="#151525" stroke-width="0.4" opacity="0.25"></line>
<line x1="0.0" y1="680.0" x2="1100.0" y2="680.0" stroke="#151525" stroke-width="0.4" opacity="0.25"></line>
<text x="550.0" y="26.0" fill="#cccccc" font-size="13" text-anchor="middle" font-family="monospace" font-weight="bold">the lifetime old hodge conjecture imscription bu</text>
<text x="22.0" y="190.0" fill="#20c0b0" font-size="7" text-anchor="middle" font-family="monospace">T-lane</text>
<text x="22.0" y="135.0" fill="#20c0b0" font-size="7" text-anchor="middle" font-family="monospace">T[d1]</text>
<text x="22.0" y="330.0" fill="#555" font-size="7" text-anchor="middle" font-family="monospace">main</text>
<line x1="964.5" y1="103.0" x2="964.5" y2="362.0" stroke="#cc3344" stroke-width="1.8" opacity="0.4" stroke-dasharray="6,4"></line>
<text x="964.5" y="93.0" fill="#cc3344" font-size="7" text-anchor="middle" font-family="monospace" font-weight="bold">IFIX</text>
<polygon points="964.5454545454545,99.0 968.5,103 964.5454545454545,107.0 960.5,103" fill="#cc3344" opacity="0.6"></polygon>
<polygon points="964.5454545454545,358.0 968.5,362 964.5454545454545,366.0 960.5,362" fill="#cc3344" opacity="0.6"></polygon>
<line x1="229.1" y1="301.7" x2="247.1" y2="301.7" stroke="#5b9bd5" stroke-width="1.4" opacity="0.55"></line>
<line x1="247.1" y1="301.7" x2="247.1" y2="163.3" stroke="#5b9bd5" stroke-width="1.4" opacity="0.55"></line>
<line x1="247.1" y1="163.3" x2="252.0" y2="163.3" stroke="#5b9bd5" stroke-width="1.4" opacity="0.55"></line>
<polygon points="260.0,163.3 252.0,166.5 252.0,160.1" fill="#5b9bd5" opacity="0.55"></polygon>
<rect x="242.5" y="220.5" width="4.0" height="10" fill="#0a0a15" opacity="0.7" rx="3"></rect>
<text x="244.5" y="228.5" fill="#20b888" font-size="6" text-anchor="middle" font-family="monospace">↑</text>
<line x1="295.4" y1="135.0" x2="289.0" y2="135.0" stroke="#59a14f" stroke-width="1.3" opacity="0.55"></line>
<polygon points="281.0,135.0 289.0,131.8 289.0,138.2" fill="#59a14f" opacity="0.55"></polygon>
<line x1="339.0" y1="135.0" x2="332.6" y2="135.0" stroke="#20d0b8" stroke-width="1.3" opacity="0.55"></line>
<polygon points="324.6,135.0 332.6,131.8 332.6,138.2" fill="#20d0b8" opacity="0.55"></polygon>
<rect x="327.8" y="123.0" width="8.0" height="10" fill="#0a0a15" opacity="0.7" rx="3"></rect>
<text x="331.8" y="131.0" fill="#20b888" font-size="6" text-anchor="middle" font-family="monospace">↑→</text>
<line x1="382.6" y1="138.5" x2="377.3" y2="138.5" stroke="#f28e2b" stroke-width="1.0" opacity="0.55"></line>
<line x1="382.6" y1="131.5" x2="377.3" y2="131.5" stroke="#f28e2b" stroke-width="1.0" opacity="0.55"></line>
<polygon points="368.3,135.0 378.3,131.0 378.3,139.0" fill="#f28e2b" opacity="0.55"></polygon>
<rect x="373.5" y="123.0" width="4.0" height="10" fill="#0a0a15" opacity="0.7" rx="3"></rect>
<text x="375.5" y="131.0" fill="#20b888" font-size="6" text-anchor="middle" font-family="monospace">↑</text>
<line x1="426.3" y1="135.0" x2="419.9" y2="135.0" stroke="#20d0b8" stroke-width="1.3" opacity="0.55"></line>
<polygon points="411.9,135.0 419.9,131.8 419.9,138.2" fill="#20d0b8" opacity="0.55"></polygon>
<rect x="415.1" y="123.0" width="8.0" height="10" fill="#0a0a15" opacity="0.7" rx="3"></rect>
<text x="419.1" y="131.0" fill="#20b888" font-size="6" text-anchor="middle" font-family="monospace">↑→</text>
<line x1="469.9" y1="138.5" x2="464.5" y2="138.5" stroke="#f28e2b" stroke-width="1.0" opacity="0.55"></line>
<line x1="469.9" y1="131.5" x2="464.5" y2="131.5" stroke="#f28e2b" stroke-width="1.0" opacity="0.55"></line>
<polygon points="455.5,135.0 465.5,131.0 465.5,139.0" fill="#f28e2b" opacity="0.55"></polygon>
<rect x="460.7" y="123.0" width="4.0" height="10" fill="#0a0a15" opacity="0.7" rx="3"></rect>
<text x="462.7" y="131.0" fill="#20b888" font-size="6" text-anchor="middle" font-family="monospace">↑</text>
<line x1="490.9" y1="163.3" x2="508.9" y2="163.3" stroke="#20d0b8" stroke-width="1.3" opacity="0.55"></line>
<line x1="508.9" y1="163.3" x2="508.9" y2="301.7" stroke="#20d0b8" stroke-width="1.3" opacity="0.55"></line>
<line x1="508.9" y1="301.7" x2="513.8" y2="301.7" stroke="#20d0b8" stroke-width="1.3" opacity="0.55"></line>
<polygon points="521.8,301.7 513.8,304.9 513.8,298.5" fill="#20d0b8" opacity="0.55"></polygon>
<line x1="251.7" y1="330.0" x2="491.2" y2="330.0" stroke="#2b6b9f" stroke-width="1.4" opacity="0.55"></line>
<polygon points="499.2,330.0 491.2,333.2 491.2,326.8" fill="#2b6b9f" opacity="0.55"></polygon>
<rect x="373.5" y="318.0" width="4.0" height="10" fill="#0a0a15" opacity="0.7" rx="3"></rect>
<text x="375.5" y="326.0" fill="#20b888" font-size="6" text-anchor="middle" font-family="monospace">↑</text>
<line x1="578.2" y1="301.7" x2="596.2" y2="301.7" stroke="#ed7d31" stroke-width="1.4" opacity="0.55"></line>
<line x1="596.2" y1="301.7" x2="596.2" y2="163.3" stroke="#ed7d31" stroke-width="1.4" opacity="0.55"></line>
<line x1="596.2" y1="163.3" x2="601.1" y2="163.3" stroke="#ed7d31" stroke-width="1.4" opacity="0.55"></line>
<polygon points="609.1,163.3 601.1,166.5 601.1,160.1" fill="#ed7d31" opacity="0.55"></polygon>
<line x1="644.5" y1="135.0" x2="638.1" y2="135.0" stroke="#20d0b8" stroke-width="1.3" opacity="0.55"></line>
<polygon points="630.1,135.0 638.1,131.8 638.1,138.2" fill="#20d0b8" opacity="0.55"></polygon>
<line x1="688.1" y1="135.0" x2="681.7" y2="135.0" stroke="#20d0b8" stroke-width="1.3" opacity="0.55"></line>
<polygon points="673.7,135.0 681.7,131.8 681.7,138.2" fill="#20d0b8" opacity="0.55"></polygon>
<line x1="731.7" y1="135.0" x2="725.4" y2="135.0" stroke="#20d0b8" stroke-width="1.3" opacity="0.55"></line>
<polygon points="717.4,135.0 725.4,131.8 725.4,138.2" fill="#20d0b8" opacity="0.55"></polygon>
<line x1="775.4" y1="135.0" x2="769.0" y2="135.0" stroke="#20d0b8" stroke-width="1.3" opacity="0.55"></line>
<polygon points="761.0,135.0 769.0,131.8 769.0,138.2" fill="#20d0b8" opacity="0.55"></polygon>
<line x1="796.3" y1="163.3" x2="822.3" y2="163.3" stroke="#20d0b8" stroke-width="1.3" opacity="0.55"></line>
<line x1="822.3" y1="163.3" x2="822.3" y2="301.7" stroke="#20d0b8" stroke-width="1.3" opacity="0.55"></line>
<line x1="822.3" y1="301.7" x2="819.3" y2="301.7" stroke="#20d0b8" stroke-width="1.3" opacity="0.55"></line>
<polygon points="827.3,301.7 819.3,304.9 819.3,298.5" fill="#20d0b8" opacity="0.55"></polygon>
<line x1="600.8" y1="330.0" x2="796.6" y2="330.0" stroke="#b85a1c" stroke-width="1.4" opacity="0.55"></line>
<polygon points="804.6,330.0 796.6,333.2 796.6,326.8" fill="#b85a1c" opacity="0.55"></polygon>
<line x1="120.8" y1="330.0" x2="114.5" y2="330.0" stroke="#6baed6" stroke-width="1.3" opacity="0.75"></line>
<polygon points="106.5,330.0 114.5,326.8 114.5,333.2" fill="#6baed6" opacity="0.75"></polygon>
<rect x="111.6" y="318.0" width="4.0" height="10" fill="#0a0a15" opacity="0.7" rx="3"></rect>
<text x="113.6" y="326.0" fill="#20b888" font-size="6" text-anchor="middle" font-family="monospace">↑</text>
<line x1="164.5" y1="330.0" x2="158.1" y2="330.0" stroke="#ffd700" stroke-width="1.3" opacity="0.75"></line>
<polygon points="150.1,330.0 158.1,326.8 158.1,333.2" fill="#ffd700" opacity="0.75"></polygon>
<rect x="153.3" y="318.0" width="8.0" height="10" fill="#0a0a15" opacity="0.7" rx="3"></rect>
<text x="157.3" y="326.0" fill="#20b888" font-size="6" text-anchor="middle" font-family="monospace">↑→</text>
<line x1="208.1" y1="333.5" x2="202.7" y2="333.5" stroke="#f28e2b" stroke-width="1.0" opacity="0.75"></line>
<line x1="208.1" y1="326.5" x2="202.7" y2="326.5" stroke="#f28e2b" stroke-width="1.0" opacity="0.75"></line>
<polygon points="193.7,330.0 203.7,326.0 203.7,334.0" fill="#f28e2b" opacity="0.75"></polygon>
<line x1="906.3" y1="333.5" x2="900.9" y2="333.5" stroke="#f28e2b" stroke-width="1.0" opacity="0.75"></line>
<line x1="906.3" y1="326.5" x2="900.9" y2="326.5" stroke="#f28e2b" stroke-width="1.0" opacity="0.75"></line>
<polygon points="891.9,330.0 901.9,326.0 901.9,334.0" fill="#f28e2b" opacity="0.75"></polygon>
<line x1="949.9" y1="330.0" x2="943.5" y2="330.0" stroke="#e15759" stroke-width="1.3" opacity="0.75"></line>
<polygon points="935.5,330.0 943.5,326.8 943.5,333.2" fill="#e15759" opacity="0.75"></polygon>
<line x1="993.5" y1="330.0" x2="987.2" y2="330.0" stroke="#cc3344" stroke-width="1.3" opacity="0.75"></line>
<polygon points="979.2,330.0 987.2,326.8 987.2,333.2" fill="#cc3344" opacity="0.75"></polygon>
<line x1="557.2" y1="330.0" x2="550.8" y2="330.0" stroke="#ffd700" stroke-width="1.3" opacity="0.55"></line>
<polygon points="542.8,330.0 550.8,326.8 550.8,333.2" fill="#ffd700" opacity="0.55"></polygon>
<line x1="862.6" y1="330.0" x2="856.3" y2="330.0" stroke="#ffd700" stroke-width="1.3" opacity="0.55"></line>
<polygon points="848.3,330.0 856.3,326.8 856.3,333.2" fill="#ffd700" opacity="0.55"></polygon>
<rect x="851.5" y="318.0" width="8.0" height="10" fill="#0a0a15" opacity="0.7" rx="3"></rect>
<text x="855.5" y="326.0" fill="#20b888" font-size="6" text-anchor="middle" font-family="monospace">↑→</text>
<path d="M251.7,330.0 Q375.5,470.0 499.2,330.0" fill="none" stroke="#2b6b9f" stroke-dasharray="4,4" stroke-width="1" opacity="0.25"></path>
<path d="M600.8,330.0 Q702.7,470.0 804.6,330.0" fill="none" stroke="#b85a1c" stroke-dasharray="4,4" stroke-width="1" opacity="0.25"></path>
<circle cx="91.8" cy="330.0" r="22.0" fill="#4e79a7" stroke="#ffffff20" stroke-width="1.0"></circle>
<text x="91.8" y="300.0" fill="#cccccc" font-size="8" text-anchor="middle" font-family="monospace" font-weight="bold">VI</text>
<text x="91.8" y="364.0" fill="#888" font-size="5.5" text-anchor="middle" font-family="monospace">VINIT</text>
<circle cx="114.8" cy="330.0" r="2.5" fill="#ffffff90" stroke-width="0"></circle>
<circle cx="135.5" cy="330.0" r="22.0" fill="#4e79a7" stroke="#ffffff20" stroke-width="1.0"></circle>
<circle cx="135.5" cy="330.0" r="12.1" fill="#153530" stroke-width="0"></circle>
<text x="135.5" y="332.0" fill="#20b2aa" font-size="7" text-anchor="middle" font-family="monospace" font-weight="bold">↑</text>
<text x="135.5" y="300.0" fill="#cccccc" font-size="8" text-anchor="middle" font-family="monospace" font-weight="bold">IM</text>
<text x="135.5" y="364.0" fill="#888" font-size="5.5" text-anchor="middle" font-family="monospace">IMSCRIB</text>
<circle cx="112.5" cy="330.0" r="2.5" fill="#ffffff60" stroke-width="0"></circle>
<circle cx="158.5" cy="330.0" r="2.5" fill="#ffffff90" stroke-width="0"></circle>
<circle cx="179.1" cy="330.0" r="22.0" fill="#4e79a7" stroke="#ffffff20" stroke-width="1.0"></circle>
<text x="179.1" y="300.0" fill="#cccccc" font-size="8" text-anchor="middle" font-family="monospace" font-weight="bold">CL</text>
<text x="179.1" y="364.0" fill="#888" font-size="5.5" text-anchor="middle" font-family="monospace">CLINK</text>
<circle cx="156.1" cy="330.0" r="2.5" fill="#ffffff60" stroke-width="0"></circle>
<circle cx="202.1" cy="330.0" r="2.5" fill="#ffffff90" stroke-width="0"></circle>
<polygon points="222.72727272727272,308.0 244.7,330 222.72727272727272,352.0 200.7,330" fill="#ffd700" stroke="#ffffff20" stroke-width="1.0"></polygon>
<text x="222.7" y="300.0" fill="#cccccc" font-size="8" text-anchor="middle" font-family="monospace" font-weight="bold">FS</text>
<text x="222.7" y="364.0" fill="#888" font-size="5.5" text-anchor="middle" font-family="monospace">FSPLIT</text>
<circle cx="199.7" cy="330.0" r="2.5" fill="#ffffff60" stroke-width="0"></circle>
<circle cx="245.7" cy="323.0" r="2.5" fill="#ffffff90" stroke-width="0"></circle>
<circle cx="245.7" cy="337.0" r="2.5" fill="#ffffff90" stroke-width="0"></circle>
<circle cx="266.4" cy="135.0" r="22.0" fill="#4e79a7" stroke="#ffffff20" stroke-width="1.0"></circle>
<circle cx="266.4" cy="135.0" r="12.1" fill="#153530" stroke-width="0"></circle>
<text x="266.4" y="137.0" fill="#20b2aa" font-size="7" text-anchor="middle" font-family="monospace" font-weight="bold">↑</text>
<text x="266.4" y="105.0" fill="#cccccc" font-size="8" text-anchor="middle" font-family="monospace" font-weight="bold">AF</text>
<text x="266.4" y="169.0" fill="#888" font-size="5.5" text-anchor="middle" font-family="monospace">AFWD</text>
<circle cx="243.4" cy="135.0" r="2.5" fill="#ffffff60" stroke-width="0"></circle>
<circle cx="289.4" cy="135.0" r="2.5" fill="#ffffff90" stroke-width="0"></circle>
<polygon points="329.1,146.0 310.0,157.0 290.9,146.0 290.9,124.0 310.0,113.0 329.1,124.0" fill="#e15759" stroke="#ffffff20" stroke-width="1.0"></polygon>
<circle cx="310.0" cy="135.0" r="12.1" fill="#153530" stroke-width="0"></circle>
<text x="310.0" y="137.0" fill="#20b2aa" font-size="7" text-anchor="middle" font-family="monospace" font-weight="bold">↑</text>
<text x="310.0" y="105.0" fill="#cccccc" font-size="8" text-anchor="middle" font-family="monospace" font-weight="bold">ET</text>
<text x="310.0" y="169.0" fill="#888" font-size="5.5" text-anchor="middle" font-family="monospace">EVALT</text>
<circle cx="287.0" cy="135.0" r="3.5" fill="#f28e2b" stroke-width="0.8"></circle>
<circle cx="333.0" cy="135.0" r="3.5" fill="#59a14f" stroke-width="0.9"></circle>
<circle cx="353.6" cy="135.0" r="22.0" fill="#4e79a7" stroke="#ffffff20" stroke-width="1.0"></circle>
<text x="353.6" y="105.0" fill="#cccccc" font-size="8" text-anchor="middle" font-family="monospace" font-weight="bold">CL</text>
<text x="353.6" y="169.0" fill="#888" font-size="5.5" text-anchor="middle" font-family="monospace">CLINK</text>
<circle cx="330.6" cy="135.0" r="2.5" fill="#ffffff60" stroke-width="0"></circle>
<circle cx="376.6" cy="135.0" r="2.5" fill="#ffffff90" stroke-width="0"></circle>
<polygon points="416.3,146.0 397.3,157.0 378.2,146.0 378.2,124.0 397.3,113.0 416.3,124.0" fill="#e15759" stroke="#ffffff20" stroke-width="1.0"></polygon>
<circle cx="397.3" cy="135.0" r="12.1" fill="#153530" stroke-width="0"></circle>
<text x="397.3" y="137.0" fill="#20b2aa" font-size="7" text-anchor="middle" font-family="monospace" font-weight="bold">↑</text>
<text x="397.3" y="105.0" fill="#cccccc" font-size="8" text-anchor="middle" font-family="monospace" font-weight="bold">ET</text>
<text x="397.3" y="169.0" fill="#888" font-size="5.5" text-anchor="middle" font-family="monospace">EVALT</text>
<circle cx="374.3" cy="135.0" r="3.5" fill="#f28e2b" stroke-width="0.8"></circle>
<circle cx="420.3" cy="135.0" r="3.5" fill="#59a14f" stroke-width="0.9"></circle>
<circle cx="440.9" cy="135.0" r="22.0" fill="#4e79a7" stroke="#ffffff20" stroke-width="1.0"></circle>
<text x="440.9" y="105.0" fill="#cccccc" font-size="8" text-anchor="middle" font-family="monospace" font-weight="bold">CL</text>
<text x="440.9" y="169.0" fill="#888" font-size="5.5" text-anchor="middle" font-family="monospace">CLINK</text>
<circle cx="417.9" cy="135.0" r="2.5" fill="#ffffff60" stroke-width="0"></circle>
<circle cx="463.9" cy="135.0" r="2.5" fill="#ffffff90" stroke-width="0"></circle>
<polygon points="503.6,146.0 484.5,157.0 465.5,146.0 465.5,124.0 484.5,113.0 503.6,124.0" fill="#e15759" stroke="#ffffff20" stroke-width="1.0"></polygon>
<circle cx="484.5" cy="135.0" r="12.1" fill="#153530" stroke-width="0"></circle>
<text x="484.5" y="137.0" fill="#20b2aa" font-size="7" text-anchor="middle" font-family="monospace" font-weight="bold">↑</text>
<text x="484.5" y="105.0" fill="#cccccc" font-size="8" text-anchor="middle" font-family="monospace" font-weight="bold">ET</text>
<text x="484.5" y="169.0" fill="#888" font-size="5.5" text-anchor="middle" font-family="monospace">EVALT</text>
<circle cx="461.5" cy="135.0" r="3.5" fill="#f28e2b" stroke-width="0.8"></circle>
<circle cx="507.5" cy="135.0" r="3.5" fill="#59a14f" stroke-width="0.9"></circle>
<polygon points="528.1818181818181,308.0 550.2,330 528.1818181818181,352.0 506.2,330" fill="#ffd700" stroke="#ffffff20" stroke-width="1.0"></polygon>
<circle cx="528.2" cy="330.0" r="12.1" fill="#153530" stroke-width="0"></circle>
<text x="528.2" y="332.0" fill="#20b2aa" font-size="7" text-anchor="middle" font-family="monospace" font-weight="bold">↑</text>
<text x="528.2" y="300.0" fill="#cccccc" font-size="8" text-anchor="middle" font-family="monospace" font-weight="bold">FF</text>
<text x="528.2" y="364.0" fill="#888" font-size="5.5" text-anchor="middle" font-family="monospace">FFUSE</text>
<circle cx="505.2" cy="323.0" r="2.5" fill="#ffffff60" stroke-width="0"></circle>
<circle cx="505.2" cy="337.0" r="2.5" fill="#ffffff60" stroke-width="0"></circle>
<circle cx="551.2" cy="330.0" r="2.5" fill="#ffffff90" stroke-width="0"></circle>
<polygon points="571.8181818181819,308.0 593.8,330 571.8181818181819,352.0 549.8,330" fill="#ffd700" stroke="#ffffff20" stroke-width="1.0"></polygon>
<circle cx="571.8" cy="330.0" r="12.1" fill="#153530" stroke-width="0"></circle>
<text x="571.8" y="332.0" fill="#20b2aa" font-size="7" text-anchor="middle" font-family="monospace" font-weight="bold">↑</text>
<text x="571.8" y="300.0" fill="#cccccc" font-size="8" text-anchor="middle" font-family="monospace" font-weight="bold">FS</text>
<text x="571.8" y="364.0" fill="#888" font-size="5.5" text-anchor="middle" font-family="monospace">FSPLIT</text>
<circle cx="548.8" cy="330.0" r="2.5" fill="#ffffff60" stroke-width="0"></circle>
<circle cx="594.8" cy="323.0" r="2.5" fill="#ffffff90" stroke-width="0"></circle>
<circle cx="594.8" cy="337.0" r="2.5" fill="#ffffff90" stroke-width="0"></circle>
<polygon points="634.5,146.0 615.5,157.0 596.4,146.0 596.4,124.0 615.5,113.0 634.5,124.0" fill="#e15759" stroke="#ffffff20" stroke-width="1.0"></polygon>
<circle cx="615.5" cy="135.0" r="12.1" fill="#153530" stroke-width="0"></circle>
<text x="615.5" y="137.0" fill="#20b2aa" font-size="7" text-anchor="middle" font-family="monospace" font-weight="bold">↑</text>
<text x="615.5" y="105.0" fill="#cccccc" font-size="8" text-anchor="middle" font-family="monospace" font-weight="bold">ET</text>
<text x="615.5" y="169.0" fill="#888" font-size="5.5" text-anchor="middle" font-family="monospace">EVALT</text>
<circle cx="592.5" cy="135.0" r="3.5" fill="#f28e2b" stroke-width="0.8"></circle>
<circle cx="638.5" cy="135.0" r="3.5" fill="#59a14f" stroke-width="0.9"></circle>
<polygon points="678.1,146.0 659.1,157.0 640.0,146.0 640.0,124.0 659.1,113.0 678.1,124.0" fill="#e15759" stroke="#ffffff20" stroke-width="1.0"></polygon>
<circle cx="659.1" cy="135.0" r="12.1" fill="#153530" stroke-width="0"></circle>
<text x="659.1" y="137.0" fill="#20b2aa" font-size="7" text-anchor="middle" font-family="monospace" font-weight="bold">↑</text>
<text x="659.1" y="105.0" fill="#cccccc" font-size="8" text-anchor="middle" font-family="monospace" font-weight="bold">ET</text>
<text x="659.1" y="169.0" fill="#888" font-size="5.5" text-anchor="middle" font-family="monospace">EVALT</text>
<circle cx="636.1" cy="135.0" r="3.5" fill="#f28e2b" stroke-width="0.8"></circle>
<circle cx="682.1" cy="135.0" r="3.5" fill="#59a14f" stroke-width="0.9"></circle>
<polygon points="721.8,146.0 702.7,157.0 683.7,146.0 683.7,124.0 702.7,113.0 721.8,124.0" fill="#e15759" stroke="#ffffff20" stroke-width="1.0"></polygon>
<circle cx="702.7" cy="135.0" r="12.1" fill="#153530" stroke-width="0"></circle>
<text x="702.7" y="137.0" fill="#20b2aa" font-size="7" text-anchor="middle" font-family="monospace" font-weight="bold">↑</text>
<text x="702.7" y="105.0" fill="#cccccc" font-size="8" text-anchor="middle" font-family="monospace" font-weight="bold">ET</text>
<text x="702.7" y="169.0" fill="#888" font-size="5.5" text-anchor="middle" font-family="monospace">EVALT</text>
<circle cx="679.7" cy="135.0" r="3.5" fill="#f28e2b" stroke-width="0.8"></circle>
<circle cx="725.7" cy="135.0" r="3.5" fill="#59a14f" stroke-width="0.9"></circle>
<polygon points="765.4,146.0 746.4,157.0 727.3,146.0 727.3,124.0 746.4,113.0 765.4,124.0" fill="#e15759" stroke="#ffffff20" stroke-width="1.0"></polygon>
<circle cx="746.4" cy="135.0" r="12.1" fill="#153530" stroke-width="0"></circle>
<text x="746.4" y="137.0" fill="#20b2aa" font-size="7" text-anchor="middle" font-family="monospace" font-weight="bold">↑</text>
<text x="746.4" y="105.0" fill="#cccccc" font-size="8" text-anchor="middle" font-family="monospace" font-weight="bold">ET</text>
<text x="746.4" y="169.0" fill="#888" font-size="5.5" text-anchor="middle" font-family="monospace">EVALT</text>
<circle cx="723.4" cy="135.0" r="3.5" fill="#f28e2b" stroke-width="0.8"></circle>
<circle cx="769.4" cy="135.0" r="3.5" fill="#59a14f" stroke-width="0.9"></circle>
<polygon points="809.1,146.0 790.0,157.0 770.9,146.0 770.9,124.0 790.0,113.0 809.1,124.0" fill="#e15759" stroke="#ffffff20" stroke-width="1.0"></polygon>
<circle cx="790.0" cy="135.0" r="12.1" fill="#153530" stroke-width="0"></circle>
<text x="790.0" y="137.0" fill="#20b2aa" font-size="7" text-anchor="middle" font-family="monospace" font-weight="bold">↑</text>
<text x="790.0" y="105.0" fill="#cccccc" font-size="8" text-anchor="middle" font-family="monospace" font-weight="bold">ET</text>
<text x="790.0" y="169.0" fill="#888" font-size="5.5" text-anchor="middle" font-family="monospace">EVALT</text>
<circle cx="767.0" cy="135.0" r="3.5" fill="#f28e2b" stroke-width="0.8"></circle>
<circle cx="813.0" cy="135.0" r="3.5" fill="#59a14f" stroke-width="0.9"></circle>
<polygon points="833.6363636363636,308.0 855.6,330 833.6363636363636,352.0 811.6,330" fill="#ffd700" stroke="#ffffff20" stroke-width="1.0"></polygon>
<circle cx="833.6" cy="330.0" r="12.1" fill="#153530" stroke-width="0"></circle>
<text x="833.6" y="332.0" fill="#20b2aa" font-size="7" text-anchor="middle" font-family="monospace" font-weight="bold">↑</text>
<text x="833.6" y="300.0" fill="#cccccc" font-size="8" text-anchor="middle" font-family="monospace" font-weight="bold">FF</text>
<text x="833.6" y="364.0" fill="#888" font-size="5.5" text-anchor="middle" font-family="monospace">FFUSE</text>
<circle cx="810.6" cy="323.0" r="2.5" fill="#ffffff60" stroke-width="0"></circle>
<circle cx="810.6" cy="337.0" r="2.5" fill="#ffffff60" stroke-width="0"></circle>
<circle cx="856.6" cy="330.0" r="2.5" fill="#ffffff90" stroke-width="0"></circle>
<circle cx="877.3" cy="330.0" r="22.0" fill="#4e79a7" stroke="#ffffff20" stroke-width="1.0"></circle>
<text x="877.3" y="300.0" fill="#cccccc" font-size="8" text-anchor="middle" font-family="monospace" font-weight="bold">CL</text>
<text x="877.3" y="364.0" fill="#888" font-size="5.5" text-anchor="middle" font-family="monospace">CLINK</text>
<circle cx="854.3" cy="330.0" r="2.5" fill="#ffffff60" stroke-width="0"></circle>
<circle cx="900.3" cy="330.0" r="2.5" fill="#ffffff90" stroke-width="0"></circle>
<polygon points="940.0,341.0 920.9,352.0 901.9,341.0 901.9,319.0 920.9,308.0 940.0,319.0" fill="#e15759" stroke="#ffffff20" stroke-width="1.0"></polygon>
<text x="920.9" y="300.0" fill="#cccccc" font-size="8" text-anchor="middle" font-family="monospace" font-weight="bold">EG</text>
<text x="920.9" y="364.0" fill="#888" font-size="5.5" text-anchor="middle" font-family="monospace">ENGAGR</text>
<circle cx="897.9" cy="330.0" r="2.5" fill="#ffffff60" stroke-width="0"></circle>
<circle cx="943.9" cy="330.0" r="2.5" fill="#ffffff90" stroke-width="0"></circle>
<rect x="942.5" y="308.0" width="44.0" height="44.0" fill="#59a14f" stroke="#ffffff20" stroke-width="1.0"></rect>
<text x="964.5" y="300.0" fill="#cccccc" font-size="8" text-anchor="middle" font-family="monospace" font-weight="bold">IX</text>
<text x="964.5" y="364.0" fill="#888" font-size="5.5" text-anchor="middle" font-family="monospace">IFIX</text>
<circle cx="941.5" cy="330.0" r="2.5" fill="#ffffff60" stroke-width="0"></circle>
<circle cx="987.5" cy="330.0" r="2.5" fill="#ffffff90" stroke-width="0"></circle>
<circle cx="1008.2" cy="330.0" r="22.0" fill="#4e79a7" stroke="#ffffff20" stroke-width="1.0"></circle>
<text x="1008.2" y="300.0" fill="#cccccc" font-size="8" text-anchor="middle" font-family="monospace" font-weight="bold">TA</text>
<text x="1008.2" y="364.0" fill="#888" font-size="5.5" text-anchor="middle" font-family="monospace">TANCH</text>
<circle cx="985.2" cy="330.0" r="2.5" fill="#ffffff60" stroke-width="0"></circle>
<circle cx="1031.2" cy="330.0" r="2.5" fill="#ffffff90" stroke-width="0"></circle>
<path d="M979.2,330.0 Q550.0,275.0 120.8,330.0" fill="none" stroke="#9988cc" stroke-width="1.5" opacity="0.5"></path>
<polygon points="120.8,330.0 112.4,327.0 113.4,335.0" fill="#9988cc" opacity="0.5"></polygon>
<text x="550.0" y="260.0" fill="#9988cc" font-size="8" text-anchor="middle" font-family="serif">O?</text>
<text x="550.0" y="711.0" fill="#9988aa" font-size="7" text-anchor="middle" font-family="serif">Ouroboricity: O?</text>
<text x="70.0" y="52.0" fill="#666" font-size="6" text-anchor="start" font-family="monospace" font-weight="bold">NODES</text>
<circle cx="110.0" cy="59.0" r="4.5" fill="#4e79a7" stroke-width="0"></circle>
<text x="120.0" y="62.0" fill="#4e79a7" font-size="5" text-anchor="start" font-family="monospace">LOGI</text>
<polygon points="158,54.5 162.5,59 158,63.5 153.5,59" fill="#ffd700" stroke="#ffffff20" stroke-width="1.0"></polygon>
<text x="168.0" y="62.0" fill="#ffd700" font-size="5" text-anchor="start" font-family="monospace">FROB</text>
<polygon points="209.9,61.2 206.0,63.5 202.1,61.2 202.1,56.8 206.0,54.5 209.9,56.8" fill="#e15759" stroke="#ffffff20" stroke-width="1.0"></polygon>
<text x="216.0" y="62.0" fill="#e15759" font-size="5" text-anchor="start" font-family="monospace">DIAL</text>
<rect x="249.5" y="54.5" width="9.0" height="9.0" fill="#59a14f" stroke="#ffffff20" stroke-width="1.0"></rect>
<text x="264.0" y="62.0" fill="#59a14f" font-size="5" text-anchor="start" font-family="monospace">LINE</text>
<text x="312.0" y="52.0" fill="#666" font-size="6" text-anchor="start" font-family="monospace" font-weight="bold">EDGES</text>
<line x1="350.0" y1="59.0" x2="364.0" y2="59.0" stroke="#59a14f" stroke-width="1.5" opacity="0.7"></line>
<text x="368.0" y="62.0" fill="#59a14f" font-size="5" text-anchor="start" font-family="monospace">AFWD</text>
<line x1="402.0" y1="59.0" x2="416.0" y2="59.0" stroke="#e15759" stroke-width="1.5" opacity="0.7"></line>
<text x="420.0" y="62.0" fill="#e15759" font-size="5" text-anchor="start" font-family="monospace">AREV</text>
<line x1="454.0" y1="59.0" x2="468.0" y2="59.0" stroke="#f28e2b" stroke-width="1.5" opacity="0.7"></line>
<text x="472.0" y="62.0" fill="#f28e2b" font-size="5" text-anchor="start" font-family="monospace">CLINK</text>
<line x1="506.0" y1="59.0" x2="520.0" y2="59.0" stroke="#b07aa1" stroke-width="1.5" opacity="0.7" stroke-dasharray="4,3"></line>
<text x="524.0" y="62.0" fill="#b07aa1" font-size="5" text-anchor="start" font-family="monospace">TANCH</text>
<line x1="558.0" y1="59.0" x2="572.0" y2="59.0" stroke="#ffd700" stroke-width="1.5" opacity="0.7"></line>
<text x="576.0" y="62.0" fill="#ffd700" font-size="5" text-anchor="start" font-family="monospace">IMSC</text>
<line x1="610.0" y1="59.0" x2="624.0" y2="59.0" stroke="#cc3344" stroke-width="1.5" opacity="0.7"></line>
<text x="628.0" y="62.0" fill="#cc3344" font-size="5" text-anchor="start" font-family="monospace">IFIX</text>
<text x="70.0" y="72.0" fill="#666" font-size="6" text-anchor="start" font-family="monospace" font-weight="bold">GUARD</text>
<circle cx="110.0" cy="79.0" r="3.0" fill="#f28e2b" stroke-width="0.8"></circle>
<text x="117.0" y="82.0" fill="#f28e2b" font-size="5" text-anchor="start" font-family="monospace">approach</text>
<circle cx="162.0" cy="79.0" r="3.0" fill="#59a14f" stroke-width="0.9"></circle>
<text x="169.0" y="82.0" fill="#59a14f" font-size="5" text-anchor="start" font-family="monospace">passed</text>
<text x="214.0" y="72.0" fill="#666" font-size="6" text-anchor="start" font-family="monospace" font-weight="bold">REG Δ</text>
<text x="252.0" y="82.0" fill="#20b888" font-size="5.5" text-anchor="start" font-family="monospace">→↑</text>
<text x="280.0" y="82.0" fill="#ffd700" font-size="5.5" text-anchor="start" font-family="monospace">↓→↑↓</text>
<text x="308.0" y="82.0" fill="#e15759" font-size="5.5" text-anchor="start" font-family="monospace">↑↔↓</text>
<line x1="344.0" y1="79.0" x2="358.0" y2="79.0" stroke="#ffd700" stroke-width="1.5" opacity="0.6" stroke-dasharray="5,3"></line>
<text x="362.0" y="82.0" fill="#ffd700" font-size="5.5" text-anchor="start" font-family="monospace">cross-br.</text>
<line x1="404.0" y1="79.0" x2="418.0" y2="79.0" stroke="#9988cc" stroke-width="1.5" opacity="0.5"></line>
<text x="422.0" y="82.0" fill="#9988cc" font-size="5.5" text-anchor="start" font-family="monospace">loop</text>
<rect x="194.72727272727272" y="302" width="361.4545454545454" height="56" fill="none" stroke="#4e79a7" stroke-width="1.2" opacity="0.2" rx="8" ry="8" stroke-dasharray="4,3"></rect>
<text x="198.7" y="300.0" fill="#4e79a7" font-size="5" text-anchor="start" font-family="monospace">d1</text>
<rect x="543.8181818181819" y="302" width="317.81818181818176" height="56" fill="none" stroke="#70ad47" stroke-width="1.2" opacity="0.2" rx="8" ry="8" stroke-dasharray="4,3"></rect>
<text x="547.8" y="300.0" fill="#70ad47" font-size="5" text-anchor="start" font-family="monospace">d1</text>
<rect x="940" y="48" width="145" height="22" fill="#4e79a7" opacity="0.15" rx="4"></rect>
<rect x="940" y="48" width="145" height="22" fill="none" stroke="#4e79a7" stroke-width="1" rx="4"></rect>
<text x="1012.0" y="63.0" fill="#4e79a7" font-size="8" text-anchor="middle" font-family="monospace" font-weight="bold">FLAT_CHAIN</text>
<text x="940.0" y="78.0" fill="#888" font-size="6" text-anchor="start" font-family="monospace">depth:0  open-forks:0  cross:0  empty:0</text>
<text x="940.0" y="86.0" fill="#777" font-size="5.5" text-anchor="start" font-family="monospace">T:11 / F:0</text>
<rect x="940" y="88" width="145.0" height="6" fill="#20d0b8" opacity="0.6" rx="2"></rect>
<rect x="1085.0" y="88" width="0.0" height="6" fill="#ff6688" opacity="0.6" rx="2"></rect>
</svg>
</svg>