<svg xmlns="http://www.w3.org/2000/svg" viewBox="0 0 1100 630">
<rect width="1100" height="630" fill="#0a0a15"/>
<line x1="0.0" y1="0.0" x2="0.0" y2="630.0" stroke="#151525" stroke-width="0.4" opacity="0.25"></line>
<line x1="40.0" y1="0.0" x2="40.0" y2="630.0" stroke="#151525" stroke-width="0.4" opacity="0.25"></line>
<line x1="80.0" y1="0.0" x2="80.0" y2="630.0" stroke="#151525" stroke-width="0.4" opacity="0.25"></line>
<line x1="120.0" y1="0.0" x2="120.0" y2="630.0" stroke="#151525" stroke-width="0.4" opacity="0.25"></line>
<line x1="160.0" y1="0.0" x2="160.0" y2="630.0" stroke="#151525" stroke-width="0.4" opacity="0.25"></line>
<line x1="200.0" y1="0.0" x2="200.0" y2="630.0" stroke="#151525" stroke-width="0.4" opacity="0.25"></line>
<line x1="240.0" y1="0.0" x2="240.0" y2="630.0" stroke="#151525" stroke-width="0.4" opacity="0.25"></line>
<line x1="280.0" y1="0.0" x2="280.0" y2="630.0" stroke="#151525" stroke-width="0.4" opacity="0.25"></line>
<line x1="320.0" y1="0.0" x2="320.0" y2="630.0" stroke="#151525" stroke-width="0.4" opacity="0.25"></line>
<line x1="360.0" y1="0.0" x2="360.0" y2="630.0" stroke="#151525" stroke-width="0.4" opacity="0.25"></line>
<line x1="400.0" y1="0.0" x2="400.0" y2="630.0" stroke="#151525" stroke-width="0.4" opacity="0.25"></line>
<line x1="440.0" y1="0.0" x2="440.0" y2="630.0" stroke="#151525" stroke-width="0.4" opacity="0.25"></line>
<line x1="480.0" y1="0.0" x2="480.0" y2="630.0" stroke="#151525" stroke-width="0.4" opacity="0.25"></line>
<line x1="520.0" y1="0.0" x2="520.0" y2="630.0" stroke="#151525" stroke-width="0.4" opacity="0.25"></line>
<line x1="560.0" y1="0.0" x2="560.0" y2="630.0" stroke="#151525" stroke-width="0.4" opacity="0.25"></line>
<line x1="600.0" y1="0.0" x2="600.0" y2="630.0" stroke="#151525" stroke-width="0.4" opacity="0.25"></line>
<line x1="640.0" y1="0.0" x2="640.0" y2="630.0" stroke="#151525" stroke-width="0.4" opacity="0.25"></line>
<line x1="680.0" y1="0.0" x2="680.0" y2="630.0" stroke="#151525" stroke-width="0.4" opacity="0.25"></line>
<line x1="720.0" y1="0.0" x2="720.0" y2="630.0" stroke="#151525" stroke-width="0.4" opacity="0.25"></line>
<line x1="760.0" y1="0.0" x2="760.0" y2="630.0" stroke="#151525" stroke-width="0.4" opacity="0.25"></line>
<line x1="800.0" y1="0.0" x2="800.0" y2="630.0" stroke="#151525" stroke-width="0.4" opacity="0.25"></line>
<line x1="840.0" y1="0.0" x2="840.0" y2="630.0" stroke="#151525" stroke-width="0.4" opacity="0.25"></line>
<line x1="880.0" y1="0.0" x2="880.0" y2="630.0" stroke="#151525" stroke-width="0.4" opacity="0.25"></line>
<line x1="920.0" y1="0.0" x2="920.0" y2="630.0" stroke="#151525" stroke-width="0.4" opacity="0.25"></line>
<line x1="960.0" y1="0.0" x2="960.0" y2="630.0" stroke="#151525" stroke-width="0.4" opacity="0.25"></line>
<line x1="1000.0" y1="0.0" x2="1000.0" y2="630.0" stroke="#151525" stroke-width="0.4" opacity="0.25"></line>
<line x1="1040.0" y1="0.0" x2="1040.0" y2="630.0" stroke="#151525" stroke-width="0.4" opacity="0.25"></line>
<line x1="1080.0" y1="0.0" x2="1080.0" y2="630.0" stroke="#151525" stroke-width="0.4" opacity="0.25"></line>
<line x1="0.0" y1="0.0" x2="1100.0" y2="0.0" stroke="#151525" stroke-width="0.4" opacity="0.25"></line>
<line x1="0.0" y1="40.0" x2="1100.0" y2="40.0" stroke="#151525" stroke-width="0.4" opacity="0.25"></line>
<line x1="0.0" y1="80.0" x2="1100.0" y2="80.0" stroke="#151525" stroke-width="0.4" opacity="0.25"></line>
<line x1="0.0" y1="120.0" x2="1100.0" y2="120.0" stroke="#151525" stroke-width="0.4" opacity="0.25"></line>
<line x1="0.0" y1="160.0" x2="1100.0" y2="160.0" stroke="#151525" stroke-width="0.4" opacity="0.25"></line>
<line x1="0.0" y1="200.0" x2="1100.0" y2="200.0" stroke="#151525" stroke-width="0.4" opacity="0.25"></line>
<line x1="0.0" y1="240.0" x2="1100.0" y2="240.0" stroke="#151525" stroke-width="0.4" opacity="0.25"></line>
<line x1="0.0" y1="280.0" x2="1100.0" y2="280.0" stroke="#151525" stroke-width="0.4" opacity="0.25"></line>
<line x1="0.0" y1="320.0" x2="1100.0" y2="320.0" stroke="#151525" stroke-width="0.4" opacity="0.25"></line>
<line x1="0.0" y1="360.0" x2="1100.0" y2="360.0" stroke="#151525" stroke-width="0.4" opacity="0.25"></line>
<line x1="0.0" y1="400.0" x2="1100.0" y2="400.0" stroke="#151525" stroke-width="0.4" opacity="0.25"></line>
<line x1="0.0" y1="440.0" x2="1100.0" y2="440.0" stroke="#151525" stroke-width="0.4" opacity="0.25"></line>
<line x1="0.0" y1="480.0" x2="1100.0" y2="480.0" stroke="#151525" stroke-width="0.4" opacity="0.25"></line>
<line x1="0.0" y1="520.0" x2="1100.0" y2="520.0" stroke="#151525" stroke-width="0.4" opacity="0.25"></line>
<line x1="0.0" y1="560.0" x2="1100.0" y2="560.0" stroke="#151525" stroke-width="0.4" opacity="0.25"></line>
<line x1="0.0" y1="600.0" x2="1100.0" y2="600.0" stroke="#151525" stroke-width="0.4" opacity="0.25"></line>
<text x="550.0" y="26.0" fill="#cccccc" font-size="13" text-anchor="middle" font-family="monospace" font-weight="bold">enumerate 17 280 000 crystal eigenstates as clas</text>
<text x="22.0" y="190.0" fill="#20c0b0" font-size="7" text-anchor="middle" font-family="monospace">T-lane</text>
<text x="22.0" y="470.0" fill="#e04060" font-size="7" text-anchor="middle" font-family="monospace">F-lane</text>
<text x="22.0" y="330.0" fill="#555" font-size="7" text-anchor="middle" font-family="monospace">main</text>
<line x1="814.0" y1="145.0" x2="814.0" y2="515.0" stroke="#cc3344" stroke-width="1.8" opacity="0.4" stroke-dasharray="6,4"></line>
<text x="814.0" y="135.0" fill="#cc3344" font-size="7" text-anchor="middle" font-family="monospace" font-weight="bold">IFIX</text>
<polygon points="814.0,141.0 818.0,145 814.0,149.0 810.0,145" fill="#cc3344" opacity="0.6"></polygon>
<polygon points="814.0,511.0 818.0,515 814.0,519.0 810.0,515" fill="#cc3344" opacity="0.6"></polygon>
<line x1="142.0" y1="330.0" x2="160.0" y2="330.0" stroke="#5b9bd5" stroke-width="1.4" opacity="0.55"></line>
<line x1="160.0" y1="330.0" x2="160.0" y2="190.0" stroke="#5b9bd5" stroke-width="1.4" opacity="0.55"></line>
<line x1="160.0" y1="190.0" x2="174.0" y2="190.0" stroke="#5b9bd5" stroke-width="1.4" opacity="0.55"></line>
<polygon points="182.0,190.0 174.0,193.2 174.0,186.8" fill="#5b9bd5" opacity="0.55"></polygon>
<rect x="160.0" y="248.0" width="4.0" height="10" fill="#0a0a15" opacity="0.7" rx="3"></rect>
<text x="162.0" y="256.0" fill="#20b888" font-size="6" text-anchor="middle" font-family="monospace">↑</text>
<line x1="182.0" y1="190.0" x2="222.0" y2="190.0" stroke="#59a14f" stroke-width="1.3" opacity="0.55"></line>
<polygon points="230.0,190.0 222.0,193.2 222.0,186.8" fill="#59a14f" opacity="0.55"></polygon>
<line x1="230.0" y1="190.0" x2="270.0" y2="190.0" stroke="#59a14f" stroke-width="1.3" opacity="0.55"></line>
<polygon points="278.0,190.0 270.0,193.2 270.0,186.8" fill="#59a14f" opacity="0.55"></polygon>
<line x1="278.0" y1="190.0" x2="326.0" y2="190.0" stroke="#59a14f" stroke-width="1.3" opacity="0.55"></line>
<polygon points="334.0,190.0 326.0,193.2 326.0,186.8" fill="#59a14f" opacity="0.55"></polygon>
<line x1="334.0" y1="190.0" x2="374.0" y2="190.0" stroke="#59a14f" stroke-width="1.3" opacity="0.55"></line>
<polygon points="382.0,190.0 374.0,193.2 374.0,186.8" fill="#59a14f" opacity="0.55"></polygon>
<line x1="382.0" y1="190.0" x2="422.0" y2="190.0" stroke="#59a14f" stroke-width="1.3" opacity="0.55"></line>
<polygon points="430.0,190.0 422.0,193.2 422.0,186.8" fill="#59a14f" opacity="0.55"></polygon>
<line x1="430.0" y1="190.0" x2="470.0" y2="190.0" stroke="#59a14f" stroke-width="1.3" opacity="0.55"></line>
<polygon points="478.0,190.0 470.0,193.2 470.0,186.8" fill="#59a14f" opacity="0.55"></polygon>
<line x1="478.0" y1="190.0" x2="518.0" y2="190.0" stroke="#59a14f" stroke-width="1.3" opacity="0.55"></line>
<polygon points="526.0,190.0 518.0,193.2 518.0,186.8" fill="#59a14f" opacity="0.55"></polygon>
<line x1="526.0" y1="190.0" x2="566.0" y2="190.0" stroke="#59a14f" stroke-width="1.3" opacity="0.55"></line>
<polygon points="574.0,190.0 566.0,193.2 566.0,186.8" fill="#59a14f" opacity="0.55"></polygon>
<line x1="574.0" y1="190.0" x2="614.0" y2="190.0" stroke="#59a14f" stroke-width="1.3" opacity="0.55"></line>
<polygon points="622.0,190.0 614.0,193.2 614.0,186.8" fill="#59a14f" opacity="0.55"></polygon>
<line x1="622.0" y1="190.0" x2="662.0" y2="190.0" stroke="#59a14f" stroke-width="1.3" opacity="0.55"></line>
<polygon points="670.0,190.0 662.0,193.2 662.0,186.8" fill="#59a14f" opacity="0.55"></polygon>
<line x1="670.0" y1="190.0" x2="710.0" y2="190.0" stroke="#59a14f" stroke-width="1.3" opacity="0.55"></line>
<polygon points="718.0,190.0 710.0,193.2 710.0,186.8" fill="#59a14f" opacity="0.55"></polygon>
<rect x="690.0" y="178.0" width="8.0" height="10" fill="#0a0a15" opacity="0.7" rx="3"></rect>
<text x="694.0" y="186.0" fill="#20b888" font-size="6" text-anchor="middle" font-family="monospace">↑→</text>
<line x1="718.0" y1="186.5" x2="757.0" y2="186.5" stroke="#f28e2b" stroke-width="1.0" opacity="0.55"></line>
<line x1="718.0" y1="193.5" x2="757.0" y2="193.5" stroke="#f28e2b" stroke-width="1.0" opacity="0.55"></line>
<polygon points="766.0,190.0 756.0,194.0 756.0,186.0" fill="#f28e2b" opacity="0.55"></polygon>
<rect x="740.0" y="178.0" width="4.0" height="10" fill="#0a0a15" opacity="0.7" rx="3"></rect>
<text x="742.0" y="186.0" fill="#20b888" font-size="6" text-anchor="middle" font-family="monospace">↑</text>
<line x1="766.0" y1="190.0" x2="806.0" y2="190.0" stroke="#ffd700" stroke-width="1.3" opacity="0.55"></line>
<polygon points="814.0,190.0 806.0,193.2 806.0,186.8" fill="#ffd700" opacity="0.55"></polygon>
<line x1="814.0" y1="190.0" x2="854.0" y2="190.0" stroke="#cc3344" stroke-width="1.3" opacity="0.55"></line>
<polygon points="862.0,190.0 854.0,193.2 854.0,186.8" fill="#cc3344" opacity="0.55"></polygon>
<line x1="862.0" y1="190.0" x2="902.0" y2="190.0" stroke="#e15759" stroke-width="1.3" opacity="0.55"></line>
<polygon points="910.0,190.0 902.0,193.2 902.0,186.8" fill="#e15759" opacity="0.55"></polygon>
<line x1="910.0" y1="190.0" x2="928.0" y2="190.0" stroke="#20d0b8" stroke-width="1.3" opacity="0.55"></line>
<line x1="928.0" y1="190.0" x2="928.0" y2="330.0" stroke="#20d0b8" stroke-width="1.3" opacity="0.55"></line>
<line x1="928.0" y1="330.0" x2="950.0" y2="330.0" stroke="#20d0b8" stroke-width="1.3" opacity="0.55"></line>
<polygon points="958.0,330.0 950.0,333.2 950.0,326.8" fill="#20d0b8" opacity="0.55"></polygon>
<line x1="142.0" y1="330.0" x2="169.6" y2="330.0" stroke="#2b6b9f" stroke-width="1.4" opacity="0.55"></line>
<line x1="169.6" y1="330.0" x2="169.6" y2="470.0" stroke="#2b6b9f" stroke-width="1.4" opacity="0.55"></line>
<line x1="169.6" y1="470.0" x2="190.0" y2="470.0" stroke="#2b6b9f" stroke-width="1.4" opacity="0.55"></line>
<polygon points="198.0,470.0 190.0,473.2 190.0,466.8" fill="#2b6b9f" opacity="0.55"></polygon>
<rect x="168.0" y="388.0" width="4.0" height="10" fill="#0a0a15" opacity="0.7" rx="3"></rect>
<text x="170.0" y="396.0" fill="#20b888" font-size="6" text-anchor="middle" font-family="monospace">↑</text>
<line x1="198.0" y1="470.0" x2="238.0" y2="470.0" stroke="#ff6688" stroke-width="1.3" opacity="0.55"></line>
<polygon points="246.0,470.0 238.0,473.2 238.0,466.8" fill="#ff6688" opacity="0.55"></polygon>
<line x1="246.0" y1="470.0" x2="286.0" y2="470.0" stroke="#59a14f" stroke-width="1.3" opacity="0.55"></line>
<polygon points="294.0,470.0 286.0,473.2 286.0,466.8" fill="#59a14f" opacity="0.55"></polygon>
<circle cx="814.0" cy="400.0" r="3.0" fill="#cc3344" stroke-width="0.4"></circle>
<line x1="294.0" y1="470.0" x2="337.0" y2="470.0" stroke="#e15759" stroke-width="1.3" opacity="0.33"></line>
<line x1="337.0" y1="470.0" x2="337.0" y2="330.0" stroke="#e15759" stroke-width="1.3" opacity="0.33"></line>
<line x1="337.0" y1="330.0" x2="950.0" y2="330.0" stroke="#e15759" stroke-width="1.3" opacity="0.33"></line>
<polygon points="958.0,330.0 950.0,333.2 950.0,326.8" fill="#e15759" opacity="0.33"></polygon>
<line x1="94.0" y1="330.0" x2="134.0" y2="330.0" stroke="#6baed6" stroke-width="1.3" opacity="0.75"></line>
<polygon points="142.0,330.0 134.0,333.2 134.0,326.8" fill="#6baed6" opacity="0.75"></polygon>
<line x1="958.0" y1="330.0" x2="998.0" y2="330.0" stroke="#ffd700" stroke-width="1.3" opacity="0.55"></line>
<polygon points="1006.0,330.0 998.0,333.2 998.0,326.8" fill="#ffd700" opacity="0.55"></polygon>
<circle cx="94.0" cy="330.0" r="22.0" fill="#4e79a7" stroke="#ffffff20" stroke-width="1.0"></circle>
<text x="94.0" y="300.0" fill="#cccccc" font-size="8" text-anchor="middle" font-family="monospace" font-weight="bold">VI</text>
<text x="94.0" y="364.0" fill="#888" font-size="5.5" text-anchor="middle" font-family="monospace">VINIT</text>
<circle cx="117.0" cy="330.0" r="2.5" fill="#ffffff90" stroke-width="0"></circle>
<polygon points="142.0,308.0 164.0,330 142.0,352.0 120.0,330" fill="#ffd700" stroke="#ffffff20" stroke-width="1.0"></polygon>
<text x="142.0" y="300.0" fill="#cccccc" font-size="8" text-anchor="middle" font-family="monospace" font-weight="bold">FS</text>
<text x="142.0" y="364.0" fill="#888" font-size="5.5" text-anchor="middle" font-family="monospace">FSPLIT</text>
<circle cx="119.0" cy="330.0" r="2.5" fill="#ffffff60" stroke-width="0"></circle>
<circle cx="165.0" cy="323.0" r="2.5" fill="#ffffff90" stroke-width="0"></circle>
<circle cx="165.0" cy="337.0" r="2.5" fill="#ffffff90" stroke-width="0"></circle>
<circle cx="182.0" cy="190.0" r="22.0" fill="#4e79a7" stroke="#ffffff20" stroke-width="1.0"></circle>
<circle cx="182.0" cy="190.0" r="12.1" fill="#153530" stroke-width="0"></circle>
<text x="182.0" y="192.0" fill="#20b2aa" font-size="7" text-anchor="middle" font-family="monospace" font-weight="bold">↑</text>
<text x="182.0" y="160.0" fill="#cccccc" font-size="8" text-anchor="middle" font-family="monospace" font-weight="bold">AF</text>
<text x="182.0" y="224.0" fill="#888" font-size="5.5" text-anchor="middle" font-family="monospace">AFWD</text>
<circle cx="159.0" cy="190.0" r="2.5" fill="#ffffff60" stroke-width="0"></circle>
<circle cx="205.0" cy="190.0" r="2.5" fill="#ffffff90" stroke-width="0"></circle>
<circle cx="230.0" cy="190.0" r="22.0" fill="#4e79a7" stroke="#ffffff20" stroke-width="1.0"></circle>
<circle cx="230.0" cy="190.0" r="12.1" fill="#153530" stroke-width="0"></circle>
<text x="230.0" y="192.0" fill="#20b2aa" font-size="7" text-anchor="middle" font-family="monospace" font-weight="bold">↑</text>
<text x="230.0" y="160.0" fill="#cccccc" font-size="8" text-anchor="middle" font-family="monospace" font-weight="bold">AF</text>
<text x="230.0" y="224.0" fill="#888" font-size="5.5" text-anchor="middle" font-family="monospace">AFWD</text>
<circle cx="207.0" cy="190.0" r="2.5" fill="#ffffff60" stroke-width="0"></circle>
<circle cx="253.0" cy="190.0" r="2.5" fill="#ffffff90" stroke-width="0"></circle>
<circle cx="278.0" cy="190.0" r="22.0" fill="#4e79a7" stroke="#ffffff20" stroke-width="1.0"></circle>
<circle cx="278.0" cy="190.0" r="12.1" fill="#153530" stroke-width="0"></circle>
<text x="278.0" y="192.0" fill="#20b2aa" font-size="7" text-anchor="middle" font-family="monospace" font-weight="bold">↑</text>
<text x="278.0" y="160.0" fill="#cccccc" font-size="8" text-anchor="middle" font-family="monospace" font-weight="bold">AF</text>
<text x="278.0" y="224.0" fill="#888" font-size="5.5" text-anchor="middle" font-family="monospace">AFWD</text>
<circle cx="255.0" cy="190.0" r="2.5" fill="#ffffff60" stroke-width="0"></circle>
<circle cx="301.0" cy="190.0" r="2.5" fill="#ffffff90" stroke-width="0"></circle>
<circle cx="334.0" cy="190.0" r="22.0" fill="#4e79a7" stroke="#ffffff20" stroke-width="1.0"></circle>
<circle cx="334.0" cy="190.0" r="12.1" fill="#153530" stroke-width="0"></circle>
<text x="334.0" y="192.0" fill="#20b2aa" font-size="7" text-anchor="middle" font-family="monospace" font-weight="bold">↑</text>
<text x="334.0" y="160.0" fill="#cccccc" font-size="8" text-anchor="middle" font-family="monospace" font-weight="bold">AF</text>
<text x="334.0" y="224.0" fill="#888" font-size="5.5" text-anchor="middle" font-family="monospace">AFWD</text>
<circle cx="311.0" cy="190.0" r="2.5" fill="#ffffff60" stroke-width="0"></circle>
<circle cx="357.0" cy="190.0" r="2.5" fill="#ffffff90" stroke-width="0"></circle>
<circle cx="382.0" cy="190.0" r="22.0" fill="#4e79a7" stroke="#ffffff20" stroke-width="1.0"></circle>
<circle cx="382.0" cy="190.0" r="12.1" fill="#153530" stroke-width="0"></circle>
<text x="382.0" y="192.0" fill="#20b2aa" font-size="7" text-anchor="middle" font-family="monospace" font-weight="bold">↑</text>
<text x="382.0" y="160.0" fill="#cccccc" font-size="8" text-anchor="middle" font-family="monospace" font-weight="bold">AF</text>
<text x="382.0" y="224.0" fill="#888" font-size="5.5" text-anchor="middle" font-family="monospace">AFWD</text>
<circle cx="359.0" cy="190.0" r="2.5" fill="#ffffff60" stroke-width="0"></circle>
<circle cx="405.0" cy="190.0" r="2.5" fill="#ffffff90" stroke-width="0"></circle>
<circle cx="430.0" cy="190.0" r="22.0" fill="#4e79a7" stroke="#ffffff20" stroke-width="1.0"></circle>
<circle cx="430.0" cy="190.0" r="12.1" fill="#153530" stroke-width="0"></circle>
<text x="430.0" y="192.0" fill="#20b2aa" font-size="7" text-anchor="middle" font-family="monospace" font-weight="bold">↑</text>
<text x="430.0" y="160.0" fill="#cccccc" font-size="8" text-anchor="middle" font-family="monospace" font-weight="bold">AF</text>
<text x="430.0" y="224.0" fill="#888" font-size="5.5" text-anchor="middle" font-family="monospace">AFWD</text>
<circle cx="407.0" cy="190.0" r="2.5" fill="#ffffff60" stroke-width="0"></circle>
<circle cx="453.0" cy="190.0" r="2.5" fill="#ffffff90" stroke-width="0"></circle>
<circle cx="478.0" cy="190.0" r="22.0" fill="#4e79a7" stroke="#ffffff20" stroke-width="1.0"></circle>
<circle cx="478.0" cy="190.0" r="12.1" fill="#153530" stroke-width="0"></circle>
<text x="478.0" y="192.0" fill="#20b2aa" font-size="7" text-anchor="middle" font-family="monospace" font-weight="bold">↑</text>
<text x="478.0" y="160.0" fill="#cccccc" font-size="8" text-anchor="middle" font-family="monospace" font-weight="bold">AF</text>
<text x="478.0" y="224.0" fill="#888" font-size="5.5" text-anchor="middle" font-family="monospace">AFWD</text>
<circle cx="455.0" cy="190.0" r="2.5" fill="#ffffff60" stroke-width="0"></circle>
<circle cx="501.0" cy="190.0" r="2.5" fill="#ffffff90" stroke-width="0"></circle>
<circle cx="526.0" cy="190.0" r="22.0" fill="#4e79a7" stroke="#ffffff20" stroke-width="1.0"></circle>
<circle cx="526.0" cy="190.0" r="12.1" fill="#153530" stroke-width="0"></circle>
<text x="526.0" y="192.0" fill="#20b2aa" font-size="7" text-anchor="middle" font-family="monospace" font-weight="bold">↑</text>
<text x="526.0" y="160.0" fill="#cccccc" font-size="8" text-anchor="middle" font-family="monospace" font-weight="bold">AF</text>
<text x="526.0" y="224.0" fill="#888" font-size="5.5" text-anchor="middle" font-family="monospace">AFWD</text>
<circle cx="503.0" cy="190.0" r="2.5" fill="#ffffff60" stroke-width="0"></circle>
<circle cx="549.0" cy="190.0" r="2.5" fill="#ffffff90" stroke-width="0"></circle>
<circle cx="574.0" cy="190.0" r="22.0" fill="#4e79a7" stroke="#ffffff20" stroke-width="1.0"></circle>
<circle cx="574.0" cy="190.0" r="12.1" fill="#153530" stroke-width="0"></circle>
<text x="574.0" y="192.0" fill="#20b2aa" font-size="7" text-anchor="middle" font-family="monospace" font-weight="bold">↑</text>
<text x="574.0" y="160.0" fill="#cccccc" font-size="8" text-anchor="middle" font-family="monospace" font-weight="bold">AF</text>
<text x="574.0" y="224.0" fill="#888" font-size="5.5" text-anchor="middle" font-family="monospace">AFWD</text>
<circle cx="551.0" cy="190.0" r="2.5" fill="#ffffff60" stroke-width="0"></circle>
<circle cx="597.0" cy="190.0" r="2.5" fill="#ffffff90" stroke-width="0"></circle>
<circle cx="622.0" cy="190.0" r="22.0" fill="#4e79a7" stroke="#ffffff20" stroke-width="1.0"></circle>
<circle cx="622.0" cy="190.0" r="12.1" fill="#153530" stroke-width="0"></circle>
<text x="622.0" y="192.0" fill="#20b2aa" font-size="7" text-anchor="middle" font-family="monospace" font-weight="bold">↑</text>
<text x="622.0" y="160.0" fill="#cccccc" font-size="8" text-anchor="middle" font-family="monospace" font-weight="bold">AF</text>
<text x="622.0" y="224.0" fill="#888" font-size="5.5" text-anchor="middle" font-family="monospace">AFWD</text>
<circle cx="599.0" cy="190.0" r="2.5" fill="#ffffff60" stroke-width="0"></circle>
<circle cx="645.0" cy="190.0" r="2.5" fill="#ffffff90" stroke-width="0"></circle>
<circle cx="670.0" cy="190.0" r="22.0" fill="#4e79a7" stroke="#ffffff20" stroke-width="1.0"></circle>
<circle cx="670.0" cy="190.0" r="12.1" fill="#153530" stroke-width="0"></circle>
<text x="670.0" y="192.0" fill="#20b2aa" font-size="7" text-anchor="middle" font-family="monospace" font-weight="bold">↑</text>
<text x="670.0" y="160.0" fill="#cccccc" font-size="8" text-anchor="middle" font-family="monospace" font-weight="bold">AF</text>
<text x="670.0" y="224.0" fill="#888" font-size="5.5" text-anchor="middle" font-family="monospace">AFWD</text>
<circle cx="647.0" cy="190.0" r="2.5" fill="#ffffff60" stroke-width="0"></circle>
<circle cx="693.0" cy="190.0" r="2.5" fill="#ffffff90" stroke-width="0"></circle>
<circle cx="718.0" cy="190.0" r="22.0" fill="#4e79a7" stroke="#ffffff20" stroke-width="1.0"></circle>
<text x="718.0" y="160.0" fill="#cccccc" font-size="8" text-anchor="middle" font-family="monospace" font-weight="bold">CL</text>
<text x="718.0" y="224.0" fill="#888" font-size="5.5" text-anchor="middle" font-family="monospace">CLINK</text>
<circle cx="695.0" cy="190.0" r="2.5" fill="#ffffff60" stroke-width="0"></circle>
<circle cx="741.0" cy="190.0" r="2.5" fill="#ffffff90" stroke-width="0"></circle>
<circle cx="766.0" cy="190.0" r="22.0" fill="#4e79a7" stroke="#ffffff20" stroke-width="1.0"></circle>
<circle cx="766.0" cy="190.0" r="12.1" fill="#153530" stroke-width="0"></circle>
<text x="766.0" y="192.0" fill="#20b2aa" font-size="7" text-anchor="middle" font-family="monospace" font-weight="bold">↑</text>
<text x="766.0" y="160.0" fill="#cccccc" font-size="8" text-anchor="middle" font-family="monospace" font-weight="bold">IM</text>
<text x="766.0" y="224.0" fill="#888" font-size="5.5" text-anchor="middle" font-family="monospace">IMSCRIB</text>
<circle cx="743.0" cy="190.0" r="2.5" fill="#ffffff60" stroke-width="0"></circle>
<circle cx="789.0" cy="190.0" r="2.5" fill="#ffffff90" stroke-width="0"></circle>
<rect x="792.0" y="168.0" width="44.0" height="44.0" fill="#59a14f" stroke="#ffffff20" stroke-width="1.0"></rect>
<circle cx="814.0" cy="190.0" r="12.1" fill="#153530" stroke-width="0"></circle>
<text x="814.0" y="192.0" fill="#20b2aa" font-size="7" text-anchor="middle" font-family="monospace" font-weight="bold">↑</text>
<text x="814.0" y="160.0" fill="#cccccc" font-size="8" text-anchor="middle" font-family="monospace" font-weight="bold">IX</text>
<text x="814.0" y="224.0" fill="#888" font-size="5.5" text-anchor="middle" font-family="monospace">IFIX</text>
<circle cx="791.0" cy="190.0" r="2.5" fill="#ffffff60" stroke-width="0"></circle>
<circle cx="837.0" cy="190.0" r="2.5" fill="#ffffff90" stroke-width="0"></circle>
<polygon points="881.1,201.0 862.0,212.0 842.9,201.0 842.9,179.0 862.0,168.0 881.1,179.0" fill="#e15759" stroke="#ffffff20" stroke-width="1.0"></polygon>
<circle cx="862.0" cy="190.0" r="12.1" fill="#153530" stroke-width="0"></circle>
<text x="862.0" y="192.0" fill="#20b2aa" font-size="7" text-anchor="middle" font-family="monospace" font-weight="bold">↑</text>
<text x="862.0" y="160.0" fill="#cccccc" font-size="8" text-anchor="middle" font-family="monospace" font-weight="bold">EG</text>
<text x="862.0" y="224.0" fill="#888" font-size="5.5" text-anchor="middle" font-family="monospace">ENGAGR</text>
<circle cx="839.0" cy="190.0" r="2.5" fill="#ffffff60" stroke-width="0"></circle>
<circle cx="885.0" cy="190.0" r="2.5" fill="#ffffff90" stroke-width="0"></circle>
<polygon points="929.1,201.0 910.0,212.0 890.9,201.0 890.9,179.0 910.0,168.0 929.1,179.0" fill="#e15759" stroke="#ffffff20" stroke-width="1.0"></polygon>
<circle cx="910.0" cy="190.0" r="12.1" fill="#153530" stroke-width="0"></circle>
<text x="910.0" y="192.0" fill="#20b2aa" font-size="7" text-anchor="middle" font-family="monospace" font-weight="bold">↑</text>
<text x="910.0" y="160.0" fill="#cccccc" font-size="8" text-anchor="middle" font-family="monospace" font-weight="bold">ET</text>
<text x="910.0" y="224.0" fill="#888" font-size="5.5" text-anchor="middle" font-family="monospace">EVALT</text>
<circle cx="887.0" cy="190.0" r="3.5" fill="#f28e2b" stroke-width="0.8"></circle>
<circle cx="933.0" cy="190.0" r="3.5" fill="#59a14f" stroke-width="0.9"></circle>
<polygon points="217.1,481.0 198.0,492.0 178.9,481.0 178.9,459.0 198.0,448.0 217.1,459.0" fill="#e15759" stroke="#ffffff20" stroke-width="1.0"></polygon>
<circle cx="198.0" cy="470.0" r="12.1" fill="#153530" stroke-width="0"></circle>
<text x="198.0" y="472.0" fill="#20b2aa" font-size="7" text-anchor="middle" font-family="monospace" font-weight="bold">↑</text>
<text x="198.0" y="440.0" fill="#cccccc" font-size="8" text-anchor="middle" font-family="monospace" font-weight="bold">EF</text>
<text x="198.0" y="504.0" fill="#888" font-size="5.5" text-anchor="middle" font-family="monospace">EVALF</text>
<circle cx="175.0" cy="470.0" r="3.5" fill="#f28e2b" stroke-width="0.8"></circle>
<circle cx="221.0" cy="470.0" r="3.5" fill="#59a14f" stroke-width="0.9"></circle>
<circle cx="246.0" cy="470.0" r="22.0" fill="#4e79a7" stroke="#ffffff20" stroke-width="1.0"></circle>
<circle cx="246.0" cy="470.0" r="12.1" fill="#153530" stroke-width="0"></circle>
<text x="246.0" y="472.0" fill="#20b2aa" font-size="7" text-anchor="middle" font-family="monospace" font-weight="bold">↑</text>
<text x="246.0" y="440.0" fill="#cccccc" font-size="8" text-anchor="middle" font-family="monospace" font-weight="bold">AF</text>
<text x="246.0" y="504.0" fill="#888" font-size="5.5" text-anchor="middle" font-family="monospace">AFWD</text>
<circle cx="223.0" cy="470.0" r="2.5" fill="#ffffff60" stroke-width="0"></circle>
<circle cx="269.0" cy="470.0" r="2.5" fill="#ffffff90" stroke-width="0"></circle>
<circle cx="294.0" cy="470.0" r="22.0" fill="#4e79a7" stroke="#ffffff20" stroke-width="1.0"></circle>
<circle cx="294.0" cy="470.0" r="12.1" fill="#153530" stroke-width="0"></circle>
<text x="294.0" y="472.0" fill="#20b2aa" font-size="7" text-anchor="middle" font-family="monospace" font-weight="bold">↑</text>
<text x="294.0" y="440.0" fill="#cccccc" font-size="8" text-anchor="middle" font-family="monospace" font-weight="bold">AR</text>
<text x="294.0" y="504.0" fill="#888" font-size="5.5" text-anchor="middle" font-family="monospace">AREV</text>
<circle cx="271.0" cy="470.0" r="2.5" fill="#ffffff60" stroke-width="0"></circle>
<circle cx="317.0" cy="470.0" r="2.5" fill="#ffffff90" stroke-width="0"></circle>
<polygon points="958.0,308.0 980.0,330 958.0,352.0 936.0,330" fill="#ffd700" stroke="#ffffff20" stroke-width="1.0"></polygon>
<circle cx="958.0" cy="330.0" r="12.1" fill="#153530" stroke-width="0"></circle>
<text x="958.0" y="332.0" fill="#20b2aa" font-size="7" text-anchor="middle" font-family="monospace" font-weight="bold">↑</text>
<text x="958.0" y="300.0" fill="#cccccc" font-size="8" text-anchor="middle" font-family="monospace" font-weight="bold">FF</text>
<text x="958.0" y="364.0" fill="#888" font-size="5.5" text-anchor="middle" font-family="monospace">FFUSE</text>
<circle cx="935.0" cy="323.0" r="2.5" fill="#ffffff60" stroke-width="0"></circle>
<circle cx="935.0" cy="337.0" r="2.5" fill="#ffffff60" stroke-width="0"></circle>
<circle cx="981.0" cy="330.0" r="2.5" fill="#ffffff90" stroke-width="0"></circle>
<circle cx="1006.0" cy="330.0" r="22.0" fill="#4e79a7" stroke="#ffffff20" stroke-width="1.0"></circle>
<circle cx="1006.0" cy="330.0" r="12.1" fill="#153530" stroke-width="0"></circle>
<text x="1006.0" y="332.0" fill="#20b2aa" font-size="7" text-anchor="middle" font-family="monospace" font-weight="bold">↑</text>
<text x="1006.0" y="300.0" fill="#cccccc" font-size="8" text-anchor="middle" font-family="monospace" font-weight="bold">TA</text>
<text x="1006.0" y="364.0" fill="#888" font-size="5.5" text-anchor="middle" font-family="monospace">TANCH</text>
<circle cx="983.0" cy="330.0" r="2.5" fill="#ffffff60" stroke-width="0"></circle>
<circle cx="1029.0" cy="330.0" r="2.5" fill="#ffffff90" stroke-width="0"></circle>
<path d="M1006.0,330.0 Q550.0,275.0 94.0,330.0" fill="none" stroke="#9988cc" stroke-width="1.5" opacity="0.5"></path>
<polygon points="94.0,330.0 85.6,327.0 86.5,334.9" fill="#9988cc" opacity="0.5"></polygon>
<text x="550.0" y="260.0" fill="#9988cc" font-size="8" text-anchor="middle" font-family="serif">O₂</text>
<text x="550.0" y="621.0" fill="#9988aa" font-size="7" text-anchor="middle" font-family="serif">Ouroboricity: O₂</text>
<text x="70.0" y="52.0" fill="#666" font-size="6" text-anchor="start" font-family="monospace" font-weight="bold">NODES</text>
<circle cx="110.0" cy="59.0" r="4.5" fill="#4e79a7" stroke-width="0"></circle>
<text x="120.0" y="62.0" fill="#4e79a7" font-size="5" text-anchor="start" font-family="monospace">LOGI</text>
<polygon points="158,54.5 162.5,59 158,63.5 153.5,59" fill="#ffd700" stroke="#ffffff20" stroke-width="1.0"></polygon>
<text x="168.0" y="62.0" fill="#ffd700" font-size="5" text-anchor="start" font-family="monospace">FROB</text>
<polygon points="209.9,61.2 206.0,63.5 202.1,61.2 202.1,56.8 206.0,54.5 209.9,56.8" fill="#e15759" stroke="#ffffff20" stroke-width="1.0"></polygon>
<text x="216.0" y="62.0" fill="#e15759" font-size="5" text-anchor="start" font-family="monospace">DIAL</text>
<rect x="249.5" y="54.5" width="9.0" height="9.0" fill="#59a14f" stroke="#ffffff20" stroke-width="1.0"></rect>
<text x="264.0" y="62.0" fill="#59a14f" font-size="5" text-anchor="start" font-family="monospace">LINE</text>
<text x="312.0" y="52.0" fill="#666" font-size="6" text-anchor="start" font-family="monospace" font-weight="bold">EDGES</text>
<line x1="350.0" y1="59.0" x2="364.0" y2="59.0" stroke="#59a14f" stroke-width="1.5" opacity="0.7"></line>
<text x="368.0" y="62.0" fill="#59a14f" font-size="5" text-anchor="start" font-family="monospace">AFWD</text>
<line x1="402.0" y1="59.0" x2="416.0" y2="59.0" stroke="#e15759" stroke-width="1.5" opacity="0.7"></line>
<text x="420.0" y="62.0" fill="#e15759" font-size="5" text-anchor="start" font-family="monospace">AREV</text>
<line x1="454.0" y1="59.0" x2="468.0" y2="59.0" stroke="#f28e2b" stroke-width="1.5" opacity="0.7"></line>
<text x="472.0" y="62.0" fill="#f28e2b" font-size="5" text-anchor="start" font-family="monospace">CLINK</text>
<line x1="506.0" y1="59.0" x2="520.0" y2="59.0" stroke="#b07aa1" stroke-width="1.5" opacity="0.7" stroke-dasharray="4,3"></line>
<text x="524.0" y="62.0" fill="#b07aa1" font-size="5" text-anchor="start" font-family="monospace">TANCH</text>
<line x1="558.0" y1="59.0" x2="572.0" y2="59.0" stroke="#ffd700" stroke-width="1.5" opacity="0.7"></line>
<text x="576.0" y="62.0" fill="#ffd700" font-size="5" text-anchor="start" font-family="monospace">IMSC</text>
<line x1="610.0" y1="59.0" x2="624.0" y2="59.0" stroke="#cc3344" stroke-width="1.5" opacity="0.7"></line>
<text x="628.0" y="62.0" fill="#cc3344" font-size="5" text-anchor="start" font-family="monospace">IFIX</text>
<text x="70.0" y="72.0" fill="#666" font-size="6" text-anchor="start" font-family="monospace" font-weight="bold">GUARD</text>
<circle cx="110.0" cy="79.0" r="3.0" fill="#f28e2b" stroke-width="0.8"></circle>
<text x="117.0" y="82.0" fill="#f28e2b" font-size="5" text-anchor="start" font-family="monospace">approach</text>
<circle cx="162.0" cy="79.0" r="3.0" fill="#59a14f" stroke-width="0.9"></circle>
<text x="169.0" y="82.0" fill="#59a14f" font-size="5" text-anchor="start" font-family="monospace">passed</text>
<text x="214.0" y="72.0" fill="#666" font-size="6" text-anchor="start" font-family="monospace" font-weight="bold">REG Δ</text>
<text x="252.0" y="82.0" fill="#20b888" font-size="5.5" text-anchor="start" font-family="monospace">→↑</text>
<text x="280.0" y="82.0" fill="#ffd700" font-size="5.5" text-anchor="start" font-family="monospace">↓→↑↓</text>
<text x="308.0" y="82.0" fill="#e15759" font-size="5.5" text-anchor="start" font-family="monospace">↑↔↓</text>
<line x1="344.0" y1="79.0" x2="358.0" y2="79.0" stroke="#ffd700" stroke-width="1.5" opacity="0.6" stroke-dasharray="5,3"></line>
<text x="362.0" y="82.0" fill="#ffd700" font-size="5.5" text-anchor="start" font-family="monospace">cross-br.</text>
<line x1="404.0" y1="79.0" x2="418.0" y2="79.0" stroke="#9988cc" stroke-width="1.5" opacity="0.5"></line>
<text x="422.0" y="82.0" fill="#9988cc" font-size="5.5" text-anchor="start" font-family="monospace">loop</text>
</svg>