<svg xmlns="http://www.w3.org/2000/svg" viewBox="0 0 1100 630">
<rect width="1100" height="630" fill="#0a0a15"/>
<line x1="0.0" y1="0.0" x2="0.0" y2="630.0" stroke="#151525" stroke-width="0.4" opacity="0.25"></line>
<line x1="40.0" y1="0.0" x2="40.0" y2="630.0" stroke="#151525" stroke-width="0.4" opacity="0.25"></line>
<line x1="80.0" y1="0.0" x2="80.0" y2="630.0" stroke="#151525" stroke-width="0.4" opacity="0.25"></line>
<line x1="120.0" y1="0.0" x2="120.0" y2="630.0" stroke="#151525" stroke-width="0.4" opacity="0.25"></line>
<line x1="160.0" y1="0.0" x2="160.0" y2="630.0" stroke="#151525" stroke-width="0.4" opacity="0.25"></line>
<line x1="200.0" y1="0.0" x2="200.0" y2="630.0" stroke="#151525" stroke-width="0.4" opacity="0.25"></line>
<line x1="240.0" y1="0.0" x2="240.0" y2="630.0" stroke="#151525" stroke-width="0.4" opacity="0.25"></line>
<line x1="280.0" y1="0.0" x2="280.0" y2="630.0" stroke="#151525" stroke-width="0.4" opacity="0.25"></line>
<line x1="320.0" y1="0.0" x2="320.0" y2="630.0" stroke="#151525" stroke-width="0.4" opacity="0.25"></line>
<line x1="360.0" y1="0.0" x2="360.0" y2="630.0" stroke="#151525" stroke-width="0.4" opacity="0.25"></line>
<line x1="400.0" y1="0.0" x2="400.0" y2="630.0" stroke="#151525" stroke-width="0.4" opacity="0.25"></line>
<line x1="440.0" y1="0.0" x2="440.0" y2="630.0" stroke="#151525" stroke-width="0.4" opacity="0.25"></line>
<line x1="480.0" y1="0.0" x2="480.0" y2="630.0" stroke="#151525" stroke-width="0.4" opacity="0.25"></line>
<line x1="520.0" y1="0.0" x2="520.0" y2="630.0" stroke="#151525" stroke-width="0.4" opacity="0.25"></line>
<line x1="560.0" y1="0.0" x2="560.0" y2="630.0" stroke="#151525" stroke-width="0.4" opacity="0.25"></line>
<line x1="600.0" y1="0.0" x2="600.0" y2="630.0" stroke="#151525" stroke-width="0.4" opacity="0.25"></line>
<line x1="640.0" y1="0.0" x2="640.0" y2="630.0" stroke="#151525" stroke-width="0.4" opacity="0.25"></line>
<line x1="680.0" y1="0.0" x2="680.0" y2="630.0" stroke="#151525" stroke-width="0.4" opacity="0.25"></line>
<line x1="720.0" y1="0.0" x2="720.0" y2="630.0" stroke="#151525" stroke-width="0.4" opacity="0.25"></line>
<line x1="760.0" y1="0.0" x2="760.0" y2="630.0" stroke="#151525" stroke-width="0.4" opacity="0.25"></line>
<line x1="800.0" y1="0.0" x2="800.0" y2="630.0" stroke="#151525" stroke-width="0.4" opacity="0.25"></line>
<line x1="840.0" y1="0.0" x2="840.0" y2="630.0" stroke="#151525" stroke-width="0.4" opacity="0.25"></line>
<line x1="880.0" y1="0.0" x2="880.0" y2="630.0" stroke="#151525" stroke-width="0.4" opacity="0.25"></line>
<line x1="920.0" y1="0.0" x2="920.0" y2="630.0" stroke="#151525" stroke-width="0.4" opacity="0.25"></line>
<line x1="960.0" y1="0.0" x2="960.0" y2="630.0" stroke="#151525" stroke-width="0.4" opacity="0.25"></line>
<line x1="1000.0" y1="0.0" x2="1000.0" y2="630.0" stroke="#151525" stroke-width="0.4" opacity="0.25"></line>
<line x1="1040.0" y1="0.0" x2="1040.0" y2="630.0" stroke="#151525" stroke-width="0.4" opacity="0.25"></line>
<line x1="1080.0" y1="0.0" x2="1080.0" y2="630.0" stroke="#151525" stroke-width="0.4" opacity="0.25"></line>
<line x1="0.0" y1="0.0" x2="1100.0" y2="0.0" stroke="#151525" stroke-width="0.4" opacity="0.25"></line>
<line x1="0.0" y1="40.0" x2="1100.0" y2="40.0" stroke="#151525" stroke-width="0.4" opacity="0.25"></line>
<line x1="0.0" y1="80.0" x2="1100.0" y2="80.0" stroke="#151525" stroke-width="0.4" opacity="0.25"></line>
<line x1="0.0" y1="120.0" x2="1100.0" y2="120.0" stroke="#151525" stroke-width="0.4" opacity="0.25"></line>
<line x1="0.0" y1="160.0" x2="1100.0" y2="160.0" stroke="#151525" stroke-width="0.4" opacity="0.25"></line>
<line x1="0.0" y1="200.0" x2="1100.0" y2="200.0" stroke="#151525" stroke-width="0.4" opacity="0.25"></line>
<line x1="0.0" y1="240.0" x2="1100.0" y2="240.0" stroke="#151525" stroke-width="0.4" opacity="0.25"></line>
<line x1="0.0" y1="280.0" x2="1100.0" y2="280.0" stroke="#151525" stroke-width="0.4" opacity="0.25"></line>
<line x1="0.0" y1="320.0" x2="1100.0" y2="320.0" stroke="#151525" stroke-width="0.4" opacity="0.25"></line>
<line x1="0.0" y1="360.0" x2="1100.0" y2="360.0" stroke="#151525" stroke-width="0.4" opacity="0.25"></line>
<line x1="0.0" y1="400.0" x2="1100.0" y2="400.0" stroke="#151525" stroke-width="0.4" opacity="0.25"></line>
<line x1="0.0" y1="440.0" x2="1100.0" y2="440.0" stroke="#151525" stroke-width="0.4" opacity="0.25"></line>
<line x1="0.0" y1="480.0" x2="1100.0" y2="480.0" stroke="#151525" stroke-width="0.4" opacity="0.25"></line>
<line x1="0.0" y1="520.0" x2="1100.0" y2="520.0" stroke="#151525" stroke-width="0.4" opacity="0.25"></line>
<line x1="0.0" y1="560.0" x2="1100.0" y2="560.0" stroke="#151525" stroke-width="0.4" opacity="0.25"></line>
<line x1="0.0" y1="600.0" x2="1100.0" y2="600.0" stroke="#151525" stroke-width="0.4" opacity="0.25"></line>
<text x="550.0" y="26.0" fill="#cccccc" font-size="13" text-anchor="middle" font-family="monospace" font-weight="bold">exact density matrix recovery with zero reconstr</text>
<text x="22.0" y="190.0" fill="#20c0b0" font-size="7" text-anchor="middle" font-family="monospace">T-lane</text>
<text x="22.0" y="330.0" fill="#555" font-size="7" text-anchor="middle" font-family="monospace">main</text>
<line x1="310.0" y1="145.0" x2="310.0" y2="515.0" stroke="#cc3344" stroke-width="1.8" opacity="0.4" stroke-dasharray="6,4"></line>
<text x="310.0" y="135.0" fill="#cc3344" font-size="7" text-anchor="middle" font-family="monospace" font-weight="bold">IFIX</text>
<polygon points="310.0,141.0 314.0,145 310.0,149.0 306.0,145" fill="#cc3344" opacity="0.6"></polygon>
<polygon points="310.0,511.0 314.0,515 310.0,519.0 306.0,515" fill="#cc3344" opacity="0.6"></polygon>
<line x1="150.0" y1="330.0" x2="168.0" y2="330.0" stroke="#5b9bd5" stroke-width="1.4" opacity="0.55"></line>
<line x1="168.0" y1="330.0" x2="168.0" y2="190.0" stroke="#5b9bd5" stroke-width="1.4" opacity="0.55"></line>
<line x1="168.0" y1="190.0" x2="174.0" y2="190.0" stroke="#5b9bd5" stroke-width="1.4" opacity="0.55"></line>
<polygon points="182.0,190.0 174.0,193.2 174.0,186.8" fill="#5b9bd5" opacity="0.55"></polygon>
<rect x="164.0" y="248.0" width="4.0" height="10" fill="#0a0a15" opacity="0.7" rx="3"></rect>
<text x="166.0" y="256.0" fill="#20b888" font-size="6" text-anchor="middle" font-family="monospace">↑</text>
<line x1="182.0" y1="190.0" x2="206.0" y2="190.0" stroke="#59a14f" stroke-width="1.3" opacity="0.55"></line>
<polygon points="214.0,190.0 206.0,193.2 206.0,186.8" fill="#59a14f" opacity="0.55"></polygon>
<line x1="214.0" y1="190.0" x2="238.0" y2="190.0" stroke="#20d0b8" stroke-width="1.3" opacity="0.55"></line>
<polygon points="246.0,190.0 238.0,193.2 238.0,186.8" fill="#20d0b8" opacity="0.55"></polygon>
<rect x="226.0" y="178.0" width="8.0" height="10" fill="#0a0a15" opacity="0.7" rx="3"></rect>
<text x="230.0" y="186.0" fill="#20b888" font-size="6" text-anchor="middle" font-family="monospace">↑→</text>
<line x1="246.0" y1="186.5" x2="269.0" y2="186.5" stroke="#f28e2b" stroke-width="1.0" opacity="0.55"></line>
<line x1="246.0" y1="193.5" x2="269.0" y2="193.5" stroke="#f28e2b" stroke-width="1.0" opacity="0.55"></line>
<polygon points="278.0,190.0 268.0,194.0 268.0,186.0" fill="#f28e2b" opacity="0.55"></polygon>
<rect x="260.0" y="178.0" width="4.0" height="10" fill="#0a0a15" opacity="0.7" rx="3"></rect>
<text x="262.0" y="186.0" fill="#20b888" font-size="6" text-anchor="middle" font-family="monospace">↑</text>
<line x1="278.0" y1="190.0" x2="302.0" y2="190.0" stroke="#ffd700" stroke-width="1.3" opacity="0.55"></line>
<polygon points="310.0,190.0 302.0,193.2 302.0,186.8" fill="#ffd700" opacity="0.55"></polygon>
<line x1="310.0" y1="190.0" x2="344.0" y2="190.0" stroke="#cc3344" stroke-width="1.3" opacity="0.55"></line>
<line x1="344.0" y1="190.0" x2="344.0" y2="330.0" stroke="#cc3344" stroke-width="1.3" opacity="0.55"></line>
<line x1="344.0" y1="330.0" x2="350.0" y2="330.0" stroke="#cc3344" stroke-width="1.3" opacity="0.55"></line>
<polygon points="342.0,330.0 350.0,326.8 350.0,333.2" fill="#cc3344" opacity="0.55"></polygon>
<line x1="150.0" y1="330.0" x2="334.0" y2="330.0" stroke="#2b6b9f" stroke-width="1.4" opacity="0.55"></line>
<polygon points="342.0,330.0 334.0,333.2 334.0,326.8" fill="#2b6b9f" opacity="0.55"></polygon>
<rect x="244.0" y="318.0" width="4.0" height="10" fill="#0a0a15" opacity="0.7" rx="3"></rect>
<text x="246.0" y="326.0" fill="#20b888" font-size="6" text-anchor="middle" font-family="monospace">↑</text>
<line x1="598.0" y1="330.0" x2="616.0" y2="330.0" stroke="#ed7d31" stroke-width="1.4" opacity="0.55"></line>
<line x1="616.0" y1="330.0" x2="616.0" y2="190.0" stroke="#ed7d31" stroke-width="1.4" opacity="0.55"></line>
<line x1="616.0" y1="190.0" x2="622.0" y2="190.0" stroke="#ed7d31" stroke-width="1.4" opacity="0.55"></line>
<polygon points="630.0,190.0 622.0,193.2 622.0,186.8" fill="#ed7d31" opacity="0.55"></polygon>
<line x1="630.0" y1="190.0" x2="654.0" y2="190.0" stroke="#20d0b8" stroke-width="1.3" opacity="0.55"></line>
<polygon points="662.0,190.0 654.0,193.2 654.0,186.8" fill="#20d0b8" opacity="0.55"></polygon>
<line x1="662.0" y1="190.0" x2="686.0" y2="190.0" stroke="#59a14f" stroke-width="1.3" opacity="0.55"></line>
<polygon points="694.0,190.0 686.0,193.2 686.0,186.8" fill="#59a14f" opacity="0.55"></polygon>
<line x1="694.0" y1="190.0" x2="720.0" y2="190.0" stroke="#cc3344" stroke-width="1.3" opacity="0.55"></line>
<line x1="720.0" y1="190.0" x2="720.0" y2="330.0" stroke="#cc3344" stroke-width="1.3" opacity="0.55"></line>
<line x1="720.0" y1="330.0" x2="718.0" y2="330.0" stroke="#cc3344" stroke-width="1.3" opacity="0.55"></line>
<polygon points="726.0,330.0 718.0,333.2 718.0,326.8" fill="#cc3344" opacity="0.55"></polygon>
<line x1="598.0" y1="330.0" x2="718.0" y2="330.0" stroke="#b85a1c" stroke-width="1.4" opacity="0.55"></line>
<polygon points="726.0,330.0 718.0,333.2 718.0,326.8" fill="#b85a1c" opacity="0.55"></polygon>
<line x1="758.0" y1="330.0" x2="776.0" y2="330.0" stroke="#70ad47" stroke-width="1.4" opacity="0.55"></line>
<line x1="776.0" y1="330.0" x2="776.0" y2="190.0" stroke="#70ad47" stroke-width="1.4" opacity="0.55"></line>
<line x1="776.0" y1="190.0" x2="782.0" y2="190.0" stroke="#70ad47" stroke-width="1.4" opacity="0.55"></line>
<polygon points="790.0,190.0 782.0,193.2 782.0,186.8" fill="#70ad47" opacity="0.55"></polygon>
<line x1="790.0" y1="190.0" x2="814.0" y2="190.0" stroke="#59a14f" stroke-width="1.3" opacity="0.55"></line>
<polygon points="822.0,190.0 814.0,193.2 814.0,186.8" fill="#59a14f" opacity="0.55"></polygon>
<line x1="822.0" y1="190.0" x2="846.0" y2="190.0" stroke="#20d0b8" stroke-width="1.3" opacity="0.55"></line>
<polygon points="854.0,190.0 846.0,193.2 846.0,186.8" fill="#20d0b8" opacity="0.55"></polygon>
<line x1="854.0" y1="186.5" x2="877.0" y2="186.5" stroke="#f28e2b" stroke-width="1.0" opacity="0.55"></line>
<line x1="854.0" y1="193.5" x2="877.0" y2="193.5" stroke="#f28e2b" stroke-width="1.0" opacity="0.55"></line>
<polygon points="886.0,190.0 876.0,194.0 876.0,186.0" fill="#f28e2b" opacity="0.55"></polygon>
<line x1="886.0" y1="190.0" x2="904.0" y2="190.0" stroke="#ffd700" stroke-width="1.3" opacity="0.55"></line>
<line x1="904.0" y1="190.0" x2="904.0" y2="330.0" stroke="#ffd700" stroke-width="1.3" opacity="0.55"></line>
<line x1="904.0" y1="330.0" x2="910.0" y2="330.0" stroke="#ffd700" stroke-width="1.3" opacity="0.55"></line>
<polygon points="918.0,330.0 910.0,333.2 910.0,326.8" fill="#ffd700" opacity="0.55"></polygon>
<line x1="758.0" y1="330.0" x2="910.0" y2="330.0" stroke="#4a7a2e" stroke-width="1.4" opacity="0.55"></line>
<polygon points="918.0,330.0 910.0,333.2 910.0,326.8" fill="#4a7a2e" opacity="0.55"></polygon>
<line x1="86.0" y1="330.0" x2="110.0" y2="330.0" stroke="#6baed6" stroke-width="1.3" opacity="0.75"></line>
<polygon points="118.0,330.0 110.0,333.2 110.0,326.8" fill="#6baed6" opacity="0.75"></polygon>
<line x1="118.0" y1="330.0" x2="142.0" y2="330.0" stroke="#b07aa1" stroke-width="1.3" opacity="0.75" stroke-dasharray="4,3"></line>
<polygon points="150.0,330.0 142.0,333.2 142.0,326.8" fill="#b07aa1" opacity="0.75"></polygon>
<line x1="374.0" y1="330.0" x2="398.0" y2="330.0" stroke="#59a14f" stroke-width="1.3" opacity="0.75"></line>
<polygon points="406.0,330.0 398.0,333.2 398.0,326.8" fill="#59a14f" opacity="0.75"></polygon>
<line x1="406.0" y1="330.0" x2="430.0" y2="330.0" stroke="#ff6688" stroke-width="1.3" opacity="0.75"></line>
<polygon points="438.0,330.0 430.0,333.2 430.0,326.8" fill="#ff6688" opacity="0.75"></polygon>
<line x1="438.0" y1="330.0" x2="462.0" y2="330.0" stroke="#e15759" stroke-width="1.3" opacity="0.75"></line>
<polygon points="470.0,330.0 462.0,333.2 462.0,326.8" fill="#e15759" opacity="0.75"></polygon>
<line x1="470.0" y1="330.0" x2="494.0" y2="330.0" stroke="#e15759" stroke-width="1.3" opacity="0.75"></line>
<polygon points="502.0,330.0 494.0,333.2 494.0,326.8" fill="#e15759" opacity="0.75"></polygon>
<line x1="502.0" y1="326.5" x2="525.0" y2="326.5" stroke="#f28e2b" stroke-width="1.0" opacity="0.75"></line>
<line x1="502.0" y1="333.5" x2="525.0" y2="333.5" stroke="#f28e2b" stroke-width="1.0" opacity="0.75"></line>
<polygon points="534.0,330.0 524.0,334.0 524.0,326.0" fill="#f28e2b" opacity="0.75"></polygon>
<line x1="534.0" y1="330.0" x2="558.0" y2="330.0" stroke="#ffd700" stroke-width="1.3" opacity="0.75"></line>
<polygon points="566.0,330.0 558.0,333.2 558.0,326.8" fill="#ffd700" opacity="0.75"></polygon>
<line x1="566.0" y1="330.0" x2="590.0" y2="330.0" stroke="#ffd700" stroke-width="1.3" opacity="0.75"></line>
<polygon points="598.0,330.0 590.0,333.2 590.0,326.8" fill="#ffd700" opacity="0.75"></polygon>
<line x1="950.0" y1="330.0" x2="974.0" y2="330.0" stroke="#e15759" stroke-width="1.3" opacity="0.75"></line>
<polygon points="982.0,330.0 974.0,333.2 974.0,326.8" fill="#e15759" opacity="0.75"></polygon>
<line x1="982.0" y1="330.0" x2="1006.0" y2="330.0" stroke="#ff6688" stroke-width="1.3" opacity="0.75"></line>
<polygon points="1014.0,330.0 1006.0,333.2 1006.0,326.8" fill="#ff6688" opacity="0.75"></polygon>
<line x1="342.0" y1="330.0" x2="366.0" y2="330.0" stroke="#ffd700" stroke-width="1.3" opacity="0.55"></line>
<polygon points="374.0,330.0 366.0,333.2 366.0,326.8" fill="#ffd700" opacity="0.55"></polygon>
<line x1="726.0" y1="330.0" x2="750.0" y2="330.0" stroke="#ffd700" stroke-width="1.3" opacity="0.55"></line>
<polygon points="758.0,330.0 750.0,333.2 750.0,326.8" fill="#ffd700" opacity="0.55"></polygon>
<line x1="918.0" y1="330.0" x2="942.0" y2="330.0" stroke="#ffd700" stroke-width="1.3" opacity="0.55"></line>
<polygon points="950.0,330.0 942.0,333.2 942.0,326.8" fill="#ffd700" opacity="0.55"></polygon>
<path d="M150.0,330.0 Q246.0,470.0 342.0,330.0" fill="none" stroke="#2b6b9f" stroke-dasharray="4,4" stroke-width="1" opacity="0.25"></path>
<path d="M598.0,330.0 Q662.0,470.0 726.0,330.0" fill="none" stroke="#b85a1c" stroke-dasharray="4,4" stroke-width="1" opacity="0.25"></path>
<path d="M758.0,330.0 Q838.0,470.0 918.0,330.0" fill="none" stroke="#4a7a2e" stroke-dasharray="4,4" stroke-width="1" opacity="0.25"></path>
<circle cx="86.0" cy="330.0" r="22.0" fill="#4e79a7" stroke="#ffffff20" stroke-width="1.0"></circle>
<text x="86.0" y="300.0" fill="#cccccc" font-size="8" text-anchor="middle" font-family="monospace" font-weight="bold">VI</text>
<text x="86.0" y="364.0" fill="#888" font-size="5.5" text-anchor="middle" font-family="monospace">VINIT</text>
<circle cx="109.0" cy="330.0" r="2.5" fill="#ffffff90" stroke-width="0"></circle>
<circle cx="118.0" cy="330.0" r="22.0" fill="#4e79a7" stroke="#ffffff20" stroke-width="1.0"></circle>
<text x="118.0" y="300.0" fill="#cccccc" font-size="8" text-anchor="middle" font-family="monospace" font-weight="bold">TA</text>
<text x="118.0" y="364.0" fill="#888" font-size="5.5" text-anchor="middle" font-family="monospace">TANCH</text>
<circle cx="95.0" cy="330.0" r="2.5" fill="#ffffff60" stroke-width="0"></circle>
<circle cx="141.0" cy="330.0" r="2.5" fill="#ffffff90" stroke-width="0"></circle>
<polygon points="150.0,308.0 172.0,330 150.0,352.0 128.0,330" fill="#ffd700" stroke="#ffffff20" stroke-width="1.0"></polygon>
<text x="150.0" y="300.0" fill="#cccccc" font-size="8" text-anchor="middle" font-family="monospace" font-weight="bold">FS</text>
<text x="150.0" y="364.0" fill="#888" font-size="5.5" text-anchor="middle" font-family="monospace">FSPLIT</text>
<circle cx="127.0" cy="330.0" r="2.5" fill="#ffffff60" stroke-width="0"></circle>
<circle cx="173.0" cy="323.0" r="2.5" fill="#ffffff90" stroke-width="0"></circle>
<circle cx="173.0" cy="337.0" r="2.5" fill="#ffffff90" stroke-width="0"></circle>
<circle cx="182.0" cy="190.0" r="22.0" fill="#4e79a7" stroke="#ffffff20" stroke-width="1.0"></circle>
<circle cx="182.0" cy="190.0" r="12.1" fill="#153530" stroke-width="0"></circle>
<text x="182.0" y="192.0" fill="#20b2aa" font-size="7" text-anchor="middle" font-family="monospace" font-weight="bold">↑</text>
<text x="182.0" y="160.0" fill="#cccccc" font-size="8" text-anchor="middle" font-family="monospace" font-weight="bold">AF</text>
<text x="182.0" y="224.0" fill="#888" font-size="5.5" text-anchor="middle" font-family="monospace">AFWD</text>
<circle cx="159.0" cy="190.0" r="2.5" fill="#ffffff60" stroke-width="0"></circle>
<circle cx="205.0" cy="190.0" r="2.5" fill="#ffffff90" stroke-width="0"></circle>
<polygon points="233.1,201.0 214.0,212.0 194.9,201.0 194.9,179.0 214.0,168.0 233.1,179.0" fill="#e15759" stroke="#ffffff20" stroke-width="1.0"></polygon>
<circle cx="214.0" cy="190.0" r="12.1" fill="#153530" stroke-width="0"></circle>
<text x="214.0" y="192.0" fill="#20b2aa" font-size="7" text-anchor="middle" font-family="monospace" font-weight="bold">↑</text>
<text x="214.0" y="160.0" fill="#cccccc" font-size="8" text-anchor="middle" font-family="monospace" font-weight="bold">ET</text>
<text x="214.0" y="224.0" fill="#888" font-size="5.5" text-anchor="middle" font-family="monospace">EVALT</text>
<circle cx="191.0" cy="190.0" r="3.5" fill="#f28e2b" stroke-width="0.8"></circle>
<circle cx="237.0" cy="190.0" r="3.5" fill="#59a14f" stroke-width="0.9"></circle>
<circle cx="246.0" cy="190.0" r="22.0" fill="#4e79a7" stroke="#ffffff20" stroke-width="1.0"></circle>
<text x="246.0" y="160.0" fill="#cccccc" font-size="8" text-anchor="middle" font-family="monospace" font-weight="bold">CL</text>
<text x="246.0" y="224.0" fill="#888" font-size="5.5" text-anchor="middle" font-family="monospace">CLINK</text>
<circle cx="223.0" cy="190.0" r="2.5" fill="#ffffff60" stroke-width="0"></circle>
<circle cx="269.0" cy="190.0" r="2.5" fill="#ffffff90" stroke-width="0"></circle>
<circle cx="278.0" cy="190.0" r="22.0" fill="#4e79a7" stroke="#ffffff20" stroke-width="1.0"></circle>
<circle cx="278.0" cy="190.0" r="12.1" fill="#153530" stroke-width="0"></circle>
<text x="278.0" y="192.0" fill="#20b2aa" font-size="7" text-anchor="middle" font-family="monospace" font-weight="bold">↑</text>
<text x="278.0" y="160.0" fill="#cccccc" font-size="8" text-anchor="middle" font-family="monospace" font-weight="bold">IM</text>
<text x="278.0" y="224.0" fill="#888" font-size="5.5" text-anchor="middle" font-family="monospace">IMSCRIB</text>
<circle cx="255.0" cy="190.0" r="2.5" fill="#ffffff60" stroke-width="0"></circle>
<circle cx="301.0" cy="190.0" r="2.5" fill="#ffffff90" stroke-width="0"></circle>
<rect x="288.0" y="168.0" width="44.0" height="44.0" fill="#59a14f" stroke="#ffffff20" stroke-width="1.0"></rect>
<circle cx="310.0" cy="190.0" r="12.1" fill="#153530" stroke-width="0"></circle>
<text x="310.0" y="192.0" fill="#20b2aa" font-size="7" text-anchor="middle" font-family="monospace" font-weight="bold">↑</text>
<text x="310.0" y="160.0" fill="#cccccc" font-size="8" text-anchor="middle" font-family="monospace" font-weight="bold">IX</text>
<text x="310.0" y="224.0" fill="#888" font-size="5.5" text-anchor="middle" font-family="monospace">IFIX</text>
<circle cx="287.0" cy="190.0" r="2.5" fill="#ffffff60" stroke-width="0"></circle>
<circle cx="333.0" cy="190.0" r="2.5" fill="#ffffff90" stroke-width="0"></circle>
<polygon points="342.0,308.0 364.0,330 342.0,352.0 320.0,330" fill="#ffd700" stroke="#ffffff20" stroke-width="1.0"></polygon>
<circle cx="342.0" cy="330.0" r="12.1" fill="#153530" stroke-width="0"></circle>
<text x="342.0" y="332.0" fill="#20b2aa" font-size="7" text-anchor="middle" font-family="monospace" font-weight="bold">↑</text>
<text x="342.0" y="300.0" fill="#cccccc" font-size="8" text-anchor="middle" font-family="monospace" font-weight="bold">FF</text>
<text x="342.0" y="364.0" fill="#888" font-size="5.5" text-anchor="middle" font-family="monospace">FFUSE</text>
<circle cx="319.0" cy="323.0" r="2.5" fill="#ffffff60" stroke-width="0"></circle>
<circle cx="319.0" cy="337.0" r="2.5" fill="#ffffff60" stroke-width="0"></circle>
<circle cx="365.0" cy="330.0" r="2.5" fill="#ffffff90" stroke-width="0"></circle>
<circle cx="374.0" cy="330.0" r="22.0" fill="#4e79a7" stroke="#ffffff20" stroke-width="1.0"></circle>
<circle cx="374.0" cy="330.0" r="12.1" fill="#153530" stroke-width="0"></circle>
<text x="374.0" y="332.0" fill="#20b2aa" font-size="7" text-anchor="middle" font-family="monospace" font-weight="bold">↑</text>
<text x="374.0" y="300.0" fill="#cccccc" font-size="8" text-anchor="middle" font-family="monospace" font-weight="bold">AF</text>
<text x="374.0" y="364.0" fill="#888" font-size="5.5" text-anchor="middle" font-family="monospace">AFWD</text>
<circle cx="351.0" cy="330.0" r="2.5" fill="#ffffff60" stroke-width="0"></circle>
<circle cx="397.0" cy="330.0" r="2.5" fill="#ffffff90" stroke-width="0"></circle>
<polygon points="425.1,341.0 406.0,352.0 386.9,341.0 386.9,319.0 406.0,308.0 425.1,319.0" fill="#e15759" stroke="#ffffff20" stroke-width="1.0"></polygon>
<circle cx="406.0" cy="330.0" r="12.1" fill="#153530" stroke-width="0"></circle>
<text x="406.0" y="332.0" fill="#20b2aa" font-size="7" text-anchor="middle" font-family="monospace" font-weight="bold">↑</text>
<text x="406.0" y="300.0" fill="#cccccc" font-size="8" text-anchor="middle" font-family="monospace" font-weight="bold">EF</text>
<text x="406.0" y="364.0" fill="#888" font-size="5.5" text-anchor="middle" font-family="monospace">EVALF</text>
<circle cx="383.0" cy="330.0" r="3.5" fill="#f28e2b" stroke-width="0.8"></circle>
<circle cx="429.0" cy="330.0" r="3.5" fill="#59a14f" stroke-width="0.9"></circle>
<polygon points="457.1,341.0 438.0,352.0 418.9,341.0 418.9,319.0 438.0,308.0 457.1,319.0" fill="#e15759" stroke="#ffffff20" stroke-width="1.0"></polygon>
<circle cx="438.0" cy="330.0" r="12.1" fill="#153530" stroke-width="0"></circle>
<text x="438.0" y="332.0" fill="#20b2aa" font-size="7" text-anchor="middle" font-family="monospace" font-weight="bold">↑</text>
<text x="438.0" y="300.0" fill="#cccccc" font-size="8" text-anchor="middle" font-family="monospace" font-weight="bold">EG</text>
<text x="438.0" y="364.0" fill="#888" font-size="5.5" text-anchor="middle" font-family="monospace">ENGAGR</text>
<circle cx="415.0" cy="330.0" r="2.5" fill="#ffffff60" stroke-width="0"></circle>
<circle cx="461.0" cy="330.0" r="2.5" fill="#ffffff90" stroke-width="0"></circle>
<circle cx="470.0" cy="330.0" r="22.0" fill="#4e79a7" stroke="#ffffff20" stroke-width="1.0"></circle>
<circle cx="470.0" cy="330.0" r="12.1" fill="#153530" stroke-width="0"></circle>
<text x="470.0" y="332.0" fill="#20b2aa" font-size="7" text-anchor="middle" font-family="monospace" font-weight="bold">↑</text>
<text x="470.0" y="300.0" fill="#cccccc" font-size="8" text-anchor="middle" font-family="monospace" font-weight="bold">AR</text>
<text x="470.0" y="364.0" fill="#888" font-size="5.5" text-anchor="middle" font-family="monospace">AREV</text>
<circle cx="447.0" cy="330.0" r="2.5" fill="#ffffff60" stroke-width="0"></circle>
<circle cx="493.0" cy="330.0" r="2.5" fill="#ffffff90" stroke-width="0"></circle>
<circle cx="502.0" cy="330.0" r="22.0" fill="#4e79a7" stroke="#ffffff20" stroke-width="1.0"></circle>
<circle cx="502.0" cy="330.0" r="12.1" fill="#153530" stroke-width="0"></circle>
<text x="502.0" y="332.0" fill="#20b2aa" font-size="7" text-anchor="middle" font-family="monospace" font-weight="bold">↑</text>
<text x="502.0" y="300.0" fill="#cccccc" font-size="8" text-anchor="middle" font-family="monospace" font-weight="bold">CL</text>
<text x="502.0" y="364.0" fill="#888" font-size="5.5" text-anchor="middle" font-family="monospace">CLINK</text>
<circle cx="479.0" cy="330.0" r="2.5" fill="#ffffff60" stroke-width="0"></circle>
<circle cx="525.0" cy="330.0" r="2.5" fill="#ffffff90" stroke-width="0"></circle>
<circle cx="534.0" cy="330.0" r="22.0" fill="#4e79a7" stroke="#ffffff20" stroke-width="1.0"></circle>
<circle cx="534.0" cy="330.0" r="12.1" fill="#153530" stroke-width="0"></circle>
<text x="534.0" y="332.0" fill="#20b2aa" font-size="7" text-anchor="middle" font-family="monospace" font-weight="bold">↑</text>
<text x="534.0" y="300.0" fill="#cccccc" font-size="8" text-anchor="middle" font-family="monospace" font-weight="bold">IM</text>
<text x="534.0" y="364.0" fill="#888" font-size="5.5" text-anchor="middle" font-family="monospace">IMSCRIB</text>
<circle cx="511.0" cy="330.0" r="2.5" fill="#ffffff60" stroke-width="0"></circle>
<circle cx="557.0" cy="330.0" r="2.5" fill="#ffffff90" stroke-width="0"></circle>
<polygon points="566.0,308.0 588.0,330 566.0,352.0 544.0,330" fill="#ffd700" stroke="#ffffff20" stroke-width="1.0"></polygon>
<circle cx="566.0" cy="330.0" r="12.1" fill="#153530" stroke-width="0"></circle>
<text x="566.0" y="332.0" fill="#20b2aa" font-size="7" text-anchor="middle" font-family="monospace" font-weight="bold">↑</text>
<text x="566.0" y="300.0" fill="#cccccc" font-size="8" text-anchor="middle" font-family="monospace" font-weight="bold">FF</text>
<text x="566.0" y="364.0" fill="#888" font-size="5.5" text-anchor="middle" font-family="monospace">FFUSE</text>
<circle cx="543.0" cy="323.0" r="2.5" fill="#ffffff60" stroke-width="0"></circle>
<circle cx="543.0" cy="337.0" r="2.5" fill="#ffffff60" stroke-width="0"></circle>
<circle cx="589.0" cy="330.0" r="2.5" fill="#ffffff90" stroke-width="0"></circle>
<polygon points="598.0,308.0 620.0,330 598.0,352.0 576.0,330" fill="#ffd700" stroke="#ffffff20" stroke-width="1.0"></polygon>
<circle cx="598.0" cy="330.0" r="12.1" fill="#153530" stroke-width="0"></circle>
<text x="598.0" y="332.0" fill="#20b2aa" font-size="7" text-anchor="middle" font-family="monospace" font-weight="bold">↑</text>
<text x="598.0" y="300.0" fill="#cccccc" font-size="8" text-anchor="middle" font-family="monospace" font-weight="bold">FS</text>
<text x="598.0" y="364.0" fill="#888" font-size="5.5" text-anchor="middle" font-family="monospace">FSPLIT</text>
<circle cx="575.0" cy="330.0" r="2.5" fill="#ffffff60" stroke-width="0"></circle>
<circle cx="621.0" cy="323.0" r="2.5" fill="#ffffff90" stroke-width="0"></circle>
<circle cx="621.0" cy="337.0" r="2.5" fill="#ffffff90" stroke-width="0"></circle>
<polygon points="649.1,201.0 630.0,212.0 610.9,201.0 610.9,179.0 630.0,168.0 649.1,179.0" fill="#e15759" stroke="#ffffff20" stroke-width="1.0"></polygon>
<circle cx="630.0" cy="190.0" r="12.1" fill="#153530" stroke-width="0"></circle>
<text x="630.0" y="192.0" fill="#20b2aa" font-size="7" text-anchor="middle" font-family="monospace" font-weight="bold">↑</text>
<text x="630.0" y="160.0" fill="#cccccc" font-size="8" text-anchor="middle" font-family="monospace" font-weight="bold">ET</text>
<text x="630.0" y="224.0" fill="#888" font-size="5.5" text-anchor="middle" font-family="monospace">EVALT</text>
<circle cx="607.0" cy="190.0" r="3.5" fill="#f28e2b" stroke-width="0.8"></circle>
<circle cx="653.0" cy="190.0" r="3.5" fill="#59a14f" stroke-width="0.9"></circle>
<circle cx="662.0" cy="190.0" r="22.0" fill="#4e79a7" stroke="#ffffff20" stroke-width="1.0"></circle>
<circle cx="662.0" cy="190.0" r="12.1" fill="#153530" stroke-width="0"></circle>
<text x="662.0" y="192.0" fill="#20b2aa" font-size="7" text-anchor="middle" font-family="monospace" font-weight="bold">↑</text>
<text x="662.0" y="160.0" fill="#cccccc" font-size="8" text-anchor="middle" font-family="monospace" font-weight="bold">AF</text>
<text x="662.0" y="224.0" fill="#888" font-size="5.5" text-anchor="middle" font-family="monospace">AFWD</text>
<circle cx="639.0" cy="190.0" r="2.5" fill="#ffffff60" stroke-width="0"></circle>
<circle cx="685.0" cy="190.0" r="2.5" fill="#ffffff90" stroke-width="0"></circle>
<rect x="672.0" y="168.0" width="44.0" height="44.0" fill="#59a14f" stroke="#ffffff20" stroke-width="1.0"></rect>
<circle cx="694.0" cy="190.0" r="12.1" fill="#153530" stroke-width="0"></circle>
<text x="694.0" y="192.0" fill="#20b2aa" font-size="7" text-anchor="middle" font-family="monospace" font-weight="bold">↑</text>
<text x="694.0" y="160.0" fill="#cccccc" font-size="8" text-anchor="middle" font-family="monospace" font-weight="bold">IX</text>
<text x="694.0" y="224.0" fill="#888" font-size="5.5" text-anchor="middle" font-family="monospace">IFIX</text>
<circle cx="671.0" cy="190.0" r="2.5" fill="#ffffff60" stroke-width="0"></circle>
<circle cx="717.0" cy="190.0" r="2.5" fill="#ffffff90" stroke-width="0"></circle>
<polygon points="726.0,308.0 748.0,330 726.0,352.0 704.0,330" fill="#ffd700" stroke="#ffffff20" stroke-width="1.0"></polygon>
<circle cx="726.0" cy="330.0" r="12.1" fill="#153530" stroke-width="0"></circle>
<text x="726.0" y="332.0" fill="#20b2aa" font-size="7" text-anchor="middle" font-family="monospace" font-weight="bold">↑</text>
<text x="726.0" y="300.0" fill="#cccccc" font-size="8" text-anchor="middle" font-family="monospace" font-weight="bold">FF</text>
<text x="726.0" y="364.0" fill="#888" font-size="5.5" text-anchor="middle" font-family="monospace">FFUSE</text>
<circle cx="703.0" cy="323.0" r="2.5" fill="#ffffff60" stroke-width="0"></circle>
<circle cx="703.0" cy="337.0" r="2.5" fill="#ffffff60" stroke-width="0"></circle>
<circle cx="749.0" cy="330.0" r="2.5" fill="#ffffff90" stroke-width="0"></circle>
<polygon points="758.0,308.0 780.0,330 758.0,352.0 736.0,330" fill="#ffd700" stroke="#ffffff20" stroke-width="1.0"></polygon>
<circle cx="758.0" cy="330.0" r="12.1" fill="#153530" stroke-width="0"></circle>
<text x="758.0" y="332.0" fill="#20b2aa" font-size="7" text-anchor="middle" font-family="monospace" font-weight="bold">↑</text>
<text x="758.0" y="300.0" fill="#cccccc" font-size="8" text-anchor="middle" font-family="monospace" font-weight="bold">FS</text>
<text x="758.0" y="364.0" fill="#888" font-size="5.5" text-anchor="middle" font-family="monospace">FSPLIT</text>
<circle cx="735.0" cy="330.0" r="2.5" fill="#ffffff60" stroke-width="0"></circle>
<circle cx="781.0" cy="323.0" r="2.5" fill="#ffffff90" stroke-width="0"></circle>
<circle cx="781.0" cy="337.0" r="2.5" fill="#ffffff90" stroke-width="0"></circle>
<circle cx="790.0" cy="190.0" r="22.0" fill="#4e79a7" stroke="#ffffff20" stroke-width="1.0"></circle>
<circle cx="790.0" cy="190.0" r="12.1" fill="#153530" stroke-width="0"></circle>
<text x="790.0" y="192.0" fill="#20b2aa" font-size="7" text-anchor="middle" font-family="monospace" font-weight="bold">↑</text>
<text x="790.0" y="160.0" fill="#cccccc" font-size="8" text-anchor="middle" font-family="monospace" font-weight="bold">AF</text>
<text x="790.0" y="224.0" fill="#888" font-size="5.5" text-anchor="middle" font-family="monospace">AFWD</text>
<circle cx="767.0" cy="190.0" r="2.5" fill="#ffffff60" stroke-width="0"></circle>
<circle cx="813.0" cy="190.0" r="2.5" fill="#ffffff90" stroke-width="0"></circle>
<polygon points="841.1,201.0 822.0,212.0 802.9,201.0 802.9,179.0 822.0,168.0 841.1,179.0" fill="#e15759" stroke="#ffffff20" stroke-width="1.0"></polygon>
<circle cx="822.0" cy="190.0" r="12.1" fill="#153530" stroke-width="0"></circle>
<text x="822.0" y="192.0" fill="#20b2aa" font-size="7" text-anchor="middle" font-family="monospace" font-weight="bold">↑</text>
<text x="822.0" y="160.0" fill="#cccccc" font-size="8" text-anchor="middle" font-family="monospace" font-weight="bold">ET</text>
<text x="822.0" y="224.0" fill="#888" font-size="5.5" text-anchor="middle" font-family="monospace">EVALT</text>
<circle cx="799.0" cy="190.0" r="3.5" fill="#f28e2b" stroke-width="0.8"></circle>
<circle cx="845.0" cy="190.0" r="3.5" fill="#59a14f" stroke-width="0.9"></circle>
<circle cx="854.0" cy="190.0" r="22.0" fill="#4e79a7" stroke="#ffffff20" stroke-width="1.0"></circle>
<circle cx="854.0" cy="190.0" r="12.1" fill="#153530" stroke-width="0"></circle>
<text x="854.0" y="192.0" fill="#20b2aa" font-size="7" text-anchor="middle" font-family="monospace" font-weight="bold">↑</text>
<text x="854.0" y="160.0" fill="#cccccc" font-size="8" text-anchor="middle" font-family="monospace" font-weight="bold">CL</text>
<text x="854.0" y="224.0" fill="#888" font-size="5.5" text-anchor="middle" font-family="monospace">CLINK</text>
<circle cx="831.0" cy="190.0" r="2.5" fill="#ffffff60" stroke-width="0"></circle>
<circle cx="877.0" cy="190.0" r="2.5" fill="#ffffff90" stroke-width="0"></circle>
<circle cx="886.0" cy="190.0" r="22.0" fill="#4e79a7" stroke="#ffffff20" stroke-width="1.0"></circle>
<circle cx="886.0" cy="190.0" r="12.1" fill="#153530" stroke-width="0"></circle>
<text x="886.0" y="192.0" fill="#20b2aa" font-size="7" text-anchor="middle" font-family="monospace" font-weight="bold">↑</text>
<text x="886.0" y="160.0" fill="#cccccc" font-size="8" text-anchor="middle" font-family="monospace" font-weight="bold">IM</text>
<text x="886.0" y="224.0" fill="#888" font-size="5.5" text-anchor="middle" font-family="monospace">IMSCRIB</text>
<circle cx="863.0" cy="190.0" r="2.5" fill="#ffffff60" stroke-width="0"></circle>
<circle cx="909.0" cy="190.0" r="2.5" fill="#ffffff90" stroke-width="0"></circle>
<polygon points="918.0,308.0 940.0,330 918.0,352.0 896.0,330" fill="#ffd700" stroke="#ffffff20" stroke-width="1.0"></polygon>
<circle cx="918.0" cy="330.0" r="12.1" fill="#153530" stroke-width="0"></circle>
<text x="918.0" y="332.0" fill="#20b2aa" font-size="7" text-anchor="middle" font-family="monospace" font-weight="bold">↑</text>
<text x="918.0" y="300.0" fill="#cccccc" font-size="8" text-anchor="middle" font-family="monospace" font-weight="bold">FF</text>
<text x="918.0" y="364.0" fill="#888" font-size="5.5" text-anchor="middle" font-family="monospace">FFUSE</text>
<circle cx="895.0" cy="323.0" r="2.5" fill="#ffffff60" stroke-width="0"></circle>
<circle cx="895.0" cy="337.0" r="2.5" fill="#ffffff60" stroke-width="0"></circle>
<circle cx="941.0" cy="330.0" r="2.5" fill="#ffffff90" stroke-width="0"></circle>
<circle cx="950.0" cy="330.0" r="22.0" fill="#4e79a7" stroke="#ffffff20" stroke-width="1.0"></circle>
<circle cx="950.0" cy="330.0" r="12.1" fill="#153530" stroke-width="0"></circle>
<text x="950.0" y="332.0" fill="#20b2aa" font-size="7" text-anchor="middle" font-family="monospace" font-weight="bold">↑</text>
<text x="950.0" y="300.0" fill="#cccccc" font-size="8" text-anchor="middle" font-family="monospace" font-weight="bold">AR</text>
<text x="950.0" y="364.0" fill="#888" font-size="5.5" text-anchor="middle" font-family="monospace">AREV</text>
<circle cx="927.0" cy="330.0" r="2.5" fill="#ffffff60" stroke-width="0"></circle>
<circle cx="973.0" cy="330.0" r="2.5" fill="#ffffff90" stroke-width="0"></circle>
<polygon points="1001.1,341.0 982.0,352.0 962.9,341.0 962.9,319.0 982.0,308.0 1001.1,319.0" fill="#e15759" stroke="#ffffff20" stroke-width="1.0"></polygon>
<circle cx="982.0" cy="330.0" r="12.1" fill="#153530" stroke-width="0"></circle>
<text x="982.0" y="332.0" fill="#20b2aa" font-size="7" text-anchor="middle" font-family="monospace" font-weight="bold">↑</text>
<text x="982.0" y="300.0" fill="#cccccc" font-size="8" text-anchor="middle" font-family="monospace" font-weight="bold">EF</text>
<text x="982.0" y="364.0" fill="#888" font-size="5.5" text-anchor="middle" font-family="monospace">EVALF</text>
<circle cx="959.0" cy="330.0" r="3.5" fill="#f28e2b" stroke-width="0.8"></circle>
<circle cx="1005.0" cy="330.0" r="3.5" fill="#59a14f" stroke-width="0.9"></circle>
<polygon points="1014.0,308.0 1036.0,330 1014.0,352.0 992.0,330" fill="#ffd700" stroke="#ffffff20" stroke-width="1.0"></polygon>
<circle cx="1014.0" cy="330.0" r="12.1" fill="#153530" stroke-width="0"></circle>
<text x="1014.0" y="332.0" fill="#20b2aa" font-size="7" text-anchor="middle" font-family="monospace" font-weight="bold">↑</text>
<text x="1014.0" y="300.0" fill="#cccccc" font-size="8" text-anchor="middle" font-family="monospace" font-weight="bold">FF</text>
<text x="1014.0" y="364.0" fill="#888" font-size="5.5" text-anchor="middle" font-family="monospace">FFUSE</text>
<circle cx="991.0" cy="323.0" r="2.5" fill="#ffffff60" stroke-width="0"></circle>
<circle cx="991.0" cy="337.0" r="2.5" fill="#ffffff60" stroke-width="0"></circle>
<circle cx="1037.0" cy="330.0" r="2.5" fill="#ffffff90" stroke-width="0"></circle>
<path d="M1014.0,330.0 Q550.0,275.0 86.0,330.0" fill="none" stroke="#9988cc" stroke-width="1.5" opacity="0.5"></path>
<polygon points="86.0,330.0 77.6,327.0 78.5,334.9" fill="#9988cc" opacity="0.5"></polygon>
<text x="550.0" y="260.0" fill="#9988cc" font-size="8" text-anchor="middle" font-family="serif">O₂</text>
<text x="550.0" y="621.0" fill="#9988aa" font-size="7" text-anchor="middle" font-family="serif">Ouroboricity: O₂</text>
<text x="70.0" y="52.0" fill="#666" font-size="6" text-anchor="start" font-family="monospace" font-weight="bold">NODES</text>
<circle cx="110.0" cy="59.0" r="4.5" fill="#4e79a7" stroke-width="0"></circle>
<text x="120.0" y="62.0" fill="#4e79a7" font-size="5" text-anchor="start" font-family="monospace">LOGI</text>
<polygon points="158,54.5 162.5,59 158,63.5 153.5,59" fill="#ffd700" stroke="#ffffff20" stroke-width="1.0"></polygon>
<text x="168.0" y="62.0" fill="#ffd700" font-size="5" text-anchor="start" font-family="monospace">FROB</text>
<polygon points="209.9,61.2 206.0,63.5 202.1,61.2 202.1,56.8 206.0,54.5 209.9,56.8" fill="#e15759" stroke="#ffffff20" stroke-width="1.0"></polygon>
<text x="216.0" y="62.0" fill="#e15759" font-size="5" text-anchor="start" font-family="monospace">DIAL</text>
<rect x="249.5" y="54.5" width="9.0" height="9.0" fill="#59a14f" stroke="#ffffff20" stroke-width="1.0"></rect>
<text x="264.0" y="62.0" fill="#59a14f" font-size="5" text-anchor="start" font-family="monospace">LINE</text>
<text x="312.0" y="52.0" fill="#666" font-size="6" text-anchor="start" font-family="monospace" font-weight="bold">EDGES</text>
<line x1="350.0" y1="59.0" x2="364.0" y2="59.0" stroke="#59a14f" stroke-width="1.5" opacity="0.7"></line>
<text x="368.0" y="62.0" fill="#59a14f" font-size="5" text-anchor="start" font-family="monospace">AFWD</text>
<line x1="402.0" y1="59.0" x2="416.0" y2="59.0" stroke="#e15759" stroke-width="1.5" opacity="0.7"></line>
<text x="420.0" y="62.0" fill="#e15759" font-size="5" text-anchor="start" font-family="monospace">AREV</text>
<line x1="454.0" y1="59.0" x2="468.0" y2="59.0" stroke="#f28e2b" stroke-width="1.5" opacity="0.7"></line>
<text x="472.0" y="62.0" fill="#f28e2b" font-size="5" text-anchor="start" font-family="monospace">CLINK</text>
<line x1="506.0" y1="59.0" x2="520.0" y2="59.0" stroke="#b07aa1" stroke-width="1.5" opacity="0.7" stroke-dasharray="4,3"></line>
<text x="524.0" y="62.0" fill="#b07aa1" font-size="5" text-anchor="start" font-family="monospace">TANCH</text>
<line x1="558.0" y1="59.0" x2="572.0" y2="59.0" stroke="#ffd700" stroke-width="1.5" opacity="0.7"></line>
<text x="576.0" y="62.0" fill="#ffd700" font-size="5" text-anchor="start" font-family="monospace">IMSC</text>
<line x1="610.0" y1="59.0" x2="624.0" y2="59.0" stroke="#cc3344" stroke-width="1.5" opacity="0.7"></line>
<text x="628.0" y="62.0" fill="#cc3344" font-size="5" text-anchor="start" font-family="monospace">IFIX</text>
<text x="70.0" y="72.0" fill="#666" font-size="6" text-anchor="start" font-family="monospace" font-weight="bold">GUARD</text>
<circle cx="110.0" cy="79.0" r="3.0" fill="#f28e2b" stroke-width="0.8"></circle>
<text x="117.0" y="82.0" fill="#f28e2b" font-size="5" text-anchor="start" font-family="monospace">approach</text>
<circle cx="162.0" cy="79.0" r="3.0" fill="#59a14f" stroke-width="0.9"></circle>
<text x="169.0" y="82.0" fill="#59a14f" font-size="5" text-anchor="start" font-family="monospace">passed</text>
<text x="214.0" y="72.0" fill="#666" font-size="6" text-anchor="start" font-family="monospace" font-weight="bold">REG Δ</text>
<text x="252.0" y="82.0" fill="#20b888" font-size="5.5" text-anchor="start" font-family="monospace">→↑</text>
<text x="280.0" y="82.0" fill="#ffd700" font-size="5.5" text-anchor="start" font-family="monospace">↓→↑↓</text>
<text x="308.0" y="82.0" fill="#e15759" font-size="5.5" text-anchor="start" font-family="monospace">↑↔↓</text>
<line x1="344.0" y1="79.0" x2="358.0" y2="79.0" stroke="#ffd700" stroke-width="1.5" opacity="0.6" stroke-dasharray="5,3"></line>
<text x="362.0" y="82.0" fill="#ffd700" font-size="5.5" text-anchor="start" font-family="monospace">cross-br.</text>
<line x1="404.0" y1="79.0" x2="418.0" y2="79.0" stroke="#9988cc" stroke-width="1.5" opacity="0.5"></line>
<text x="422.0" y="82.0" fill="#9988cc" font-size="5.5" text-anchor="start" font-family="monospace">loop</text>
</svg>