<svg xmlns="http://www.w3.org/2000/svg" viewBox="0 0 1220 720">
<rect width="1220" height="720" fill="#000000"/>
<defs>
<pattern id="hatch-T" width="4" height="4" patternUnits="userSpaceOnUse"><path d="M2,0 L2,4" stroke="#ffffff" stroke-width="0.8"/></pattern>
<pattern id="hatch-F" width="4" height="4" patternUnits="userSpaceOnUse"><path d="M0,2 L4,2" stroke="#ffffff" stroke-width="0.8"/></pattern>
<pattern id="hatch-B" width="4" height="4" patternUnits="userSpaceOnUse"><path d="M2,0 L2,4 M0,2 L4,2" stroke="#ffffff" stroke-width="0.8"/></pattern>
</defs>
<line x1="0.0" y1="0.0" x2="0.0" y2="720.0" stroke="#333333" stroke-width="0.4" opacity="0.3"></line>
<line x1="40.0" y1="0.0" x2="40.0" y2="720.0" stroke="#333333" stroke-width="0.4" opacity="0.3"></line>
<line x1="80.0" y1="0.0" x2="80.0" y2="720.0" stroke="#333333" stroke-width="0.4" opacity="0.3"></line>
<line x1="120.0" y1="0.0" x2="120.0" y2="720.0" stroke="#333333" stroke-width="0.4" opacity="0.3"></line>
<line x1="160.0" y1="0.0" x2="160.0" y2="720.0" stroke="#333333" stroke-width="0.4" opacity="0.3"></line>
<line x1="200.0" y1="0.0" x2="200.0" y2="720.0" stroke="#333333" stroke-width="0.4" opacity="0.3"></line>
<line x1="240.0" y1="0.0" x2="240.0" y2="720.0" stroke="#333333" stroke-width="0.4" opacity="0.3"></line>
<line x1="280.0" y1="0.0" x2="280.0" y2="720.0" stroke="#333333" stroke-width="0.4" opacity="0.3"></line>
<line x1="320.0" y1="0.0" x2="320.0" y2="720.0" stroke="#333333" stroke-width="0.4" opacity="0.3"></line>
<line x1="360.0" y1="0.0" x2="360.0" y2="720.0" stroke="#333333" stroke-width="0.4" opacity="0.3"></line>
<line x1="400.0" y1="0.0" x2="400.0" y2="720.0" stroke="#333333" stroke-width="0.4" opacity="0.3"></line>
<line x1="440.0" y1="0.0" x2="440.0" y2="720.0" stroke="#333333" stroke-width="0.4" opacity="0.3"></line>
<line x1="480.0" y1="0.0" x2="480.0" y2="720.0" stroke="#333333" stroke-width="0.4" opacity="0.3"></line>
<line x1="520.0" y1="0.0" x2="520.0" y2="720.0" stroke="#333333" stroke-width="0.4" opacity="0.3"></line>
<line x1="560.0" y1="0.0" x2="560.0" y2="720.0" stroke="#333333" stroke-width="0.4" opacity="0.3"></line>
<line x1="600.0" y1="0.0" x2="600.0" y2="720.0" stroke="#333333" stroke-width="0.4" opacity="0.3"></line>
<line x1="640.0" y1="0.0" x2="640.0" y2="720.0" stroke="#333333" stroke-width="0.4" opacity="0.3"></line>
<line x1="680.0" y1="0.0" x2="680.0" y2="720.0" stroke="#333333" stroke-width="0.4" opacity="0.3"></line>
<line x1="720.0" y1="0.0" x2="720.0" y2="720.0" stroke="#333333" stroke-width="0.4" opacity="0.3"></line>
<line x1="760.0" y1="0.0" x2="760.0" y2="720.0" stroke="#333333" stroke-width="0.4" opacity="0.3"></line>
<line x1="800.0" y1="0.0" x2="800.0" y2="720.0" stroke="#333333" stroke-width="0.4" opacity="0.3"></line>
<line x1="840.0" y1="0.0" x2="840.0" y2="720.0" stroke="#333333" stroke-width="0.4" opacity="0.3"></line>
<line x1="880.0" y1="0.0" x2="880.0" y2="720.0" stroke="#333333" stroke-width="0.4" opacity="0.3"></line>
<line x1="920.0" y1="0.0" x2="920.0" y2="720.0" stroke="#333333" stroke-width="0.4" opacity="0.3"></line>
<line x1="960.0" y1="0.0" x2="960.0" y2="720.0" stroke="#333333" stroke-width="0.4" opacity="0.3"></line>
<line x1="1000.0" y1="0.0" x2="1000.0" y2="720.0" stroke="#333333" stroke-width="0.4" opacity="0.3"></line>
<line x1="1040.0" y1="0.0" x2="1040.0" y2="720.0" stroke="#333333" stroke-width="0.4" opacity="0.3"></line>
<line x1="1080.0" y1="0.0" x2="1080.0" y2="720.0" stroke="#333333" stroke-width="0.4" opacity="0.3"></line>
<line x1="1120.0" y1="0.0" x2="1120.0" y2="720.0" stroke="#333333" stroke-width="0.4" opacity="0.3"></line>
<line x1="1160.0" y1="0.0" x2="1160.0" y2="720.0" stroke="#333333" stroke-width="0.4" opacity="0.3"></line>
<line x1="1200.0" y1="0.0" x2="1200.0" y2="720.0" stroke="#333333" stroke-width="0.4" opacity="0.3"></line>
<line x1="0.0" y1="0.0" x2="1220.0" y2="0.0" stroke="#333333" stroke-width="0.4" opacity="0.3"></line>
<line x1="0.0" y1="40.0" x2="1220.0" y2="40.0" stroke="#333333" stroke-width="0.4" opacity="0.3"></line>
<line x1="0.0" y1="80.0" x2="1220.0" y2="80.0" stroke="#333333" stroke-width="0.4" opacity="0.3"></line>
<line x1="0.0" y1="120.0" x2="1220.0" y2="120.0" stroke="#333333" stroke-width="0.4" opacity="0.3"></line>
<line x1="0.0" y1="160.0" x2="1220.0" y2="160.0" stroke="#333333" stroke-width="0.4" opacity="0.3"></line>
<line x1="0.0" y1="200.0" x2="1220.0" y2="200.0" stroke="#333333" stroke-width="0.4" opacity="0.3"></line>
<line x1="0.0" y1="240.0" x2="1220.0" y2="240.0" stroke="#333333" stroke-width="0.4" opacity="0.3"></line>
<line x1="0.0" y1="280.0" x2="1220.0" y2="280.0" stroke="#333333" stroke-width="0.4" opacity="0.3"></line>
<line x1="0.0" y1="320.0" x2="1220.0" y2="320.0" stroke="#333333" stroke-width="0.4" opacity="0.3"></line>
<line x1="0.0" y1="360.0" x2="1220.0" y2="360.0" stroke="#333333" stroke-width="0.4" opacity="0.3"></line>
<line x1="0.0" y1="400.0" x2="1220.0" y2="400.0" stroke="#333333" stroke-width="0.4" opacity="0.3"></line>
<line x1="0.0" y1="440.0" x2="1220.0" y2="440.0" stroke="#333333" stroke-width="0.4" opacity="0.3"></line>
<line x1="0.0" y1="480.0" x2="1220.0" y2="480.0" stroke="#333333" stroke-width="0.4" opacity="0.3"></line>
<line x1="0.0" y1="520.0" x2="1220.0" y2="520.0" stroke="#333333" stroke-width="0.4" opacity="0.3"></line>
<line x1="0.0" y1="560.0" x2="1220.0" y2="560.0" stroke="#333333" stroke-width="0.4" opacity="0.3"></line>
<line x1="0.0" y1="600.0" x2="1220.0" y2="600.0" stroke="#333333" stroke-width="0.4" opacity="0.3"></line>
<line x1="0.0" y1="640.0" x2="1220.0" y2="640.0" stroke="#333333" stroke-width="0.4" opacity="0.3"></line>
<line x1="0.0" y1="680.0" x2="1220.0" y2="680.0" stroke="#333333" stroke-width="0.4" opacity="0.3"></line>
<text x="610.0" y="26.0" fill="#ffffff" font-size="13" text-anchor="middle" font-family="monospace" font-weight="bold">Retrosynthesis of Strychnine in 1954</text>
<text x="610.0" y="41.0" fill="#ffffff" font-size="7" text-anchor="middle" font-family="monospace">retrosynthetic analysis</text>
<text x="66.0" y="190.0" fill="#ffffff" font-size="7" text-anchor="start" font-family="monospace">T-lane</text>
<text x="66.0" y="135.0" fill="#ffffff" font-size="7" text-anchor="start" font-family="monospace">T[d1]</text>
<text x="66.0" y="80.0" fill="#ffffff" font-size="7" text-anchor="start" font-family="monospace">T[d2]</text>
<text x="66.0" y="470.0" fill="#ffffff" font-size="7" text-anchor="start" font-family="monospace">F-lane</text>
<text x="66.0" y="525.0" fill="#ffffff" font-size="7" text-anchor="start" font-family="monospace">F[d1]</text>
<text x="66.0" y="580.0" fill="#ffffff" font-size="7" text-anchor="start" font-family="monospace">F[d2]</text>
<text x="66.0" y="330.0" fill="#ffffff" font-size="7" text-anchor="start" font-family="monospace">main</text>
<line x1="491.0" y1="50.0" x2="491.0" y2="610.0" stroke="#ffffff" stroke-width="1.0" opacity="1.0" stroke-dasharray="4,3"></line>
<line x1="496.0" y1="50.0" x2="496.0" y2="610.0" stroke="#ffffff" stroke-width="1.0" opacity="1.0" stroke-dasharray="4,3"></line>
<text x="493.5" y="50.0" fill="#ffffff" font-size="8" text-anchor="middle" font-family="monospace">×</text>
<text x="493.5" y="610.0" fill="#ffffff" font-size="8" text-anchor="middle" font-family="monospace">×</text>
<text x="493.5" y="43.0" fill="#ffffff" font-size="6" text-anchor="middle" font-family="monospace">IFIX</text>
<line x1="550.0" y1="310.0" x2="550.0" y2="292.0" stroke="#ffffff" stroke-width="0.6" opacity="0.8" stroke-dasharray="3,3"></line>
<line x1="550.0" y1="292.0" x2="719.4" y2="292.0" stroke="#ffffff" stroke-width="0.6" opacity="0.8" stroke-dasharray="3,3"></line>
<line x1="719.4" y1="292.0" x2="719.4" y2="310.0" stroke="#ffffff" stroke-width="0.6" opacity="0.8" stroke-dasharray="3,3"></line>
<circle cx="634.7" cy="292.0" r="6" fill="#000000" stroke="#ffffff" stroke-width="0.8"></circle>
<text x="634.7" y="295.0" fill="#ffffff" font-size="7" text-anchor="middle" font-family="monospace">1</text>
<line x1="561.1" y1="305.4" x2="651.8" y2="104.6" stroke="#ffffff" stroke-width="1.0" opacity="1.0"></line>
<polygon points="651.8,104.6 651.4,113.2 645.6,110.6" fill="#ffffff"></polygon>
<circle cx="606.5" cy="205.0" r="5" fill="#000000" stroke="#ffffff" stroke-width="0.6"></circle>
<text x="606.5" y="208.0" fill="#ffffff" font-size="7" text-anchor="middle" font-family="monospace">◇</text>
<text x="606.5" y="197.0" fill="#ffffff" font-size="6" text-anchor="middle" font-family="monospace">↑↓→↑↓</text>
<line x1="668.9" y1="106.3" x2="713.5" y2="303.7" stroke="#ffffff" stroke-width="1.0" opacity="1.0"></line>
<polygon points="713.5,303.7 708.6,296.6 714.8,295.2" fill="#ffffff"></polygon>
<circle cx="691.2" cy="205.0" r="5" fill="#000000" stroke="#ffffff" stroke-width="0.6"></circle>
<text x="691.2" y="208.0" fill="#ffffff" font-size="7" text-anchor="middle" font-family="monospace">+</text>
<text x="691.2" y="197.0" fill="#ffffff" font-size="6" text-anchor="middle" font-family="monospace">↑↓→↑↓</text>
<line x1="555.9" y1="356.3" x2="600.5" y2="553.7" stroke="#ffffff" stroke-width="1.0" opacity="1.0"></line>
<polygon points="600.5,553.7 595.6,546.6 601.9,545.2" fill="#ffffff"></polygon>
<circle cx="578.2" cy="455.0" r="5" fill="#000000" stroke="#ffffff" stroke-width="0.6"></circle>
<text x="578.2" y="458.0" fill="#ffffff" font-size="7" text-anchor="middle" font-family="monospace">◇</text>
<text x="578.2" y="447.0" fill="#ffffff" font-size="6" text-anchor="middle" font-family="monospace">↑↓→↑↓</text>
<line x1="617.6" y1="555.4" x2="708.3" y2="354.6" stroke="#ffffff" stroke-width="1.0" opacity="1.0"></line>
<polygon points="708.3,354.6 707.9,363.2 702.1,360.6" fill="#ffffff"></polygon>
<circle cx="662.9" cy="455.0" r="5" fill="#000000" stroke="#ffffff" stroke-width="0.6"></circle>
<text x="662.9" y="458.0" fill="#ffffff" font-size="7" text-anchor="middle" font-family="monospace">×</text>
<text x="662.9" y="447.0" fill="#ffffff" font-size="6" text-anchor="middle" font-family="monospace">↑↓→↑↓</text>
<line x1="125.2" y1="330.0" x2="127.7" y2="330.0" stroke="#ffffff" stroke-width="2.0" opacity="1.0"></line>
<polyline points="127.7,330.0 119.7,333.2 119.7,326.8" fill="none" stroke="#ffffff" stroke-width="1.0"></polyline>
<text x="126.5" y="322.0" fill="#ffffff" font-size="6" text-anchor="middle" font-family="monospace">↑</text>
<line x1="181.7" y1="330.0" x2="184.2" y2="330.0" stroke="#ffffff" stroke-width="2.0" opacity="1.0"></line>
<polygon points="181.7,330.0 189.7,326.8 189.7,333.2" fill="#ffffff"></polygon>
<circle cx="182.9" cy="330.0" r="5" fill="#000000" stroke="#ffffff" stroke-width="0.6"></circle>
<text x="182.9" y="333.0" fill="#ffffff" font-size="7" text-anchor="middle" font-family="monospace">←</text>
<text x="182.9" y="322.0" fill="#ffffff" font-size="6" text-anchor="middle" font-family="monospace">↑→↑↓</text>
<line x1="238.2" y1="330.0" x2="240.6" y2="330.0" stroke="#ffffff" stroke-width="2.0" opacity="1.0" stroke-dasharray="6,4"></line>
<polygon points="240.6,330.0 232.6,333.2 232.6,326.8" fill="#ffffff"></polygon>
<text x="239.4" y="322.0" fill="#ffffff" font-size="6" text-anchor="middle" font-family="monospace">↑↓→↑↓</text>
<line x1="294.6" y1="330.0" x2="297.1" y2="330.0" stroke="#ffffff" stroke-width="1.5" opacity="1.0"></line>
<polygon points="297.1,330.0 289.1,333.2 289.1,326.8" fill="#ffffff"></polygon>
<circle cx="295.9" cy="330.0" r="5" fill="#000000" stroke="#ffffff" stroke-width="0.6"></circle>
<text x="295.9" y="333.0" fill="#ffffff" font-size="7" text-anchor="middle" font-family="monospace">◇</text>
<text x="295.9" y="322.0" fill="#ffffff" font-size="6" text-anchor="middle" font-family="monospace">↑↓→↑↓</text>
<line x1="351.1" y1="330.0" x2="353.6" y2="330.0" stroke="#ffffff" stroke-width="1.5" opacity="1.0"></line>
<polygon points="353.6,330.0 345.6,333.2 345.6,326.8" fill="#ffffff"></polygon>
<circle cx="352.4" cy="330.0" r="5" fill="#000000" stroke="#ffffff" stroke-width="0.6"></circle>
<text x="352.4" y="333.0" fill="#ffffff" font-size="7" text-anchor="middle" font-family="monospace">+</text>
<text x="352.4" y="322.0" fill="#ffffff" font-size="6" text-anchor="middle" font-family="monospace">↑↓→↑↓</text>
<line x1="407.6" y1="330.0" x2="410.1" y2="330.0" stroke="#ffffff" stroke-width="2.5" opacity="1.0"></line>
<polygon points="410.1,330.0 402.1,333.2 402.1,326.8" fill="#ffffff"></polygon>
<text x="408.8" y="322.0" fill="#ffffff" font-size="6" text-anchor="middle" font-family="monospace">↑↓→↑↓</text>
<line x1="464.1" y1="328.4" x2="466.5" y2="328.4" stroke="#ffffff" stroke-width="1.5" opacity="1.0"></line>
<line x1="464.1" y1="331.6" x2="466.5" y2="331.6" stroke="#ffffff" stroke-width="1.5" opacity="1.0"></line>
<polygon points="466.5,330.0 458.5,333.2 458.5,326.8" fill="#ffffff"></polygon>
<text x="465.3" y="322.0" fill="#ffffff" font-size="6" text-anchor="middle" font-family="monospace">↑↓→↑↓</text>
<line x1="520.5" y1="330.0" x2="523.0" y2="330.0" stroke="#ffffff" stroke-width="1.5" opacity="1.0" stroke-dasharray="2,2"></line>
<polygon points="523.0,330.0 515.0,333.2 515.0,326.8" fill="#ffffff"></polygon>
<text x="521.8" y="322.0" fill="#ffffff" font-size="6" text-anchor="middle" font-family="monospace">↑↓→↑↓</text>
<polyline points="802.9,334.0 805.4,330.0" fill="none" stroke="#ffffff" stroke-width="1.5"></polyline>
<polygon points="805.4,330.0 797.4,333.2 797.4,326.8" fill="#ffffff"></polygon>
<text x="804.1" y="322.0" fill="#ffffff" font-size="6" text-anchor="middle" font-family="monospace">↑↓→↑↓</text>
<line x1="859.4" y1="330.0" x2="861.8" y2="330.0" stroke="#ffffff" stroke-width="2.5" opacity="1.0"></line>
<polygon points="861.8,330.0 853.8,333.2 853.8,326.8" fill="#ffffff"></polygon>
<text x="860.6" y="322.0" fill="#ffffff" font-size="6" text-anchor="middle" font-family="monospace">↑↓→↑↓</text>
<line x1="915.8" y1="330.0" x2="918.3" y2="330.0" stroke="#ffffff" stroke-width="1.5" opacity="1.0"></line>
<polygon points="915.8,330.0 923.8,326.8 923.8,333.2" fill="#ffffff"></polygon>
<circle cx="917.1" cy="330.0" r="5" fill="#000000" stroke="#ffffff" stroke-width="0.6"></circle>
<text x="917.1" y="333.0" fill="#ffffff" font-size="7" text-anchor="middle" font-family="monospace">←</text>
<text x="917.1" y="322.0" fill="#ffffff" font-size="6" text-anchor="middle" font-family="monospace">↑↓→↑↓</text>
<line x1="972.3" y1="330.0" x2="974.8" y2="330.0" stroke="#ffffff" stroke-width="1.5" opacity="1.0" stroke-dasharray="2,2"></line>
<polygon points="974.8,330.0 966.8,333.2 966.8,326.8" fill="#ffffff"></polygon>
<text x="973.5" y="322.0" fill="#ffffff" font-size="6" text-anchor="middle" font-family="monospace">↑↓→↑↓</text>
<line x1="746.4" y1="330.0" x2="748.9" y2="330.0" stroke="#ffffff" stroke-width="1.0" opacity="1.0"></line>
<polygon points="748.9,330.0 740.9,333.2 740.9,326.8" fill="#ffffff"></polygon>
<circle cx="747.6" cy="330.0" r="5" fill="#000000" stroke="#ffffff" stroke-width="0.6"></circle>
<text x="747.6" y="333.0" fill="#ffffff" font-size="7" text-anchor="middle" font-family="monospace">●</text>
<text x="747.6" y="322.0" fill="#ffffff" font-size="6" text-anchor="middle" font-family="monospace">↑↓→↑↓</text>
<circle fill="none" stroke="#ffffff" stroke-width="1.3" cx="98.2" cy="330.0" r="20.0"></circle>
<circle cx="74.2" cy="330.0" r="2.5" fill="#000000" stroke="#ffffff" stroke-width="0.8"></circle>
<circle cx="122.2" cy="330.0" r="2.5" fill="#ffffff"></circle>
<text x="98.2" y="304.0" fill="#ffffff" font-size="9" text-anchor="middle" font-family="monospace" font-weight="bold">VI</text>
<text x="98.2" y="362.0" fill="#ffffff" font-size="5" text-anchor="middle" font-family="monospace">VINIT</text>
<circle fill="none" stroke="#ffffff" stroke-width="1.3" cx="154.7" cy="330.0" r="20.0"></circle>
<circle cx="154.7" cy="330.0" r="8" fill="url(#hatch-T)" stroke="#ffffff" stroke-width="0.6"></circle>
<circle cx="130.7" cy="330.0" r="2.5" fill="#000000" stroke="#ffffff" stroke-width="0.8"></circle>
<circle cx="178.7" cy="330.0" r="2.5" fill="#ffffff"></circle>
<text x="154.7" y="304.0" fill="#ffffff" font-size="9" text-anchor="middle" font-family="monospace" font-weight="bold">IM</text>
<text x="154.7" y="362.0" fill="#ffffff" font-size="5" text-anchor="middle" font-family="monospace">IMSCRIB</text>
<circle fill="none" stroke="#ffffff" stroke-width="1.3" cx="211.2" cy="330.0" r="20.0"></circle>
<circle cx="211.2" cy="330.0" r="8" fill="url(#hatch-B)" stroke="#ffffff" stroke-width="0.6"></circle>
<circle cx="187.2" cy="330.0" r="2.5" fill="#000000" stroke="#ffffff" stroke-width="0.8"></circle>
<circle cx="235.2" cy="330.0" r="2.5" fill="#ffffff"></circle>
<text x="211.2" y="304.0" fill="#ffffff" font-size="9" text-anchor="middle" font-family="monospace" font-weight="bold">AR</text>
<text x="211.2" y="362.0" fill="#ffffff" font-size="5" text-anchor="middle" font-family="monospace">AREV</text>
<polygon fill="none" stroke="#ffffff" stroke-width="1.3" points="267.6470588235294,310.0 287.6,330 267.6470588235294,350.0 247.6,330"></polygon>
<circle cx="267.6" cy="330.0" r="8" fill="url(#hatch-B)" stroke="#ffffff" stroke-width="0.6"></circle>
<circle cx="243.6" cy="330.0" r="2.5" fill="#000000" stroke="#ffffff" stroke-width="0.8"></circle>
<circle cx="291.6" cy="330.0" r="2.5" fill="#ffffff"></circle>
<text x="267.6" y="304.0" fill="#ffffff" font-size="9" text-anchor="middle" font-family="monospace" font-weight="bold">FS</text>
<text x="267.6" y="362.0" fill="#ffffff" font-size="5" text-anchor="middle" font-family="monospace">FSPLIT</text>
<polygon fill="none" stroke="#ffffff" stroke-width="1.3" points="341.4,340.0 324.1,350.0 306.8,340.0 306.8,320.0 324.1,310.0 341.4,320.0"></polygon>
<circle cx="324.1" cy="330.0" r="8" fill="url(#hatch-B)" stroke="#ffffff" stroke-width="0.6"></circle>
<circle cx="300.1" cy="330.0" r="2.5" fill="#000000" stroke="#ffffff" stroke-width="0.8"></circle>
<circle cx="348.1" cy="330.0" r="2.5" fill="#ffffff"></circle>
<text x="324.1" y="304.0" fill="#ffffff" font-size="9" text-anchor="middle" font-family="monospace" font-weight="bold">ET</text>
<text x="324.1" y="362.0" fill="#ffffff" font-size="5" text-anchor="middle" font-family="monospace">EVALT</text>
<circle fill="none" stroke="#ffffff" stroke-width="1.3" cx="380.6" cy="330.0" r="20.0"></circle>
<circle cx="380.6" cy="330.0" r="8" fill="url(#hatch-B)" stroke="#ffffff" stroke-width="0.6"></circle>
<circle cx="356.6" cy="330.0" r="2.5" fill="#000000" stroke="#ffffff" stroke-width="0.8"></circle>
<circle cx="404.6" cy="330.0" r="2.5" fill="#ffffff"></circle>
<text x="380.6" y="304.0" fill="#ffffff" font-size="9" text-anchor="middle" font-family="monospace" font-weight="bold">AF</text>
<text x="380.6" y="362.0" fill="#ffffff" font-size="5" text-anchor="middle" font-family="monospace">AFWD</text>
<circle fill="none" stroke="#ffffff" stroke-width="1.3" cx="437.1" cy="330.0" r="20.0"></circle>
<circle cx="437.1" cy="330.0" r="8" fill="url(#hatch-B)" stroke="#ffffff" stroke-width="0.6"></circle>
<circle cx="413.1" cy="330.0" r="2.5" fill="#000000" stroke="#ffffff" stroke-width="0.8"></circle>
<circle cx="461.1" cy="330.0" r="2.5" fill="#ffffff"></circle>
<text x="437.1" y="304.0" fill="#ffffff" font-size="9" text-anchor="middle" font-family="monospace" font-weight="bold">CL</text>
<text x="437.1" y="362.0" fill="#ffffff" font-size="5" text-anchor="middle" font-family="monospace">CLINK</text>
<rect fill="none" stroke="#ffffff" stroke-width="1.3" x="473.5" y="310.0" width="40.0" height="40.0"></rect>
<circle cx="493.5" cy="330.0" r="8" fill="url(#hatch-B)" stroke="#ffffff" stroke-width="0.6"></circle>
<circle cx="469.5" cy="330.0" r="2.5" fill="#000000" stroke="#ffffff" stroke-width="0.8"></circle>
<circle cx="517.5" cy="330.0" r="2.5" fill="#ffffff"></circle>
<text x="493.5" y="304.0" fill="#ffffff" font-size="9" text-anchor="middle" font-family="monospace" font-weight="bold">IX</text>
<text x="493.5" y="362.0" fill="#ffffff" font-size="5" text-anchor="middle" font-family="monospace">IFIX</text>
<polygon fill="none" stroke="#ffffff" stroke-width="1.3" points="550.0,310.0 570.0,330 550.0,350.0 530.0,330"></polygon>
<circle cx="550.0" cy="330.0" r="8" fill="url(#hatch-B)" stroke="#ffffff" stroke-width="0.6"></circle>
<circle cx="526.0" cy="330.0" r="2.5" fill="#000000" stroke="#ffffff" stroke-width="0.8"></circle>
<circle cx="574.0" cy="330.0" r="2.5" fill="#ffffff"></circle>
<text x="550.0" y="304.0" fill="#ffffff" font-size="9" text-anchor="middle" font-family="monospace" font-weight="bold">FS</text>
<text x="550.0" y="362.0" fill="#ffffff" font-size="5" text-anchor="middle" font-family="monospace">FSPLIT</text>
<polygon fill="none" stroke="#ffffff" stroke-width="1.3" points="623.8,590.0 606.5,600.0 589.2,590.0 589.2,570.0 606.5,560.0 623.8,570.0"></polygon>
<circle cx="606.5" cy="580.0" r="8" fill="url(#hatch-B)" stroke="#ffffff" stroke-width="0.6"></circle>
<circle cx="582.5" cy="580.0" r="2.5" fill="#000000" stroke="#ffffff" stroke-width="0.8"></circle>
<circle cx="630.5" cy="580.0" r="2.5" fill="#ffffff"></circle>
<text x="606.5" y="554.0" fill="#ffffff" font-size="9" text-anchor="middle" font-family="monospace" font-weight="bold">EF</text>
<text x="606.5" y="612.0" fill="#ffffff" font-size="5" text-anchor="middle" font-family="monospace">EVALF</text>
<polygon fill="none" stroke="#ffffff" stroke-width="1.3" points="680.3,90.0 662.9,100.0 645.6,90.0 645.6,70.0 662.9,60.0 680.3,70.0"></polygon>
<circle cx="662.9" cy="80.0" r="8" fill="url(#hatch-B)" stroke="#ffffff" stroke-width="0.6"></circle>
<circle cx="638.9" cy="80.0" r="2.5" fill="#000000" stroke="#ffffff" stroke-width="0.8"></circle>
<circle cx="686.9" cy="80.0" r="2.5" fill="#ffffff"></circle>
<text x="662.9" y="54.0" fill="#ffffff" font-size="9" text-anchor="middle" font-family="monospace" font-weight="bold">ET</text>
<text x="662.9" y="112.0" fill="#ffffff" font-size="5" text-anchor="middle" font-family="monospace">EVALT</text>
<polygon fill="none" stroke="#ffffff" stroke-width="1.3" points="719.4117647058823,310.0 739.4,330 719.4117647058823,350.0 699.4,330"></polygon>
<circle cx="719.4" cy="330.0" r="8" fill="url(#hatch-B)" stroke="#ffffff" stroke-width="0.6"></circle>
<circle cx="695.4" cy="330.0" r="2.5" fill="#000000" stroke="#ffffff" stroke-width="0.8"></circle>
<circle cx="743.4" cy="330.0" r="2.5" fill="#ffffff"></circle>
<text x="719.4" y="304.0" fill="#ffffff" font-size="9" text-anchor="middle" font-family="monospace" font-weight="bold">FF</text>
<text x="719.4" y="362.0" fill="#ffffff" font-size="5" text-anchor="middle" font-family="monospace">FFUSE</text>
<polygon fill="none" stroke="#ffffff" stroke-width="1.3" points="793.2,340.0 775.9,350.0 758.6,340.0 758.6,320.0 775.9,310.0 793.2,320.0"></polygon>
<circle cx="775.9" cy="330.0" r="8" fill="url(#hatch-B)" stroke="#ffffff" stroke-width="0.6"></circle>
<circle cx="751.9" cy="330.0" r="2.5" fill="#000000" stroke="#ffffff" stroke-width="0.8"></circle>
<circle cx="799.9" cy="330.0" r="2.5" fill="#ffffff"></circle>
<text x="775.9" y="304.0" fill="#ffffff" font-size="9" text-anchor="middle" font-family="monospace" font-weight="bold">EG</text>
<text x="775.9" y="362.0" fill="#ffffff" font-size="5" text-anchor="middle" font-family="monospace">ENGAGR</text>
<circle fill="none" stroke="#ffffff" stroke-width="1.3" cx="832.4" cy="330.0" r="20.0"></circle>
<circle cx="832.4" cy="330.0" r="8" fill="url(#hatch-B)" stroke="#ffffff" stroke-width="0.6"></circle>
<circle cx="808.4" cy="330.0" r="2.5" fill="#000000" stroke="#ffffff" stroke-width="0.8"></circle>
<circle cx="856.4" cy="330.0" r="2.5" fill="#ffffff"></circle>
<text x="832.4" y="304.0" fill="#ffffff" font-size="9" text-anchor="middle" font-family="monospace" font-weight="bold">AF</text>
<text x="832.4" y="362.0" fill="#ffffff" font-size="5" text-anchor="middle" font-family="monospace">AFWD</text>
<circle fill="none" stroke="#ffffff" stroke-width="1.3" cx="888.8" cy="330.0" r="20.0"></circle>
<circle cx="888.8" cy="330.0" r="8" fill="url(#hatch-B)" stroke="#ffffff" stroke-width="0.6"></circle>
<circle cx="864.8" cy="330.0" r="2.5" fill="#000000" stroke="#ffffff" stroke-width="0.8"></circle>
<circle cx="912.8" cy="330.0" r="2.5" fill="#ffffff"></circle>
<text x="888.8" y="304.0" fill="#ffffff" font-size="9" text-anchor="middle" font-family="monospace" font-weight="bold">IM</text>
<text x="888.8" y="362.0" fill="#ffffff" font-size="5" text-anchor="middle" font-family="monospace">IMSCRIB</text>
<rect fill="none" stroke="#ffffff" stroke-width="1.3" x="925.3" y="310.0" width="40.0" height="40.0"></rect>
<circle cx="945.3" cy="330.0" r="8" fill="url(#hatch-B)" stroke="#ffffff" stroke-width="0.6"></circle>
<circle cx="921.3" cy="330.0" r="2.5" fill="#000000" stroke="#ffffff" stroke-width="0.8"></circle>
<circle cx="969.3" cy="330.0" r="2.5" fill="#ffffff"></circle>
<text x="945.3" y="304.0" fill="#ffffff" font-size="9" text-anchor="middle" font-family="monospace" font-weight="bold">IX</text>
<text x="945.3" y="362.0" fill="#ffffff" font-size="5" text-anchor="middle" font-family="monospace">IFIX</text>
<circle fill="none" stroke="#ffffff" stroke-width="1.3" cx="1001.8" cy="330.0" r="20.0"></circle>
<circle cx="1001.8" cy="330.0" r="8" fill="url(#hatch-B)" stroke="#ffffff" stroke-width="0.6"></circle>
<circle cx="977.8" cy="330.0" r="2.5" fill="#000000" stroke="#ffffff" stroke-width="0.8"></circle>
<circle cx="1025.8" cy="330.0" r="2.5" fill="#ffffff"></circle>
<text x="1001.8" y="304.0" fill="#ffffff" font-size="9" text-anchor="middle" font-family="monospace" font-weight="bold">TA</text>
<text x="1001.8" y="362.0" fill="#ffffff" font-size="5" text-anchor="middle" font-family="monospace">TANCH</text>
<text x="14.0" y="72.0" fill="#ffffff" font-size="6" text-anchor="start" font-family="monospace" font-weight="bold">EDGES</text>
<line x1="14.0" y1="82.0" x2="36.0" y2="82.0" stroke="#ffffff" stroke-width="1.5" opacity="0.7"></line>
<text x="42.0" y="84.0" fill="#ffffff" font-size="5" text-anchor="start" font-family="monospace">VI</text>
<line x1="14.0" y1="91.5" x2="36.0" y2="91.5" stroke="#ffffff" stroke-width="1.5" opacity="0.7" stroke-dasharray="5,2,1,2,1,2"></line>
<text x="42.0" y="93.5" fill="#ffffff" font-size="5" text-anchor="start" font-family="monospace">TA</text>
<line x1="14.0" y1="101.0" x2="36.0" y2="101.0" stroke="#ffffff" stroke-width="2.0" opacity="0.7"></line>
<text x="42.0" y="103.0" fill="#ffffff" font-size="5" text-anchor="start" font-family="monospace">AF</text>
<line x1="14.0" y1="110.5" x2="36.0" y2="110.5" stroke="#ffffff" stroke-width="1.5" opacity="0.7" stroke-dasharray="6,4"></line>
<text x="42.0" y="112.5" fill="#ffffff" font-size="5" text-anchor="start" font-family="monospace">AR</text>
<line x1="14.0" y1="119.0" x2="36.0" y2="119.0" stroke="#ffffff" stroke-width="1.0" opacity="0.7"></line>
<line x1="14.0" y1="121.0" x2="36.0" y2="121.0" stroke="#ffffff" stroke-width="1.0" opacity="0.7"></line>
<text x="42.0" y="122.0" fill="#ffffff" font-size="5" text-anchor="start" font-family="monospace">CL</text>
<line x1="14.0" y1="129.5" x2="36.0" y2="129.5" stroke="#ffffff" stroke-width="1.5" opacity="0.7"></line>
<text x="42.0" y="131.5" fill="#ffffff" font-size="5" text-anchor="start" font-family="monospace">IM</text>
<line x1="14.0" y1="139.0" x2="36.0" y2="139.0" stroke="#ffffff" stroke-width="1.5" opacity="0.7"></line>
<text x="42.0" y="141.0" fill="#ffffff" font-size="5" text-anchor="start" font-family="monospace">FS</text>
<line x1="14.0" y1="148.5" x2="36.0" y2="148.5" stroke="#ffffff" stroke-width="1.5" opacity="0.7"></line>
<text x="42.0" y="150.5" fill="#ffffff" font-size="5" text-anchor="start" font-family="monospace">FF</text>
<line x1="14.0" y1="158.0" x2="36.0" y2="158.0" stroke="#ffffff" stroke-width="1.5" opacity="0.7"></line>
<text x="42.0" y="160.0" fill="#ffffff" font-size="5" text-anchor="start" font-family="monospace">ET</text>
<line x1="14.0" y1="167.5" x2="36.0" y2="167.5" stroke="#ffffff" stroke-width="1.5" opacity="0.7"></line>
<text x="42.0" y="169.5" fill="#ffffff" font-size="5" text-anchor="start" font-family="monospace">EF</text>
<polyline points="14.0,179.0 18.0,175.0 22.0,179.0 26.0,175.0 30.0,179.0 34.0,175.0 36.0,177.0" fill="none" stroke="#ffffff" stroke-width="1.0"></polyline>
<text x="42.0" y="179.0" fill="#ffffff" font-size="5" text-anchor="start" font-family="monospace">EG</text>
<line x1="14.0" y1="186.5" x2="36.0" y2="186.5" stroke="#ffffff" stroke-width="1.5" opacity="0.7" stroke-dasharray="2,2"></line>
<text x="42.0" y="188.5" fill="#ffffff" font-size="5" text-anchor="start" font-family="monospace">IX</text>
<text x="14.0" y="195.0" fill="#ffffff" font-size="6" text-anchor="start" font-family="monospace" font-weight="bold">GUARD</text>
<circle cx="17" cy="206" r="2.5" fill="#000000" stroke="#ffffff" stroke-width="0.8"></circle>
<text x="24.0" y="208.0" fill="#ffffff" font-size="5" text-anchor="start" font-family="monospace">in</text>
<circle cx="17" cy="216" r="2.5" fill="#ffffff"></circle>
<text x="24.0" y="218.0" fill="#ffffff" font-size="5" text-anchor="start" font-family="monospace">out</text>
<text x="14.0" y="231.0" fill="#ffffff" font-size="6" text-anchor="start" font-family="monospace" font-weight="bold">NODES</text>
<circle fill="none" stroke="#ffffff" stroke-width="1.0" cx="18.0" cy="246.0" r="4.0"></circle>
<text x="28.0" y="248.0" fill="#ffffff" font-size="5" text-anchor="start" font-family="monospace">LOGI</text>
<polygon fill="none" stroke="#ffffff" stroke-width="1.0" points="18,254.0 22.0,258 18,262.0 14.0,258"></polygon>
<text x="28.0" y="260.0" fill="#ffffff" font-size="5" text-anchor="start" font-family="monospace">FROB</text>
<polygon fill="none" stroke="#ffffff" stroke-width="1.0" points="21.5,272.0 18.0,274.0 14.5,272.0 14.5,268.0 18.0,266.0 21.5,268.0"></polygon>
<text x="28.0" y="272.0" fill="#ffffff" font-size="5" text-anchor="start" font-family="monospace">DIAL</text>
<rect fill="none" stroke="#ffffff" stroke-width="1.0" x="14.0" y="278.0" width="8.0" height="8.0"></rect>
<text x="28.0" y="284.0" fill="#ffffff" font-size="5" text-anchor="start" font-family="monospace">LINE</text>
<text x="14.0" y="294.0" fill="#ffffff" font-size="6" text-anchor="start" font-family="monospace" font-weight="bold">PAIRS</text>
<circle cx="18" cy="306" r="5" fill="#000000" stroke="#ffffff" stroke-width="0.8"></circle>
<text x="18.0" y="309.0" fill="#ffffff" font-size="6" text-anchor="middle" font-family="monospace">1</text>
<text x="28.0" y="308.0" fill="#ffffff" font-size="5" text-anchor="start" font-family="monospace">pair</text>
<text x="14.0" y="324.0" fill="#ffffff" font-size="6" text-anchor="start" font-family="monospace" font-weight="bold">REG Δ</text>
<text x="14.0" y="336.0" fill="#ffffff" font-size="5" text-anchor="start" font-family="monospace">↑ T</text>
<text x="14.0" y="345.0" fill="#ffffff" font-size="5" text-anchor="start" font-family="monospace">↓ F</text>
<text x="14.0" y="354.0" fill="#ffffff" font-size="5" text-anchor="start" font-family="monospace">↑↓ B</text>
<text x="610.0" y="708.0" fill="#ffffff" font-size="7" text-anchor="middle" font-family="monospace">Ouroboricity: O₁</text>
<path d="M 181.7,330.0 L 181.7,10.0 L 974.8,10.0 L 974.8,330.0" fill="none" stroke="#ffffff" stroke-width="1.2"></path>
<polygon points="974.8,330.0 971.6,322.0 978.0,322.0" fill="#ffffff"></polygon>
<text x="578.2" y="12.0" fill="#ffffff" font-size="7" text-anchor="middle" font-family="monospace">O₁</text>
</svg>