<svg xmlns="http://www.w3.org/2000/svg" viewBox="0 0 1100 630">
<rect width="1100" height="630" fill="#0a0a15"/>
<line x1="0.0" y1="0.0" x2="0.0" y2="630.0" stroke="#151525" stroke-width="0.4" opacity="0.25"></line>
<line x1="40.0" y1="0.0" x2="40.0" y2="630.0" stroke="#151525" stroke-width="0.4" opacity="0.25"></line>
<line x1="80.0" y1="0.0" x2="80.0" y2="630.0" stroke="#151525" stroke-width="0.4" opacity="0.25"></line>
<line x1="120.0" y1="0.0" x2="120.0" y2="630.0" stroke="#151525" stroke-width="0.4" opacity="0.25"></line>
<line x1="160.0" y1="0.0" x2="160.0" y2="630.0" stroke="#151525" stroke-width="0.4" opacity="0.25"></line>
<line x1="200.0" y1="0.0" x2="200.0" y2="630.0" stroke="#151525" stroke-width="0.4" opacity="0.25"></line>
<line x1="240.0" y1="0.0" x2="240.0" y2="630.0" stroke="#151525" stroke-width="0.4" opacity="0.25"></line>
<line x1="280.0" y1="0.0" x2="280.0" y2="630.0" stroke="#151525" stroke-width="0.4" opacity="0.25"></line>
<line x1="320.0" y1="0.0" x2="320.0" y2="630.0" stroke="#151525" stroke-width="0.4" opacity="0.25"></line>
<line x1="360.0" y1="0.0" x2="360.0" y2="630.0" stroke="#151525" stroke-width="0.4" opacity="0.25"></line>
<line x1="400.0" y1="0.0" x2="400.0" y2="630.0" stroke="#151525" stroke-width="0.4" opacity="0.25"></line>
<line x1="440.0" y1="0.0" x2="440.0" y2="630.0" stroke="#151525" stroke-width="0.4" opacity="0.25"></line>
<line x1="480.0" y1="0.0" x2="480.0" y2="630.0" stroke="#151525" stroke-width="0.4" opacity="0.25"></line>
<line x1="520.0" y1="0.0" x2="520.0" y2="630.0" stroke="#151525" stroke-width="0.4" opacity="0.25"></line>
<line x1="560.0" y1="0.0" x2="560.0" y2="630.0" stroke="#151525" stroke-width="0.4" opacity="0.25"></line>
<line x1="600.0" y1="0.0" x2="600.0" y2="630.0" stroke="#151525" stroke-width="0.4" opacity="0.25"></line>
<line x1="640.0" y1="0.0" x2="640.0" y2="630.0" stroke="#151525" stroke-width="0.4" opacity="0.25"></line>
<line x1="680.0" y1="0.0" x2="680.0" y2="630.0" stroke="#151525" stroke-width="0.4" opacity="0.25"></line>
<line x1="720.0" y1="0.0" x2="720.0" y2="630.0" stroke="#151525" stroke-width="0.4" opacity="0.25"></line>
<line x1="760.0" y1="0.0" x2="760.0" y2="630.0" stroke="#151525" stroke-width="0.4" opacity="0.25"></line>
<line x1="800.0" y1="0.0" x2="800.0" y2="630.0" stroke="#151525" stroke-width="0.4" opacity="0.25"></line>
<line x1="840.0" y1="0.0" x2="840.0" y2="630.0" stroke="#151525" stroke-width="0.4" opacity="0.25"></line>
<line x1="880.0" y1="0.0" x2="880.0" y2="630.0" stroke="#151525" stroke-width="0.4" opacity="0.25"></line>
<line x1="920.0" y1="0.0" x2="920.0" y2="630.0" stroke="#151525" stroke-width="0.4" opacity="0.25"></line>
<line x1="960.0" y1="0.0" x2="960.0" y2="630.0" stroke="#151525" stroke-width="0.4" opacity="0.25"></line>
<line x1="1000.0" y1="0.0" x2="1000.0" y2="630.0" stroke="#151525" stroke-width="0.4" opacity="0.25"></line>
<line x1="1040.0" y1="0.0" x2="1040.0" y2="630.0" stroke="#151525" stroke-width="0.4" opacity="0.25"></line>
<line x1="1080.0" y1="0.0" x2="1080.0" y2="630.0" stroke="#151525" stroke-width="0.4" opacity="0.25"></line>
<line x1="0.0" y1="0.0" x2="1100.0" y2="0.0" stroke="#151525" stroke-width="0.4" opacity="0.25"></line>
<line x1="0.0" y1="40.0" x2="1100.0" y2="40.0" stroke="#151525" stroke-width="0.4" opacity="0.25"></line>
<line x1="0.0" y1="80.0" x2="1100.0" y2="80.0" stroke="#151525" stroke-width="0.4" opacity="0.25"></line>
<line x1="0.0" y1="120.0" x2="1100.0" y2="120.0" stroke="#151525" stroke-width="0.4" opacity="0.25"></line>
<line x1="0.0" y1="160.0" x2="1100.0" y2="160.0" stroke="#151525" stroke-width="0.4" opacity="0.25"></line>
<line x1="0.0" y1="200.0" x2="1100.0" y2="200.0" stroke="#151525" stroke-width="0.4" opacity="0.25"></line>
<line x1="0.0" y1="240.0" x2="1100.0" y2="240.0" stroke="#151525" stroke-width="0.4" opacity="0.25"></line>
<line x1="0.0" y1="280.0" x2="1100.0" y2="280.0" stroke="#151525" stroke-width="0.4" opacity="0.25"></line>
<line x1="0.0" y1="320.0" x2="1100.0" y2="320.0" stroke="#151525" stroke-width="0.4" opacity="0.25"></line>
<line x1="0.0" y1="360.0" x2="1100.0" y2="360.0" stroke="#151525" stroke-width="0.4" opacity="0.25"></line>
<line x1="0.0" y1="400.0" x2="1100.0" y2="400.0" stroke="#151525" stroke-width="0.4" opacity="0.25"></line>
<line x1="0.0" y1="440.0" x2="1100.0" y2="440.0" stroke="#151525" stroke-width="0.4" opacity="0.25"></line>
<line x1="0.0" y1="480.0" x2="1100.0" y2="480.0" stroke="#151525" stroke-width="0.4" opacity="0.25"></line>
<line x1="0.0" y1="520.0" x2="1100.0" y2="520.0" stroke="#151525" stroke-width="0.4" opacity="0.25"></line>
<line x1="0.0" y1="560.0" x2="1100.0" y2="560.0" stroke="#151525" stroke-width="0.4" opacity="0.25"></line>
<line x1="0.0" y1="600.0" x2="1100.0" y2="600.0" stroke="#151525" stroke-width="0.4" opacity="0.25"></line>
<text x="550.0" y="26.0" fill="#cccccc" font-size="13" text-anchor="middle" font-family="monospace" font-weight="bold">serotinous cone mechanism</text>
<text x="22.0" y="190.0" fill="#20c0b0" font-size="7" text-anchor="middle" font-family="monospace">T-lane</text>
<text x="22.0" y="470.0" fill="#e04060" font-size="7" text-anchor="middle" font-family="monospace">F-lane</text>
<text x="22.0" y="330.0" fill="#555" font-size="7" text-anchor="middle" font-family="monospace">main</text>
<line x1="498.6" y1="145.0" x2="498.6" y2="515.0" stroke="#cc3344" stroke-width="1.8" opacity="0.4" stroke-dasharray="6,4"></line>
<text x="498.6" y="135.0" fill="#cc3344" font-size="7" text-anchor="middle" font-family="monospace" font-weight="bold">IFIX</text>
<polygon points="498.5714285714286,141.0 502.6,145 498.5714285714286,149.0 494.6,145" fill="#cc3344" opacity="0.6"></polygon>
<polygon points="498.5714285714286,511.0 502.6,515 498.5714285714286,519.0 494.6,515" fill="#cc3344" opacity="0.6"></polygon>
<line x1="292.9" y1="330.0" x2="310.9" y2="330.0" stroke="#5b9bd5" stroke-width="1.4" opacity="0.55"></line>
<line x1="310.9" y1="330.0" x2="310.9" y2="190.0" stroke="#5b9bd5" stroke-width="1.4" opacity="0.55"></line>
<line x1="310.9" y1="190.0" x2="313.4" y2="190.0" stroke="#5b9bd5" stroke-width="1.4" opacity="0.55"></line>
<polygon points="321.4,190.0 313.4,193.2 313.4,186.8" fill="#5b9bd5" opacity="0.55"></polygon>
<rect x="297.1" y="248.0" width="20.0" height="10" fill="#0a0a15" opacity="0.7" rx="3"></rect>
<text x="307.1" y="256.0" fill="#666688" font-size="6" text-anchor="middle" font-family="monospace">↑↓→↑↓</text>
<line x1="321.4" y1="190.0" x2="347.7" y2="190.0" stroke="#20d0b8" stroke-width="1.3" opacity="0.55"></line>
<polygon points="355.7,190.0 347.7,193.2 347.7,186.8" fill="#20d0b8" opacity="0.55"></polygon>
<rect x="328.6" y="178.0" width="20.0" height="10" fill="#0a0a15" opacity="0.7" rx="3"></rect>
<text x="338.6" y="186.0" fill="#666688" font-size="6" text-anchor="middle" font-family="monospace">↑↓→↑↓</text>
<line x1="355.7" y1="190.0" x2="382.0" y2="190.0" stroke="#59a14f" stroke-width="1.3" opacity="0.55"></line>
<polygon points="390.0,190.0 382.0,193.2 382.0,186.8" fill="#59a14f" opacity="0.55"></polygon>
<rect x="362.9" y="178.0" width="20.0" height="10" fill="#0a0a15" opacity="0.7" rx="3"></rect>
<text x="372.9" y="186.0" fill="#666688" font-size="6" text-anchor="middle" font-family="monospace">↑↓→↑↓</text>
<line x1="390.0" y1="187.0" x2="424.0" y2="187.0" stroke="#f28e2b" stroke-width="1.0" opacity="0.55"></line>
<line x1="390.0" y1="193.0" x2="424.0" y2="193.0" stroke="#f28e2b" stroke-width="1.0" opacity="0.55"></line>
<line x1="427.0" y1="190.0" x2="427.0" y2="330.0" stroke="#f28e2b" stroke-width="1.0" opacity="0.55"></line>
<line x1="421.0" y1="190.0" x2="421.0" y2="330.0" stroke="#f28e2b" stroke-width="1.0" opacity="0.55"></line>
<line x1="424.0" y1="326.5" x2="421.0" y2="326.5" stroke="#f28e2b" stroke-width="1.0" opacity="0.55"></line>
<line x1="424.0" y1="333.5" x2="421.0" y2="333.5" stroke="#f28e2b" stroke-width="1.0" opacity="0.55"></line>
<polygon points="430.0,330.0 420.0,334.0 420.0,326.0" fill="#f28e2b" opacity="0.55"></polygon>
<rect x="402.0" y="248.0" width="16.0" height="10" fill="#0a0a15" opacity="0.7" rx="3"></rect>
<text x="410.0" y="256.0" fill="#ffd700" font-size="6" text-anchor="middle" font-family="monospace">↑↓→↑</text>
<line x1="292.9" y1="330.0" x2="318.9" y2="330.0" stroke="#2b6b9f" stroke-width="1.4" opacity="0.55"></line>
<line x1="318.9" y1="330.0" x2="318.9" y2="470.0" stroke="#2b6b9f" stroke-width="1.4" opacity="0.55"></line>
<line x1="318.9" y1="470.0" x2="324.9" y2="470.0" stroke="#2b6b9f" stroke-width="1.4" opacity="0.55"></line>
<polygon points="332.9,470.0 324.9,473.2 324.9,466.8" fill="#2b6b9f" opacity="0.55"></polygon>
<rect x="302.9" y="388.0" width="20.0" height="10" fill="#0a0a15" opacity="0.7" rx="3"></rect>
<text x="312.9" y="396.0" fill="#666688" font-size="6" text-anchor="middle" font-family="monospace">↑↓→↑↓</text>
<line x1="332.9" y1="470.0" x2="359.1" y2="470.0" stroke="#ff6688" stroke-width="1.3" opacity="0.55"></line>
<polygon points="367.1,470.0 359.1,473.2 359.1,466.8" fill="#ff6688" opacity="0.55"></polygon>
<rect x="340.0" y="458.0" width="20.0" height="10" fill="#0a0a15" opacity="0.7" rx="3"></rect>
<text x="350.0" y="466.0" fill="#666688" font-size="6" text-anchor="middle" font-family="monospace">↑↓→↑↓</text>
<line x1="367.1" y1="470.0" x2="393.4" y2="470.0" stroke="#e15759" stroke-width="1.3" opacity="0.55"></line>
<polygon points="401.4,470.0 393.4,473.2 393.4,466.8" fill="#e15759" opacity="0.55"></polygon>
<rect x="374.3" y="458.0" width="20.0" height="10" fill="#0a0a15" opacity="0.7" rx="3"></rect>
<text x="384.3" y="466.0" fill="#666688" font-size="6" text-anchor="middle" font-family="monospace">↑↓→↑↓</text>
<line x1="401.4" y1="467.0" x2="419.4" y2="467.0" stroke="#f28e2b" stroke-width="1.0" opacity="0.55"></line>
<line x1="401.4" y1="473.0" x2="419.4" y2="473.0" stroke="#f28e2b" stroke-width="1.0" opacity="0.55"></line>
<line x1="416.4" y1="470.0" x2="416.4" y2="330.0" stroke="#f28e2b" stroke-width="1.0" opacity="0.55"></line>
<line x1="422.4" y1="470.0" x2="422.4" y2="330.0" stroke="#f28e2b" stroke-width="1.0" opacity="0.55"></line>
<line x1="419.4" y1="326.5" x2="421.0" y2="326.5" stroke="#f28e2b" stroke-width="1.0" opacity="0.55"></line>
<line x1="419.4" y1="333.5" x2="421.0" y2="333.5" stroke="#f28e2b" stroke-width="1.0" opacity="0.55"></line>
<polygon points="430.0,330.0 420.0,334.0 420.0,326.0" fill="#f28e2b" opacity="0.55"></polygon>
<rect x="407.7" y="388.0" width="16.0" height="10" fill="#0a0a15" opacity="0.7" rx="3"></rect>
<text x="415.7" y="396.0" fill="#ffd700" font-size="6" text-anchor="middle" font-family="monospace">↑↓→↑</text>
<line x1="87.1" y1="330.0" x2="113.4" y2="330.0" stroke="#6baed6" stroke-width="1.3" opacity="0.75"></line>
<polygon points="121.4,330.0 113.4,333.2 113.4,326.8" fill="#6baed6" opacity="0.75"></polygon>
<line x1="121.4" y1="330.0" x2="147.7" y2="330.0" stroke="#b07aa1" stroke-width="1.3" opacity="0.75" stroke-dasharray="4,3"></line>
<polygon points="155.7,330.0 147.7,333.2 147.7,326.8" fill="#b07aa1" opacity="0.75"></polygon>
<rect x="136.6" y="318.0" width="4.0" height="10" fill="#0a0a15" opacity="0.7" rx="3"></rect>
<text x="138.6" y="326.0" fill="#20b888" font-size="6" text-anchor="middle" font-family="monospace">↑</text>
<line x1="155.7" y1="330.0" x2="182.0" y2="330.0" stroke="#59a14f" stroke-width="1.3" opacity="0.75"></line>
<polygon points="190.0,330.0 182.0,333.2 182.0,326.8" fill="#59a14f" opacity="0.75"></polygon>
<rect x="164.9" y="318.0" width="16.0" height="10" fill="#0a0a15" opacity="0.7" rx="3"></rect>
<text x="172.9" y="326.0" fill="#ffd700" font-size="6" text-anchor="middle" font-family="monospace">↑→↑↓</text>
<line x1="190.0" y1="330.0" x2="216.3" y2="330.0" stroke="#e15759" stroke-width="1.3" opacity="0.75"></line>
<polygon points="224.3,330.0 216.3,333.2 216.3,326.8" fill="#e15759" opacity="0.75"></polygon>
<rect x="197.1" y="318.0" width="20.0" height="10" fill="#0a0a15" opacity="0.7" rx="3"></rect>
<text x="207.1" y="326.0" fill="#666688" font-size="6" text-anchor="middle" font-family="monospace">↑↓→↑↓</text>
<line x1="224.3" y1="326.5" x2="249.6" y2="326.5" stroke="#f28e2b" stroke-width="1.0" opacity="0.75"></line>
<line x1="224.3" y1="333.5" x2="249.6" y2="333.5" stroke="#f28e2b" stroke-width="1.0" opacity="0.75"></line>
<polygon points="258.6,330.0 248.6,334.0 248.6,326.0" fill="#f28e2b" opacity="0.75"></polygon>
<rect x="231.4" y="318.0" width="20.0" height="10" fill="#0a0a15" opacity="0.7" rx="3"></rect>
<text x="241.4" y="326.0" fill="#666688" font-size="6" text-anchor="middle" font-family="monospace">↑↓→↑↓</text>
<line x1="258.6" y1="330.0" x2="284.9" y2="330.0" stroke="#ffd700" stroke-width="1.3" opacity="0.75"></line>
<polygon points="292.9,330.0 284.9,333.2 284.9,326.8" fill="#ffd700" opacity="0.75"></polygon>
<rect x="265.7" y="318.0" width="20.0" height="10" fill="#0a0a15" opacity="0.7" rx="3"></rect>
<text x="275.7" y="326.0" fill="#666688" font-size="6" text-anchor="middle" font-family="monospace">↑↓→↑↓</text>
<line x1="464.3" y1="330.0" x2="490.6" y2="330.0" stroke="#e15759" stroke-width="1.3" opacity="0.75"></line>
<polygon points="498.6,330.0 490.6,333.2 490.6,326.8" fill="#e15759" opacity="0.75"></polygon>
<line x1="498.6" y1="330.0" x2="524.9" y2="330.0" stroke="#cc3344" stroke-width="1.3" opacity="0.75"></line>
<polygon points="532.9,330.0 524.9,333.2 524.9,326.8" fill="#cc3344" opacity="0.75"></polygon>
<line x1="532.9" y1="326.5" x2="558.1" y2="326.5" stroke="#f28e2b" stroke-width="1.0" opacity="0.75"></line>
<line x1="532.9" y1="333.5" x2="558.1" y2="333.5" stroke="#f28e2b" stroke-width="1.0" opacity="0.75"></line>
<polygon points="567.1,330.0 557.1,334.0 557.1,326.0" fill="#f28e2b" opacity="0.75"></polygon>
<line x1="567.1" y1="330.0" x2="593.4" y2="330.0" stroke="#59a14f" stroke-width="1.3" opacity="0.75"></line>
<polygon points="601.4,330.0 593.4,333.2 593.4,326.8" fill="#59a14f" opacity="0.75"></polygon>
<line x1="601.4" y1="330.0" x2="627.7" y2="330.0" stroke="#e15759" stroke-width="1.3" opacity="0.75"></line>
<polygon points="635.7,330.0 627.7,333.2 627.7,326.8" fill="#e15759" opacity="0.75"></polygon>
<line x1="635.7" y1="326.5" x2="661.0" y2="326.5" stroke="#f28e2b" stroke-width="1.0" opacity="0.75"></line>
<line x1="635.7" y1="333.5" x2="661.0" y2="333.5" stroke="#f28e2b" stroke-width="1.0" opacity="0.75"></line>
<polygon points="670.0,330.0 660.0,334.0 660.0,326.0" fill="#f28e2b" opacity="0.75"></polygon>
<line x1="670.0" y1="330.0" x2="696.3" y2="330.0" stroke="#ffd700" stroke-width="1.3" opacity="0.75"></line>
<polygon points="704.3,330.0 696.3,333.2 696.3,326.8" fill="#ffd700" opacity="0.75"></polygon>
<line x1="704.3" y1="330.0" x2="730.6" y2="330.0" stroke="#cc3344" stroke-width="1.3" opacity="0.75"></line>
<polygon points="738.6,330.0 730.6,333.2 730.6,326.8" fill="#cc3344" opacity="0.75"></polygon>
<line x1="738.6" y1="330.0" x2="764.9" y2="330.0" stroke="#b07aa1" stroke-width="1.3" opacity="0.75" stroke-dasharray="4,3"></line>
<polygon points="772.9,330.0 764.9,333.2 764.9,326.8" fill="#b07aa1" opacity="0.75"></polygon>
<line x1="772.9" y1="326.5" x2="798.1" y2="326.5" stroke="#f28e2b" stroke-width="1.0" opacity="0.75"></line>
<line x1="772.9" y1="333.5" x2="798.1" y2="333.5" stroke="#f28e2b" stroke-width="1.0" opacity="0.75"></line>
<polygon points="807.1,330.0 797.1,334.0 797.1,326.0" fill="#f28e2b" opacity="0.75"></polygon>
<line x1="807.1" y1="330.0" x2="833.4" y2="330.0" stroke="#ffd700" stroke-width="1.3" opacity="0.75"></line>
<polygon points="841.4,330.0 833.4,333.2 833.4,326.8" fill="#ffd700" opacity="0.75"></polygon>
<line x1="841.4" y1="330.0" x2="867.7" y2="330.0" stroke="#cc3344" stroke-width="1.3" opacity="0.75"></line>
<polygon points="875.7,330.0 867.7,333.2 867.7,326.8" fill="#cc3344" opacity="0.75"></polygon>
<line x1="875.7" y1="330.0" x2="902.0" y2="330.0" stroke="#59a14f" stroke-width="1.3" opacity="0.75"></line>
<polygon points="910.0,330.0 902.0,333.2 902.0,326.8" fill="#59a14f" opacity="0.75"></polygon>
<line x1="910.0" y1="330.0" x2="936.3" y2="330.0" stroke="#e15759" stroke-width="1.3" opacity="0.75"></line>
<polygon points="944.3,330.0 936.3,333.2 936.3,326.8" fill="#e15759" opacity="0.75"></polygon>
<line x1="944.3" y1="326.5" x2="969.6" y2="326.5" stroke="#f28e2b" stroke-width="1.0" opacity="0.75"></line>
<line x1="944.3" y1="333.5" x2="969.6" y2="333.5" stroke="#f28e2b" stroke-width="1.0" opacity="0.75"></line>
<polygon points="978.6,330.0 968.6,334.0 968.6,326.0" fill="#f28e2b" opacity="0.75"></polygon>
<line x1="978.6" y1="330.0" x2="1004.9" y2="330.0" stroke="#ffd700" stroke-width="1.3" opacity="0.75"></line>
<polygon points="1012.9,330.0 1004.9,333.2 1004.9,326.8" fill="#ffd700" opacity="0.75"></polygon>
<line x1="430.0" y1="330.0" x2="456.3" y2="330.0" stroke="#ffd700" stroke-width="1.3" opacity="0.55"></line>
<polygon points="464.3,330.0 456.3,333.2 456.3,326.8" fill="#ffd700" opacity="0.55"></polygon>
<circle cx="87.1" cy="330.0" r="22.0" fill="#4e79a7" stroke="#ffffff20" stroke-width="1.0"></circle>
<text x="87.1" y="300.0" fill="#cccccc" font-size="8" text-anchor="middle" font-family="monospace" font-weight="bold">VI</text>
<text x="87.1" y="364.0" fill="#888" font-size="5.5" text-anchor="middle" font-family="monospace">VINIT</text>
<circle cx="110.1" cy="330.0" r="2.5" fill="#ffffff90" stroke-width="0"></circle>
<circle cx="121.4" cy="330.0" r="22.0" fill="#4e79a7" stroke="#ffffff20" stroke-width="1.0"></circle>
<text x="121.4" y="300.0" fill="#cccccc" font-size="8" text-anchor="middle" font-family="monospace" font-weight="bold">TA</text>
<text x="121.4" y="364.0" fill="#888" font-size="5.5" text-anchor="middle" font-family="monospace">TANCH</text>
<circle cx="98.4" cy="330.0" r="2.5" fill="#ffffff60" stroke-width="0"></circle>
<circle cx="144.4" cy="330.0" r="2.5" fill="#ffffff90" stroke-width="0"></circle>
<circle cx="155.7" cy="330.0" r="22.0" fill="#4e79a7" stroke="#ffffff20" stroke-width="1.0"></circle>
<circle cx="155.7" cy="330.0" r="12.1" fill="#153530" stroke-width="0"></circle>
<text x="155.7" y="332.0" fill="#20b2aa" font-size="7" text-anchor="middle" font-family="monospace" font-weight="bold">↑</text>
<text x="155.7" y="300.0" fill="#cccccc" font-size="8" text-anchor="middle" font-family="monospace" font-weight="bold">AF</text>
<text x="155.7" y="364.0" fill="#888" font-size="5.5" text-anchor="middle" font-family="monospace">AFWD</text>
<circle cx="132.7" cy="330.0" r="2.5" fill="#ffffff60" stroke-width="0"></circle>
<circle cx="178.7" cy="330.0" r="2.5" fill="#ffffff90" stroke-width="0"></circle>
<circle cx="190.0" cy="330.0" r="22.0" fill="#4e79a7" stroke="#ffffff20" stroke-width="1.0"></circle>
<circle cx="190.0" cy="330.0" r="12.1" fill="#332200" stroke-width="0"></circle>
<text x="190.0" y="332.0" fill="#ffd700" font-size="7" text-anchor="middle" font-family="monospace" font-weight="bold">↑↓</text>
<text x="190.0" y="300.0" fill="#cccccc" font-size="8" text-anchor="middle" font-family="monospace" font-weight="bold">AR</text>
<text x="190.0" y="364.0" fill="#888" font-size="5.5" text-anchor="middle" font-family="monospace">AREV</text>
<circle cx="167.0" cy="330.0" r="2.5" fill="#ffffff60" stroke-width="0"></circle>
<circle cx="213.0" cy="330.0" r="2.5" fill="#ffffff90" stroke-width="0"></circle>
<circle cx="224.3" cy="330.0" r="22.0" fill="#4e79a7" stroke="#ffffff20" stroke-width="1.0"></circle>
<circle cx="224.3" cy="330.0" r="12.1" fill="#332200" stroke-width="0"></circle>
<text x="224.3" y="332.0" fill="#ffd700" font-size="7" text-anchor="middle" font-family="monospace" font-weight="bold">↑↓</text>
<text x="224.3" y="300.0" fill="#cccccc" font-size="8" text-anchor="middle" font-family="monospace" font-weight="bold">CL</text>
<text x="224.3" y="364.0" fill="#888" font-size="5.5" text-anchor="middle" font-family="monospace">CLINK</text>
<circle cx="201.3" cy="330.0" r="2.5" fill="#ffffff60" stroke-width="0"></circle>
<circle cx="247.3" cy="330.0" r="2.5" fill="#ffffff90" stroke-width="0"></circle>
<circle cx="258.6" cy="330.0" r="22.0" fill="#4e79a7" stroke="#ffffff20" stroke-width="1.0"></circle>
<circle cx="258.6" cy="330.0" r="12.1" fill="#332200" stroke-width="0"></circle>
<text x="258.6" y="332.0" fill="#ffd700" font-size="7" text-anchor="middle" font-family="monospace" font-weight="bold">↑↓</text>
<text x="258.6" y="300.0" fill="#cccccc" font-size="8" text-anchor="middle" font-family="monospace" font-weight="bold">IM</text>
<text x="258.6" y="364.0" fill="#888" font-size="5.5" text-anchor="middle" font-family="monospace">IMSCRIB</text>
<circle cx="235.6" cy="330.0" r="2.5" fill="#ffffff60" stroke-width="0"></circle>
<circle cx="281.6" cy="330.0" r="2.5" fill="#ffffff90" stroke-width="0"></circle>
<polygon points="292.8571428571429,308.0 314.9,330 292.8571428571429,352.0 270.9,330" fill="#ffd700" stroke="#ffffff20" stroke-width="1.0"></polygon>
<circle cx="292.9" cy="330.0" r="12.1" fill="#332200" stroke-width="0"></circle>
<text x="292.9" y="332.0" fill="#ffd700" font-size="7" text-anchor="middle" font-family="monospace" font-weight="bold">↑↓</text>
<text x="292.9" y="300.0" fill="#cccccc" font-size="8" text-anchor="middle" font-family="monospace" font-weight="bold">FS</text>
<text x="292.9" y="364.0" fill="#888" font-size="5.5" text-anchor="middle" font-family="monospace">FSPLIT</text>
<circle cx="269.9" cy="330.0" r="2.5" fill="#ffffff60" stroke-width="0"></circle>
<circle cx="315.9" cy="323.0" r="2.5" fill="#ffffff90" stroke-width="0"></circle>
<circle cx="315.9" cy="337.0" r="2.5" fill="#ffffff90" stroke-width="0"></circle>
<polygon points="340.5,201.0 321.4,212.0 302.4,201.0 302.4,179.0 321.4,168.0 340.5,179.0" fill="#e15759" stroke="#ffffff20" stroke-width="1.0"></polygon>
<circle cx="321.4" cy="190.0" r="12.1" fill="#332200" stroke-width="0"></circle>
<text x="321.4" y="192.0" fill="#ffd700" font-size="7" text-anchor="middle" font-family="monospace" font-weight="bold">↑↓</text>
<text x="321.4" y="160.0" fill="#cccccc" font-size="8" text-anchor="middle" font-family="monospace" font-weight="bold">ET</text>
<text x="321.4" y="224.0" fill="#888" font-size="5.5" text-anchor="middle" font-family="monospace">EVALT</text>
<circle cx="298.4" cy="190.0" r="3.5" fill="#f28e2b" stroke-width="0.8"></circle>
<circle cx="344.4" cy="190.0" r="3.5" fill="#59a14f" stroke-width="0.9"></circle>
<circle cx="355.7" cy="190.0" r="22.0" fill="#4e79a7" stroke="#ffffff20" stroke-width="1.0"></circle>
<circle cx="355.7" cy="190.0" r="12.1" fill="#332200" stroke-width="0"></circle>
<text x="355.7" y="192.0" fill="#ffd700" font-size="7" text-anchor="middle" font-family="monospace" font-weight="bold">↑↓</text>
<text x="355.7" y="160.0" fill="#cccccc" font-size="8" text-anchor="middle" font-family="monospace" font-weight="bold">AF</text>
<text x="355.7" y="224.0" fill="#888" font-size="5.5" text-anchor="middle" font-family="monospace">AFWD</text>
<circle cx="332.7" cy="190.0" r="2.5" fill="#ffffff60" stroke-width="0"></circle>
<circle cx="378.7" cy="190.0" r="2.5" fill="#ffffff90" stroke-width="0"></circle>
<circle cx="390.0" cy="190.0" r="22.0" fill="#4e79a7" stroke="#ffffff20" stroke-width="1.0"></circle>
<circle cx="390.0" cy="190.0" r="12.1" fill="#332200" stroke-width="0"></circle>
<text x="390.0" y="192.0" fill="#ffd700" font-size="7" text-anchor="middle" font-family="monospace" font-weight="bold">↑↓</text>
<text x="390.0" y="160.0" fill="#cccccc" font-size="8" text-anchor="middle" font-family="monospace" font-weight="bold">CL</text>
<text x="390.0" y="224.0" fill="#888" font-size="5.5" text-anchor="middle" font-family="monospace">CLINK</text>
<circle cx="367.0" cy="190.0" r="2.5" fill="#ffffff60" stroke-width="0"></circle>
<circle cx="413.0" cy="190.0" r="2.5" fill="#ffffff90" stroke-width="0"></circle>
<polygon points="351.9,481.0 332.9,492.0 313.8,481.0 313.8,459.0 332.9,448.0 351.9,459.0" fill="#e15759" stroke="#ffffff20" stroke-width="1.0"></polygon>
<circle cx="332.9" cy="470.0" r="12.1" fill="#332200" stroke-width="0"></circle>
<text x="332.9" y="472.0" fill="#ffd700" font-size="7" text-anchor="middle" font-family="monospace" font-weight="bold">↑↓</text>
<text x="332.9" y="440.0" fill="#cccccc" font-size="8" text-anchor="middle" font-family="monospace" font-weight="bold">EF</text>
<text x="332.9" y="504.0" fill="#888" font-size="5.5" text-anchor="middle" font-family="monospace">EVALF</text>
<circle cx="309.9" cy="470.0" r="3.5" fill="#f28e2b" stroke-width="0.8"></circle>
<circle cx="355.9" cy="470.0" r="3.5" fill="#59a14f" stroke-width="0.9"></circle>
<circle cx="367.1" cy="470.0" r="22.0" fill="#4e79a7" stroke="#ffffff20" stroke-width="1.0"></circle>
<circle cx="367.1" cy="470.0" r="12.1" fill="#332200" stroke-width="0"></circle>
<text x="367.1" y="472.0" fill="#ffd700" font-size="7" text-anchor="middle" font-family="monospace" font-weight="bold">↑↓</text>
<text x="367.1" y="440.0" fill="#cccccc" font-size="8" text-anchor="middle" font-family="monospace" font-weight="bold">AR</text>
<text x="367.1" y="504.0" fill="#888" font-size="5.5" text-anchor="middle" font-family="monospace">AREV</text>
<circle cx="344.1" cy="470.0" r="2.5" fill="#ffffff60" stroke-width="0"></circle>
<circle cx="390.1" cy="470.0" r="2.5" fill="#ffffff90" stroke-width="0"></circle>
<circle cx="401.4" cy="470.0" r="22.0" fill="#4e79a7" stroke="#ffffff20" stroke-width="1.0"></circle>
<circle cx="401.4" cy="470.0" r="12.1" fill="#332200" stroke-width="0"></circle>
<text x="401.4" y="472.0" fill="#ffd700" font-size="7" text-anchor="middle" font-family="monospace" font-weight="bold">↑↓</text>
<text x="401.4" y="440.0" fill="#cccccc" font-size="8" text-anchor="middle" font-family="monospace" font-weight="bold">CL</text>
<text x="401.4" y="504.0" fill="#888" font-size="5.5" text-anchor="middle" font-family="monospace">CLINK</text>
<circle cx="378.4" cy="470.0" r="2.5" fill="#ffffff60" stroke-width="0"></circle>
<circle cx="424.4" cy="470.0" r="2.5" fill="#ffffff90" stroke-width="0"></circle>
<polygon points="430.0,308.0 452.0,330 430.0,352.0 408.0,330" fill="#ffd700" stroke="#ffffff20" stroke-width="1.0"></polygon>
<circle cx="430.0" cy="330.0" r="12.1" fill="#153530" stroke-width="0"></circle>
<text x="430.0" y="332.0" fill="#20b2aa" font-size="7" text-anchor="middle" font-family="monospace" font-weight="bold">↑</text>
<text x="430.0" y="300.0" fill="#cccccc" font-size="8" text-anchor="middle" font-family="monospace" font-weight="bold">FF</text>
<text x="430.0" y="364.0" fill="#888" font-size="5.5" text-anchor="middle" font-family="monospace">FFUSE</text>
<circle cx="407.0" cy="323.0" r="2.5" fill="#ffffff60" stroke-width="0"></circle>
<circle cx="407.0" cy="337.0" r="2.5" fill="#ffffff60" stroke-width="0"></circle>
<circle cx="453.0" cy="330.0" r="2.5" fill="#ffffff90" stroke-width="0"></circle>
<polygon points="483.3,341.0 464.3,352.0 445.2,341.0 445.2,319.0 464.3,308.0 483.3,319.0" fill="#e15759" stroke="#ffffff20" stroke-width="1.0"></polygon>
<circle cx="464.3" cy="330.0" r="12.1" fill="#153530" stroke-width="0"></circle>
<text x="464.3" y="332.0" fill="#20b2aa" font-size="7" text-anchor="middle" font-family="monospace" font-weight="bold">↑</text>
<text x="464.3" y="300.0" fill="#cccccc" font-size="8" text-anchor="middle" font-family="monospace" font-weight="bold">EG</text>
<text x="464.3" y="364.0" fill="#888" font-size="5.5" text-anchor="middle" font-family="monospace">ENGAGR</text>
<circle cx="441.3" cy="330.0" r="2.5" fill="#ffffff60" stroke-width="0"></circle>
<circle cx="487.3" cy="330.0" r="2.5" fill="#ffffff90" stroke-width="0"></circle>
<rect x="476.6" y="308.0" width="44.0" height="44.0" fill="#59a14f" stroke="#ffffff20" stroke-width="1.0"></rect>
<circle cx="498.6" cy="330.0" r="12.1" fill="#153530" stroke-width="0"></circle>
<text x="498.6" y="332.0" fill="#20b2aa" font-size="7" text-anchor="middle" font-family="monospace" font-weight="bold">↑</text>
<text x="498.6" y="300.0" fill="#cccccc" font-size="8" text-anchor="middle" font-family="monospace" font-weight="bold">IX</text>
<text x="498.6" y="364.0" fill="#888" font-size="5.5" text-anchor="middle" font-family="monospace">IFIX</text>
<circle cx="475.6" cy="330.0" r="2.5" fill="#ffffff60" stroke-width="0"></circle>
<circle cx="521.6" cy="330.0" r="2.5" fill="#ffffff90" stroke-width="0"></circle>
<circle cx="532.9" cy="330.0" r="22.0" fill="#4e79a7" stroke="#ffffff20" stroke-width="1.0"></circle>
<circle cx="532.9" cy="330.0" r="12.1" fill="#153530" stroke-width="0"></circle>
<text x="532.9" y="332.0" fill="#20b2aa" font-size="7" text-anchor="middle" font-family="monospace" font-weight="bold">↑</text>
<text x="532.9" y="300.0" fill="#cccccc" font-size="8" text-anchor="middle" font-family="monospace" font-weight="bold">CL</text>
<text x="532.9" y="364.0" fill="#888" font-size="5.5" text-anchor="middle" font-family="monospace">CLINK</text>
<circle cx="509.9" cy="330.0" r="2.5" fill="#ffffff60" stroke-width="0"></circle>
<circle cx="555.9" cy="330.0" r="2.5" fill="#ffffff90" stroke-width="0"></circle>
<circle cx="567.1" cy="330.0" r="22.0" fill="#4e79a7" stroke="#ffffff20" stroke-width="1.0"></circle>
<circle cx="567.1" cy="330.0" r="12.1" fill="#153530" stroke-width="0"></circle>
<text x="567.1" y="332.0" fill="#20b2aa" font-size="7" text-anchor="middle" font-family="monospace" font-weight="bold">↑</text>
<text x="567.1" y="300.0" fill="#cccccc" font-size="8" text-anchor="middle" font-family="monospace" font-weight="bold">AF</text>
<text x="567.1" y="364.0" fill="#888" font-size="5.5" text-anchor="middle" font-family="monospace">AFWD</text>
<circle cx="544.1" cy="330.0" r="2.5" fill="#ffffff60" stroke-width="0"></circle>
<circle cx="590.1" cy="330.0" r="2.5" fill="#ffffff90" stroke-width="0"></circle>
<circle cx="601.4" cy="330.0" r="22.0" fill="#4e79a7" stroke="#ffffff20" stroke-width="1.0"></circle>
<circle cx="601.4" cy="330.0" r="12.1" fill="#153530" stroke-width="0"></circle>
<text x="601.4" y="332.0" fill="#20b2aa" font-size="7" text-anchor="middle" font-family="monospace" font-weight="bold">↑</text>
<text x="601.4" y="300.0" fill="#cccccc" font-size="8" text-anchor="middle" font-family="monospace" font-weight="bold">AR</text>
<text x="601.4" y="364.0" fill="#888" font-size="5.5" text-anchor="middle" font-family="monospace">AREV</text>
<circle cx="578.4" cy="330.0" r="2.5" fill="#ffffff60" stroke-width="0"></circle>
<circle cx="624.4" cy="330.0" r="2.5" fill="#ffffff90" stroke-width="0"></circle>
<circle cx="635.7" cy="330.0" r="22.0" fill="#4e79a7" stroke="#ffffff20" stroke-width="1.0"></circle>
<circle cx="635.7" cy="330.0" r="12.1" fill="#153530" stroke-width="0"></circle>
<text x="635.7" y="332.0" fill="#20b2aa" font-size="7" text-anchor="middle" font-family="monospace" font-weight="bold">↑</text>
<text x="635.7" y="300.0" fill="#cccccc" font-size="8" text-anchor="middle" font-family="monospace" font-weight="bold">CL</text>
<text x="635.7" y="364.0" fill="#888" font-size="5.5" text-anchor="middle" font-family="monospace">CLINK</text>
<circle cx="612.7" cy="330.0" r="2.5" fill="#ffffff60" stroke-width="0"></circle>
<circle cx="658.7" cy="330.0" r="2.5" fill="#ffffff90" stroke-width="0"></circle>
<circle cx="670.0" cy="330.0" r="22.0" fill="#4e79a7" stroke="#ffffff20" stroke-width="1.0"></circle>
<circle cx="670.0" cy="330.0" r="12.1" fill="#153530" stroke-width="0"></circle>
<text x="670.0" y="332.0" fill="#20b2aa" font-size="7" text-anchor="middle" font-family="monospace" font-weight="bold">↑</text>
<text x="670.0" y="300.0" fill="#cccccc" font-size="8" text-anchor="middle" font-family="monospace" font-weight="bold">IM</text>
<text x="670.0" y="364.0" fill="#888" font-size="5.5" text-anchor="middle" font-family="monospace">IMSCRIB</text>
<circle cx="647.0" cy="330.0" r="2.5" fill="#ffffff60" stroke-width="0"></circle>
<circle cx="693.0" cy="330.0" r="2.5" fill="#ffffff90" stroke-width="0"></circle>
<rect x="682.3" y="308.0" width="44.0" height="44.0" fill="#59a14f" stroke="#ffffff20" stroke-width="1.0"></rect>
<circle cx="704.3" cy="330.0" r="12.1" fill="#153530" stroke-width="0"></circle>
<text x="704.3" y="332.0" fill="#20b2aa" font-size="7" text-anchor="middle" font-family="monospace" font-weight="bold">↑</text>
<text x="704.3" y="300.0" fill="#cccccc" font-size="8" text-anchor="middle" font-family="monospace" font-weight="bold">IX</text>
<text x="704.3" y="364.0" fill="#888" font-size="5.5" text-anchor="middle" font-family="monospace">IFIX</text>
<circle cx="681.3" cy="330.0" r="2.5" fill="#ffffff60" stroke-width="0"></circle>
<circle cx="727.3" cy="330.0" r="2.5" fill="#ffffff90" stroke-width="0"></circle>
<circle cx="738.6" cy="330.0" r="22.0" fill="#4e79a7" stroke="#ffffff20" stroke-width="1.0"></circle>
<circle cx="738.6" cy="330.0" r="12.1" fill="#153530" stroke-width="0"></circle>
<text x="738.6" y="332.0" fill="#20b2aa" font-size="7" text-anchor="middle" font-family="monospace" font-weight="bold">↑</text>
<text x="738.6" y="300.0" fill="#cccccc" font-size="8" text-anchor="middle" font-family="monospace" font-weight="bold">TA</text>
<text x="738.6" y="364.0" fill="#888" font-size="5.5" text-anchor="middle" font-family="monospace">TANCH</text>
<circle cx="715.6" cy="330.0" r="2.5" fill="#ffffff60" stroke-width="0"></circle>
<circle cx="761.6" cy="330.0" r="2.5" fill="#ffffff90" stroke-width="0"></circle>
<circle cx="772.9" cy="330.0" r="22.0" fill="#4e79a7" stroke="#ffffff20" stroke-width="1.0"></circle>
<circle cx="772.9" cy="330.0" r="12.1" fill="#153530" stroke-width="0"></circle>
<text x="772.9" y="332.0" fill="#20b2aa" font-size="7" text-anchor="middle" font-family="monospace" font-weight="bold">↑</text>
<text x="772.9" y="300.0" fill="#cccccc" font-size="8" text-anchor="middle" font-family="monospace" font-weight="bold">CL</text>
<text x="772.9" y="364.0" fill="#888" font-size="5.5" text-anchor="middle" font-family="monospace">CLINK</text>
<circle cx="749.9" cy="330.0" r="2.5" fill="#ffffff60" stroke-width="0"></circle>
<circle cx="795.9" cy="330.0" r="2.5" fill="#ffffff90" stroke-width="0"></circle>
<circle cx="807.1" cy="330.0" r="22.0" fill="#4e79a7" stroke="#ffffff20" stroke-width="1.0"></circle>
<circle cx="807.1" cy="330.0" r="12.1" fill="#153530" stroke-width="0"></circle>
<text x="807.1" y="332.0" fill="#20b2aa" font-size="7" text-anchor="middle" font-family="monospace" font-weight="bold">↑</text>
<text x="807.1" y="300.0" fill="#cccccc" font-size="8" text-anchor="middle" font-family="monospace" font-weight="bold">IM</text>
<text x="807.1" y="364.0" fill="#888" font-size="5.5" text-anchor="middle" font-family="monospace">IMSCRIB</text>
<circle cx="784.1" cy="330.0" r="2.5" fill="#ffffff60" stroke-width="0"></circle>
<circle cx="830.1" cy="330.0" r="2.5" fill="#ffffff90" stroke-width="0"></circle>
<rect x="819.4" y="308.0" width="44.0" height="44.0" fill="#59a14f" stroke="#ffffff20" stroke-width="1.0"></rect>
<circle cx="841.4" cy="330.0" r="12.1" fill="#153530" stroke-width="0"></circle>
<text x="841.4" y="332.0" fill="#20b2aa" font-size="7" text-anchor="middle" font-family="monospace" font-weight="bold">↑</text>
<text x="841.4" y="300.0" fill="#cccccc" font-size="8" text-anchor="middle" font-family="monospace" font-weight="bold">IX</text>
<text x="841.4" y="364.0" fill="#888" font-size="5.5" text-anchor="middle" font-family="monospace">IFIX</text>
<circle cx="818.4" cy="330.0" r="2.5" fill="#ffffff60" stroke-width="0"></circle>
<circle cx="864.4" cy="330.0" r="2.5" fill="#ffffff90" stroke-width="0"></circle>
<circle cx="875.7" cy="330.0" r="22.0" fill="#4e79a7" stroke="#ffffff20" stroke-width="1.0"></circle>
<circle cx="875.7" cy="330.0" r="12.1" fill="#153530" stroke-width="0"></circle>
<text x="875.7" y="332.0" fill="#20b2aa" font-size="7" text-anchor="middle" font-family="monospace" font-weight="bold">↑</text>
<text x="875.7" y="300.0" fill="#cccccc" font-size="8" text-anchor="middle" font-family="monospace" font-weight="bold">AF</text>
<text x="875.7" y="364.0" fill="#888" font-size="5.5" text-anchor="middle" font-family="monospace">AFWD</text>
<circle cx="852.7" cy="330.0" r="2.5" fill="#ffffff60" stroke-width="0"></circle>
<circle cx="898.7" cy="330.0" r="2.5" fill="#ffffff90" stroke-width="0"></circle>
<circle cx="910.0" cy="330.0" r="22.0" fill="#4e79a7" stroke="#ffffff20" stroke-width="1.0"></circle>
<circle cx="910.0" cy="330.0" r="12.1" fill="#153530" stroke-width="0"></circle>
<text x="910.0" y="332.0" fill="#20b2aa" font-size="7" text-anchor="middle" font-family="monospace" font-weight="bold">↑</text>
<text x="910.0" y="300.0" fill="#cccccc" font-size="8" text-anchor="middle" font-family="monospace" font-weight="bold">AR</text>
<text x="910.0" y="364.0" fill="#888" font-size="5.5" text-anchor="middle" font-family="monospace">AREV</text>
<circle cx="887.0" cy="330.0" r="2.5" fill="#ffffff60" stroke-width="0"></circle>
<circle cx="933.0" cy="330.0" r="2.5" fill="#ffffff90" stroke-width="0"></circle>
<circle cx="944.3" cy="330.0" r="22.0" fill="#4e79a7" stroke="#ffffff20" stroke-width="1.0"></circle>
<circle cx="944.3" cy="330.0" r="12.1" fill="#153530" stroke-width="0"></circle>
<text x="944.3" y="332.0" fill="#20b2aa" font-size="7" text-anchor="middle" font-family="monospace" font-weight="bold">↑</text>
<text x="944.3" y="300.0" fill="#cccccc" font-size="8" text-anchor="middle" font-family="monospace" font-weight="bold">CL</text>
<text x="944.3" y="364.0" fill="#888" font-size="5.5" text-anchor="middle" font-family="monospace">CLINK</text>
<circle cx="921.3" cy="330.0" r="2.5" fill="#ffffff60" stroke-width="0"></circle>
<circle cx="967.3" cy="330.0" r="2.5" fill="#ffffff90" stroke-width="0"></circle>
<circle cx="978.6" cy="330.0" r="22.0" fill="#4e79a7" stroke="#ffffff20" stroke-width="1.0"></circle>
<circle cx="978.6" cy="330.0" r="12.1" fill="#153530" stroke-width="0"></circle>
<text x="978.6" y="332.0" fill="#20b2aa" font-size="7" text-anchor="middle" font-family="monospace" font-weight="bold">↑</text>
<text x="978.6" y="300.0" fill="#cccccc" font-size="8" text-anchor="middle" font-family="monospace" font-weight="bold">IM</text>
<text x="978.6" y="364.0" fill="#888" font-size="5.5" text-anchor="middle" font-family="monospace">IMSCRIB</text>
<circle cx="955.6" cy="330.0" r="2.5" fill="#ffffff60" stroke-width="0"></circle>
<circle cx="1001.6" cy="330.0" r="2.5" fill="#ffffff90" stroke-width="0"></circle>
<circle cx="1012.9" cy="330.0" r="22.0" fill="#4e79a7" stroke="#ffffff20" stroke-width="1.0"></circle>
<circle cx="1012.9" cy="330.0" r="12.1" fill="#153530" stroke-width="0"></circle>
<text x="1012.9" y="332.0" fill="#20b2aa" font-size="7" text-anchor="middle" font-family="monospace" font-weight="bold">↑</text>
<text x="1012.9" y="300.0" fill="#cccccc" font-size="8" text-anchor="middle" font-family="monospace" font-weight="bold">TA</text>
<text x="1012.9" y="364.0" fill="#888" font-size="5.5" text-anchor="middle" font-family="monospace">TANCH</text>
<circle cx="989.9" cy="330.0" r="2.5" fill="#ffffff60" stroke-width="0"></circle>
<circle cx="1035.9" cy="330.0" r="2.5" fill="#ffffff90" stroke-width="0"></circle>
<path d="M1012.9,330.0 Q550.0,275.0 87.1,330.0" fill="none" stroke="#9988cc" stroke-width="1.5" opacity="0.5"></path>
<polygon points="87.1,330.0 78.7,327.0 79.7,334.9" fill="#9988cc" opacity="0.5"></polygon>
<text x="550.0" y="260.0" fill="#9988cc" font-size="8" text-anchor="middle" font-family="serif">O₂</text>
<text x="550.0" y="621.0" fill="#9988aa" font-size="7" text-anchor="middle" font-family="serif">Ouroboricity: O₂</text>
<text x="70.0" y="52.0" fill="#666" font-size="6" text-anchor="start" font-family="monospace" font-weight="bold">NODES</text>
<circle cx="110.0" cy="59.0" r="4.5" fill="#4e79a7" stroke-width="0"></circle>
<text x="120.0" y="62.0" fill="#4e79a7" font-size="5" text-anchor="start" font-family="monospace">LOGI</text>
<polygon points="158,54.5 162.5,59 158,63.5 153.5,59" fill="#ffd700" stroke="#ffffff20" stroke-width="1.0"></polygon>
<text x="168.0" y="62.0" fill="#ffd700" font-size="5" text-anchor="start" font-family="monospace">FROB</text>
<polygon points="209.9,61.2 206.0,63.5 202.1,61.2 202.1,56.8 206.0,54.5 209.9,56.8" fill="#e15759" stroke="#ffffff20" stroke-width="1.0"></polygon>
<text x="216.0" y="62.0" fill="#e15759" font-size="5" text-anchor="start" font-family="monospace">DIAL</text>
<rect x="249.5" y="54.5" width="9.0" height="9.0" fill="#59a14f" stroke="#ffffff20" stroke-width="1.0"></rect>
<text x="264.0" y="62.0" fill="#59a14f" font-size="5" text-anchor="start" font-family="monospace">LINE</text>
<text x="312.0" y="52.0" fill="#666" font-size="6" text-anchor="start" font-family="monospace" font-weight="bold">EDGES</text>
<line x1="350.0" y1="59.0" x2="364.0" y2="59.0" stroke="#59a14f" stroke-width="1.5" opacity="0.7"></line>
<text x="368.0" y="62.0" fill="#59a14f" font-size="5" text-anchor="start" font-family="monospace">AFWD</text>
<line x1="402.0" y1="59.0" x2="416.0" y2="59.0" stroke="#e15759" stroke-width="1.5" opacity="0.7"></line>
<text x="420.0" y="62.0" fill="#e15759" font-size="5" text-anchor="start" font-family="monospace">AREV</text>
<line x1="454.0" y1="59.0" x2="468.0" y2="59.0" stroke="#f28e2b" stroke-width="1.5" opacity="0.7"></line>
<text x="472.0" y="62.0" fill="#f28e2b" font-size="5" text-anchor="start" font-family="monospace">CLINK</text>
<line x1="506.0" y1="59.0" x2="520.0" y2="59.0" stroke="#b07aa1" stroke-width="1.5" opacity="0.7" stroke-dasharray="4,3"></line>
<text x="524.0" y="62.0" fill="#b07aa1" font-size="5" text-anchor="start" font-family="monospace">TANCH</text>
<line x1="558.0" y1="59.0" x2="572.0" y2="59.0" stroke="#ffd700" stroke-width="1.5" opacity="0.7"></line>
<text x="576.0" y="62.0" fill="#ffd700" font-size="5" text-anchor="start" font-family="monospace">IMSC</text>
<line x1="610.0" y1="59.0" x2="624.0" y2="59.0" stroke="#cc3344" stroke-width="1.5" opacity="0.7"></line>
<text x="628.0" y="62.0" fill="#cc3344" font-size="5" text-anchor="start" font-family="monospace">IFIX</text>
<text x="70.0" y="72.0" fill="#666" font-size="6" text-anchor="start" font-family="monospace" font-weight="bold">GUARD</text>
<circle cx="110.0" cy="79.0" r="3.0" fill="#f28e2b" stroke-width="0.8"></circle>
<text x="117.0" y="82.0" fill="#f28e2b" font-size="5" text-anchor="start" font-family="monospace">approach</text>
<circle cx="162.0" cy="79.0" r="3.0" fill="#59a14f" stroke-width="0.9"></circle>
<text x="169.0" y="82.0" fill="#59a14f" font-size="5" text-anchor="start" font-family="monospace">passed</text>
<text x="214.0" y="72.0" fill="#666" font-size="6" text-anchor="start" font-family="monospace" font-weight="bold">REG Δ</text>
<text x="252.0" y="82.0" fill="#20b888" font-size="5.5" text-anchor="start" font-family="monospace">→↑</text>
<text x="280.0" y="82.0" fill="#ffd700" font-size="5.5" text-anchor="start" font-family="monospace">↓→↑↓</text>
<text x="308.0" y="82.0" fill="#e15759" font-size="5.5" text-anchor="start" font-family="monospace">↑↔↓</text>
<line x1="344.0" y1="79.0" x2="358.0" y2="79.0" stroke="#ffd700" stroke-width="1.5" opacity="0.6" stroke-dasharray="5,3"></line>
<text x="362.0" y="82.0" fill="#ffd700" font-size="5.5" text-anchor="start" font-family="monospace">cross-br.</text>
<line x1="404.0" y1="79.0" x2="418.0" y2="79.0" stroke="#9988cc" stroke-width="1.5" opacity="0.5"></line>
<text x="422.0" y="82.0" fill="#9988cc" font-size="5.5" text-anchor="start" font-family="monospace">loop</text>
</svg>