<svg xmlns="http://www.w3.org/2000/svg" viewBox="0 0 1220 720">
<rect width="1220" height="720" fill="#000000"/>
<defs>
<pattern id="hatch-T" width="4" height="4" patternUnits="userSpaceOnUse"><path d="M2,0 L2,4" stroke="#ffffff" stroke-width="0.8"/></pattern>
<pattern id="hatch-F" width="4" height="4" patternUnits="userSpaceOnUse"><path d="M0,2 L4,2" stroke="#ffffff" stroke-width="0.8"/></pattern>
<pattern id="hatch-B" width="4" height="4" patternUnits="userSpaceOnUse"><path d="M2,0 L2,4 M0,2 L4,2" stroke="#ffffff" stroke-width="0.8"/></pattern>
</defs>
<line x1="0.0" y1="0.0" x2="0.0" y2="720.0" stroke="#333333" stroke-width="0.4" opacity="0.3"></line>
<line x1="40.0" y1="0.0" x2="40.0" y2="720.0" stroke="#333333" stroke-width="0.4" opacity="0.3"></line>
<line x1="80.0" y1="0.0" x2="80.0" y2="720.0" stroke="#333333" stroke-width="0.4" opacity="0.3"></line>
<line x1="120.0" y1="0.0" x2="120.0" y2="720.0" stroke="#333333" stroke-width="0.4" opacity="0.3"></line>
<line x1="160.0" y1="0.0" x2="160.0" y2="720.0" stroke="#333333" stroke-width="0.4" opacity="0.3"></line>
<line x1="200.0" y1="0.0" x2="200.0" y2="720.0" stroke="#333333" stroke-width="0.4" opacity="0.3"></line>
<line x1="240.0" y1="0.0" x2="240.0" y2="720.0" stroke="#333333" stroke-width="0.4" opacity="0.3"></line>
<line x1="280.0" y1="0.0" x2="280.0" y2="720.0" stroke="#333333" stroke-width="0.4" opacity="0.3"></line>
<line x1="320.0" y1="0.0" x2="320.0" y2="720.0" stroke="#333333" stroke-width="0.4" opacity="0.3"></line>
<line x1="360.0" y1="0.0" x2="360.0" y2="720.0" stroke="#333333" stroke-width="0.4" opacity="0.3"></line>
<line x1="400.0" y1="0.0" x2="400.0" y2="720.0" stroke="#333333" stroke-width="0.4" opacity="0.3"></line>
<line x1="440.0" y1="0.0" x2="440.0" y2="720.0" stroke="#333333" stroke-width="0.4" opacity="0.3"></line>
<line x1="480.0" y1="0.0" x2="480.0" y2="720.0" stroke="#333333" stroke-width="0.4" opacity="0.3"></line>
<line x1="520.0" y1="0.0" x2="520.0" y2="720.0" stroke="#333333" stroke-width="0.4" opacity="0.3"></line>
<line x1="560.0" y1="0.0" x2="560.0" y2="720.0" stroke="#333333" stroke-width="0.4" opacity="0.3"></line>
<line x1="600.0" y1="0.0" x2="600.0" y2="720.0" stroke="#333333" stroke-width="0.4" opacity="0.3"></line>
<line x1="640.0" y1="0.0" x2="640.0" y2="720.0" stroke="#333333" stroke-width="0.4" opacity="0.3"></line>
<line x1="680.0" y1="0.0" x2="680.0" y2="720.0" stroke="#333333" stroke-width="0.4" opacity="0.3"></line>
<line x1="720.0" y1="0.0" x2="720.0" y2="720.0" stroke="#333333" stroke-width="0.4" opacity="0.3"></line>
<line x1="760.0" y1="0.0" x2="760.0" y2="720.0" stroke="#333333" stroke-width="0.4" opacity="0.3"></line>
<line x1="800.0" y1="0.0" x2="800.0" y2="720.0" stroke="#333333" stroke-width="0.4" opacity="0.3"></line>
<line x1="840.0" y1="0.0" x2="840.0" y2="720.0" stroke="#333333" stroke-width="0.4" opacity="0.3"></line>
<line x1="880.0" y1="0.0" x2="880.0" y2="720.0" stroke="#333333" stroke-width="0.4" opacity="0.3"></line>
<line x1="920.0" y1="0.0" x2="920.0" y2="720.0" stroke="#333333" stroke-width="0.4" opacity="0.3"></line>
<line x1="960.0" y1="0.0" x2="960.0" y2="720.0" stroke="#333333" stroke-width="0.4" opacity="0.3"></line>
<line x1="1000.0" y1="0.0" x2="1000.0" y2="720.0" stroke="#333333" stroke-width="0.4" opacity="0.3"></line>
<line x1="1040.0" y1="0.0" x2="1040.0" y2="720.0" stroke="#333333" stroke-width="0.4" opacity="0.3"></line>
<line x1="1080.0" y1="0.0" x2="1080.0" y2="720.0" stroke="#333333" stroke-width="0.4" opacity="0.3"></line>
<line x1="1120.0" y1="0.0" x2="1120.0" y2="720.0" stroke="#333333" stroke-width="0.4" opacity="0.3"></line>
<line x1="1160.0" y1="0.0" x2="1160.0" y2="720.0" stroke="#333333" stroke-width="0.4" opacity="0.3"></line>
<line x1="1200.0" y1="0.0" x2="1200.0" y2="720.0" stroke="#333333" stroke-width="0.4" opacity="0.3"></line>
<line x1="0.0" y1="0.0" x2="1220.0" y2="0.0" stroke="#333333" stroke-width="0.4" opacity="0.3"></line>
<line x1="0.0" y1="40.0" x2="1220.0" y2="40.0" stroke="#333333" stroke-width="0.4" opacity="0.3"></line>
<line x1="0.0" y1="80.0" x2="1220.0" y2="80.0" stroke="#333333" stroke-width="0.4" opacity="0.3"></line>
<line x1="0.0" y1="120.0" x2="1220.0" y2="120.0" stroke="#333333" stroke-width="0.4" opacity="0.3"></line>
<line x1="0.0" y1="160.0" x2="1220.0" y2="160.0" stroke="#333333" stroke-width="0.4" opacity="0.3"></line>
<line x1="0.0" y1="200.0" x2="1220.0" y2="200.0" stroke="#333333" stroke-width="0.4" opacity="0.3"></line>
<line x1="0.0" y1="240.0" x2="1220.0" y2="240.0" stroke="#333333" stroke-width="0.4" opacity="0.3"></line>
<line x1="0.0" y1="280.0" x2="1220.0" y2="280.0" stroke="#333333" stroke-width="0.4" opacity="0.3"></line>
<line x1="0.0" y1="320.0" x2="1220.0" y2="320.0" stroke="#333333" stroke-width="0.4" opacity="0.3"></line>
<line x1="0.0" y1="360.0" x2="1220.0" y2="360.0" stroke="#333333" stroke-width="0.4" opacity="0.3"></line>
<line x1="0.0" y1="400.0" x2="1220.0" y2="400.0" stroke="#333333" stroke-width="0.4" opacity="0.3"></line>
<line x1="0.0" y1="440.0" x2="1220.0" y2="440.0" stroke="#333333" stroke-width="0.4" opacity="0.3"></line>
<line x1="0.0" y1="480.0" x2="1220.0" y2="480.0" stroke="#333333" stroke-width="0.4" opacity="0.3"></line>
<line x1="0.0" y1="520.0" x2="1220.0" y2="520.0" stroke="#333333" stroke-width="0.4" opacity="0.3"></line>
<line x1="0.0" y1="560.0" x2="1220.0" y2="560.0" stroke="#333333" stroke-width="0.4" opacity="0.3"></line>
<line x1="0.0" y1="600.0" x2="1220.0" y2="600.0" stroke="#333333" stroke-width="0.4" opacity="0.3"></line>
<line x1="0.0" y1="640.0" x2="1220.0" y2="640.0" stroke="#333333" stroke-width="0.4" opacity="0.3"></line>
<line x1="0.0" y1="680.0" x2="1220.0" y2="680.0" stroke="#333333" stroke-width="0.4" opacity="0.3"></line>
<text x="610.0" y="26.0" fill="#ffffff" font-size="13" text-anchor="middle" font-family="monospace" font-weight="bold">structural imscription of the matrix free levenb</text>
<text x="66.0" y="190.0" fill="#ffffff" font-size="7" text-anchor="start" font-family="monospace">T-lane</text>
<text x="66.0" y="135.0" fill="#ffffff" font-size="7" text-anchor="start" font-family="monospace">T[d1]</text>
<text x="66.0" y="470.0" fill="#ffffff" font-size="7" text-anchor="start" font-family="monospace">F-lane</text>
<text x="66.0" y="525.0" fill="#ffffff" font-size="7" text-anchor="start" font-family="monospace">F[d1]</text>
<text x="66.0" y="330.0" fill="#ffffff" font-size="7" text-anchor="start" font-family="monospace">main</text>
<line x1="861.3" y1="105.0" x2="861.3" y2="555.0" stroke="#ffffff" stroke-width="1.0" opacity="1.0" stroke-dasharray="4,3"></line>
<line x1="866.3" y1="105.0" x2="866.3" y2="555.0" stroke="#ffffff" stroke-width="1.0" opacity="1.0" stroke-dasharray="4,3"></line>
<text x="863.8" y="105.0" fill="#ffffff" font-size="8" text-anchor="middle" font-family="monospace">×</text>
<text x="863.8" y="555.0" fill="#ffffff" font-size="8" text-anchor="middle" font-family="monospace">×</text>
<text x="863.8" y="98.0" fill="#ffffff" font-size="6" text-anchor="middle" font-family="monospace">IFIX</text>
<line x1="310.0" y1="310.0" x2="310.0" y2="292.0" stroke="#ffffff" stroke-width="0.6" opacity="0.8" stroke-dasharray="3,3"></line>
<line x1="310.0" y1="292.0" x2="420.8" y2="292.0" stroke="#ffffff" stroke-width="0.6" opacity="0.8" stroke-dasharray="3,3"></line>
<line x1="420.8" y1="292.0" x2="420.8" y2="310.0" stroke="#ffffff" stroke-width="0.6" opacity="0.8" stroke-dasharray="3,3"></line>
<circle cx="365.4" cy="292.0" r="6" fill="#000000" stroke="#ffffff" stroke-width="0.8"></circle>
<text x="365.4" y="295.0" fill="#ffffff" font-size="7" text-anchor="middle" font-family="monospace">1</text>
<line x1="457.7" y1="310.0" x2="457.7" y2="292.0" stroke="#ffffff" stroke-width="0.6" opacity="0.8" stroke-dasharray="3,3"></line>
<line x1="457.7" y1="292.0" x2="642.3" y2="292.0" stroke="#ffffff" stroke-width="0.6" opacity="0.8" stroke-dasharray="3,3"></line>
<line x1="642.3" y1="292.0" x2="642.3" y2="310.0" stroke="#ffffff" stroke-width="0.6" opacity="0.8" stroke-dasharray="3,3"></line>
<circle cx="550.0" cy="292.0" r="6" fill="#000000" stroke="#ffffff" stroke-width="0.8"></circle>
<text x="550.0" y="295.0" fill="#ffffff" font-size="7" text-anchor="middle" font-family="monospace">2</text>
<line x1="790.0" y1="310.0" x2="790.0" y2="292.0" stroke="#ffffff" stroke-width="0.6" opacity="0.8" stroke-dasharray="3,3"></line>
<line x1="790.0" y1="292.0" x2="974.6" y2="292.0" stroke="#ffffff" stroke-width="0.6" opacity="0.8" stroke-dasharray="3,3"></line>
<line x1="974.6" y1="292.0" x2="974.6" y2="310.0" stroke="#ffffff" stroke-width="0.6" opacity="0.8" stroke-dasharray="3,3"></line>
<circle cx="882.3" cy="292.0" r="6" fill="#000000" stroke="#ffffff" stroke-width="0.8"></circle>
<text x="882.3" y="295.0" fill="#ffffff" font-size="7" text-anchor="middle" font-family="monospace">3</text>
<line x1="315.0" y1="303.5" x2="341.9" y2="161.5" stroke="#ffffff" stroke-width="1.5" opacity="1.0"></line>
<polygon points="341.9,161.5 343.6,170.0 337.3,168.8" fill="#ffffff"></polygon>
<circle cx="328.5" cy="232.5" r="5" fill="#000000" stroke="#ffffff" stroke-width="0.6"></circle>
<text x="328.5" y="235.5" fill="#ffffff" font-size="7" text-anchor="middle" font-family="monospace">◇</text>
<text x="328.5" y="224.5" fill="#ffffff" font-size="6" text-anchor="middle" font-family="monospace">↓→↑↓</text>
<line x1="356.5" y1="160.3" x2="411.2" y2="304.7" stroke="#ffffff" stroke-width="1.5" opacity="1.0"></line>
<polygon points="411.2,304.7 405.4,298.4 411.4,296.1" fill="#ffffff"></polygon>
<circle cx="383.8" cy="232.5" r="5" fill="#000000" stroke="#ffffff" stroke-width="0.6"></circle>
<text x="383.8" y="235.5" fill="#ffffff" font-size="7" text-anchor="middle" font-family="monospace">+</text>
<text x="383.8" y="224.5" fill="#ffffff" font-size="6" text-anchor="middle" font-family="monospace">↑↓→↑</text>
<line x1="319.6" y1="355.3" x2="374.3" y2="499.7" stroke="#ffffff" stroke-width="1.5" opacity="1.0"></line>
<polygon points="374.3,499.7 368.5,493.4 374.4,491.1" fill="#ffffff"></polygon>
<circle cx="346.9" cy="427.5" r="5" fill="#000000" stroke="#ffffff" stroke-width="0.6"></circle>
<text x="346.9" y="430.5" fill="#ffffff" font-size="7" text-anchor="middle" font-family="monospace">◇</text>
<text x="346.9" y="419.5" fill="#ffffff" font-size="6" text-anchor="middle" font-family="monospace">↓→↑↓</text>
<line x1="388.9" y1="498.5" x2="415.7" y2="356.5" stroke="#ffffff" stroke-width="1.5" opacity="1.0"></line>
<polygon points="415.7,356.5 417.4,365.0 411.1,363.8" fill="#ffffff"></polygon>
<circle cx="402.3" cy="427.5" r="5" fill="#000000" stroke="#ffffff" stroke-width="0.6"></circle>
<text x="402.3" y="430.5" fill="#ffffff" font-size="7" text-anchor="middle" font-family="monospace">×</text>
<text x="402.3" y="419.5" fill="#ffffff" font-size="6" text-anchor="middle" font-family="monospace">↑↓→↑</text>
<line x1="462.7" y1="303.5" x2="489.6" y2="161.5" stroke="#ffffff" stroke-width="1.5" opacity="1.0"></line>
<polygon points="489.6,161.5 491.2,170.0 485.0,168.8" fill="#ffffff"></polygon>
<circle cx="476.2" cy="232.5" r="5" fill="#000000" stroke="#ffffff" stroke-width="0.6"></circle>
<text x="476.2" y="235.5" fill="#ffffff" font-size="7" text-anchor="middle" font-family="monospace">◇</text>
<text x="476.2" y="224.5" fill="#ffffff" font-size="6" text-anchor="middle" font-family="monospace">↑→↑</text>
<line x1="521.6" y1="135.0" x2="504.5" y2="135.0" stroke="#ffffff" stroke-width="1.5" opacity="1.0"></line>
<polygon points="504.5,135.0 512.5,131.8 512.5,138.2" fill="#ffffff"></polygon>
<circle cx="513.1" cy="135.0" r="5" fill="#000000" stroke="#ffffff" stroke-width="0.6"></circle>
<text x="513.1" y="138.0" fill="#ffffff" font-size="7" text-anchor="middle" font-family="monospace">+</text>
<text x="513.1" y="127.0" fill="#ffffff" font-size="6" text-anchor="middle" font-family="monospace">↑→↑</text>
<line x1="544.9" y1="158.5" x2="629.0" y2="306.5" stroke="#ffffff" stroke-width="2.5" opacity="1.0"></line>
<polygon points="629.0,306.5 622.2,301.1 627.8,298.0" fill="#ffffff"></polygon>
<text x="586.9" y="224.5" fill="#ffffff" font-size="6" text-anchor="middle" font-family="monospace">↑→↑</text>
<line x1="471.0" y1="353.5" x2="555.1" y2="501.5" stroke="#ffffff" stroke-width="1.5" opacity="1.0"></line>
<polygon points="555.1,501.5 548.4,496.1 554.0,493.0" fill="#ffffff"></polygon>
<circle cx="513.1" cy="427.5" r="5" fill="#000000" stroke="#ffffff" stroke-width="0.6"></circle>
<text x="513.1" y="430.5" fill="#ffffff" font-size="7" text-anchor="middle" font-family="monospace">◇</text>
<text x="513.1" y="419.5" fill="#ffffff" font-size="6" text-anchor="middle" font-family="monospace">↑→↑↓</text>
<line x1="595.5" y1="525.0" x2="578.4" y2="525.0" stroke="#ffffff" stroke-width="1.5" opacity="1.0"></line>
<polygon points="578.4,525.0 586.4,521.8 586.4,528.2" fill="#ffffff"></polygon>
<circle cx="586.9" cy="525.0" r="5" fill="#000000" stroke="#ffffff" stroke-width="0.6"></circle>
<text x="586.9" y="528.0" fill="#ffffff" font-size="7" text-anchor="middle" font-family="monospace">×</text>
<text x="586.9" y="517.0" fill="#ffffff" font-size="6" text-anchor="middle" font-family="monospace">↑↓→↑↓</text>
<line x1="610.4" y1="498.5" x2="637.3" y2="356.5" stroke="#ffffff" stroke-width="1.5" opacity="1.0" stroke-dasharray="6,4"></line>
<polygon points="637.3,356.5 638.9,365.0 632.7,363.8" fill="#ffffff"></polygon>
<text x="623.8" y="419.5" fill="#ffffff" font-size="6" text-anchor="middle" font-family="monospace">↑↓→↑</text>
<line x1="795.0" y1="303.5" x2="821.9" y2="161.5" stroke="#ffffff" stroke-width="1.5" opacity="1.0"></line>
<polygon points="821.9,161.5 823.6,170.0 817.3,168.8" fill="#ffffff"></polygon>
<circle cx="808.5" cy="232.5" r="5" fill="#000000" stroke="#ffffff" stroke-width="0.6"></circle>
<text x="808.5" y="235.5" fill="#ffffff" font-size="7" text-anchor="middle" font-family="monospace">◇</text>
<text x="808.5" y="224.5" fill="#ffffff" font-size="6" text-anchor="middle" font-family="monospace">↑→↑</text>
<line x1="853.9" y1="135.0" x2="836.8" y2="135.0" stroke="#ffffff" stroke-width="1.5" opacity="1.0"></line>
<polygon points="836.8,135.0 844.8,131.8 844.8,138.2" fill="#ffffff"></polygon>
<circle cx="845.4" cy="135.0" r="5" fill="#000000" stroke="#ffffff" stroke-width="0.6"></circle>
<text x="845.4" y="138.0" fill="#ffffff" font-size="7" text-anchor="middle" font-family="monospace">+</text>
<text x="845.4" y="127.0" fill="#ffffff" font-size="6" text-anchor="middle" font-family="monospace">↑→↑</text>
<line x1="890.8" y1="135.0" x2="873.8" y2="135.0" stroke="#ffffff" stroke-width="1.5" opacity="1.0" stroke-dasharray="2,2"></line>
<polygon points="873.8,135.0 881.8,131.8 881.8,138.2" fill="#ffffff"></polygon>
<text x="882.3" y="127.0" fill="#ffffff" font-size="6" text-anchor="middle" font-family="monospace">↑→↑</text>
<line x1="910.3" y1="160.3" x2="965.1" y2="304.7" stroke="#ffffff" stroke-width="1.5" opacity="1.0" stroke-dasharray="2,2"></line>
<polygon points="965.1,304.7 959.2,298.4 965.2,296.1" fill="#ffffff"></polygon>
<text x="937.7" y="224.5" fill="#ffffff" font-size="6" text-anchor="middle" font-family="monospace">↑→↑</text>
<line x1="806.3" y1="351.5" x2="921.4" y2="503.5" stroke="#ffffff" stroke-width="1.5" opacity="1.0"></line>
<polygon points="921.4,503.5 914.0,499.0 919.1,495.2" fill="#ffffff"></polygon>
<circle cx="863.8" cy="427.5" r="5" fill="#000000" stroke="#ffffff" stroke-width="0.6"></circle>
<text x="863.8" y="430.5" fill="#ffffff" font-size="7" text-anchor="middle" font-family="monospace">◇</text>
<text x="863.8" y="419.5" fill="#ffffff" font-size="6" text-anchor="middle" font-family="monospace">↑→↑</text>
<line x1="942.7" y1="498.5" x2="969.6" y2="356.5" stroke="#ffffff" stroke-width="1.5" opacity="1.0"></line>
<polygon points="969.6,356.5 971.2,365.0 965.0,363.8" fill="#ffffff"></polygon>
<circle cx="956.2" cy="427.5" r="5" fill="#000000" stroke="#ffffff" stroke-width="0.6"></circle>
<text x="956.2" y="430.5" fill="#ffffff" font-size="7" text-anchor="middle" font-family="monospace">×</text>
<text x="956.2" y="419.5" fill="#ffffff" font-size="6" text-anchor="middle" font-family="monospace">↑→↑</text>
<line x1="115.5" y1="330.0" x2="98.4" y2="330.0" stroke="#ffffff" stroke-width="2.0" opacity="1.0"></line>
<polyline points="98.4,330.0 106.4,326.8 106.4,333.2" fill="none" stroke="#ffffff" stroke-width="1.0"></polyline>
<text x="106.9" y="322.0" fill="#ffffff" font-size="6" text-anchor="middle" font-family="monospace">↑</text>
<line x1="152.4" y1="330.0" x2="135.3" y2="330.0" stroke="#ffffff" stroke-width="2.0" opacity="1.0"></line>
<polygon points="152.4,330.0 144.4,333.2 144.4,326.8" fill="#ffffff"></polygon>
<circle cx="143.8" cy="330.0" r="5" fill="#000000" stroke="#ffffff" stroke-width="0.6"></circle>
<text x="143.8" y="333.0" fill="#ffffff" font-size="7" text-anchor="middle" font-family="monospace">←</text>
<text x="143.8" y="322.0" fill="#ffffff" font-size="6" text-anchor="middle" font-family="monospace">↑→↑</text>
<line x1="189.3" y1="330.0" x2="172.2" y2="330.0" stroke="#ffffff" stroke-width="2.5" opacity="1.0"></line>
<polygon points="172.2,330.0 180.2,326.8 180.2,333.2" fill="#ffffff"></polygon>
<text x="180.8" y="322.0" fill="#ffffff" font-size="6" text-anchor="middle" font-family="monospace">↑→</text>
<line x1="226.2" y1="328.4" x2="209.2" y2="328.4" stroke="#ffffff" stroke-width="2.0" opacity="1.0"></line>
<line x1="226.2" y1="331.6" x2="209.2" y2="331.6" stroke="#ffffff" stroke-width="2.0" opacity="1.0"></line>
<polygon points="209.2,330.0 217.2,326.8 217.2,333.2" fill="#ffffff"></polygon>
<text x="217.7" y="322.0" fill="#ffffff" font-size="6" text-anchor="middle" font-family="monospace">↓</text>
<line x1="263.2" y1="330.0" x2="246.1" y2="330.0" stroke="#ffffff" stroke-width="2.0" opacity="1.0" stroke-dasharray="6,4"></line>
<polygon points="246.1,330.0 254.1,326.8 254.1,333.2" fill="#ffffff"></polygon>
<text x="254.6" y="322.0" fill="#ffffff" font-size="6" text-anchor="middle" font-family="monospace">↓→↓</text>
<line x1="300.1" y1="330.0" x2="283.0" y2="330.0" stroke="#ffffff" stroke-width="2.0" opacity="1.0"></line>
<polygon points="300.1,330.0 292.1,333.2 292.1,326.8" fill="#ffffff"></polygon>
<circle cx="291.5" cy="330.0" r="5" fill="#000000" stroke="#ffffff" stroke-width="0.6"></circle>
<text x="291.5" y="333.0" fill="#ffffff" font-size="7" text-anchor="middle" font-family="monospace">←</text>
<text x="291.5" y="322.0" fill="#ffffff" font-size="6" text-anchor="middle" font-family="monospace">↓→↓</text>
<polyline points="706.2,326.0 698.2,334.0 690.2,326.0 689.2,330.0" fill="none" stroke="#ffffff" stroke-width="2.0"></polyline>
<polygon points="689.2,330.0 697.2,326.8 697.2,333.2" fill="#ffffff"></polygon>
<text x="697.7" y="322.0" fill="#ffffff" font-size="6" text-anchor="middle" font-family="monospace">↑→</text>
<line x1="743.2" y1="328.4" x2="726.1" y2="328.4" stroke="#ffffff" stroke-width="2.0" opacity="1.0"></line>
<line x1="743.2" y1="331.6" x2="726.1" y2="331.6" stroke="#ffffff" stroke-width="2.0" opacity="1.0"></line>
<polygon points="726.1,330.0 734.1,326.8 734.1,333.2" fill="#ffffff"></polygon>
<text x="734.6" y="322.0" fill="#ffffff" font-size="6" text-anchor="middle" font-family="monospace">↑</text>
<line x1="780.1" y1="330.0" x2="763.0" y2="330.0" stroke="#ffffff" stroke-width="2.0" opacity="1.0"></line>
<polygon points="780.1,330.0 772.1,333.2 772.1,326.8" fill="#ffffff"></polygon>
<circle cx="771.5" cy="330.0" r="5" fill="#000000" stroke="#ffffff" stroke-width="0.6"></circle>
<text x="771.5" y="333.0" fill="#ffffff" font-size="7" text-anchor="middle" font-family="monospace">←</text>
<text x="771.5" y="322.0" fill="#ffffff" font-size="6" text-anchor="middle" font-family="monospace">↑→↑</text>
<line x1="447.8" y1="330.0" x2="430.7" y2="330.0" stroke="#ffffff" stroke-width="1.5" opacity="1.0"></line>
<polygon points="430.7,330.0 438.7,326.8 438.7,333.2" fill="#ffffff"></polygon>
<circle cx="439.2" cy="330.0" r="5" fill="#000000" stroke="#ffffff" stroke-width="0.6"></circle>
<text x="439.2" y="333.0" fill="#ffffff" font-size="7" text-anchor="middle" font-family="monospace">●</text>
<text x="439.2" y="322.0" fill="#ffffff" font-size="6" text-anchor="middle" font-family="monospace">↑→↑</text>
<line x1="669.3" y1="330.0" x2="652.2" y2="330.0" stroke="#ffffff" stroke-width="1.5" opacity="1.0"></line>
<polygon points="652.2,330.0 660.2,326.8 660.2,333.2" fill="#ffffff"></polygon>
<circle cx="660.8" cy="330.0" r="5" fill="#000000" stroke="#ffffff" stroke-width="0.6"></circle>
<text x="660.8" y="333.0" fill="#ffffff" font-size="7" text-anchor="middle" font-family="monospace">●</text>
<text x="660.8" y="322.0" fill="#ffffff" font-size="6" text-anchor="middle" font-family="monospace">↑→↑</text>
<line x1="1001.6" y1="330.0" x2="984.5" y2="330.0" stroke="#ffffff" stroke-width="1.5" opacity="1.0"></line>
<polygon points="984.5,330.0 992.5,326.8 992.5,333.2" fill="#ffffff"></polygon>
<circle cx="993.1" cy="330.0" r="5" fill="#000000" stroke="#ffffff" stroke-width="0.6"></circle>
<text x="993.1" y="333.0" fill="#ffffff" font-size="7" text-anchor="middle" font-family="monospace">●</text>
<text x="993.1" y="322.0" fill="#ffffff" font-size="6" text-anchor="middle" font-family="monospace">↑→↑</text>
<circle fill="none" stroke="#ffffff" stroke-width="1.3" cx="88.5" cy="330.0" r="20.0"></circle>
<circle cx="64.5" cy="330.0" r="2.5" fill="#000000" stroke="#ffffff" stroke-width="0.8"></circle>
<circle cx="112.5" cy="330.0" r="2.5" fill="#ffffff"></circle>
<text x="88.5" y="304.0" fill="#ffffff" font-size="9" text-anchor="middle" font-family="monospace" font-weight="bold">VI</text>
<text x="88.5" y="362.0" fill="#ffffff" font-size="5" text-anchor="middle" font-family="monospace">VINIT</text>
<circle fill="none" stroke="#ffffff" stroke-width="1.3" cx="125.4" cy="330.0" r="20.0"></circle>
<circle cx="125.4" cy="330.0" r="8" fill="url(#hatch-T)" stroke="#ffffff" stroke-width="0.6"></circle>
<circle cx="101.4" cy="330.0" r="2.5" fill="#000000" stroke="#ffffff" stroke-width="0.8"></circle>
<circle cx="149.4" cy="330.0" r="2.5" fill="#ffffff"></circle>
<text x="125.4" y="304.0" fill="#ffffff" font-size="9" text-anchor="middle" font-family="monospace" font-weight="bold">IM</text>
<text x="125.4" y="362.0" fill="#ffffff" font-size="5" text-anchor="middle" font-family="monospace">IMSCRIB</text>
<circle fill="none" stroke="#ffffff" stroke-width="1.3" cx="162.3" cy="330.0" r="20.0"></circle>
<circle cx="162.3" cy="330.0" r="8" fill="url(#hatch-T)" stroke="#ffffff" stroke-width="0.6"></circle>
<circle cx="138.3" cy="330.0" r="2.5" fill="#000000" stroke="#ffffff" stroke-width="0.8"></circle>
<circle cx="186.3" cy="330.0" r="2.5" fill="#ffffff"></circle>
<text x="162.3" y="304.0" fill="#ffffff" font-size="9" text-anchor="middle" font-family="monospace" font-weight="bold">AF</text>
<text x="162.3" y="362.0" fill="#ffffff" font-size="5" text-anchor="middle" font-family="monospace">AFWD</text>
<circle fill="none" stroke="#ffffff" stroke-width="1.3" cx="199.2" cy="330.0" r="20.0"></circle>
<circle cx="175.2" cy="330.0" r="2.5" fill="#000000" stroke="#ffffff" stroke-width="0.8"></circle>
<circle cx="223.2" cy="330.0" r="2.5" fill="#ffffff"></circle>
<text x="199.2" y="304.0" fill="#ffffff" font-size="9" text-anchor="middle" font-family="monospace" font-weight="bold">CL</text>
<text x="199.2" y="362.0" fill="#ffffff" font-size="5" text-anchor="middle" font-family="monospace">CLINK</text>
<circle fill="none" stroke="#ffffff" stroke-width="1.3" cx="236.2" cy="330.0" r="20.0"></circle>
<circle cx="236.2" cy="330.0" r="8" fill="url(#hatch-F)" stroke="#ffffff" stroke-width="0.6"></circle>
<circle cx="212.2" cy="330.0" r="2.5" fill="#000000" stroke="#ffffff" stroke-width="0.8"></circle>
<circle cx="260.2" cy="330.0" r="2.5" fill="#ffffff"></circle>
<text x="236.2" y="304.0" fill="#ffffff" font-size="9" text-anchor="middle" font-family="monospace" font-weight="bold">AR</text>
<text x="236.2" y="362.0" fill="#ffffff" font-size="5" text-anchor="middle" font-family="monospace">AREV</text>
<circle fill="none" stroke="#ffffff" stroke-width="1.3" cx="273.1" cy="330.0" r="20.0"></circle>
<circle cx="273.1" cy="330.0" r="8" fill="url(#hatch-F)" stroke="#ffffff" stroke-width="0.6"></circle>
<circle cx="249.1" cy="330.0" r="2.5" fill="#000000" stroke="#ffffff" stroke-width="0.8"></circle>
<circle cx="297.1" cy="330.0" r="2.5" fill="#ffffff"></circle>
<text x="273.1" y="304.0" fill="#ffffff" font-size="9" text-anchor="middle" font-family="monospace" font-weight="bold">IM</text>
<text x="273.1" y="362.0" fill="#ffffff" font-size="5" text-anchor="middle" font-family="monospace">IMSCRIB</text>
<polygon fill="none" stroke="#ffffff" stroke-width="1.3" points="310.0,310.0 330.0,330 310.0,350.0 290.0,330"></polygon>
<circle cx="310.0" cy="330.0" r="8" fill="url(#hatch-F)" stroke="#ffffff" stroke-width="0.6"></circle>
<circle cx="286.0" cy="330.0" r="2.5" fill="#000000" stroke="#ffffff" stroke-width="0.8"></circle>
<circle cx="334.0" cy="330.0" r="2.5" fill="#ffffff"></circle>
<text x="310.0" y="304.0" fill="#ffffff" font-size="9" text-anchor="middle" font-family="monospace" font-weight="bold">FS</text>
<text x="310.0" y="362.0" fill="#ffffff" font-size="5" text-anchor="middle" font-family="monospace">FSPLIT</text>
<polygon fill="none" stroke="#ffffff" stroke-width="1.3" points="364.2,145.0 346.9,155.0 329.6,145.0 329.6,125.0 346.9,115.0 364.2,125.0"></polygon>
<circle cx="346.9" cy="135.0" r="8" fill="url(#hatch-B)" stroke="#ffffff" stroke-width="0.6"></circle>
<circle cx="322.9" cy="135.0" r="2.5" fill="#000000" stroke="#ffffff" stroke-width="0.8"></circle>
<circle cx="370.9" cy="135.0" r="2.5" fill="#ffffff"></circle>
<text x="346.9" y="109.0" fill="#ffffff" font-size="9" text-anchor="middle" font-family="monospace" font-weight="bold">ET</text>
<text x="346.9" y="167.0" fill="#ffffff" font-size="5" text-anchor="middle" font-family="monospace">EVALT</text>
<polygon fill="none" stroke="#ffffff" stroke-width="1.3" points="401.2,535.0 383.8,545.0 366.5,535.0 366.5,515.0 383.8,505.0 401.2,515.0"></polygon>
<circle cx="383.8" cy="525.0" r="8" fill="url(#hatch-B)" stroke="#ffffff" stroke-width="0.6"></circle>
<circle cx="359.8" cy="525.0" r="2.5" fill="#000000" stroke="#ffffff" stroke-width="0.8"></circle>
<circle cx="407.8" cy="525.0" r="2.5" fill="#ffffff"></circle>
<text x="383.8" y="499.0" fill="#ffffff" font-size="9" text-anchor="middle" font-family="monospace" font-weight="bold">EF</text>
<text x="383.8" y="557.0" fill="#ffffff" font-size="5" text-anchor="middle" font-family="monospace">EVALF</text>
<polygon fill="none" stroke="#ffffff" stroke-width="1.3" points="420.7692307692307,310.0 440.8,330 420.7692307692307,350.0 400.8,330"></polygon>
<circle cx="420.8" cy="330.0" r="8" fill="url(#hatch-T)" stroke="#ffffff" stroke-width="0.6"></circle>
<circle cx="396.8" cy="330.0" r="2.5" fill="#000000" stroke="#ffffff" stroke-width="0.8"></circle>
<circle cx="444.8" cy="330.0" r="2.5" fill="#ffffff"></circle>
<text x="420.8" y="304.0" fill="#ffffff" font-size="9" text-anchor="middle" font-family="monospace" font-weight="bold">FF</text>
<text x="420.8" y="362.0" fill="#ffffff" font-size="5" text-anchor="middle" font-family="monospace">FFUSE</text>
<polygon fill="none" stroke="#ffffff" stroke-width="1.3" points="457.6923076923076,310.0 477.7,330 457.6923076923076,350.0 437.7,330"></polygon>
<circle cx="457.7" cy="330.0" r="8" fill="url(#hatch-T)" stroke="#ffffff" stroke-width="0.6"></circle>
<circle cx="433.7" cy="330.0" r="2.5" fill="#000000" stroke="#ffffff" stroke-width="0.8"></circle>
<circle cx="481.7" cy="330.0" r="2.5" fill="#ffffff"></circle>
<text x="457.7" y="304.0" fill="#ffffff" font-size="9" text-anchor="middle" font-family="monospace" font-weight="bold">FS</text>
<text x="457.7" y="362.0" fill="#ffffff" font-size="5" text-anchor="middle" font-family="monospace">FSPLIT</text>
<polygon fill="none" stroke="#ffffff" stroke-width="1.3" points="511.9,145.0 494.6,155.0 477.3,145.0 477.3,125.0 494.6,115.0 511.9,125.0"></polygon>
<circle cx="494.6" cy="135.0" r="8" fill="url(#hatch-T)" stroke="#ffffff" stroke-width="0.6"></circle>
<circle cx="470.6" cy="135.0" r="2.5" fill="#000000" stroke="#ffffff" stroke-width="0.8"></circle>
<circle cx="518.6" cy="135.0" r="2.5" fill="#ffffff"></circle>
<text x="494.6" y="109.0" fill="#ffffff" font-size="9" text-anchor="middle" font-family="monospace" font-weight="bold">ET</text>
<text x="494.6" y="167.0" fill="#ffffff" font-size="5" text-anchor="middle" font-family="monospace">EVALT</text>
<circle fill="none" stroke="#ffffff" stroke-width="1.3" cx="531.5" cy="135.0" r="20.0"></circle>
<circle cx="531.5" cy="135.0" r="8" fill="url(#hatch-T)" stroke="#ffffff" stroke-width="0.6"></circle>
<circle cx="507.5" cy="135.0" r="2.5" fill="#000000" stroke="#ffffff" stroke-width="0.8"></circle>
<circle cx="555.5" cy="135.0" r="2.5" fill="#ffffff"></circle>
<text x="531.5" y="109.0" fill="#ffffff" font-size="9" text-anchor="middle" font-family="monospace" font-weight="bold">AF</text>
<text x="531.5" y="167.0" fill="#ffffff" font-size="5" text-anchor="middle" font-family="monospace">AFWD</text>
<polygon fill="none" stroke="#ffffff" stroke-width="1.3" points="585.8,535.0 568.5,545.0 551.1,535.0 551.1,515.0 568.5,505.0 585.8,515.0"></polygon>
<circle cx="568.5" cy="525.0" r="8" fill="url(#hatch-B)" stroke="#ffffff" stroke-width="0.6"></circle>
<circle cx="544.5" cy="525.0" r="2.5" fill="#000000" stroke="#ffffff" stroke-width="0.8"></circle>
<circle cx="592.5" cy="525.0" r="2.5" fill="#ffffff"></circle>
<text x="568.5" y="499.0" fill="#ffffff" font-size="9" text-anchor="middle" font-family="monospace" font-weight="bold">EF</text>
<text x="568.5" y="557.0" fill="#ffffff" font-size="5" text-anchor="middle" font-family="monospace">EVALF</text>
<circle fill="none" stroke="#ffffff" stroke-width="1.3" cx="605.4" cy="525.0" r="20.0"></circle>
<circle cx="605.4" cy="525.0" r="8" fill="url(#hatch-B)" stroke="#ffffff" stroke-width="0.6"></circle>
<circle cx="581.4" cy="525.0" r="2.5" fill="#000000" stroke="#ffffff" stroke-width="0.8"></circle>
<circle cx="629.4" cy="525.0" r="2.5" fill="#ffffff"></circle>
<text x="605.4" y="499.0" fill="#ffffff" font-size="9" text-anchor="middle" font-family="monospace" font-weight="bold">AR</text>
<text x="605.4" y="557.0" fill="#ffffff" font-size="5" text-anchor="middle" font-family="monospace">AREV</text>
<polygon fill="none" stroke="#ffffff" stroke-width="1.3" points="642.3076923076923,310.0 662.3,330 642.3076923076923,350.0 622.3,330"></polygon>
<circle cx="642.3" cy="330.0" r="8" fill="url(#hatch-T)" stroke="#ffffff" stroke-width="0.6"></circle>
<circle cx="618.3" cy="330.0" r="2.5" fill="#000000" stroke="#ffffff" stroke-width="0.8"></circle>
<circle cx="666.3" cy="330.0" r="2.5" fill="#ffffff"></circle>
<text x="642.3" y="304.0" fill="#ffffff" font-size="9" text-anchor="middle" font-family="monospace" font-weight="bold">FF</text>
<text x="642.3" y="362.0" fill="#ffffff" font-size="5" text-anchor="middle" font-family="monospace">FFUSE</text>
<polygon fill="none" stroke="#ffffff" stroke-width="1.3" points="696.6,340.0 679.2,350.0 661.9,340.0 661.9,320.0 679.2,310.0 696.6,320.0"></polygon>
<circle cx="679.2" cy="330.0" r="8" fill="url(#hatch-T)" stroke="#ffffff" stroke-width="0.6"></circle>
<circle cx="655.2" cy="330.0" r="2.5" fill="#000000" stroke="#ffffff" stroke-width="0.8"></circle>
<circle cx="703.2" cy="330.0" r="2.5" fill="#ffffff"></circle>
<text x="679.2" y="304.0" fill="#ffffff" font-size="9" text-anchor="middle" font-family="monospace" font-weight="bold">EG</text>
<text x="679.2" y="362.0" fill="#ffffff" font-size="5" text-anchor="middle" font-family="monospace">ENGAGR</text>
<circle fill="none" stroke="#ffffff" stroke-width="1.3" cx="716.2" cy="330.0" r="20.0"></circle>
<circle cx="692.2" cy="330.0" r="2.5" fill="#000000" stroke="#ffffff" stroke-width="0.8"></circle>
<circle cx="740.2" cy="330.0" r="2.5" fill="#ffffff"></circle>
<text x="716.2" y="304.0" fill="#ffffff" font-size="9" text-anchor="middle" font-family="monospace" font-weight="bold">CL</text>
<text x="716.2" y="362.0" fill="#ffffff" font-size="5" text-anchor="middle" font-family="monospace">CLINK</text>
<circle fill="none" stroke="#ffffff" stroke-width="1.3" cx="753.1" cy="330.0" r="20.0"></circle>
<circle cx="753.1" cy="330.0" r="8" fill="url(#hatch-T)" stroke="#ffffff" stroke-width="0.6"></circle>
<circle cx="729.1" cy="330.0" r="2.5" fill="#000000" stroke="#ffffff" stroke-width="0.8"></circle>
<circle cx="777.1" cy="330.0" r="2.5" fill="#ffffff"></circle>
<text x="753.1" y="304.0" fill="#ffffff" font-size="9" text-anchor="middle" font-family="monospace" font-weight="bold">IM</text>
<text x="753.1" y="362.0" fill="#ffffff" font-size="5" text-anchor="middle" font-family="monospace">IMSCRIB</text>
<polygon fill="none" stroke="#ffffff" stroke-width="1.3" points="789.9999999999999,310.0 810.0,330 789.9999999999999,350.0 770.0,330"></polygon>
<circle cx="790.0" cy="330.0" r="8" fill="url(#hatch-T)" stroke="#ffffff" stroke-width="0.6"></circle>
<circle cx="766.0" cy="330.0" r="2.5" fill="#000000" stroke="#ffffff" stroke-width="0.8"></circle>
<circle cx="814.0" cy="330.0" r="2.5" fill="#ffffff"></circle>
<text x="790.0" y="304.0" fill="#ffffff" font-size="9" text-anchor="middle" font-family="monospace" font-weight="bold">FS</text>
<text x="790.0" y="362.0" fill="#ffffff" font-size="5" text-anchor="middle" font-family="monospace">FSPLIT</text>
<polygon fill="none" stroke="#ffffff" stroke-width="1.3" points="844.2,145.0 826.9,155.0 809.6,145.0 809.6,125.0 826.9,115.0 844.2,125.0"></polygon>
<circle cx="826.9" cy="135.0" r="8" fill="url(#hatch-T)" stroke="#ffffff" stroke-width="0.6"></circle>
<circle cx="802.9" cy="135.0" r="2.5" fill="#000000" stroke="#ffffff" stroke-width="0.8"></circle>
<circle cx="850.9" cy="135.0" r="2.5" fill="#ffffff"></circle>
<text x="826.9" y="109.0" fill="#ffffff" font-size="9" text-anchor="middle" font-family="monospace" font-weight="bold">ET</text>
<text x="826.9" y="167.0" fill="#ffffff" font-size="5" text-anchor="middle" font-family="monospace">EVALT</text>
<rect fill="none" stroke="#ffffff" stroke-width="1.3" x="843.8" y="115.0" width="40.0" height="40.0"></rect>
<circle cx="863.8" cy="135.0" r="8" fill="url(#hatch-T)" stroke="#ffffff" stroke-width="0.6"></circle>
<circle cx="839.8" cy="135.0" r="2.5" fill="#000000" stroke="#ffffff" stroke-width="0.8"></circle>
<circle cx="887.8" cy="135.0" r="2.5" fill="#ffffff"></circle>
<text x="863.8" y="109.0" fill="#ffffff" font-size="9" text-anchor="middle" font-family="monospace" font-weight="bold">IX</text>
<text x="863.8" y="167.0" fill="#ffffff" font-size="5" text-anchor="middle" font-family="monospace">IFIX</text>
<rect fill="none" stroke="#ffffff" stroke-width="1.3" x="880.8" y="115.0" width="40.0" height="40.0"></rect>
<circle cx="900.8" cy="135.0" r="8" fill="url(#hatch-T)" stroke="#ffffff" stroke-width="0.6"></circle>
<circle cx="876.8" cy="135.0" r="2.5" fill="#000000" stroke="#ffffff" stroke-width="0.8"></circle>
<circle cx="924.8" cy="135.0" r="2.5" fill="#ffffff"></circle>
<text x="900.8" y="109.0" fill="#ffffff" font-size="9" text-anchor="middle" font-family="monospace" font-weight="bold">IX</text>
<text x="900.8" y="167.0" fill="#ffffff" font-size="5" text-anchor="middle" font-family="monospace">IFIX</text>
<polygon fill="none" stroke="#ffffff" stroke-width="1.3" points="955.0,535.0 937.7,545.0 920.4,535.0 920.4,515.0 937.7,505.0 955.0,515.0"></polygon>
<circle cx="937.7" cy="525.0" r="8" fill="url(#hatch-T)" stroke="#ffffff" stroke-width="0.6"></circle>
<circle cx="913.7" cy="525.0" r="2.5" fill="#000000" stroke="#ffffff" stroke-width="0.8"></circle>
<circle cx="961.7" cy="525.0" r="2.5" fill="#ffffff"></circle>
<text x="937.7" y="499.0" fill="#ffffff" font-size="9" text-anchor="middle" font-family="monospace" font-weight="bold">EF</text>
<text x="937.7" y="557.0" fill="#ffffff" font-size="5" text-anchor="middle" font-family="monospace">EVALF</text>
<polygon fill="none" stroke="#ffffff" stroke-width="1.3" points="974.6153846153845,310.0 994.6,330 974.6153846153845,350.0 954.6,330"></polygon>
<circle cx="974.6" cy="330.0" r="8" fill="url(#hatch-T)" stroke="#ffffff" stroke-width="0.6"></circle>
<circle cx="950.6" cy="330.0" r="2.5" fill="#000000" stroke="#ffffff" stroke-width="0.8"></circle>
<circle cx="998.6" cy="330.0" r="2.5" fill="#ffffff"></circle>
<text x="974.6" y="304.0" fill="#ffffff" font-size="9" text-anchor="middle" font-family="monospace" font-weight="bold">FF</text>
<text x="974.6" y="362.0" fill="#ffffff" font-size="5" text-anchor="middle" font-family="monospace">FFUSE</text>
<circle fill="none" stroke="#ffffff" stroke-width="1.3" cx="1011.5" cy="330.0" r="20.0"></circle>
<circle cx="1011.5" cy="330.0" r="8" fill="url(#hatch-T)" stroke="#ffffff" stroke-width="0.6"></circle>
<circle cx="987.5" cy="330.0" r="2.5" fill="#000000" stroke="#ffffff" stroke-width="0.8"></circle>
<circle cx="1035.5" cy="330.0" r="2.5" fill="#ffffff"></circle>
<text x="1011.5" y="304.0" fill="#ffffff" font-size="9" text-anchor="middle" font-family="monospace" font-weight="bold">TA</text>
<text x="1011.5" y="362.0" fill="#ffffff" font-size="5" text-anchor="middle" font-family="monospace">TANCH</text>
<path d="M 984.5,310.0 C 984.5,252.0 152.4,252.0 152.4,310.0" fill="none" stroke="#ffffff" stroke-width="1.0"></path>
<polygon points="152.4,310.0 149.2,302.0 155.6,302.0" fill="#ffffff"></polygon>
<text x="568.5" y="248.0" fill="#ffffff" font-size="7" text-anchor="middle" font-family="monospace">O₁</text>
<text x="14.0" y="72.0" fill="#ffffff" font-size="6" text-anchor="start" font-family="monospace" font-weight="bold">EDGES</text>
<line x1="14.0" y1="82.0" x2="36.0" y2="82.0" stroke="#ffffff" stroke-width="1.5" opacity="0.7"></line>
<text x="42.0" y="84.0" fill="#ffffff" font-size="5" text-anchor="start" font-family="monospace">VI</text>
<line x1="14.0" y1="91.5" x2="36.0" y2="91.5" stroke="#ffffff" stroke-width="1.5" opacity="0.7" stroke-dasharray="5,2,1,2,1,2"></line>
<text x="42.0" y="93.5" fill="#ffffff" font-size="5" text-anchor="start" font-family="monospace">TA</text>
<line x1="14.0" y1="101.0" x2="36.0" y2="101.0" stroke="#ffffff" stroke-width="2.0" opacity="0.7"></line>
<text x="42.0" y="103.0" fill="#ffffff" font-size="5" text-anchor="start" font-family="monospace">AF</text>
<line x1="14.0" y1="110.5" x2="36.0" y2="110.5" stroke="#ffffff" stroke-width="1.5" opacity="0.7" stroke-dasharray="6,4"></line>
<text x="42.0" y="112.5" fill="#ffffff" font-size="5" text-anchor="start" font-family="monospace">AR</text>
<line x1="14.0" y1="119.0" x2="36.0" y2="119.0" stroke="#ffffff" stroke-width="1.0" opacity="0.7"></line>
<line x1="14.0" y1="121.0" x2="36.0" y2="121.0" stroke="#ffffff" stroke-width="1.0" opacity="0.7"></line>
<text x="42.0" y="122.0" fill="#ffffff" font-size="5" text-anchor="start" font-family="monospace">CL</text>
<line x1="14.0" y1="129.5" x2="36.0" y2="129.5" stroke="#ffffff" stroke-width="1.5" opacity="0.7"></line>
<text x="42.0" y="131.5" fill="#ffffff" font-size="5" text-anchor="start" font-family="monospace">IM</text>
<line x1="14.0" y1="139.0" x2="36.0" y2="139.0" stroke="#ffffff" stroke-width="1.5" opacity="0.7"></line>
<text x="42.0" y="141.0" fill="#ffffff" font-size="5" text-anchor="start" font-family="monospace">FS</text>
<line x1="14.0" y1="148.5" x2="36.0" y2="148.5" stroke="#ffffff" stroke-width="1.5" opacity="0.7"></line>
<text x="42.0" y="150.5" fill="#ffffff" font-size="5" text-anchor="start" font-family="monospace">FF</text>
<line x1="14.0" y1="158.0" x2="36.0" y2="158.0" stroke="#ffffff" stroke-width="1.5" opacity="0.7"></line>
<text x="42.0" y="160.0" fill="#ffffff" font-size="5" text-anchor="start" font-family="monospace">ET</text>
<line x1="14.0" y1="167.5" x2="36.0" y2="167.5" stroke="#ffffff" stroke-width="1.5" opacity="0.7"></line>
<text x="42.0" y="169.5" fill="#ffffff" font-size="5" text-anchor="start" font-family="monospace">EF</text>
<polyline points="14.0,179.0 18.0,175.0 22.0,179.0 26.0,175.0 30.0,179.0 34.0,175.0 36.0,177.0" fill="none" stroke="#ffffff" stroke-width="1.0"></polyline>
<text x="42.0" y="179.0" fill="#ffffff" font-size="5" text-anchor="start" font-family="monospace">EG</text>
<line x1="14.0" y1="186.5" x2="36.0" y2="186.5" stroke="#ffffff" stroke-width="1.5" opacity="0.7" stroke-dasharray="2,2"></line>
<text x="42.0" y="188.5" fill="#ffffff" font-size="5" text-anchor="start" font-family="monospace">IX</text>
<text x="14.0" y="195.0" fill="#ffffff" font-size="6" text-anchor="start" font-family="monospace" font-weight="bold">GUARD</text>
<circle cx="17" cy="206" r="2.5" fill="#000000" stroke="#ffffff" stroke-width="0.8"></circle>
<text x="24.0" y="208.0" fill="#ffffff" font-size="5" text-anchor="start" font-family="monospace">in</text>
<circle cx="17" cy="216" r="2.5" fill="#ffffff"></circle>
<text x="24.0" y="218.0" fill="#ffffff" font-size="5" text-anchor="start" font-family="monospace">out</text>
<text x="14.0" y="231.0" fill="#ffffff" font-size="6" text-anchor="start" font-family="monospace" font-weight="bold">NODES</text>
<circle fill="none" stroke="#ffffff" stroke-width="1.0" cx="18.0" cy="246.0" r="4.0"></circle>
<text x="28.0" y="248.0" fill="#ffffff" font-size="5" text-anchor="start" font-family="monospace">LOGI</text>
<polygon fill="none" stroke="#ffffff" stroke-width="1.0" points="18,254.0 22.0,258 18,262.0 14.0,258"></polygon>
<text x="28.0" y="260.0" fill="#ffffff" font-size="5" text-anchor="start" font-family="monospace">FROB</text>
<polygon fill="none" stroke="#ffffff" stroke-width="1.0" points="21.5,272.0 18.0,274.0 14.5,272.0 14.5,268.0 18.0,266.0 21.5,268.0"></polygon>
<text x="28.0" y="272.0" fill="#ffffff" font-size="5" text-anchor="start" font-family="monospace">DIAL</text>
<rect fill="none" stroke="#ffffff" stroke-width="1.0" x="14.0" y="278.0" width="8.0" height="8.0"></rect>
<text x="28.0" y="284.0" fill="#ffffff" font-size="5" text-anchor="start" font-family="monospace">LINE</text>
<text x="14.0" y="294.0" fill="#ffffff" font-size="6" text-anchor="start" font-family="monospace" font-weight="bold">PAIRS</text>
<circle cx="18" cy="306" r="5" fill="#000000" stroke="#ffffff" stroke-width="0.8"></circle>
<text x="18.0" y="309.0" fill="#ffffff" font-size="6" text-anchor="middle" font-family="monospace">1</text>
<text x="28.0" y="308.0" fill="#ffffff" font-size="5" text-anchor="start" font-family="monospace">pair</text>
<text x="14.0" y="324.0" fill="#ffffff" font-size="6" text-anchor="start" font-family="monospace" font-weight="bold">REG Δ</text>
<text x="14.0" y="336.0" fill="#ffffff" font-size="5" text-anchor="start" font-family="monospace">↑ T</text>
<text x="14.0" y="345.0" fill="#ffffff" font-size="5" text-anchor="start" font-family="monospace">↓ F</text>
<text x="14.0" y="354.0" fill="#ffffff" font-size="5" text-anchor="start" font-family="monospace">↑↓ B</text>
<text x="610.0" y="708.0" fill="#ffffff" font-size="7" text-anchor="middle" font-family="monospace">Ouroboricity: O₁</text>
</svg>