<svg xmlns="http://www.w3.org/2000/svg" viewBox="0 0 1100 720">
<rect width="1100" height="720" fill="#0a0a15"/>
<line x1="0.0" y1="0.0" x2="0.0" y2="720.0" stroke="#151525" stroke-width="0.4" opacity="0.25"></line>
<line x1="40.0" y1="0.0" x2="40.0" y2="720.0" stroke="#151525" stroke-width="0.4" opacity="0.25"></line>
<line x1="80.0" y1="0.0" x2="80.0" y2="720.0" stroke="#151525" stroke-width="0.4" opacity="0.25"></line>
<line x1="120.0" y1="0.0" x2="120.0" y2="720.0" stroke="#151525" stroke-width="0.4" opacity="0.25"></line>
<line x1="160.0" y1="0.0" x2="160.0" y2="720.0" stroke="#151525" stroke-width="0.4" opacity="0.25"></line>
<line x1="200.0" y1="0.0" x2="200.0" y2="720.0" stroke="#151525" stroke-width="0.4" opacity="0.25"></line>
<line x1="240.0" y1="0.0" x2="240.0" y2="720.0" stroke="#151525" stroke-width="0.4" opacity="0.25"></line>
<line x1="280.0" y1="0.0" x2="280.0" y2="720.0" stroke="#151525" stroke-width="0.4" opacity="0.25"></line>
<line x1="320.0" y1="0.0" x2="320.0" y2="720.0" stroke="#151525" stroke-width="0.4" opacity="0.25"></line>
<line x1="360.0" y1="0.0" x2="360.0" y2="720.0" stroke="#151525" stroke-width="0.4" opacity="0.25"></line>
<line x1="400.0" y1="0.0" x2="400.0" y2="720.0" stroke="#151525" stroke-width="0.4" opacity="0.25"></line>
<line x1="440.0" y1="0.0" x2="440.0" y2="720.0" stroke="#151525" stroke-width="0.4" opacity="0.25"></line>
<line x1="480.0" y1="0.0" x2="480.0" y2="720.0" stroke="#151525" stroke-width="0.4" opacity="0.25"></line>
<line x1="520.0" y1="0.0" x2="520.0" y2="720.0" stroke="#151525" stroke-width="0.4" opacity="0.25"></line>
<line x1="560.0" y1="0.0" x2="560.0" y2="720.0" stroke="#151525" stroke-width="0.4" opacity="0.25"></line>
<line x1="600.0" y1="0.0" x2="600.0" y2="720.0" stroke="#151525" stroke-width="0.4" opacity="0.25"></line>
<line x1="640.0" y1="0.0" x2="640.0" y2="720.0" stroke="#151525" stroke-width="0.4" opacity="0.25"></line>
<line x1="680.0" y1="0.0" x2="680.0" y2="720.0" stroke="#151525" stroke-width="0.4" opacity="0.25"></line>
<line x1="720.0" y1="0.0" x2="720.0" y2="720.0" stroke="#151525" stroke-width="0.4" opacity="0.25"></line>
<line x1="760.0" y1="0.0" x2="760.0" y2="720.0" stroke="#151525" stroke-width="0.4" opacity="0.25"></line>
<line x1="800.0" y1="0.0" x2="800.0" y2="720.0" stroke="#151525" stroke-width="0.4" opacity="0.25"></line>
<line x1="840.0" y1="0.0" x2="840.0" y2="720.0" stroke="#151525" stroke-width="0.4" opacity="0.25"></line>
<line x1="880.0" y1="0.0" x2="880.0" y2="720.0" stroke="#151525" stroke-width="0.4" opacity="0.25"></line>
<line x1="920.0" y1="0.0" x2="920.0" y2="720.0" stroke="#151525" stroke-width="0.4" opacity="0.25"></line>
<line x1="960.0" y1="0.0" x2="960.0" y2="720.0" stroke="#151525" stroke-width="0.4" opacity="0.25"></line>
<line x1="1000.0" y1="0.0" x2="1000.0" y2="720.0" stroke="#151525" stroke-width="0.4" opacity="0.25"></line>
<line x1="1040.0" y1="0.0" x2="1040.0" y2="720.0" stroke="#151525" stroke-width="0.4" opacity="0.25"></line>
<line x1="1080.0" y1="0.0" x2="1080.0" y2="720.0" stroke="#151525" stroke-width="0.4" opacity="0.25"></line>
<line x1="0.0" y1="0.0" x2="1100.0" y2="0.0" stroke="#151525" stroke-width="0.4" opacity="0.25"></line>
<line x1="0.0" y1="40.0" x2="1100.0" y2="40.0" stroke="#151525" stroke-width="0.4" opacity="0.25"></line>
<line x1="0.0" y1="80.0" x2="1100.0" y2="80.0" stroke="#151525" stroke-width="0.4" opacity="0.25"></line>
<line x1="0.0" y1="120.0" x2="1100.0" y2="120.0" stroke="#151525" stroke-width="0.4" opacity="0.25"></line>
<line x1="0.0" y1="160.0" x2="1100.0" y2="160.0" stroke="#151525" stroke-width="0.4" opacity="0.25"></line>
<line x1="0.0" y1="200.0" x2="1100.0" y2="200.0" stroke="#151525" stroke-width="0.4" opacity="0.25"></line>
<line x1="0.0" y1="240.0" x2="1100.0" y2="240.0" stroke="#151525" stroke-width="0.4" opacity="0.25"></line>
<line x1="0.0" y1="280.0" x2="1100.0" y2="280.0" stroke="#151525" stroke-width="0.4" opacity="0.25"></line>
<line x1="0.0" y1="320.0" x2="1100.0" y2="320.0" stroke="#151525" stroke-width="0.4" opacity="0.25"></line>
<line x1="0.0" y1="360.0" x2="1100.0" y2="360.0" stroke="#151525" stroke-width="0.4" opacity="0.25"></line>
<line x1="0.0" y1="400.0" x2="1100.0" y2="400.0" stroke="#151525" stroke-width="0.4" opacity="0.25"></line>
<line x1="0.0" y1="440.0" x2="1100.0" y2="440.0" stroke="#151525" stroke-width="0.4" opacity="0.25"></line>
<line x1="0.0" y1="480.0" x2="1100.0" y2="480.0" stroke="#151525" stroke-width="0.4" opacity="0.25"></line>
<line x1="0.0" y1="520.0" x2="1100.0" y2="520.0" stroke="#151525" stroke-width="0.4" opacity="0.25"></line>
<line x1="0.0" y1="560.0" x2="1100.0" y2="560.0" stroke="#151525" stroke-width="0.4" opacity="0.25"></line>
<line x1="0.0" y1="600.0" x2="1100.0" y2="600.0" stroke="#151525" stroke-width="0.4" opacity="0.25"></line>
<line x1="0.0" y1="640.0" x2="1100.0" y2="640.0" stroke="#151525" stroke-width="0.4" opacity="0.25"></line>
<line x1="0.0" y1="680.0" x2="1100.0" y2="680.0" stroke="#151525" stroke-width="0.4" opacity="0.25"></line>
<text x="550.0" y="26.0" fill="#cccccc" font-size="13" text-anchor="middle" font-family="monospace" font-weight="bold">structural imscription of the matrix-free Levenberg-Marquardt descent at d=2048: Gauss-Newton on the residual vector of all 4194303 Weyl-Heisenberg overlap conditions, with Jacobian and adjoint actions as FFT passes over the ambiguity function (adjoint identity exact to 1e-16), damped normal equations solved by conjugate gradients inside the 683-dimensional Zauner sector. The curvature of the residual vector navigates the valley the scalar objective hides; validated to a machine-precision d=12 SIC at 3e-16. The true-branch traversal of the geometric lift, driving toward the deep-vanish floor. With full Frobenius closure and Lean 4 verification scaffold.</text>
<text x="550.0" y="41.0" fill="#777" font-size="7" text-anchor="middle" font-family="monospace">Auto-designed from: structural imscription of the matrix-free Levenberg-Marquardt descent at d=2048: Gauss-Newton on the residual vector of all 4194303 Wey</text>
<text x="22.0" y="190.0" fill="#20c0b0" font-size="7" text-anchor="middle" font-family="monospace">T-lane</text>
<text x="22.0" y="135.0" fill="#20c0b0" font-size="7" text-anchor="middle" font-family="monospace">T[d1]</text>
<text x="22.0" y="470.0" fill="#e04060" font-size="7" text-anchor="middle" font-family="monospace">F-lane</text>
<text x="22.0" y="525.0" fill="#e04060" font-size="7" text-anchor="middle" font-family="monospace">F[d1]</text>
<text x="22.0" y="330.0" fill="#555" font-size="7" text-anchor="middle" font-family="monospace">main</text>
<line x1="863.8" y1="103.0" x2="863.8" y2="557.0" stroke="#cc3344" stroke-width="1.8" opacity="0.4" stroke-dasharray="6,4"></line>
<text x="863.8" y="93.0" fill="#cc3344" font-size="7" text-anchor="middle" font-family="monospace" font-weight="bold">IFIX</text>
<polygon points="863.8461538461538,99.0 867.8,103 863.8461538461538,107.0 859.8,103" fill="#cc3344" opacity="0.6"></polygon>
<polygon points="863.8461538461538,553.0 867.8,557 863.8461538461538,561.0 859.8,557" fill="#cc3344" opacity="0.6"></polygon>
<line x1="315.4" y1="301.5" x2="333.4" y2="301.5" stroke="#5b9bd5" stroke-width="1.4" opacity="0.55"></line>
<line x1="333.4" y1="301.5" x2="333.4" y2="163.5" stroke="#5b9bd5" stroke-width="1.4" opacity="0.55"></line>
<line x1="333.4" y1="163.5" x2="333.5" y2="163.5" stroke="#5b9bd5" stroke-width="1.4" opacity="0.55"></line>
<polygon points="341.5,163.5 333.5,166.7 333.5,160.3" fill="#5b9bd5" opacity="0.55"></polygon>
<rect x="320.5" y="220.5" width="16.0" height="10" fill="#0a0a15" opacity="0.7" rx="3"></rect>
<text x="328.5" y="228.5" fill="#ffd700" font-size="6" text-anchor="middle" font-family="monospace">↓→↑↓</text>
<line x1="357.2" y1="162.1" x2="375.9" y2="162.1" stroke="#20d0b8" stroke-width="1.3" opacity="0.55"></line>
<line x1="375.9" y1="162.1" x2="375.9" y2="302.9" stroke="#20d0b8" stroke-width="1.3" opacity="0.55"></line>
<line x1="375.9" y1="302.9" x2="402.5" y2="302.9" stroke="#20d0b8" stroke-width="1.3" opacity="0.55"></line>
<polygon points="410.5,302.9 402.5,306.1 402.5,299.7" fill="#20d0b8" opacity="0.55"></polygon>
<rect x="375.8" y="220.5" width="16.0" height="10" fill="#0a0a15" opacity="0.7" rx="3"></rect>
<text x="383.8" y="228.5" fill="#ffd700" font-size="6" text-anchor="middle" font-family="monospace">↑↓→↑</text>
<line x1="320.3" y1="357.1" x2="346.9" y2="357.1" stroke="#2b6b9f" stroke-width="1.4" opacity="0.55"></line>
<line x1="346.9" y1="357.1" x2="346.9" y2="497.9" stroke="#2b6b9f" stroke-width="1.4" opacity="0.55"></line>
<line x1="346.9" y1="497.9" x2="365.6" y2="497.9" stroke="#2b6b9f" stroke-width="1.4" opacity="0.55"></line>
<polygon points="373.6,497.9 365.6,501.1 365.6,494.7" fill="#2b6b9f" opacity="0.55"></polygon>
<rect x="338.9" y="415.5" width="16.0" height="10" fill="#0a0a15" opacity="0.7" rx="3"></rect>
<text x="346.9" y="423.5" fill="#ffd700" font-size="6" text-anchor="middle" font-family="monospace">↓→↑↓</text>
<line x1="389.2" y1="496.5" x2="407.2" y2="496.5" stroke="#ff6688" stroke-width="1.3" opacity="0.55"></line>
<line x1="407.2" y1="496.5" x2="407.2" y2="358.5" stroke="#ff6688" stroke-width="1.3" opacity="0.55"></line>
<line x1="407.2" y1="358.5" x2="407.4" y2="358.5" stroke="#ff6688" stroke-width="1.3" opacity="0.55"></line>
<polygon points="415.4,358.5 407.4,361.7 407.4,355.3" fill="#ff6688" opacity="0.55"></polygon>
<rect x="394.3" y="415.5" width="16.0" height="10" fill="#0a0a15" opacity="0.7" rx="3"></rect>
<text x="402.3" y="423.5" fill="#ffd700" font-size="6" text-anchor="middle" font-family="monospace">↑↓→↑</text>
<line x1="463.1" y1="301.5" x2="481.1" y2="301.5" stroke="#ed7d31" stroke-width="1.4" opacity="0.55"></line>
<line x1="481.1" y1="301.5" x2="481.1" y2="163.5" stroke="#ed7d31" stroke-width="1.4" opacity="0.55"></line>
<line x1="481.1" y1="163.5" x2="481.2" y2="163.5" stroke="#ed7d31" stroke-width="1.4" opacity="0.55"></line>
<polygon points="489.2,163.5 481.2,166.7 481.2,160.3" fill="#ed7d31" opacity="0.55"></polygon>
<line x1="523.6" y1="135.0" x2="510.5" y2="135.0" stroke="#20d0b8" stroke-width="1.3" opacity="0.55"></line>
<polygon points="502.5,135.0 510.5,131.8 510.5,138.2" fill="#20d0b8" opacity="0.55"></polygon>
<line x1="545.9" y1="160.2" x2="582.6" y2="160.2" stroke="#59a14f" stroke-width="1.3" opacity="0.55"></line>
<line x1="582.6" y1="160.2" x2="582.6" y2="304.8" stroke="#59a14f" stroke-width="1.3" opacity="0.55"></line>
<line x1="582.6" y1="304.8" x2="620.0" y2="304.8" stroke="#59a14f" stroke-width="1.3" opacity="0.55"></line>
<polygon points="628.0,304.8 620.0,308.0 620.0,301.6" fill="#59a14f" opacity="0.55"></polygon>
<line x1="472.0" y1="355.2" x2="508.8" y2="355.2" stroke="#b85a1c" stroke-width="1.4" opacity="0.55"></line>
<line x1="508.8" y1="355.2" x2="508.8" y2="499.8" stroke="#b85a1c" stroke-width="1.4" opacity="0.55"></line>
<line x1="508.8" y1="499.8" x2="546.1" y2="499.8" stroke="#b85a1c" stroke-width="1.4" opacity="0.55"></line>
<polygon points="554.1,499.8 546.1,503.0 546.1,496.6" fill="#b85a1c" opacity="0.55"></polygon>
<rect x="505.1" y="415.5" width="16.0" height="10" fill="#0a0a15" opacity="0.7" rx="3"></rect>
<text x="513.1" y="423.5" fill="#ffd700" font-size="6" text-anchor="middle" font-family="monospace">↑→↑↓</text>
<line x1="597.5" y1="525.0" x2="584.4" y2="525.0" stroke="#ff6688" stroke-width="1.3" opacity="0.55"></line>
<polygon points="576.4,525.0 584.4,521.8 584.4,528.2" fill="#ff6688" opacity="0.55"></polygon>
<rect x="576.9" y="513.0" width="20.0" height="10" fill="#0a0a15" opacity="0.7" rx="3"></rect>
<text x="586.9" y="521.0" fill="#666688" font-size="6" text-anchor="middle" font-family="monospace">↑↓→↑↓</text>
<line x1="610.8" y1="496.5" x2="636.8" y2="496.5" stroke="#e15759" stroke-width="1.3" opacity="0.55"></line>
<line x1="636.8" y1="496.5" x2="636.8" y2="358.5" stroke="#e15759" stroke-width="1.3" opacity="0.55"></line>
<rect x="615.8" y="415.5" width="16.0" height="10" fill="#0a0a15" opacity="0.7" rx="3"></rect>
<text x="623.8" y="423.5" fill="#ffd700" font-size="6" text-anchor="middle" font-family="monospace">↑↓→↑</text>
<line x1="795.4" y1="301.5" x2="813.4" y2="301.5" stroke="#70ad47" stroke-width="1.4" opacity="0.55"></line>
<line x1="813.4" y1="301.5" x2="813.4" y2="163.5" stroke="#70ad47" stroke-width="1.4" opacity="0.55"></line>
<line x1="813.4" y1="163.5" x2="813.5" y2="163.5" stroke="#70ad47" stroke-width="1.4" opacity="0.55"></line>
<polygon points="821.5,163.5 813.5,166.7 813.5,160.3" fill="#70ad47" opacity="0.55"></polygon>
<line x1="855.9" y1="135.0" x2="842.8" y2="135.0" stroke="#20d0b8" stroke-width="1.3" opacity="0.55"></line>
<polygon points="834.8,135.0 842.8,131.8 842.8,138.2" fill="#20d0b8" opacity="0.55"></polygon>
<line x1="892.8" y1="135.0" x2="879.8" y2="135.0" stroke="#cc3344" stroke-width="1.3" opacity="0.55"></line>
<polygon points="871.8,135.0 879.8,131.8 879.8,138.2" fill="#cc3344" opacity="0.55"></polygon>
<line x1="911.0" y1="162.1" x2="929.7" y2="162.1" stroke="#cc3344" stroke-width="1.3" opacity="0.55"></line>
<line x1="929.7" y1="162.1" x2="929.7" y2="302.9" stroke="#cc3344" stroke-width="1.3" opacity="0.55"></line>
<line x1="929.7" y1="302.9" x2="956.3" y2="302.9" stroke="#cc3344" stroke-width="1.3" opacity="0.55"></line>
<polygon points="964.3,302.9 956.3,306.1 956.3,299.7" fill="#cc3344" opacity="0.55"></polygon>
<line x1="807.5" y1="353.1" x2="850.5" y2="353.1" stroke="#4a7a2e" stroke-width="1.4" opacity="0.55"></line>
<line x1="850.5" y1="353.1" x2="850.5" y2="501.9" stroke="#4a7a2e" stroke-width="1.4" opacity="0.55"></line>
<line x1="850.5" y1="501.9" x2="912.2" y2="501.9" stroke="#4a7a2e" stroke-width="1.4" opacity="0.55"></line>
<polygon points="920.2,501.9 912.2,505.1 912.2,498.7" fill="#4a7a2e" opacity="0.55"></polygon>
<line x1="943.1" y1="496.5" x2="961.1" y2="496.5" stroke="#ff6688" stroke-width="1.3" opacity="0.55"></line>
<line x1="961.1" y1="496.5" x2="961.1" y2="358.5" stroke="#ff6688" stroke-width="1.3" opacity="0.55"></line>
<line x1="961.1" y1="358.5" x2="961.2" y2="358.5" stroke="#ff6688" stroke-width="1.3" opacity="0.55"></line>
<polygon points="969.2,358.5 961.2,361.7 961.2,355.3" fill="#ff6688" opacity="0.55"></polygon>
<line x1="117.5" y1="330.0" x2="104.4" y2="330.0" stroke="#6baed6" stroke-width="1.3" opacity="0.75"></line>
<polygon points="96.4,330.0 104.4,326.8 104.4,333.2" fill="#6baed6" opacity="0.75"></polygon>
<rect x="104.9" y="318.0" width="4.0" height="10" fill="#0a0a15" opacity="0.7" rx="3"></rect>
<text x="106.9" y="326.0" fill="#20b888" font-size="6" text-anchor="middle" font-family="monospace">↑</text>
<line x1="154.4" y1="330.0" x2="141.3" y2="330.0" stroke="#ffd700" stroke-width="1.3" opacity="0.75"></line>
<polygon points="133.3,330.0 141.3,326.8 141.3,333.2" fill="#ffd700" opacity="0.75"></polygon>
<line x1="191.3" y1="330.0" x2="178.2" y2="330.0" stroke="#59a14f" stroke-width="1.3" opacity="0.75"></line>
<polygon points="170.2,330.0 178.2,326.8 178.2,333.2" fill="#59a14f" opacity="0.75"></polygon>
<rect x="176.8" y="318.0" width="8.0" height="10" fill="#0a0a15" opacity="0.7" rx="3"></rect>
<text x="180.8" y="326.0" fill="#20b888" font-size="6" text-anchor="middle" font-family="monospace">↑→</text>
<line x1="228.2" y1="333.5" x2="216.2" y2="333.5" stroke="#f28e2b" stroke-width="1.0" opacity="0.75"></line>
<line x1="228.2" y1="326.5" x2="216.2" y2="326.5" stroke="#f28e2b" stroke-width="1.0" opacity="0.75"></line>
<polygon points="207.2,330.0 217.2,326.0 217.2,334.0" fill="#f28e2b" opacity="0.75"></polygon>
<rect x="215.7" y="318.0" width="4.0" height="10" fill="#0a0a15" opacity="0.7" rx="3"></rect>
<text x="217.7" y="326.0" fill="#20b888" font-size="6" text-anchor="middle" font-family="monospace">↓</text>
<line x1="265.2" y1="330.0" x2="252.1" y2="330.0" stroke="#e15759" stroke-width="1.3" opacity="0.75"></line>
<polygon points="244.1,330.0 252.1,326.8 252.1,333.2" fill="#e15759" opacity="0.75"></polygon>
<line x1="302.1" y1="330.0" x2="289.0" y2="330.0" stroke="#ffd700" stroke-width="1.3" opacity="0.75"></line>
<polygon points="281.0,330.0 289.0,326.8 289.0,333.2" fill="#ffd700" opacity="0.75"></polygon>
<line x1="708.2" y1="330.0" x2="695.2" y2="330.0" stroke="#e15759" stroke-width="1.3" opacity="0.75"></line>
<polygon points="687.2,330.0 695.2,326.8 695.2,333.2" fill="#e15759" opacity="0.75"></polygon>
<rect x="693.7" y="318.0" width="8.0" height="10" fill="#0a0a15" opacity="0.7" rx="3"></rect>
<text x="697.7" y="326.0" fill="#20b888" font-size="6" text-anchor="middle" font-family="monospace">↑→</text>
<line x1="745.2" y1="333.5" x2="733.1" y2="333.5" stroke="#f28e2b" stroke-width="1.0" opacity="0.75"></line>
<line x1="745.2" y1="326.5" x2="733.1" y2="326.5" stroke="#f28e2b" stroke-width="1.0" opacity="0.75"></line>
<polygon points="724.1,330.0 734.1,326.0 734.1,334.0" fill="#f28e2b" opacity="0.75"></polygon>
<rect x="732.6" y="318.0" width="4.0" height="10" fill="#0a0a15" opacity="0.7" rx="3"></rect>
<text x="734.6" y="326.0" fill="#20b888" font-size="6" text-anchor="middle" font-family="monospace">↑</text>
<line x1="782.1" y1="330.0" x2="769.0" y2="330.0" stroke="#ffd700" stroke-width="1.3" opacity="0.75"></line>
<polygon points="761.0,330.0 769.0,326.8 769.0,333.2" fill="#ffd700" opacity="0.75"></polygon>
<line x1="449.8" y1="330.0" x2="436.7" y2="330.0" stroke="#ffd700" stroke-width="1.3" opacity="0.55"></line>
<polygon points="428.7,330.0 436.7,326.8 436.7,333.2" fill="#ffd700" opacity="0.55"></polygon>
<line x1="671.3" y1="330.0" x2="658.2" y2="330.0" stroke="#ffd700" stroke-width="1.3" opacity="0.55"></line>
<polygon points="650.2,330.0 658.2,326.8 658.2,333.2" fill="#ffd700" opacity="0.55"></polygon>
<line x1="1003.6" y1="330.0" x2="990.5" y2="330.0" stroke="#ffd700" stroke-width="1.3" opacity="0.55"></line>
<polygon points="982.5,330.0 990.5,326.8 990.5,333.2" fill="#ffd700" opacity="0.55"></polygon>
<circle cx="88.5" cy="330.0" r="22.0" fill="#4e79a7" stroke="#ffffff20" stroke-width="1.0"></circle>
<text x="88.5" y="300.0" fill="#cccccc" font-size="8" text-anchor="middle" font-family="monospace" font-weight="bold">VI</text>
<text x="88.5" y="364.0" fill="#888" font-size="5.5" text-anchor="middle" font-family="monospace">VINIT</text>
<circle cx="111.5" cy="330.0" r="2.5" fill="#ffffff90" stroke-width="0"></circle>
<circle cx="125.4" cy="330.0" r="22.0" fill="#4e79a7" stroke="#ffffff20" stroke-width="1.0"></circle>
<circle cx="125.4" cy="330.0" r="12.1" fill="#153530" stroke-width="0"></circle>
<text x="125.4" y="332.0" fill="#20b2aa" font-size="7" text-anchor="middle" font-family="monospace" font-weight="bold">↑</text>
<text x="125.4" y="300.0" fill="#cccccc" font-size="8" text-anchor="middle" font-family="monospace" font-weight="bold">IM</text>
<text x="125.4" y="364.0" fill="#888" font-size="5.5" text-anchor="middle" font-family="monospace">IMSCRIB</text>
<circle cx="102.4" cy="330.0" r="2.5" fill="#ffffff60" stroke-width="0"></circle>
<circle cx="148.4" cy="330.0" r="2.5" fill="#ffffff90" stroke-width="0"></circle>
<circle cx="162.3" cy="330.0" r="22.0" fill="#4e79a7" stroke="#ffffff20" stroke-width="1.0"></circle>
<circle cx="162.3" cy="330.0" r="12.1" fill="#153530" stroke-width="0"></circle>
<text x="162.3" y="332.0" fill="#20b2aa" font-size="7" text-anchor="middle" font-family="monospace" font-weight="bold">↑</text>
<text x="162.3" y="300.0" fill="#cccccc" font-size="8" text-anchor="middle" font-family="monospace" font-weight="bold">AF</text>
<text x="162.3" y="364.0" fill="#888" font-size="5.5" text-anchor="middle" font-family="monospace">AFWD</text>
<circle cx="139.3" cy="330.0" r="2.5" fill="#ffffff60" stroke-width="0"></circle>
<circle cx="185.3" cy="330.0" r="2.5" fill="#ffffff90" stroke-width="0"></circle>
<circle cx="199.2" cy="330.0" r="22.0" fill="#4e79a7" stroke="#ffffff20" stroke-width="1.0"></circle>
<text x="199.2" y="300.0" fill="#cccccc" font-size="8" text-anchor="middle" font-family="monospace" font-weight="bold">CL</text>
<text x="199.2" y="364.0" fill="#888" font-size="5.5" text-anchor="middle" font-family="monospace">CLINK</text>
<circle cx="176.2" cy="330.0" r="2.5" fill="#ffffff60" stroke-width="0"></circle>
<circle cx="222.2" cy="330.0" r="2.5" fill="#ffffff90" stroke-width="0"></circle>
<circle cx="236.2" cy="330.0" r="22.0" fill="#4e79a7" stroke="#ffffff20" stroke-width="1.0"></circle>
<circle cx="236.2" cy="330.0" r="12.1" fill="#301518" stroke-width="0"></circle>
<text x="236.2" y="332.0" fill="#cc4455" font-size="7" text-anchor="middle" font-family="monospace" font-weight="bold">↓</text>
<text x="236.2" y="300.0" fill="#cccccc" font-size="8" text-anchor="middle" font-family="monospace" font-weight="bold">AR</text>
<text x="236.2" y="364.0" fill="#888" font-size="5.5" text-anchor="middle" font-family="monospace">AREV</text>
<circle cx="213.2" cy="330.0" r="2.5" fill="#ffffff60" stroke-width="0"></circle>
<circle cx="259.2" cy="330.0" r="2.5" fill="#ffffff90" stroke-width="0"></circle>
<circle cx="273.1" cy="330.0" r="22.0" fill="#4e79a7" stroke="#ffffff20" stroke-width="1.0"></circle>
<circle cx="273.1" cy="330.0" r="12.1" fill="#301518" stroke-width="0"></circle>
<text x="273.1" y="332.0" fill="#cc4455" font-size="7" text-anchor="middle" font-family="monospace" font-weight="bold">↓</text>
<text x="273.1" y="300.0" fill="#cccccc" font-size="8" text-anchor="middle" font-family="monospace" font-weight="bold">IM</text>
<text x="273.1" y="364.0" fill="#888" font-size="5.5" text-anchor="middle" font-family="monospace">IMSCRIB</text>
<circle cx="250.1" cy="330.0" r="2.5" fill="#ffffff60" stroke-width="0"></circle>
<circle cx="296.1" cy="330.0" r="2.5" fill="#ffffff90" stroke-width="0"></circle>
<polygon points="310.0,308.0 332.0,330 310.0,352.0 288.0,330" fill="#ffd700" stroke="#ffffff20" stroke-width="1.0"></polygon>
<circle cx="310.0" cy="330.0" r="12.1" fill="#301518" stroke-width="0"></circle>
<text x="310.0" y="332.0" fill="#cc4455" font-size="7" text-anchor="middle" font-family="monospace" font-weight="bold">↓</text>
<text x="310.0" y="300.0" fill="#cccccc" font-size="8" text-anchor="middle" font-family="monospace" font-weight="bold">FS</text>
<text x="310.0" y="364.0" fill="#888" font-size="5.5" text-anchor="middle" font-family="monospace">FSPLIT</text>
<circle cx="287.0" cy="330.0" r="2.5" fill="#ffffff60" stroke-width="0"></circle>
<circle cx="333.0" cy="323.0" r="2.5" fill="#ffffff90" stroke-width="0"></circle>
<circle cx="333.0" cy="337.0" r="2.5" fill="#ffffff90" stroke-width="0"></circle>
<polygon points="366.0,146.0 346.9,157.0 327.9,146.0 327.9,124.0 346.9,113.0 366.0,124.0" fill="#e15759" stroke="#ffffff20" stroke-width="1.0"></polygon>
<circle cx="346.9" cy="135.0" r="12.1" fill="#332200" stroke-width="0"></circle>
<text x="346.9" y="137.0" fill="#ffd700" font-size="7" text-anchor="middle" font-family="monospace" font-weight="bold">↑↓</text>
<text x="346.9" y="105.0" fill="#cccccc" font-size="8" text-anchor="middle" font-family="monospace" font-weight="bold">ET</text>
<text x="346.9" y="169.0" fill="#888" font-size="5.5" text-anchor="middle" font-family="monospace">EVALT</text>
<circle cx="323.9" cy="135.0" r="3.5" fill="#f28e2b" stroke-width="0.8"></circle>
<circle cx="369.9" cy="135.0" r="3.5" fill="#59a14f" stroke-width="0.9"></circle>
<polygon points="402.9,536.0 383.8,547.0 364.8,536.0 364.8,514.0 383.8,503.0 402.9,514.0" fill="#e15759" stroke="#ffffff20" stroke-width="1.0"></polygon>
<circle cx="383.8" cy="525.0" r="12.1" fill="#332200" stroke-width="0"></circle>
<text x="383.8" y="527.0" fill="#ffd700" font-size="7" text-anchor="middle" font-family="monospace" font-weight="bold">↑↓</text>
<text x="383.8" y="495.0" fill="#cccccc" font-size="8" text-anchor="middle" font-family="monospace" font-weight="bold">EF</text>
<text x="383.8" y="559.0" fill="#888" font-size="5.5" text-anchor="middle" font-family="monospace">EVALF</text>
<circle cx="360.8" cy="525.0" r="3.5" fill="#f28e2b" stroke-width="0.8"></circle>
<circle cx="406.8" cy="525.0" r="3.5" fill="#59a14f" stroke-width="0.9"></circle>
<polygon points="420.7692307692307,308.0 442.8,330 420.7692307692307,352.0 398.8,330" fill="#ffd700" stroke="#ffffff20" stroke-width="1.0"></polygon>
<circle cx="420.8" cy="330.0" r="12.1" fill="#153530" stroke-width="0"></circle>
<text x="420.8" y="332.0" fill="#20b2aa" font-size="7" text-anchor="middle" font-family="monospace" font-weight="bold">↑</text>
<text x="420.8" y="300.0" fill="#cccccc" font-size="8" text-anchor="middle" font-family="monospace" font-weight="bold">FF</text>
<text x="420.8" y="364.0" fill="#888" font-size="5.5" text-anchor="middle" font-family="monospace">FFUSE</text>
<circle cx="397.8" cy="323.0" r="2.5" fill="#ffffff60" stroke-width="0"></circle>
<circle cx="397.8" cy="337.0" r="2.5" fill="#ffffff60" stroke-width="0"></circle>
<circle cx="443.8" cy="330.0" r="2.5" fill="#ffffff90" stroke-width="0"></circle>
<polygon points="457.6923076923076,308.0 479.7,330 457.6923076923076,352.0 435.7,330" fill="#ffd700" stroke="#ffffff20" stroke-width="1.0"></polygon>
<circle cx="457.7" cy="330.0" r="12.1" fill="#153530" stroke-width="0"></circle>
<text x="457.7" y="332.0" fill="#20b2aa" font-size="7" text-anchor="middle" font-family="monospace" font-weight="bold">↑</text>
<text x="457.7" y="300.0" fill="#cccccc" font-size="8" text-anchor="middle" font-family="monospace" font-weight="bold">FS</text>
<text x="457.7" y="364.0" fill="#888" font-size="5.5" text-anchor="middle" font-family="monospace">FSPLIT</text>
<circle cx="434.7" cy="330.0" r="2.5" fill="#ffffff60" stroke-width="0"></circle>
<circle cx="480.7" cy="323.0" r="2.5" fill="#ffffff90" stroke-width="0"></circle>
<circle cx="480.7" cy="337.0" r="2.5" fill="#ffffff90" stroke-width="0"></circle>
<polygon points="513.7,146.0 494.6,157.0 475.6,146.0 475.6,124.0 494.6,113.0 513.7,124.0" fill="#e15759" stroke="#ffffff20" stroke-width="1.0"></polygon>
<circle cx="494.6" cy="135.0" r="12.1" fill="#153530" stroke-width="0"></circle>
<text x="494.6" y="137.0" fill="#20b2aa" font-size="7" text-anchor="middle" font-family="monospace" font-weight="bold">↑</text>
<text x="494.6" y="105.0" fill="#cccccc" font-size="8" text-anchor="middle" font-family="monospace" font-weight="bold">ET</text>
<text x="494.6" y="169.0" fill="#888" font-size="5.5" text-anchor="middle" font-family="monospace">EVALT</text>
<circle cx="471.6" cy="135.0" r="3.5" fill="#f28e2b" stroke-width="0.8"></circle>
<circle cx="517.6" cy="135.0" r="3.5" fill="#59a14f" stroke-width="0.9"></circle>
<circle cx="531.5" cy="135.0" r="22.0" fill="#4e79a7" stroke="#ffffff20" stroke-width="1.0"></circle>
<circle cx="531.5" cy="135.0" r="12.1" fill="#153530" stroke-width="0"></circle>
<text x="531.5" y="137.0" fill="#20b2aa" font-size="7" text-anchor="middle" font-family="monospace" font-weight="bold">↑</text>
<text x="531.5" y="105.0" fill="#cccccc" font-size="8" text-anchor="middle" font-family="monospace" font-weight="bold">AF</text>
<text x="531.5" y="169.0" fill="#888" font-size="5.5" text-anchor="middle" font-family="monospace">AFWD</text>
<circle cx="508.5" cy="135.0" r="2.5" fill="#ffffff60" stroke-width="0"></circle>
<circle cx="554.5" cy="135.0" r="2.5" fill="#ffffff90" stroke-width="0"></circle>
<polygon points="587.5,536.0 568.5,547.0 549.4,536.0 549.4,514.0 568.5,503.0 587.5,514.0" fill="#e15759" stroke="#ffffff20" stroke-width="1.0"></polygon>
<circle cx="568.5" cy="525.0" r="12.1" fill="#332200" stroke-width="0"></circle>
<text x="568.5" y="527.0" fill="#ffd700" font-size="7" text-anchor="middle" font-family="monospace" font-weight="bold">↑↓</text>
<text x="568.5" y="495.0" fill="#cccccc" font-size="8" text-anchor="middle" font-family="monospace" font-weight="bold">EF</text>
<text x="568.5" y="559.0" fill="#888" font-size="5.5" text-anchor="middle" font-family="monospace">EVALF</text>
<circle cx="545.5" cy="525.0" r="3.5" fill="#f28e2b" stroke-width="0.8"></circle>
<circle cx="591.5" cy="525.0" r="3.5" fill="#59a14f" stroke-width="0.9"></circle>
<circle cx="605.4" cy="525.0" r="22.0" fill="#4e79a7" stroke="#ffffff20" stroke-width="1.0"></circle>
<circle cx="605.4" cy="525.0" r="12.1" fill="#332200" stroke-width="0"></circle>
<text x="605.4" y="527.0" fill="#ffd700" font-size="7" text-anchor="middle" font-family="monospace" font-weight="bold">↑↓</text>
<text x="605.4" y="495.0" fill="#cccccc" font-size="8" text-anchor="middle" font-family="monospace" font-weight="bold">AR</text>
<text x="605.4" y="559.0" fill="#888" font-size="5.5" text-anchor="middle" font-family="monospace">AREV</text>
<circle cx="582.4" cy="525.0" r="2.5" fill="#ffffff60" stroke-width="0"></circle>
<circle cx="628.4" cy="525.0" r="2.5" fill="#ffffff90" stroke-width="0"></circle>
<polygon points="642.3076923076923,308.0 664.3,330 642.3076923076923,352.0 620.3,330" fill="#ffd700" stroke="#ffffff20" stroke-width="1.0"></polygon>
<circle cx="642.3" cy="330.0" r="12.1" fill="#153530" stroke-width="0"></circle>
<text x="642.3" y="332.0" fill="#20b2aa" font-size="7" text-anchor="middle" font-family="monospace" font-weight="bold">↑</text>
<text x="642.3" y="300.0" fill="#cccccc" font-size="8" text-anchor="middle" font-family="monospace" font-weight="bold">FF</text>
<text x="642.3" y="364.0" fill="#888" font-size="5.5" text-anchor="middle" font-family="monospace">FFUSE</text>
<circle cx="619.3" cy="323.0" r="2.5" fill="#ffffff60" stroke-width="0"></circle>
<circle cx="619.3" cy="337.0" r="2.5" fill="#ffffff60" stroke-width="0"></circle>
<circle cx="665.3" cy="330.0" r="2.5" fill="#ffffff90" stroke-width="0"></circle>
<polygon points="698.3,341.0 679.2,352.0 660.2,341.0 660.2,319.0 679.2,308.0 698.3,319.0" fill="#e15759" stroke="#ffffff20" stroke-width="1.0"></polygon>
<circle cx="679.2" cy="330.0" r="12.1" fill="#153530" stroke-width="0"></circle>
<text x="679.2" y="332.0" fill="#20b2aa" font-size="7" text-anchor="middle" font-family="monospace" font-weight="bold">↑</text>
<text x="679.2" y="300.0" fill="#cccccc" font-size="8" text-anchor="middle" font-family="monospace" font-weight="bold">EG</text>
<text x="679.2" y="364.0" fill="#888" font-size="5.5" text-anchor="middle" font-family="monospace">ENGAGR</text>
<circle cx="656.2" cy="330.0" r="2.5" fill="#ffffff60" stroke-width="0"></circle>
<circle cx="702.2" cy="330.0" r="2.5" fill="#ffffff90" stroke-width="0"></circle>
<circle cx="716.2" cy="330.0" r="22.0" fill="#4e79a7" stroke="#ffffff20" stroke-width="1.0"></circle>
<text x="716.2" y="300.0" fill="#cccccc" font-size="8" text-anchor="middle" font-family="monospace" font-weight="bold">CL</text>
<text x="716.2" y="364.0" fill="#888" font-size="5.5" text-anchor="middle" font-family="monospace">CLINK</text>
<circle cx="693.2" cy="330.0" r="2.5" fill="#ffffff60" stroke-width="0"></circle>
<circle cx="739.2" cy="330.0" r="2.5" fill="#ffffff90" stroke-width="0"></circle>
<circle cx="753.1" cy="330.0" r="22.0" fill="#4e79a7" stroke="#ffffff20" stroke-width="1.0"></circle>
<circle cx="753.1" cy="330.0" r="12.1" fill="#153530" stroke-width="0"></circle>
<text x="753.1" y="332.0" fill="#20b2aa" font-size="7" text-anchor="middle" font-family="monospace" font-weight="bold">↑</text>
<text x="753.1" y="300.0" fill="#cccccc" font-size="8" text-anchor="middle" font-family="monospace" font-weight="bold">IM</text>
<text x="753.1" y="364.0" fill="#888" font-size="5.5" text-anchor="middle" font-family="monospace">IMSCRIB</text>
<circle cx="730.1" cy="330.0" r="2.5" fill="#ffffff60" stroke-width="0"></circle>
<circle cx="776.1" cy="330.0" r="2.5" fill="#ffffff90" stroke-width="0"></circle>
<polygon points="789.9999999999999,308.0 812.0,330 789.9999999999999,352.0 768.0,330" fill="#ffd700" stroke="#ffffff20" stroke-width="1.0"></polygon>
<circle cx="790.0" cy="330.0" r="12.1" fill="#153530" stroke-width="0"></circle>
<text x="790.0" y="332.0" fill="#20b2aa" font-size="7" text-anchor="middle" font-family="monospace" font-weight="bold">↑</text>
<text x="790.0" y="300.0" fill="#cccccc" font-size="8" text-anchor="middle" font-family="monospace" font-weight="bold">FS</text>
<text x="790.0" y="364.0" fill="#888" font-size="5.5" text-anchor="middle" font-family="monospace">FSPLIT</text>
<circle cx="767.0" cy="330.0" r="2.5" fill="#ffffff60" stroke-width="0"></circle>
<circle cx="813.0" cy="323.0" r="2.5" fill="#ffffff90" stroke-width="0"></circle>
<circle cx="813.0" cy="337.0" r="2.5" fill="#ffffff90" stroke-width="0"></circle>
<polygon points="846.0,146.0 826.9,157.0 807.9,146.0 807.9,124.0 826.9,113.0 846.0,124.0" fill="#e15759" stroke="#ffffff20" stroke-width="1.0"></polygon>
<circle cx="826.9" cy="135.0" r="12.1" fill="#153530" stroke-width="0"></circle>
<text x="826.9" y="137.0" fill="#20b2aa" font-size="7" text-anchor="middle" font-family="monospace" font-weight="bold">↑</text>
<text x="826.9" y="105.0" fill="#cccccc" font-size="8" text-anchor="middle" font-family="monospace" font-weight="bold">ET</text>
<text x="826.9" y="169.0" fill="#888" font-size="5.5" text-anchor="middle" font-family="monospace">EVALT</text>
<circle cx="803.9" cy="135.0" r="3.5" fill="#f28e2b" stroke-width="0.8"></circle>
<circle cx="849.9" cy="135.0" r="3.5" fill="#59a14f" stroke-width="0.9"></circle>
<rect x="841.8" y="113.0" width="44.0" height="44.0" fill="#59a14f" stroke="#ffffff20" stroke-width="1.0"></rect>
<circle cx="863.8" cy="135.0" r="12.1" fill="#153530" stroke-width="0"></circle>
<text x="863.8" y="137.0" fill="#20b2aa" font-size="7" text-anchor="middle" font-family="monospace" font-weight="bold">↑</text>
<text x="863.8" y="105.0" fill="#cccccc" font-size="8" text-anchor="middle" font-family="monospace" font-weight="bold">IX</text>
<text x="863.8" y="169.0" fill="#888" font-size="5.5" text-anchor="middle" font-family="monospace">IFIX</text>
<circle cx="840.8" cy="135.0" r="2.5" fill="#ffffff60" stroke-width="0"></circle>
<circle cx="886.8" cy="135.0" r="2.5" fill="#ffffff90" stroke-width="0"></circle>
<rect x="878.8" y="113.0" width="44.0" height="44.0" fill="#59a14f" stroke="#ffffff20" stroke-width="1.0"></rect>
<circle cx="900.8" cy="135.0" r="12.1" fill="#153530" stroke-width="0"></circle>
<text x="900.8" y="137.0" fill="#20b2aa" font-size="7" text-anchor="middle" font-family="monospace" font-weight="bold">↑</text>
<text x="900.8" y="105.0" fill="#cccccc" font-size="8" text-anchor="middle" font-family="monospace" font-weight="bold">IX</text>
<text x="900.8" y="169.0" fill="#888" font-size="5.5" text-anchor="middle" font-family="monospace">IFIX</text>
<circle cx="877.8" cy="135.0" r="2.5" fill="#ffffff60" stroke-width="0"></circle>
<circle cx="923.8" cy="135.0" r="2.5" fill="#ffffff90" stroke-width="0"></circle>
<polygon points="956.7,536.0 937.7,547.0 918.6,536.0 918.6,514.0 937.7,503.0 956.7,514.0" fill="#e15759" stroke="#ffffff20" stroke-width="1.0"></polygon>
<circle cx="937.7" cy="525.0" r="12.1" fill="#153530" stroke-width="0"></circle>
<text x="937.7" y="527.0" fill="#20b2aa" font-size="7" text-anchor="middle" font-family="monospace" font-weight="bold">↑</text>
<text x="937.7" y="495.0" fill="#cccccc" font-size="8" text-anchor="middle" font-family="monospace" font-weight="bold">EF</text>
<text x="937.7" y="559.0" fill="#888" font-size="5.5" text-anchor="middle" font-family="monospace">EVALF</text>
<circle cx="914.7" cy="525.0" r="3.5" fill="#f28e2b" stroke-width="0.8"></circle>
<circle cx="960.7" cy="525.0" r="3.5" fill="#59a14f" stroke-width="0.9"></circle>
<polygon points="974.6153846153845,308.0 996.6,330 974.6153846153845,352.0 952.6,330" fill="#ffd700" stroke="#ffffff20" stroke-width="1.0"></polygon>
<circle cx="974.6" cy="330.0" r="12.1" fill="#153530" stroke-width="0"></circle>
<text x="974.6" y="332.0" fill="#20b2aa" font-size="7" text-anchor="middle" font-family="monospace" font-weight="bold">↑</text>
<text x="974.6" y="300.0" fill="#cccccc" font-size="8" text-anchor="middle" font-family="monospace" font-weight="bold">FF</text>
<text x="974.6" y="364.0" fill="#888" font-size="5.5" text-anchor="middle" font-family="monospace">FFUSE</text>
<circle cx="951.6" cy="323.0" r="2.5" fill="#ffffff60" stroke-width="0"></circle>
<circle cx="951.6" cy="337.0" r="2.5" fill="#ffffff60" stroke-width="0"></circle>
<circle cx="997.6" cy="330.0" r="2.5" fill="#ffffff90" stroke-width="0"></circle>
<circle cx="1011.5" cy="330.0" r="22.0" fill="#4e79a7" stroke="#ffffff20" stroke-width="1.0"></circle>
<circle cx="1011.5" cy="330.0" r="12.1" fill="#153530" stroke-width="0"></circle>
<text x="1011.5" y="332.0" fill="#20b2aa" font-size="7" text-anchor="middle" font-family="monospace" font-weight="bold">↑</text>
<text x="1011.5" y="300.0" fill="#cccccc" font-size="8" text-anchor="middle" font-family="monospace" font-weight="bold">TA</text>
<text x="1011.5" y="364.0" fill="#888" font-size="5.5" text-anchor="middle" font-family="monospace">TANCH</text>
<circle cx="988.5" cy="330.0" r="2.5" fill="#ffffff60" stroke-width="0"></circle>
<circle cx="1034.5" cy="330.0" r="2.5" fill="#ffffff90" stroke-width="0"></circle>
<text x="70.0" y="52.0" fill="#666" font-size="6" text-anchor="start" font-family="monospace" font-weight="bold">NODES</text>
<circle cx="110.0" cy="59.0" r="4.5" fill="#4e79a7" stroke-width="0"></circle>
<text x="120.0" y="62.0" fill="#4e79a7" font-size="5" text-anchor="start" font-family="monospace">LOGI</text>
<polygon points="158,54.5 162.5,59 158,63.5 153.5,59" fill="#ffd700" stroke="#ffffff20" stroke-width="1.0"></polygon>
<text x="168.0" y="62.0" fill="#ffd700" font-size="5" text-anchor="start" font-family="monospace">FROB</text>
<polygon points="209.9,61.2 206.0,63.5 202.1,61.2 202.1,56.8 206.0,54.5 209.9,56.8" fill="#e15759" stroke="#ffffff20" stroke-width="1.0"></polygon>
<text x="216.0" y="62.0" fill="#e15759" font-size="5" text-anchor="start" font-family="monospace">DIAL</text>
<rect x="249.5" y="54.5" width="9.0" height="9.0" fill="#59a14f" stroke="#ffffff20" stroke-width="1.0"></rect>
<text x="264.0" y="62.0" fill="#59a14f" font-size="5" text-anchor="start" font-family="monospace">LINE</text>
<text x="312.0" y="52.0" fill="#666" font-size="6" text-anchor="start" font-family="monospace" font-weight="bold">EDGES</text>
<line x1="350.0" y1="59.0" x2="364.0" y2="59.0" stroke="#59a14f" stroke-width="1.5" opacity="0.7"></line>
<text x="368.0" y="62.0" fill="#59a14f" font-size="5" text-anchor="start" font-family="monospace">AFWD</text>
<line x1="402.0" y1="59.0" x2="416.0" y2="59.0" stroke="#e15759" stroke-width="1.5" opacity="0.7"></line>
<text x="420.0" y="62.0" fill="#e15759" font-size="5" text-anchor="start" font-family="monospace">AREV</text>
<line x1="454.0" y1="59.0" x2="468.0" y2="59.0" stroke="#f28e2b" stroke-width="1.5" opacity="0.7"></line>
<text x="472.0" y="62.0" fill="#f28e2b" font-size="5" text-anchor="start" font-family="monospace">CLINK</text>
<line x1="506.0" y1="59.0" x2="520.0" y2="59.0" stroke="#b07aa1" stroke-width="1.5" opacity="0.7" stroke-dasharray="4,3"></line>
<text x="524.0" y="62.0" fill="#b07aa1" font-size="5" text-anchor="start" font-family="monospace">TANCH</text>
<line x1="558.0" y1="59.0" x2="572.0" y2="59.0" stroke="#ffd700" stroke-width="1.5" opacity="0.7"></line>
<text x="576.0" y="62.0" fill="#ffd700" font-size="5" text-anchor="start" font-family="monospace">IMSC</text>
<line x1="610.0" y1="59.0" x2="624.0" y2="59.0" stroke="#cc3344" stroke-width="1.5" opacity="0.7"></line>
<text x="628.0" y="62.0" fill="#cc3344" font-size="5" text-anchor="start" font-family="monospace">IFIX</text>
<text x="70.0" y="72.0" fill="#666" font-size="6" text-anchor="start" font-family="monospace" font-weight="bold">GUARD</text>
<circle cx="110.0" cy="79.0" r="3.0" fill="#f28e2b" stroke-width="0.8"></circle>
<text x="117.0" y="82.0" fill="#f28e2b" font-size="5" text-anchor="start" font-family="monospace">approach</text>
<circle cx="162.0" cy="79.0" r="3.0" fill="#59a14f" stroke-width="0.9"></circle>
<text x="169.0" y="82.0" fill="#59a14f" font-size="5" text-anchor="start" font-family="monospace">passed</text>
<text x="214.0" y="72.0" fill="#666" font-size="6" text-anchor="start" font-family="monospace" font-weight="bold">REG Δ</text>
<text x="252.0" y="82.0" fill="#20b888" font-size="5.5" text-anchor="start" font-family="monospace">→↑</text>
<text x="280.0" y="82.0" fill="#ffd700" font-size="5.5" text-anchor="start" font-family="monospace">↓→↑↓</text>
<text x="308.0" y="82.0" fill="#e15759" font-size="5.5" text-anchor="start" font-family="monospace">↑↔↓</text>
<line x1="344.0" y1="79.0" x2="358.0" y2="79.0" stroke="#ffd700" stroke-width="1.5" opacity="0.6" stroke-dasharray="5,3"></line>
<text x="362.0" y="82.0" fill="#ffd700" font-size="5.5" text-anchor="start" font-family="monospace">cross-br.</text>
<line x1="404.0" y1="79.0" x2="418.0" y2="79.0" stroke="#9988cc" stroke-width="1.5" opacity="0.5"></line>
<text x="422.0" y="82.0" fill="#9988cc" font-size="5.5" text-anchor="start" font-family="monospace">loop</text>
<rect x="282.0" y="302" width="166.76923076923072" height="56" fill="none" stroke="#4e79a7" stroke-width="1.2" opacity="0.2" rx="8" ry="8" stroke-dasharray="4,3"></rect>
<text x="286.0" y="300.0" fill="#4e79a7" font-size="5" text-anchor="start" font-family="monospace">d1</text>
<rect x="429.6923076923076" y="302" width="240.61538461538464" height="56" fill="none" stroke="#70ad47" stroke-width="1.2" opacity="0.2" rx="8" ry="8" stroke-dasharray="4,3"></rect>
<text x="433.7" y="300.0" fill="#70ad47" font-size="5" text-anchor="start" font-family="monospace">d1</text>
<rect x="761.9999999999999" y="302" width="240.61538461538464" height="56" fill="none" stroke="#ed7d31" stroke-width="1.2" opacity="0.2" rx="8" ry="8" stroke-dasharray="4,3"></rect>
<text x="766.0" y="300.0" fill="#ed7d31" font-size="5" text-anchor="start" font-family="monospace">d1</text>
<rect x="940" y="48" width="145" height="22" fill="#4e79a7" opacity="0.15" rx="4"></rect>
<rect x="940" y="48" width="145" height="22" fill="none" stroke="#4e79a7" stroke-width="1" rx="4"></rect>
<text x="1012.0" y="63.0" fill="#4e79a7" font-size="8" text-anchor="middle" font-family="monospace" font-weight="bold">FLAT_CHAIN</text>
<text x="940.0" y="78.0" fill="#888" font-size="6" text-anchor="start" font-family="monospace">depth:0  open-forks:0  cross:0  empty:0</text>
<text x="940.0" y="86.0" fill="#777" font-size="5.5" text-anchor="start" font-family="monospace">T:6 / F:4</text>
<rect x="940" y="88" width="87.0" height="6" fill="#20d0b8" opacity="0.6" rx="2"></rect>
<rect x="1027.0" y="88" width="58.0" height="6" fill="#ff6688" opacity="0.6" rx="2"></rect>
<rect x="940" y="102" width="50" height="12" fill="#cc3344" opacity="0.2" rx="2"></rect>
<text x="965.0" y="111.0" fill="#cc3344" font-size="5.5" text-anchor="middle" font-family="monospace" font-weight="bold">IFIX×2</text>
</svg>