<svg xmlns="http://www.w3.org/2000/svg" viewBox="0 0 1100 630">
<rect width="1100" height="630" fill="#0a0a15"/>
<line x1="0.0" y1="0.0" x2="0.0" y2="630.0" stroke="#151525" stroke-width="0.4" opacity="0.25"></line>
<line x1="40.0" y1="0.0" x2="40.0" y2="630.0" stroke="#151525" stroke-width="0.4" opacity="0.25"></line>
<line x1="80.0" y1="0.0" x2="80.0" y2="630.0" stroke="#151525" stroke-width="0.4" opacity="0.25"></line>
<line x1="120.0" y1="0.0" x2="120.0" y2="630.0" stroke="#151525" stroke-width="0.4" opacity="0.25"></line>
<line x1="160.0" y1="0.0" x2="160.0" y2="630.0" stroke="#151525" stroke-width="0.4" opacity="0.25"></line>
<line x1="200.0" y1="0.0" x2="200.0" y2="630.0" stroke="#151525" stroke-width="0.4" opacity="0.25"></line>
<line x1="240.0" y1="0.0" x2="240.0" y2="630.0" stroke="#151525" stroke-width="0.4" opacity="0.25"></line>
<line x1="280.0" y1="0.0" x2="280.0" y2="630.0" stroke="#151525" stroke-width="0.4" opacity="0.25"></line>
<line x1="320.0" y1="0.0" x2="320.0" y2="630.0" stroke="#151525" stroke-width="0.4" opacity="0.25"></line>
<line x1="360.0" y1="0.0" x2="360.0" y2="630.0" stroke="#151525" stroke-width="0.4" opacity="0.25"></line>
<line x1="400.0" y1="0.0" x2="400.0" y2="630.0" stroke="#151525" stroke-width="0.4" opacity="0.25"></line>
<line x1="440.0" y1="0.0" x2="440.0" y2="630.0" stroke="#151525" stroke-width="0.4" opacity="0.25"></line>
<line x1="480.0" y1="0.0" x2="480.0" y2="630.0" stroke="#151525" stroke-width="0.4" opacity="0.25"></line>
<line x1="520.0" y1="0.0" x2="520.0" y2="630.0" stroke="#151525" stroke-width="0.4" opacity="0.25"></line>
<line x1="560.0" y1="0.0" x2="560.0" y2="630.0" stroke="#151525" stroke-width="0.4" opacity="0.25"></line>
<line x1="600.0" y1="0.0" x2="600.0" y2="630.0" stroke="#151525" stroke-width="0.4" opacity="0.25"></line>
<line x1="640.0" y1="0.0" x2="640.0" y2="630.0" stroke="#151525" stroke-width="0.4" opacity="0.25"></line>
<line x1="680.0" y1="0.0" x2="680.0" y2="630.0" stroke="#151525" stroke-width="0.4" opacity="0.25"></line>
<line x1="720.0" y1="0.0" x2="720.0" y2="630.0" stroke="#151525" stroke-width="0.4" opacity="0.25"></line>
<line x1="760.0" y1="0.0" x2="760.0" y2="630.0" stroke="#151525" stroke-width="0.4" opacity="0.25"></line>
<line x1="800.0" y1="0.0" x2="800.0" y2="630.0" stroke="#151525" stroke-width="0.4" opacity="0.25"></line>
<line x1="840.0" y1="0.0" x2="840.0" y2="630.0" stroke="#151525" stroke-width="0.4" opacity="0.25"></line>
<line x1="880.0" y1="0.0" x2="880.0" y2="630.0" stroke="#151525" stroke-width="0.4" opacity="0.25"></line>
<line x1="920.0" y1="0.0" x2="920.0" y2="630.0" stroke="#151525" stroke-width="0.4" opacity="0.25"></line>
<line x1="960.0" y1="0.0" x2="960.0" y2="630.0" stroke="#151525" stroke-width="0.4" opacity="0.25"></line>
<line x1="1000.0" y1="0.0" x2="1000.0" y2="630.0" stroke="#151525" stroke-width="0.4" opacity="0.25"></line>
<line x1="1040.0" y1="0.0" x2="1040.0" y2="630.0" stroke="#151525" stroke-width="0.4" opacity="0.25"></line>
<line x1="1080.0" y1="0.0" x2="1080.0" y2="630.0" stroke="#151525" stroke-width="0.4" opacity="0.25"></line>
<line x1="0.0" y1="0.0" x2="1100.0" y2="0.0" stroke="#151525" stroke-width="0.4" opacity="0.25"></line>
<line x1="0.0" y1="40.0" x2="1100.0" y2="40.0" stroke="#151525" stroke-width="0.4" opacity="0.25"></line>
<line x1="0.0" y1="80.0" x2="1100.0" y2="80.0" stroke="#151525" stroke-width="0.4" opacity="0.25"></line>
<line x1="0.0" y1="120.0" x2="1100.0" y2="120.0" stroke="#151525" stroke-width="0.4" opacity="0.25"></line>
<line x1="0.0" y1="160.0" x2="1100.0" y2="160.0" stroke="#151525" stroke-width="0.4" opacity="0.25"></line>
<line x1="0.0" y1="200.0" x2="1100.0" y2="200.0" stroke="#151525" stroke-width="0.4" opacity="0.25"></line>
<line x1="0.0" y1="240.0" x2="1100.0" y2="240.0" stroke="#151525" stroke-width="0.4" opacity="0.25"></line>
<line x1="0.0" y1="280.0" x2="1100.0" y2="280.0" stroke="#151525" stroke-width="0.4" opacity="0.25"></line>
<line x1="0.0" y1="320.0" x2="1100.0" y2="320.0" stroke="#151525" stroke-width="0.4" opacity="0.25"></line>
<line x1="0.0" y1="360.0" x2="1100.0" y2="360.0" stroke="#151525" stroke-width="0.4" opacity="0.25"></line>
<line x1="0.0" y1="400.0" x2="1100.0" y2="400.0" stroke="#151525" stroke-width="0.4" opacity="0.25"></line>
<line x1="0.0" y1="440.0" x2="1100.0" y2="440.0" stroke="#151525" stroke-width="0.4" opacity="0.25"></line>
<line x1="0.0" y1="480.0" x2="1100.0" y2="480.0" stroke="#151525" stroke-width="0.4" opacity="0.25"></line>
<line x1="0.0" y1="520.0" x2="1100.0" y2="520.0" stroke="#151525" stroke-width="0.4" opacity="0.25"></line>
<line x1="0.0" y1="560.0" x2="1100.0" y2="560.0" stroke="#151525" stroke-width="0.4" opacity="0.25"></line>
<line x1="0.0" y1="600.0" x2="1100.0" y2="600.0" stroke="#151525" stroke-width="0.4" opacity="0.25"></line>
<text x="550.0" y="26.0" fill="#cccccc" font-size="13" text-anchor="middle" font-family="monospace" font-weight="bold">Macromolecule</text>
<text x="550.0" y="41.0" fill="#777" font-size="7" text-anchor="middle" font-family="monospace">Multimer dissociation</text>
<text x="22.0" y="190.0" fill="#20c0b0" font-size="7" text-anchor="middle" font-family="monospace">T-lane</text>
<text x="22.0" y="470.0" fill="#e04060" font-size="7" text-anchor="middle" font-family="monospace">F-lane</text>
<text x="22.0" y="330.0" fill="#555" font-size="7" text-anchor="middle" font-family="monospace">main</text>
<line x1="845.4" y1="145.0" x2="845.4" y2="515.0" stroke="#cc3344" stroke-width="1.8" opacity="0.4" stroke-dasharray="6,4"></line>
<text x="845.4" y="135.0" fill="#cc3344" font-size="7" text-anchor="middle" font-family="monospace" font-weight="bold">IFIX</text>
<polygon points="845.3846153846152,141.0 849.4,145 845.3846153846152,149.0 841.4,145" fill="#cc3344" opacity="0.6"></polygon>
<polygon points="845.3846153846152,511.0 849.4,515 845.3846153846152,519.0 841.4,515" fill="#cc3344" opacity="0.6"></polygon>
<line x1="476.2" y1="330.0" x2="497.7" y2="330.0" stroke="#5b9bd5" stroke-width="1.4" opacity="0.55"></line>
<line x1="497.7" y1="330.0" x2="497.7" y2="190.0" stroke="#5b9bd5" stroke-width="1.4" opacity="0.55"></line>
<line x1="497.7" y1="190.0" x2="529.7" y2="190.0" stroke="#5b9bd5" stroke-width="1.4" opacity="0.55"></line>
<polygon points="537.7,190.0 529.7,193.2 529.7,186.8" fill="#5b9bd5" opacity="0.55"></polygon>
<rect x="504.9" y="248.0" width="4.0" height="10" fill="#0a0a15" opacity="0.7" rx="3"></rect>
<text x="506.9" y="256.0" fill="#20b888" font-size="6" text-anchor="middle" font-family="monospace">↑</text>
<line x1="537.7" y1="190.0" x2="603.5" y2="190.0" stroke="#20d0b8" stroke-width="1.3" opacity="0.55"></line>
<polygon points="611.5,190.0 603.5,193.2 603.5,186.8" fill="#20d0b8" opacity="0.55"></polygon>
<line x1="611.5" y1="190.0" x2="641.7" y2="190.0" stroke="#59a14f" stroke-width="1.3" opacity="0.55"></line>
<line x1="641.7" y1="190.0" x2="641.7" y2="330.0" stroke="#59a14f" stroke-width="1.3" opacity="0.55"></line>
<line x1="641.7" y1="330.0" x2="689.7" y2="330.0" stroke="#59a14f" stroke-width="1.3" opacity="0.55"></line>
<polygon points="697.7,330.0 689.7,333.2 689.7,326.8" fill="#59a14f" opacity="0.55"></polygon>
<line x1="476.2" y1="330.0" x2="514.3" y2="330.0" stroke="#2b6b9f" stroke-width="1.4" opacity="0.55"></line>
<line x1="514.3" y1="330.0" x2="514.3" y2="470.0" stroke="#2b6b9f" stroke-width="1.4" opacity="0.55"></line>
<line x1="514.3" y1="470.0" x2="554.3" y2="470.0" stroke="#2b6b9f" stroke-width="1.4" opacity="0.55"></line>
<polygon points="562.3,470.0 554.3,473.2 554.3,466.8" fill="#2b6b9f" opacity="0.55"></polygon>
<rect x="515.2" y="388.0" width="8.0" height="10" fill="#0a0a15" opacity="0.7" rx="3"></rect>
<text x="519.2" y="396.0" fill="#ffd700" font-size="6" text-anchor="middle" font-family="monospace">↑↓</text>
<line x1="562.3" y1="470.0" x2="628.2" y2="470.0" stroke="#ff6688" stroke-width="1.3" opacity="0.55"></line>
<polygon points="636.2,470.0 628.2,473.2 628.2,466.8" fill="#ff6688" opacity="0.55"></polygon>
<rect x="589.2" y="458.0" width="20.0" height="10" fill="#0a0a15" opacity="0.7" rx="3"></rect>
<text x="599.2" y="466.0" fill="#666688" font-size="6" text-anchor="middle" font-family="monospace">↑↓→↑↓</text>
<line x1="636.2" y1="470.0" x2="665.7" y2="470.0" stroke="#e15759" stroke-width="1.3" opacity="0.55"></line>
<line x1="665.7" y1="470.0" x2="665.7" y2="330.0" stroke="#e15759" stroke-width="1.3" opacity="0.55"></line>
<line x1="665.7" y1="330.0" x2="689.7" y2="330.0" stroke="#e15759" stroke-width="1.3" opacity="0.55"></line>
<polygon points="697.7,330.0 689.7,333.2 689.7,326.8" fill="#e15759" opacity="0.55"></polygon>
<rect x="658.9" y="388.0" width="16.0" height="10" fill="#0a0a15" opacity="0.7" rx="3"></rect>
<text x="666.9" y="396.0" fill="#ffd700" font-size="6" text-anchor="middle" font-family="monospace">↑↓→↑</text>
<line x1="106.9" y1="330.0" x2="172.8" y2="330.0" stroke="#6baed6" stroke-width="1.3" opacity="0.75"></line>
<polygon points="180.8,330.0 172.8,333.2 172.8,326.8" fill="#6baed6" opacity="0.75"></polygon>
<rect x="141.8" y="318.0" width="4.0" height="10" fill="#0a0a15" opacity="0.7" rx="3"></rect>
<text x="143.8" y="326.0" fill="#20b888" font-size="6" text-anchor="middle" font-family="monospace">↑</text>
<line x1="180.8" y1="330.0" x2="246.6" y2="330.0" stroke="#59a14f" stroke-width="1.3" opacity="0.75"></line>
<polygon points="254.6,330.0 246.6,333.2 246.6,326.8" fill="#59a14f" opacity="0.75"></polygon>
<rect x="213.7" y="318.0" width="8.0" height="10" fill="#0a0a15" opacity="0.7" rx="3"></rect>
<text x="217.7" y="326.0" fill="#20b888" font-size="6" text-anchor="middle" font-family="monospace">↑→</text>
<line x1="254.6" y1="326.5" x2="319.5" y2="326.5" stroke="#f28e2b" stroke-width="1.0" opacity="0.75"></line>
<line x1="254.6" y1="333.5" x2="319.5" y2="333.5" stroke="#f28e2b" stroke-width="1.0" opacity="0.75"></line>
<polygon points="328.5,330.0 318.5,334.0 318.5,326.0" fill="#f28e2b" opacity="0.75"></polygon>
<rect x="289.5" y="318.0" width="4.0" height="10" fill="#0a0a15" opacity="0.7" rx="3"></rect>
<text x="291.5" y="326.0" fill="#20b888" font-size="6" text-anchor="middle" font-family="monospace">↑</text>
<line x1="328.5" y1="330.0" x2="394.3" y2="330.0" stroke="#59a14f" stroke-width="1.3" opacity="0.75"></line>
<polygon points="402.3,330.0 394.3,333.2 394.3,326.8" fill="#59a14f" opacity="0.75"></polygon>
<rect x="361.4" y="318.0" width="8.0" height="10" fill="#0a0a15" opacity="0.7" rx="3"></rect>
<text x="365.4" y="326.0" fill="#20b888" font-size="6" text-anchor="middle" font-family="monospace">↑→</text>
<line x1="402.3" y1="326.5" x2="467.2" y2="326.5" stroke="#f28e2b" stroke-width="1.0" opacity="0.75"></line>
<line x1="402.3" y1="333.5" x2="467.2" y2="333.5" stroke="#f28e2b" stroke-width="1.0" opacity="0.75"></line>
<polygon points="476.2,330.0 466.2,334.0 466.2,326.0" fill="#f28e2b" opacity="0.75"></polygon>
<line x1="771.5" y1="330.0" x2="837.4" y2="330.0" stroke="#e15759" stroke-width="1.3" opacity="0.75"></line>
<polygon points="845.4,330.0 837.4,333.2 837.4,326.8" fill="#e15759" opacity="0.75"></polygon>
<line x1="845.4" y1="330.0" x2="911.2" y2="330.0" stroke="#cc3344" stroke-width="1.3" opacity="0.75"></line>
<polygon points="919.2,330.0 911.2,333.2 911.2,326.8" fill="#cc3344" opacity="0.75"></polygon>
<line x1="919.2" y1="330.0" x2="985.1" y2="330.0" stroke="#ffd700" stroke-width="1.3" opacity="0.75"></line>
<polygon points="993.1,330.0 985.1,333.2 985.1,326.8" fill="#ffd700" opacity="0.75"></polygon>
<line x1="697.7" y1="330.0" x2="763.5" y2="330.0" stroke="#ffd700" stroke-width="1.3" opacity="0.55"></line>
<polygon points="771.5,330.0 763.5,333.2 763.5,326.8" fill="#ffd700" opacity="0.55"></polygon>
<circle cx="106.9" cy="330.0" r="22.0" fill="#4e79a7" stroke="#ffffff20" stroke-width="1.0"></circle>
<text x="106.9" y="300.0" fill="#cccccc" font-size="8" text-anchor="middle" font-family="monospace" font-weight="bold">VI</text>
<text x="106.9" y="364.0" fill="#888" font-size="5.5" text-anchor="middle" font-family="monospace">VINIT</text>
<circle cx="129.9" cy="330.0" r="2.5" fill="#ffffff90" stroke-width="0"></circle>
<circle cx="180.8" cy="330.0" r="22.0" fill="#4e79a7" stroke="#ffffff20" stroke-width="1.0"></circle>
<circle cx="180.8" cy="330.0" r="12.1" fill="#153530" stroke-width="0"></circle>
<text x="180.8" y="332.0" fill="#20b2aa" font-size="7" text-anchor="middle" font-family="monospace" font-weight="bold">↑</text>
<text x="180.8" y="300.0" fill="#cccccc" font-size="8" text-anchor="middle" font-family="monospace" font-weight="bold">AF</text>
<text x="180.8" y="364.0" fill="#888" font-size="5.5" text-anchor="middle" font-family="monospace">AFWD</text>
<circle cx="157.8" cy="330.0" r="2.5" fill="#ffffff60" stroke-width="0"></circle>
<circle cx="203.8" cy="330.0" r="2.5" fill="#ffffff90" stroke-width="0"></circle>
<circle cx="254.6" cy="330.0" r="22.0" fill="#4e79a7" stroke="#ffffff20" stroke-width="1.0"></circle>
<text x="254.6" y="300.0" fill="#cccccc" font-size="8" text-anchor="middle" font-family="monospace" font-weight="bold">CL</text>
<text x="254.6" y="364.0" fill="#888" font-size="5.5" text-anchor="middle" font-family="monospace">CLINK</text>
<circle cx="231.6" cy="330.0" r="2.5" fill="#ffffff60" stroke-width="0"></circle>
<circle cx="277.6" cy="330.0" r="2.5" fill="#ffffff90" stroke-width="0"></circle>
<circle cx="328.5" cy="330.0" r="22.0" fill="#4e79a7" stroke="#ffffff20" stroke-width="1.0"></circle>
<circle cx="328.5" cy="330.0" r="12.1" fill="#153530" stroke-width="0"></circle>
<text x="328.5" y="332.0" fill="#20b2aa" font-size="7" text-anchor="middle" font-family="monospace" font-weight="bold">↑</text>
<text x="328.5" y="300.0" fill="#cccccc" font-size="8" text-anchor="middle" font-family="monospace" font-weight="bold">AF</text>
<text x="328.5" y="364.0" fill="#888" font-size="5.5" text-anchor="middle" font-family="monospace">AFWD</text>
<circle cx="305.5" cy="330.0" r="2.5" fill="#ffffff60" stroke-width="0"></circle>
<circle cx="351.5" cy="330.0" r="2.5" fill="#ffffff90" stroke-width="0"></circle>
<circle cx="402.3" cy="330.0" r="22.0" fill="#4e79a7" stroke="#ffffff20" stroke-width="1.0"></circle>
<text x="402.3" y="300.0" fill="#cccccc" font-size="8" text-anchor="middle" font-family="monospace" font-weight="bold">CL</text>
<text x="402.3" y="364.0" fill="#888" font-size="5.5" text-anchor="middle" font-family="monospace">CLINK</text>
<circle cx="379.3" cy="330.0" r="2.5" fill="#ffffff60" stroke-width="0"></circle>
<circle cx="425.3" cy="330.0" r="2.5" fill="#ffffff90" stroke-width="0"></circle>
<polygon points="476.1538461538461,308.0 498.2,330 476.1538461538461,352.0 454.2,330" fill="#ffd700" stroke="#ffffff20" stroke-width="1.0"></polygon>
<text x="476.2" y="300.0" fill="#cccccc" font-size="8" text-anchor="middle" font-family="monospace" font-weight="bold">FS</text>
<text x="476.2" y="364.0" fill="#888" font-size="5.5" text-anchor="middle" font-family="monospace">FSPLIT</text>
<circle cx="453.2" cy="330.0" r="2.5" fill="#ffffff60" stroke-width="0"></circle>
<circle cx="499.2" cy="323.0" r="2.5" fill="#ffffff90" stroke-width="0"></circle>
<circle cx="499.2" cy="337.0" r="2.5" fill="#ffffff90" stroke-width="0"></circle>
<polygon points="556.7,201.0 537.7,212.0 518.6,201.0 518.6,179.0 537.7,168.0 556.7,179.0" fill="#e15759" stroke="#ffffff20" stroke-width="1.0"></polygon>
<circle cx="537.7" cy="190.0" r="12.1" fill="#153530" stroke-width="0"></circle>
<text x="537.7" y="192.0" fill="#20b2aa" font-size="7" text-anchor="middle" font-family="monospace" font-weight="bold">↑</text>
<text x="537.7" y="160.0" fill="#cccccc" font-size="8" text-anchor="middle" font-family="monospace" font-weight="bold">ET</text>
<text x="537.7" y="224.0" fill="#888" font-size="5.5" text-anchor="middle" font-family="monospace">EVALT</text>
<circle cx="514.7" cy="190.0" r="3.5" fill="#f28e2b" stroke-width="0.8"></circle>
<circle cx="560.7" cy="190.0" r="3.5" fill="#59a14f" stroke-width="0.9"></circle>
<circle cx="611.5" cy="190.0" r="22.0" fill="#4e79a7" stroke="#ffffff20" stroke-width="1.0"></circle>
<circle cx="611.5" cy="190.0" r="12.1" fill="#153530" stroke-width="0"></circle>
<text x="611.5" y="192.0" fill="#20b2aa" font-size="7" text-anchor="middle" font-family="monospace" font-weight="bold">↑</text>
<text x="611.5" y="160.0" fill="#cccccc" font-size="8" text-anchor="middle" font-family="monospace" font-weight="bold">AF</text>
<text x="611.5" y="224.0" fill="#888" font-size="5.5" text-anchor="middle" font-family="monospace">AFWD</text>
<circle cx="588.5" cy="190.0" r="2.5" fill="#ffffff60" stroke-width="0"></circle>
<circle cx="634.5" cy="190.0" r="2.5" fill="#ffffff90" stroke-width="0"></circle>
<polygon points="581.4,481.0 562.3,492.0 543.3,481.0 543.3,459.0 562.3,448.0 581.4,459.0" fill="#e15759" stroke="#ffffff20" stroke-width="1.0"></polygon>
<circle cx="562.3" cy="470.0" r="12.1" fill="#332200" stroke-width="0"></circle>
<text x="562.3" y="472.0" fill="#ffd700" font-size="7" text-anchor="middle" font-family="monospace" font-weight="bold">↑↓</text>
<text x="562.3" y="440.0" fill="#cccccc" font-size="8" text-anchor="middle" font-family="monospace" font-weight="bold">EF</text>
<text x="562.3" y="504.0" fill="#888" font-size="5.5" text-anchor="middle" font-family="monospace">EVALF</text>
<circle cx="539.3" cy="470.0" r="3.5" fill="#f28e2b" stroke-width="0.8"></circle>
<circle cx="585.3" cy="470.0" r="3.5" fill="#59a14f" stroke-width="0.9"></circle>
<circle cx="636.2" cy="470.0" r="22.0" fill="#4e79a7" stroke="#ffffff20" stroke-width="1.0"></circle>
<circle cx="636.2" cy="470.0" r="12.1" fill="#332200" stroke-width="0"></circle>
<text x="636.2" y="472.0" fill="#ffd700" font-size="7" text-anchor="middle" font-family="monospace" font-weight="bold">↑↓</text>
<text x="636.2" y="440.0" fill="#cccccc" font-size="8" text-anchor="middle" font-family="monospace" font-weight="bold">AR</text>
<text x="636.2" y="504.0" fill="#888" font-size="5.5" text-anchor="middle" font-family="monospace">AREV</text>
<circle cx="613.2" cy="470.0" r="2.5" fill="#ffffff60" stroke-width="0"></circle>
<circle cx="659.2" cy="470.0" r="2.5" fill="#ffffff90" stroke-width="0"></circle>
<polygon points="697.6923076923076,308.0 719.7,330 697.6923076923076,352.0 675.7,330" fill="#ffd700" stroke="#ffffff20" stroke-width="1.0"></polygon>
<circle cx="697.7" cy="330.0" r="12.1" fill="#153530" stroke-width="0"></circle>
<text x="697.7" y="332.0" fill="#20b2aa" font-size="7" text-anchor="middle" font-family="monospace" font-weight="bold">↑</text>
<text x="697.7" y="300.0" fill="#cccccc" font-size="8" text-anchor="middle" font-family="monospace" font-weight="bold">FF</text>
<text x="697.7" y="364.0" fill="#888" font-size="5.5" text-anchor="middle" font-family="monospace">FFUSE</text>
<circle cx="674.7" cy="323.0" r="2.5" fill="#ffffff60" stroke-width="0"></circle>
<circle cx="674.7" cy="337.0" r="2.5" fill="#ffffff60" stroke-width="0"></circle>
<circle cx="720.7" cy="330.0" r="2.5" fill="#ffffff90" stroke-width="0"></circle>
<polygon points="790.6,341.0 771.5,352.0 752.5,341.0 752.5,319.0 771.5,308.0 790.6,319.0" fill="#e15759" stroke="#ffffff20" stroke-width="1.0"></polygon>
<circle cx="771.5" cy="330.0" r="12.1" fill="#153530" stroke-width="0"></circle>
<text x="771.5" y="332.0" fill="#20b2aa" font-size="7" text-anchor="middle" font-family="monospace" font-weight="bold">↑</text>
<text x="771.5" y="300.0" fill="#cccccc" font-size="8" text-anchor="middle" font-family="monospace" font-weight="bold">EG</text>
<text x="771.5" y="364.0" fill="#888" font-size="5.5" text-anchor="middle" font-family="monospace">ENGAGR</text>
<circle cx="748.5" cy="330.0" r="2.5" fill="#ffffff60" stroke-width="0"></circle>
<circle cx="794.5" cy="330.0" r="2.5" fill="#ffffff90" stroke-width="0"></circle>
<rect x="823.4" y="308.0" width="44.0" height="44.0" fill="#59a14f" stroke="#ffffff20" stroke-width="1.0"></rect>
<circle cx="845.4" cy="330.0" r="12.1" fill="#153530" stroke-width="0"></circle>
<text x="845.4" y="332.0" fill="#20b2aa" font-size="7" text-anchor="middle" font-family="monospace" font-weight="bold">↑</text>
<text x="845.4" y="300.0" fill="#cccccc" font-size="8" text-anchor="middle" font-family="monospace" font-weight="bold">IX</text>
<text x="845.4" y="364.0" fill="#888" font-size="5.5" text-anchor="middle" font-family="monospace">IFIX</text>
<circle cx="822.4" cy="330.0" r="2.5" fill="#ffffff60" stroke-width="0"></circle>
<circle cx="868.4" cy="330.0" r="2.5" fill="#ffffff90" stroke-width="0"></circle>
<circle cx="919.2" cy="330.0" r="22.0" fill="#4e79a7" stroke="#ffffff20" stroke-width="1.0"></circle>
<circle cx="919.2" cy="330.0" r="12.1" fill="#153530" stroke-width="0"></circle>
<text x="919.2" y="332.0" fill="#20b2aa" font-size="7" text-anchor="middle" font-family="monospace" font-weight="bold">↑</text>
<text x="919.2" y="300.0" fill="#cccccc" font-size="8" text-anchor="middle" font-family="monospace" font-weight="bold">IM</text>
<text x="919.2" y="364.0" fill="#888" font-size="5.5" text-anchor="middle" font-family="monospace">IMSCRIB</text>
<circle cx="896.2" cy="330.0" r="2.5" fill="#ffffff60" stroke-width="0"></circle>
<circle cx="942.2" cy="330.0" r="2.5" fill="#ffffff90" stroke-width="0"></circle>
<circle cx="993.1" cy="330.0" r="22.0" fill="#4e79a7" stroke="#ffffff20" stroke-width="1.0"></circle>
<circle cx="993.1" cy="330.0" r="12.1" fill="#153530" stroke-width="0"></circle>
<text x="993.1" y="332.0" fill="#20b2aa" font-size="7" text-anchor="middle" font-family="monospace" font-weight="bold">↑</text>
<text x="993.1" y="300.0" fill="#cccccc" font-size="8" text-anchor="middle" font-family="monospace" font-weight="bold">TA</text>
<text x="993.1" y="364.0" fill="#888" font-size="5.5" text-anchor="middle" font-family="monospace">TANCH</text>
<circle cx="970.1" cy="330.0" r="2.5" fill="#ffffff60" stroke-width="0"></circle>
<circle cx="1016.1" cy="330.0" r="2.5" fill="#ffffff90" stroke-width="0"></circle>
<path d="M993.1,330.0 Q550.0,275.0 106.9,330.0" fill="none" stroke="#9988cc" stroke-width="1.5" opacity="0.5"></path>
<polygon points="106.9,330.0 98.5,327.0 99.5,335.0" fill="#9988cc" opacity="0.5"></polygon>
<text x="550.0" y="260.0" fill="#9988cc" font-size="8" text-anchor="middle" font-family="serif">O₂</text>
<text x="550.0" y="621.0" fill="#9988aa" font-size="7" text-anchor="middle" font-family="serif">Ouroboricity: O₂</text>
<text x="70.0" y="52.0" fill="#666" font-size="6" text-anchor="start" font-family="monospace" font-weight="bold">NODES</text>
<circle cx="110.0" cy="59.0" r="4.5" fill="#4e79a7" stroke-width="0"></circle>
<text x="120.0" y="62.0" fill="#4e79a7" font-size="5" text-anchor="start" font-family="monospace">LOGI</text>
<polygon points="158,54.5 162.5,59 158,63.5 153.5,59" fill="#ffd700" stroke="#ffffff20" stroke-width="1.0"></polygon>
<text x="168.0" y="62.0" fill="#ffd700" font-size="5" text-anchor="start" font-family="monospace">FROB</text>
<polygon points="209.9,61.2 206.0,63.5 202.1,61.2 202.1,56.8 206.0,54.5 209.9,56.8" fill="#e15759" stroke="#ffffff20" stroke-width="1.0"></polygon>
<text x="216.0" y="62.0" fill="#e15759" font-size="5" text-anchor="start" font-family="monospace">DIAL</text>
<rect x="249.5" y="54.5" width="9.0" height="9.0" fill="#59a14f" stroke="#ffffff20" stroke-width="1.0"></rect>
<text x="264.0" y="62.0" fill="#59a14f" font-size="5" text-anchor="start" font-family="monospace">LINE</text>
<text x="312.0" y="52.0" fill="#666" font-size="6" text-anchor="start" font-family="monospace" font-weight="bold">EDGES</text>
<line x1="350.0" y1="59.0" x2="364.0" y2="59.0" stroke="#59a14f" stroke-width="1.5" opacity="0.7"></line>
<text x="368.0" y="62.0" fill="#59a14f" font-size="5" text-anchor="start" font-family="monospace">AFWD</text>
<line x1="402.0" y1="59.0" x2="416.0" y2="59.0" stroke="#e15759" stroke-width="1.5" opacity="0.7"></line>
<text x="420.0" y="62.0" fill="#e15759" font-size="5" text-anchor="start" font-family="monospace">AREV</text>
<line x1="454.0" y1="59.0" x2="468.0" y2="59.0" stroke="#f28e2b" stroke-width="1.5" opacity="0.7"></line>
<text x="472.0" y="62.0" fill="#f28e2b" font-size="5" text-anchor="start" font-family="monospace">CLINK</text>
<line x1="506.0" y1="59.0" x2="520.0" y2="59.0" stroke="#b07aa1" stroke-width="1.5" opacity="0.7" stroke-dasharray="4,3"></line>
<text x="524.0" y="62.0" fill="#b07aa1" font-size="5" text-anchor="start" font-family="monospace">TANCH</text>
<line x1="558.0" y1="59.0" x2="572.0" y2="59.0" stroke="#ffd700" stroke-width="1.5" opacity="0.7"></line>
<text x="576.0" y="62.0" fill="#ffd700" font-size="5" text-anchor="start" font-family="monospace">IMSC</text>
<line x1="610.0" y1="59.0" x2="624.0" y2="59.0" stroke="#cc3344" stroke-width="1.5" opacity="0.7"></line>
<text x="628.0" y="62.0" fill="#cc3344" font-size="5" text-anchor="start" font-family="monospace">IFIX</text>
<text x="70.0" y="72.0" fill="#666" font-size="6" text-anchor="start" font-family="monospace" font-weight="bold">GUARD</text>
<circle cx="110.0" cy="79.0" r="3.0" fill="#f28e2b" stroke-width="0.8"></circle>
<text x="117.0" y="82.0" fill="#f28e2b" font-size="5" text-anchor="start" font-family="monospace">approach</text>
<circle cx="162.0" cy="79.0" r="3.0" fill="#59a14f" stroke-width="0.9"></circle>
<text x="169.0" y="82.0" fill="#59a14f" font-size="5" text-anchor="start" font-family="monospace">passed</text>
<text x="214.0" y="72.0" fill="#666" font-size="6" text-anchor="start" font-family="monospace" font-weight="bold">REG Δ</text>
<text x="252.0" y="82.0" fill="#20b888" font-size="5.5" text-anchor="start" font-family="monospace">→↑</text>
<text x="280.0" y="82.0" fill="#ffd700" font-size="5.5" text-anchor="start" font-family="monospace">↓→↑↓</text>
<text x="308.0" y="82.0" fill="#e15759" font-size="5.5" text-anchor="start" font-family="monospace">↑↔↓</text>
<line x1="344.0" y1="79.0" x2="358.0" y2="79.0" stroke="#ffd700" stroke-width="1.5" opacity="0.6" stroke-dasharray="5,3"></line>
<text x="362.0" y="82.0" fill="#ffd700" font-size="5.5" text-anchor="start" font-family="monospace">cross-br.</text>
<line x1="404.0" y1="79.0" x2="418.0" y2="79.0" stroke="#9988cc" stroke-width="1.5" opacity="0.5"></line>
<text x="422.0" y="82.0" fill="#9988cc" font-size="5.5" text-anchor="start" font-family="monospace">loop</text>
</svg>