<svg xmlns="http://www.w3.org/2000/svg" viewBox="0 0 1100 720">
<rect width="1100" height="720" fill="#0a0a15"/>
<line x1="0.0" y1="0.0" x2="0.0" y2="720.0" stroke="#151525" stroke-width="0.4" opacity="0.25"></line>
<line x1="40.0" y1="0.0" x2="40.0" y2="720.0" stroke="#151525" stroke-width="0.4" opacity="0.25"></line>
<line x1="80.0" y1="0.0" x2="80.0" y2="720.0" stroke="#151525" stroke-width="0.4" opacity="0.25"></line>
<line x1="120.0" y1="0.0" x2="120.0" y2="720.0" stroke="#151525" stroke-width="0.4" opacity="0.25"></line>
<line x1="160.0" y1="0.0" x2="160.0" y2="720.0" stroke="#151525" stroke-width="0.4" opacity="0.25"></line>
<line x1="200.0" y1="0.0" x2="200.0" y2="720.0" stroke="#151525" stroke-width="0.4" opacity="0.25"></line>
<line x1="240.0" y1="0.0" x2="240.0" y2="720.0" stroke="#151525" stroke-width="0.4" opacity="0.25"></line>
<line x1="280.0" y1="0.0" x2="280.0" y2="720.0" stroke="#151525" stroke-width="0.4" opacity="0.25"></line>
<line x1="320.0" y1="0.0" x2="320.0" y2="720.0" stroke="#151525" stroke-width="0.4" opacity="0.25"></line>
<line x1="360.0" y1="0.0" x2="360.0" y2="720.0" stroke="#151525" stroke-width="0.4" opacity="0.25"></line>
<line x1="400.0" y1="0.0" x2="400.0" y2="720.0" stroke="#151525" stroke-width="0.4" opacity="0.25"></line>
<line x1="440.0" y1="0.0" x2="440.0" y2="720.0" stroke="#151525" stroke-width="0.4" opacity="0.25"></line>
<line x1="480.0" y1="0.0" x2="480.0" y2="720.0" stroke="#151525" stroke-width="0.4" opacity="0.25"></line>
<line x1="520.0" y1="0.0" x2="520.0" y2="720.0" stroke="#151525" stroke-width="0.4" opacity="0.25"></line>
<line x1="560.0" y1="0.0" x2="560.0" y2="720.0" stroke="#151525" stroke-width="0.4" opacity="0.25"></line>
<line x1="600.0" y1="0.0" x2="600.0" y2="720.0" stroke="#151525" stroke-width="0.4" opacity="0.25"></line>
<line x1="640.0" y1="0.0" x2="640.0" y2="720.0" stroke="#151525" stroke-width="0.4" opacity="0.25"></line>
<line x1="680.0" y1="0.0" x2="680.0" y2="720.0" stroke="#151525" stroke-width="0.4" opacity="0.25"></line>
<line x1="720.0" y1="0.0" x2="720.0" y2="720.0" stroke="#151525" stroke-width="0.4" opacity="0.25"></line>
<line x1="760.0" y1="0.0" x2="760.0" y2="720.0" stroke="#151525" stroke-width="0.4" opacity="0.25"></line>
<line x1="800.0" y1="0.0" x2="800.0" y2="720.0" stroke="#151525" stroke-width="0.4" opacity="0.25"></line>
<line x1="840.0" y1="0.0" x2="840.0" y2="720.0" stroke="#151525" stroke-width="0.4" opacity="0.25"></line>
<line x1="880.0" y1="0.0" x2="880.0" y2="720.0" stroke="#151525" stroke-width="0.4" opacity="0.25"></line>
<line x1="920.0" y1="0.0" x2="920.0" y2="720.0" stroke="#151525" stroke-width="0.4" opacity="0.25"></line>
<line x1="960.0" y1="0.0" x2="960.0" y2="720.0" stroke="#151525" stroke-width="0.4" opacity="0.25"></line>
<line x1="1000.0" y1="0.0" x2="1000.0" y2="720.0" stroke="#151525" stroke-width="0.4" opacity="0.25"></line>
<line x1="1040.0" y1="0.0" x2="1040.0" y2="720.0" stroke="#151525" stroke-width="0.4" opacity="0.25"></line>
<line x1="1080.0" y1="0.0" x2="1080.0" y2="720.0" stroke="#151525" stroke-width="0.4" opacity="0.25"></line>
<line x1="0.0" y1="0.0" x2="1100.0" y2="0.0" stroke="#151525" stroke-width="0.4" opacity="0.25"></line>
<line x1="0.0" y1="40.0" x2="1100.0" y2="40.0" stroke="#151525" stroke-width="0.4" opacity="0.25"></line>
<line x1="0.0" y1="80.0" x2="1100.0" y2="80.0" stroke="#151525" stroke-width="0.4" opacity="0.25"></line>
<line x1="0.0" y1="120.0" x2="1100.0" y2="120.0" stroke="#151525" stroke-width="0.4" opacity="0.25"></line>
<line x1="0.0" y1="160.0" x2="1100.0" y2="160.0" stroke="#151525" stroke-width="0.4" opacity="0.25"></line>
<line x1="0.0" y1="200.0" x2="1100.0" y2="200.0" stroke="#151525" stroke-width="0.4" opacity="0.25"></line>
<line x1="0.0" y1="240.0" x2="1100.0" y2="240.0" stroke="#151525" stroke-width="0.4" opacity="0.25"></line>
<line x1="0.0" y1="280.0" x2="1100.0" y2="280.0" stroke="#151525" stroke-width="0.4" opacity="0.25"></line>
<line x1="0.0" y1="320.0" x2="1100.0" y2="320.0" stroke="#151525" stroke-width="0.4" opacity="0.25"></line>
<line x1="0.0" y1="360.0" x2="1100.0" y2="360.0" stroke="#151525" stroke-width="0.4" opacity="0.25"></line>
<line x1="0.0" y1="400.0" x2="1100.0" y2="400.0" stroke="#151525" stroke-width="0.4" opacity="0.25"></line>
<line x1="0.0" y1="440.0" x2="1100.0" y2="440.0" stroke="#151525" stroke-width="0.4" opacity="0.25"></line>
<line x1="0.0" y1="480.0" x2="1100.0" y2="480.0" stroke="#151525" stroke-width="0.4" opacity="0.25"></line>
<line x1="0.0" y1="520.0" x2="1100.0" y2="520.0" stroke="#151525" stroke-width="0.4" opacity="0.25"></line>
<line x1="0.0" y1="560.0" x2="1100.0" y2="560.0" stroke="#151525" stroke-width="0.4" opacity="0.25"></line>
<line x1="0.0" y1="600.0" x2="1100.0" y2="600.0" stroke="#151525" stroke-width="0.4" opacity="0.25"></line>
<line x1="0.0" y1="640.0" x2="1100.0" y2="640.0" stroke="#151525" stroke-width="0.4" opacity="0.25"></line>
<line x1="0.0" y1="680.0" x2="1100.0" y2="680.0" stroke="#151525" stroke-width="0.4" opacity="0.25"></line>
<text x="550.0" y="26.0" fill="#cccccc" font-size="13" text-anchor="middle" font-family="monospace" font-weight="bold">the reduced portal fold compute the a 0 moduli a</text>
<text x="22.0" y="190.0" fill="#20c0b0" font-size="7" text-anchor="middle" font-family="monospace">T-lane</text>
<text x="22.0" y="135.0" fill="#20c0b0" font-size="7" text-anchor="middle" font-family="monospace">T[d1]</text>
<text x="22.0" y="80.0" fill="#20c0b0" font-size="7" text-anchor="middle" font-family="monospace">T[d2]</text>
<text x="22.0" y="330.0" fill="#555" font-size="7" text-anchor="middle" font-family="monospace">main</text>
<line x1="523.3" y1="48.0" x2="523.3" y2="362.0" stroke="#cc3344" stroke-width="1.8" opacity="0.4" stroke-dasharray="6,4"></line>
<text x="523.3" y="38.0" fill="#cc3344" font-size="7" text-anchor="middle" font-family="monospace" font-weight="bold">IFIX</text>
<polygon points="523.3333333333334,44.0 527.3,48 523.3333333333334,52.0 519.3,48" fill="#cc3344" opacity="0.6"></polygon>
<polygon points="523.3333333333334,358.0 527.3,362 523.3333333333334,366.0 519.3,362" fill="#cc3344" opacity="0.6"></polygon>
<line x1="422.7" y1="301.6" x2="440.7" y2="301.6" stroke="#5b9bd5" stroke-width="1.4" opacity="0.4"></line>
<line x1="440.7" y1="301.6" x2="440.7" y2="108.4" stroke="#5b9bd5" stroke-width="1.4" opacity="0.4"></line>
<line x1="440.7" y1="108.4" x2="455.9" y2="108.4" stroke="#5b9bd5" stroke-width="1.4" opacity="0.4"></line>
<polygon points="463.9,108.4 455.9,111.6 455.9,105.2" fill="#5b9bd5" opacity="0.4"></polygon>
<rect x="433.3" y="193.0" width="20.0" height="10" fill="#0a0a15" opacity="0.7" rx="3"></rect>
<text x="443.3" y="201.0" fill="#666688" font-size="6" text-anchor="middle" font-family="monospace">↑↓→↑↓</text>
<line x1="499.0" y1="80.0" x2="502.3" y2="80.0" stroke="#20d0b8" stroke-width="1.3" opacity="0.4"></line>
<polygon points="494.3,80.0 502.3,76.8 502.3,83.2" fill="#20d0b8" opacity="0.4"></polygon>
<rect x="486.7" y="68.0" width="20.0" height="10" fill="#0a0a15" opacity="0.7" rx="3"></rect>
<text x="496.7" y="76.0" fill="#666688" font-size="6" text-anchor="middle" font-family="monospace">↑↓→↑↓</text>
<line x1="529.4" y1="108.4" x2="547.4" y2="108.4" stroke="#cc3344" stroke-width="1.3" opacity="0.4"></line>
<line x1="547.4" y1="108.4" x2="547.4" y2="301.6" stroke="#cc3344" stroke-width="1.3" opacity="0.4"></line>
<line x1="547.4" y1="301.6" x2="562.6" y2="301.6" stroke="#cc3344" stroke-width="1.3" opacity="0.4"></line>
<polygon points="570.6,301.6 562.6,304.8 562.6,298.4" fill="#cc3344" opacity="0.4"></polygon>
<rect x="540.0" y="193.0" width="20.0" height="10" fill="#0a0a15" opacity="0.7" rx="3"></rect>
<text x="550.0" y="201.0" fill="#666688" font-size="6" text-anchor="middle" font-family="monospace">↑↓→↑↓</text>
<line x1="445.7" y1="330.0" x2="539.7" y2="330.0" stroke="#2b6b9f" stroke-width="1.4" opacity="0.4"></line>
<polygon points="547.7,330.0 539.7,333.2 539.7,326.8" fill="#2b6b9f" opacity="0.4"></polygon>
<rect x="486.7" y="318.0" width="20.0" height="10" fill="#0a0a15" opacity="0.7" rx="3"></rect>
<text x="496.7" y="326.0" fill="#666688" font-size="6" text-anchor="middle" font-family="monospace">↑↓→↑↓</text>
<line x1="636.1" y1="301.6" x2="654.1" y2="301.6" stroke="#ed7d31" stroke-width="1.4" opacity="0.4"></line>
<line x1="654.1" y1="301.6" x2="654.1" y2="108.4" stroke="#ed7d31" stroke-width="1.4" opacity="0.4"></line>
<line x1="654.1" y1="108.4" x2="669.3" y2="108.4" stroke="#ed7d31" stroke-width="1.4" opacity="0.4"></line>
<polygon points="677.3,108.4 669.3,111.6 669.3,105.2" fill="#ed7d31" opacity="0.4"></polygon>
<rect x="646.7" y="193.0" width="20.0" height="10" fill="#0a0a15" opacity="0.7" rx="3"></rect>
<text x="656.7" y="201.0" fill="#666688" font-size="6" text-anchor="middle" font-family="monospace">↑↓→↑↓</text>
<line x1="712.3" y1="80.0" x2="715.7" y2="80.0" stroke="#e15759" stroke-width="1.3" opacity="0.4"></line>
<polygon points="707.7,80.0 715.7,76.8 715.7,83.2" fill="#e15759" opacity="0.4"></polygon>
<rect x="700.0" y="68.0" width="20.0" height="10" fill="#0a0a15" opacity="0.7" rx="3"></rect>
<text x="710.0" y="76.0" fill="#666688" font-size="6" text-anchor="middle" font-family="monospace">↑↓→↑↓</text>
<line x1="742.7" y1="108.4" x2="760.7" y2="108.4" stroke="#20d0b8" stroke-width="1.3" opacity="0.4"></line>
<line x1="760.7" y1="108.4" x2="760.7" y2="301.6" stroke="#20d0b8" stroke-width="1.3" opacity="0.4"></line>
<line x1="760.7" y1="301.6" x2="775.9" y2="301.6" stroke="#20d0b8" stroke-width="1.3" opacity="0.4"></line>
<polygon points="783.9,301.6 775.9,304.8 775.9,298.4" fill="#20d0b8" opacity="0.4"></polygon>
<rect x="753.3" y="193.0" width="20.0" height="10" fill="#0a0a15" opacity="0.7" rx="3"></rect>
<text x="763.3" y="201.0" fill="#666688" font-size="6" text-anchor="middle" font-family="monospace">↑↓→↑↓</text>
<line x1="659.0" y1="330.0" x2="753.0" y2="330.0" stroke="#b85a1c" stroke-width="1.4" opacity="0.4"></line>
<polygon points="761.0,330.0 753.0,333.2 753.0,326.8" fill="#b85a1c" opacity="0.4"></polygon>
<rect x="700.0" y="318.0" width="20.0" height="10" fill="#0a0a15" opacity="0.7" rx="3"></rect>
<text x="710.0" y="326.0" fill="#666688" font-size="6" text-anchor="middle" font-family="monospace">↑↓→↑↓</text>
<line x1="125.7" y1="330.0" x2="129.0" y2="330.0" stroke="#6baed6" stroke-width="1.3" opacity="0.75"></line>
<polygon points="121.0,330.0 129.0,326.8 129.0,333.2" fill="#6baed6" opacity="0.75"></polygon>
<rect x="121.3" y="318.0" width="4.0" height="10" fill="#0a0a15" opacity="0.7" rx="3"></rect>
<text x="123.3" y="326.0" fill="#20b888" font-size="6" text-anchor="middle" font-family="monospace">↑</text>
<line x1="179.0" y1="330.0" x2="182.3" y2="330.0" stroke="#ffd700" stroke-width="1.3" opacity="0.75"></line>
<polygon points="174.3,330.0 182.3,326.8 182.3,333.2" fill="#ffd700" opacity="0.75"></polygon>
<line x1="232.3" y1="330.0" x2="235.7" y2="330.0" stroke="#ffd700" stroke-width="1.3" opacity="0.55"></line>
<polygon points="227.7,330.0 235.7,326.8 235.7,333.2" fill="#ffd700" opacity="0.55"></polygon>
<line x1="285.7" y1="330.0" x2="289.0" y2="330.0" stroke="#59a14f" stroke-width="1.3" opacity="0.55"></line>
<polygon points="281.0,330.0 289.0,326.8 289.0,333.2" fill="#59a14f" opacity="0.55"></polygon>
<rect x="275.3" y="318.0" width="16.0" height="10" fill="#0a0a15" opacity="0.7" rx="3"></rect>
<text x="283.3" y="326.0" fill="#ffd700" font-size="6" text-anchor="middle" font-family="monospace">↑→↑↓</text>
<line x1="339.0" y1="330.0" x2="342.3" y2="330.0" stroke="#e15759" stroke-width="1.3" opacity="0.55"></line>
<polygon points="334.3,330.0 342.3,326.8 342.3,333.2" fill="#e15759" opacity="0.55"></polygon>
<rect x="326.7" y="318.0" width="20.0" height="10" fill="#0a0a15" opacity="0.7" rx="3"></rect>
<text x="336.7" y="326.0" fill="#666688" font-size="6" text-anchor="middle" font-family="monospace">↑↓→↑↓</text>
<line x1="392.3" y1="333.5" x2="396.7" y2="333.5" stroke="#f28e2b" stroke-width="1.0" opacity="0.55"></line>
<line x1="392.3" y1="326.5" x2="396.7" y2="326.5" stroke="#f28e2b" stroke-width="1.0" opacity="0.55"></line>
<polygon points="387.7,330.0 397.7,326.0 397.7,334.0" fill="#f28e2b" opacity="0.55"></polygon>
<rect x="380.0" y="318.0" width="20.0" height="10" fill="#0a0a15" opacity="0.7" rx="3"></rect>
<text x="390.0" y="326.0" fill="#666688" font-size="6" text-anchor="middle" font-family="monospace">↑↓→↑↓</text>
<line x1="872.3" y1="333.5" x2="876.7" y2="333.5" stroke="#f28e2b" stroke-width="1.0" opacity="0.55"></line>
<line x1="872.3" y1="326.5" x2="876.7" y2="326.5" stroke="#f28e2b" stroke-width="1.0" opacity="0.55"></line>
<polygon points="867.7,330.0 877.7,326.0 877.7,334.0" fill="#f28e2b" opacity="0.55"></polygon>
<rect x="860.0" y="318.0" width="20.0" height="10" fill="#0a0a15" opacity="0.7" rx="3"></rect>
<text x="870.0" y="326.0" fill="#666688" font-size="6" text-anchor="middle" font-family="monospace">↑↓→↑↓</text>
<line x1="925.7" y1="330.0" x2="929.0" y2="330.0" stroke="#ffd700" stroke-width="1.3" opacity="0.55"></line>
<polygon points="921.0,330.0 929.0,326.8 929.0,333.2" fill="#ffd700" opacity="0.55"></polygon>
<rect x="913.3" y="318.0" width="20.0" height="10" fill="#0a0a15" opacity="0.7" rx="3"></rect>
<text x="923.3" y="326.0" fill="#666688" font-size="6" text-anchor="middle" font-family="monospace">↑↓→↑↓</text>
<line x1="979.0" y1="330.0" x2="982.3" y2="330.0" stroke="#cc3344" stroke-width="1.3" opacity="0.55"></line>
<polygon points="974.3,330.0 982.3,326.8 982.3,333.2" fill="#cc3344" opacity="0.55"></polygon>
<rect x="966.7" y="318.0" width="20.0" height="10" fill="#0a0a15" opacity="0.7" rx="3"></rect>
<text x="976.7" y="326.0" fill="#666688" font-size="6" text-anchor="middle" font-family="monospace">↑↓→↑↓</text>
<line x1="605.7" y1="330.0" x2="609.0" y2="330.0" stroke="#ffd700" stroke-width="1.3" opacity="0.4"></line>
<polygon points="601.0,330.0 609.0,326.8 609.0,333.2" fill="#ffd700" opacity="0.4"></polygon>
<rect x="593.3" y="318.0" width="20.0" height="10" fill="#0a0a15" opacity="0.7" rx="3"></rect>
<text x="603.3" y="326.0" fill="#666688" font-size="6" text-anchor="middle" font-family="monospace">↑↓→↑↓</text>
<line x1="819.0" y1="330.0" x2="822.3" y2="330.0" stroke="#ffd700" stroke-width="1.3" opacity="0.4"></line>
<polygon points="814.3,330.0 822.3,326.8 822.3,333.2" fill="#ffd700" opacity="0.4"></polygon>
<rect x="806.7" y="318.0" width="20.0" height="10" fill="#0a0a15" opacity="0.7" rx="3"></rect>
<text x="816.7" y="326.0" fill="#666688" font-size="6" text-anchor="middle" font-family="monospace">↑↓→↑↓</text>
<path d="M445.7,330.0 Q496.7,470.0 547.7,330.0" fill="none" stroke="#2b6b9f" stroke-dasharray="4,4" stroke-width="1" opacity="0.25"></path>
<path d="M659.0,330.0 Q710.0,470.0 761.0,330.0" fill="none" stroke="#b85a1c" stroke-dasharray="4,4" stroke-width="1" opacity="0.25"></path>
<circle cx="96.7" cy="330.0" r="22.0" fill="#4e79a7" stroke="#ffffff20" stroke-width="1.0"></circle>
<text x="96.7" y="300.0" fill="#cccccc" font-size="8" text-anchor="middle" font-family="monospace" font-weight="bold">VI</text>
<text x="96.7" y="364.0" fill="#888" font-size="5.5" text-anchor="middle" font-family="monospace">VINIT</text>
<circle cx="119.7" cy="330.0" r="2.5" fill="#ffffff90" stroke-width="0"></circle>
<circle cx="150.0" cy="330.0" r="22.0" fill="#4e79a7" stroke="#ffffff20" stroke-width="1.0"></circle>
<circle cx="150.0" cy="330.0" r="12.1" fill="#153530" stroke-width="0"></circle>
<text x="150.0" y="332.0" fill="#20b2aa" font-size="7" text-anchor="middle" font-family="monospace" font-weight="bold">↑</text>
<text x="150.0" y="300.0" fill="#cccccc" font-size="8" text-anchor="middle" font-family="monospace" font-weight="bold">IM</text>
<text x="150.0" y="364.0" fill="#888" font-size="5.5" text-anchor="middle" font-family="monospace">IMSCRIB</text>
<circle cx="127.0" cy="330.0" r="2.5" fill="#ffffff60" stroke-width="0"></circle>
<circle cx="173.0" cy="330.0" r="2.5" fill="#ffffff90" stroke-width="0"></circle>
<polygon points="203.33333333333334,308.0 225.3,330 203.33333333333334,352.0 181.3,330" fill="#ffd700" stroke="#ffffff20" stroke-width="1.0"></polygon>
<circle cx="203.3" cy="330.0" r="12.1" fill="#153530" stroke-width="0"></circle>
<text x="203.3" y="332.0" fill="#20b2aa" font-size="7" text-anchor="middle" font-family="monospace" font-weight="bold">↑</text>
<text x="203.3" y="300.0" fill="#cccccc" font-size="8" text-anchor="middle" font-family="monospace" font-weight="bold">FS</text>
<text x="203.3" y="364.0" fill="#888" font-size="5.5" text-anchor="middle" font-family="monospace">FSPLIT</text>
<circle cx="180.3" cy="330.0" r="2.5" fill="#ffffff60" stroke-width="0"></circle>
<circle cx="226.3" cy="323.0" r="2.5" fill="#ffffff90" stroke-width="0"></circle>
<circle cx="226.3" cy="337.0" r="2.5" fill="#ffffff90" stroke-width="0"></circle>
<circle cx="256.7" cy="330.0" r="22.0" fill="#4e79a7" stroke="#ffffff20" stroke-width="1.0"></circle>
<circle cx="256.7" cy="330.0" r="12.1" fill="#153530" stroke-width="0"></circle>
<text x="256.7" y="332.0" fill="#20b2aa" font-size="7" text-anchor="middle" font-family="monospace" font-weight="bold">↑</text>
<text x="256.7" y="300.0" fill="#cccccc" font-size="8" text-anchor="middle" font-family="monospace" font-weight="bold">AF</text>
<text x="256.7" y="364.0" fill="#888" font-size="5.5" text-anchor="middle" font-family="monospace">AFWD</text>
<circle cx="233.7" cy="330.0" r="2.5" fill="#ffffff60" stroke-width="0"></circle>
<circle cx="279.7" cy="330.0" r="2.5" fill="#ffffff90" stroke-width="0"></circle>
<circle cx="310.0" cy="330.0" r="22.0" fill="#4e79a7" stroke="#ffffff20" stroke-width="1.0"></circle>
<circle cx="310.0" cy="330.0" r="12.1" fill="#332200" stroke-width="0"></circle>
<text x="310.0" y="332.0" fill="#ffd700" font-size="7" text-anchor="middle" font-family="monospace" font-weight="bold">↑↓</text>
<text x="310.0" y="300.0" fill="#cccccc" font-size="8" text-anchor="middle" font-family="monospace" font-weight="bold">AR</text>
<text x="310.0" y="364.0" fill="#888" font-size="5.5" text-anchor="middle" font-family="monospace">AREV</text>
<circle cx="287.0" cy="330.0" r="2.5" fill="#ffffff60" stroke-width="0"></circle>
<circle cx="333.0" cy="330.0" r="2.5" fill="#ffffff90" stroke-width="0"></circle>
<circle cx="363.3" cy="330.0" r="22.0" fill="#4e79a7" stroke="#ffffff20" stroke-width="1.0"></circle>
<circle cx="363.3" cy="330.0" r="12.1" fill="#332200" stroke-width="0"></circle>
<text x="363.3" y="332.0" fill="#ffd700" font-size="7" text-anchor="middle" font-family="monospace" font-weight="bold">↑↓</text>
<text x="363.3" y="300.0" fill="#cccccc" font-size="8" text-anchor="middle" font-family="monospace" font-weight="bold">CL</text>
<text x="363.3" y="364.0" fill="#888" font-size="5.5" text-anchor="middle" font-family="monospace">CLINK</text>
<circle cx="340.3" cy="330.0" r="2.5" fill="#ffffff60" stroke-width="0"></circle>
<circle cx="386.3" cy="330.0" r="2.5" fill="#ffffff90" stroke-width="0"></circle>
<polygon points="416.6666666666667,308.0 438.7,330 416.6666666666667,352.0 394.7,330" fill="#ffd700" stroke="#ffffff20" stroke-width="1.0"></polygon>
<circle cx="416.7" cy="330.0" r="12.1" fill="#332200" stroke-width="0"></circle>
<text x="416.7" y="332.0" fill="#ffd700" font-size="7" text-anchor="middle" font-family="monospace" font-weight="bold">↑↓</text>
<text x="416.7" y="300.0" fill="#cccccc" font-size="8" text-anchor="middle" font-family="monospace" font-weight="bold">FS</text>
<text x="416.7" y="364.0" fill="#888" font-size="5.5" text-anchor="middle" font-family="monospace">FSPLIT</text>
<circle cx="393.7" cy="330.0" r="2.5" fill="#ffffff60" stroke-width="0"></circle>
<circle cx="439.7" cy="323.0" r="2.5" fill="#ffffff90" stroke-width="0"></circle>
<circle cx="439.7" cy="337.0" r="2.5" fill="#ffffff90" stroke-width="0"></circle>
<polygon points="489.1,91.0 470.0,102.0 450.9,91.0 450.9,69.0 470.0,58.0 489.1,69.0" fill="#e15759" stroke="#ffffff20" stroke-width="1.0"></polygon>
<circle cx="470.0" cy="80.0" r="12.1" fill="#332200" stroke-width="0"></circle>
<text x="470.0" y="82.0" fill="#ffd700" font-size="7" text-anchor="middle" font-family="monospace" font-weight="bold">↑↓</text>
<text x="470.0" y="50.0" fill="#cccccc" font-size="8" text-anchor="middle" font-family="monospace" font-weight="bold">ET</text>
<text x="470.0" y="114.0" fill="#888" font-size="5.5" text-anchor="middle" font-family="monospace">EVALT</text>
<circle cx="447.0" cy="80.0" r="3.5" fill="#f28e2b" stroke-width="0.8"></circle>
<circle cx="493.0" cy="80.0" r="3.5" fill="#59a14f" stroke-width="0.9"></circle>
<rect x="501.3" y="58.0" width="44.0" height="44.0" fill="#59a14f" stroke="#ffffff20" stroke-width="1.0"></rect>
<circle cx="523.3" cy="80.0" r="12.1" fill="#332200" stroke-width="0"></circle>
<text x="523.3" y="82.0" fill="#ffd700" font-size="7" text-anchor="middle" font-family="monospace" font-weight="bold">↑↓</text>
<text x="523.3" y="50.0" fill="#cccccc" font-size="8" text-anchor="middle" font-family="monospace" font-weight="bold">IX</text>
<text x="523.3" y="114.0" fill="#888" font-size="5.5" text-anchor="middle" font-family="monospace">IFIX</text>
<circle cx="500.3" cy="80.0" r="2.5" fill="#ffffff60" stroke-width="0"></circle>
<circle cx="546.3" cy="80.0" r="2.5" fill="#ffffff90" stroke-width="0"></circle>
<polygon points="576.6666666666666,308.0 598.7,330 576.6666666666666,352.0 554.7,330" fill="#ffd700" stroke="#ffffff20" stroke-width="1.0"></polygon>
<circle cx="576.7" cy="330.0" r="12.1" fill="#332200" stroke-width="0"></circle>
<text x="576.7" y="332.0" fill="#ffd700" font-size="7" text-anchor="middle" font-family="monospace" font-weight="bold">↑↓</text>
<text x="576.7" y="300.0" fill="#cccccc" font-size="8" text-anchor="middle" font-family="monospace" font-weight="bold">FF</text>
<text x="576.7" y="364.0" fill="#888" font-size="5.5" text-anchor="middle" font-family="monospace">FFUSE</text>
<circle cx="553.7" cy="323.0" r="2.5" fill="#ffffff60" stroke-width="0"></circle>
<circle cx="553.7" cy="337.0" r="2.5" fill="#ffffff60" stroke-width="0"></circle>
<circle cx="599.7" cy="330.0" r="2.5" fill="#ffffff90" stroke-width="0"></circle>
<polygon points="630.0,308.0 652.0,330 630.0,352.0 608.0,330" fill="#ffd700" stroke="#ffffff20" stroke-width="1.0"></polygon>
<circle cx="630.0" cy="330.0" r="12.1" fill="#332200" stroke-width="0"></circle>
<text x="630.0" y="332.0" fill="#ffd700" font-size="7" text-anchor="middle" font-family="monospace" font-weight="bold">↑↓</text>
<text x="630.0" y="300.0" fill="#cccccc" font-size="8" text-anchor="middle" font-family="monospace" font-weight="bold">FS</text>
<text x="630.0" y="364.0" fill="#888" font-size="5.5" text-anchor="middle" font-family="monospace">FSPLIT</text>
<circle cx="607.0" cy="330.0" r="2.5" fill="#ffffff60" stroke-width="0"></circle>
<circle cx="653.0" cy="323.0" r="2.5" fill="#ffffff90" stroke-width="0"></circle>
<circle cx="653.0" cy="337.0" r="2.5" fill="#ffffff90" stroke-width="0"></circle>
<polygon points="702.4,91.0 683.3,102.0 664.3,91.0 664.3,69.0 683.3,58.0 702.4,69.0" fill="#e15759" stroke="#ffffff20" stroke-width="1.0"></polygon>
<circle cx="683.3" cy="80.0" r="12.1" fill="#332200" stroke-width="0"></circle>
<text x="683.3" y="82.0" fill="#ffd700" font-size="7" text-anchor="middle" font-family="monospace" font-weight="bold">↑↓</text>
<text x="683.3" y="50.0" fill="#cccccc" font-size="8" text-anchor="middle" font-family="monospace" font-weight="bold">EG</text>
<text x="683.3" y="114.0" fill="#888" font-size="5.5" text-anchor="middle" font-family="monospace">ENGAGR</text>
<circle cx="660.3" cy="80.0" r="2.5" fill="#ffffff60" stroke-width="0"></circle>
<circle cx="706.3" cy="80.0" r="2.5" fill="#ffffff90" stroke-width="0"></circle>
<polygon points="755.7,91.0 736.7,102.0 717.6,91.0 717.6,69.0 736.7,58.0 755.7,69.0" fill="#e15759" stroke="#ffffff20" stroke-width="1.0"></polygon>
<circle cx="736.7" cy="80.0" r="12.1" fill="#332200" stroke-width="0"></circle>
<text x="736.7" y="82.0" fill="#ffd700" font-size="7" text-anchor="middle" font-family="monospace" font-weight="bold">↑↓</text>
<text x="736.7" y="50.0" fill="#cccccc" font-size="8" text-anchor="middle" font-family="monospace" font-weight="bold">ET</text>
<text x="736.7" y="114.0" fill="#888" font-size="5.5" text-anchor="middle" font-family="monospace">EVALT</text>
<circle cx="713.7" cy="80.0" r="3.5" fill="#f28e2b" stroke-width="0.8"></circle>
<circle cx="759.7" cy="80.0" r="3.5" fill="#59a14f" stroke-width="0.9"></circle>
<polygon points="790.0,308.0 812.0,330 790.0,352.0 768.0,330" fill="#ffd700" stroke="#ffffff20" stroke-width="1.0"></polygon>
<circle cx="790.0" cy="330.0" r="12.1" fill="#332200" stroke-width="0"></circle>
<text x="790.0" y="332.0" fill="#ffd700" font-size="7" text-anchor="middle" font-family="monospace" font-weight="bold">↑↓</text>
<text x="790.0" y="300.0" fill="#cccccc" font-size="8" text-anchor="middle" font-family="monospace" font-weight="bold">FF</text>
<text x="790.0" y="364.0" fill="#888" font-size="5.5" text-anchor="middle" font-family="monospace">FFUSE</text>
<circle cx="767.0" cy="323.0" r="2.5" fill="#ffffff60" stroke-width="0"></circle>
<circle cx="767.0" cy="337.0" r="2.5" fill="#ffffff60" stroke-width="0"></circle>
<circle cx="813.0" cy="330.0" r="2.5" fill="#ffffff90" stroke-width="0"></circle>
<circle cx="843.3" cy="330.0" r="22.0" fill="#4e79a7" stroke="#ffffff20" stroke-width="1.0"></circle>
<circle cx="843.3" cy="330.0" r="12.1" fill="#332200" stroke-width="0"></circle>
<text x="843.3" y="332.0" fill="#ffd700" font-size="7" text-anchor="middle" font-family="monospace" font-weight="bold">↑↓</text>
<text x="843.3" y="300.0" fill="#cccccc" font-size="8" text-anchor="middle" font-family="monospace" font-weight="bold">CL</text>
<text x="843.3" y="364.0" fill="#888" font-size="5.5" text-anchor="middle" font-family="monospace">CLINK</text>
<circle cx="820.3" cy="330.0" r="2.5" fill="#ffffff60" stroke-width="0"></circle>
<circle cx="866.3" cy="330.0" r="2.5" fill="#ffffff90" stroke-width="0"></circle>
<circle cx="896.7" cy="330.0" r="22.0" fill="#4e79a7" stroke="#ffffff20" stroke-width="1.0"></circle>
<circle cx="896.7" cy="330.0" r="12.1" fill="#332200" stroke-width="0"></circle>
<text x="896.7" y="332.0" fill="#ffd700" font-size="7" text-anchor="middle" font-family="monospace" font-weight="bold">↑↓</text>
<text x="896.7" y="300.0" fill="#cccccc" font-size="8" text-anchor="middle" font-family="monospace" font-weight="bold">IM</text>
<text x="896.7" y="364.0" fill="#888" font-size="5.5" text-anchor="middle" font-family="monospace">IMSCRIB</text>
<circle cx="873.7" cy="330.0" r="2.5" fill="#ffffff60" stroke-width="0"></circle>
<circle cx="919.7" cy="330.0" r="2.5" fill="#ffffff90" stroke-width="0"></circle>
<rect x="928.0" y="308.0" width="44.0" height="44.0" fill="#59a14f" stroke="#ffffff20" stroke-width="1.0"></rect>
<circle cx="950.0" cy="330.0" r="12.1" fill="#332200" stroke-width="0"></circle>
<text x="950.0" y="332.0" fill="#ffd700" font-size="7" text-anchor="middle" font-family="monospace" font-weight="bold">↑↓</text>
<text x="950.0" y="300.0" fill="#cccccc" font-size="8" text-anchor="middle" font-family="monospace" font-weight="bold">IX</text>
<text x="950.0" y="364.0" fill="#888" font-size="5.5" text-anchor="middle" font-family="monospace">IFIX</text>
<circle cx="927.0" cy="330.0" r="2.5" fill="#ffffff60" stroke-width="0"></circle>
<circle cx="973.0" cy="330.0" r="2.5" fill="#ffffff90" stroke-width="0"></circle>
<circle cx="1003.3" cy="330.0" r="22.0" fill="#4e79a7" stroke="#ffffff20" stroke-width="1.0"></circle>
<circle cx="1003.3" cy="330.0" r="12.1" fill="#332200" stroke-width="0"></circle>
<text x="1003.3" y="332.0" fill="#ffd700" font-size="7" text-anchor="middle" font-family="monospace" font-weight="bold">↑↓</text>
<text x="1003.3" y="300.0" fill="#cccccc" font-size="8" text-anchor="middle" font-family="monospace" font-weight="bold">TA</text>
<text x="1003.3" y="364.0" fill="#888" font-size="5.5" text-anchor="middle" font-family="monospace">TANCH</text>
<circle cx="980.3" cy="330.0" r="2.5" fill="#ffffff60" stroke-width="0"></circle>
<circle cx="1026.3" cy="330.0" r="2.5" fill="#ffffff90" stroke-width="0"></circle>
<text x="550.0" y="711.0" fill="#9988aa" font-size="7" text-anchor="middle" font-family="serif">Ouroboricity: O₁</text>
<text x="70.0" y="52.0" fill="#666" font-size="6" text-anchor="start" font-family="monospace" font-weight="bold">NODES</text>
<circle cx="110.0" cy="59.0" r="4.5" fill="#4e79a7" stroke-width="0"></circle>
<text x="120.0" y="62.0" fill="#4e79a7" font-size="5" text-anchor="start" font-family="monospace">LOGI</text>
<polygon points="158,54.5 162.5,59 158,63.5 153.5,59" fill="#ffd700" stroke="#ffffff20" stroke-width="1.0"></polygon>
<text x="168.0" y="62.0" fill="#ffd700" font-size="5" text-anchor="start" font-family="monospace">FROB</text>
<polygon points="209.9,61.2 206.0,63.5 202.1,61.2 202.1,56.8 206.0,54.5 209.9,56.8" fill="#e15759" stroke="#ffffff20" stroke-width="1.0"></polygon>
<text x="216.0" y="62.0" fill="#e15759" font-size="5" text-anchor="start" font-family="monospace">DIAL</text>
<rect x="249.5" y="54.5" width="9.0" height="9.0" fill="#59a14f" stroke="#ffffff20" stroke-width="1.0"></rect>
<text x="264.0" y="62.0" fill="#59a14f" font-size="5" text-anchor="start" font-family="monospace">LINE</text>
<text x="312.0" y="52.0" fill="#666" font-size="6" text-anchor="start" font-family="monospace" font-weight="bold">EDGES</text>
<line x1="350.0" y1="59.0" x2="364.0" y2="59.0" stroke="#59a14f" stroke-width="1.5" opacity="0.7"></line>
<text x="368.0" y="62.0" fill="#59a14f" font-size="5" text-anchor="start" font-family="monospace">AFWD</text>
<line x1="402.0" y1="59.0" x2="416.0" y2="59.0" stroke="#e15759" stroke-width="1.5" opacity="0.7"></line>
<text x="420.0" y="62.0" fill="#e15759" font-size="5" text-anchor="start" font-family="monospace">AREV</text>
<line x1="454.0" y1="59.0" x2="468.0" y2="59.0" stroke="#f28e2b" stroke-width="1.5" opacity="0.7"></line>
<text x="472.0" y="62.0" fill="#f28e2b" font-size="5" text-anchor="start" font-family="monospace">CLINK</text>
<line x1="506.0" y1="59.0" x2="520.0" y2="59.0" stroke="#b07aa1" stroke-width="1.5" opacity="0.7" stroke-dasharray="4,3"></line>
<text x="524.0" y="62.0" fill="#b07aa1" font-size="5" text-anchor="start" font-family="monospace">TANCH</text>
<line x1="558.0" y1="59.0" x2="572.0" y2="59.0" stroke="#ffd700" stroke-width="1.5" opacity="0.7"></line>
<text x="576.0" y="62.0" fill="#ffd700" font-size="5" text-anchor="start" font-family="monospace">IMSC</text>
<line x1="610.0" y1="59.0" x2="624.0" y2="59.0" stroke="#cc3344" stroke-width="1.5" opacity="0.7"></line>
<text x="628.0" y="62.0" fill="#cc3344" font-size="5" text-anchor="start" font-family="monospace">IFIX</text>
<text x="70.0" y="72.0" fill="#666" font-size="6" text-anchor="start" font-family="monospace" font-weight="bold">GUARD</text>
<circle cx="110.0" cy="79.0" r="3.0" fill="#f28e2b" stroke-width="0.8"></circle>
<text x="117.0" y="82.0" fill="#f28e2b" font-size="5" text-anchor="start" font-family="monospace">approach</text>
<circle cx="162.0" cy="79.0" r="3.0" fill="#59a14f" stroke-width="0.9"></circle>
<text x="169.0" y="82.0" fill="#59a14f" font-size="5" text-anchor="start" font-family="monospace">passed</text>
<text x="214.0" y="72.0" fill="#666" font-size="6" text-anchor="start" font-family="monospace" font-weight="bold">REG Δ</text>
<text x="252.0" y="82.0" fill="#20b888" font-size="5.5" text-anchor="start" font-family="monospace">→↑</text>
<text x="280.0" y="82.0" fill="#ffd700" font-size="5.5" text-anchor="start" font-family="monospace">↓→↑↓</text>
<text x="308.0" y="82.0" fill="#e15759" font-size="5.5" text-anchor="start" font-family="monospace">↑↔↓</text>
<line x1="344.0" y1="79.0" x2="358.0" y2="79.0" stroke="#ffd700" stroke-width="1.5" opacity="0.6" stroke-dasharray="5,3"></line>
<text x="362.0" y="82.0" fill="#ffd700" font-size="5.5" text-anchor="start" font-family="monospace">cross-br.</text>
<line x1="404.0" y1="79.0" x2="418.0" y2="79.0" stroke="#9988cc" stroke-width="1.5" opacity="0.5"></line>
<text x="422.0" y="82.0" fill="#9988cc" font-size="5.5" text-anchor="start" font-family="monospace">loop</text>
<rect x="388.6666666666667" y="302" width="215.99999999999994" height="56" fill="none" stroke="#4e79a7" stroke-width="0.9" opacity="0.15" rx="8" ry="8" stroke-dasharray="4,3"></rect>
<text x="392.7" y="300.0" fill="#4e79a7" font-size="5" text-anchor="start" font-family="monospace">d2</text>
<rect x="602.0" y="302" width="216.0" height="56" fill="none" stroke="#70ad47" stroke-width="0.9" opacity="0.15" rx="8" ry="8" stroke-dasharray="4,3"></rect>
<text x="606.0" y="300.0" fill="#70ad47" font-size="5" text-anchor="start" font-family="monospace">d2</text>
<path d="M974.3,330.0 L974.3,10.0 L125.7,10.0 L125.7,330.0" fill="none" stroke="#9988cc" stroke-width="1.8" opacity="0.75"></path>
<polygon points="125.7,330.0 122.1,321.0 129.3,321.0" fill="#9988cc" opacity="0.75"></polygon>
<text x="550.0" y="12.0" fill="#9988cc" font-size="8" text-anchor="middle" font-family="serif">O₁</text>
</svg>