<svg xmlns="http://www.w3.org/2000/svg" viewBox="0 0 1100 630">
<rect width="1100" height="630" fill="#0a0a15"/>
<line x1="0.0" y1="0.0" x2="0.0" y2="630.0" stroke="#151525" stroke-width="0.4" opacity="0.25"></line>
<line x1="40.0" y1="0.0" x2="40.0" y2="630.0" stroke="#151525" stroke-width="0.4" opacity="0.25"></line>
<line x1="80.0" y1="0.0" x2="80.0" y2="630.0" stroke="#151525" stroke-width="0.4" opacity="0.25"></line>
<line x1="120.0" y1="0.0" x2="120.0" y2="630.0" stroke="#151525" stroke-width="0.4" opacity="0.25"></line>
<line x1="160.0" y1="0.0" x2="160.0" y2="630.0" stroke="#151525" stroke-width="0.4" opacity="0.25"></line>
<line x1="200.0" y1="0.0" x2="200.0" y2="630.0" stroke="#151525" stroke-width="0.4" opacity="0.25"></line>
<line x1="240.0" y1="0.0" x2="240.0" y2="630.0" stroke="#151525" stroke-width="0.4" opacity="0.25"></line>
<line x1="280.0" y1="0.0" x2="280.0" y2="630.0" stroke="#151525" stroke-width="0.4" opacity="0.25"></line>
<line x1="320.0" y1="0.0" x2="320.0" y2="630.0" stroke="#151525" stroke-width="0.4" opacity="0.25"></line>
<line x1="360.0" y1="0.0" x2="360.0" y2="630.0" stroke="#151525" stroke-width="0.4" opacity="0.25"></line>
<line x1="400.0" y1="0.0" x2="400.0" y2="630.0" stroke="#151525" stroke-width="0.4" opacity="0.25"></line>
<line x1="440.0" y1="0.0" x2="440.0" y2="630.0" stroke="#151525" stroke-width="0.4" opacity="0.25"></line>
<line x1="480.0" y1="0.0" x2="480.0" y2="630.0" stroke="#151525" stroke-width="0.4" opacity="0.25"></line>
<line x1="520.0" y1="0.0" x2="520.0" y2="630.0" stroke="#151525" stroke-width="0.4" opacity="0.25"></line>
<line x1="560.0" y1="0.0" x2="560.0" y2="630.0" stroke="#151525" stroke-width="0.4" opacity="0.25"></line>
<line x1="600.0" y1="0.0" x2="600.0" y2="630.0" stroke="#151525" stroke-width="0.4" opacity="0.25"></line>
<line x1="640.0" y1="0.0" x2="640.0" y2="630.0" stroke="#151525" stroke-width="0.4" opacity="0.25"></line>
<line x1="680.0" y1="0.0" x2="680.0" y2="630.0" stroke="#151525" stroke-width="0.4" opacity="0.25"></line>
<line x1="720.0" y1="0.0" x2="720.0" y2="630.0" stroke="#151525" stroke-width="0.4" opacity="0.25"></line>
<line x1="760.0" y1="0.0" x2="760.0" y2="630.0" stroke="#151525" stroke-width="0.4" opacity="0.25"></line>
<line x1="800.0" y1="0.0" x2="800.0" y2="630.0" stroke="#151525" stroke-width="0.4" opacity="0.25"></line>
<line x1="840.0" y1="0.0" x2="840.0" y2="630.0" stroke="#151525" stroke-width="0.4" opacity="0.25"></line>
<line x1="880.0" y1="0.0" x2="880.0" y2="630.0" stroke="#151525" stroke-width="0.4" opacity="0.25"></line>
<line x1="920.0" y1="0.0" x2="920.0" y2="630.0" stroke="#151525" stroke-width="0.4" opacity="0.25"></line>
<line x1="960.0" y1="0.0" x2="960.0" y2="630.0" stroke="#151525" stroke-width="0.4" opacity="0.25"></line>
<line x1="1000.0" y1="0.0" x2="1000.0" y2="630.0" stroke="#151525" stroke-width="0.4" opacity="0.25"></line>
<line x1="1040.0" y1="0.0" x2="1040.0" y2="630.0" stroke="#151525" stroke-width="0.4" opacity="0.25"></line>
<line x1="1080.0" y1="0.0" x2="1080.0" y2="630.0" stroke="#151525" stroke-width="0.4" opacity="0.25"></line>
<line x1="0.0" y1="0.0" x2="1100.0" y2="0.0" stroke="#151525" stroke-width="0.4" opacity="0.25"></line>
<line x1="0.0" y1="40.0" x2="1100.0" y2="40.0" stroke="#151525" stroke-width="0.4" opacity="0.25"></line>
<line x1="0.0" y1="80.0" x2="1100.0" y2="80.0" stroke="#151525" stroke-width="0.4" opacity="0.25"></line>
<line x1="0.0" y1="120.0" x2="1100.0" y2="120.0" stroke="#151525" stroke-width="0.4" opacity="0.25"></line>
<line x1="0.0" y1="160.0" x2="1100.0" y2="160.0" stroke="#151525" stroke-width="0.4" opacity="0.25"></line>
<line x1="0.0" y1="200.0" x2="1100.0" y2="200.0" stroke="#151525" stroke-width="0.4" opacity="0.25"></line>
<line x1="0.0" y1="240.0" x2="1100.0" y2="240.0" stroke="#151525" stroke-width="0.4" opacity="0.25"></line>
<line x1="0.0" y1="280.0" x2="1100.0" y2="280.0" stroke="#151525" stroke-width="0.4" opacity="0.25"></line>
<line x1="0.0" y1="320.0" x2="1100.0" y2="320.0" stroke="#151525" stroke-width="0.4" opacity="0.25"></line>
<line x1="0.0" y1="360.0" x2="1100.0" y2="360.0" stroke="#151525" stroke-width="0.4" opacity="0.25"></line>
<line x1="0.0" y1="400.0" x2="1100.0" y2="400.0" stroke="#151525" stroke-width="0.4" opacity="0.25"></line>
<line x1="0.0" y1="440.0" x2="1100.0" y2="440.0" stroke="#151525" stroke-width="0.4" opacity="0.25"></line>
<line x1="0.0" y1="480.0" x2="1100.0" y2="480.0" stroke="#151525" stroke-width="0.4" opacity="0.25"></line>
<line x1="0.0" y1="520.0" x2="1100.0" y2="520.0" stroke="#151525" stroke-width="0.4" opacity="0.25"></line>
<line x1="0.0" y1="560.0" x2="1100.0" y2="560.0" stroke="#151525" stroke-width="0.4" opacity="0.25"></line>
<line x1="0.0" y1="600.0" x2="1100.0" y2="600.0" stroke="#151525" stroke-width="0.4" opacity="0.25"></line>
<text x="550.0" y="26.0" fill="#cccccc" font-size="13" text-anchor="middle" font-family="monospace" font-weight="bold">informational completeness duality splitting d 1</text>
<text x="22.0" y="190.0" fill="#20c0b0" font-size="7" text-anchor="middle" font-family="monospace">T-lane</text>
<text x="22.0" y="470.0" fill="#e04060" font-size="7" text-anchor="middle" font-family="monospace">F-lane</text>
<text x="22.0" y="330.0" fill="#555" font-size="7" text-anchor="middle" font-family="monospace">main</text>
<line x1="833.6" y1="145.0" x2="833.6" y2="515.0" stroke="#cc3344" stroke-width="1.8" opacity="0.4" stroke-dasharray="6,4"></line>
<text x="833.6" y="135.0" fill="#cc3344" font-size="7" text-anchor="middle" font-family="monospace" font-weight="bold">IFIX</text>
<polygon points="833.6363636363636,141.0 837.6,145 833.6363636363636,149.0 829.6,145" fill="#cc3344" opacity="0.6"></polygon>
<polygon points="833.6363636363636,511.0 837.6,515 833.6363636363636,519.0 829.6,515" fill="#cc3344" opacity="0.6"></polygon>
<line x1="179.1" y1="330.0" x2="197.1" y2="330.0" stroke="#5b9bd5" stroke-width="1.4" opacity="0.55"></line>
<line x1="197.1" y1="330.0" x2="197.1" y2="190.0" stroke="#5b9bd5" stroke-width="1.4" opacity="0.55"></line>
<line x1="197.1" y1="190.0" x2="222.0" y2="190.0" stroke="#5b9bd5" stroke-width="1.4" opacity="0.55"></line>
<polygon points="230.0,190.0 222.0,193.2 222.0,186.8" fill="#5b9bd5" opacity="0.55"></polygon>
<rect x="200.5" y="248.0" width="8.0" height="10" fill="#0a0a15" opacity="0.7" rx="3"></rect>
<text x="204.5" y="256.0" fill="#ffd700" font-size="6" text-anchor="middle" font-family="monospace">↑↓</text>
<line x1="230.0" y1="190.0" x2="265.6" y2="190.0" stroke="#20d0b8" stroke-width="1.3" opacity="0.55"></line>
<polygon points="273.6,190.0 265.6,193.2 265.6,186.8" fill="#20d0b8" opacity="0.55"></polygon>
<rect x="241.8" y="178.0" width="20.0" height="10" fill="#0a0a15" opacity="0.7" rx="3"></rect>
<text x="251.8" y="186.0" fill="#666688" font-size="6" text-anchor="middle" font-family="monospace">↑↓→↑↓</text>
<line x1="273.6" y1="186.5" x2="301.0" y2="186.5" stroke="#f28e2b" stroke-width="1.0" opacity="0.55"></line>
<line x1="273.6" y1="193.5" x2="301.0" y2="193.5" stroke="#f28e2b" stroke-width="1.0" opacity="0.55"></line>
<polygon points="310.0,190.0 300.0,194.0 300.0,186.0" fill="#f28e2b" opacity="0.55"></polygon>
<rect x="281.8" y="178.0" width="20.0" height="10" fill="#0a0a15" opacity="0.7" rx="3"></rect>
<text x="291.8" y="186.0" fill="#666688" font-size="6" text-anchor="middle" font-family="monospace">↑↓→↑↓</text>
<line x1="310.0" y1="190.0" x2="336.0" y2="190.0" stroke="#ffd700" stroke-width="1.3" opacity="0.55"></line>
<line x1="336.0" y1="190.0" x2="336.0" y2="330.0" stroke="#ffd700" stroke-width="1.3" opacity="0.55"></line>
<line x1="336.0" y1="330.0" x2="345.6" y2="330.0" stroke="#ffd700" stroke-width="1.3" opacity="0.55"></line>
<polygon points="353.6,330.0 345.6,333.2 345.6,326.8" fill="#ffd700" opacity="0.55"></polygon>
<rect x="323.8" y="248.0" width="16.0" height="10" fill="#0a0a15" opacity="0.7" rx="3"></rect>
<text x="331.8" y="256.0" fill="#ffd700" font-size="6" text-anchor="middle" font-family="monospace">↑↓→↑</text>
<line x1="179.1" y1="330.0" x2="205.1" y2="330.0" stroke="#2b6b9f" stroke-width="1.4" opacity="0.55"></line>
<line x1="205.1" y1="330.0" x2="205.1" y2="470.0" stroke="#2b6b9f" stroke-width="1.4" opacity="0.55"></line>
<line x1="205.1" y1="470.0" x2="207.5" y2="470.0" stroke="#2b6b9f" stroke-width="1.4" opacity="0.55"></line>
<polygon points="215.5,470.0 207.5,473.2 207.5,466.8" fill="#2b6b9f" opacity="0.55"></polygon>
<rect x="195.3" y="388.0" width="4.0" height="10" fill="#0a0a15" opacity="0.7" rx="3"></rect>
<text x="197.3" y="396.0" fill="#20b888" font-size="6" text-anchor="middle" font-family="monospace">↑</text>
<line x1="215.5" y1="470.0" x2="251.1" y2="470.0" stroke="#59a14f" stroke-width="1.3" opacity="0.55"></line>
<polygon points="259.1,470.0 251.1,473.2 251.1,466.8" fill="#59a14f" opacity="0.55"></polygon>
<rect x="229.3" y="458.0" width="16.0" height="10" fill="#0a0a15" opacity="0.7" rx="3"></rect>
<text x="237.3" y="466.0" fill="#ffd700" font-size="6" text-anchor="middle" font-family="monospace">↑→↑↓</text>
<line x1="259.1" y1="470.0" x2="292.2" y2="470.0" stroke="#e15759" stroke-width="1.3" opacity="0.55"></line>
<line x1="292.2" y1="470.0" x2="292.2" y2="330.0" stroke="#e15759" stroke-width="1.3" opacity="0.55"></line>
<line x1="292.2" y1="330.0" x2="345.6" y2="330.0" stroke="#e15759" stroke-width="1.3" opacity="0.55"></line>
<polygon points="353.6,330.0 345.6,333.2 345.6,326.8" fill="#e15759" opacity="0.55"></polygon>
<rect x="298.4" y="388.0" width="16.0" height="10" fill="#0a0a15" opacity="0.7" rx="3"></rect>
<text x="306.4" y="396.0" fill="#ffd700" font-size="6" text-anchor="middle" font-family="monospace">↑↓→↑</text>
<line x1="440.9" y1="330.0" x2="458.9" y2="330.0" stroke="#ed7d31" stroke-width="1.4" opacity="0.55"></line>
<line x1="458.9" y1="330.0" x2="458.9" y2="190.0" stroke="#ed7d31" stroke-width="1.4" opacity="0.55"></line>
<line x1="458.9" y1="190.0" x2="476.5" y2="190.0" stroke="#ed7d31" stroke-width="1.4" opacity="0.55"></line>
<polygon points="484.5,190.0 476.5,193.2 476.5,186.8" fill="#ed7d31" opacity="0.55"></polygon>
<line x1="484.5" y1="190.0" x2="520.2" y2="190.0" stroke="#59a14f" stroke-width="1.3" opacity="0.55"></line>
<polygon points="528.2,190.0 520.2,193.2 520.2,186.8" fill="#59a14f" opacity="0.55"></polygon>
<line x1="528.2" y1="190.0" x2="563.8" y2="190.0" stroke="#20d0b8" stroke-width="1.3" opacity="0.55"></line>
<polygon points="571.8,190.0 563.8,193.2 563.8,186.8" fill="#20d0b8" opacity="0.55"></polygon>
<rect x="546.0" y="178.0" width="8.0" height="10" fill="#0a0a15" opacity="0.7" rx="3"></rect>
<text x="550.0" y="186.0" fill="#20b888" font-size="6" text-anchor="middle" font-family="monospace">↑→</text>
<line x1="571.8" y1="186.5" x2="606.5" y2="186.5" stroke="#f28e2b" stroke-width="1.0" opacity="0.55"></line>
<line x1="571.8" y1="193.5" x2="606.5" y2="193.5" stroke="#f28e2b" stroke-width="1.0" opacity="0.55"></line>
<polygon points="615.5,190.0 605.5,194.0 605.5,186.0" fill="#f28e2b" opacity="0.55"></polygon>
<rect x="591.6" y="178.0" width="4.0" height="10" fill="#0a0a15" opacity="0.7" rx="3"></rect>
<text x="593.6" y="186.0" fill="#20b888" font-size="6" text-anchor="middle" font-family="monospace">↑</text>
<line x1="615.5" y1="190.0" x2="641.5" y2="190.0" stroke="#ffd700" stroke-width="1.3" opacity="0.55"></line>
<line x1="641.5" y1="190.0" x2="641.5" y2="330.0" stroke="#ffd700" stroke-width="1.3" opacity="0.55"></line>
<line x1="641.5" y1="330.0" x2="651.1" y2="330.0" stroke="#ffd700" stroke-width="1.3" opacity="0.55"></line>
<polygon points="659.1,330.0 651.1,333.2 651.1,326.8" fill="#ffd700" opacity="0.55"></polygon>
<line x1="440.9" y1="330.0" x2="651.1" y2="330.0" stroke="#b85a1c" stroke-width="1.4" opacity="0.55"></line>
<polygon points="659.1,330.0 651.1,333.2 651.1,326.8" fill="#b85a1c" opacity="0.55"></polygon>
<line x1="702.7" y1="330.0" x2="956.5" y2="330.0" stroke="#70ad47" stroke-width="1.4" opacity="0.55"></line>
<polygon points="964.5,330.0 956.5,333.2 956.5,326.8" fill="#70ad47" opacity="0.55"></polygon>
<rect x="825.6" y="318.0" width="16.0" height="10" fill="#0a0a15" opacity="0.7" rx="3"></rect>
<text x="833.6" y="326.0" fill="#ffd700" font-size="6" text-anchor="middle" font-family="monospace">↑→↑↓</text>
<line x1="702.7" y1="330.0" x2="728.7" y2="330.0" stroke="#4a7a2e" stroke-width="1.4" opacity="0.55"></line>
<line x1="728.7" y1="330.0" x2="728.7" y2="470.0" stroke="#4a7a2e" stroke-width="1.4" opacity="0.55"></line>
<line x1="728.7" y1="470.0" x2="738.4" y2="470.0" stroke="#4a7a2e" stroke-width="1.4" opacity="0.55"></line>
<polygon points="746.4,470.0 738.4,473.2 738.4,466.8" fill="#4a7a2e" opacity="0.55"></polygon>
<rect x="716.5" y="388.0" width="16.0" height="10" fill="#0a0a15" opacity="0.7" rx="3"></rect>
<text x="724.5" y="396.0" fill="#ffd700" font-size="6" text-anchor="middle" font-family="monospace">↑→↑↓</text>
<line x1="746.4" y1="470.0" x2="782.0" y2="470.0" stroke="#e15759" stroke-width="1.3" opacity="0.55"></line>
<polygon points="790.0,470.0 782.0,473.2 782.0,466.8" fill="#e15759" opacity="0.55"></polygon>
<rect x="758.2" y="458.0" width="20.0" height="10" fill="#0a0a15" opacity="0.7" rx="3"></rect>
<text x="768.2" y="466.0" fill="#666688" font-size="6" text-anchor="middle" font-family="monospace">↑↓→↑↓</text>
<line x1="790.0" y1="470.0" x2="825.6" y2="470.0" stroke="#ff6688" stroke-width="1.3" opacity="0.55"></line>
<polygon points="833.6,470.0 825.6,473.2 825.6,466.8" fill="#ff6688" opacity="0.55"></polygon>
<rect x="801.8" y="458.0" width="20.0" height="10" fill="#0a0a15" opacity="0.7" rx="3"></rect>
<text x="811.8" y="466.0" fill="#666688" font-size="6" text-anchor="middle" font-family="monospace">↑↓→↑↓</text>
<line x1="833.6" y1="470.0" x2="869.3" y2="470.0" stroke="#cc3344" stroke-width="1.3" opacity="0.55"></line>
<polygon points="877.3,470.0 869.3,473.2 869.3,466.8" fill="#cc3344" opacity="0.55"></polygon>
<rect x="845.5" y="458.0" width="20.0" height="10" fill="#0a0a15" opacity="0.7" rx="3"></rect>
<text x="855.5" y="466.0" fill="#666688" font-size="6" text-anchor="middle" font-family="monospace">↑↓→↑↓</text>
<line x1="877.3" y1="466.5" x2="911.9" y2="466.5" stroke="#f28e2b" stroke-width="1.0" opacity="0.55"></line>
<line x1="877.3" y1="473.5" x2="911.9" y2="473.5" stroke="#f28e2b" stroke-width="1.0" opacity="0.55"></line>
<polygon points="920.9,470.0 910.9,474.0 910.9,466.0" fill="#f28e2b" opacity="0.55"></polygon>
<rect x="889.1" y="458.0" width="20.0" height="10" fill="#0a0a15" opacity="0.7" rx="3"></rect>
<text x="899.1" y="466.0" fill="#666688" font-size="6" text-anchor="middle" font-family="monospace">↑↓→↑↓</text>
<line x1="920.9" y1="470.0" x2="938.9" y2="470.0" stroke="#e15759" stroke-width="1.3" opacity="0.55"></line>
<line x1="938.9" y1="470.0" x2="938.9" y2="330.0" stroke="#e15759" stroke-width="1.3" opacity="0.55"></line>
<line x1="938.9" y1="330.0" x2="956.5" y2="330.0" stroke="#e15759" stroke-width="1.3" opacity="0.55"></line>
<polygon points="964.5,330.0 956.5,333.2 956.5,326.8" fill="#e15759" opacity="0.55"></polygon>
<rect x="932.7" y="388.0" width="20.0" height="10" fill="#0a0a15" opacity="0.7" rx="3"></rect>
<text x="942.7" y="396.0" fill="#666688" font-size="6" text-anchor="middle" font-family="monospace">↑↓→↑↓</text>
<line x1="91.8" y1="330.0" x2="127.5" y2="330.0" stroke="#6baed6" stroke-width="1.3" opacity="0.75"></line>
<polygon points="135.5,330.0 127.5,333.2 127.5,326.8" fill="#6baed6" opacity="0.75"></polygon>
<line x1="135.5" y1="330.0" x2="171.1" y2="330.0" stroke="#b07aa1" stroke-width="1.3" opacity="0.75" stroke-dasharray="4,3"></line>
<polygon points="179.1,330.0 171.1,333.2 171.1,326.8" fill="#b07aa1" opacity="0.75"></polygon>
<line x1="397.3" y1="330.0" x2="432.9" y2="330.0" stroke="#e15759" stroke-width="1.3" opacity="0.75"></line>
<polygon points="440.9,330.0 432.9,333.2 432.9,326.8" fill="#e15759" opacity="0.75"></polygon>
<line x1="353.6" y1="330.0" x2="389.3" y2="330.0" stroke="#ffd700" stroke-width="1.3" opacity="0.55"></line>
<polygon points="397.3,330.0 389.3,333.2 389.3,326.8" fill="#ffd700" opacity="0.55"></polygon>
<line x1="659.1" y1="330.0" x2="694.7" y2="330.0" stroke="#ffd700" stroke-width="1.3" opacity="0.55"></line>
<polygon points="702.7,330.0 694.7,333.2 694.7,326.8" fill="#ffd700" opacity="0.55"></polygon>
<line x1="964.5" y1="330.0" x2="1000.2" y2="330.0" stroke="#ffd700" stroke-width="1.3" opacity="0.55"></line>
<polygon points="1008.2,330.0 1000.2,333.2 1000.2,326.8" fill="#ffd700" opacity="0.55"></polygon>
<rect x="976.4" y="318.0" width="20.0" height="10" fill="#0a0a15" opacity="0.7" rx="3"></rect>
<text x="986.4" y="326.0" fill="#666688" font-size="6" text-anchor="middle" font-family="monospace">↑↓→↑↓</text>
<path d="M440.9,330.0 Q550.0,470.0 659.1,330.0" fill="none" stroke="#b85a1c" stroke-dasharray="4,4" stroke-width="1" opacity="0.25"></path>
<path d="M702.7,330.0 Q833.6,190.0 964.5,330.0" fill="none" stroke="#70ad47" stroke-dasharray="4,4" stroke-width="1" opacity="0.25"></path>
<circle cx="91.8" cy="330.0" r="22.0" fill="#4e79a7" stroke="#ffffff20" stroke-width="1.0"></circle>
<text x="91.8" y="300.0" fill="#cccccc" font-size="8" text-anchor="middle" font-family="monospace" font-weight="bold">VI</text>
<text x="91.8" y="364.0" fill="#888" font-size="5.5" text-anchor="middle" font-family="monospace">VINIT</text>
<circle cx="114.8" cy="330.0" r="2.5" fill="#ffffff90" stroke-width="0"></circle>
<circle cx="135.5" cy="330.0" r="22.0" fill="#4e79a7" stroke="#ffffff20" stroke-width="1.0"></circle>
<text x="135.5" y="300.0" fill="#cccccc" font-size="8" text-anchor="middle" font-family="monospace" font-weight="bold">TA</text>
<text x="135.5" y="364.0" fill="#888" font-size="5.5" text-anchor="middle" font-family="monospace">TANCH</text>
<circle cx="112.5" cy="330.0" r="2.5" fill="#ffffff60" stroke-width="0"></circle>
<circle cx="158.5" cy="330.0" r="2.5" fill="#ffffff90" stroke-width="0"></circle>
<polygon points="179.09090909090907,308.0 201.1,330 179.09090909090907,352.0 157.1,330" fill="#ffd700" stroke="#ffffff20" stroke-width="1.0"></polygon>
<text x="179.1" y="300.0" fill="#cccccc" font-size="8" text-anchor="middle" font-family="monospace" font-weight="bold">FS</text>
<text x="179.1" y="364.0" fill="#888" font-size="5.5" text-anchor="middle" font-family="monospace">FSPLIT</text>
<circle cx="156.1" cy="330.0" r="2.5" fill="#ffffff60" stroke-width="0"></circle>
<circle cx="202.1" cy="323.0" r="2.5" fill="#ffffff90" stroke-width="0"></circle>
<circle cx="202.1" cy="337.0" r="2.5" fill="#ffffff90" stroke-width="0"></circle>
<circle cx="215.5" cy="470.0" r="22.0" fill="#4e79a7" stroke="#ffffff20" stroke-width="1.0"></circle>
<circle cx="215.5" cy="470.0" r="12.1" fill="#153530" stroke-width="0"></circle>
<text x="215.5" y="472.0" fill="#20b2aa" font-size="7" text-anchor="middle" font-family="monospace" font-weight="bold">↑</text>
<text x="215.5" y="440.0" fill="#cccccc" font-size="8" text-anchor="middle" font-family="monospace" font-weight="bold">AF</text>
<text x="215.5" y="504.0" fill="#888" font-size="5.5" text-anchor="middle" font-family="monospace">AFWD</text>
<circle cx="192.5" cy="470.0" r="2.5" fill="#ffffff60" stroke-width="0"></circle>
<circle cx="238.5" cy="470.0" r="2.5" fill="#ffffff90" stroke-width="0"></circle>
<circle cx="259.1" cy="470.0" r="22.0" fill="#4e79a7" stroke="#ffffff20" stroke-width="1.0"></circle>
<circle cx="259.1" cy="470.0" r="12.1" fill="#332200" stroke-width="0"></circle>
<text x="259.1" y="472.0" fill="#ffd700" font-size="7" text-anchor="middle" font-family="monospace" font-weight="bold">↑↓</text>
<text x="259.1" y="440.0" fill="#cccccc" font-size="8" text-anchor="middle" font-family="monospace" font-weight="bold">AR</text>
<text x="259.1" y="504.0" fill="#888" font-size="5.5" text-anchor="middle" font-family="monospace">AREV</text>
<circle cx="236.1" cy="470.0" r="2.5" fill="#ffffff60" stroke-width="0"></circle>
<circle cx="282.1" cy="470.0" r="2.5" fill="#ffffff90" stroke-width="0"></circle>
<polygon points="249.1,201.0 230.0,212.0 210.9,201.0 210.9,179.0 230.0,168.0 249.1,179.0" fill="#e15759" stroke="#ffffff20" stroke-width="1.0"></polygon>
<circle cx="230.0" cy="190.0" r="12.1" fill="#332200" stroke-width="0"></circle>
<text x="230.0" y="192.0" fill="#ffd700" font-size="7" text-anchor="middle" font-family="monospace" font-weight="bold">↑↓</text>
<text x="230.0" y="160.0" fill="#cccccc" font-size="8" text-anchor="middle" font-family="monospace" font-weight="bold">ET</text>
<text x="230.0" y="224.0" fill="#888" font-size="5.5" text-anchor="middle" font-family="monospace">EVALT</text>
<circle cx="207.0" cy="190.0" r="3.5" fill="#f28e2b" stroke-width="0.8"></circle>
<circle cx="253.0" cy="190.0" r="3.5" fill="#59a14f" stroke-width="0.9"></circle>
<circle cx="273.6" cy="190.0" r="22.0" fill="#4e79a7" stroke="#ffffff20" stroke-width="1.0"></circle>
<circle cx="273.6" cy="190.0" r="12.1" fill="#332200" stroke-width="0"></circle>
<text x="273.6" y="192.0" fill="#ffd700" font-size="7" text-anchor="middle" font-family="monospace" font-weight="bold">↑↓</text>
<text x="273.6" y="160.0" fill="#cccccc" font-size="8" text-anchor="middle" font-family="monospace" font-weight="bold">CL</text>
<text x="273.6" y="224.0" fill="#888" font-size="5.5" text-anchor="middle" font-family="monospace">CLINK</text>
<circle cx="250.6" cy="190.0" r="2.5" fill="#ffffff60" stroke-width="0"></circle>
<circle cx="296.6" cy="190.0" r="2.5" fill="#ffffff90" stroke-width="0"></circle>
<circle cx="310.0" cy="190.0" r="22.0" fill="#4e79a7" stroke="#ffffff20" stroke-width="1.0"></circle>
<circle cx="310.0" cy="190.0" r="12.1" fill="#332200" stroke-width="0"></circle>
<text x="310.0" y="192.0" fill="#ffd700" font-size="7" text-anchor="middle" font-family="monospace" font-weight="bold">↑↓</text>
<text x="310.0" y="160.0" fill="#cccccc" font-size="8" text-anchor="middle" font-family="monospace" font-weight="bold">IM</text>
<text x="310.0" y="224.0" fill="#888" font-size="5.5" text-anchor="middle" font-family="monospace">IMSCRIB</text>
<circle cx="287.0" cy="190.0" r="2.5" fill="#ffffff60" stroke-width="0"></circle>
<circle cx="333.0" cy="190.0" r="2.5" fill="#ffffff90" stroke-width="0"></circle>
<polygon points="353.6363636363636,308.0 375.6,330 353.6363636363636,352.0 331.6,330" fill="#ffd700" stroke="#ffffff20" stroke-width="1.0"></polygon>
<circle cx="353.6" cy="330.0" r="12.1" fill="#153530" stroke-width="0"></circle>
<text x="353.6" y="332.0" fill="#20b2aa" font-size="7" text-anchor="middle" font-family="monospace" font-weight="bold">↑</text>
<text x="353.6" y="300.0" fill="#cccccc" font-size="8" text-anchor="middle" font-family="monospace" font-weight="bold">FF</text>
<text x="353.6" y="364.0" fill="#888" font-size="5.5" text-anchor="middle" font-family="monospace">FFUSE</text>
<circle cx="330.6" cy="323.0" r="2.5" fill="#ffffff60" stroke-width="0"></circle>
<circle cx="330.6" cy="337.0" r="2.5" fill="#ffffff60" stroke-width="0"></circle>
<circle cx="376.6" cy="330.0" r="2.5" fill="#ffffff90" stroke-width="0"></circle>
<polygon points="416.3,341.0 397.3,352.0 378.2,341.0 378.2,319.0 397.3,308.0 416.3,319.0" fill="#e15759" stroke="#ffffff20" stroke-width="1.0"></polygon>
<circle cx="397.3" cy="330.0" r="12.1" fill="#153530" stroke-width="0"></circle>
<text x="397.3" y="332.0" fill="#20b2aa" font-size="7" text-anchor="middle" font-family="monospace" font-weight="bold">↑</text>
<text x="397.3" y="300.0" fill="#cccccc" font-size="8" text-anchor="middle" font-family="monospace" font-weight="bold">EG</text>
<text x="397.3" y="364.0" fill="#888" font-size="5.5" text-anchor="middle" font-family="monospace">ENGAGR</text>
<circle cx="374.3" cy="330.0" r="2.5" fill="#ffffff60" stroke-width="0"></circle>
<circle cx="420.3" cy="330.0" r="2.5" fill="#ffffff90" stroke-width="0"></circle>
<polygon points="440.9090909090909,308.0 462.9,330 440.9090909090909,352.0 418.9,330" fill="#ffd700" stroke="#ffffff20" stroke-width="1.0"></polygon>
<circle cx="440.9" cy="330.0" r="12.1" fill="#153530" stroke-width="0"></circle>
<text x="440.9" y="332.0" fill="#20b2aa" font-size="7" text-anchor="middle" font-family="monospace" font-weight="bold">↑</text>
<text x="440.9" y="300.0" fill="#cccccc" font-size="8" text-anchor="middle" font-family="monospace" font-weight="bold">FS</text>
<text x="440.9" y="364.0" fill="#888" font-size="5.5" text-anchor="middle" font-family="monospace">FSPLIT</text>
<circle cx="417.9" cy="330.0" r="2.5" fill="#ffffff60" stroke-width="0"></circle>
<circle cx="463.9" cy="323.0" r="2.5" fill="#ffffff90" stroke-width="0"></circle>
<circle cx="463.9" cy="337.0" r="2.5" fill="#ffffff90" stroke-width="0"></circle>
<circle cx="484.5" cy="190.0" r="22.0" fill="#4e79a7" stroke="#ffffff20" stroke-width="1.0"></circle>
<circle cx="484.5" cy="190.0" r="12.1" fill="#153530" stroke-width="0"></circle>
<text x="484.5" y="192.0" fill="#20b2aa" font-size="7" text-anchor="middle" font-family="monospace" font-weight="bold">↑</text>
<text x="484.5" y="160.0" fill="#cccccc" font-size="8" text-anchor="middle" font-family="monospace" font-weight="bold">AF</text>
<text x="484.5" y="224.0" fill="#888" font-size="5.5" text-anchor="middle" font-family="monospace">AFWD</text>
<circle cx="461.5" cy="190.0" r="2.5" fill="#ffffff60" stroke-width="0"></circle>
<circle cx="507.5" cy="190.0" r="2.5" fill="#ffffff90" stroke-width="0"></circle>
<polygon points="547.2,201.0 528.2,212.0 509.1,201.0 509.1,179.0 528.2,168.0 547.2,179.0" fill="#e15759" stroke="#ffffff20" stroke-width="1.0"></polygon>
<circle cx="528.2" cy="190.0" r="12.1" fill="#153530" stroke-width="0"></circle>
<text x="528.2" y="192.0" fill="#20b2aa" font-size="7" text-anchor="middle" font-family="monospace" font-weight="bold">↑</text>
<text x="528.2" y="160.0" fill="#cccccc" font-size="8" text-anchor="middle" font-family="monospace" font-weight="bold">ET</text>
<text x="528.2" y="224.0" fill="#888" font-size="5.5" text-anchor="middle" font-family="monospace">EVALT</text>
<circle cx="505.2" cy="190.0" r="3.5" fill="#f28e2b" stroke-width="0.8"></circle>
<circle cx="551.2" cy="190.0" r="3.5" fill="#59a14f" stroke-width="0.9"></circle>
<circle cx="571.8" cy="190.0" r="22.0" fill="#4e79a7" stroke="#ffffff20" stroke-width="1.0"></circle>
<text x="571.8" y="160.0" fill="#cccccc" font-size="8" text-anchor="middle" font-family="monospace" font-weight="bold">CL</text>
<text x="571.8" y="224.0" fill="#888" font-size="5.5" text-anchor="middle" font-family="monospace">CLINK</text>
<circle cx="548.8" cy="190.0" r="2.5" fill="#ffffff60" stroke-width="0"></circle>
<circle cx="594.8" cy="190.0" r="2.5" fill="#ffffff90" stroke-width="0"></circle>
<circle cx="615.5" cy="190.0" r="22.0" fill="#4e79a7" stroke="#ffffff20" stroke-width="1.0"></circle>
<circle cx="615.5" cy="190.0" r="12.1" fill="#153530" stroke-width="0"></circle>
<text x="615.5" y="192.0" fill="#20b2aa" font-size="7" text-anchor="middle" font-family="monospace" font-weight="bold">↑</text>
<text x="615.5" y="160.0" fill="#cccccc" font-size="8" text-anchor="middle" font-family="monospace" font-weight="bold">IM</text>
<text x="615.5" y="224.0" fill="#888" font-size="5.5" text-anchor="middle" font-family="monospace">IMSCRIB</text>
<circle cx="592.5" cy="190.0" r="2.5" fill="#ffffff60" stroke-width="0"></circle>
<circle cx="638.5" cy="190.0" r="2.5" fill="#ffffff90" stroke-width="0"></circle>
<polygon points="659.0909090909091,308.0 681.1,330 659.0909090909091,352.0 637.1,330" fill="#ffd700" stroke="#ffffff20" stroke-width="1.0"></polygon>
<circle cx="659.1" cy="330.0" r="12.1" fill="#153530" stroke-width="0"></circle>
<text x="659.1" y="332.0" fill="#20b2aa" font-size="7" text-anchor="middle" font-family="monospace" font-weight="bold">↑</text>
<text x="659.1" y="300.0" fill="#cccccc" font-size="8" text-anchor="middle" font-family="monospace" font-weight="bold">FF</text>
<text x="659.1" y="364.0" fill="#888" font-size="5.5" text-anchor="middle" font-family="monospace">FFUSE</text>
<circle cx="636.1" cy="323.0" r="2.5" fill="#ffffff60" stroke-width="0"></circle>
<circle cx="636.1" cy="337.0" r="2.5" fill="#ffffff60" stroke-width="0"></circle>
<circle cx="682.1" cy="330.0" r="2.5" fill="#ffffff90" stroke-width="0"></circle>
<polygon points="702.7272727272727,308.0 724.7,330 702.7272727272727,352.0 680.7,330" fill="#ffd700" stroke="#ffffff20" stroke-width="1.0"></polygon>
<circle cx="702.7" cy="330.0" r="12.1" fill="#153530" stroke-width="0"></circle>
<text x="702.7" y="332.0" fill="#20b2aa" font-size="7" text-anchor="middle" font-family="monospace" font-weight="bold">↑</text>
<text x="702.7" y="300.0" fill="#cccccc" font-size="8" text-anchor="middle" font-family="monospace" font-weight="bold">FS</text>
<text x="702.7" y="364.0" fill="#888" font-size="5.5" text-anchor="middle" font-family="monospace">FSPLIT</text>
<circle cx="679.7" cy="330.0" r="2.5" fill="#ffffff60" stroke-width="0"></circle>
<circle cx="725.7" cy="323.0" r="2.5" fill="#ffffff90" stroke-width="0"></circle>
<circle cx="725.7" cy="337.0" r="2.5" fill="#ffffff90" stroke-width="0"></circle>
<circle cx="746.4" cy="470.0" r="22.0" fill="#4e79a7" stroke="#ffffff20" stroke-width="1.0"></circle>
<circle cx="746.4" cy="470.0" r="12.1" fill="#332200" stroke-width="0"></circle>
<text x="746.4" y="472.0" fill="#ffd700" font-size="7" text-anchor="middle" font-family="monospace" font-weight="bold">↑↓</text>
<text x="746.4" y="440.0" fill="#cccccc" font-size="8" text-anchor="middle" font-family="monospace" font-weight="bold">AR</text>
<text x="746.4" y="504.0" fill="#888" font-size="5.5" text-anchor="middle" font-family="monospace">AREV</text>
<circle cx="723.4" cy="470.0" r="2.5" fill="#ffffff60" stroke-width="0"></circle>
<circle cx="769.4" cy="470.0" r="2.5" fill="#ffffff90" stroke-width="0"></circle>
<polygon points="809.1,481.0 790.0,492.0 770.9,481.0 770.9,459.0 790.0,448.0 809.1,459.0" fill="#e15759" stroke="#ffffff20" stroke-width="1.0"></polygon>
<circle cx="790.0" cy="470.0" r="12.1" fill="#332200" stroke-width="0"></circle>
<text x="790.0" y="472.0" fill="#ffd700" font-size="7" text-anchor="middle" font-family="monospace" font-weight="bold">↑↓</text>
<text x="790.0" y="440.0" fill="#cccccc" font-size="8" text-anchor="middle" font-family="monospace" font-weight="bold">EF</text>
<text x="790.0" y="504.0" fill="#888" font-size="5.5" text-anchor="middle" font-family="monospace">EVALF</text>
<circle cx="767.0" cy="470.0" r="3.5" fill="#f28e2b" stroke-width="0.8"></circle>
<circle cx="813.0" cy="470.0" r="3.5" fill="#59a14f" stroke-width="0.9"></circle>
<rect x="811.6" y="448.0" width="44.0" height="44.0" fill="#59a14f" stroke="#ffffff20" stroke-width="1.0"></rect>
<circle cx="833.6" cy="470.0" r="12.1" fill="#332200" stroke-width="0"></circle>
<text x="833.6" y="472.0" fill="#ffd700" font-size="7" text-anchor="middle" font-family="monospace" font-weight="bold">↑↓</text>
<text x="833.6" y="440.0" fill="#cccccc" font-size="8" text-anchor="middle" font-family="monospace" font-weight="bold">IX</text>
<text x="833.6" y="504.0" fill="#888" font-size="5.5" text-anchor="middle" font-family="monospace">IFIX</text>
<circle cx="810.6" cy="470.0" r="2.5" fill="#ffffff60" stroke-width="0"></circle>
<circle cx="856.6" cy="470.0" r="2.5" fill="#ffffff90" stroke-width="0"></circle>
<circle cx="877.3" cy="470.0" r="22.0" fill="#4e79a7" stroke="#ffffff20" stroke-width="1.0"></circle>
<circle cx="877.3" cy="470.0" r="12.1" fill="#332200" stroke-width="0"></circle>
<text x="877.3" y="472.0" fill="#ffd700" font-size="7" text-anchor="middle" font-family="monospace" font-weight="bold">↑↓</text>
<text x="877.3" y="440.0" fill="#cccccc" font-size="8" text-anchor="middle" font-family="monospace" font-weight="bold">CL</text>
<text x="877.3" y="504.0" fill="#888" font-size="5.5" text-anchor="middle" font-family="monospace">CLINK</text>
<circle cx="854.3" cy="470.0" r="2.5" fill="#ffffff60" stroke-width="0"></circle>
<circle cx="900.3" cy="470.0" r="2.5" fill="#ffffff90" stroke-width="0"></circle>
<polygon points="940.0,481.0 920.9,492.0 901.9,481.0 901.9,459.0 920.9,448.0 940.0,459.0" fill="#e15759" stroke="#ffffff20" stroke-width="1.0"></polygon>
<circle cx="920.9" cy="470.0" r="12.1" fill="#332200" stroke-width="0"></circle>
<text x="920.9" y="472.0" fill="#ffd700" font-size="7" text-anchor="middle" font-family="monospace" font-weight="bold">↑↓</text>
<text x="920.9" y="440.0" fill="#cccccc" font-size="8" text-anchor="middle" font-family="monospace" font-weight="bold">EG</text>
<text x="920.9" y="504.0" fill="#888" font-size="5.5" text-anchor="middle" font-family="monospace">ENGAGR</text>
<circle cx="897.9" cy="470.0" r="2.5" fill="#ffffff60" stroke-width="0"></circle>
<circle cx="943.9" cy="470.0" r="2.5" fill="#ffffff90" stroke-width="0"></circle>
<polygon points="964.5454545454545,308.0 986.5,330 964.5454545454545,352.0 942.5,330" fill="#ffd700" stroke="#ffffff20" stroke-width="1.0"></polygon>
<circle cx="964.5" cy="330.0" r="12.1" fill="#332200" stroke-width="0"></circle>
<text x="964.5" y="332.0" fill="#ffd700" font-size="7" text-anchor="middle" font-family="monospace" font-weight="bold">↑↓</text>
<text x="964.5" y="300.0" fill="#cccccc" font-size="8" text-anchor="middle" font-family="monospace" font-weight="bold">FF</text>
<text x="964.5" y="364.0" fill="#888" font-size="5.5" text-anchor="middle" font-family="monospace">FFUSE</text>
<circle cx="941.5" cy="323.0" r="2.5" fill="#ffffff60" stroke-width="0"></circle>
<circle cx="941.5" cy="337.0" r="2.5" fill="#ffffff60" stroke-width="0"></circle>
<circle cx="987.5" cy="330.0" r="2.5" fill="#ffffff90" stroke-width="0"></circle>
<circle cx="1008.2" cy="330.0" r="22.0" fill="#4e79a7" stroke="#ffffff20" stroke-width="1.0"></circle>
<circle cx="1008.2" cy="330.0" r="12.1" fill="#332200" stroke-width="0"></circle>
<text x="1008.2" y="332.0" fill="#ffd700" font-size="7" text-anchor="middle" font-family="monospace" font-weight="bold">↑↓</text>
<text x="1008.2" y="300.0" fill="#cccccc" font-size="8" text-anchor="middle" font-family="monospace" font-weight="bold">TA</text>
<text x="1008.2" y="364.0" fill="#888" font-size="5.5" text-anchor="middle" font-family="monospace">TANCH</text>
<circle cx="985.2" cy="330.0" r="2.5" fill="#ffffff60" stroke-width="0"></circle>
<circle cx="1031.2" cy="330.0" r="2.5" fill="#ffffff90" stroke-width="0"></circle>
<path d="M1008.2,330.0 Q550.0,275.0 91.8,330.0" fill="none" stroke="#9988cc" stroke-width="1.5" opacity="0.5"></path>
<polygon points="91.8,330.0 83.4,327.0 84.4,334.9" fill="#9988cc" opacity="0.5"></polygon>
<text x="550.0" y="260.0" fill="#9988cc" font-size="8" text-anchor="middle" font-family="serif">O₂</text>
<text x="550.0" y="621.0" fill="#9988aa" font-size="7" text-anchor="middle" font-family="serif">Ouroboricity: O₂</text>
<text x="70.0" y="52.0" fill="#666" font-size="6" text-anchor="start" font-family="monospace" font-weight="bold">NODES</text>
<circle cx="110.0" cy="59.0" r="4.5" fill="#4e79a7" stroke-width="0"></circle>
<text x="120.0" y="62.0" fill="#4e79a7" font-size="5" text-anchor="start" font-family="monospace">LOGI</text>
<polygon points="158,54.5 162.5,59 158,63.5 153.5,59" fill="#ffd700" stroke="#ffffff20" stroke-width="1.0"></polygon>
<text x="168.0" y="62.0" fill="#ffd700" font-size="5" text-anchor="start" font-family="monospace">FROB</text>
<polygon points="209.9,61.2 206.0,63.5 202.1,61.2 202.1,56.8 206.0,54.5 209.9,56.8" fill="#e15759" stroke="#ffffff20" stroke-width="1.0"></polygon>
<text x="216.0" y="62.0" fill="#e15759" font-size="5" text-anchor="start" font-family="monospace">DIAL</text>
<rect x="249.5" y="54.5" width="9.0" height="9.0" fill="#59a14f" stroke="#ffffff20" stroke-width="1.0"></rect>
<text x="264.0" y="62.0" fill="#59a14f" font-size="5" text-anchor="start" font-family="monospace">LINE</text>
<text x="312.0" y="52.0" fill="#666" font-size="6" text-anchor="start" font-family="monospace" font-weight="bold">EDGES</text>
<line x1="350.0" y1="59.0" x2="364.0" y2="59.0" stroke="#59a14f" stroke-width="1.5" opacity="0.7"></line>
<text x="368.0" y="62.0" fill="#59a14f" font-size="5" text-anchor="start" font-family="monospace">AFWD</text>
<line x1="402.0" y1="59.0" x2="416.0" y2="59.0" stroke="#e15759" stroke-width="1.5" opacity="0.7"></line>
<text x="420.0" y="62.0" fill="#e15759" font-size="5" text-anchor="start" font-family="monospace">AREV</text>
<line x1="454.0" y1="59.0" x2="468.0" y2="59.0" stroke="#f28e2b" stroke-width="1.5" opacity="0.7"></line>
<text x="472.0" y="62.0" fill="#f28e2b" font-size="5" text-anchor="start" font-family="monospace">CLINK</text>
<line x1="506.0" y1="59.0" x2="520.0" y2="59.0" stroke="#b07aa1" stroke-width="1.5" opacity="0.7" stroke-dasharray="4,3"></line>
<text x="524.0" y="62.0" fill="#b07aa1" font-size="5" text-anchor="start" font-family="monospace">TANCH</text>
<line x1="558.0" y1="59.0" x2="572.0" y2="59.0" stroke="#ffd700" stroke-width="1.5" opacity="0.7"></line>
<text x="576.0" y="62.0" fill="#ffd700" font-size="5" text-anchor="start" font-family="monospace">IMSC</text>
<line x1="610.0" y1="59.0" x2="624.0" y2="59.0" stroke="#cc3344" stroke-width="1.5" opacity="0.7"></line>
<text x="628.0" y="62.0" fill="#cc3344" font-size="5" text-anchor="start" font-family="monospace">IFIX</text>
<text x="70.0" y="72.0" fill="#666" font-size="6" text-anchor="start" font-family="monospace" font-weight="bold">GUARD</text>
<circle cx="110.0" cy="79.0" r="3.0" fill="#f28e2b" stroke-width="0.8"></circle>
<text x="117.0" y="82.0" fill="#f28e2b" font-size="5" text-anchor="start" font-family="monospace">approach</text>
<circle cx="162.0" cy="79.0" r="3.0" fill="#59a14f" stroke-width="0.9"></circle>
<text x="169.0" y="82.0" fill="#59a14f" font-size="5" text-anchor="start" font-family="monospace">passed</text>
<text x="214.0" y="72.0" fill="#666" font-size="6" text-anchor="start" font-family="monospace" font-weight="bold">REG Δ</text>
<text x="252.0" y="82.0" fill="#20b888" font-size="5.5" text-anchor="start" font-family="monospace">→↑</text>
<text x="280.0" y="82.0" fill="#ffd700" font-size="5.5" text-anchor="start" font-family="monospace">↓→↑↓</text>
<text x="308.0" y="82.0" fill="#e15759" font-size="5.5" text-anchor="start" font-family="monospace">↑↔↓</text>
<line x1="344.0" y1="79.0" x2="358.0" y2="79.0" stroke="#ffd700" stroke-width="1.5" opacity="0.6" stroke-dasharray="5,3"></line>
<text x="362.0" y="82.0" fill="#ffd700" font-size="5.5" text-anchor="start" font-family="monospace">cross-br.</text>
<line x1="404.0" y1="79.0" x2="418.0" y2="79.0" stroke="#9988cc" stroke-width="1.5" opacity="0.5"></line>
<text x="422.0" y="82.0" fill="#9988cc" font-size="5.5" text-anchor="start" font-family="monospace">loop</text>
</svg>