<svg xmlns="http://www.w3.org/2000/svg" viewBox="0 0 1100 630">
<rect width="1100" height="630" fill="#0a0a15"/>
<line x1="0.0" y1="0.0" x2="0.0" y2="630.0" stroke="#151525" stroke-width="0.4" opacity="0.25"></line>
<line x1="40.0" y1="0.0" x2="40.0" y2="630.0" stroke="#151525" stroke-width="0.4" opacity="0.25"></line>
<line x1="80.0" y1="0.0" x2="80.0" y2="630.0" stroke="#151525" stroke-width="0.4" opacity="0.25"></line>
<line x1="120.0" y1="0.0" x2="120.0" y2="630.0" stroke="#151525" stroke-width="0.4" opacity="0.25"></line>
<line x1="160.0" y1="0.0" x2="160.0" y2="630.0" stroke="#151525" stroke-width="0.4" opacity="0.25"></line>
<line x1="200.0" y1="0.0" x2="200.0" y2="630.0" stroke="#151525" stroke-width="0.4" opacity="0.25"></line>
<line x1="240.0" y1="0.0" x2="240.0" y2="630.0" stroke="#151525" stroke-width="0.4" opacity="0.25"></line>
<line x1="280.0" y1="0.0" x2="280.0" y2="630.0" stroke="#151525" stroke-width="0.4" opacity="0.25"></line>
<line x1="320.0" y1="0.0" x2="320.0" y2="630.0" stroke="#151525" stroke-width="0.4" opacity="0.25"></line>
<line x1="360.0" y1="0.0" x2="360.0" y2="630.0" stroke="#151525" stroke-width="0.4" opacity="0.25"></line>
<line x1="400.0" y1="0.0" x2="400.0" y2="630.0" stroke="#151525" stroke-width="0.4" opacity="0.25"></line>
<line x1="440.0" y1="0.0" x2="440.0" y2="630.0" stroke="#151525" stroke-width="0.4" opacity="0.25"></line>
<line x1="480.0" y1="0.0" x2="480.0" y2="630.0" stroke="#151525" stroke-width="0.4" opacity="0.25"></line>
<line x1="520.0" y1="0.0" x2="520.0" y2="630.0" stroke="#151525" stroke-width="0.4" opacity="0.25"></line>
<line x1="560.0" y1="0.0" x2="560.0" y2="630.0" stroke="#151525" stroke-width="0.4" opacity="0.25"></line>
<line x1="600.0" y1="0.0" x2="600.0" y2="630.0" stroke="#151525" stroke-width="0.4" opacity="0.25"></line>
<line x1="640.0" y1="0.0" x2="640.0" y2="630.0" stroke="#151525" stroke-width="0.4" opacity="0.25"></line>
<line x1="680.0" y1="0.0" x2="680.0" y2="630.0" stroke="#151525" stroke-width="0.4" opacity="0.25"></line>
<line x1="720.0" y1="0.0" x2="720.0" y2="630.0" stroke="#151525" stroke-width="0.4" opacity="0.25"></line>
<line x1="760.0" y1="0.0" x2="760.0" y2="630.0" stroke="#151525" stroke-width="0.4" opacity="0.25"></line>
<line x1="800.0" y1="0.0" x2="800.0" y2="630.0" stroke="#151525" stroke-width="0.4" opacity="0.25"></line>
<line x1="840.0" y1="0.0" x2="840.0" y2="630.0" stroke="#151525" stroke-width="0.4" opacity="0.25"></line>
<line x1="880.0" y1="0.0" x2="880.0" y2="630.0" stroke="#151525" stroke-width="0.4" opacity="0.25"></line>
<line x1="920.0" y1="0.0" x2="920.0" y2="630.0" stroke="#151525" stroke-width="0.4" opacity="0.25"></line>
<line x1="960.0" y1="0.0" x2="960.0" y2="630.0" stroke="#151525" stroke-width="0.4" opacity="0.25"></line>
<line x1="1000.0" y1="0.0" x2="1000.0" y2="630.0" stroke="#151525" stroke-width="0.4" opacity="0.25"></line>
<line x1="1040.0" y1="0.0" x2="1040.0" y2="630.0" stroke="#151525" stroke-width="0.4" opacity="0.25"></line>
<line x1="1080.0" y1="0.0" x2="1080.0" y2="630.0" stroke="#151525" stroke-width="0.4" opacity="0.25"></line>
<line x1="0.0" y1="0.0" x2="1100.0" y2="0.0" stroke="#151525" stroke-width="0.4" opacity="0.25"></line>
<line x1="0.0" y1="40.0" x2="1100.0" y2="40.0" stroke="#151525" stroke-width="0.4" opacity="0.25"></line>
<line x1="0.0" y1="80.0" x2="1100.0" y2="80.0" stroke="#151525" stroke-width="0.4" opacity="0.25"></line>
<line x1="0.0" y1="120.0" x2="1100.0" y2="120.0" stroke="#151525" stroke-width="0.4" opacity="0.25"></line>
<line x1="0.0" y1="160.0" x2="1100.0" y2="160.0" stroke="#151525" stroke-width="0.4" opacity="0.25"></line>
<line x1="0.0" y1="200.0" x2="1100.0" y2="200.0" stroke="#151525" stroke-width="0.4" opacity="0.25"></line>
<line x1="0.0" y1="240.0" x2="1100.0" y2="240.0" stroke="#151525" stroke-width="0.4" opacity="0.25"></line>
<line x1="0.0" y1="280.0" x2="1100.0" y2="280.0" stroke="#151525" stroke-width="0.4" opacity="0.25"></line>
<line x1="0.0" y1="320.0" x2="1100.0" y2="320.0" stroke="#151525" stroke-width="0.4" opacity="0.25"></line>
<line x1="0.0" y1="360.0" x2="1100.0" y2="360.0" stroke="#151525" stroke-width="0.4" opacity="0.25"></line>
<line x1="0.0" y1="400.0" x2="1100.0" y2="400.0" stroke="#151525" stroke-width="0.4" opacity="0.25"></line>
<line x1="0.0" y1="440.0" x2="1100.0" y2="440.0" stroke="#151525" stroke-width="0.4" opacity="0.25"></line>
<line x1="0.0" y1="480.0" x2="1100.0" y2="480.0" stroke="#151525" stroke-width="0.4" opacity="0.25"></line>
<line x1="0.0" y1="520.0" x2="1100.0" y2="520.0" stroke="#151525" stroke-width="0.4" opacity="0.25"></line>
<line x1="0.0" y1="560.0" x2="1100.0" y2="560.0" stroke="#151525" stroke-width="0.4" opacity="0.25"></line>
<line x1="0.0" y1="600.0" x2="1100.0" y2="600.0" stroke="#151525" stroke-width="0.4" opacity="0.25"></line>
<text x="550.0" y="26.0" fill="#cccccc" font-size="13" text-anchor="middle" font-family="monospace" font-weight="bold">Organelle</text>
<text x="550.0" y="41.0" fill="#777" font-size="7" text-anchor="middle" font-family="monospace">MPP protease cleavage</text>
<text x="22.0" y="190.0" fill="#20c0b0" font-size="7" text-anchor="middle" font-family="monospace">T-lane</text>
<text x="22.0" y="470.0" fill="#e04060" font-size="7" text-anchor="middle" font-family="monospace">F-lane</text>
<text x="22.0" y="330.0" fill="#555" font-size="7" text-anchor="middle" font-family="monospace">main</text>
<line x1="359.5" y1="145.0" x2="359.5" y2="515.0" stroke="#cc3344" stroke-width="1.8" opacity="0.4" stroke-dasharray="6,4"></line>
<text x="359.5" y="135.0" fill="#cc3344" font-size="7" text-anchor="middle" font-family="monospace" font-weight="bold">IFIX</text>
<polygon points="359.5238095238095,141.0 363.5,145 359.5238095238095,149.0 355.5,145" fill="#cc3344" opacity="0.6"></polygon>
<polygon points="359.5238095238095,511.0 363.5,515 359.5238095238095,519.0 355.5,515" fill="#cc3344" opacity="0.6"></polygon>
<line x1="275.7" y1="330.0" x2="293.7" y2="330.0" stroke="#5b9bd5" stroke-width="1.4" opacity="0.55"></line>
<line x1="293.7" y1="330.0" x2="293.7" y2="190.0" stroke="#5b9bd5" stroke-width="1.4" opacity="0.55"></line>
<line x1="293.7" y1="190.0" x2="305.8" y2="190.0" stroke="#5b9bd5" stroke-width="1.4" opacity="0.55"></line>
<polygon points="313.8,190.0 305.8,193.2 305.8,186.8" fill="#5b9bd5" opacity="0.55"></polygon>
<rect x="292.8" y="248.0" width="4.0" height="10" fill="#0a0a15" opacity="0.7" rx="3"></rect>
<text x="294.8" y="256.0" fill="#20b888" font-size="6" text-anchor="middle" font-family="monospace">↑</text>
<line x1="313.8" y1="190.0" x2="351.5" y2="190.0" stroke="#20d0b8" stroke-width="1.3" opacity="0.55"></line>
<polygon points="359.5,190.0 351.5,193.2 351.5,186.8" fill="#20d0b8" opacity="0.55"></polygon>
<line x1="359.5" y1="190.0" x2="378.2" y2="190.0" stroke="#cc3344" stroke-width="1.3" opacity="0.55"></line>
<line x1="378.2" y1="190.0" x2="378.2" y2="330.0" stroke="#cc3344" stroke-width="1.3" opacity="0.55"></line>
<line x1="378.2" y1="330.0" x2="404.9" y2="330.0" stroke="#cc3344" stroke-width="1.3" opacity="0.55"></line>
<polygon points="412.9,330.0 404.9,333.2 404.9,326.8" fill="#cc3344" opacity="0.55"></polygon>
<line x1="275.7" y1="330.0" x2="302.4" y2="330.0" stroke="#2b6b9f" stroke-width="1.4" opacity="0.55"></line>
<line x1="302.4" y1="330.0" x2="302.4" y2="470.0" stroke="#2b6b9f" stroke-width="1.4" opacity="0.55"></line>
<line x1="302.4" y1="470.0" x2="321.0" y2="470.0" stroke="#2b6b9f" stroke-width="1.4" opacity="0.55"></line>
<polygon points="329.0,470.0 321.0,473.2 321.0,466.8" fill="#2b6b9f" opacity="0.55"></polygon>
<rect x="300.4" y="388.0" width="4.0" height="10" fill="#0a0a15" opacity="0.7" rx="3"></rect>
<text x="302.4" y="396.0" fill="#20b888" font-size="6" text-anchor="middle" font-family="monospace">↑</text>
<circle cx="359.5" cy="470.0" r="3.0" fill="#cc3344" stroke-width="0.4"></circle>
<line x1="329.0" y1="470.0" x2="366.8" y2="470.0" stroke="#ff6688" stroke-width="1.3" opacity="0.33"></line>
<polygon points="374.8,470.0 366.8,473.2 366.8,466.8" fill="#ff6688" opacity="0.33"></polygon>
<line x1="374.8" y1="470.0" x2="400.8" y2="470.0" stroke="#e15759" stroke-width="1.3" opacity="0.55"></line>
<line x1="400.8" y1="470.0" x2="400.8" y2="330.0" stroke="#e15759" stroke-width="1.3" opacity="0.55"></line>
<line x1="400.8" y1="330.0" x2="404.9" y2="330.0" stroke="#e15759" stroke-width="1.3" opacity="0.55"></line>
<polygon points="412.9,330.0 404.9,333.2 404.9,326.8" fill="#e15759" opacity="0.55"></polygon>
<line x1="504.3" y1="330.0" x2="522.3" y2="330.0" stroke="#ed7d31" stroke-width="1.4" opacity="0.55"></line>
<line x1="522.3" y1="330.0" x2="522.3" y2="190.0" stroke="#ed7d31" stroke-width="1.4" opacity="0.55"></line>
<line x1="522.3" y1="190.0" x2="534.4" y2="190.0" stroke="#ed7d31" stroke-width="1.4" opacity="0.55"></line>
<polygon points="542.4,190.0 534.4,193.2 534.4,186.8" fill="#ed7d31" opacity="0.55"></polygon>
<line x1="542.4" y1="190.0" x2="580.1" y2="190.0" stroke="#20d0b8" stroke-width="1.3" opacity="0.55"></line>
<polygon points="588.1,190.0 580.1,193.2 580.1,186.8" fill="#20d0b8" opacity="0.55"></polygon>
<line x1="588.1" y1="190.0" x2="606.8" y2="190.0" stroke="#cc3344" stroke-width="1.3" opacity="0.55"></line>
<line x1="606.8" y1="190.0" x2="606.8" y2="330.0" stroke="#cc3344" stroke-width="1.3" opacity="0.55"></line>
<line x1="606.8" y1="330.0" x2="633.4" y2="330.0" stroke="#cc3344" stroke-width="1.3" opacity="0.55"></line>
<polygon points="641.4,330.0 633.4,333.2 633.4,326.8" fill="#cc3344" opacity="0.55"></polygon>
<line x1="504.3" y1="330.0" x2="531.0" y2="330.0" stroke="#b85a1c" stroke-width="1.4" opacity="0.55"></line>
<line x1="531.0" y1="330.0" x2="531.0" y2="470.0" stroke="#b85a1c" stroke-width="1.4" opacity="0.55"></line>
<line x1="531.0" y1="470.0" x2="549.6" y2="470.0" stroke="#b85a1c" stroke-width="1.4" opacity="0.55"></line>
<polygon points="557.6,470.0 549.6,473.2 549.6,466.8" fill="#b85a1c" opacity="0.55"></polygon>
<line x1="557.6" y1="470.0" x2="595.3" y2="470.0" stroke="#ff6688" stroke-width="1.3" opacity="0.55"></line>
<polygon points="603.3,470.0 595.3,473.2 595.3,466.8" fill="#ff6688" opacity="0.55"></polygon>
<line x1="603.3" y1="470.0" x2="621.3" y2="470.0" stroke="#e15759" stroke-width="1.3" opacity="0.55"></line>
<line x1="621.3" y1="470.0" x2="621.3" y2="330.0" stroke="#e15759" stroke-width="1.3" opacity="0.55"></line>
<line x1="621.3" y1="330.0" x2="633.4" y2="330.0" stroke="#e15759" stroke-width="1.3" opacity="0.55"></line>
<polygon points="641.4,330.0 633.4,333.2 633.4,326.8" fill="#e15759" opacity="0.55"></polygon>
<line x1="778.6" y1="330.0" x2="796.6" y2="330.0" stroke="#70ad47" stroke-width="1.4" opacity="0.55"></line>
<line x1="796.6" y1="330.0" x2="796.6" y2="190.0" stroke="#70ad47" stroke-width="1.4" opacity="0.55"></line>
<line x1="796.6" y1="190.0" x2="808.7" y2="190.0" stroke="#70ad47" stroke-width="1.4" opacity="0.55"></line>
<polygon points="816.7,190.0 808.7,193.2 808.7,186.8" fill="#70ad47" opacity="0.55"></polygon>
<line x1="816.7" y1="190.0" x2="854.4" y2="190.0" stroke="#20d0b8" stroke-width="1.3" opacity="0.55"></line>
<polygon points="862.4,190.0 854.4,193.2 854.4,186.8" fill="#20d0b8" opacity="0.55"></polygon>
<line x1="862.4" y1="190.0" x2="889.0" y2="190.0" stroke="#cc3344" stroke-width="1.3" opacity="0.55"></line>
<line x1="889.0" y1="190.0" x2="889.0" y2="330.0" stroke="#cc3344" stroke-width="1.3" opacity="0.55"></line>
<line x1="889.0" y1="330.0" x2="907.7" y2="330.0" stroke="#cc3344" stroke-width="1.3" opacity="0.55"></line>
<polygon points="915.7,330.0 907.7,333.2 907.7,326.8" fill="#cc3344" opacity="0.55"></polygon>
<line x1="778.6" y1="330.0" x2="805.2" y2="330.0" stroke="#4a7a2e" stroke-width="1.4" opacity="0.55"></line>
<line x1="805.2" y1="330.0" x2="805.2" y2="470.0" stroke="#4a7a2e" stroke-width="1.4" opacity="0.55"></line>
<line x1="805.2" y1="470.0" x2="823.9" y2="470.0" stroke="#4a7a2e" stroke-width="1.4" opacity="0.55"></line>
<polygon points="831.9,470.0 823.9,473.2 823.9,466.8" fill="#4a7a2e" opacity="0.55"></polygon>
<line x1="831.9" y1="470.0" x2="869.6" y2="470.0" stroke="#ff6688" stroke-width="1.3" opacity="0.55"></line>
<polygon points="877.6,470.0 869.6,473.2 869.6,466.8" fill="#ff6688" opacity="0.55"></polygon>
<line x1="877.6" y1="470.0" x2="903.6" y2="470.0" stroke="#e15759" stroke-width="1.3" opacity="0.55"></line>
<line x1="903.6" y1="470.0" x2="903.6" y2="330.0" stroke="#e15759" stroke-width="1.3" opacity="0.55"></line>
<line x1="903.6" y1="330.0" x2="907.7" y2="330.0" stroke="#e15759" stroke-width="1.3" opacity="0.55"></line>
<polygon points="915.7,330.0 907.7,333.2 907.7,326.8" fill="#e15759" opacity="0.55"></polygon>
<line x1="92.9" y1="330.0" x2="130.6" y2="330.0" stroke="#6baed6" stroke-width="1.3" opacity="0.75"></line>
<polygon points="138.6,330.0 130.6,333.2 130.6,326.8" fill="#6baed6" opacity="0.75"></polygon>
<line x1="138.6" y1="330.0" x2="176.3" y2="330.0" stroke="#b07aa1" stroke-width="1.3" opacity="0.75" stroke-dasharray="4,3"></line>
<polygon points="184.3,330.0 176.3,333.2 176.3,326.8" fill="#b07aa1" opacity="0.75"></polygon>
<rect x="159.4" y="318.0" width="4.0" height="10" fill="#0a0a15" opacity="0.7" rx="3"></rect>
<text x="161.4" y="326.0" fill="#20b888" font-size="6" text-anchor="middle" font-family="monospace">↑</text>
<line x1="184.3" y1="330.0" x2="222.0" y2="330.0" stroke="#59a14f" stroke-width="1.3" opacity="0.75"></line>
<polygon points="230.0,330.0 222.0,333.2 222.0,326.8" fill="#59a14f" opacity="0.75"></polygon>
<rect x="203.1" y="318.0" width="8.0" height="10" fill="#0a0a15" opacity="0.7" rx="3"></rect>
<text x="207.1" y="326.0" fill="#20b888" font-size="6" text-anchor="middle" font-family="monospace">↑→</text>
<line x1="230.0" y1="326.5" x2="266.7" y2="326.5" stroke="#f28e2b" stroke-width="1.0" opacity="0.75"></line>
<line x1="230.0" y1="333.5" x2="266.7" y2="333.5" stroke="#f28e2b" stroke-width="1.0" opacity="0.75"></line>
<polygon points="275.7,330.0 265.7,334.0 265.7,326.0" fill="#f28e2b" opacity="0.75"></polygon>
<line x1="458.6" y1="326.5" x2="495.3" y2="326.5" stroke="#f28e2b" stroke-width="1.0" opacity="0.75"></line>
<line x1="458.6" y1="333.5" x2="495.3" y2="333.5" stroke="#f28e2b" stroke-width="1.0" opacity="0.75"></line>
<polygon points="504.3,330.0 494.3,334.0 494.3,326.0" fill="#f28e2b" opacity="0.75"></polygon>
<line x1="687.1" y1="330.0" x2="724.9" y2="330.0" stroke="#59a14f" stroke-width="1.3" opacity="0.75"></line>
<polygon points="732.9,330.0 724.9,333.2 724.9,326.8" fill="#59a14f" opacity="0.75"></polygon>
<line x1="732.9" y1="326.5" x2="769.6" y2="326.5" stroke="#f28e2b" stroke-width="1.0" opacity="0.75"></line>
<line x1="732.9" y1="333.5" x2="769.6" y2="333.5" stroke="#f28e2b" stroke-width="1.0" opacity="0.75"></line>
<polygon points="778.6,330.0 768.6,334.0 768.6,326.0" fill="#f28e2b" opacity="0.75"></polygon>
<line x1="961.4" y1="330.0" x2="999.1" y2="330.0" stroke="#ffd700" stroke-width="1.3" opacity="0.75"></line>
<polygon points="1007.1,330.0 999.1,333.2 999.1,326.8" fill="#ffd700" opacity="0.75"></polygon>
<line x1="412.9" y1="330.0" x2="450.6" y2="330.0" stroke="#ffd700" stroke-width="1.3" opacity="0.55"></line>
<polygon points="458.6,330.0 450.6,333.2 450.6,326.8" fill="#ffd700" opacity="0.55"></polygon>
<line x1="641.4" y1="330.0" x2="679.1" y2="330.0" stroke="#ffd700" stroke-width="1.3" opacity="0.55"></line>
<polygon points="687.1,330.0 679.1,333.2 679.1,326.8" fill="#ffd700" opacity="0.55"></polygon>
<line x1="915.7" y1="330.0" x2="953.4" y2="330.0" stroke="#ffd700" stroke-width="1.3" opacity="0.55"></line>
<polygon points="961.4,330.0 953.4,333.2 953.4,326.8" fill="#ffd700" opacity="0.55"></polygon>
<circle cx="92.9" cy="330.0" r="22.0" fill="#4e79a7" stroke="#ffffff20" stroke-width="1.0"></circle>
<text x="92.9" y="300.0" fill="#cccccc" font-size="8" text-anchor="middle" font-family="monospace" font-weight="bold">VI</text>
<text x="92.9" y="364.0" fill="#888" font-size="5.5" text-anchor="middle" font-family="monospace">VINIT</text>
<circle cx="115.9" cy="330.0" r="2.5" fill="#ffffff90" stroke-width="0"></circle>
<circle cx="138.6" cy="330.0" r="22.0" fill="#4e79a7" stroke="#ffffff20" stroke-width="1.0"></circle>
<text x="138.6" y="300.0" fill="#cccccc" font-size="8" text-anchor="middle" font-family="monospace" font-weight="bold">TA</text>
<text x="138.6" y="364.0" fill="#888" font-size="5.5" text-anchor="middle" font-family="monospace">TANCH</text>
<circle cx="115.6" cy="330.0" r="2.5" fill="#ffffff60" stroke-width="0"></circle>
<circle cx="161.6" cy="330.0" r="2.5" fill="#ffffff90" stroke-width="0"></circle>
<circle cx="184.3" cy="330.0" r="22.0" fill="#4e79a7" stroke="#ffffff20" stroke-width="1.0"></circle>
<circle cx="184.3" cy="330.0" r="12.1" fill="#153530" stroke-width="0"></circle>
<text x="184.3" y="332.0" fill="#20b2aa" font-size="7" text-anchor="middle" font-family="monospace" font-weight="bold">↑</text>
<text x="184.3" y="300.0" fill="#cccccc" font-size="8" text-anchor="middle" font-family="monospace" font-weight="bold">AF</text>
<text x="184.3" y="364.0" fill="#888" font-size="5.5" text-anchor="middle" font-family="monospace">AFWD</text>
<circle cx="161.3" cy="330.0" r="2.5" fill="#ffffff60" stroke-width="0"></circle>
<circle cx="207.3" cy="330.0" r="2.5" fill="#ffffff90" stroke-width="0"></circle>
<circle cx="230.0" cy="330.0" r="22.0" fill="#4e79a7" stroke="#ffffff20" stroke-width="1.0"></circle>
<text x="230.0" y="300.0" fill="#cccccc" font-size="8" text-anchor="middle" font-family="monospace" font-weight="bold">CL</text>
<text x="230.0" y="364.0" fill="#888" font-size="5.5" text-anchor="middle" font-family="monospace">CLINK</text>
<circle cx="207.0" cy="330.0" r="2.5" fill="#ffffff60" stroke-width="0"></circle>
<circle cx="253.0" cy="330.0" r="2.5" fill="#ffffff90" stroke-width="0"></circle>
<polygon points="275.7142857142857,308.0 297.7,330 275.7142857142857,352.0 253.7,330" fill="#ffd700" stroke="#ffffff20" stroke-width="1.0"></polygon>
<text x="275.7" y="300.0" fill="#cccccc" font-size="8" text-anchor="middle" font-family="monospace" font-weight="bold">FS</text>
<text x="275.7" y="364.0" fill="#888" font-size="5.5" text-anchor="middle" font-family="monospace">FSPLIT</text>
<circle cx="252.7" cy="330.0" r="2.5" fill="#ffffff60" stroke-width="0"></circle>
<circle cx="298.7" cy="323.0" r="2.5" fill="#ffffff90" stroke-width="0"></circle>
<circle cx="298.7" cy="337.0" r="2.5" fill="#ffffff90" stroke-width="0"></circle>
<polygon points="332.9,201.0 313.8,212.0 294.8,201.0 294.8,179.0 313.8,168.0 332.9,179.0" fill="#e15759" stroke="#ffffff20" stroke-width="1.0"></polygon>
<circle cx="313.8" cy="190.0" r="12.1" fill="#153530" stroke-width="0"></circle>
<text x="313.8" y="192.0" fill="#20b2aa" font-size="7" text-anchor="middle" font-family="monospace" font-weight="bold">↑</text>
<text x="313.8" y="160.0" fill="#cccccc" font-size="8" text-anchor="middle" font-family="monospace" font-weight="bold">ET</text>
<text x="313.8" y="224.0" fill="#888" font-size="5.5" text-anchor="middle" font-family="monospace">EVALT</text>
<circle cx="290.8" cy="190.0" r="3.5" fill="#f28e2b" stroke-width="0.8"></circle>
<circle cx="336.8" cy="190.0" r="3.5" fill="#59a14f" stroke-width="0.9"></circle>
<rect x="337.5" y="168.0" width="44.0" height="44.0" fill="#59a14f" stroke="#ffffff20" stroke-width="1.0"></rect>
<circle cx="359.5" cy="190.0" r="12.1" fill="#153530" stroke-width="0"></circle>
<text x="359.5" y="192.0" fill="#20b2aa" font-size="7" text-anchor="middle" font-family="monospace" font-weight="bold">↑</text>
<text x="359.5" y="160.0" fill="#cccccc" font-size="8" text-anchor="middle" font-family="monospace" font-weight="bold">IX</text>
<text x="359.5" y="224.0" fill="#888" font-size="5.5" text-anchor="middle" font-family="monospace">IFIX</text>
<circle cx="336.5" cy="190.0" r="2.5" fill="#ffffff60" stroke-width="0"></circle>
<circle cx="382.5" cy="190.0" r="2.5" fill="#ffffff90" stroke-width="0"></circle>
<polygon points="348.1,481.0 329.0,492.0 310.0,481.0 310.0,459.0 329.0,448.0 348.1,459.0" fill="#e15759" stroke="#ffffff20" stroke-width="1.0"></polygon>
<circle cx="329.0" cy="470.0" r="12.1" fill="#153530" stroke-width="0"></circle>
<text x="329.0" y="472.0" fill="#20b2aa" font-size="7" text-anchor="middle" font-family="monospace" font-weight="bold">↑</text>
<text x="329.0" y="440.0" fill="#cccccc" font-size="8" text-anchor="middle" font-family="monospace" font-weight="bold">EF</text>
<text x="329.0" y="504.0" fill="#888" font-size="5.5" text-anchor="middle" font-family="monospace">EVALF</text>
<circle cx="306.0" cy="470.0" r="3.5" fill="#f28e2b" stroke-width="0.8"></circle>
<circle cx="352.0" cy="470.0" r="3.5" fill="#59a14f" stroke-width="0.9"></circle>
<circle cx="374.8" cy="470.0" r="22.0" fill="#4e79a7" stroke="#ffffff20" stroke-width="1.0"></circle>
<circle cx="374.8" cy="470.0" r="12.1" fill="#153530" stroke-width="0"></circle>
<text x="374.8" y="472.0" fill="#20b2aa" font-size="7" text-anchor="middle" font-family="monospace" font-weight="bold">↑</text>
<text x="374.8" y="440.0" fill="#cccccc" font-size="8" text-anchor="middle" font-family="monospace" font-weight="bold">AR</text>
<text x="374.8" y="504.0" fill="#888" font-size="5.5" text-anchor="middle" font-family="monospace">AREV</text>
<circle cx="351.8" cy="470.0" r="2.5" fill="#ffffff60" stroke-width="0"></circle>
<circle cx="397.8" cy="470.0" r="2.5" fill="#ffffff90" stroke-width="0"></circle>
<polygon points="412.85714285714283,308.0 434.9,330 412.85714285714283,352.0 390.9,330" fill="#ffd700" stroke="#ffffff20" stroke-width="1.0"></polygon>
<circle cx="412.9" cy="330.0" r="12.1" fill="#153530" stroke-width="0"></circle>
<text x="412.9" y="332.0" fill="#20b2aa" font-size="7" text-anchor="middle" font-family="monospace" font-weight="bold">↑</text>
<text x="412.9" y="300.0" fill="#cccccc" font-size="8" text-anchor="middle" font-family="monospace" font-weight="bold">FF</text>
<text x="412.9" y="364.0" fill="#888" font-size="5.5" text-anchor="middle" font-family="monospace">FFUSE</text>
<circle cx="389.9" cy="323.0" r="2.5" fill="#ffffff60" stroke-width="0"></circle>
<circle cx="389.9" cy="337.0" r="2.5" fill="#ffffff60" stroke-width="0"></circle>
<circle cx="435.9" cy="330.0" r="2.5" fill="#ffffff90" stroke-width="0"></circle>
<circle cx="458.6" cy="330.0" r="22.0" fill="#4e79a7" stroke="#ffffff20" stroke-width="1.0"></circle>
<circle cx="458.6" cy="330.0" r="12.1" fill="#153530" stroke-width="0"></circle>
<text x="458.6" y="332.0" fill="#20b2aa" font-size="7" text-anchor="middle" font-family="monospace" font-weight="bold">↑</text>
<text x="458.6" y="300.0" fill="#cccccc" font-size="8" text-anchor="middle" font-family="monospace" font-weight="bold">CL</text>
<text x="458.6" y="364.0" fill="#888" font-size="5.5" text-anchor="middle" font-family="monospace">CLINK</text>
<circle cx="435.6" cy="330.0" r="2.5" fill="#ffffff60" stroke-width="0"></circle>
<circle cx="481.6" cy="330.0" r="2.5" fill="#ffffff90" stroke-width="0"></circle>
<polygon points="504.2857142857143,308.0 526.3,330 504.2857142857143,352.0 482.3,330" fill="#ffd700" stroke="#ffffff20" stroke-width="1.0"></polygon>
<circle cx="504.3" cy="330.0" r="12.1" fill="#153530" stroke-width="0"></circle>
<text x="504.3" y="332.0" fill="#20b2aa" font-size="7" text-anchor="middle" font-family="monospace" font-weight="bold">↑</text>
<text x="504.3" y="300.0" fill="#cccccc" font-size="8" text-anchor="middle" font-family="monospace" font-weight="bold">FS</text>
<text x="504.3" y="364.0" fill="#888" font-size="5.5" text-anchor="middle" font-family="monospace">FSPLIT</text>
<circle cx="481.3" cy="330.0" r="2.5" fill="#ffffff60" stroke-width="0"></circle>
<circle cx="527.3" cy="323.0" r="2.5" fill="#ffffff90" stroke-width="0"></circle>
<circle cx="527.3" cy="337.0" r="2.5" fill="#ffffff90" stroke-width="0"></circle>
<polygon points="561.4,201.0 542.4,212.0 523.3,201.0 523.3,179.0 542.4,168.0 561.4,179.0" fill="#e15759" stroke="#ffffff20" stroke-width="1.0"></polygon>
<circle cx="542.4" cy="190.0" r="12.1" fill="#153530" stroke-width="0"></circle>
<text x="542.4" y="192.0" fill="#20b2aa" font-size="7" text-anchor="middle" font-family="monospace" font-weight="bold">↑</text>
<text x="542.4" y="160.0" fill="#cccccc" font-size="8" text-anchor="middle" font-family="monospace" font-weight="bold">ET</text>
<text x="542.4" y="224.0" fill="#888" font-size="5.5" text-anchor="middle" font-family="monospace">EVALT</text>
<circle cx="519.4" cy="190.0" r="3.5" fill="#f28e2b" stroke-width="0.8"></circle>
<circle cx="565.4" cy="190.0" r="3.5" fill="#59a14f" stroke-width="0.9"></circle>
<rect x="566.1" y="168.0" width="44.0" height="44.0" fill="#59a14f" stroke="#ffffff20" stroke-width="1.0"></rect>
<circle cx="588.1" cy="190.0" r="12.1" fill="#153530" stroke-width="0"></circle>
<text x="588.1" y="192.0" fill="#20b2aa" font-size="7" text-anchor="middle" font-family="monospace" font-weight="bold">↑</text>
<text x="588.1" y="160.0" fill="#cccccc" font-size="8" text-anchor="middle" font-family="monospace" font-weight="bold">IX</text>
<text x="588.1" y="224.0" fill="#888" font-size="5.5" text-anchor="middle" font-family="monospace">IFIX</text>
<circle cx="565.1" cy="190.0" r="2.5" fill="#ffffff60" stroke-width="0"></circle>
<circle cx="611.1" cy="190.0" r="2.5" fill="#ffffff90" stroke-width="0"></circle>
<polygon points="576.7,481.0 557.6,492.0 538.6,481.0 538.6,459.0 557.6,448.0 576.7,459.0" fill="#e15759" stroke="#ffffff20" stroke-width="1.0"></polygon>
<circle cx="557.6" cy="470.0" r="12.1" fill="#153530" stroke-width="0"></circle>
<text x="557.6" y="472.0" fill="#20b2aa" font-size="7" text-anchor="middle" font-family="monospace" font-weight="bold">↑</text>
<text x="557.6" y="440.0" fill="#cccccc" font-size="8" text-anchor="middle" font-family="monospace" font-weight="bold">EF</text>
<text x="557.6" y="504.0" fill="#888" font-size="5.5" text-anchor="middle" font-family="monospace">EVALF</text>
<circle cx="534.6" cy="470.0" r="3.5" fill="#f28e2b" stroke-width="0.8"></circle>
<circle cx="580.6" cy="470.0" r="3.5" fill="#59a14f" stroke-width="0.9"></circle>
<polygon points="622.4,481.0 603.3,492.0 584.3,481.0 584.3,459.0 603.3,448.0 622.4,459.0" fill="#e15759" stroke="#ffffff20" stroke-width="1.0"></polygon>
<circle cx="603.3" cy="470.0" r="12.1" fill="#153530" stroke-width="0"></circle>
<text x="603.3" y="472.0" fill="#20b2aa" font-size="7" text-anchor="middle" font-family="monospace" font-weight="bold">↑</text>
<text x="603.3" y="440.0" fill="#cccccc" font-size="8" text-anchor="middle" font-family="monospace" font-weight="bold">EG</text>
<text x="603.3" y="504.0" fill="#888" font-size="5.5" text-anchor="middle" font-family="monospace">ENGAGR</text>
<circle cx="580.3" cy="470.0" r="2.5" fill="#ffffff60" stroke-width="0"></circle>
<circle cx="626.3" cy="470.0" r="2.5" fill="#ffffff90" stroke-width="0"></circle>
<polygon points="641.4285714285714,308.0 663.4,330 641.4285714285714,352.0 619.4,330" fill="#ffd700" stroke="#ffffff20" stroke-width="1.0"></polygon>
<circle cx="641.4" cy="330.0" r="12.1" fill="#153530" stroke-width="0"></circle>
<text x="641.4" y="332.0" fill="#20b2aa" font-size="7" text-anchor="middle" font-family="monospace" font-weight="bold">↑</text>
<text x="641.4" y="300.0" fill="#cccccc" font-size="8" text-anchor="middle" font-family="monospace" font-weight="bold">FF</text>
<text x="641.4" y="364.0" fill="#888" font-size="5.5" text-anchor="middle" font-family="monospace">FFUSE</text>
<circle cx="618.4" cy="323.0" r="2.5" fill="#ffffff60" stroke-width="0"></circle>
<circle cx="618.4" cy="337.0" r="2.5" fill="#ffffff60" stroke-width="0"></circle>
<circle cx="664.4" cy="330.0" r="2.5" fill="#ffffff90" stroke-width="0"></circle>
<circle cx="687.1" cy="330.0" r="22.0" fill="#4e79a7" stroke="#ffffff20" stroke-width="1.0"></circle>
<circle cx="687.1" cy="330.0" r="12.1" fill="#153530" stroke-width="0"></circle>
<text x="687.1" y="332.0" fill="#20b2aa" font-size="7" text-anchor="middle" font-family="monospace" font-weight="bold">↑</text>
<text x="687.1" y="300.0" fill="#cccccc" font-size="8" text-anchor="middle" font-family="monospace" font-weight="bold">AF</text>
<text x="687.1" y="364.0" fill="#888" font-size="5.5" text-anchor="middle" font-family="monospace">AFWD</text>
<circle cx="664.1" cy="330.0" r="2.5" fill="#ffffff60" stroke-width="0"></circle>
<circle cx="710.1" cy="330.0" r="2.5" fill="#ffffff90" stroke-width="0"></circle>
<circle cx="732.9" cy="330.0" r="22.0" fill="#4e79a7" stroke="#ffffff20" stroke-width="1.0"></circle>
<circle cx="732.9" cy="330.0" r="12.1" fill="#153530" stroke-width="0"></circle>
<text x="732.9" y="332.0" fill="#20b2aa" font-size="7" text-anchor="middle" font-family="monospace" font-weight="bold">↑</text>
<text x="732.9" y="300.0" fill="#cccccc" font-size="8" text-anchor="middle" font-family="monospace" font-weight="bold">CL</text>
<text x="732.9" y="364.0" fill="#888" font-size="5.5" text-anchor="middle" font-family="monospace">CLINK</text>
<circle cx="709.9" cy="330.0" r="2.5" fill="#ffffff60" stroke-width="0"></circle>
<circle cx="755.9" cy="330.0" r="2.5" fill="#ffffff90" stroke-width="0"></circle>
<polygon points="778.5714285714287,308.0 800.6,330 778.5714285714287,352.0 756.6,330" fill="#ffd700" stroke="#ffffff20" stroke-width="1.0"></polygon>
<circle cx="778.6" cy="330.0" r="12.1" fill="#153530" stroke-width="0"></circle>
<text x="778.6" y="332.0" fill="#20b2aa" font-size="7" text-anchor="middle" font-family="monospace" font-weight="bold">↑</text>
<text x="778.6" y="300.0" fill="#cccccc" font-size="8" text-anchor="middle" font-family="monospace" font-weight="bold">FS</text>
<text x="778.6" y="364.0" fill="#888" font-size="5.5" text-anchor="middle" font-family="monospace">FSPLIT</text>
<circle cx="755.6" cy="330.0" r="2.5" fill="#ffffff60" stroke-width="0"></circle>
<circle cx="801.6" cy="323.0" r="2.5" fill="#ffffff90" stroke-width="0"></circle>
<circle cx="801.6" cy="337.0" r="2.5" fill="#ffffff90" stroke-width="0"></circle>
<polygon points="835.7,201.0 816.7,212.0 797.6,201.0 797.6,179.0 816.7,168.0 835.7,179.0" fill="#e15759" stroke="#ffffff20" stroke-width="1.0"></polygon>
<circle cx="816.7" cy="190.0" r="12.1" fill="#153530" stroke-width="0"></circle>
<text x="816.7" y="192.0" fill="#20b2aa" font-size="7" text-anchor="middle" font-family="monospace" font-weight="bold">↑</text>
<text x="816.7" y="160.0" fill="#cccccc" font-size="8" text-anchor="middle" font-family="monospace" font-weight="bold">ET</text>
<text x="816.7" y="224.0" fill="#888" font-size="5.5" text-anchor="middle" font-family="monospace">EVALT</text>
<circle cx="793.7" cy="190.0" r="3.5" fill="#f28e2b" stroke-width="0.8"></circle>
<circle cx="839.7" cy="190.0" r="3.5" fill="#59a14f" stroke-width="0.9"></circle>
<rect x="840.4" y="168.0" width="44.0" height="44.0" fill="#59a14f" stroke="#ffffff20" stroke-width="1.0"></rect>
<circle cx="862.4" cy="190.0" r="12.1" fill="#153530" stroke-width="0"></circle>
<text x="862.4" y="192.0" fill="#20b2aa" font-size="7" text-anchor="middle" font-family="monospace" font-weight="bold">↑</text>
<text x="862.4" y="160.0" fill="#cccccc" font-size="8" text-anchor="middle" font-family="monospace" font-weight="bold">IX</text>
<text x="862.4" y="224.0" fill="#888" font-size="5.5" text-anchor="middle" font-family="monospace">IFIX</text>
<circle cx="839.4" cy="190.0" r="2.5" fill="#ffffff60" stroke-width="0"></circle>
<circle cx="885.4" cy="190.0" r="2.5" fill="#ffffff90" stroke-width="0"></circle>
<polygon points="851.0,481.0 831.9,492.0 812.9,481.0 812.9,459.0 831.9,448.0 851.0,459.0" fill="#e15759" stroke="#ffffff20" stroke-width="1.0"></polygon>
<circle cx="831.9" cy="470.0" r="12.1" fill="#153530" stroke-width="0"></circle>
<text x="831.9" y="472.0" fill="#20b2aa" font-size="7" text-anchor="middle" font-family="monospace" font-weight="bold">↑</text>
<text x="831.9" y="440.0" fill="#cccccc" font-size="8" text-anchor="middle" font-family="monospace" font-weight="bold">EF</text>
<text x="831.9" y="504.0" fill="#888" font-size="5.5" text-anchor="middle" font-family="monospace">EVALF</text>
<circle cx="808.9" cy="470.0" r="3.5" fill="#f28e2b" stroke-width="0.8"></circle>
<circle cx="854.9" cy="470.0" r="3.5" fill="#59a14f" stroke-width="0.9"></circle>
<circle cx="877.6" cy="470.0" r="22.0" fill="#4e79a7" stroke="#ffffff20" stroke-width="1.0"></circle>
<circle cx="877.6" cy="470.0" r="12.1" fill="#153530" stroke-width="0"></circle>
<text x="877.6" y="472.0" fill="#20b2aa" font-size="7" text-anchor="middle" font-family="monospace" font-weight="bold">↑</text>
<text x="877.6" y="440.0" fill="#cccccc" font-size="8" text-anchor="middle" font-family="monospace" font-weight="bold">AR</text>
<text x="877.6" y="504.0" fill="#888" font-size="5.5" text-anchor="middle" font-family="monospace">AREV</text>
<circle cx="854.6" cy="470.0" r="2.5" fill="#ffffff60" stroke-width="0"></circle>
<circle cx="900.6" cy="470.0" r="2.5" fill="#ffffff90" stroke-width="0"></circle>
<polygon points="915.7142857142858,308.0 937.7,330 915.7142857142858,352.0 893.7,330" fill="#ffd700" stroke="#ffffff20" stroke-width="1.0"></polygon>
<circle cx="915.7" cy="330.0" r="12.1" fill="#153530" stroke-width="0"></circle>
<text x="915.7" y="332.0" fill="#20b2aa" font-size="7" text-anchor="middle" font-family="monospace" font-weight="bold">↑</text>
<text x="915.7" y="300.0" fill="#cccccc" font-size="8" text-anchor="middle" font-family="monospace" font-weight="bold">FF</text>
<text x="915.7" y="364.0" fill="#888" font-size="5.5" text-anchor="middle" font-family="monospace">FFUSE</text>
<circle cx="892.7" cy="323.0" r="2.5" fill="#ffffff60" stroke-width="0"></circle>
<circle cx="892.7" cy="337.0" r="2.5" fill="#ffffff60" stroke-width="0"></circle>
<circle cx="938.7" cy="330.0" r="2.5" fill="#ffffff90" stroke-width="0"></circle>
<circle cx="961.4" cy="330.0" r="22.0" fill="#4e79a7" stroke="#ffffff20" stroke-width="1.0"></circle>
<circle cx="961.4" cy="330.0" r="12.1" fill="#153530" stroke-width="0"></circle>
<text x="961.4" y="332.0" fill="#20b2aa" font-size="7" text-anchor="middle" font-family="monospace" font-weight="bold">↑</text>
<text x="961.4" y="300.0" fill="#cccccc" font-size="8" text-anchor="middle" font-family="monospace" font-weight="bold">IM</text>
<text x="961.4" y="364.0" fill="#888" font-size="5.5" text-anchor="middle" font-family="monospace">IMSCRIB</text>
<circle cx="938.4" cy="330.0" r="2.5" fill="#ffffff60" stroke-width="0"></circle>
<circle cx="984.4" cy="330.0" r="2.5" fill="#ffffff90" stroke-width="0"></circle>
<circle cx="1007.1" cy="330.0" r="22.0" fill="#4e79a7" stroke="#ffffff20" stroke-width="1.0"></circle>
<circle cx="1007.1" cy="330.0" r="12.1" fill="#153530" stroke-width="0"></circle>
<text x="1007.1" y="332.0" fill="#20b2aa" font-size="7" text-anchor="middle" font-family="monospace" font-weight="bold">↑</text>
<text x="1007.1" y="300.0" fill="#cccccc" font-size="8" text-anchor="middle" font-family="monospace" font-weight="bold">TA</text>
<text x="1007.1" y="364.0" fill="#888" font-size="5.5" text-anchor="middle" font-family="monospace">TANCH</text>
<circle cx="984.1" cy="330.0" r="2.5" fill="#ffffff60" stroke-width="0"></circle>
<circle cx="1030.1" cy="330.0" r="2.5" fill="#ffffff90" stroke-width="0"></circle>
<path d="M1007.1,330.0 Q550.0,275.0 92.9,330.0" fill="none" stroke="#9988cc" stroke-width="1.5" opacity="0.5"></path>
<polygon points="92.9,330.0 84.4,327.0 85.4,334.9" fill="#9988cc" opacity="0.5"></polygon>
<text x="550.0" y="260.0" fill="#9988cc" font-size="8" text-anchor="middle" font-family="serif">O₂</text>
<text x="550.0" y="621.0" fill="#9988aa" font-size="7" text-anchor="middle" font-family="serif">Ouroboricity: O₂</text>
<text x="70.0" y="52.0" fill="#666" font-size="6" text-anchor="start" font-family="monospace" font-weight="bold">NODES</text>
<circle cx="110.0" cy="59.0" r="4.5" fill="#4e79a7" stroke-width="0"></circle>
<text x="120.0" y="62.0" fill="#4e79a7" font-size="5" text-anchor="start" font-family="monospace">LOGI</text>
<polygon points="158,54.5 162.5,59 158,63.5 153.5,59" fill="#ffd700" stroke="#ffffff20" stroke-width="1.0"></polygon>
<text x="168.0" y="62.0" fill="#ffd700" font-size="5" text-anchor="start" font-family="monospace">FROB</text>
<polygon points="209.9,61.2 206.0,63.5 202.1,61.2 202.1,56.8 206.0,54.5 209.9,56.8" fill="#e15759" stroke="#ffffff20" stroke-width="1.0"></polygon>
<text x="216.0" y="62.0" fill="#e15759" font-size="5" text-anchor="start" font-family="monospace">DIAL</text>
<rect x="249.5" y="54.5" width="9.0" height="9.0" fill="#59a14f" stroke="#ffffff20" stroke-width="1.0"></rect>
<text x="264.0" y="62.0" fill="#59a14f" font-size="5" text-anchor="start" font-family="monospace">LINE</text>
<text x="312.0" y="52.0" fill="#666" font-size="6" text-anchor="start" font-family="monospace" font-weight="bold">EDGES</text>
<line x1="350.0" y1="59.0" x2="364.0" y2="59.0" stroke="#59a14f" stroke-width="1.5" opacity="0.7"></line>
<text x="368.0" y="62.0" fill="#59a14f" font-size="5" text-anchor="start" font-family="monospace">AFWD</text>
<line x1="402.0" y1="59.0" x2="416.0" y2="59.0" stroke="#e15759" stroke-width="1.5" opacity="0.7"></line>
<text x="420.0" y="62.0" fill="#e15759" font-size="5" text-anchor="start" font-family="monospace">AREV</text>
<line x1="454.0" y1="59.0" x2="468.0" y2="59.0" stroke="#f28e2b" stroke-width="1.5" opacity="0.7"></line>
<text x="472.0" y="62.0" fill="#f28e2b" font-size="5" text-anchor="start" font-family="monospace">CLINK</text>
<line x1="506.0" y1="59.0" x2="520.0" y2="59.0" stroke="#b07aa1" stroke-width="1.5" opacity="0.7" stroke-dasharray="4,3"></line>
<text x="524.0" y="62.0" fill="#b07aa1" font-size="5" text-anchor="start" font-family="monospace">TANCH</text>
<line x1="558.0" y1="59.0" x2="572.0" y2="59.0" stroke="#ffd700" stroke-width="1.5" opacity="0.7"></line>
<text x="576.0" y="62.0" fill="#ffd700" font-size="5" text-anchor="start" font-family="monospace">IMSC</text>
<line x1="610.0" y1="59.0" x2="624.0" y2="59.0" stroke="#cc3344" stroke-width="1.5" opacity="0.7"></line>
<text x="628.0" y="62.0" fill="#cc3344" font-size="5" text-anchor="start" font-family="monospace">IFIX</text>
<text x="70.0" y="72.0" fill="#666" font-size="6" text-anchor="start" font-family="monospace" font-weight="bold">GUARD</text>
<circle cx="110.0" cy="79.0" r="3.0" fill="#f28e2b" stroke-width="0.8"></circle>
<text x="117.0" y="82.0" fill="#f28e2b" font-size="5" text-anchor="start" font-family="monospace">approach</text>
<circle cx="162.0" cy="79.0" r="3.0" fill="#59a14f" stroke-width="0.9"></circle>
<text x="169.0" y="82.0" fill="#59a14f" font-size="5" text-anchor="start" font-family="monospace">passed</text>
<text x="214.0" y="72.0" fill="#666" font-size="6" text-anchor="start" font-family="monospace" font-weight="bold">REG Δ</text>
<text x="252.0" y="82.0" fill="#20b888" font-size="5.5" text-anchor="start" font-family="monospace">→↑</text>
<text x="280.0" y="82.0" fill="#ffd700" font-size="5.5" text-anchor="start" font-family="monospace">↓→↑↓</text>
<text x="308.0" y="82.0" fill="#e15759" font-size="5.5" text-anchor="start" font-family="monospace">↑↔↓</text>
<line x1="344.0" y1="79.0" x2="358.0" y2="79.0" stroke="#ffd700" stroke-width="1.5" opacity="0.6" stroke-dasharray="5,3"></line>
<text x="362.0" y="82.0" fill="#ffd700" font-size="5.5" text-anchor="start" font-family="monospace">cross-br.</text>
<line x1="404.0" y1="79.0" x2="418.0" y2="79.0" stroke="#9988cc" stroke-width="1.5" opacity="0.5"></line>
<text x="422.0" y="82.0" fill="#9988cc" font-size="5.5" text-anchor="start" font-family="monospace">loop</text>
</svg>