<svg xmlns="http://www.w3.org/2000/svg" viewBox="0 0 1220 630">
<rect width="1220" height="630" fill="#ffffff"/>
<defs>
<pattern id="hatch-T" width="4" height="4" patternUnits="userSpaceOnUse"><path d="M2,0 L2,4" stroke="#000000" stroke-width="0.8"/></pattern>
<pattern id="hatch-F" width="4" height="4" patternUnits="userSpaceOnUse"><path d="M0,2 L4,2" stroke="#000000" stroke-width="0.8"/></pattern>
<pattern id="hatch-B" width="4" height="4" patternUnits="userSpaceOnUse"><path d="M2,0 L2,4 M0,2 L4,2" stroke="#000000" stroke-width="0.8"/></pattern>
</defs>
<line x1="0.0" y1="0.0" x2="0.0" y2="630.0" stroke="#e8e8e8" stroke-width="0.4" opacity="0.3"></line>
<line x1="40.0" y1="0.0" x2="40.0" y2="630.0" stroke="#e8e8e8" stroke-width="0.4" opacity="0.3"></line>
<line x1="80.0" y1="0.0" x2="80.0" y2="630.0" stroke="#e8e8e8" stroke-width="0.4" opacity="0.3"></line>
<line x1="120.0" y1="0.0" x2="120.0" y2="630.0" stroke="#e8e8e8" stroke-width="0.4" opacity="0.3"></line>
<line x1="160.0" y1="0.0" x2="160.0" y2="630.0" stroke="#e8e8e8" stroke-width="0.4" opacity="0.3"></line>
<line x1="200.0" y1="0.0" x2="200.0" y2="630.0" stroke="#e8e8e8" stroke-width="0.4" opacity="0.3"></line>
<line x1="240.0" y1="0.0" x2="240.0" y2="630.0" stroke="#e8e8e8" stroke-width="0.4" opacity="0.3"></line>
<line x1="280.0" y1="0.0" x2="280.0" y2="630.0" stroke="#e8e8e8" stroke-width="0.4" opacity="0.3"></line>
<line x1="320.0" y1="0.0" x2="320.0" y2="630.0" stroke="#e8e8e8" stroke-width="0.4" opacity="0.3"></line>
<line x1="360.0" y1="0.0" x2="360.0" y2="630.0" stroke="#e8e8e8" stroke-width="0.4" opacity="0.3"></line>
<line x1="400.0" y1="0.0" x2="400.0" y2="630.0" stroke="#e8e8e8" stroke-width="0.4" opacity="0.3"></line>
<line x1="440.0" y1="0.0" x2="440.0" y2="630.0" stroke="#e8e8e8" stroke-width="0.4" opacity="0.3"></line>
<line x1="480.0" y1="0.0" x2="480.0" y2="630.0" stroke="#e8e8e8" stroke-width="0.4" opacity="0.3"></line>
<line x1="520.0" y1="0.0" x2="520.0" y2="630.0" stroke="#e8e8e8" stroke-width="0.4" opacity="0.3"></line>
<line x1="560.0" y1="0.0" x2="560.0" y2="630.0" stroke="#e8e8e8" stroke-width="0.4" opacity="0.3"></line>
<line x1="600.0" y1="0.0" x2="600.0" y2="630.0" stroke="#e8e8e8" stroke-width="0.4" opacity="0.3"></line>
<line x1="640.0" y1="0.0" x2="640.0" y2="630.0" stroke="#e8e8e8" stroke-width="0.4" opacity="0.3"></line>
<line x1="680.0" y1="0.0" x2="680.0" y2="630.0" stroke="#e8e8e8" stroke-width="0.4" opacity="0.3"></line>
<line x1="720.0" y1="0.0" x2="720.0" y2="630.0" stroke="#e8e8e8" stroke-width="0.4" opacity="0.3"></line>
<line x1="760.0" y1="0.0" x2="760.0" y2="630.0" stroke="#e8e8e8" stroke-width="0.4" opacity="0.3"></line>
<line x1="800.0" y1="0.0" x2="800.0" y2="630.0" stroke="#e8e8e8" stroke-width="0.4" opacity="0.3"></line>
<line x1="840.0" y1="0.0" x2="840.0" y2="630.0" stroke="#e8e8e8" stroke-width="0.4" opacity="0.3"></line>
<line x1="880.0" y1="0.0" x2="880.0" y2="630.0" stroke="#e8e8e8" stroke-width="0.4" opacity="0.3"></line>
<line x1="920.0" y1="0.0" x2="920.0" y2="630.0" stroke="#e8e8e8" stroke-width="0.4" opacity="0.3"></line>
<line x1="960.0" y1="0.0" x2="960.0" y2="630.0" stroke="#e8e8e8" stroke-width="0.4" opacity="0.3"></line>
<line x1="1000.0" y1="0.0" x2="1000.0" y2="630.0" stroke="#e8e8e8" stroke-width="0.4" opacity="0.3"></line>
<line x1="1040.0" y1="0.0" x2="1040.0" y2="630.0" stroke="#e8e8e8" stroke-width="0.4" opacity="0.3"></line>
<line x1="1080.0" y1="0.0" x2="1080.0" y2="630.0" stroke="#e8e8e8" stroke-width="0.4" opacity="0.3"></line>
<line x1="1120.0" y1="0.0" x2="1120.0" y2="630.0" stroke="#e8e8e8" stroke-width="0.4" opacity="0.3"></line>
<line x1="1160.0" y1="0.0" x2="1160.0" y2="630.0" stroke="#e8e8e8" stroke-width="0.4" opacity="0.3"></line>
<line x1="1200.0" y1="0.0" x2="1200.0" y2="630.0" stroke="#e8e8e8" stroke-width="0.4" opacity="0.3"></line>
<line x1="0.0" y1="0.0" x2="1220.0" y2="0.0" stroke="#e8e8e8" stroke-width="0.4" opacity="0.3"></line>
<line x1="0.0" y1="40.0" x2="1220.0" y2="40.0" stroke="#e8e8e8" stroke-width="0.4" opacity="0.3"></line>
<line x1="0.0" y1="80.0" x2="1220.0" y2="80.0" stroke="#e8e8e8" stroke-width="0.4" opacity="0.3"></line>
<line x1="0.0" y1="120.0" x2="1220.0" y2="120.0" stroke="#e8e8e8" stroke-width="0.4" opacity="0.3"></line>
<line x1="0.0" y1="160.0" x2="1220.0" y2="160.0" stroke="#e8e8e8" stroke-width="0.4" opacity="0.3"></line>
<line x1="0.0" y1="200.0" x2="1220.0" y2="200.0" stroke="#e8e8e8" stroke-width="0.4" opacity="0.3"></line>
<line x1="0.0" y1="240.0" x2="1220.0" y2="240.0" stroke="#e8e8e8" stroke-width="0.4" opacity="0.3"></line>
<line x1="0.0" y1="280.0" x2="1220.0" y2="280.0" stroke="#e8e8e8" stroke-width="0.4" opacity="0.3"></line>
<line x1="0.0" y1="320.0" x2="1220.0" y2="320.0" stroke="#e8e8e8" stroke-width="0.4" opacity="0.3"></line>
<line x1="0.0" y1="360.0" x2="1220.0" y2="360.0" stroke="#e8e8e8" stroke-width="0.4" opacity="0.3"></line>
<line x1="0.0" y1="400.0" x2="1220.0" y2="400.0" stroke="#e8e8e8" stroke-width="0.4" opacity="0.3"></line>
<line x1="0.0" y1="440.0" x2="1220.0" y2="440.0" stroke="#e8e8e8" stroke-width="0.4" opacity="0.3"></line>
<line x1="0.0" y1="480.0" x2="1220.0" y2="480.0" stroke="#e8e8e8" stroke-width="0.4" opacity="0.3"></line>
<line x1="0.0" y1="520.0" x2="1220.0" y2="520.0" stroke="#e8e8e8" stroke-width="0.4" opacity="0.3"></line>
<line x1="0.0" y1="560.0" x2="1220.0" y2="560.0" stroke="#e8e8e8" stroke-width="0.4" opacity="0.3"></line>
<line x1="0.0" y1="600.0" x2="1220.0" y2="600.0" stroke="#e8e8e8" stroke-width="0.4" opacity="0.3"></line>
<text x="610.0" y="26.0" fill="#000000" font-size="13" text-anchor="middle" font-family="monospace" font-weight="bold">the ring-level SIC property becomes an I</text>
<text x="610.0" y="41.0" fill="#000000" font-size="7" text-anchor="middle" font-family="monospace">FSPLIT</text>
<text x="66.0" y="190.0" fill="#000000" font-size="7" text-anchor="start" font-family="monospace">T-lane</text>
<text x="66.0" y="470.0" fill="#000000" font-size="7" text-anchor="start" font-family="monospace">F-lane</text>
<text x="66.0" y="330.0" fill="#000000" font-size="7" text-anchor="start" font-family="monospace">main</text>
<line x1="924.6" y1="145.0" x2="924.6" y2="515.0" stroke="#000000" stroke-width="1.0" opacity="1.0" stroke-dasharray="4,3"></line>
<line x1="929.6" y1="145.0" x2="929.6" y2="515.0" stroke="#000000" stroke-width="1.0" opacity="1.0" stroke-dasharray="4,3"></line>
<text x="927.1" y="145.0" fill="#000000" font-size="8" text-anchor="middle" font-family="monospace">×</text>
<text x="927.1" y="515.0" fill="#000000" font-size="8" text-anchor="middle" font-family="monospace">×</text>
<text x="927.1" y="138.0" fill="#000000" font-size="6" text-anchor="middle" font-family="monospace">IFIX</text>
<line x1="310.0" y1="310.0" x2="310.0" y2="292.0" stroke="#000000" stroke-width="0.6" opacity="0.8" stroke-dasharray="3,3"></line>
<line x1="310.0" y1="292.0" x2="584.3" y2="292.0" stroke="#000000" stroke-width="0.6" opacity="0.8" stroke-dasharray="3,3"></line>
<line x1="584.3" y1="292.0" x2="584.3" y2="310.0" stroke="#000000" stroke-width="0.6" opacity="0.8" stroke-dasharray="3,3"></line>
<circle cx="447.1" cy="292.0" r="6" fill="#ffffff" stroke="#000000" stroke-width="0.8"></circle>
<text x="447.1" y="295.0" fill="#000000" font-size="7" text-anchor="middle" font-family="monospace">1</text>
<line x1="317.6" y1="311.5" x2="359.6" y2="208.5" stroke="#000000" stroke-width="1.5" opacity="1.0"></line>
<polygon points="359.6,208.5 359.5,217.1 353.6,214.7" fill="#000000"></polygon>
<circle cx="338.6" cy="260.0" r="5" fill="#ffffff" stroke="#000000" stroke-width="0.6"></circle>
<text x="338.6" y="263.0" fill="#000000" font-size="7" text-anchor="middle" font-family="monospace">◇</text>
<text x="338.6" y="252.0" fill="#000000" font-size="6" text-anchor="middle" font-family="monospace">↑</text>
<line x1="387.1" y1="190.0" x2="427.1" y2="190.0" stroke="#000000" stroke-width="2.5" opacity="1.0"></line>
<polygon points="427.1,190.0 419.1,193.2 419.1,186.8" fill="#000000"></polygon>
<text x="407.1" y="182.0" fill="#000000" font-size="6" text-anchor="middle" font-family="monospace">↑→↑</text>
<line x1="467.1" y1="190.0" x2="495.7" y2="190.0" stroke="#000000" stroke-width="1.5" opacity="1.0"></line>
<polygon points="495.7,190.0 487.7,193.2 487.7,186.8" fill="#000000"></polygon>
<circle cx="481.4" cy="190.0" r="5" fill="#ffffff" stroke="#000000" stroke-width="0.6"></circle>
<text x="481.4" y="193.0" fill="#000000" font-size="7" text-anchor="middle" font-family="monospace">+</text>
<text x="481.4" y="182.0" fill="#000000" font-size="6" text-anchor="middle" font-family="monospace">↑→↑↓</text>
<line x1="524.5" y1="208.0" x2="575.5" y2="312.0" stroke="#000000" stroke-width="1.5" opacity="1.0" stroke-dasharray="6,4"></line>
<polygon points="575.5,312.0 569.1,306.3 574.8,303.4" fill="#000000"></polygon>
<text x="550.0" y="252.0" fill="#000000" font-size="6" text-anchor="middle" font-family="monospace">↑↓→↑</text>
<line x1="319.9" y1="347.4" x2="380.1" y2="452.6" stroke="#000000" stroke-width="1.5" opacity="1.0"></line>
<polygon points="380.1,452.6 373.3,447.3 378.9,444.1" fill="#000000"></polygon>
<circle cx="350.0" cy="400.0" r="5" fill="#ffffff" stroke="#000000" stroke-width="0.6"></circle>
<text x="350.0" y="403.0" fill="#000000" font-size="7" text-anchor="middle" font-family="monospace">◇</text>
<text x="350.0" y="392.0" fill="#000000" font-size="6" text-anchor="middle" font-family="monospace">↑↓</text>
<line x1="406.2" y1="458.3" x2="568.1" y2="341.7" stroke="#000000" stroke-width="1.5" opacity="1.0"></line>
<polygon points="568.1,341.7 563.4,349.0 559.7,343.8" fill="#000000"></polygon>
<circle cx="487.1" cy="400.0" r="5" fill="#ffffff" stroke="#000000" stroke-width="0.6"></circle>
<text x="487.1" y="403.0" fill="#000000" font-size="7" text-anchor="middle" font-family="monospace">×</text>
<text x="487.1" y="392.0" fill="#000000" font-size="6" text-anchor="middle" font-family="monospace">↑↓→↑</text>
<line x1="124.3" y1="330.0" x2="152.9" y2="330.0" stroke="#000000" stroke-width="2.0" opacity="1.0"></line>
<polyline points="152.9,330.0 144.9,333.2 144.9,326.8" fill="none" stroke="#000000" stroke-width="1.0"></polyline>
<text x="138.6" y="322.0" fill="#000000" font-size="6" text-anchor="middle" font-family="monospace">↑</text>
<line x1="192.9" y1="330.0" x2="221.4" y2="330.0" stroke="#000000" stroke-width="2.0" opacity="1.0"></line>
<polygon points="192.9,330.0 200.9,326.8 200.9,333.2" fill="#000000"></polygon>
<circle cx="207.1" cy="330.0" r="5" fill="#ffffff" stroke="#000000" stroke-width="0.6"></circle>
<text x="207.1" y="333.0" fill="#000000" font-size="7" text-anchor="middle" font-family="monospace">←</text>
<text x="207.1" y="322.0" fill="#000000" font-size="6" text-anchor="middle" font-family="monospace">↑→</text>
<line x1="261.4" y1="328.4" x2="290.0" y2="328.4" stroke="#000000" stroke-width="2.0" opacity="1.0"></line>
<line x1="261.4" y1="331.6" x2="290.0" y2="331.6" stroke="#000000" stroke-width="2.0" opacity="1.0"></line>
<polygon points="290.0,330.0 282.0,333.2 282.0,326.8" fill="#000000"></polygon>
<line x1="672.9" y1="330.0" x2="701.4" y2="330.0" stroke="#000000" stroke-width="2.5" opacity="1.0"></line>
<polygon points="701.4,330.0 693.4,333.2 693.4,326.8" fill="#000000"></polygon>
<text x="687.1" y="322.0" fill="#000000" font-size="6" text-anchor="middle" font-family="monospace">↑→</text>
<line x1="741.4" y1="328.4" x2="770.0" y2="328.4" stroke="#000000" stroke-width="2.0" opacity="1.0"></line>
<line x1="741.4" y1="331.6" x2="770.0" y2="331.6" stroke="#000000" stroke-width="2.0" opacity="1.0"></line>
<polygon points="770.0,330.0 762.0,333.2 762.0,326.8" fill="#000000"></polygon>
<text x="755.7" y="322.0" fill="#000000" font-size="6" text-anchor="middle" font-family="monospace">↑</text>
<line x1="810.0" y1="330.0" x2="838.6" y2="330.0" stroke="#000000" stroke-width="2.0" opacity="1.0"></line>
<polygon points="810.0,330.0 818.0,326.8 818.0,333.2" fill="#000000"></polygon>
<circle cx="824.3" cy="330.0" r="5" fill="#ffffff" stroke="#000000" stroke-width="0.6"></circle>
<text x="824.3" y="333.0" fill="#000000" font-size="7" text-anchor="middle" font-family="monospace">←</text>
<text x="824.3" y="322.0" fill="#000000" font-size="6" text-anchor="middle" font-family="monospace">↑→↑</text>
<polyline points="878.6,334.0 886.6,326.0 894.6,334.0 902.6,326.0 907.1,330.0" fill="none" stroke="#000000" stroke-width="2.0"></polyline>
<polygon points="907.1,330.0 899.1,333.2 899.1,326.8" fill="#000000"></polygon>
<text x="892.9" y="322.0" fill="#000000" font-size="6" text-anchor="middle" font-family="monospace">↑→↑</text>
<line x1="947.1" y1="330.0" x2="975.7" y2="330.0" stroke="#000000" stroke-width="2.0" opacity="1.0" stroke-dasharray="2,2"></line>
<polygon points="975.7,330.0 967.7,333.2 967.7,326.8" fill="#000000"></polygon>
<text x="961.4" y="322.0" fill="#000000" font-size="6" text-anchor="middle" font-family="monospace">↑→↑</text>
<line x1="604.3" y1="330.0" x2="632.9" y2="330.0" stroke="#000000" stroke-width="1.5" opacity="1.0"></line>
<polygon points="632.9,330.0 624.9,333.2 624.9,326.8" fill="#000000"></polygon>
<circle cx="618.6" cy="330.0" r="5" fill="#ffffff" stroke="#000000" stroke-width="0.6"></circle>
<text x="618.6" y="333.0" fill="#000000" font-size="7" text-anchor="middle" font-family="monospace">●</text>
<text x="618.6" y="322.0" fill="#000000" font-size="6" text-anchor="middle" font-family="monospace">↑→↑</text>
<circle fill="none" stroke="#000000" stroke-width="1.3" cx="104.3" cy="330.0" r="20.0"></circle>
<circle cx="80.3" cy="330.0" r="2.5" fill="#ffffff" stroke="#000000" stroke-width="0.8"></circle>
<circle cx="128.3" cy="330.0" r="2.5" fill="#000000"></circle>
<text x="104.3" y="304.0" fill="#000000" font-size="9" text-anchor="middle" font-family="monospace" font-weight="bold">VI</text>
<text x="104.3" y="362.0" fill="#000000" font-size="5" text-anchor="middle" font-family="monospace">VINIT</text>
<circle fill="none" stroke="#000000" stroke-width="1.3" cx="172.9" cy="330.0" r="20.0"></circle>
<circle cx="172.9" cy="330.0" r="8" fill="url(#hatch-T)" stroke="#000000" stroke-width="0.6"></circle>
<circle cx="148.9" cy="330.0" r="2.5" fill="#ffffff" stroke="#000000" stroke-width="0.8"></circle>
<circle cx="196.9" cy="330.0" r="2.5" fill="#000000"></circle>
<text x="172.9" y="304.0" fill="#000000" font-size="9" text-anchor="middle" font-family="monospace" font-weight="bold">IM</text>
<text x="172.9" y="362.0" fill="#000000" font-size="5" text-anchor="middle" font-family="monospace">IMSCRIB</text>
<circle fill="none" stroke="#000000" stroke-width="1.3" cx="241.4" cy="330.0" r="20.0"></circle>
<circle cx="217.4" cy="330.0" r="2.5" fill="#ffffff" stroke="#000000" stroke-width="0.8"></circle>
<circle cx="265.4" cy="330.0" r="2.5" fill="#000000"></circle>
<text x="241.4" y="304.0" fill="#000000" font-size="9" text-anchor="middle" font-family="monospace" font-weight="bold">CL</text>
<text x="241.4" y="362.0" fill="#000000" font-size="5" text-anchor="middle" font-family="monospace">CLINK</text>
<polygon fill="none" stroke="#000000" stroke-width="1.3" points="310.0,310.0 330.0,330 310.0,350.0 290.0,330"></polygon>
<circle cx="286.0" cy="330.0" r="2.5" fill="#ffffff" stroke="#000000" stroke-width="0.8"></circle>
<circle cx="334.0" cy="330.0" r="2.5" fill="#000000"></circle>
<text x="310.0" y="304.0" fill="#000000" font-size="9" text-anchor="middle" font-family="monospace" font-weight="bold">FS</text>
<text x="310.0" y="362.0" fill="#000000" font-size="5" text-anchor="middle" font-family="monospace">FSPLIT</text>
<circle fill="none" stroke="#000000" stroke-width="1.3" cx="367.1" cy="190.0" r="20.0"></circle>
<circle cx="367.1" cy="190.0" r="8" fill="url(#hatch-T)" stroke="#000000" stroke-width="0.6"></circle>
<circle cx="343.1" cy="190.0" r="2.5" fill="#ffffff" stroke="#000000" stroke-width="0.8"></circle>
<circle cx="391.1" cy="190.0" r="2.5" fill="#000000"></circle>
<text x="367.1" y="164.0" fill="#000000" font-size="9" text-anchor="middle" font-family="monospace" font-weight="bold">AF</text>
<text x="367.1" y="222.0" fill="#000000" font-size="5" text-anchor="middle" font-family="monospace">AFWD</text>
<polygon fill="none" stroke="#000000" stroke-width="1.3" points="464.5,200.0 447.1,210.0 429.8,200.0 429.8,180.0 447.1,170.0 464.5,180.0"></polygon>
<circle cx="447.1" cy="190.0" r="8" fill="url(#hatch-T)" stroke="#000000" stroke-width="0.6"></circle>
<circle cx="423.1" cy="190.0" r="2.5" fill="#ffffff" stroke="#000000" stroke-width="0.8"></circle>
<circle cx="471.1" cy="190.0" r="2.5" fill="#000000"></circle>
<text x="447.1" y="164.0" fill="#000000" font-size="9" text-anchor="middle" font-family="monospace" font-weight="bold">ET</text>
<text x="447.1" y="222.0" fill="#000000" font-size="5" text-anchor="middle" font-family="monospace">EVALT</text>
<circle fill="none" stroke="#000000" stroke-width="1.3" cx="515.7" cy="190.0" r="20.0"></circle>
<circle cx="515.7" cy="190.0" r="8" fill="url(#hatch-B)" stroke="#000000" stroke-width="0.6"></circle>
<circle cx="491.7" cy="190.0" r="2.5" fill="#ffffff" stroke="#000000" stroke-width="0.8"></circle>
<circle cx="539.7" cy="190.0" r="2.5" fill="#000000"></circle>
<text x="515.7" y="164.0" fill="#000000" font-size="9" text-anchor="middle" font-family="monospace" font-weight="bold">AR</text>
<text x="515.7" y="222.0" fill="#000000" font-size="5" text-anchor="middle" font-family="monospace">AREV</text>
<polygon fill="none" stroke="#000000" stroke-width="1.3" points="407.3,480.0 390.0,490.0 372.7,480.0 372.7,460.0 390.0,450.0 407.3,460.0"></polygon>
<circle cx="390.0" cy="470.0" r="8" fill="url(#hatch-B)" stroke="#000000" stroke-width="0.6"></circle>
<circle cx="366.0" cy="470.0" r="2.5" fill="#ffffff" stroke="#000000" stroke-width="0.8"></circle>
<circle cx="414.0" cy="470.0" r="2.5" fill="#000000"></circle>
<text x="390.0" y="444.0" fill="#000000" font-size="9" text-anchor="middle" font-family="monospace" font-weight="bold">EF</text>
<text x="390.0" y="502.0" fill="#000000" font-size="5" text-anchor="middle" font-family="monospace">EVALF</text>
<polygon fill="none" stroke="#000000" stroke-width="1.3" points="584.2857142857143,310.0 604.3,330 584.2857142857143,350.0 564.3,330"></polygon>
<circle cx="584.3" cy="330.0" r="8" fill="url(#hatch-T)" stroke="#000000" stroke-width="0.6"></circle>
<circle cx="560.3" cy="330.0" r="2.5" fill="#ffffff" stroke="#000000" stroke-width="0.8"></circle>
<circle cx="608.3" cy="330.0" r="2.5" fill="#000000"></circle>
<text x="584.3" y="304.0" fill="#000000" font-size="9" text-anchor="middle" font-family="monospace" font-weight="bold">FF</text>
<text x="584.3" y="362.0" fill="#000000" font-size="5" text-anchor="middle" font-family="monospace">FFUSE</text>
<circle fill="none" stroke="#000000" stroke-width="1.3" cx="652.9" cy="330.0" r="20.0"></circle>
<circle cx="652.9" cy="330.0" r="8" fill="url(#hatch-T)" stroke="#000000" stroke-width="0.6"></circle>
<circle cx="628.9" cy="330.0" r="2.5" fill="#ffffff" stroke="#000000" stroke-width="0.8"></circle>
<circle cx="676.9" cy="330.0" r="2.5" fill="#000000"></circle>
<text x="652.9" y="304.0" fill="#000000" font-size="9" text-anchor="middle" font-family="monospace" font-weight="bold">AF</text>
<text x="652.9" y="362.0" fill="#000000" font-size="5" text-anchor="middle" font-family="monospace">AFWD</text>
<circle fill="none" stroke="#000000" stroke-width="1.3" cx="721.4" cy="330.0" r="20.0"></circle>
<circle cx="697.4" cy="330.0" r="2.5" fill="#ffffff" stroke="#000000" stroke-width="0.8"></circle>
<circle cx="745.4" cy="330.0" r="2.5" fill="#000000"></circle>
<text x="721.4" y="304.0" fill="#000000" font-size="9" text-anchor="middle" font-family="monospace" font-weight="bold">CL</text>
<text x="721.4" y="362.0" fill="#000000" font-size="5" text-anchor="middle" font-family="monospace">CLINK</text>
<circle fill="none" stroke="#000000" stroke-width="1.3" cx="790.0" cy="330.0" r="20.0"></circle>
<circle cx="790.0" cy="330.0" r="8" fill="url(#hatch-T)" stroke="#000000" stroke-width="0.6"></circle>
<circle cx="766.0" cy="330.0" r="2.5" fill="#ffffff" stroke="#000000" stroke-width="0.8"></circle>
<circle cx="814.0" cy="330.0" r="2.5" fill="#000000"></circle>
<text x="790.0" y="304.0" fill="#000000" font-size="9" text-anchor="middle" font-family="monospace" font-weight="bold">IM</text>
<text x="790.0" y="362.0" fill="#000000" font-size="5" text-anchor="middle" font-family="monospace">IMSCRIB</text>
<polygon fill="none" stroke="#000000" stroke-width="1.3" points="875.9,340.0 858.6,350.0 841.3,340.0 841.3,320.0 858.6,310.0 875.9,320.0"></polygon>
<circle cx="858.6" cy="330.0" r="8" fill="url(#hatch-T)" stroke="#000000" stroke-width="0.6"></circle>
<circle cx="834.6" cy="330.0" r="2.5" fill="#ffffff" stroke="#000000" stroke-width="0.8"></circle>
<circle cx="882.6" cy="330.0" r="2.5" fill="#000000"></circle>
<text x="858.6" y="304.0" fill="#000000" font-size="9" text-anchor="middle" font-family="monospace" font-weight="bold">EG</text>
<text x="858.6" y="362.0" fill="#000000" font-size="5" text-anchor="middle" font-family="monospace">ENGAGR</text>
<rect fill="none" stroke="#000000" stroke-width="1.3" x="907.1" y="310.0" width="40.0" height="40.0"></rect>
<circle cx="927.1" cy="330.0" r="8" fill="url(#hatch-T)" stroke="#000000" stroke-width="0.6"></circle>
<circle cx="903.1" cy="330.0" r="2.5" fill="#ffffff" stroke="#000000" stroke-width="0.8"></circle>
<circle cx="951.1" cy="330.0" r="2.5" fill="#000000"></circle>
<text x="927.1" y="304.0" fill="#000000" font-size="9" text-anchor="middle" font-family="monospace" font-weight="bold">IX</text>
<text x="927.1" y="362.0" fill="#000000" font-size="5" text-anchor="middle" font-family="monospace">IFIX</text>
<circle fill="none" stroke="#000000" stroke-width="1.3" cx="995.7" cy="330.0" r="20.0"></circle>
<circle cx="995.7" cy="330.0" r="8" fill="url(#hatch-T)" stroke="#000000" stroke-width="0.6"></circle>
<circle cx="971.7" cy="330.0" r="2.5" fill="#ffffff" stroke="#000000" stroke-width="0.8"></circle>
<circle cx="1019.7" cy="330.0" r="2.5" fill="#000000"></circle>
<text x="995.7" y="304.0" fill="#000000" font-size="9" text-anchor="middle" font-family="monospace" font-weight="bold">TA</text>
<text x="995.7" y="362.0" fill="#000000" font-size="5" text-anchor="middle" font-family="monospace">TANCH</text>
<path d="M 995.7,310.0 C 995.7,252.0 172.9,252.0 172.9,310.0" fill="none" stroke="#000000" stroke-width="1.0"></path>
<polygon points="172.9,310.0 169.7,302.0 176.1,302.0" fill="#000000"></polygon>
<text x="584.3" y="248.0" fill="#000000" font-size="7" text-anchor="middle" font-family="monospace">O₂</text>
<text x="14.0" y="72.0" fill="#000000" font-size="6" text-anchor="start" font-family="monospace" font-weight="bold">EDGES</text>
<line x1="14.0" y1="82.0" x2="36.0" y2="82.0" stroke="#000000" stroke-width="1.5" opacity="0.7"></line>
<text x="42.0" y="84.0" fill="#000000" font-size="5" text-anchor="start" font-family="monospace">VI</text>
<line x1="14.0" y1="91.5" x2="36.0" y2="91.5" stroke="#000000" stroke-width="1.5" opacity="0.7" stroke-dasharray="5,2,1,2,1,2"></line>
<text x="42.0" y="93.5" fill="#000000" font-size="5" text-anchor="start" font-family="monospace">TA</text>
<line x1="14.0" y1="101.0" x2="36.0" y2="101.0" stroke="#000000" stroke-width="2.0" opacity="0.7"></line>
<text x="42.0" y="103.0" fill="#000000" font-size="5" text-anchor="start" font-family="monospace">AF</text>
<line x1="14.0" y1="110.5" x2="36.0" y2="110.5" stroke="#000000" stroke-width="1.5" opacity="0.7" stroke-dasharray="6,4"></line>
<text x="42.0" y="112.5" fill="#000000" font-size="5" text-anchor="start" font-family="monospace">AR</text>
<line x1="14.0" y1="119.0" x2="36.0" y2="119.0" stroke="#000000" stroke-width="1.0" opacity="0.7"></line>
<line x1="14.0" y1="121.0" x2="36.0" y2="121.0" stroke="#000000" stroke-width="1.0" opacity="0.7"></line>
<text x="42.0" y="122.0" fill="#000000" font-size="5" text-anchor="start" font-family="monospace">CL</text>
<line x1="14.0" y1="129.5" x2="36.0" y2="129.5" stroke="#000000" stroke-width="1.5" opacity="0.7"></line>
<text x="42.0" y="131.5" fill="#000000" font-size="5" text-anchor="start" font-family="monospace">IM</text>
<line x1="14.0" y1="139.0" x2="36.0" y2="139.0" stroke="#000000" stroke-width="1.5" opacity="0.7"></line>
<text x="42.0" y="141.0" fill="#000000" font-size="5" text-anchor="start" font-family="monospace">FS</text>
<line x1="14.0" y1="148.5" x2="36.0" y2="148.5" stroke="#000000" stroke-width="1.5" opacity="0.7"></line>
<text x="42.0" y="150.5" fill="#000000" font-size="5" text-anchor="start" font-family="monospace">FF</text>
<line x1="14.0" y1="158.0" x2="36.0" y2="158.0" stroke="#000000" stroke-width="1.5" opacity="0.7"></line>
<text x="42.0" y="160.0" fill="#000000" font-size="5" text-anchor="start" font-family="monospace">ET</text>
<line x1="14.0" y1="167.5" x2="36.0" y2="167.5" stroke="#000000" stroke-width="1.5" opacity="0.7"></line>
<text x="42.0" y="169.5" fill="#000000" font-size="5" text-anchor="start" font-family="monospace">EF</text>
<polyline points="14.0,179.0 18.0,175.0 22.0,179.0 26.0,175.0 30.0,179.0 34.0,175.0 36.0,177.0" fill="none" stroke="#000000" stroke-width="1.0"></polyline>
<text x="42.0" y="179.0" fill="#000000" font-size="5" text-anchor="start" font-family="monospace">EG</text>
<line x1="14.0" y1="186.5" x2="36.0" y2="186.5" stroke="#000000" stroke-width="1.5" opacity="0.7" stroke-dasharray="2,2"></line>
<text x="42.0" y="188.5" fill="#000000" font-size="5" text-anchor="start" font-family="monospace">IX</text>
<text x="14.0" y="195.0" fill="#000000" font-size="6" text-anchor="start" font-family="monospace" font-weight="bold">GUARD</text>
<circle cx="17" cy="206" r="2.5" fill="#ffffff" stroke="#000000" stroke-width="0.8"></circle>
<text x="24.0" y="208.0" fill="#000000" font-size="5" text-anchor="start" font-family="monospace">in</text>
<circle cx="17" cy="216" r="2.5" fill="#000000"></circle>
<text x="24.0" y="218.0" fill="#000000" font-size="5" text-anchor="start" font-family="monospace">out</text>
<text x="14.0" y="231.0" fill="#000000" font-size="6" text-anchor="start" font-family="monospace" font-weight="bold">NODES</text>
<circle fill="none" stroke="#000000" stroke-width="1.0" cx="18.0" cy="246.0" r="4.0"></circle>
<text x="28.0" y="248.0" fill="#000000" font-size="5" text-anchor="start" font-family="monospace">LOGI</text>
<polygon fill="none" stroke="#000000" stroke-width="1.0" points="18,254.0 22.0,258 18,262.0 14.0,258"></polygon>
<text x="28.0" y="260.0" fill="#000000" font-size="5" text-anchor="start" font-family="monospace">FROB</text>
<polygon fill="none" stroke="#000000" stroke-width="1.0" points="21.5,272.0 18.0,274.0 14.5,272.0 14.5,268.0 18.0,266.0 21.5,268.0"></polygon>
<text x="28.0" y="272.0" fill="#000000" font-size="5" text-anchor="start" font-family="monospace">DIAL</text>
<rect fill="none" stroke="#000000" stroke-width="1.0" x="14.0" y="278.0" width="8.0" height="8.0"></rect>
<text x="28.0" y="284.0" fill="#000000" font-size="5" text-anchor="start" font-family="monospace">LINE</text>
<text x="14.0" y="294.0" fill="#000000" font-size="6" text-anchor="start" font-family="monospace" font-weight="bold">PAIRS</text>
<circle cx="18" cy="306" r="5" fill="#ffffff" stroke="#000000" stroke-width="0.8"></circle>
<text x="18.0" y="309.0" fill="#000000" font-size="6" text-anchor="middle" font-family="monospace">1</text>
<text x="28.0" y="308.0" fill="#000000" font-size="5" text-anchor="start" font-family="monospace">pair</text>
<text x="14.0" y="324.0" fill="#000000" font-size="6" text-anchor="start" font-family="monospace" font-weight="bold">REG Δ</text>
<text x="14.0" y="336.0" fill="#000000" font-size="5" text-anchor="start" font-family="monospace">↑ T</text>
<text x="14.0" y="345.0" fill="#000000" font-size="5" text-anchor="start" font-family="monospace">↓ F</text>
<text x="14.0" y="354.0" fill="#000000" font-size="5" text-anchor="start" font-family="monospace">↑↓ B</text>
<text x="610.0" y="618.0" fill="#000000" font-size="7" text-anchor="middle" font-family="monospace">Ouroboricity: O₂</text>
</svg>