<svg xmlns="http://www.w3.org/2000/svg" viewBox="0 0 1100 630">
<rect width="1100" height="630" fill="#0a0a15"/>
<line x1="0.0" y1="0.0" x2="0.0" y2="630.0" stroke="#151525" stroke-width="0.4" opacity="0.25"></line>
<line x1="40.0" y1="0.0" x2="40.0" y2="630.0" stroke="#151525" stroke-width="0.4" opacity="0.25"></line>
<line x1="80.0" y1="0.0" x2="80.0" y2="630.0" stroke="#151525" stroke-width="0.4" opacity="0.25"></line>
<line x1="120.0" y1="0.0" x2="120.0" y2="630.0" stroke="#151525" stroke-width="0.4" opacity="0.25"></line>
<line x1="160.0" y1="0.0" x2="160.0" y2="630.0" stroke="#151525" stroke-width="0.4" opacity="0.25"></line>
<line x1="200.0" y1="0.0" x2="200.0" y2="630.0" stroke="#151525" stroke-width="0.4" opacity="0.25"></line>
<line x1="240.0" y1="0.0" x2="240.0" y2="630.0" stroke="#151525" stroke-width="0.4" opacity="0.25"></line>
<line x1="280.0" y1="0.0" x2="280.0" y2="630.0" stroke="#151525" stroke-width="0.4" opacity="0.25"></line>
<line x1="320.0" y1="0.0" x2="320.0" y2="630.0" stroke="#151525" stroke-width="0.4" opacity="0.25"></line>
<line x1="360.0" y1="0.0" x2="360.0" y2="630.0" stroke="#151525" stroke-width="0.4" opacity="0.25"></line>
<line x1="400.0" y1="0.0" x2="400.0" y2="630.0" stroke="#151525" stroke-width="0.4" opacity="0.25"></line>
<line x1="440.0" y1="0.0" x2="440.0" y2="630.0" stroke="#151525" stroke-width="0.4" opacity="0.25"></line>
<line x1="480.0" y1="0.0" x2="480.0" y2="630.0" stroke="#151525" stroke-width="0.4" opacity="0.25"></line>
<line x1="520.0" y1="0.0" x2="520.0" y2="630.0" stroke="#151525" stroke-width="0.4" opacity="0.25"></line>
<line x1="560.0" y1="0.0" x2="560.0" y2="630.0" stroke="#151525" stroke-width="0.4" opacity="0.25"></line>
<line x1="600.0" y1="0.0" x2="600.0" y2="630.0" stroke="#151525" stroke-width="0.4" opacity="0.25"></line>
<line x1="640.0" y1="0.0" x2="640.0" y2="630.0" stroke="#151525" stroke-width="0.4" opacity="0.25"></line>
<line x1="680.0" y1="0.0" x2="680.0" y2="630.0" stroke="#151525" stroke-width="0.4" opacity="0.25"></line>
<line x1="720.0" y1="0.0" x2="720.0" y2="630.0" stroke="#151525" stroke-width="0.4" opacity="0.25"></line>
<line x1="760.0" y1="0.0" x2="760.0" y2="630.0" stroke="#151525" stroke-width="0.4" opacity="0.25"></line>
<line x1="800.0" y1="0.0" x2="800.0" y2="630.0" stroke="#151525" stroke-width="0.4" opacity="0.25"></line>
<line x1="840.0" y1="0.0" x2="840.0" y2="630.0" stroke="#151525" stroke-width="0.4" opacity="0.25"></line>
<line x1="880.0" y1="0.0" x2="880.0" y2="630.0" stroke="#151525" stroke-width="0.4" opacity="0.25"></line>
<line x1="920.0" y1="0.0" x2="920.0" y2="630.0" stroke="#151525" stroke-width="0.4" opacity="0.25"></line>
<line x1="960.0" y1="0.0" x2="960.0" y2="630.0" stroke="#151525" stroke-width="0.4" opacity="0.25"></line>
<line x1="1000.0" y1="0.0" x2="1000.0" y2="630.0" stroke="#151525" stroke-width="0.4" opacity="0.25"></line>
<line x1="1040.0" y1="0.0" x2="1040.0" y2="630.0" stroke="#151525" stroke-width="0.4" opacity="0.25"></line>
<line x1="1080.0" y1="0.0" x2="1080.0" y2="630.0" stroke="#151525" stroke-width="0.4" opacity="0.25"></line>
<line x1="0.0" y1="0.0" x2="1100.0" y2="0.0" stroke="#151525" stroke-width="0.4" opacity="0.25"></line>
<line x1="0.0" y1="40.0" x2="1100.0" y2="40.0" stroke="#151525" stroke-width="0.4" opacity="0.25"></line>
<line x1="0.0" y1="80.0" x2="1100.0" y2="80.0" stroke="#151525" stroke-width="0.4" opacity="0.25"></line>
<line x1="0.0" y1="120.0" x2="1100.0" y2="120.0" stroke="#151525" stroke-width="0.4" opacity="0.25"></line>
<line x1="0.0" y1="160.0" x2="1100.0" y2="160.0" stroke="#151525" stroke-width="0.4" opacity="0.25"></line>
<line x1="0.0" y1="200.0" x2="1100.0" y2="200.0" stroke="#151525" stroke-width="0.4" opacity="0.25"></line>
<line x1="0.0" y1="240.0" x2="1100.0" y2="240.0" stroke="#151525" stroke-width="0.4" opacity="0.25"></line>
<line x1="0.0" y1="280.0" x2="1100.0" y2="280.0" stroke="#151525" stroke-width="0.4" opacity="0.25"></line>
<line x1="0.0" y1="320.0" x2="1100.0" y2="320.0" stroke="#151525" stroke-width="0.4" opacity="0.25"></line>
<line x1="0.0" y1="360.0" x2="1100.0" y2="360.0" stroke="#151525" stroke-width="0.4" opacity="0.25"></line>
<line x1="0.0" y1="400.0" x2="1100.0" y2="400.0" stroke="#151525" stroke-width="0.4" opacity="0.25"></line>
<line x1="0.0" y1="440.0" x2="1100.0" y2="440.0" stroke="#151525" stroke-width="0.4" opacity="0.25"></line>
<line x1="0.0" y1="480.0" x2="1100.0" y2="480.0" stroke="#151525" stroke-width="0.4" opacity="0.25"></line>
<line x1="0.0" y1="520.0" x2="1100.0" y2="520.0" stroke="#151525" stroke-width="0.4" opacity="0.25"></line>
<line x1="0.0" y1="560.0" x2="1100.0" y2="560.0" stroke="#151525" stroke-width="0.4" opacity="0.25"></line>
<line x1="0.0" y1="600.0" x2="1100.0" y2="600.0" stroke="#151525" stroke-width="0.4" opacity="0.25"></line>
<text x="550.0" y="26.0" fill="#cccccc" font-size="13" text-anchor="middle" font-family="monospace" font-weight="bold">classical non commutative complement to the quan</text>
<text x="22.0" y="190.0" fill="#20c0b0" font-size="7" text-anchor="middle" font-family="monospace">T-lane</text>
<text x="22.0" y="470.0" fill="#e04060" font-size="7" text-anchor="middle" font-family="monospace">F-lane</text>
<text x="22.0" y="330.0" fill="#555" font-size="7" text-anchor="middle" font-family="monospace">main</text>
<line x1="675.2" y1="145.0" x2="675.2" y2="515.0" stroke="#cc3344" stroke-width="1.8" opacity="0.4" stroke-dasharray="6,4"></line>
<text x="675.2" y="135.0" fill="#cc3344" font-size="7" text-anchor="middle" font-family="monospace" font-weight="bold">IFIX</text>
<polygon points="675.2173913043478,141.0 679.2,145 675.2173913043478,149.0 671.2,145" fill="#cc3344" opacity="0.6"></polygon>
<polygon points="675.2173913043478,511.0 679.2,515 675.2173913043478,519.0 671.2,515" fill="#cc3344" opacity="0.6"></polygon>
<line x1="174.3" y1="330.0" x2="192.3" y2="330.0" stroke="#5b9bd5" stroke-width="1.4" opacity="0.55"></line>
<line x1="192.3" y1="330.0" x2="192.3" y2="190.0" stroke="#5b9bd5" stroke-width="1.4" opacity="0.55"></line>
<line x1="192.3" y1="190.0" x2="208.1" y2="190.0" stroke="#5b9bd5" stroke-width="1.4" opacity="0.55"></line>
<polygon points="216.1,190.0 208.1,193.2 208.1,186.8" fill="#5b9bd5" opacity="0.55"></polygon>
<rect x="193.2" y="248.0" width="4.0" height="10" fill="#0a0a15" opacity="0.7" rx="3"></rect>
<text x="195.2" y="256.0" fill="#20b888" font-size="6" text-anchor="middle" font-family="monospace">↑</text>
<line x1="216.1" y1="190.0" x2="249.8" y2="190.0" stroke="#59a14f" stroke-width="1.3" opacity="0.55"></line>
<polygon points="257.8,190.0 249.8,193.2 249.8,186.8" fill="#59a14f" opacity="0.55"></polygon>
<line x1="257.8" y1="190.0" x2="291.6" y2="190.0" stroke="#20d0b8" stroke-width="1.3" opacity="0.55"></line>
<polygon points="299.6,190.0 291.6,193.2 291.6,186.8" fill="#20d0b8" opacity="0.55"></polygon>
<line x1="299.6" y1="190.0" x2="333.3" y2="190.0" stroke="#ffd700" stroke-width="1.3" opacity="0.55"></line>
<polygon points="341.3,190.0 333.3,193.2 333.3,186.8" fill="#ffd700" opacity="0.55"></polygon>
<rect x="316.4" y="178.0" width="8.0" height="10" fill="#0a0a15" opacity="0.7" rx="3"></rect>
<text x="320.4" y="186.0" fill="#20b888" font-size="6" text-anchor="middle" font-family="monospace">↑→</text>
<line x1="341.3" y1="187.0" x2="359.3" y2="187.0" stroke="#f28e2b" stroke-width="1.0" opacity="0.55"></line>
<line x1="341.3" y1="193.0" x2="359.3" y2="193.0" stroke="#f28e2b" stroke-width="1.0" opacity="0.55"></line>
<line x1="362.3" y1="190.0" x2="362.3" y2="330.0" stroke="#f28e2b" stroke-width="1.0" opacity="0.55"></line>
<line x1="356.3" y1="190.0" x2="356.3" y2="330.0" stroke="#f28e2b" stroke-width="1.0" opacity="0.55"></line>
<line x1="359.3" y1="326.5" x2="374.0" y2="326.5" stroke="#f28e2b" stroke-width="1.0" opacity="0.55"></line>
<line x1="359.3" y1="333.5" x2="374.0" y2="333.5" stroke="#f28e2b" stroke-width="1.0" opacity="0.55"></line>
<polygon points="383.0,330.0 373.0,334.0 373.0,326.0" fill="#f28e2b" opacity="0.55"></polygon>
<line x1="174.3" y1="330.0" x2="375.0" y2="330.0" stroke="#2b6b9f" stroke-width="1.4" opacity="0.55"></line>
<polygon points="383.0,330.0 375.0,333.2 375.0,326.8" fill="#2b6b9f" opacity="0.55"></polygon>
<line x1="842.2" y1="330.0" x2="860.2" y2="330.0" stroke="#ed7d31" stroke-width="1.4" opacity="0.55"></line>
<line x1="860.2" y1="330.0" x2="860.2" y2="190.0" stroke="#ed7d31" stroke-width="1.4" opacity="0.55"></line>
<line x1="860.2" y1="190.0" x2="869.0" y2="190.0" stroke="#ed7d31" stroke-width="1.4" opacity="0.55"></line>
<polygon points="877.0,190.0 869.0,193.2 869.0,186.8" fill="#ed7d31" opacity="0.55"></polygon>
<line x1="877.0" y1="190.0" x2="895.0" y2="190.0" stroke="#20d0b8" stroke-width="1.3" opacity="0.55"></line>
<line x1="895.0" y1="190.0" x2="895.0" y2="330.0" stroke="#20d0b8" stroke-width="1.3" opacity="0.55"></line>
<line x1="895.0" y1="330.0" x2="917.7" y2="330.0" stroke="#20d0b8" stroke-width="1.3" opacity="0.55"></line>
<polygon points="925.7,330.0 917.7,333.2 917.7,326.8" fill="#20d0b8" opacity="0.55"></polygon>
<line x1="842.2" y1="330.0" x2="868.2" y2="330.0" stroke="#b85a1c" stroke-width="1.4" opacity="0.55"></line>
<line x1="868.2" y1="330.0" x2="868.2" y2="470.0" stroke="#b85a1c" stroke-width="1.4" opacity="0.55"></line>
<line x1="868.2" y1="470.0" x2="882.9" y2="470.0" stroke="#b85a1c" stroke-width="1.4" opacity="0.55"></line>
<polygon points="890.9,470.0 882.9,473.2 882.9,466.8" fill="#b85a1c" opacity="0.55"></polygon>
<line x1="890.9" y1="470.0" x2="908.9" y2="470.0" stroke="#ff6688" stroke-width="1.3" opacity="0.55"></line>
<line x1="908.9" y1="470.0" x2="908.9" y2="330.0" stroke="#ff6688" stroke-width="1.3" opacity="0.55"></line>
<line x1="908.9" y1="330.0" x2="917.7" y2="330.0" stroke="#ff6688" stroke-width="1.3" opacity="0.55"></line>
<polygon points="925.7,330.0 917.7,333.2 917.7,326.8" fill="#ff6688" opacity="0.55"></polygon>
<line x1="90.9" y1="330.0" x2="124.6" y2="330.0" stroke="#6baed6" stroke-width="1.3" opacity="0.75"></line>
<polygon points="132.6,330.0 124.6,333.2 124.6,326.8" fill="#6baed6" opacity="0.75"></polygon>
<line x1="132.6" y1="330.0" x2="166.3" y2="330.0" stroke="#b07aa1" stroke-width="1.3" opacity="0.75" stroke-dasharray="4,3"></line>
<polygon points="174.3,330.0 166.3,333.2 166.3,326.8" fill="#b07aa1" opacity="0.75"></polygon>
<line x1="424.8" y1="330.0" x2="458.5" y2="330.0" stroke="#e15759" stroke-width="1.3" opacity="0.75"></line>
<polygon points="466.5,330.0 458.5,333.2 458.5,326.8" fill="#e15759" opacity="0.75"></polygon>
<line x1="466.5" y1="330.0" x2="500.3" y2="330.0" stroke="#ff6688" stroke-width="1.3" opacity="0.75"></line>
<polygon points="508.3,330.0 500.3,333.2 500.3,326.8" fill="#ff6688" opacity="0.75"></polygon>
<line x1="508.3" y1="330.0" x2="542.0" y2="330.0" stroke="#e15759" stroke-width="1.3" opacity="0.75"></line>
<polygon points="550.0,330.0 542.0,333.2 542.0,326.8" fill="#e15759" opacity="0.75"></polygon>
<rect x="525.1" y="318.0" width="8.0" height="10" fill="#0a0a15" opacity="0.7" rx="3"></rect>
<text x="529.1" y="326.0" fill="#20b888" font-size="6" text-anchor="middle" font-family="monospace">↓→</text>
<line x1="550.0" y1="326.5" x2="582.7" y2="326.5" stroke="#f28e2b" stroke-width="1.0" opacity="0.75"></line>
<line x1="550.0" y1="333.5" x2="582.7" y2="333.5" stroke="#f28e2b" stroke-width="1.0" opacity="0.75"></line>
<polygon points="591.7,330.0 581.7,334.0 581.7,326.0" fill="#f28e2b" opacity="0.75"></polygon>
<line x1="591.7" y1="330.0" x2="625.5" y2="330.0" stroke="#ffd700" stroke-width="1.3" opacity="0.75"></line>
<polygon points="633.5,330.0 625.5,333.2 625.5,326.8" fill="#ffd700" opacity="0.75"></polygon>
<rect x="610.6" y="318.0" width="4.0" height="10" fill="#0a0a15" opacity="0.7" rx="3"></rect>
<text x="612.6" y="326.0" fill="#20b888" font-size="6" text-anchor="middle" font-family="monospace">↑</text>
<line x1="633.5" y1="330.0" x2="667.2" y2="330.0" stroke="#ffd700" stroke-width="1.3" opacity="0.75"></line>
<polygon points="675.2,330.0 667.2,333.2 667.2,326.8" fill="#ffd700" opacity="0.75"></polygon>
<line x1="675.2" y1="330.0" x2="709.0" y2="330.0" stroke="#cc3344" stroke-width="1.3" opacity="0.75"></line>
<polygon points="717.0,330.0 709.0,333.2 709.0,326.8" fill="#cc3344" opacity="0.75"></polygon>
<line x1="717.0" y1="330.0" x2="750.7" y2="330.0" stroke="#59a14f" stroke-width="1.3" opacity="0.75"></line>
<polygon points="758.7,330.0 750.7,333.2 750.7,326.8" fill="#59a14f" opacity="0.75"></polygon>
<line x1="758.7" y1="326.5" x2="791.4" y2="326.5" stroke="#f28e2b" stroke-width="1.0" opacity="0.75"></line>
<line x1="758.7" y1="333.5" x2="791.4" y2="333.5" stroke="#f28e2b" stroke-width="1.0" opacity="0.75"></line>
<polygon points="800.4,330.0 790.4,334.0 790.4,326.0" fill="#f28e2b" opacity="0.75"></polygon>
<line x1="800.4" y1="330.0" x2="834.2" y2="330.0" stroke="#ffd700" stroke-width="1.3" opacity="0.75"></line>
<polygon points="842.2,330.0 834.2,333.2 834.2,326.8" fill="#ffd700" opacity="0.75"></polygon>
<line x1="967.4" y1="330.0" x2="1001.1" y2="330.0" stroke="#e15759" stroke-width="1.3" opacity="0.75"></line>
<polygon points="1009.1,330.0 1001.1,333.2 1001.1,326.8" fill="#e15759" opacity="0.75"></polygon>
<line x1="383.0" y1="330.0" x2="416.8" y2="330.0" stroke="#ffd700" stroke-width="1.3" opacity="0.55"></line>
<polygon points="424.8,330.0 416.8,333.2 416.8,326.8" fill="#ffd700" opacity="0.55"></polygon>
<rect x="401.9" y="318.0" width="4.0" height="10" fill="#0a0a15" opacity="0.7" rx="3"></rect>
<text x="403.9" y="326.0" fill="#20b888" font-size="6" text-anchor="middle" font-family="monospace">↓</text>
<line x1="925.7" y1="330.0" x2="959.4" y2="330.0" stroke="#ffd700" stroke-width="1.3" opacity="0.55"></line>
<polygon points="967.4,330.0 959.4,333.2 959.4,326.8" fill="#ffd700" opacity="0.55"></polygon>
<path d="M174.3,330.0 Q278.7,470.0 383.0,330.0" fill="none" stroke="#2b6b9f" stroke-dasharray="4,4" stroke-width="1" opacity="0.25"></path>
<circle cx="90.9" cy="330.0" r="22.0" fill="#4e79a7" stroke="#ffffff20" stroke-width="1.0"></circle>
<text x="90.9" y="300.0" fill="#cccccc" font-size="8" text-anchor="middle" font-family="monospace" font-weight="bold">VI</text>
<text x="90.9" y="364.0" fill="#888" font-size="5.5" text-anchor="middle" font-family="monospace">VINIT</text>
<circle cx="113.9" cy="330.0" r="2.5" fill="#ffffff90" stroke-width="0"></circle>
<circle cx="132.6" cy="330.0" r="22.0" fill="#4e79a7" stroke="#ffffff20" stroke-width="1.0"></circle>
<text x="132.6" y="300.0" fill="#cccccc" font-size="8" text-anchor="middle" font-family="monospace" font-weight="bold">TA</text>
<text x="132.6" y="364.0" fill="#888" font-size="5.5" text-anchor="middle" font-family="monospace">TANCH</text>
<circle cx="109.6" cy="330.0" r="2.5" fill="#ffffff60" stroke-width="0"></circle>
<circle cx="155.6" cy="330.0" r="2.5" fill="#ffffff90" stroke-width="0"></circle>
<polygon points="174.34782608695653,308.0 196.3,330 174.34782608695653,352.0 152.3,330" fill="#ffd700" stroke="#ffffff20" stroke-width="1.0"></polygon>
<text x="174.3" y="300.0" fill="#cccccc" font-size="8" text-anchor="middle" font-family="monospace" font-weight="bold">FS</text>
<text x="174.3" y="364.0" fill="#888" font-size="5.5" text-anchor="middle" font-family="monospace">FSPLIT</text>
<circle cx="151.3" cy="330.0" r="2.5" fill="#ffffff60" stroke-width="0"></circle>
<circle cx="197.3" cy="323.0" r="2.5" fill="#ffffff90" stroke-width="0"></circle>
<circle cx="197.3" cy="337.0" r="2.5" fill="#ffffff90" stroke-width="0"></circle>
<circle cx="216.1" cy="190.0" r="22.0" fill="#4e79a7" stroke="#ffffff20" stroke-width="1.0"></circle>
<circle cx="216.1" cy="190.0" r="12.1" fill="#153530" stroke-width="0"></circle>
<text x="216.1" y="192.0" fill="#20b2aa" font-size="7" text-anchor="middle" font-family="monospace" font-weight="bold">↑</text>
<text x="216.1" y="160.0" fill="#cccccc" font-size="8" text-anchor="middle" font-family="monospace" font-weight="bold">AF</text>
<text x="216.1" y="224.0" fill="#888" font-size="5.5" text-anchor="middle" font-family="monospace">AFWD</text>
<circle cx="193.1" cy="190.0" r="2.5" fill="#ffffff60" stroke-width="0"></circle>
<circle cx="239.1" cy="190.0" r="2.5" fill="#ffffff90" stroke-width="0"></circle>
<polygon points="276.9,201.0 257.8,212.0 238.8,201.0 238.8,179.0 257.8,168.0 276.9,179.0" fill="#e15759" stroke="#ffffff20" stroke-width="1.0"></polygon>
<circle cx="257.8" cy="190.0" r="12.1" fill="#153530" stroke-width="0"></circle>
<text x="257.8" y="192.0" fill="#20b2aa" font-size="7" text-anchor="middle" font-family="monospace" font-weight="bold">↑</text>
<text x="257.8" y="160.0" fill="#cccccc" font-size="8" text-anchor="middle" font-family="monospace" font-weight="bold">ET</text>
<text x="257.8" y="224.0" fill="#888" font-size="5.5" text-anchor="middle" font-family="monospace">EVALT</text>
<circle cx="234.8" cy="190.0" r="3.5" fill="#f28e2b" stroke-width="0.8"></circle>
<circle cx="280.8" cy="190.0" r="3.5" fill="#59a14f" stroke-width="0.9"></circle>
<circle cx="299.6" cy="190.0" r="22.0" fill="#4e79a7" stroke="#ffffff20" stroke-width="1.0"></circle>
<circle cx="299.6" cy="190.0" r="12.1" fill="#153530" stroke-width="0"></circle>
<text x="299.6" y="192.0" fill="#20b2aa" font-size="7" text-anchor="middle" font-family="monospace" font-weight="bold">↑</text>
<text x="299.6" y="160.0" fill="#cccccc" font-size="8" text-anchor="middle" font-family="monospace" font-weight="bold">IM</text>
<text x="299.6" y="224.0" fill="#888" font-size="5.5" text-anchor="middle" font-family="monospace">IMSCRIB</text>
<circle cx="276.6" cy="190.0" r="2.5" fill="#ffffff60" stroke-width="0"></circle>
<circle cx="322.6" cy="190.0" r="2.5" fill="#ffffff90" stroke-width="0"></circle>
<circle cx="341.3" cy="190.0" r="22.0" fill="#4e79a7" stroke="#ffffff20" stroke-width="1.0"></circle>
<text x="341.3" y="160.0" fill="#cccccc" font-size="8" text-anchor="middle" font-family="monospace" font-weight="bold">CL</text>
<text x="341.3" y="224.0" fill="#888" font-size="5.5" text-anchor="middle" font-family="monospace">CLINK</text>
<circle cx="318.3" cy="190.0" r="2.5" fill="#ffffff60" stroke-width="0"></circle>
<circle cx="364.3" cy="190.0" r="2.5" fill="#ffffff90" stroke-width="0"></circle>
<polygon points="383.04347826086956,308.0 405.0,330 383.04347826086956,352.0 361.0,330" fill="#ffd700" stroke="#ffffff20" stroke-width="1.0"></polygon>
<text x="383.0" y="300.0" fill="#cccccc" font-size="8" text-anchor="middle" font-family="monospace" font-weight="bold">FF</text>
<text x="383.0" y="364.0" fill="#888" font-size="5.5" text-anchor="middle" font-family="monospace">FFUSE</text>
<circle cx="360.0" cy="323.0" r="2.5" fill="#ffffff60" stroke-width="0"></circle>
<circle cx="360.0" cy="337.0" r="2.5" fill="#ffffff60" stroke-width="0"></circle>
<circle cx="406.0" cy="330.0" r="2.5" fill="#ffffff90" stroke-width="0"></circle>
<circle cx="424.8" cy="330.0" r="22.0" fill="#4e79a7" stroke="#ffffff20" stroke-width="1.0"></circle>
<circle cx="424.8" cy="330.0" r="12.1" fill="#301518" stroke-width="0"></circle>
<text x="424.8" y="332.0" fill="#cc4455" font-size="7" text-anchor="middle" font-family="monospace" font-weight="bold">↓</text>
<text x="424.8" y="300.0" fill="#cccccc" font-size="8" text-anchor="middle" font-family="monospace" font-weight="bold">AR</text>
<text x="424.8" y="364.0" fill="#888" font-size="5.5" text-anchor="middle" font-family="monospace">AREV</text>
<circle cx="401.8" cy="330.0" r="2.5" fill="#ffffff60" stroke-width="0"></circle>
<circle cx="447.8" cy="330.0" r="2.5" fill="#ffffff90" stroke-width="0"></circle>
<polygon points="485.6,341.0 466.5,352.0 447.5,341.0 447.5,319.0 466.5,308.0 485.6,319.0" fill="#e15759" stroke="#ffffff20" stroke-width="1.0"></polygon>
<circle cx="466.5" cy="330.0" r="12.1" fill="#301518" stroke-width="0"></circle>
<text x="466.5" y="332.0" fill="#cc4455" font-size="7" text-anchor="middle" font-family="monospace" font-weight="bold">↓</text>
<text x="466.5" y="300.0" fill="#cccccc" font-size="8" text-anchor="middle" font-family="monospace" font-weight="bold">EF</text>
<text x="466.5" y="364.0" fill="#888" font-size="5.5" text-anchor="middle" font-family="monospace">EVALF</text>
<circle cx="443.5" cy="330.0" r="3.5" fill="#f28e2b" stroke-width="0.8"></circle>
<circle cx="489.5" cy="330.0" r="3.5" fill="#59a14f" stroke-width="0.9"></circle>
<polygon points="527.3,341.0 508.3,352.0 489.2,341.0 489.2,319.0 508.3,308.0 527.3,319.0" fill="#e15759" stroke="#ffffff20" stroke-width="1.0"></polygon>
<circle cx="508.3" cy="330.0" r="12.1" fill="#301518" stroke-width="0"></circle>
<text x="508.3" y="332.0" fill="#cc4455" font-size="7" text-anchor="middle" font-family="monospace" font-weight="bold">↓</text>
<text x="508.3" y="300.0" fill="#cccccc" font-size="8" text-anchor="middle" font-family="monospace" font-weight="bold">EG</text>
<text x="508.3" y="364.0" fill="#888" font-size="5.5" text-anchor="middle" font-family="monospace">ENGAGR</text>
<circle cx="485.3" cy="330.0" r="2.5" fill="#ffffff60" stroke-width="0"></circle>
<circle cx="531.3" cy="330.0" r="2.5" fill="#ffffff90" stroke-width="0"></circle>
<circle cx="550.0" cy="330.0" r="22.0" fill="#4e79a7" stroke="#ffffff20" stroke-width="1.0"></circle>
<text x="550.0" y="300.0" fill="#cccccc" font-size="8" text-anchor="middle" font-family="monospace" font-weight="bold">CL</text>
<text x="550.0" y="364.0" fill="#888" font-size="5.5" text-anchor="middle" font-family="monospace">CLINK</text>
<circle cx="527.0" cy="330.0" r="2.5" fill="#ffffff60" stroke-width="0"></circle>
<circle cx="573.0" cy="330.0" r="2.5" fill="#ffffff90" stroke-width="0"></circle>
<polygon points="591.7391304347825,308.0 613.7,330 591.7391304347825,352.0 569.7,330" fill="#ffd700" stroke="#ffffff20" stroke-width="1.0"></polygon>
<text x="591.7" y="300.0" fill="#cccccc" font-size="8" text-anchor="middle" font-family="monospace" font-weight="bold">FF</text>
<text x="591.7" y="364.0" fill="#888" font-size="5.5" text-anchor="middle" font-family="monospace">FFUSE</text>
<circle cx="568.7" cy="323.0" r="2.5" fill="#ffffff60" stroke-width="0"></circle>
<circle cx="568.7" cy="337.0" r="2.5" fill="#ffffff60" stroke-width="0"></circle>
<circle cx="614.7" cy="330.0" r="2.5" fill="#ffffff90" stroke-width="0"></circle>
<circle cx="633.5" cy="330.0" r="22.0" fill="#4e79a7" stroke="#ffffff20" stroke-width="1.0"></circle>
<circle cx="633.5" cy="330.0" r="12.1" fill="#153530" stroke-width="0"></circle>
<text x="633.5" y="332.0" fill="#20b2aa" font-size="7" text-anchor="middle" font-family="monospace" font-weight="bold">↑</text>
<text x="633.5" y="300.0" fill="#cccccc" font-size="8" text-anchor="middle" font-family="monospace" font-weight="bold">IM</text>
<text x="633.5" y="364.0" fill="#888" font-size="5.5" text-anchor="middle" font-family="monospace">IMSCRIB</text>
<circle cx="610.5" cy="330.0" r="2.5" fill="#ffffff60" stroke-width="0"></circle>
<circle cx="656.5" cy="330.0" r="2.5" fill="#ffffff90" stroke-width="0"></circle>
<rect x="653.2" y="308.0" width="44.0" height="44.0" fill="#59a14f" stroke="#ffffff20" stroke-width="1.0"></rect>
<circle cx="675.2" cy="330.0" r="12.1" fill="#153530" stroke-width="0"></circle>
<text x="675.2" y="332.0" fill="#20b2aa" font-size="7" text-anchor="middle" font-family="monospace" font-weight="bold">↑</text>
<text x="675.2" y="300.0" fill="#cccccc" font-size="8" text-anchor="middle" font-family="monospace" font-weight="bold">IX</text>
<text x="675.2" y="364.0" fill="#888" font-size="5.5" text-anchor="middle" font-family="monospace">IFIX</text>
<circle cx="652.2" cy="330.0" r="2.5" fill="#ffffff60" stroke-width="0"></circle>
<circle cx="698.2" cy="330.0" r="2.5" fill="#ffffff90" stroke-width="0"></circle>
<circle cx="717.0" cy="330.0" r="22.0" fill="#4e79a7" stroke="#ffffff20" stroke-width="1.0"></circle>
<circle cx="717.0" cy="330.0" r="12.1" fill="#153530" stroke-width="0"></circle>
<text x="717.0" y="332.0" fill="#20b2aa" font-size="7" text-anchor="middle" font-family="monospace" font-weight="bold">↑</text>
<text x="717.0" y="300.0" fill="#cccccc" font-size="8" text-anchor="middle" font-family="monospace" font-weight="bold">AF</text>
<text x="717.0" y="364.0" fill="#888" font-size="5.5" text-anchor="middle" font-family="monospace">AFWD</text>
<circle cx="694.0" cy="330.0" r="2.5" fill="#ffffff60" stroke-width="0"></circle>
<circle cx="740.0" cy="330.0" r="2.5" fill="#ffffff90" stroke-width="0"></circle>
<circle cx="758.7" cy="330.0" r="22.0" fill="#4e79a7" stroke="#ffffff20" stroke-width="1.0"></circle>
<circle cx="758.7" cy="330.0" r="12.1" fill="#153530" stroke-width="0"></circle>
<text x="758.7" y="332.0" fill="#20b2aa" font-size="7" text-anchor="middle" font-family="monospace" font-weight="bold">↑</text>
<text x="758.7" y="300.0" fill="#cccccc" font-size="8" text-anchor="middle" font-family="monospace" font-weight="bold">CL</text>
<text x="758.7" y="364.0" fill="#888" font-size="5.5" text-anchor="middle" font-family="monospace">CLINK</text>
<circle cx="735.7" cy="330.0" r="2.5" fill="#ffffff60" stroke-width="0"></circle>
<circle cx="781.7" cy="330.0" r="2.5" fill="#ffffff90" stroke-width="0"></circle>
<circle cx="800.4" cy="330.0" r="22.0" fill="#4e79a7" stroke="#ffffff20" stroke-width="1.0"></circle>
<circle cx="800.4" cy="330.0" r="12.1" fill="#153530" stroke-width="0"></circle>
<text x="800.4" y="332.0" fill="#20b2aa" font-size="7" text-anchor="middle" font-family="monospace" font-weight="bold">↑</text>
<text x="800.4" y="300.0" fill="#cccccc" font-size="8" text-anchor="middle" font-family="monospace" font-weight="bold">IM</text>
<text x="800.4" y="364.0" fill="#888" font-size="5.5" text-anchor="middle" font-family="monospace">IMSCRIB</text>
<circle cx="777.4" cy="330.0" r="2.5" fill="#ffffff60" stroke-width="0"></circle>
<circle cx="823.4" cy="330.0" r="2.5" fill="#ffffff90" stroke-width="0"></circle>
<polygon points="842.1739130434783,308.0 864.2,330 842.1739130434783,352.0 820.2,330" fill="#ffd700" stroke="#ffffff20" stroke-width="1.0"></polygon>
<circle cx="842.2" cy="330.0" r="12.1" fill="#153530" stroke-width="0"></circle>
<text x="842.2" y="332.0" fill="#20b2aa" font-size="7" text-anchor="middle" font-family="monospace" font-weight="bold">↑</text>
<text x="842.2" y="300.0" fill="#cccccc" font-size="8" text-anchor="middle" font-family="monospace" font-weight="bold">FS</text>
<text x="842.2" y="364.0" fill="#888" font-size="5.5" text-anchor="middle" font-family="monospace">FSPLIT</text>
<circle cx="819.2" cy="330.0" r="2.5" fill="#ffffff60" stroke-width="0"></circle>
<circle cx="865.2" cy="323.0" r="2.5" fill="#ffffff90" stroke-width="0"></circle>
<circle cx="865.2" cy="337.0" r="2.5" fill="#ffffff90" stroke-width="0"></circle>
<polygon points="896.0,201.0 877.0,212.0 857.9,201.0 857.9,179.0 877.0,168.0 896.0,179.0" fill="#e15759" stroke="#ffffff20" stroke-width="1.0"></polygon>
<circle cx="877.0" cy="190.0" r="12.1" fill="#153530" stroke-width="0"></circle>
<text x="877.0" y="192.0" fill="#20b2aa" font-size="7" text-anchor="middle" font-family="monospace" font-weight="bold">↑</text>
<text x="877.0" y="160.0" fill="#cccccc" font-size="8" text-anchor="middle" font-family="monospace" font-weight="bold">ET</text>
<text x="877.0" y="224.0" fill="#888" font-size="5.5" text-anchor="middle" font-family="monospace">EVALT</text>
<circle cx="854.0" cy="190.0" r="3.5" fill="#f28e2b" stroke-width="0.8"></circle>
<circle cx="900.0" cy="190.0" r="3.5" fill="#59a14f" stroke-width="0.9"></circle>
<polygon points="909.9,481.0 890.9,492.0 871.8,481.0 871.8,459.0 890.9,448.0 909.9,459.0" fill="#e15759" stroke="#ffffff20" stroke-width="1.0"></polygon>
<circle cx="890.9" cy="470.0" r="12.1" fill="#153530" stroke-width="0"></circle>
<text x="890.9" y="472.0" fill="#20b2aa" font-size="7" text-anchor="middle" font-family="monospace" font-weight="bold">↑</text>
<text x="890.9" y="440.0" fill="#cccccc" font-size="8" text-anchor="middle" font-family="monospace" font-weight="bold">EF</text>
<text x="890.9" y="504.0" fill="#888" font-size="5.5" text-anchor="middle" font-family="monospace">EVALF</text>
<circle cx="867.9" cy="470.0" r="3.5" fill="#f28e2b" stroke-width="0.8"></circle>
<circle cx="913.9" cy="470.0" r="3.5" fill="#59a14f" stroke-width="0.9"></circle>
<polygon points="925.6521739130435,308.0 947.7,330 925.6521739130435,352.0 903.7,330" fill="#ffd700" stroke="#ffffff20" stroke-width="1.0"></polygon>
<circle cx="925.7" cy="330.0" r="12.1" fill="#153530" stroke-width="0"></circle>
<text x="925.7" y="332.0" fill="#20b2aa" font-size="7" text-anchor="middle" font-family="monospace" font-weight="bold">↑</text>
<text x="925.7" y="300.0" fill="#cccccc" font-size="8" text-anchor="middle" font-family="monospace" font-weight="bold">FF</text>
<text x="925.7" y="364.0" fill="#888" font-size="5.5" text-anchor="middle" font-family="monospace">FFUSE</text>
<circle cx="902.7" cy="323.0" r="2.5" fill="#ffffff60" stroke-width="0"></circle>
<circle cx="902.7" cy="337.0" r="2.5" fill="#ffffff60" stroke-width="0"></circle>
<circle cx="948.7" cy="330.0" r="2.5" fill="#ffffff90" stroke-width="0"></circle>
<circle cx="967.4" cy="330.0" r="22.0" fill="#4e79a7" stroke="#ffffff20" stroke-width="1.0"></circle>
<circle cx="967.4" cy="330.0" r="12.1" fill="#153530" stroke-width="0"></circle>
<text x="967.4" y="332.0" fill="#20b2aa" font-size="7" text-anchor="middle" font-family="monospace" font-weight="bold">↑</text>
<text x="967.4" y="300.0" fill="#cccccc" font-size="8" text-anchor="middle" font-family="monospace" font-weight="bold">AR</text>
<text x="967.4" y="364.0" fill="#888" font-size="5.5" text-anchor="middle" font-family="monospace">AREV</text>
<circle cx="944.4" cy="330.0" r="2.5" fill="#ffffff60" stroke-width="0"></circle>
<circle cx="990.4" cy="330.0" r="2.5" fill="#ffffff90" stroke-width="0"></circle>
<rect x="987.1" y="308.0" width="44.0" height="44.0" fill="#59a14f" stroke="#ffffff20" stroke-width="1.0"></rect>
<circle cx="1009.1" cy="330.0" r="12.1" fill="#153530" stroke-width="0"></circle>
<text x="1009.1" y="332.0" fill="#20b2aa" font-size="7" text-anchor="middle" font-family="monospace" font-weight="bold">↑</text>
<text x="1009.1" y="300.0" fill="#cccccc" font-size="8" text-anchor="middle" font-family="monospace" font-weight="bold">IX</text>
<text x="1009.1" y="364.0" fill="#888" font-size="5.5" text-anchor="middle" font-family="monospace">IFIX</text>
<circle cx="986.1" cy="330.0" r="2.5" fill="#ffffff60" stroke-width="0"></circle>
<circle cx="1032.1" cy="330.0" r="2.5" fill="#ffffff90" stroke-width="0"></circle>
<path d="M1009.1,330.0 Q550.0,275.0 90.9,330.0" fill="none" stroke="#9988cc" stroke-width="1.5" opacity="0.5"></path>
<polygon points="90.9,330.0 82.5,327.0 83.4,334.9" fill="#9988cc" opacity="0.5"></polygon>
<text x="550.0" y="260.0" fill="#9988cc" font-size="8" text-anchor="middle" font-family="serif">O₂</text>
<text x="550.0" y="621.0" fill="#9988aa" font-size="7" text-anchor="middle" font-family="serif">Ouroboricity: O₂</text>
<text x="70.0" y="52.0" fill="#666" font-size="6" text-anchor="start" font-family="monospace" font-weight="bold">NODES</text>
<circle cx="110.0" cy="59.0" r="4.5" fill="#4e79a7" stroke-width="0"></circle>
<text x="120.0" y="62.0" fill="#4e79a7" font-size="5" text-anchor="start" font-family="monospace">LOGI</text>
<polygon points="158,54.5 162.5,59 158,63.5 153.5,59" fill="#ffd700" stroke="#ffffff20" stroke-width="1.0"></polygon>
<text x="168.0" y="62.0" fill="#ffd700" font-size="5" text-anchor="start" font-family="monospace">FROB</text>
<polygon points="209.9,61.2 206.0,63.5 202.1,61.2 202.1,56.8 206.0,54.5 209.9,56.8" fill="#e15759" stroke="#ffffff20" stroke-width="1.0"></polygon>
<text x="216.0" y="62.0" fill="#e15759" font-size="5" text-anchor="start" font-family="monospace">DIAL</text>
<rect x="249.5" y="54.5" width="9.0" height="9.0" fill="#59a14f" stroke="#ffffff20" stroke-width="1.0"></rect>
<text x="264.0" y="62.0" fill="#59a14f" font-size="5" text-anchor="start" font-family="monospace">LINE</text>
<text x="312.0" y="52.0" fill="#666" font-size="6" text-anchor="start" font-family="monospace" font-weight="bold">EDGES</text>
<line x1="350.0" y1="59.0" x2="364.0" y2="59.0" stroke="#59a14f" stroke-width="1.5" opacity="0.7"></line>
<text x="368.0" y="62.0" fill="#59a14f" font-size="5" text-anchor="start" font-family="monospace">AFWD</text>
<line x1="402.0" y1="59.0" x2="416.0" y2="59.0" stroke="#e15759" stroke-width="1.5" opacity="0.7"></line>
<text x="420.0" y="62.0" fill="#e15759" font-size="5" text-anchor="start" font-family="monospace">AREV</text>
<line x1="454.0" y1="59.0" x2="468.0" y2="59.0" stroke="#f28e2b" stroke-width="1.5" opacity="0.7"></line>
<text x="472.0" y="62.0" fill="#f28e2b" font-size="5" text-anchor="start" font-family="monospace">CLINK</text>
<line x1="506.0" y1="59.0" x2="520.0" y2="59.0" stroke="#b07aa1" stroke-width="1.5" opacity="0.7" stroke-dasharray="4,3"></line>
<text x="524.0" y="62.0" fill="#b07aa1" font-size="5" text-anchor="start" font-family="monospace">TANCH</text>
<line x1="558.0" y1="59.0" x2="572.0" y2="59.0" stroke="#ffd700" stroke-width="1.5" opacity="0.7"></line>
<text x="576.0" y="62.0" fill="#ffd700" font-size="5" text-anchor="start" font-family="monospace">IMSC</text>
<line x1="610.0" y1="59.0" x2="624.0" y2="59.0" stroke="#cc3344" stroke-width="1.5" opacity="0.7"></line>
<text x="628.0" y="62.0" fill="#cc3344" font-size="5" text-anchor="start" font-family="monospace">IFIX</text>
<text x="70.0" y="72.0" fill="#666" font-size="6" text-anchor="start" font-family="monospace" font-weight="bold">GUARD</text>
<circle cx="110.0" cy="79.0" r="3.0" fill="#f28e2b" stroke-width="0.8"></circle>
<text x="117.0" y="82.0" fill="#f28e2b" font-size="5" text-anchor="start" font-family="monospace">approach</text>
<circle cx="162.0" cy="79.0" r="3.0" fill="#59a14f" stroke-width="0.9"></circle>
<text x="169.0" y="82.0" fill="#59a14f" font-size="5" text-anchor="start" font-family="monospace">passed</text>
<text x="214.0" y="72.0" fill="#666" font-size="6" text-anchor="start" font-family="monospace" font-weight="bold">REG Δ</text>
<text x="252.0" y="82.0" fill="#20b888" font-size="5.5" text-anchor="start" font-family="monospace">→↑</text>
<text x="280.0" y="82.0" fill="#ffd700" font-size="5.5" text-anchor="start" font-family="monospace">↓→↑↓</text>
<text x="308.0" y="82.0" fill="#e15759" font-size="5.5" text-anchor="start" font-family="monospace">↑↔↓</text>
<line x1="344.0" y1="79.0" x2="358.0" y2="79.0" stroke="#ffd700" stroke-width="1.5" opacity="0.6" stroke-dasharray="5,3"></line>
<text x="362.0" y="82.0" fill="#ffd700" font-size="5.5" text-anchor="start" font-family="monospace">cross-br.</text>
<line x1="404.0" y1="79.0" x2="418.0" y2="79.0" stroke="#9988cc" stroke-width="1.5" opacity="0.5"></line>
<text x="422.0" y="82.0" fill="#9988cc" font-size="5.5" text-anchor="start" font-family="monospace">loop</text>
</svg>