<svg xmlns="http://www.w3.org/2000/svg" viewBox="0 0 1220 720">
<rect width="1220" height="720" fill="#000000"/>
<defs>
<pattern id="hatch-T" width="4" height="4" patternUnits="userSpaceOnUse"><path d="M2,0 L2,4" stroke="#ffffff" stroke-width="0.8"/></pattern>
<pattern id="hatch-F" width="4" height="4" patternUnits="userSpaceOnUse"><path d="M0,2 L4,2" stroke="#ffffff" stroke-width="0.8"/></pattern>
<pattern id="hatch-B" width="4" height="4" patternUnits="userSpaceOnUse"><path d="M2,0 L2,4 M0,2 L4,2" stroke="#ffffff" stroke-width="0.8"/></pattern>
</defs>
<line x1="0.0" y1="0.0" x2="0.0" y2="720.0" stroke="#333333" stroke-width="0.4" opacity="0.3"></line>
<line x1="40.0" y1="0.0" x2="40.0" y2="720.0" stroke="#333333" stroke-width="0.4" opacity="0.3"></line>
<line x1="80.0" y1="0.0" x2="80.0" y2="720.0" stroke="#333333" stroke-width="0.4" opacity="0.3"></line>
<line x1="120.0" y1="0.0" x2="120.0" y2="720.0" stroke="#333333" stroke-width="0.4" opacity="0.3"></line>
<line x1="160.0" y1="0.0" x2="160.0" y2="720.0" stroke="#333333" stroke-width="0.4" opacity="0.3"></line>
<line x1="200.0" y1="0.0" x2="200.0" y2="720.0" stroke="#333333" stroke-width="0.4" opacity="0.3"></line>
<line x1="240.0" y1="0.0" x2="240.0" y2="720.0" stroke="#333333" stroke-width="0.4" opacity="0.3"></line>
<line x1="280.0" y1="0.0" x2="280.0" y2="720.0" stroke="#333333" stroke-width="0.4" opacity="0.3"></line>
<line x1="320.0" y1="0.0" x2="320.0" y2="720.0" stroke="#333333" stroke-width="0.4" opacity="0.3"></line>
<line x1="360.0" y1="0.0" x2="360.0" y2="720.0" stroke="#333333" stroke-width="0.4" opacity="0.3"></line>
<line x1="400.0" y1="0.0" x2="400.0" y2="720.0" stroke="#333333" stroke-width="0.4" opacity="0.3"></line>
<line x1="440.0" y1="0.0" x2="440.0" y2="720.0" stroke="#333333" stroke-width="0.4" opacity="0.3"></line>
<line x1="480.0" y1="0.0" x2="480.0" y2="720.0" stroke="#333333" stroke-width="0.4" opacity="0.3"></line>
<line x1="520.0" y1="0.0" x2="520.0" y2="720.0" stroke="#333333" stroke-width="0.4" opacity="0.3"></line>
<line x1="560.0" y1="0.0" x2="560.0" y2="720.0" stroke="#333333" stroke-width="0.4" opacity="0.3"></line>
<line x1="600.0" y1="0.0" x2="600.0" y2="720.0" stroke="#333333" stroke-width="0.4" opacity="0.3"></line>
<line x1="640.0" y1="0.0" x2="640.0" y2="720.0" stroke="#333333" stroke-width="0.4" opacity="0.3"></line>
<line x1="680.0" y1="0.0" x2="680.0" y2="720.0" stroke="#333333" stroke-width="0.4" opacity="0.3"></line>
<line x1="720.0" y1="0.0" x2="720.0" y2="720.0" stroke="#333333" stroke-width="0.4" opacity="0.3"></line>
<line x1="760.0" y1="0.0" x2="760.0" y2="720.0" stroke="#333333" stroke-width="0.4" opacity="0.3"></line>
<line x1="800.0" y1="0.0" x2="800.0" y2="720.0" stroke="#333333" stroke-width="0.4" opacity="0.3"></line>
<line x1="840.0" y1="0.0" x2="840.0" y2="720.0" stroke="#333333" stroke-width="0.4" opacity="0.3"></line>
<line x1="880.0" y1="0.0" x2="880.0" y2="720.0" stroke="#333333" stroke-width="0.4" opacity="0.3"></line>
<line x1="920.0" y1="0.0" x2="920.0" y2="720.0" stroke="#333333" stroke-width="0.4" opacity="0.3"></line>
<line x1="960.0" y1="0.0" x2="960.0" y2="720.0" stroke="#333333" stroke-width="0.4" opacity="0.3"></line>
<line x1="1000.0" y1="0.0" x2="1000.0" y2="720.0" stroke="#333333" stroke-width="0.4" opacity="0.3"></line>
<line x1="1040.0" y1="0.0" x2="1040.0" y2="720.0" stroke="#333333" stroke-width="0.4" opacity="0.3"></line>
<line x1="1080.0" y1="0.0" x2="1080.0" y2="720.0" stroke="#333333" stroke-width="0.4" opacity="0.3"></line>
<line x1="1120.0" y1="0.0" x2="1120.0" y2="720.0" stroke="#333333" stroke-width="0.4" opacity="0.3"></line>
<line x1="1160.0" y1="0.0" x2="1160.0" y2="720.0" stroke="#333333" stroke-width="0.4" opacity="0.3"></line>
<line x1="1200.0" y1="0.0" x2="1200.0" y2="720.0" stroke="#333333" stroke-width="0.4" opacity="0.3"></line>
<line x1="0.0" y1="0.0" x2="1220.0" y2="0.0" stroke="#333333" stroke-width="0.4" opacity="0.3"></line>
<line x1="0.0" y1="40.0" x2="1220.0" y2="40.0" stroke="#333333" stroke-width="0.4" opacity="0.3"></line>
<line x1="0.0" y1="80.0" x2="1220.0" y2="80.0" stroke="#333333" stroke-width="0.4" opacity="0.3"></line>
<line x1="0.0" y1="120.0" x2="1220.0" y2="120.0" stroke="#333333" stroke-width="0.4" opacity="0.3"></line>
<line x1="0.0" y1="160.0" x2="1220.0" y2="160.0" stroke="#333333" stroke-width="0.4" opacity="0.3"></line>
<line x1="0.0" y1="200.0" x2="1220.0" y2="200.0" stroke="#333333" stroke-width="0.4" opacity="0.3"></line>
<line x1="0.0" y1="240.0" x2="1220.0" y2="240.0" stroke="#333333" stroke-width="0.4" opacity="0.3"></line>
<line x1="0.0" y1="280.0" x2="1220.0" y2="280.0" stroke="#333333" stroke-width="0.4" opacity="0.3"></line>
<line x1="0.0" y1="320.0" x2="1220.0" y2="320.0" stroke="#333333" stroke-width="0.4" opacity="0.3"></line>
<line x1="0.0" y1="360.0" x2="1220.0" y2="360.0" stroke="#333333" stroke-width="0.4" opacity="0.3"></line>
<line x1="0.0" y1="400.0" x2="1220.0" y2="400.0" stroke="#333333" stroke-width="0.4" opacity="0.3"></line>
<line x1="0.0" y1="440.0" x2="1220.0" y2="440.0" stroke="#333333" stroke-width="0.4" opacity="0.3"></line>
<line x1="0.0" y1="480.0" x2="1220.0" y2="480.0" stroke="#333333" stroke-width="0.4" opacity="0.3"></line>
<line x1="0.0" y1="520.0" x2="1220.0" y2="520.0" stroke="#333333" stroke-width="0.4" opacity="0.3"></line>
<line x1="0.0" y1="560.0" x2="1220.0" y2="560.0" stroke="#333333" stroke-width="0.4" opacity="0.3"></line>
<line x1="0.0" y1="600.0" x2="1220.0" y2="600.0" stroke="#333333" stroke-width="0.4" opacity="0.3"></line>
<line x1="0.0" y1="640.0" x2="1220.0" y2="640.0" stroke="#333333" stroke-width="0.4" opacity="0.3"></line>
<line x1="0.0" y1="680.0" x2="1220.0" y2="680.0" stroke="#333333" stroke-width="0.4" opacity="0.3"></line>
<text x="610.0" y="26.0" fill="#ffffff" font-size="13" text-anchor="middle" font-family="monospace" font-weight="bold">Fel d 1 DARPin therapeutic protein — des</text>
<text x="610.0" y="58.0" fill="#ffffff" font-size="10" text-anchor="middle" font-family="monospace" font-weight="bold">IMASM Word: ⊢&gt;∈+&lt;=⊙∋¬⊣</text>
<text x="66.0" y="190.0" fill="#ffffff" font-size="7" text-anchor="start" font-family="monospace">T-lane</text>
<text x="66.0" y="135.0" fill="#ffffff" font-size="7" text-anchor="start" font-family="monospace">T[d1]</text>
<text x="66.0" y="470.0" fill="#ffffff" font-size="7" text-anchor="start" font-family="monospace">F-lane</text>
<text x="66.0" y="525.0" fill="#ffffff" font-size="7" text-anchor="start" font-family="monospace">F[d1]</text>
<text x="66.0" y="330.0" fill="#ffffff" font-size="7" text-anchor="start" font-family="monospace">main</text>
<text x="66.0" y="258.0" fill="#ffffff" font-size="6" text-anchor="start" font-family="monospace">I-lane</text>
<text x="140.0" y="258.0" fill="#ffffff" font-size="4" text-anchor="start" font-family="monospace">≤_i (information: x⊆y)</text>
<line x1="66.0" y1="274.0" x2="1200.0" y2="274.0" stroke="#ffffff" stroke-width="0.6" opacity="0.5"></line>
<text x="66.0" y="398.0" fill="#ffffff" font-size="6" text-anchor="start" font-family="monospace">C-lane</text>
<text x="140.0" y="398.0" fill="#ffffff" font-size="4" text-anchor="start" font-family="monospace">≤_c (constructivity: T,F↑ t,f↓)</text>
<line x1="66.0" y1="414.0" x2="1200.0" y2="414.0" stroke="#ffffff" stroke-width="0.6" opacity="0.5"></line>
<text x="118.0" y="270.0" fill="#ffffff" font-size="4.5" text-anchor="middle" font-family="monospace">N</text>
<text x="118.0" y="410.0" fill="#ffffff" font-size="4.5" text-anchor="middle" font-family="monospace">·|·</text>
<text x="214.0" y="270.0" fill="#ffffff" font-size="4.5" text-anchor="middle" font-family="monospace">N</text>
<text x="214.0" y="410.0" fill="#ffffff" font-size="4.5" text-anchor="middle" font-family="monospace">·|·</text>
<text x="310.0" y="270.0" fill="#ffffff" font-size="4.5" text-anchor="middle" font-family="monospace">T</text>
<text x="310.0" y="410.0" fill="#ffffff" font-size="4.5" text-anchor="middle" font-family="monospace">T|·</text>
<text x="406.0" y="270.0" fill="#ffffff" font-size="4.5" text-anchor="middle" font-family="monospace">T</text>
<text x="406.0" y="410.0" fill="#ffffff" font-size="4.5" text-anchor="middle" font-family="monospace">T|·</text>
<text x="502.0" y="270.0" fill="#ffffff" font-size="4.5" text-anchor="middle" font-family="monospace">T</text>
<text x="502.0" y="410.0" fill="#ffffff" font-size="4.5" text-anchor="middle" font-family="monospace">T|·</text>
<text x="598.0" y="270.0" fill="#ffffff" font-size="4.5" text-anchor="middle" font-family="monospace">N</text>
<text x="598.0" y="410.0" fill="#ffffff" font-size="4.5" text-anchor="middle" font-family="monospace">·|·</text>
<text x="694.0" y="270.0" fill="#ffffff" font-size="4.5" text-anchor="middle" font-family="monospace">N</text>
<text x="694.0" y="410.0" fill="#ffffff" font-size="4.5" text-anchor="middle" font-family="monospace">·|·</text>
<text x="790.0" y="270.0" fill="#ffffff" font-size="4.5" text-anchor="middle" font-family="monospace">T</text>
<text x="790.0" y="410.0" fill="#ffffff" font-size="4.5" text-anchor="middle" font-family="monospace">T|·</text>
<text x="886.0" y="270.0" fill="#ffffff" font-size="4.5" text-anchor="middle" font-family="monospace">T</text>
<text x="886.0" y="410.0" fill="#ffffff" font-size="4.5" text-anchor="middle" font-family="monospace">T|·</text>
<text x="982.0" y="270.0" fill="#ffffff" font-size="4.5" text-anchor="middle" font-family="monospace">T</text>
<text x="982.0" y="410.0" fill="#ffffff" font-size="4.5" text-anchor="middle" font-family="monospace">T|·</text>
<line x1="979.5" y1="105.0" x2="979.5" y2="555.0" stroke="#ffffff" stroke-width="1.0" opacity="1.0" stroke-dasharray="4,3"></line>
<line x1="984.5" y1="105.0" x2="984.5" y2="555.0" stroke="#ffffff" stroke-width="1.0" opacity="1.0" stroke-dasharray="4,3"></line>
<text x="982.0" y="105.0" fill="#ffffff" font-size="8" text-anchor="middle" font-family="monospace">×</text>
<text x="982.0" y="555.0" fill="#ffffff" font-size="8" text-anchor="middle" font-family="monospace">×</text>
<text x="982.0" y="98.0" fill="#ffffff" font-size="6" text-anchor="middle" font-family="monospace">IFIX</text>
<line x1="310.0" y1="310.0" x2="310.0" y2="292.0" stroke="#ffffff" stroke-width="0.6" opacity="0.8" stroke-dasharray="3,3"></line>
<line x1="310.0" y1="292.0" x2="790.0" y2="292.0" stroke="#ffffff" stroke-width="0.6" opacity="0.8" stroke-dasharray="3,3"></line>
<line x1="790.0" y1="292.0" x2="790.0" y2="310.0" stroke="#ffffff" stroke-width="0.6" opacity="0.8" stroke-dasharray="3,3"></line>
<circle cx="550.0" cy="292.0" r="6" fill="#000000" stroke="#ffffff" stroke-width="0.8"></circle>
<text x="550.0" y="295.0" fill="#ffffff" font-size="7" text-anchor="middle" font-family="monospace">1</text>
<line x1="320.6" y1="308.5" x2="391.9" y2="163.7" stroke="#ffffff" stroke-width="1.5" opacity="1.0"></line>
<polygon points="395.4,156.5 394.7,165.1 389.0,162.3" fill="#ffffff"></polygon>
<circle cx="356.2" cy="236.1" r="5" fill="#000000" stroke="#ffffff" stroke-width="0.6"></circle>
<text x="356.2" y="239.1" fill="#ffffff" font-size="7" text-anchor="middle" font-family="monospace">◇</text>
<text x="356.2" y="228.1" fill="#ffffff" font-size="6" text-anchor="middle" font-family="monospace">↑→↑</text>
<line x1="427.4" y1="145.9" x2="761.5" y2="315.5" stroke="#ffffff" stroke-width="1.5" opacity="1.0"></line>
<polygon points="768.6,319.1 760.0,318.4 762.9,312.7" fill="#ffffff"></polygon>
<circle cx="594.4" cy="230.7" r="5" fill="#000000" stroke="#ffffff" stroke-width="0.6"></circle>
<text x="594.4" y="233.7" fill="#ffffff" font-size="7" text-anchor="middle" font-family="monospace">+</text>
<text x="594.4" y="222.7" fill="#ffffff" font-size="6" text-anchor="middle" font-family="monospace">↑→↑</text>
<line x1="326.8" y1="347.1" x2="479.5" y2="502.2" stroke="#ffffff" stroke-width="1.5" opacity="1.0"></line>
<polygon points="485.2,507.9 477.3,504.4 481.8,500.0" fill="#ffffff"></polygon>
<circle cx="403.2" cy="424.6" r="5" fill="#000000" stroke="#ffffff" stroke-width="0.6"></circle>
<text x="403.2" y="427.6" fill="#ffffff" font-size="7" text-anchor="middle" font-family="monospace">◇</text>
<text x="403.2" y="416.6" fill="#ffffff" font-size="6" text-anchor="middle" font-family="monospace">↑→↑↓</text>
<line x1="526.0" y1="525.0" x2="566.0" y2="525.0" stroke="#ffffff" stroke-width="1.5" opacity="1.0" stroke-dasharray="6,4"></line>
<polygon points="574.0,525.0 566.0,528.2 566.0,521.8" fill="#ffffff"></polygon>
<text x="546.0" y="517.0" fill="#ffffff" font-size="6" text-anchor="middle" font-family="monospace">↑↓→↑↓</text>
<line x1="622.0" y1="523.4" x2="662.0" y2="523.4" stroke="#ffffff" stroke-width="1.5" opacity="1.0"></line>
<line x1="622.0" y1="526.6" x2="662.0" y2="526.6" stroke="#ffffff" stroke-width="1.5" opacity="1.0"></line>
<polygon points="670.0,525.0 662.0,528.2 662.0,521.8" fill="#ffffff"></polygon>
<text x="642.0" y="517.0" fill="#ffffff" font-size="6" text-anchor="middle" font-family="monospace">↑↓→↑↓</text>
<line x1="708.1" y1="496.3" x2="779.4" y2="351.5" stroke="#ffffff" stroke-width="1.5" opacity="1.0"></line>
<polygon points="704.6,503.5 705.3,494.9 711.0,497.7" fill="#ffffff"></polygon>
<circle cx="743.8" cy="423.9" r="5" fill="#000000" stroke="#ffffff" stroke-width="0.6"></circle>
<text x="743.8" y="426.9" fill="#ffffff" font-size="7" text-anchor="middle" font-family="monospace">←</text>
<text x="743.8" y="415.9" fill="#ffffff" font-size="6" text-anchor="middle" font-family="monospace">↑↓→↑</text>
<line x1="142.0" y1="330.0" x2="182.0" y2="330.0" stroke="#ffffff" stroke-width="2.0" opacity="1.0"></line>
<polyline points="190.0,330.0 182.0,333.2 182.0,326.8" fill="none" stroke="#ffffff" stroke-width="1.0"></polyline>
<text x="162.0" y="322.0" fill="#ffffff" font-size="6" text-anchor="middle" font-family="monospace">↑</text>
<line x1="238.0" y1="330.0" x2="278.0" y2="330.0" stroke="#ffffff" stroke-width="2.5" opacity="1.0"></line>
<polygon points="286.0,330.0 278.0,333.2 278.0,326.8" fill="#ffffff"></polygon>
<text x="258.0" y="322.0" fill="#ffffff" font-size="6" text-anchor="middle" font-family="monospace">↑→↑</text>
<line x1="910.0" y1="330.0" x2="950.0" y2="330.0" stroke="#ffffff" stroke-width="2.0" opacity="1.0" stroke-dasharray="5,2,1,2,1,2"></line>
<polyline points="958.0,330.0 950.0,333.2 950.0,326.8" fill="none" stroke="#ffffff" stroke-width="1.0"></polyline>
<text x="930.0" y="322.0" fill="#ffffff" font-size="6" text-anchor="middle" font-family="monospace">↑→↑</text>
<line x1="814.0" y1="330.0" x2="854.0" y2="330.0" stroke="#ffffff" stroke-width="1.5" opacity="1.0"></line>
<polygon points="862.0,330.0 854.0,333.2 854.0,326.8" fill="#ffffff"></polygon>
<circle cx="834.0" cy="330.0" r="5" fill="#000000" stroke="#ffffff" stroke-width="0.6"></circle>
<text x="834.0" y="333.0" fill="#ffffff" font-size="7" text-anchor="middle" font-family="monospace">●</text>
<text x="834.0" y="322.0" fill="#ffffff" font-size="6" text-anchor="middle" font-family="monospace">↑→↑</text>
<circle fill="none" stroke="#ffffff" stroke-width="1.3" cx="118.0" cy="330.0" r="20.0"></circle>
<circle cx="94.0" cy="330.0" r="2.5" fill="#000000" stroke="#ffffff" stroke-width="0.8"></circle>
<circle cx="142.0" cy="330.0" r="2.5" fill="#ffffff"></circle>
<text x="118.0" y="304.0" fill="#ffffff" font-size="9" text-anchor="middle" font-family="monospace" font-weight="bold">VI</text>
<text x="118.0" y="362.0" fill="#ffffff" font-size="5" text-anchor="middle" font-family="monospace">VINIT</text>
<circle fill="none" stroke="#ffffff" stroke-width="1.3" cx="214.0" cy="330.0" r="20.0"></circle>
<circle cx="214.0" cy="330.0" r="8" fill="url(#hatch-T)" stroke="#ffffff" stroke-width="0.6"></circle>
<circle cx="190.0" cy="330.0" r="2.5" fill="#000000" stroke="#ffffff" stroke-width="0.8"></circle>
<circle cx="238.0" cy="330.0" r="2.5" fill="#ffffff"></circle>
<text x="214.0" y="304.0" fill="#ffffff" font-size="9" text-anchor="middle" font-family="monospace" font-weight="bold">AF</text>
<text x="214.0" y="362.0" fill="#ffffff" font-size="5" text-anchor="middle" font-family="monospace">AFWD</text>
<polygon fill="none" stroke="#ffffff" stroke-width="1.3" points="310.0,310.0 330.0,330 310.0,350.0 290.0,330"></polygon>
<circle cx="310.0" cy="330.0" r="8" fill="url(#hatch-T)" stroke="#ffffff" stroke-width="0.6"></circle>
<circle cx="286.0" cy="330.0" r="2.5" fill="#000000" stroke="#ffffff" stroke-width="0.8"></circle>
<circle cx="334.0" cy="330.0" r="2.5" fill="#ffffff"></circle>
<text x="310.0" y="304.0" fill="#ffffff" font-size="9" text-anchor="middle" font-family="monospace" font-weight="bold">FS</text>
<text x="310.0" y="362.0" fill="#ffffff" font-size="5" text-anchor="middle" font-family="monospace">FSPLIT</text>
<polygon fill="none" stroke="#ffffff" stroke-width="1.3" points="423.3,145.0 406.0,155.0 388.7,145.0 388.7,125.0 406.0,115.0 423.3,125.0"></polygon>
<circle cx="406.0" cy="135.0" r="8" fill="url(#hatch-T)" stroke="#ffffff" stroke-width="0.6"></circle>
<circle cx="382.0" cy="135.0" r="2.5" fill="#000000" stroke="#ffffff" stroke-width="0.8"></circle>
<circle cx="430.0" cy="135.0" r="2.5" fill="#ffffff"></circle>
<text x="406.0" y="109.0" fill="#ffffff" font-size="9" text-anchor="middle" font-family="monospace" font-weight="bold">ET</text>
<text x="406.0" y="167.0" fill="#ffffff" font-size="5" text-anchor="middle" font-family="monospace">EVALT</text>
<circle fill="none" stroke="#ffffff" stroke-width="1.3" cx="502.0" cy="525.0" r="20.0"></circle>
<circle cx="502.0" cy="525.0" r="8" fill="url(#hatch-B)" stroke="#ffffff" stroke-width="0.6"></circle>
<circle cx="478.0" cy="525.0" r="2.5" fill="#000000" stroke="#ffffff" stroke-width="0.8"></circle>
<circle cx="526.0" cy="525.0" r="2.5" fill="#ffffff"></circle>
<text x="502.0" y="499.0" fill="#ffffff" font-size="9" text-anchor="middle" font-family="monospace" font-weight="bold">AR</text>
<text x="502.0" y="557.0" fill="#ffffff" font-size="5" text-anchor="middle" font-family="monospace">AREV</text>
<circle fill="none" stroke="#ffffff" stroke-width="1.3" cx="598.0" cy="525.0" r="20.0"></circle>
<circle cx="598.0" cy="525.0" r="8" fill="url(#hatch-B)" stroke="#ffffff" stroke-width="0.6"></circle>
<circle cx="574.0" cy="525.0" r="2.5" fill="#000000" stroke="#ffffff" stroke-width="0.8"></circle>
<circle cx="622.0" cy="525.0" r="2.5" fill="#ffffff"></circle>
<text x="598.0" y="499.0" fill="#ffffff" font-size="9" text-anchor="middle" font-family="monospace" font-weight="bold">CL</text>
<text x="598.0" y="557.0" fill="#ffffff" font-size="5" text-anchor="middle" font-family="monospace">CLINK</text>
<circle fill="none" stroke="#ffffff" stroke-width="1.3" cx="694.0" cy="525.0" r="20.0"></circle>
<circle cx="694.0" cy="525.0" r="8" fill="url(#hatch-B)" stroke="#ffffff" stroke-width="0.6"></circle>
<circle cx="670.0" cy="525.0" r="2.5" fill="#000000" stroke="#ffffff" stroke-width="0.8"></circle>
<circle cx="718.0" cy="525.0" r="2.5" fill="#ffffff"></circle>
<text x="694.0" y="499.0" fill="#ffffff" font-size="9" text-anchor="middle" font-family="monospace" font-weight="bold">IM</text>
<text x="694.0" y="557.0" fill="#ffffff" font-size="5" text-anchor="middle" font-family="monospace">IMSCRIB</text>
<polygon fill="none" stroke="#ffffff" stroke-width="1.3" points="790.0,310.0 810.0,330 790.0,350.0 770.0,330"></polygon>
<circle cx="790.0" cy="330.0" r="8" fill="url(#hatch-T)" stroke="#ffffff" stroke-width="0.6"></circle>
<circle cx="766.0" cy="330.0" r="2.5" fill="#000000" stroke="#ffffff" stroke-width="0.8"></circle>
<circle cx="814.0" cy="330.0" r="2.5" fill="#ffffff"></circle>
<text x="790.0" y="304.0" fill="#ffffff" font-size="9" text-anchor="middle" font-family="monospace" font-weight="bold">FF</text>
<text x="790.0" y="362.0" fill="#ffffff" font-size="5" text-anchor="middle" font-family="monospace">FFUSE</text>
<circle fill="none" stroke="#ffffff" stroke-width="1.3" cx="886.0" cy="330.0" r="20.0"></circle>
<circle cx="886.0" cy="330.0" r="8" fill="url(#hatch-T)" stroke="#ffffff" stroke-width="0.6"></circle>
<circle cx="862.0" cy="330.0" r="2.5" fill="#000000" stroke="#ffffff" stroke-width="0.8"></circle>
<circle cx="910.0" cy="330.0" r="2.5" fill="#ffffff"></circle>
<text x="886.0" y="304.0" fill="#ffffff" font-size="9" text-anchor="middle" font-family="monospace" font-weight="bold">TA</text>
<text x="886.0" y="362.0" fill="#ffffff" font-size="5" text-anchor="middle" font-family="monospace">TANCH</text>
<rect fill="none" stroke="#ffffff" stroke-width="1.3" x="962.0" y="310.0" width="40.0" height="40.0"></rect>
<circle cx="982.0" cy="330.0" r="8" fill="url(#hatch-T)" stroke="#ffffff" stroke-width="0.6"></circle>
<circle cx="958.0" cy="330.0" r="2.5" fill="#000000" stroke="#ffffff" stroke-width="0.8"></circle>
<circle cx="1006.0" cy="330.0" r="2.5" fill="#ffffff"></circle>
<text x="982.0" y="304.0" fill="#ffffff" font-size="9" text-anchor="middle" font-family="monospace" font-weight="bold">IX</text>
<text x="982.0" y="362.0" fill="#ffffff" font-size="5" text-anchor="middle" font-family="monospace">IFIX</text>
<text x="14.0" y="72.0" fill="#ffffff" font-size="6" text-anchor="start" font-family="monospace" font-weight="bold">EDGES</text>
<line x1="14.0" y1="82.0" x2="36.0" y2="82.0" stroke="#ffffff" stroke-width="1.5" opacity="0.7"></line>
<text x="42.0" y="84.0" fill="#ffffff" font-size="5" text-anchor="start" font-family="monospace">VI</text>
<line x1="14.0" y1="91.5" x2="36.0" y2="91.5" stroke="#ffffff" stroke-width="1.5" opacity="0.7" stroke-dasharray="5,2,1,2,1,2"></line>
<text x="42.0" y="93.5" fill="#ffffff" font-size="5" text-anchor="start" font-family="monospace">TA</text>
<line x1="14.0" y1="101.0" x2="36.0" y2="101.0" stroke="#ffffff" stroke-width="2.0" opacity="0.7"></line>
<text x="42.0" y="103.0" fill="#ffffff" font-size="5" text-anchor="start" font-family="monospace">AF</text>
<line x1="14.0" y1="110.5" x2="36.0" y2="110.5" stroke="#ffffff" stroke-width="1.5" opacity="0.7" stroke-dasharray="6,4"></line>
<text x="42.0" y="112.5" fill="#ffffff" font-size="5" text-anchor="start" font-family="monospace">AR</text>
<line x1="14.0" y1="119.0" x2="36.0" y2="119.0" stroke="#ffffff" stroke-width="1.0" opacity="0.7"></line>
<line x1="14.0" y1="121.0" x2="36.0" y2="121.0" stroke="#ffffff" stroke-width="1.0" opacity="0.7"></line>
<text x="42.0" y="122.0" fill="#ffffff" font-size="5" text-anchor="start" font-family="monospace">CL</text>
<line x1="14.0" y1="129.5" x2="36.0" y2="129.5" stroke="#ffffff" stroke-width="1.5" opacity="0.7"></line>
<text x="42.0" y="131.5" fill="#ffffff" font-size="5" text-anchor="start" font-family="monospace">IM</text>
<line x1="14.0" y1="139.0" x2="36.0" y2="139.0" stroke="#ffffff" stroke-width="1.5" opacity="0.7"></line>
<text x="42.0" y="141.0" fill="#ffffff" font-size="5" text-anchor="start" font-family="monospace">FS</text>
<line x1="14.0" y1="148.5" x2="36.0" y2="148.5" stroke="#ffffff" stroke-width="1.5" opacity="0.7"></line>
<text x="42.0" y="150.5" fill="#ffffff" font-size="5" text-anchor="start" font-family="monospace">FF</text>
<line x1="14.0" y1="158.0" x2="36.0" y2="158.0" stroke="#ffffff" stroke-width="1.5" opacity="0.7"></line>
<text x="42.0" y="160.0" fill="#ffffff" font-size="5" text-anchor="start" font-family="monospace">ET</text>
<line x1="14.0" y1="167.5" x2="36.0" y2="167.5" stroke="#ffffff" stroke-width="1.5" opacity="0.7"></line>
<text x="42.0" y="169.5" fill="#ffffff" font-size="5" text-anchor="start" font-family="monospace">EF</text>
<polyline points="14.0,179.0 18.0,175.0 22.0,179.0 26.0,175.0 30.0,179.0 34.0,175.0 36.0,177.0" fill="none" stroke="#ffffff" stroke-width="1.0"></polyline>
<text x="42.0" y="179.0" fill="#ffffff" font-size="5" text-anchor="start" font-family="monospace">EG</text>
<line x1="14.0" y1="186.5" x2="36.0" y2="186.5" stroke="#ffffff" stroke-width="1.5" opacity="0.7" stroke-dasharray="2,2"></line>
<text x="42.0" y="188.5" fill="#ffffff" font-size="5" text-anchor="start" font-family="monospace">IX</text>
<text x="14.0" y="195.0" fill="#ffffff" font-size="6" text-anchor="start" font-family="monospace" font-weight="bold">GUARD</text>
<circle cx="17" cy="206" r="2.5" fill="#000000" stroke="#ffffff" stroke-width="0.8"></circle>
<text x="24.0" y="208.0" fill="#ffffff" font-size="5" text-anchor="start" font-family="monospace">in</text>
<circle cx="17" cy="216" r="2.5" fill="#ffffff"></circle>
<text x="24.0" y="218.0" fill="#ffffff" font-size="5" text-anchor="start" font-family="monospace">out</text>
<text x="14.0" y="231.0" fill="#ffffff" font-size="6" text-anchor="start" font-family="monospace" font-weight="bold">NODES</text>
<circle fill="none" stroke="#ffffff" stroke-width="1.0" cx="18.0" cy="246.0" r="4.0"></circle>
<text x="28.0" y="248.0" fill="#ffffff" font-size="5" text-anchor="start" font-family="monospace">LOGI</text>
<polygon fill="none" stroke="#ffffff" stroke-width="1.0" points="18,254.0 22.0,258 18,262.0 14.0,258"></polygon>
<text x="28.0" y="260.0" fill="#ffffff" font-size="5" text-anchor="start" font-family="monospace">FROB</text>
<polygon fill="none" stroke="#ffffff" stroke-width="1.0" points="21.5,272.0 18.0,274.0 14.5,272.0 14.5,268.0 18.0,266.0 21.5,268.0"></polygon>
<text x="28.0" y="272.0" fill="#ffffff" font-size="5" text-anchor="start" font-family="monospace">DIAL</text>
<rect fill="none" stroke="#ffffff" stroke-width="1.0" x="14.0" y="278.0" width="8.0" height="8.0"></rect>
<text x="28.0" y="284.0" fill="#ffffff" font-size="5" text-anchor="start" font-family="monospace">LINE</text>
<text x="14.0" y="294.0" fill="#ffffff" font-size="6" text-anchor="start" font-family="monospace" font-weight="bold">PAIRS</text>
<circle cx="18" cy="306" r="5" fill="#000000" stroke="#ffffff" stroke-width="0.8"></circle>
<text x="18.0" y="309.0" fill="#ffffff" font-size="6" text-anchor="middle" font-family="monospace">1</text>
<text x="28.0" y="308.0" fill="#ffffff" font-size="5" text-anchor="start" font-family="monospace">pair</text>
<text x="14.0" y="324.0" fill="#ffffff" font-size="6" text-anchor="start" font-family="monospace" font-weight="bold">REG Δ</text>
<text x="14.0" y="336.0" fill="#ffffff" font-size="5" text-anchor="start" font-family="monospace">↑ T</text>
<text x="14.0" y="345.0" fill="#ffffff" font-size="5" text-anchor="start" font-family="monospace">↓ F</text>
<text x="14.0" y="354.0" fill="#ffffff" font-size="5" text-anchor="start" font-family="monospace">↑↓ B</text>
<text x="14.0" y="380.0" fill="#ffffff" font-size="6" text-anchor="start" font-family="monospace" font-weight="bold">SIXTEEN_3 LANES</text>
<text x="14.0" y="390.0" fill="#ffffff" font-size="5" text-anchor="start" font-family="monospace">I-lane: reg. names</text>
<text x="14.0" y="400.0" fill="#ffffff" font-size="4.5" text-anchor="start" font-family="monospace">  ≤_i (info: x⊆y)</text>
<text x="14.0" y="413.0" fill="#ffffff" font-size="5" text-anchor="start" font-family="monospace">C-lane: c|n splits</text>
<text x="14.0" y="423.0" fill="#ffffff" font-size="4.5" text-anchor="start" font-family="monospace">  ≤_c (constr.)</text>
<text x="14.0" y="436.0" fill="#ffffff" font-size="5" text-anchor="start" font-family="monospace">T,F lanes: ≤_t arms</text>
<text x="14.0" y="448.0" fill="#ffffff" font-size="6" text-anchor="start" font-family="monospace" font-weight="bold">16₃ REG KEY</text>
<text x="14.0" y="458.0" fill="#ffffff" font-size="4.5" text-anchor="start" font-family="monospace">T=proven F=refuted</text>
<text x="14.0" y="465.0" fill="#ffffff" font-size="4.5" text-anchor="start" font-family="monospace">t=accept. f=reject.</text>
<text x="14.0" y="472.0" fill="#ffffff" font-size="4.5" text-anchor="start" font-family="monospace">N=∅ A=full(TtFf)</text>
<path d="M 713.9,511.5 L 713.9,10.0 L 962.1,10.0 L 962.1,351.5" fill="none" stroke="#ffffff" stroke-width="1.2"></path>
<polygon points="962.1,343.5 958.9,335.5 965.3,335.5" fill="#ffffff"></polygon>
<rect x="880.0" y="625.0" width="320.0" height="80.0" fill="#000000" stroke="#ffffff" stroke-width="0.5" opacity="0.9"></rect>
<text x="886.0" y="635.0" fill="#ffffff" font-size="6" text-anchor="start" font-family="monospace" font-weight="bold">SIXTEEN₃ TRILATTICE</text>
<text x="886.0" y="647.0" fill="#ffffff" font-size="4.5" text-anchor="start" font-family="monospace">16₃ reg: N → N → T → T → T → N → N → T → T → T</text>
<text x="886.0" y="659.0" fill="#ffffff" font-size="4.5" text-anchor="start" font-family="monospace">Verdict: T  —  Tri-ancestral reconnection over a transformed obje</text>
<text x="886.0" y="671.0" fill="#ffffff" font-size="4.5" text-anchor="start" font-family="monospace">Word: ⊢&gt;∈+&lt;=⊙∋¬⊣</text>
<text x="886.0" y="683.0" fill="#ffffff" font-size="4.5" text-anchor="start" font-family="monospace">Walk: OPEN</text>
<text x="1040.0" y="647.0" fill="#ffffff" font-size="4" text-anchor="start" font-family="monospace">I-lane: ≤_i register trace</text>
<text x="1040.0" y="659.0" fill="#ffffff" font-size="4" text-anchor="start" font-family="monospace">C-lane: ≤_c projection</text>
<text x="1040.0" y="671.0" fill="#ffffff" font-size="4" text-anchor="start" font-family="monospace">T/F-lanes: ≤_t arms</text>
</svg>